<svg width="305" height="305" viewBox="0 0 305 305" fill="none" xmlns="http://www.w3.org/2000/svg">
<path d="M304.173 239.706C304.173 239.27 303.817 238.914 303.381 238.914C302.945 238.914 302.589 239.27 302.589 239.706C302.589 240.142 302.945 240.498 303.381 240.498C303.817 240.498 304.173 240.142 304.173 239.706Z" fill="#D2C8C8"/>
<path d="M166.004 198.916C167.526 197.74 167.526 197.716 166.004 196.54C165.158 195.886 163.177 195.352 161.601 195.352C160.025 195.352 158.043 195.886 157.198 196.54C155.676 197.716 155.676 197.74 157.198 198.916C158.043 199.569 160.025 200.104 161.601 200.104C163.177 200.104 165.158 199.569 166.004 198.916Z" fill="white"/>
<path d="M146.747 196.895C148.381 196.441 149.717 195.569 149.717 194.956C149.717 192.533 140.54 191.861 138.644 194.145C137.461 195.571 138.925 196.648 143.381 197.632C143.599 197.68 145.113 197.349 146.747 196.895Z" fill="white"/>
<path d="M182.638 194.955C184.16 193.779 184.16 193.755 182.638 192.579C181.792 191.925 179.811 191.391 178.235 191.391C176.658 191.391 174.677 191.925 173.831 192.579C172.309 193.755 172.309 193.779 173.831 194.955C174.677 195.608 176.658 196.143 178.235 196.143C179.811 196.143 181.792 195.608 182.638 194.955Z" fill="white"/>
<path d="M204.371 188.278C204.371 185.527 204.149 185.211 201.896 184.761C200.534 184.488 197.95 184.294 196.153 184.328C193.317 184.382 193.147 184.478 194.866 185.051C195.955 185.414 197.804 185.922 198.974 186.179C200.484 186.511 201.388 187.439 202.088 189.374C203.316 192.771 204.371 192.264 204.371 188.278Z" fill="white"/>
<path d="M133.813 188.493C135.603 187.239 135.622 187.132 134.234 186.117C131.616 184.203 124.37 184.91 124.37 187.079C124.37 189.764 130.654 190.705 133.813 188.493Z" fill="white"/>
<path d="M168.174 184.57C172.774 182.947 176.122 180.139 177.744 176.541C180.452 170.535 176.677 163.822 168.248 159.654C164.894 157.995 163.249 157.736 156.054 157.731C148.337 157.725 147.435 157.891 143.559 160.039C138.484 162.851 136.247 166.178 136.265 170.887C136.284 175.991 138.956 180.152 143.777 182.583C151.687 186.573 160.469 187.289 168.174 184.57Z" fill="white"/>
<path d="M127.089 177.15C129.83 176.108 129.645 175.049 126.546 174.033C123.447 173.017 119.321 173.946 118.976 175.734C118.599 177.69 123.444 178.536 127.089 177.15Z" fill="white"/>
<path d="M129.457 165.561C130.146 165.297 130.71 164.584 130.71 163.977C130.71 162.718 124.729 162.422 122.886 163.589C120.172 165.308 125.753 166.983 129.457 165.561Z" fill="white"/>
<path d="M188.982 163.579C189.695 162.425 188.096 161.491 184.313 160.852C178.812 159.922 178.632 162.404 184.106 163.713C187.699 164.572 188.38 164.554 188.982 163.579Z" fill="white"/>
<path d="M298.413 156.854C298.15 156.591 297.467 156.563 296.895 156.792C296.263 157.044 296.451 157.232 297.374 157.27C298.209 157.304 298.677 157.117 298.413 156.854Z" fill="#D2C8C8"/>
<path d="M141.647 156.16C141.816 155.991 141.719 155.473 141.432 155.008C140.75 153.904 136.594 153.924 134.507 155.04C133.182 155.75 133.079 156.058 133.965 156.652C134.948 157.31 140.877 156.93 141.647 156.16Z" fill="white"/>
<path d="M174.97 155.82C176.621 154.775 173.525 153.371 169.568 153.371C165.702 153.371 165.349 154.621 168.922 155.653C172.295 156.627 173.637 156.664 174.97 155.82Z" fill="white"/>
<path d="M157.291 152.16C155.703 150.959 152.369 150.638 150.185 151.477C147.75 152.411 149.876 153.373 154.321 153.349C158.457 153.325 158.702 153.227 157.291 152.16Z" fill="white"/>
<g opacity="0.5" filter="url(#filter0_f_4181_4756)">
<path d="M137.045 299.772C130.293 299.488 123.699 299.057 122.392 298.814C121.085 298.571 115.916 297.97 110.907 297.48C87.766 295.213 72.0947 290.27 72.0947 285.238C72.0947 278.666 94.4171 273.475 131.897 271.332C171.007 269.095 218.407 274.185 229.053 281.765C237.678 287.907 221.636 294.641 191.496 297.53C186.596 297.999 180.806 298.714 178.628 299.119C173.412 300.088 152.416 300.417 137.043 299.771L137.045 299.772Z" fill="#8F8E8E"/>
</g>
<path d="M202.502 269.197C198.188 268.928 197.801 268.743 196.97 266.543C195.913 263.743 195.979 263.759 181.795 262.703C175.696 262.249 157.223 260.805 140.745 259.494C103.866 256.561 104.853 256.571 102.506 259.105C100.987 260.744 100.125 261.031 97.6623 260.721C96.0147 260.513 91.1245 260.139 86.795 259.889C78.9279 259.435 76.8449 258.735 76.8449 256.545C76.8449 255.905 76.132 254.475 75.2607 253.367C74.1237 251.922 73.6766 250.154 73.6766 247.104C73.6766 244.766 73.3202 242.854 72.8845 242.854C72.4489 242.854 72.0924 244.089 72.0924 245.598C72.0924 247.549 71.6256 248.593 70.4783 249.207C68.3827 250.328 65.9712 249.533 65.3287 247.509C65.0199 246.535 64.3828 246.086 63.704 246.361C63.0899 246.61 62.0988 247.013 61.5015 247.256C60.9042 247.499 59.8041 247.086 59.0568 246.339C57.7506 245.033 57.7498 244.084 59.0513 239.884C59.5233 238.361 59.3132 238.102 57.6065 238.102C55.7492 238.102 55.6377 238.314 56.0152 241.128C56.3085 243.315 56.0521 244.523 55.0911 245.484C53.44 247.136 50.0203 247.221 49.4083 245.626C49.1316 244.905 47.9338 244.438 46.3615 244.438C44.5944 244.438 43.4135 243.9 42.6473 242.746C41.6417 241.232 41.3408 241.169 39.7757 242.147C36.1596 244.405 33.5329 240.078 36.1214 236.128C37.0769 234.669 37.2284 233.812 36.6354 233.219C35.5166 232.1 34.0724 233.072 34.0724 234.943C34.0724 237.711 32.3062 240.478 30.5393 240.478C26.8796 240.478 25.8509 236.968 28.517 233.579C30.2743 231.345 29.9907 230.181 27.689 230.181C26.5015 230.181 26.1516 230.733 26.1516 232.609C26.1516 237.147 23.5544 239.679 20.5497 238.071C18.6601 237.059 18.5379 233.602 20.3027 231.082C21.218 229.775 21.3392 229.012 20.7282 228.401C20.1171 227.79 19.6445 228.15 19.0683 229.665C18.6252 230.831 17.3659 232.193 16.2698 232.692C14.6172 233.445 14.0059 233.355 12.6895 232.164C11.8165 231.374 11.1021 230.07 11.1021 229.266C11.1021 228.241 10.5194 227.804 9.14983 227.804C4.98564 227.804 4.95214 221.639 9.10606 219.747C10.2039 219.246 11.1022 218.351 11.1022 217.756C11.1022 216.883 10.6271 216.92 8.64064 217.947C5.39019 219.628 2.38933 218.898 2.38933 216.427C2.38933 214.065 4.5151 212.167 7.53783 211.831C9.00452 211.668 9.91406 211.112 9.91406 210.379C9.91406 209.625 9.33508 209.293 8.32991 209.472C1.24406 210.731 -1.81264 208.859 1.52596 205.306C2.69744 204.059 3.19225 202.836 2.86758 201.99C2.05554 199.874 4.46647 196.913 7.00159 196.913C8.21133 196.913 9.60491 197.317 10.0984 197.81C11.088 198.8 13.4783 198.209 13.4783 196.974C13.4783 196.544 12.2541 195.963 10.7579 195.683C9.26163 195.402 7.39343 194.461 6.60634 193.591C5.21965 192.059 5.23304 191.963 7.03835 190.501C8.06298 189.671 9.58733 188.992 10.4257 188.992C11.7236 188.992 11.8191 188.748 11.069 187.346C9.86093 185.089 10.6387 183.527 13.4606 182.543C14.7693 182.087 16.2914 180.767 16.8432 179.611C18.1343 176.904 21.3339 176.435 23.3454 178.658C24.8749 180.348 27.7357 180.876 27.7357 179.468C27.7357 179.021 26.7628 178.286 25.5737 177.834C20.1883 175.787 21.3164 169.983 27.0999 169.983C28.2529 169.983 29.2374 169.314 29.7261 168.2C30.2881 166.919 31.2974 166.352 33.3148 166.182C36.0139 165.955 36.1093 165.841 35.8021 163.209C35.5074 160.685 35.6741 160.434 37.9504 159.979C39.5471 159.66 40.7681 158.752 41.4092 157.407C42.8671 154.35 47.109 154.091 49.7141 156.901C51.4589 158.782 51.8114 158.878 53.3119 157.882C56.167 155.986 55.8603 154.933 52.4529 154.933C48.5305 154.933 46.9325 153.327 48.1647 150.622C48.6379 149.583 49.7251 148.512 50.5808 148.24C51.8137 147.849 52.0949 147.136 51.9353 144.805C51.6442 140.555 50.6719 137.379 49.0008 135.222C48.196 134.184 47.5374 132.847 47.5374 132.252C47.5374 131.658 46.808 131.171 45.9164 131.171C44.9468 131.171 43.7533 130.221 42.9461 128.808C42.0742 127.28 41.1505 126.585 40.3351 126.841C39.6412 127.06 38.1447 126.508 37.0097 125.615C35.6182 124.52 34.3215 124.148 33.0293 124.473C31.572 124.838 30.728 124.465 29.5081 122.914C28.5274 121.667 27.1117 120.874 25.8672 120.874C22.0222 120.874 21.6812 116.648 25.2658 113.424C27.0338 111.834 27.5138 109.785 26.1182 109.785C25.6644 109.785 24.5279 110.498 23.5926 111.369C21.4045 113.408 17.7095 113.471 17.0779 111.481C16.3571 109.21 17.3079 107.651 20.272 106.244C23.0496 104.926 23.8794 103.448 21.8416 103.448C21.2139 103.448 20.48 103.805 20.2108 104.24C19.5272 105.346 14.7868 105.232 13.6365 104.082C11.1008 101.546 14.4816 97.5572 18.7838 98.0084C20.0047 98.1365 21.4549 97.9625 22.0063 97.6217C23.8626 96.4745 22.1201 95.52 19.0621 96.0091C16.599 96.4029 15.7038 96.169 14.2994 94.7646C12.7314 93.1966 12.6779 92.8741 13.7267 91.311C14.9214 89.5304 17.1607 89.272 21.5937 90.4034C23.2877 90.8357 24.0759 90.5796 25.158 89.2452C25.9222 88.3029 29.5771 85.6677 33.28 83.3891L40.0126 79.2463L40.4967 69.3667C41.0229 58.6269 41.4537 56.2602 43.6981 51.7794C48.1407 42.9098 81.1412 27.328 121.225 15.1744C137.698 10.1799 157.716 6.14313 178.23 3.67898C185.854 2.76326 193.728 1.64992 195.728 1.20485C200.292 0.189326 229.485 0.106968 230.755 1.10598C231.272 1.51272 233.247 2.0825 235.145 2.37232C237.042 2.66214 239.598 3.41813 240.824 4.05234C245.304 6.36877 251.557 15.9145 256.643 28.2004C257.995 31.4677 259.412 34.8539 259.79 35.7251C261.094 38.7295 261.329 42.3386 260.54 47.2388C259.537 53.4677 257.384 57.7084 254.576 58.9876C251.404 60.4333 238.617 61.3354 231.062 60.6465C219.285 59.5725 204.254 56.2764 200.794 54.0089C197.559 51.8897 196.136 42.6909 198.149 36.9159C200.08 31.3783 194.729 26.3274 186.993 26.3853C177.483 26.4565 110.223 42.3789 102.09 46.4834C94.7462 50.1912 92.9315 56.7487 97.705 62.3258C102.462 67.8831 103.497 74.8406 100.158 78.8089C97.5611 81.8951 87.8594 89.7031 80.1034 94.9491C73.0741 99.7033 61.5996 104.871 56.5311 105.566C53.0595 106.042 52.9155 105.97 48.7808 101.701C46.054 98.8859 44.0067 95.8421 42.9772 93.0731C40.9519 87.6249 39.5028 87.3773 31.641 91.1362C26.0892 93.7907 25.7303 94.1206 25.3505 96.9175C24.9018 100.221 26.4684 105.203 28.9216 108.274C30.5622 110.328 36.8255 113.745 38.9501 113.745C39.6163 113.745 40.8066 114.458 41.5951 115.329C42.3836 116.2 43.6647 116.913 44.442 116.913C45.6896 116.913 51.333 121.046 54.6645 124.399C60.6025 130.377 61.9333 132.134 61.571 133.519C61.3539 134.349 61.6988 135.774 62.3375 136.686C63.9887 139.044 62.9714 148.159 60.7003 151.355C59.7766 152.655 58.6645 154.782 58.2289 156.08C57.7933 157.379 56.1893 159.248 54.6646 160.233C53.1398 161.218 51.5359 162.427 51.1002 162.92C50.6646 163.412 49.1979 164.936 47.841 166.305C46.4841 167.674 44.9573 169.595 44.4482 170.573C43.9391 171.552 42.0781 173.156 40.3127 174.138C33.7602 177.781 32.8281 178.397 30.3864 180.699C29.0138 181.993 26.2743 184.477 24.2988 186.22C22.3232 187.962 20.6839 189.725 20.6559 190.137C20.6078 190.847 18.4178 194.389 14.7523 199.685C13.4752 201.531 13.1047 203.3 13.094 207.606C13.0769 214.468 13.9493 217.217 17.3953 221.158C20.7611 225.006 23.9669 227.011 26.7624 227.015C27.9499 227.016 30.0885 227.729 31.5149 228.599C32.9413 229.469 34.8467 230.18 35.7491 230.18C36.6515 230.18 38.336 230.669 39.4923 231.267C43.1132 233.14 46.9226 234.049 53.4756 234.606C56.9608 234.902 60.5251 235.518 61.3964 235.975C62.2677 236.432 63.9795 236.734 65.2004 236.646C66.4214 236.557 68.1937 237.027 69.139 237.689C70.9741 238.974 73.3443 239.275 73.947 238.299C74.1487 237.972 74.9013 233.606 75.6195 228.596C80.8693 191.975 87.8056 153.028 90.1581 146.964C91.8851 142.514 94.7838 140.312 104.172 136.316C110.329 133.696 113.695 131.82 114.122 130.772C114.478 129.9 115.509 123.663 116.415 116.91C118.822 98.9698 117.811 100.807 125.049 101.226C128.429 101.421 131.619 101.844 132.138 102.164C132.773 102.557 133.08 105.56 133.08 111.377V120.007L135.654 120.405C137.07 120.624 148.209 121.539 160.407 122.438C172.605 123.338 183.928 124.249 185.57 124.464C189.207 124.94 189.676 124.054 190.513 115.126C191.318 106.538 191.581 106.299 199.475 106.997C203.402 107.345 205.981 107.928 206.027 108.478C206.068 108.977 206.038 116.051 205.96 124.197L205.818 139.008L215.15 145.187C226.462 152.676 227.221 153.856 228.18 165.441C229.019 175.562 229.039 247.31 228.206 256.015C227.642 261.909 227.334 262.752 224.524 266.114L221.457 269.783L214.298 269.633C210.361 269.551 205.051 269.354 202.5 269.195L202.502 269.197ZM67.1997 241.006C67.3513 240.224 66.9472 239.685 66.2096 239.685C65.472 239.685 64.9634 240.362 64.9634 241.335C64.9634 243.266 66.8143 242.993 67.1997 241.006ZM50.7063 237.658C50.7063 236.351 49.4545 236.13 48.7261 237.309C48.0801 238.354 49.0272 239.837 49.9689 239.255C50.3745 239.005 50.7063 238.286 50.7063 237.658ZM43.5776 236.47C43.5776 236.06 43.2211 235.725 42.7855 235.725C42.3499 235.725 41.9934 236.28 41.9934 236.96C41.9934 237.639 42.3499 237.974 42.7855 237.705C43.2211 237.436 43.5776 236.88 43.5776 236.47ZM14.9804 225.496C15.6275 225.086 15.8699 224.233 15.5651 223.439C15.1417 222.335 14.8238 222.264 13.8656 223.06C12.6417 224.075 12.2417 226.229 13.2809 226.208C13.6076 226.202 14.3724 225.881 14.9804 225.496ZM174.529 205.257C182.665 203.094 187.799 200.155 193.481 194.406C196.425 191.428 199.149 188.992 199.535 188.992C200.446 188.992 201.199 190.993 201.199 193.413C201.199 195.828 202.031 195.836 204.279 193.442C205.668 191.964 205.998 190.807 205.804 188.096C205.588 185.084 205.235 184.494 203.077 183.544C200.665 182.481 200.589 182.291 200.248 176.385C199.972 171.622 199.402 169.41 197.598 166.095C193.288 158.176 182.387 150.581 170.704 147.357C163.725 145.431 149.075 145.001 141.944 146.512C129.443 149.161 119.071 156.285 115.106 164.943C113.346 168.788 113.131 170.145 113.445 175.414C113.887 182.806 115.795 186.938 121.477 192.81C127.951 199.499 138.649 204.673 149.609 206.417C155.641 207.376 168.869 206.761 174.526 205.257L174.529 205.257ZM17.2458 190.378C17.0664 189.834 16.0736 189.265 15.0394 189.114C13.3979 188.875 13.2923 189.001 14.2084 190.104C15.4489 191.599 17.7151 191.803 17.2458 190.378ZM22.0107 184.388C22.1859 183.863 21.5959 183.448 20.6741 183.448C19.0287 183.448 18.5356 184.279 19.5685 185.312C20.3024 186.046 21.6249 185.546 22.0107 184.388ZM27.7368 174.338C27.7368 173.685 27.2022 173.15 26.5487 173.15C25.3118 173.15 24.9772 174.087 25.8886 174.998C26.8001 175.91 27.7368 175.575 27.7368 174.338ZM34.7137 169.923C34.5576 169.454 34.0912 169.071 33.6774 169.071C33.2636 169.071 32.7972 169.454 32.6411 169.923C32.485 170.391 32.9514 170.774 33.6774 170.774C34.4035 170.774 34.8698 170.391 34.7137 169.923ZM41.7949 169.393C42.1087 168.45 38.1899 166.394 37.4638 167.12C37.2711 167.312 37.5228 168.235 38.0231 169.17C38.9755 170.949 41.2322 171.083 41.7949 169.393ZM40.4101 163.645C40.4101 163.21 40.0326 162.853 39.5713 162.853C39.1099 162.853 38.9527 163.21 39.222 163.645C39.4912 164.081 39.8687 164.437 40.0608 164.437C40.2529 164.437 40.4101 164.081 40.4101 163.645ZM46.7467 163.249C46.7467 162.596 46.212 162.061 45.5586 162.061C44.9051 162.061 44.3704 162.596 44.3704 163.249C44.3704 163.903 44.9051 164.437 45.5586 164.437C46.212 164.437 46.7467 163.903 46.7467 163.249ZM59.271 148.389C59.4636 147.389 59.0143 147.012 57.63 147.012C55.1729 147.012 54.4478 147.773 55.5917 149.151C56.7816 150.585 58.934 150.139 59.271 148.389ZM61.0042 140.326C61.0042 138.777 59.4689 137.933 58.4696 138.932C58.0227 139.379 57.8966 140.132 58.1893 140.606C58.9657 141.862 61.0042 141.659 61.0042 140.326ZM58.232 132.699C58.232 132.088 57.6082 131.468 56.8458 131.321C55.4805 131.058 54.9161 132.739 56.0042 133.827C56.8345 134.657 58.232 133.95 58.232 132.699ZM52.5312 126.825C52.6171 126.395 52.0636 125.923 51.3013 125.776C50.4343 125.609 49.9151 125.998 49.9151 126.814C49.9151 128.192 52.256 128.201 52.5312 126.825ZM46.1922 120.794C45.5432 120.145 45.0876 120.325 44.4718 121.476C43.3887 123.5 44.3202 124.431 45.8737 122.878C46.7568 121.995 46.8412 121.443 46.1922 120.794ZM33.6774 120.081C33.9466 119.645 33.7895 119.289 33.3281 119.289C32.8668 119.289 32.4893 119.645 32.4893 120.081C32.4893 120.517 32.6465 120.873 32.8386 120.873C33.0307 120.873 33.4082 120.517 33.6774 120.081ZM39.4364 117.853C39.6089 117.336 39.1856 116.913 38.4958 116.913C37.8061 116.913 37.2418 117.477 37.2418 118.167C37.2418 119.565 38.9469 119.322 39.4364 117.853ZM240.481 159.288C240.173 157.546 239.271 154.249 238.475 151.962C237.68 149.675 237.142 147.803 237.28 147.803C237.418 147.803 238.254 148.819 239.138 150.061C241.115 152.837 242.28 157.824 241.571 160.477C241.094 162.262 240.987 162.145 240.481 159.288ZM246.674 150.533C245.906 148.914 243.291 145.443 240.864 142.821C237.091 138.746 236.804 138.237 238.887 139.313C242.281 141.068 246.768 146.244 247.919 149.734C249.22 153.675 248.411 154.194 246.674 150.533ZM20.6789 55.5232C20.5267 49.7934 27.8182 36.8428 33.4574 32.8278C36.2303 30.8533 35.897 31.5668 31.1636 37.7394C28.3215 41.4456 25.179 47.1644 21.6088 55.1271C20.8423 56.8367 20.7152 56.8908 20.6789 55.5232Z" fill="#849FE3"/>
<path d="M202.391 269.119C197.805 268.662 197.608 268.548 196.745 265.873L195.851 263.1L174.17 261.332C119.737 256.894 105.691 255.848 104.798 256.169C104.27 256.359 103.622 257.194 103.358 258.026C103.094 258.857 102.279 259.845 101.546 260.221C99.7637 261.134 79.2615 259.761 77.9071 258.638C77.3239 258.154 76.8467 256.979 76.8467 256.026C76.8467 255.074 76.3233 253.602 75.6837 252.757C74.9575 251.797 74.5114 249.36 74.4956 246.269C74.4732 241.855 74.2988 241.318 72.8863 241.318C71.5801 241.318 71.3021 241.846 71.3021 244.328C71.3021 248.913 68.3242 250.971 66.5326 247.623C65.8477 246.343 65.9977 245.473 67.2535 243.441C69.0974 240.458 68.4513 238.677 65.668 239.071C64.0883 239.295 63.808 239.744 63.9633 241.801C64.0868 243.437 63.6138 244.748 62.5525 245.708C61.0635 247.056 60.867 247.064 59.6382 245.835C58.4095 244.607 58.4111 244.328 59.6629 241.703C61.3538 238.157 61.3998 238.415 58.8269 237.019C55.8987 235.43 58.0568 235.437 61.1298 237.026C62.462 237.715 64.347 238.079 65.3188 237.835C66.2905 237.591 67.7622 237.904 68.5998 238.537C70.2056 239.753 74.1279 240.137 74.7437 239.14C74.9454 238.813 75.6971 234.447 76.414 229.437C79.8093 205.712 85.8001 169.33 87.9483 159.389C91.4135 143.353 91.8359 142.787 104.511 137.185C110.58 134.503 114.965 132.098 115.182 131.332C115.385 130.616 116.362 124.05 117.355 116.739C118.347 109.429 119.401 103.057 119.697 102.578C120.062 101.987 122.175 101.891 126.294 102.277L132.353 102.845L132.235 111.531C132.169 116.308 132.333 120.434 132.598 120.699C132.864 120.964 138.695 121.64 145.558 122.2C182.704 125.234 188.891 125.629 189.517 125.003C189.892 124.628 190.685 120.841 191.279 116.587C191.873 112.333 192.682 108.531 193.077 108.135C193.471 107.74 196.337 107.654 199.479 107.946L205.163 108.474V139.784L214.286 145.6C225.733 152.898 226.509 154.195 227.41 167.557C228.189 179.092 228.218 241.089 227.451 252.84C226.94 260.667 226.625 262.004 224.471 265.513L222.063 269.436L214.603 269.513C210.5 269.556 205.004 269.378 202.39 269.117L202.391 269.119ZM70.2412 246.413C70.9014 244.693 69.2255 243.075 68.0258 244.275C67.0119 245.289 67.64 247.655 68.923 247.655C69.386 247.655 69.9792 247.096 70.2412 246.413ZM62.5864 243.251C62.5864 242.624 62.0518 242.11 61.3983 242.11C60.2053 242.11 59.77 243.782 60.7167 244.729C61.4559 245.468 62.5864 244.575 62.5864 243.251ZM171.727 206.837C181.071 204.98 189.866 200.335 195.2 194.441L199.614 189.563V192.819C199.614 194.611 199.968 196.295 200.401 196.563C200.834 196.83 202.394 196.13 203.867 195.006C208.381 191.563 208.483 184.42 204.043 182.732C202.485 182.14 202.162 181.303 201.737 176.752C201.058 169.475 198.23 163.708 192.677 158.277C183.636 149.434 170.065 144.528 154.465 144.463C143.877 144.419 137.845 145.715 129.374 149.856C118.099 155.368 112.423 163.522 112.31 174.366C112.228 182.298 115.256 188.699 121.96 194.766C134.021 205.681 153.624 210.436 171.727 206.837ZM50.1983 244.882C49.9183 244.153 48.7162 243.694 47.0828 243.694C43.6571 243.694 42.4637 241.737 43.7736 238.267C44.4865 236.378 44.4877 235.577 43.7784 234.868C42.4136 233.503 40.5551 235.327 40.2548 238.327C39.9674 241.198 37.7881 242.976 36.3363 241.525C35.603 240.791 35.7099 239.87 36.8117 237.426C38.4792 233.729 37.9824 231.593 35.539 231.956C34.2629 232.145 33.5562 233.159 32.7392 235.971C31.9297 238.758 31.2556 239.734 30.1395 239.734C27.781 239.734 27.2998 236.75 29.2359 234.131C31.3185 231.314 31.3238 230.51 29.2674 229.41C27.4874 228.457 25.3576 229.544 25.3576 231.404C25.3576 232.013 24.6357 232.247 23.4554 232.022C22.0148 231.746 21.419 232.081 21.0005 233.399C20.2423 235.788 21.7108 237.155 23.4727 235.7C24.6432 234.734 24.7714 234.744 24.4343 235.773C23.8691 237.5 20.7072 237.753 20.0812 236.122C19.7969 235.381 20.2005 233.593 20.9782 232.149C22.4931 229.336 22.1797 227.061 20.2773 227.061C19.6339 227.061 18.6399 228.041 18.0683 229.239C16.8606 231.77 13.1887 232.686 12.4075 230.65C11.963 229.491 12.7147 228.498 16.1994 225.636C17.1575 224.85 17.2573 224.245 16.6244 223.062C15.4312 220.833 13.6065 221.159 12.0535 223.88C9.84441 227.75 7.13986 227.929 7.13986 224.205C7.13986 222.847 7.87512 221.815 9.50366 220.885C14.3979 218.091 13.1166 214.822 8.02699 217.117C6.30779 217.892 4.51381 218.287 4.04031 217.994C2.95936 217.326 2.90328 214.387 3.9715 214.387C4.40714 214.387 4.76358 214.922 4.76358 215.575C4.76358 216.919 7.56737 217.202 8.34939 215.937C8.63043 215.482 8.45244 214.618 7.95386 214.018C7.23272 213.149 7.42124 212.872 8.87576 212.666C10.2289 212.474 10.7042 211.892 10.7042 210.427C10.7042 208.312 11.0536 208.375 3.77351 209.186C1.12029 209.481 0.803223 209.325 0.803223 207.727C0.803223 206.665 1.28594 205.938 1.99134 205.938C2.6448 205.938 3.17945 206.592 3.17945 207.39C3.17945 208.189 3.69307 208.843 4.32084 208.843C6.02024 208.843 6.7503 207.144 5.4787 206.148C3.89771 204.91 3.70452 199.753 5.19295 198.518C6.16626 197.71 7.01053 197.719 9.56554 198.562C11.803 199.3 12.9792 199.36 13.5746 198.764C14.8521 197.487 14.0572 195.03 12.2793 194.762C7.97037 194.111 7.13988 193.696 7.13988 192.194C7.13988 190.928 7.67685 190.625 9.92292 190.625C11.4536 190.625 13.3667 191.038 14.1744 191.542C14.9821 192.046 16.2511 192.226 16.9944 191.94C19.2057 191.092 18.0722 188.806 15.0594 188.039C13.5353 187.65 11.9648 187.019 11.5694 186.636C10.4902 185.59 12.3711 183.757 15.0784 183.215C16.7033 182.89 17.4369 182.275 17.4369 181.237C17.4369 180.408 17.9864 179.274 18.6581 178.716C19.6717 177.875 20.2835 178.001 22.257 179.46C24.9116 181.423 28.9219 181.472 28.9219 179.542C28.9219 178.892 27.5853 177.731 25.9516 176.961C24.0076 176.046 22.9813 175.027 22.9813 174.013C22.9813 172.297 25.4483 170.613 27.0824 171.213C28.3502 171.679 29.4214 170.955 30.591 168.843C32.0791 166.154 34.1929 166.421 36.8925 169.636C39.0832 172.246 39.5735 172.485 41.0786 171.679C43.7308 170.26 43.1921 167.985 39.813 166.334C35.2512 164.105 35.4928 160.57 40.209 160.538C41.3926 160.53 41.9912 160.047 41.9912 159.1C41.9912 155.408 45.4919 154.822 49.153 157.903C51.5186 159.894 51.82 159.956 53.7682 158.867C54.9146 158.225 55.9664 156.911 56.1056 155.945C56.3304 154.386 56.0086 154.189 53.2323 154.189C51.3209 154.189 49.6934 153.692 49.0445 152.91C48.1338 151.813 48.2511 151.414 49.8701 150.103C50.9702 149.213 52.2808 148.796 53.0128 149.104C58.3352 151.342 58.6906 151.404 59.457 150.218C59.8756 149.571 60.1269 148.328 60.0155 147.457C59.8428 146.106 59.3166 145.91 56.4466 146.124C52.9612 146.384 52.7566 146.172 53.0394 142.582C53.1134 141.643 52.7964 140.642 52.335 140.357C51.8736 140.072 51.4962 139.012 51.4962 138.002C51.4962 136.992 50.9615 135.722 50.3081 135.179C48.9482 134.051 48.717 130.77 49.9438 130.011C50.4831 129.678 50.5803 130.249 50.2253 131.663C49.7244 133.659 49.8401 133.794 51.738 133.431C53.0335 133.183 53.9449 133.434 54.2039 134.109C54.7851 135.623 58.5701 135.452 59.1718 133.884C59.701 132.504 58.6699 130.31 57.2741 129.845C56.8112 129.69 55.9456 130.038 55.3504 130.618C54.4482 131.497 54.0422 131.441 52.9075 130.282C51.6629 129.012 51.6561 128.832 52.8281 128.176C53.6321 127.726 53.9506 126.851 53.683 125.828C53.3942 124.724 54.3799 125.386 56.7327 127.877C58.9793 130.255 60.209 132.275 60.209 133.588C60.209 134.705 60.7415 136.379 61.3923 137.309C63.1636 139.838 62.1369 148.115 59.6913 151.021C58.6691 152.236 57.8327 153.953 57.8327 154.837C57.8327 155.722 56.7449 157.274 55.4153 158.287C51.6581 161.151 43.5753 169.152 43.5753 170.006C43.5753 170.674 35.4312 176.367 34.476 176.367C34.2803 176.367 34.3148 175.86 34.5528 175.24C34.8011 174.593 34.2792 173.734 33.3281 173.225C31.9709 172.499 31.5755 172.586 31.1451 173.708C30.8223 174.549 31.0941 175.377 31.8496 175.854C32.8875 176.509 32.6051 177.073 30.0419 179.469C25.0407 184.143 23.7786 185.381 21.9009 187.456C19.6161 189.981 15.8527 195.644 15.8527 196.556C15.8527 196.94 15.2128 197.99 14.4307 198.89C12.1347 201.53 10.8627 206.126 11.8944 208.053C12.3772 208.955 12.5506 210.392 12.2799 211.245C11.5759 213.463 13.4529 218.398 15.9025 220.77C17.0542 221.885 18.1378 223.133 18.3107 223.542C19.0387 225.268 23.8934 227.852 26.4066 227.852C27.9047 227.852 29.9995 228.556 31.118 229.436C32.2256 230.307 33.9118 231.02 34.865 231.02C35.8182 231.02 37.5441 231.509 38.7005 232.107C41.7487 233.683 46.1559 234.98 48.4636 234.98C49.5657 234.98 51.5007 235.341 52.7638 235.781C54.8868 236.521 55.0602 236.882 55.0602 240.562C55.0602 243.239 54.6709 244.789 53.8721 245.294C52.1341 246.393 50.7171 246.234 50.1981 244.881L50.1983 244.882ZM54.1861 243.227C54.794 241.643 54.1331 240.526 52.5876 240.526C51.9275 240.526 51.4593 239.908 51.5375 239.14C51.828 236.284 51.4783 235.666 49.7139 235.916C48.4085 236.102 47.9317 236.699 47.9317 238.15C47.9317 239.6 48.4085 240.198 49.7139 240.383C51.0038 240.566 51.4961 241.168 51.4961 242.561C51.4961 244.728 53.4268 245.205 54.1861 243.227ZM46.7435 240.922C46.7435 240.269 46.2089 239.734 45.5554 239.734C44.902 239.734 44.3673 240.269 44.3673 240.922C44.3673 241.575 44.902 242.11 45.5554 242.11C46.2089 242.11 46.7435 241.575 46.7435 240.922ZM39.4333 239.09C39.6057 238.573 39.1825 238.15 38.4927 238.15C37.8029 238.15 37.2386 238.714 37.2386 239.404C37.2386 240.803 38.9438 240.559 39.4333 239.09ZM31.6941 236.566C31.6941 234.765 29.7076 234.407 29.0611 236.092C28.564 237.387 29.1482 238.15 30.638 238.15C31.2188 238.15 31.6941 237.437 31.6941 236.566ZM16.6446 229.437C16.6446 228.566 16.131 227.853 15.5032 227.853C14.1039 227.853 13.2093 229.156 13.8723 230.229C14.7337 231.623 16.6446 231.077 16.6446 229.437ZM10.9601 223.629C11.1083 222.865 10.7107 222.308 10.0167 222.308C8.54529 222.308 7.65714 223.599 8.35361 224.726C9.07007 225.886 10.6516 225.22 10.9601 223.629ZM10.704 204.09C10.704 202.373 7.6138 202.609 7.27803 204.353C7.06142 205.478 7.41466 205.744 8.85134 205.541C9.87026 205.397 10.704 204.744 10.704 204.09ZM8.58433 200.656C8.91077 198.973 6.41633 197.945 5.52089 199.394C4.74972 200.642 6.14033 202.707 7.45657 202.269C7.93574 202.109 8.44326 201.384 8.58433 200.656ZM12.132 192.617C12.2179 192.187 11.6644 191.715 10.902 191.568C10.035 191.401 9.51589 191.79 9.51589 192.606C9.51589 193.984 11.8567 193.993 12.132 192.617ZM15.8525 185.411C15.8525 184.012 14.1473 184.256 13.6578 185.725C13.4854 186.242 13.9086 186.665 14.5984 186.665C15.2882 186.665 15.8525 186.101 15.8525 185.411ZM22.9524 185.512C24.0332 184.209 23.4266 182.705 21.8205 182.705C21.1645 182.705 20.9039 182.129 21.1442 181.21C21.6092 179.432 20.0318 178.209 18.8269 179.413C18.2245 180.016 18.2503 180.588 18.9162 181.391C19.6544 182.28 19.5896 182.621 18.6108 182.997C17.6298 183.373 17.548 183.809 18.2224 185.069C19.2217 186.936 21.5864 187.158 22.9524 185.512ZM28.9432 175.541C29.6588 174.383 27.8363 172.407 26.0525 172.407C24.5975 172.407 23.9562 174.703 25.0934 175.84C25.9089 176.655 28.3727 176.464 28.9432 175.541ZM36.1639 171.209C36.4168 170.55 36.1837 169.481 35.646 168.833C34.2653 167.169 31.694 167.331 31.694 169.081C31.694 171.932 35.2388 173.62 36.1639 171.209ZM41.991 164.831C41.991 163.584 40.2147 161.318 39.2376 161.318C37.5908 161.318 36.9657 162.808 38.0593 164.125C38.9736 165.227 41.991 165.768 41.991 164.831ZM47.9315 163.299C47.9315 162.09 47.3208 161.655 45.3573 161.466C42.6223 161.202 41.9067 162.501 43.7639 164.359C45.2459 165.841 47.9315 165.158 47.9315 163.299ZM47.953 159.699C48.5971 158.657 46.9155 156.566 45.4335 156.566C44.8197 156.566 44.0985 157.136 43.8309 157.834C43.0553 159.855 46.8074 161.553 47.953 159.699ZM53.8721 151.813C53.8721 150.773 53.3441 150.229 52.3347 150.229C50.594 150.229 49.5765 151.422 50.3078 152.605C51.2207 154.083 53.8721 153.493 53.8721 151.813ZM57.0404 144.289C57.0404 143.635 56.5058 143.101 55.8523 143.101C55.1989 143.101 54.6642 143.635 54.6642 144.289C54.6642 144.942 55.1989 145.477 55.8523 145.477C56.5058 145.477 57.0404 144.942 57.0404 144.289ZM61.6475 140.13C61.355 137.588 58.6884 136.758 57.0721 138.706C55.7106 140.346 57.2847 142.308 59.9623 142.308C61.6068 142.308 61.8604 141.981 61.6475 140.13ZM56.2484 137.914C56.2484 136.469 55.2031 135.941 53.9169 136.736C52.4745 137.628 53.4677 140.038 55.0302 139.438C55.7002 139.181 56.2484 138.495 56.2484 137.914ZM44.1034 129.899C42.8837 128.679 43.6939 125.779 45.6041 124.528C47.9031 123.021 48.0142 119.917 45.7844 119.492C44.8654 119.317 43.9724 120.207 43.0106 122.256C41.9449 124.527 41.0499 125.341 39.4109 125.53C37.9888 125.693 37.0639 125.349 36.7534 124.54C36.4412 123.726 35.2797 123.298 33.3814 123.298C31.1382 123.298 30.3095 122.897 29.7038 121.516C29.1149 120.174 28.3835 119.797 26.7407 119.989C24.1472 120.292 23.143 118.518 24.4429 115.928C25.2495 114.321 25.2806 114.354 24.8546 116.368C24.4729 118.172 24.666 118.546 25.979 118.546C27.4267 118.546 28.5259 117.151 28.5259 115.313C28.5259 114.913 27.971 114.585 27.2928 114.585C26.1957 114.585 26.1891 114.401 27.2331 112.91C29.6724 109.428 26.7927 107.797 23.1975 110.625C21.0351 112.326 18.6199 112.691 17.843 111.434C17.0191 110.101 18.882 107.66 21.3909 106.786C24.0648 105.853 25.343 103.674 23.7818 102.709C23.2238 102.365 21.5794 102.579 20.1275 103.185C14.8922 105.373 11.6934 103.611 14.7558 100.227C15.9193 98.9415 16.8316 98.698 19.1158 99.0632C21.1493 99.3884 22.2924 99.1781 22.9775 98.3525C24.7677 96.1954 23.3191 94.8838 18.8642 94.6283C15.252 94.4212 14.6303 94.1476 14.4203 92.6733C14.0768 90.2619 16.6242 89.6692 20.1354 91.3436L23.0007 92.7099L25.9613 89.9042C29.051 86.9762 37.9866 81.3181 39.5209 81.3181C40.0084 81.3181 40.4483 81.9418 40.4984 82.7042C40.5486 83.4666 40.8532 82.7271 41.1755 81.0607C41.4978 79.3943 41.6415 76.7211 41.4948 75.1201C41.0764 70.5511 42.6801 57.677 43.9812 55.1614C46.3572 50.5667 62.1142 41.1709 81.1993 32.9681C93.7387 27.5789 122.664 17.9987 137.041 14.4731C148.264 11.721 169.108 8.00122 184.961 5.92107C195.734 4.50785 234.386 4.49753 239.037 5.90671C241.625 6.69115 243.24 7.97858 245.922 11.3949C250.145 16.7762 255.724 27.8416 258.725 36.7865L260.924 43.3444L259.537 48.6677C257.725 55.6234 256.13 57.733 251.818 58.8775C246.065 60.4044 231.028 60.1208 220.198 58.2813C200.776 54.9827 198.382 53.4335 198.488 44.2314C198.522 41.3219 198.837 37.4171 199.189 35.5542C199.807 32.2892 199.712 32.0554 196.575 29.0712C191.413 24.1602 189.807 24.1764 164.612 29.3925C140.504 34.3839 104.019 44.1117 99.9306 46.6385C93.9261 50.3495 92.4024 57.7505 96.6476 62.5853C99.5843 65.93 101.397 70.1333 101.397 73.596C101.397 75.7202 100.602 77.0009 97.2391 80.2901C86.9627 90.3416 68.6665 101.735 58.5342 104.392C55.2949 105.242 54.583 105.178 52.2752 103.829C48.8715 101.84 44.668 95.6636 43.1394 90.4058L41.9216 86.2169L39.1507 86.982C37.6266 87.4028 35.1197 88.4905 33.5797 89.3992C32.0397 90.3078 29.4706 91.5007 27.8706 92.0501C25.2179 92.9609 24.9145 93.3735 24.4268 96.7332C23.8461 100.733 24.9193 104.261 27.9872 108.435C29.6843 110.745 36.1203 114.584 38.2937 114.584C38.9029 114.584 40.2514 115.248 41.2903 116.06C42.3292 116.871 44.0339 117.803 45.0784 118.13C47.9235 119.022 52.5114 123.834 51.0511 124.395C50.417 124.638 49.4631 125.827 48.9312 127.037C47.581 130.109 45.5301 131.325 44.1035 129.898L44.1034 129.899ZM47.4319 127.78C48.4012 126.612 47.8596 125.675 46.2156 125.675C45.6347 125.675 45.1595 126.387 45.1595 127.259C45.1595 129.086 46.1577 129.315 47.4319 127.78ZM41.1704 123.729C42.2589 122.418 41.6412 120.922 40.0111 120.922C38.5858 120.922 37.7745 122.28 38.3319 123.732C38.8945 125.199 39.9519 125.197 41.1704 123.729ZM33.9121 121.556C35.2071 120.261 35.1143 117.754 33.7715 117.754C32.2068 117.754 30.6446 119.9 31.1848 121.308C31.7391 122.753 32.634 122.834 33.9121 121.556ZM40.7663 118.605C41.4377 117.519 38.9495 115.379 37.612 115.892C36.4518 116.337 35.9945 119.414 36.947 120.366C37.5014 120.921 40.0662 119.738 40.7663 118.605ZM33.1361 115.945C34.2657 114.584 32.9926 112.638 31.3782 113.257C29.8294 113.851 29.6809 116.962 31.2012 116.962C31.8014 116.962 32.672 116.504 33.1361 115.945ZM22.5856 109.833C22.8549 109.397 22.8543 108.684 22.5841 108.247C22.0048 107.309 19.0211 108.661 19.0211 109.861C19.0211 110.871 21.9585 110.848 22.5856 109.833ZM19.0714 102.248C19.93 101.213 19.9128 100.876 18.9703 100.28C17.5627 99.3891 17.3139 99.3876 15.9356 100.26C14.611 101.099 15.3397 103.496 16.9192 103.496C17.533 103.496 18.5015 102.935 19.0714 102.248ZM19.0213 92.8032C19.0213 92.1431 18.3172 91.615 17.4371 91.615C16.5571 91.615 15.853 92.1431 15.853 92.8032C15.853 93.4632 16.5571 93.9913 17.4371 93.9913C18.3172 93.9913 19.0213 93.4632 19.0213 92.8032Z" fill="#3757A7"/>
<path d="M202.391 269.118C197.805 268.66 197.608 268.547 196.745 265.872L195.851 263.099L174.17 261.331C119.736 256.893 105.691 255.847 104.798 256.168C104.27 256.358 103.622 257.193 103.358 258.025C103.094 258.856 102.279 259.844 101.546 260.22C99.7635 261.133 79.2614 259.76 77.9069 258.637C77.3237 258.153 76.8465 256.978 76.8465 256.025C76.8465 255.073 76.3232 253.601 75.6835 252.756C74.999 251.851 74.5093 249.426 74.493 246.862C74.463 242.146 79.0096 223.099 80.1651 223.099C80.5533 223.099 81.8367 223.796 83.0171 224.648C84.8764 225.989 88.6031 226.464 110.906 228.201C146.897 231.004 164.549 232.421 180.609 233.797C188.233 234.451 196.609 235.13 199.223 235.306C219.826 236.7 221.593 236.744 222.128 235.878C222.433 235.385 223.346 234.981 224.157 234.981C225.384 234.981 225.742 235.877 226.289 240.327C226.65 243.268 226.946 249.238 226.946 253.594C226.946 261.057 226.805 261.744 224.505 265.476L222.064 269.436L214.604 269.514C210.501 269.556 205.005 269.379 202.391 269.118ZM150.114 221.432C130.181 219.043 113.099 211.726 102.159 200.891C97.1861 195.966 92.1578 187.859 92.8287 185.848C92.9904 185.362 94.8837 187.543 97.0361 190.693C105.891 203.653 123.598 213.48 144.736 217.166C155.732 219.084 171.825 218.741 181.832 216.377C197.953 212.568 208.649 206.475 216.389 196.692C220.383 191.643 220.287 193.9 216.251 199.945C210.666 208.309 200.316 214.689 185.321 219.011C175.813 221.752 161.18 222.758 150.114 221.432ZM157.49 208.301C158.062 208.073 158.745 208.101 159.008 208.364C159.272 208.627 158.804 208.814 157.969 208.78C157.046 208.742 156.858 208.554 157.49 208.301ZM149.52 207.526C150.065 207.306 150.956 207.306 151.501 207.526C152.045 207.746 151.6 207.925 150.511 207.925C149.421 207.925 148.976 207.746 149.52 207.526ZM167.738 207.526C168.283 207.306 169.174 207.306 169.718 207.526C170.263 207.746 169.817 207.925 168.728 207.925C167.639 207.925 167.194 207.746 167.738 207.526ZM172.54 206.717C173.112 206.488 173.795 206.517 174.058 206.78C174.322 207.043 173.854 207.23 173.019 207.196C172.096 207.158 171.908 206.97 172.54 206.717ZM125.063 197.951C124.078 196.695 124.106 196.667 125.362 197.652C126.124 198.25 126.748 198.874 126.748 199.038C126.748 199.69 126.098 199.271 125.063 197.951ZM193.283 196.565C194.306 195.476 195.322 194.585 195.539 194.585C195.757 194.585 195.098 195.476 194.075 196.565C193.052 197.654 192.037 198.545 191.819 198.545C191.601 198.545 192.26 197.654 193.283 196.565ZM120.758 194.387L118.432 191.813L121.006 194.139C122.422 195.419 123.58 196.577 123.58 196.713C123.58 197.325 122.927 196.787 120.758 194.387ZM224.702 162.692C223.919 159.976 222.856 157.188 222.339 156.498C220.192 153.628 209.33 148.761 187.893 141.062C164.526 132.67 148 132.411 115.658 139.93C96.297 144.431 97.4368 144.023 94.6558 147.441C93.2308 149.192 91.4822 152.228 90.7698 154.189L89.4748 157.753L89.7507 153.313C89.9368 150.318 90.7101 147.707 92.1276 145.288C94.0851 141.948 94.8873 141.414 103.884 137.475C109.194 135.15 114.339 132.385 115.317 131.33C116.802 129.729 118.157 129.319 123.522 128.847C127.056 128.536 130.1 128.129 130.288 127.942C130.475 127.755 130.764 126.278 130.93 124.659C131.096 123.041 131.381 121.57 131.564 121.39C131.746 121.209 142.232 121.901 154.866 122.928C167.499 123.954 180.805 125.026 184.435 125.31L191.033 125.826L190.522 129.544L190.011 133.261L195.958 134.318C201.447 135.293 205.163 137.222 205.163 139.097C205.163 139.476 209.268 142.402 214.286 145.601C221.71 150.334 223.694 152.006 224.945 154.584C226.852 158.518 227.673 163.522 226.793 165.86C226.222 167.375 225.921 166.917 224.703 162.691L224.702 162.692ZM45.1623 93.2625C45.1623 92.8619 47.0336 91.9406 49.3207 91.2152C56.9925 88.7819 66.5808 83.3118 78.2315 74.721C84.7611 69.9064 84.7661 69.9 84.7487 66.3036C84.7287 62.1638 82.8345 57.5424 79.5744 53.6802C77.034 50.6705 70.4584 47.2783 67.1427 47.2666C62.1151 47.2487 65.7733 44.0432 77.4968 38.1941C100.971 26.4817 139.129 15.604 176.649 9.92881C185.294 8.62125 191.987 8.17422 203.71 8.1213C212.277 8.08265 219.557 8.32059 219.887 8.65C220.217 8.97941 219.025 10.5004 217.238 12.03C212.995 15.6617 210.885 19.1802 209.93 24.2161C209.034 28.9415 210.071 35.2322 212.158 37.7408C214.891 41.0235 241.415 43.8894 254.075 42.2697C258.176 41.745 259.026 41.8347 259.026 42.7927C259.026 44.363 247.914 45.2681 236.906 44.5946C229.048 44.1138 205.714 40.111 201.558 38.5308C199.986 37.9332 199.62 37.2426 199.62 34.8792C199.62 30.8053 194.82 26.2012 189.787 25.4464C182.299 24.3235 107.498 41.9676 99.9335 46.64C95.036 49.6669 92.7564 56.4135 95.1316 60.8523C96.2692 62.978 94.8116 64.4998 83.1823 73.3267C70.4306 83.0059 59.2402 90.0221 56.5329 90.0355C56.1605 90.0371 54.1024 90.9285 51.9593 92.0157C47.9651 94.0421 45.1628 94.5569 45.1628 93.2642L45.1623 93.2625ZM25.3604 91.3568C25.3604 90.7792 26.1623 89.5871 27.1425 88.7075C29.2764 86.7927 38.8098 81.0269 39.1758 81.4301C39.3171 81.5861 39.681 82.8721 39.9843 84.2879C40.378 86.1257 40.2493 86.8622 39.5343 86.8622C38.9834 86.8622 36.1221 88.1097 33.1757 89.6344C27.4701 92.5871 25.3604 93.0521 25.3604 91.3568Z" fill="#294385"/>
<path d="M202.787 269.196C198.361 268.91 196.451 267.658 196.451 265.044C196.451 263.91 197.65 263.885 208.926 264.784C225.75 266.126 224.482 265.836 222.964 267.988C221.802 269.637 221.162 269.76 214.425 269.624C210.42 269.544 205.183 269.351 202.787 269.196ZM88.8312 260.169C78.6458 259.481 76.8486 258.854 76.8486 255.988V254.281L87.7397 255.234C93.7298 255.758 99.7888 256.214 101.205 256.246C102.621 256.279 103.779 256.662 103.779 257.097C103.779 258.28 100.758 261.075 99.6209 260.944C99.0763 260.881 94.2209 260.533 88.8312 260.169Z" fill="#4A3A3A"/>
<defs>
<filter id="filter0_f_4181_4756" x="67.3329" y="266.039" width="168.804" height="38.8283" filterUnits="userSpaceOnUse" color-interpolation-filters="sRGB">
<feFlood flood-opacity="0" result="BackgroundImageFix"/>
<feBlend mode="normal" in="SourceGraphic" in2="BackgroundImageFix" result="shape"/>
<feGaussianBlur stdDeviation="2.3809" result="effect1_foregroundBlur_4181_4756"/>
</filter>
</defs>
</svg>
