<svg width="1235" height="665" viewBox="0 0 1235 665" fill="none" xmlns="http://www.w3.org/2000/svg">
<path d="M1213.71 0H21.2931C9.53931 0 0 6.45905 0 14.4498V650.24C0 658.231 9.53931 664.69 21.2931 664.69H1213.71C1225.46 664.69 1235 658.231 1235 650.24V14.4498C1235 6.45905 1225.46 0 1213.71 0ZM1213.71 644.5H21.2931V320.5V22.5H1213.71V644.5Z" fill="black"/>
<path d="M358 361C413.696 361 459 315.696 459 260.018C459 204.304 413.696 159 358 159C302.304 159 257 204.304 257 260C257 315.696 302.304 361 358 361ZM358 195.272C393.692 195.272 422.728 224.326 422.728 260C422.728 295.674 393.692 324.728 358 324.728C322.308 324.728 293.272 295.692 293.272 260.018C293.272 224.344 322.308 195.272 358 195.272Z" fill="black"/>
<path d="M273.775 565C277.698 565 281.655 563.816 284.84 561.406L558.341 354.087L731.063 502.784C737.618 508.428 748.214 508.428 754.77 502.784C761.325 497.14 761.325 488.017 754.77 482.373L674.176 412.983L828.103 267.851L1016.9 416.866C1023.73 422.25 1034.34 421.846 1040.59 415.971C1046.85 410.096 1046.39 400.958 1039.55 395.574L838.364 236.786C835.078 234.202 830.702 232.917 826.293 233.004C821.85 233.177 817.658 234.866 814.657 237.696L650.453 392.542L570.932 324.076C564.662 318.692 554.636 318.417 547.997 323.441L262.692 539.724C255.735 544.993 255.064 554.116 261.184 560.106C264.503 563.354 269.131 565 273.775 565Z" fill="black"/>
</svg>
