<?xml version="1.0" encoding="utf-8"?>
<!-- Generator: Adobe Illustrator 27.7.0, SVG Export Plug-In . SVG Version: 6.00 Build 0)  -->
<svg version="1.1" id="Layer_1" xmlns="http://www.w3.org/2000/svg" xmlns:xlink="http://www.w3.org/1999/xlink" x="0px" y="0px"
	 viewBox="0 0 297 81" style="enable-background:new 0 0 297 81;" xml:space="preserve">
<style type="text/css">
	.st0{fill:#3757A6;}
</style>
<g>
	<path class="st0" d="M106.8,3.1L78.3,78h21.8l4.1-11h26.6l4.1,11h21.7L128,3.1H106.8z M110.3,49.8l7.1-19.2l7.1,19.2H110.3z"/>
	<path class="st0" d="M227.8,3.1c5.1,5.2,8.6,11.9,9.7,19.5h12.6V78h21.3V22.6h21V3.1H227.8z"/>
	<path class="st0" d="M212.4,50.6c8.5-3.8,14.1-12.3,14.1-22.9c0-1.8-0.2-3.4-0.4-5c-0.3-1.7-0.8-3.4-1.4-4.9
		c-3.5-8.9-11.8-14.5-22.5-14.5h-38.3V78h21.3V52.9h5.1l6,9.7l9.5,15.4h23.9l-12.4-19.6L212.4,50.6z M200.4,33.7h-15.1V22.3h15.1
		c3,0,5.1,2.3,5.1,5.7C205.5,31.4,203.4,33.7,200.4,33.7z"/>
	<path class="st0" d="M83.7,46.3c2.9,0,5.1-2.1,5.1-5.1c0-2.9-2.1-5.1-5.1-5.1c-3,0-5.1,2.1-5.1,5.1C78.6,44.1,80.7,46.3,83.7,46.3z
		"/>
	<path class="st0" d="M236.6,36.1c-0.2,0-0.4,0-0.6,0h0c-2.7,0.2-4.5,2.3-4.5,5c0,1.4,0.5,2.5,1.2,3.4v0c0.9,1,2.3,1.6,3.9,1.6
		c3,0,5.1-2.1,5.1-5.1C241.7,38.2,239.6,36.1,236.6,36.1z"/>
	<path class="st0" d="M284.4,36.4c-3,0-5.1,2.1-5.1,5.1c0,3,2.1,5.1,5.1,5.1c3,0,5.1-2.1,5.1-5.1C289.5,38.5,287.4,36.4,284.4,36.4z
		"/>
	<path class="st0" d="M154,36.1c-3,0-5.1,2.1-5.1,5.1c0,3,2.1,5.1,5.1,5.1c3,0,5.1-2.1,5.1-5.1C159.1,38.2,157,36.1,154,36.1z"/>
	<path class="st0" d="M21.7,49.6c0.1,0.2,0.2,0.5,0.3,0.7c0.1,0.1,0.1,0.2,0.1,0.3c0.1,0.1,0.1,0.2,0.1,0.3c0.3,0.5,0.5,1,0.8,1.5
		c0,0,0,0.1,0.1,0.1c0.4,0.6,0.8,1.3,1.2,1.9c0,0,0,0,0,0c0,0,0,0,0,0c0.9,1.3,1.9,2.6,3,3.7c0,0,0,0,0,0c0.8,0.9,1.7,1.7,2.6,2.4
		c0.1,0.1,0.1,0.1,0.2,0.2c1.1,0.9,2.2,1.7,3.4,2.3c1,0.6,2.1,1,3.2,1.4c0.1,0,0.3,0.1,0.4,0.1c0.2,0.1,0.4,0.1,0.6,0.2
		c0.2,0,0.3,0.1,0.5,0.1c0.3,0.1,0.6,0.1,0.9,0.2c0,0,0.1,0,0.1,0c0.2,0,0.3,0,0.5,0.1c0.3,0,0.5,0.1,0.8,0.1c0.2,0,0.4,0,0.6,0
		c0.3,0,0.7,0,1,0c0.1,0,0.2,0,0.3,0c0.3,0,0.6,0,0.9-0.1c0,0,0,0,0,0c0,0,0,0,0,0c0,0,0,0,0,0c0.2,0,0.4-0.1,0.6-0.1
		c0.1,0,0.2,0,0.2,0h0c0,0,0,0,0,0c0.2,0,0.4-0.1,0.6-0.2c0.5-0.1,1.1-0.3,1.6-0.6c0.2-0.1,0.3-0.1,0.4-0.2c0.1,0,0.1-0.1,0.2-0.1
		c0.1,0,0.2-0.1,0.2-0.1c0.1-0.1,0.3-0.1,0.4-0.2c0,0,0,0,0,0c0,0,0,0,0.1,0c0,0,0,0,0,0c0.1,0,0.1-0.1,0.2-0.1l0.1,0
		c0.1-0.1,0.2-0.1,0.3-0.2c0,0,0.1,0,0.1-0.1c0,0,0.1-0.1,0.1-0.1l0.2-0.1c0,0,0.1-0.1,0.1-0.1c0,0,0.1,0,0.1-0.1
		c5.4-3.9,7.1-10.9,6.9-17.5c-0.4-10.1-5.9-21.4-14.5-26.8c0,0,0,0,0,0c-0.6-0.4-7.5-5-14.5-1.4c-0.1,0.1-0.3,0.2-0.4,0.2
		c0,0-0.1,0-0.1,0.1c0,0,0,0,0,0c0,0-0.1,0-0.1,0.1c-0.1,0.1-0.2,0.1-0.3,0.2c-0.2,0.1-0.4,0.2-0.6,0.4C25.1,17.9,25,18,25,18
		c0,0,0,0-0.1,0c0,0,0,0-0.1,0c-0.3,0.2-0.6,0.4-0.9,0.7c-0.1,0.1-0.3,0.2-0.4,0.4c0,0-0.1,0-0.1,0.1c0,0,0,0-0.1,0.1c0,0,0,0,0,0
		c-0.9,0.9-1.7,1.9-2.5,3.1c0,0.1-0.1,0.1-0.1,0.2c-0.3,0.4-0.5,0.9-0.7,1.3c0,0.1-0.1,0.2-0.1,0.3c-0.1,0.3-0.2,0.5-0.3,0.8
		c-0.1,0.2-0.2,0.5-0.3,0.7c0,0.1-0.1,0.2-0.1,0.3c-0.2,0.7-0.4,1.4-0.6,2c0,0.1-0.1,0.2-0.1,0.3c0,0.1,0,0.1,0,0.2
		c-0.8,3.6-0.8,7.6-0.1,11.4c0,0.1,0,0.1,0,0.2l2.9,0.1v0c-0.8-4.5-0.6-9.3,1.4-13.3c0.1-0.2,0.2-0.4,0.3-0.6
		c0.1-0.2,0.3-0.4,0.4-0.7c1-1.5,2.2-2.7,3.6-3.5c0.1-0.1,0.2-0.1,0.2-0.1c0.1,0,0.2-0.1,0.3-0.1c9-4.3,18,4.8,21.2,12.9v0
		c0.2,0.4,0.4,0.8,0.5,1.2c2.3,6.3,2.8,14-0.8,19.6c0,0,0,0,0,0.1c-0.1,0.1-0.1,0.2-0.2,0.2c0,0-0.1,0.1-0.1,0.1
		c-0.1,0.1-0.2,0.3-0.3,0.4c0,0,0,0.1,0,0.1c-0.7,1-1.7,1.9-2.8,2.5c-0.2,0.1-0.3,0.2-0.5,0.3c-0.1,0.1-0.2,0.1-0.3,0.2
		c-8.3,3.9-16.7-3.8-20.2-11.1l0.1,0l0.1-0.1l2.7-1.3c2.7,5.4,9.5,11,15.3,7.2c0.4-0.3,0.8-0.6,1.2-1.1c0.4-0.4,0.8-0.9,1.1-1.4
		c0.1-0.2,0.3-0.4,0.4-0.6c0,0,0,0,0,0c0,0,0-0.1,0-0.1c0.1-0.1,0.2-0.3,0.2-0.4c0-0.1,0.1-0.1,0.1-0.2c0.1-0.2,0.2-0.4,0.2-0.6
		c0,0,0-0.1,0-0.1c2.3-6.9-0.4-15.4-5.8-20.2c-2.8-2.6-6.9-4.1-10.3-2.4c-0.1,0.1-0.3,0.1-0.4,0.2c-0.1,0.1-0.2,0.1-0.3,0.2
		c-0.5,0.3-0.9,0.6-1.3,1.1c-0.1,0.1-0.3,0.3-0.4,0.4c-0.2,0.3-0.4,0.5-0.6,0.8c0,0,0,0.1-0.1,0.1c-1.8,2.7-2.2,6.1-1.9,9.3
		c0.1,0.4,0.1,0.9,0.2,1.3v0l3.5,0.1v0c-0.2-0.9-0.2-1.9-0.1-2.8c0.1-0.7,0.2-1.4,0.4-2c0.1-0.2,0.1-0.4,0.2-0.5
		c0.1-0.2,0.1-0.3,0.2-0.5c0,0,0-0.1,0.1-0.1c0.1-0.1,0.1-0.2,0.2-0.3c0,0,0-0.1,0-0.1c0.4-0.7,1-1.3,1.6-1.6c0,0,0.1-0.1,0.1-0.1
		c0.2-0.1,0.5-0.3,0.8-0.4c7.4-2,12.8,10.4,9.1,16c0,0,0,0-0.1,0.1c0,0.1-0.1,0.1-0.2,0.2c0,0,0,0.1,0,0.1c0,0.1-0.1,0.1-0.1,0.2
		c0,0.1-0.1,0.1-0.1,0.2C37.1,52.2,32,49,30,45.4l0.1,0l0.1-0.1l3.1-1.5h0v0c0.2,0.2,0.4,0.4,0.7,0.6c0.4,0.3,0.7,0.4,1.1,0.5
		c0.4,0.1,0.8,0.1,1.1,0c0.2-0.1,0.4-0.1,0.5-0.3c0.2-0.2,0.5-0.4,0.6-0.7c0.1-0.1,0.1-0.2,0.1-0.3c0,0,0-0.1,0.1-0.1
		c0,0,0-0.1,0.1-0.1c0-0.1,0.1-0.2,0.1-0.3c0.1-0.4,0.2-0.9,0.1-1.5c0-0.5-0.1-1-0.3-1.5c-0.3-0.9-1-1.9-1.8-2.5
		c-0.7-0.5-1.5-0.7-2.2-0.4c-0.1,0-0.1,0.1-0.2,0.1c-0.2,0.1-0.5,0.3-0.7,0.6c0,0-0.1,0.1-0.1,0.1c-0.2,0.3-0.4,0.7-0.5,1.1
		c-0.1,0.4-0.1,0.9-0.1,1.4c0,0,0,0.1,0,0.1l3,0.1l-2.6,0.8l-0.2,0.1l-3.1,1l-0.1,0l-0.1,0c-1.7,0.5-4.3,1.4-6,2l-0.1,0
		c-4,1.3-14.3,4.7-18.2,6V2.9h32.3c22.8,0,38.8,15.6,38.8,37.9c0,22-16,37.3-38.8,37.3H4.5V58L21.7,49.6z"/>
</g>
</svg>
