<?xml version="1.0" encoding="UTF-8"?>
<svg xmlns="http://www.w3.org/2000/svg" width="195" height="202" viewBox="0 0 195 202" fill="none">
  <path d="M194.36 94.44C193.493 92.6268 191.706 91.5001 189.697 91.5001H184.513V47.4191C184.513 44.5688 182.194 42.2502 179.344 42.2502H166.784C163.934 42.2502 161.615 44.5688 161.615 47.4191V56.3713C161.615 58.0054 162.939 59.3302 164.573 59.3302C166.208 59.3302 167.532 58.0054 167.532 56.3713V48.1679H178.595V92.2489C178.595 95.0992 180.914 97.4182 183.764 97.4182H188.13L173.064 116.086L157.998 97.4178H162.363C165.214 97.4178 167.533 95.0992 167.533 92.2489V70.1796C167.533 68.5455 166.208 67.2208 164.574 67.2208C162.939 67.2208 161.615 68.5455 161.615 70.1796V91.5001H156.431C154.421 91.5001 152.634 92.6264 151.768 94.44C150.901 96.2536 151.147 98.3516 152.409 99.9154L169.042 120.525C170.028 121.746 171.494 122.447 173.064 122.447C174.633 122.447 176.1 121.746 177.086 120.524L193.719 99.9154C194.981 98.3512 195.227 96.2532 194.36 94.44Z" fill="#D7E03F"></path>
  <path d="M30.1551 157.776H27.4598V118.846C27.4598 115.995 25.1409 113.677 22.2905 113.677H13.0401C10.1897 113.677 7.8708 115.995 7.8708 118.846V157.776H5.1759C3.16587 157.776 1.37874 158.902 0.512394 160.716C-0.354345 162.529 -0.10896 164.627 1.15347 166.191L13.6429 181.666C14.6292 182.888 16.0952 183.589 17.6649 183.589C19.2347 183.59 20.7011 182.889 21.6877 181.666L34.1775 166.191C35.4396 164.627 35.6854 162.529 34.8186 160.716C33.9519 158.902 32.1651 157.776 30.1551 157.776ZM17.6653 177.229L6.74211 163.694H8.61998C11.4703 163.694 13.7892 161.375 13.7892 158.525V119.595H21.5426V158.525C21.5426 161.375 23.8611 163.694 26.7114 163.694H28.5893L17.6653 177.229Z" fill="#D7E03F"></path>
  <path d="M54.498 53.9347C53.6316 52.1215 51.8445 50.9948 49.8349 50.9948H45.5324V5.16887C45.5324 2.31854 43.2134 0 40.3631 0H28.9748C26.1244 0 23.8055 2.31854 23.8055 5.16887V50.9948H19.503C17.4929 50.9948 15.7058 52.1211 14.8391 53.9347C13.9727 55.7482 14.2185 57.8463 15.4809 59.4101L30.6463 78.201C31.6326 79.4232 33.0986 80.1239 34.6687 80.1239C36.2389 80.1239 37.7049 79.4232 38.6908 78.201L53.8569 59.4097C55.1194 57.8459 55.3647 55.7482 54.498 53.9347ZM34.6687 73.7628L21.0692 56.9125H24.5539C27.4042 56.9125 29.7232 54.5939 29.7232 51.7436V5.91765H39.6143V51.7436C39.6143 54.5939 41.9328 56.9125 44.7832 56.9125H48.2683L34.6687 73.7628Z" fill="#D7E03F"></path>
  <path d="M153.584 165.423C143.503 165.423 135.301 173.625 135.301 183.706C135.301 193.787 143.503 201.989 153.584 201.989C163.666 201.989 171.868 193.787 171.868 183.706C171.868 173.625 163.666 165.423 153.584 165.423ZM153.584 196.072C146.766 196.072 141.219 190.524 141.219 183.706C141.219 176.888 146.766 171.341 153.584 171.341C160.403 171.341 165.95 176.888 165.95 183.706C165.95 190.524 160.403 196.072 153.584 196.072Z" fill="#161C23"></path>
  <path d="M120.064 147.218C122.269 145.237 124.562 144.116 126.757 144.017C131.107 143.817 135.694 145.404 139.357 148.37C140.449 149.252 141.901 149.527 143.239 149.106C144.57 148.688 145.597 147.64 145.986 146.302C147.26 141.918 147.906 137.243 147.906 132.406C147.906 124.885 144.466 114.82 137.39 101.636C131.641 90.9244 124.213 79.6012 118.512 71.2052C120.963 69.4216 122.561 66.5322 122.561 63.2756C122.561 59.4725 120.383 56.1708 117.21 54.5462C119.727 51.4844 121.373 49.8492 122.562 48.6574C124.609 46.6055 126.928 44.2799 128.415 41.8438C131.085 37.4679 130.042 34.2877 128.695 32.3886C123.687 25.3339 112.985 29.6305 107.195 31.97C103.797 27.7199 97.8606 25.1816 94.0674 25.1816C90.2734 25.1816 84.336 27.7203 80.9396 31.97C75.1455 29.6286 64.442 25.3339 59.4388 32.3889C58.0924 34.2865 57.0473 37.4667 59.7177 41.843C61.2039 44.2787 63.5236 46.6039 65.5707 48.6558C66.5112 49.5987 67.4 50.4895 68.1129 51.2939C69.0203 52.3161 69.988 53.4073 70.9242 54.5454C67.7504 56.17 65.5715 59.4721 65.5715 63.2756C65.5715 66.533 67.17 69.4228 69.6227 71.2064C55.5249 91.9738 40.2289 116.883 40.2289 132.406C40.2289 138.316 41.1872 143.954 43.0769 149.164C43.6359 150.705 45.3363 151.492 46.8674 150.936C48.4036 150.379 49.1969 148.682 48.6399 147.146C46.9853 142.585 46.1466 137.626 46.1466 132.406C46.1466 125.408 49.2183 111.652 75.5084 73.0787H112.628C125.52 91.9746 141.989 117.98 141.989 132.406C141.989 135.789 141.634 139.072 140.933 142.2C136.549 139.319 131.508 137.876 126.489 138.106C120.522 138.375 114.741 142.652 110.172 150.163C110.148 150.163 110.125 150.163 110.101 150.163C107.1 150.163 104.912 151.094 103.591 152.935C102.051 155.083 102.193 157.852 102.863 160.489C96.408 158.699 88.7841 156.952 83.7482 161.357C80.437 164.252 77.913 168.138 76.5227 172.437C67.5413 169.633 60.0334 164.674 54.7327 158.027C53.7129 156.749 51.8512 156.539 50.5746 157.558C49.2968 158.577 49.0869 160.438 50.1059 161.716C56.5159 169.754 65.6835 175.604 76.617 178.633C77.6916 178.931 78.8598 178.777 79.8224 178.213C80.7933 177.644 81.5038 176.692 81.7721 175.599C82.7098 171.778 84.7952 168.302 87.6439 165.81C88.7786 164.818 90.441 164.472 92.3583 164.506C93.1967 173.815 101.038 181.135 110.562 181.135C120.645 181.135 128.848 172.934 128.848 162.854C128.847 156.318 125.449 150.469 120.064 147.218ZM75.3739 67.1607C73.2313 67.1607 71.4884 65.4177 71.4884 63.2756C71.4884 61.1334 73.2313 59.3904 75.3739 59.3904H112.758C114.901 59.3904 116.644 61.1334 116.644 63.2756C116.644 65.4177 114.901 67.1607 112.758 67.1607H75.3739ZM64.2649 35.8129C66.3045 32.9373 72.7468 35.042 78.7813 37.4805C81.161 38.4403 83.9395 37.7054 85.54 35.6914C87.797 32.8462 92.0274 31.0989 94.067 31.0989C96.1066 31.0989 100.337 32.8462 102.595 35.6934C104.194 37.7054 106.973 38.4407 109.355 37.4797C115.386 35.042 121.827 32.9377 123.869 35.8125C125.176 37.6565 121.244 41.5992 118.372 44.4779C114.869 47.9899 112.149 51.2675 110.575 53.4724H77.5583C75.9384 51.2031 74.0823 49.1055 72.5389 47.3661C71.7113 46.4327 70.7629 45.4824 69.7588 44.476C66.888 41.5984 62.9563 37.6572 64.2649 35.8129ZM110.561 175.218C104.635 175.218 99.6722 171.027 98.4748 165.453C99.8943 165.799 101.309 166.197 102.643 166.573C104.488 167.092 106.678 167.968 108.61 165.84C109.669 164.674 109.98 163.036 109.424 161.566C107.795 157.263 108.394 156.392 108.399 156.384C108.469 156.309 109.019 156.037 110.43 156.086C112.3 156.156 114.063 155.198 115.012 153.597C115.382 152.973 115.761 152.383 116.147 151.814C120.273 153.885 122.929 158.1 122.929 162.854C122.929 169.671 117.381 175.218 110.561 175.218Z" fill="#161C23"></path>
  <path d="M94.7925 124.792C91.518 124.792 88.3584 123.462 86.3405 121.235C85.243 120.024 83.3722 119.933 82.1606 121.03C80.9503 122.127 80.858 123.998 81.9551 125.209C84.2867 127.782 87.554 129.579 91.107 130.324V134.778C91.107 136.412 92.4313 137.737 94.0658 137.737C95.7002 137.737 97.0246 136.412 97.0246 134.778V130.522C101.969 129.689 105.996 126.153 106.799 121.65C107.498 117.734 105.677 112.601 98.4685 109.942L97.1177 109.445C93.4933 108.112 91.6743 107.443 89.9735 106.516C88.7012 105.824 88.6918 104.514 88.7466 103.983C88.8768 102.725 89.7692 101.154 91.883 100.517C96.6589 99.0798 100.993 102.548 101.082 102.619C102.333 103.66 104.191 103.496 105.239 102.248C106.29 100.997 106.129 99.131 104.878 98.0797C104.69 97.9215 101.543 95.3264 97.0246 94.4975V90.1768C97.0246 88.5428 95.7002 87.218 94.0658 87.218C92.4313 87.218 91.107 88.5428 91.107 90.1768V94.6084C90.7988 94.679 90.4892 94.7571 90.1763 94.8514C86.1417 96.0669 83.27 99.4123 82.8605 103.374C82.4976 106.882 84.1387 110.077 87.1433 111.714C89.2244 112.847 91.1795 113.566 95.0745 114.999L96.4202 115.495C99.6801 116.697 101.34 118.561 100.974 120.611C100.608 122.666 98.1947 124.792 94.7925 124.792Z" fill="#D7E03F"></path>
</svg>
