<svg width="10208" height="1992" viewBox="0 0 10208 1992" fill="none" xmlns="http://www.w3.org/2000/svg">
<path fill-rule="evenodd" clip-rule="evenodd" d="M17 640.697L349.202 0.419922H2368.93L2625.84 599.984L17 640.697Z" fill="#162F6E"/>
<path fill-rule="evenodd" clip-rule="evenodd" d="M4547.87 640.697L4880.07 0.419922H6899.8L7156.71 599.984L4547.87 640.697Z" fill="#162F6E"/>
<path fill-rule="evenodd" clip-rule="evenodd" d="M2283.6 640.697L2615.8 0.419922H4635.53L4892.44 599.984L2283.6 640.697Z" fill="#3757A7"/>
<path fill-rule="evenodd" clip-rule="evenodd" d="M6773.21 640.697L7105.41 0.419922H9125.14L9382.04 599.984L6773.21 640.697Z" fill="#162F6E"/>
<path d="M10206.7 323.908H1.12287C0.880445 323.908 0.683594 324.188 0.683594 324.533V1098.94C0.683594 1099.28 0.880445 1099.56 1.12287 1099.56H10206.7C10207 1099.56 10207.2 1099.28 10207.2 1098.94V324.533C10207.2 324.188 10207 323.908 10206.7 323.908Z" fill="#3757A7"/>
<path d="M1024.85 494.629H9317.96C9325.89 494.629 9334.49 499.684 9341.6 510.818C9348.63 521.837 9353.31 537.668 9353.31 555.672V877.26C9353.31 895.264 9348.63 911.096 9341.6 922.115C9334.49 933.249 9325.89 938.304 9317.96 938.304H1024.85C1016.92 938.304 1008.32 933.249 1001.21 922.115C994.18 911.096 989.502 895.264 989.502 877.26V555.672C989.502 537.668 994.18 521.837 1001.21 510.818C1008.32 499.684 1016.92 494.629 1024.85 494.629Z" fill="#EBEBE0" stroke="#4BA3C4" stroke-width="20"/>
<path d="M9994.59 589.228H9691.53C9686.02 589.228 9681.54 593.699 9681.54 599.215V644.423C9681.54 649.939 9686.02 654.411 9691.53 654.411H9994.59C10000.1 654.411 10004.6 649.939 10004.6 644.423V599.215C10004.6 593.699 10000.1 589.228 9994.59 589.228Z" fill="#151C22"/>
<path d="M9994.59 704.627H9691.53C9686.02 704.627 9681.54 709.098 9681.54 714.614V759.823C9681.54 765.339 9686.02 769.81 9691.53 769.81H9994.59C10000.1 769.81 10004.6 765.339 10004.6 759.823V714.614C10004.6 709.098 10000.1 704.627 9994.59 704.627Z" fill="#151C22"/>
<path d="M9994.11 811.049H9692.01C9686.23 811.049 9681.54 815.737 9681.54 821.519V868.91C9681.54 874.692 9686.23 879.379 9692.01 879.379H9994.11C9999.89 879.379 10004.6 874.692 10004.6 868.91V821.519C10004.6 815.737 9999.89 811.049 9994.11 811.049Z" fill="#151C22"/>
<path d="M1407.43 736.58V843.967H1338.82V589.421H1404.94V689.35H1406.93C1411.24 677.17 1418.41 667.682 1428.43 660.888C1438.46 654.011 1450.52 650.572 1464.6 650.572C1478.11 650.572 1489.83 653.638 1499.78 659.769C1509.8 665.901 1517.55 674.353 1523.02 685.124C1528.57 695.896 1531.3 708.242 1531.22 722.163V843.967H1462.61V736.58C1462.7 727.134 1460.33 719.718 1455.53 714.333C1450.81 708.947 1444.05 706.254 1435.27 706.254C1429.72 706.254 1424.83 707.497 1420.6 709.982C1416.46 712.385 1413.23 715.865 1410.91 720.423C1408.67 724.897 1407.51 730.283 1407.43 736.58ZM1688.94 653.058V702.774H1563.16V653.058H1688.94ZM1587.52 607.319H1656.13V782.568C1656.13 785.219 1656.58 787.456 1657.49 789.279C1658.41 791.019 1659.81 792.345 1661.72 793.257C1663.63 794.085 1666.07 794.499 1669.05 794.499C1671.12 794.499 1673.53 794.251 1676.26 793.754C1679.08 793.257 1681.15 792.842 1682.48 792.511L1692.42 840.735C1689.35 841.647 1684.96 842.765 1679.24 844.091C1673.61 845.417 1666.9 846.287 1659.11 846.701C1643.37 847.53 1630.15 845.914 1619.46 841.854C1608.77 837.711 1600.74 831.206 1595.35 822.34C1589.96 813.474 1587.35 802.371 1587.52 789.031V607.319ZM1840.79 653.058V702.774H1715V653.058H1840.79ZM1739.36 607.319H1807.97V782.568C1807.97 785.219 1808.43 787.456 1809.34 789.279C1810.25 791.019 1811.66 792.345 1813.57 793.257C1815.47 794.085 1817.92 794.499 1820.9 794.499C1822.97 794.499 1825.37 794.251 1828.11 793.754C1830.92 793.257 1833 792.842 1834.32 792.511L1844.27 840.735C1841.2 841.647 1836.81 842.765 1831.09 844.091C1825.46 845.417 1818.74 846.287 1810.96 846.701C1795.21 847.53 1782 845.914 1771.31 841.854C1760.62 837.711 1752.58 831.206 1747.19 822.34C1741.81 813.474 1739.2 802.371 1739.36 789.031V607.319ZM1878.78 915.558V653.058H1946.89V686.367H1948.38C1950.87 679.904 1954.52 673.98 1959.32 668.594C1964.13 663.125 1970.09 658.775 1977.22 655.543C1984.34 652.229 1992.63 650.572 2002.08 650.572C2014.67 650.572 2026.64 653.928 2038 660.639C2049.43 667.351 2058.71 677.916 2065.84 692.333C2073.05 706.751 2076.65 725.477 2076.65 748.512C2076.65 770.553 2073.21 788.824 2066.33 803.324C2059.54 817.825 2050.43 828.638 2038.99 835.764C2027.64 842.89 2015.17 846.453 2001.58 846.453C1992.63 846.453 1984.63 845.003 1977.59 842.102C1970.63 839.119 1964.67 835.101 1959.69 830.046C1954.81 824.909 1951.04 819.109 1948.38 812.646H1947.39V915.558H1878.78ZM1945.9 748.512C1945.9 757.793 1947.1 765.83 1949.5 772.624C1951.99 779.336 1955.47 784.556 1959.94 788.285C1964.5 791.931 1969.93 793.754 1976.22 793.754C1982.52 793.754 1987.87 791.972 1992.26 788.409C1996.73 784.763 2000.13 779.585 2002.45 772.873C2004.85 766.079 2006.05 757.958 2006.05 748.512C2006.05 739.066 2004.85 730.987 2002.45 724.276C2000.13 717.481 1996.73 712.302 1992.26 708.74C1987.87 705.094 1982.52 703.271 1976.22 703.271C1969.93 703.271 1964.5 705.094 1959.94 708.74C1955.47 712.302 1951.99 717.481 1949.5 724.276C1947.1 730.987 1945.9 739.066 1945.9 748.512ZM2289.9 715.203H2226.76C2226.42 711.308 2225.06 707.952 2222.65 705.135C2220.25 702.318 2217.14 700.164 2213.33 698.672C2209.6 697.098 2205.46 696.311 2200.9 696.311C2195.02 696.311 2189.97 697.388 2185.74 699.542C2181.51 701.696 2179.44 704.762 2179.53 708.74C2179.44 711.557 2180.64 714.167 2183.13 716.57C2185.7 718.973 2190.63 720.837 2197.92 722.163L2236.7 729.123C2256.25 732.686 2270.8 738.693 2280.33 747.145C2289.94 755.514 2294.78 766.741 2294.87 780.828C2294.78 794.417 2290.72 806.224 2282.69 816.25C2274.73 826.193 2263.84 833.899 2250 839.368C2236.24 844.754 2220.54 847.447 2202.89 847.447C2173.73 847.447 2150.9 841.481 2134.41 829.549C2118 817.617 2108.85 801.874 2106.94 782.319H2175.05C2175.96 788.368 2178.95 793.049 2184 796.364C2189.14 799.595 2195.6 801.211 2203.39 801.211C2209.69 801.211 2214.87 800.134 2218.93 797.98C2223.07 795.825 2225.18 792.759 2225.26 788.782C2225.18 785.136 2223.36 782.236 2219.8 780.082C2216.32 777.927 2210.85 776.187 2203.39 774.862L2169.58 768.896C2150.11 765.499 2135.53 759.035 2125.83 749.507C2116.14 739.978 2111.33 727.714 2111.42 712.717C2111.33 699.459 2114.81 688.232 2121.86 679.034C2128.98 669.754 2139.13 662.711 2152.31 657.905C2165.56 653.016 2181.27 650.572 2199.41 650.572C2227 650.572 2248.76 656.289 2264.66 667.724C2280.66 679.159 2289.07 694.985 2289.9 715.203ZM2368.44 847.944C2358.83 847.944 2350.59 844.588 2343.71 837.877C2336.91 831.082 2333.56 822.838 2333.64 813.143C2333.56 803.697 2336.91 795.618 2343.71 788.906C2350.59 782.195 2358.83 778.839 2368.44 778.839C2377.56 778.839 2385.59 782.195 2392.55 788.906C2399.6 795.618 2403.16 803.697 2403.24 813.143C2403.16 819.606 2401.46 825.489 2398.15 830.792C2394.92 836.012 2390.69 840.197 2385.47 843.345C2380.25 846.411 2374.57 847.944 2368.44 847.944ZM2368.44 719.677C2358.83 719.677 2350.59 716.321 2343.71 709.61C2336.91 702.815 2333.56 694.57 2333.64 684.876C2333.56 675.43 2336.91 667.351 2343.71 660.639C2350.59 653.928 2358.83 650.572 2368.44 650.572C2377.56 650.572 2385.59 653.928 2392.55 660.639C2399.6 667.351 2403.16 675.43 2403.24 684.876C2403.16 691.339 2401.46 697.222 2398.15 702.525C2394.92 707.745 2390.69 711.93 2385.47 715.078C2380.25 718.144 2374.57 719.677 2368.44 719.677ZM2655.04 577.49L2573.01 882.248H2514.84L2596.88 577.49H2655.04ZM2809.28 577.49L2727.25 882.248H2669.08L2751.11 577.49H2809.28ZM2907.84 846.453C2894.25 846.453 2881.74 842.89 2870.3 835.764C2858.95 828.638 2849.84 817.825 2842.96 803.324C2836.16 788.824 2832.77 770.553 2832.77 748.512C2832.77 725.477 2836.33 706.751 2843.46 692.333C2850.66 677.916 2859.94 667.351 2871.3 660.639C2882.73 653.928 2894.75 650.572 2907.34 650.572C2916.79 650.572 2925.07 652.229 2932.2 655.543C2939.32 658.775 2945.29 663.125 2950.1 668.594C2954.9 673.98 2958.55 679.904 2961.03 686.367H2962.03V589.421H3030.64V843.967H2962.53V812.646H2961.03C2958.38 819.109 2954.57 824.909 2949.6 830.046C2944.71 835.101 2938.74 839.119 2931.7 842.102C2924.74 845.003 2916.79 846.453 2907.84 846.453ZM2933.19 793.754C2939.49 793.754 2944.88 791.931 2949.35 788.285C2953.91 784.556 2957.39 779.336 2959.79 772.624C2962.28 765.83 2963.52 757.793 2963.52 748.512C2963.52 739.066 2962.28 730.987 2959.79 724.276C2957.39 717.481 2953.91 712.302 2949.35 708.74C2944.88 705.094 2939.49 703.271 2933.19 703.271C2926.9 703.271 2921.51 705.094 2917.04 708.74C2912.64 712.302 2909.25 717.481 2906.84 724.276C2904.52 730.987 2903.36 739.066 2903.36 748.512C2903.36 757.958 2904.52 766.079 2906.84 772.873C2909.25 779.585 2912.64 784.763 2917.04 788.409C2921.51 791.972 2926.9 793.754 2933.19 793.754ZM3127.51 846.95C3115.33 846.95 3104.56 844.961 3095.2 840.984C3085.92 836.924 3078.63 830.792 3073.32 822.589C3068.02 814.386 3065.37 803.945 3065.37 791.268C3065.37 780.828 3067.15 771.92 3070.71 764.546C3074.28 757.088 3079.25 750.998 3085.63 746.275C3092.01 741.552 3099.43 737.948 3107.88 735.462C3116.41 732.976 3125.61 731.36 3135.47 730.615C3146.16 729.786 3154.73 728.792 3161.2 727.632C3167.74 726.389 3172.47 724.69 3175.37 722.536C3178.27 720.298 3179.72 717.357 3179.72 713.711V713.214C3179.72 708.242 3177.81 704.431 3174 701.779C3170.19 699.128 3165.3 697.802 3159.33 697.802C3152.79 697.802 3147.44 699.252 3143.3 702.152C3139.24 704.969 3136.79 709.32 3135.97 715.203H3072.83C3073.66 703.602 3077.34 692.913 3083.89 683.136C3090.52 673.276 3100.17 665.404 3112.85 659.521C3125.53 653.555 3141.35 650.572 3160.33 650.572C3174 650.572 3186.26 652.188 3197.12 655.419C3207.97 658.568 3217.21 663.001 3224.83 668.718C3232.46 674.353 3238.26 680.981 3242.23 688.605C3246.29 696.145 3248.32 704.348 3248.32 713.214V843.967H3184.19V817.12H3182.7C3178.89 824.246 3174.25 830.005 3168.78 834.396C3163.39 838.788 3157.22 841.978 3150.26 843.967C3143.38 845.955 3135.8 846.95 3127.51 846.95ZM3149.89 803.697C3155.11 803.697 3160 802.62 3164.55 800.465C3169.19 798.311 3172.96 795.204 3175.86 791.144C3178.76 787.084 3180.21 782.153 3180.21 776.353V760.444C3178.39 761.19 3176.44 761.894 3174.37 762.557C3172.38 763.22 3170.23 763.841 3167.91 764.421C3165.67 765.001 3163.27 765.54 3160.7 766.037C3158.21 766.534 3155.6 766.99 3152.87 767.404C3147.57 768.233 3143.22 769.6 3139.82 771.506C3136.5 773.329 3134.02 775.607 3132.36 778.342C3130.79 780.993 3130 783.976 3130 787.291C3130 792.594 3131.86 796.654 3135.59 799.471C3139.32 802.288 3144.09 803.697 3149.89 803.697ZM3291.11 843.967V653.058H3357.72V689.35H3359.71C3363.19 675.927 3368.7 666.108 3376.24 659.894C3383.87 653.679 3392.77 650.572 3402.97 650.572C3405.95 650.572 3408.89 650.82 3411.79 651.318C3414.77 651.732 3417.63 652.353 3420.37 653.182V711.722C3416.97 710.562 3412.79 709.692 3407.81 709.112C3402.84 708.532 3398.57 708.242 3395.01 708.242C3388.3 708.242 3382.25 709.775 3376.87 712.841C3371.56 715.824 3367.38 720.05 3364.31 725.519C3361.25 730.905 3359.71 737.243 3359.71 744.535V843.967H3291.11ZM3574.57 653.058V702.774H3448.79V653.058H3574.57ZM3473.15 607.319H3541.76V782.568C3541.76 785.219 3542.22 787.456 3543.13 789.279C3544.04 791.019 3545.45 792.345 3547.35 793.257C3549.26 794.085 3551.7 794.499 3554.69 794.499C3556.76 794.499 3559.16 794.251 3561.9 793.754C3564.71 793.257 3566.79 792.842 3568.11 792.511L3578.05 840.735C3574.99 841.647 3570.6 842.765 3564.88 844.091C3559.25 845.417 3552.53 846.287 3544.74 846.701C3529 847.53 3515.79 845.914 3505.1 841.854C3494.41 837.711 3486.37 831.206 3480.98 822.34C3475.6 813.474 3472.99 802.371 3473.15 789.031V607.319ZM3702.49 847.447C3681.78 847.447 3664.05 843.345 3649.3 835.142C3634.55 826.856 3623.24 815.339 3615.37 800.59C3607.5 785.758 3603.56 768.564 3603.56 749.009C3603.56 729.454 3607.5 712.302 3615.37 697.553C3623.24 682.722 3634.55 671.204 3649.3 663.001C3664.05 654.715 3681.78 650.572 3702.49 650.572C3721.22 650.572 3737.42 653.969 3751.09 660.764C3764.85 667.475 3775.49 677.004 3783.03 689.35C3790.57 701.614 3794.39 716.031 3794.47 732.603H3730.83C3729.92 722.577 3727.02 714.954 3722.13 709.734C3717.33 704.431 3711.11 701.779 3703.49 701.779C3697.52 701.779 3692.3 703.519 3687.83 706.999C3683.35 710.397 3679.87 715.575 3677.39 722.536C3674.9 729.413 3673.66 738.072 3673.66 748.512C3673.66 758.953 3674.9 767.653 3677.39 774.613C3679.87 781.49 3683.35 786.669 3687.83 790.149C3692.3 793.547 3697.52 795.245 3703.49 795.245C3708.54 795.245 3713.02 794.085 3716.91 791.765C3720.81 789.362 3723.95 785.882 3726.36 781.325C3728.84 776.685 3730.34 771.05 3730.83 764.421H3794.47C3794.22 781.242 3790.37 795.908 3782.91 808.42C3775.45 820.849 3764.89 830.461 3751.22 837.255C3737.63 844.05 3721.39 847.447 3702.49 847.447ZM3924.75 847.447C3904.04 847.447 3886.3 843.345 3871.55 835.142C3856.8 826.856 3845.49 815.339 3837.62 800.59C3829.75 785.758 3825.82 768.564 3825.82 749.009C3825.82 729.454 3829.75 712.302 3837.62 697.553C3845.49 682.722 3856.8 671.204 3871.55 663.001C3886.3 654.715 3904.04 650.572 3924.75 650.572C3945.46 650.572 3963.2 654.715 3977.95 663.001C3992.7 671.204 4004.01 682.722 4011.88 697.553C4019.75 712.302 4023.68 729.454 4023.68 749.009C4023.68 768.564 4019.75 785.758 4011.88 800.59C4004.01 815.339 3992.7 826.856 3977.95 835.142C3963.2 843.345 3945.46 847.447 3924.75 847.447ZM3925.25 796.737C3931.05 796.737 3936.06 794.789 3940.29 790.895C3944.51 787.001 3947.79 781.449 3950.11 774.24C3952.43 767.031 3953.59 758.455 3953.59 748.512C3953.59 738.486 3952.43 729.91 3950.11 722.784C3947.79 715.575 3944.51 710.024 3940.29 706.129C3936.06 702.235 3931.05 700.288 3925.25 700.288C3919.12 700.288 3913.85 702.235 3909.46 706.129C3905.07 710.024 3901.71 715.575 3899.39 722.784C3897.07 729.91 3895.91 738.486 3895.91 748.512C3895.91 758.455 3897.07 767.031 3899.39 774.24C3901.71 781.449 3905.07 787.001 3909.46 790.895C3913.85 794.789 3919.12 796.737 3925.25 796.737ZM4130.13 589.421V843.967H4061.53V589.421H4130.13ZM4243.7 589.421V843.967H4175.09V589.421H4243.7ZM4380.13 847.447C4359.75 847.447 4342.18 843.552 4327.43 835.764C4312.77 827.892 4301.46 816.623 4293.5 801.957C4285.63 787.208 4281.69 769.559 4281.69 749.009C4281.69 729.289 4285.67 712.054 4293.63 697.305C4301.58 682.556 4312.81 671.08 4327.31 662.877C4341.81 654.673 4358.92 650.572 4378.64 650.572C4393.06 650.572 4406.11 652.809 4417.79 657.284C4429.47 661.758 4439.46 668.262 4447.75 676.797C4456.03 685.249 4462.41 695.523 4466.89 707.621C4471.36 719.718 4473.6 733.349 4473.6 748.512V764.421H4303.07V726.637H4410.46C4410.38 721.168 4408.97 716.363 4406.23 712.22C4403.58 707.994 4399.98 704.721 4395.42 702.401C4390.94 699.998 4385.85 698.796 4380.13 698.796C4374.58 698.796 4369.48 699.998 4364.84 702.401C4360.2 704.721 4356.48 707.952 4353.66 712.095C4350.92 716.238 4349.47 721.086 4349.31 726.637V767.404C4349.31 773.536 4350.59 779.005 4353.16 783.811C4355.73 788.616 4359.42 792.387 4364.22 795.121C4369.03 797.855 4374.83 799.222 4381.62 799.222C4386.35 799.222 4390.65 798.56 4394.55 797.234C4398.53 795.908 4401.92 794.002 4404.74 791.517C4407.56 788.948 4409.63 785.882 4410.96 782.319H4473.6C4471.44 795.577 4466.35 807.094 4458.31 816.872C4450.27 826.566 4439.63 834.106 4426.37 839.492C4413.19 844.795 4397.78 847.447 4380.13 847.447ZM4603.57 847.447C4582.85 847.447 4565.12 843.345 4550.37 835.142C4535.62 826.856 4524.31 815.339 4516.44 800.59C4508.57 785.758 4504.63 768.564 4504.63 749.009C4504.63 729.454 4508.57 712.302 4516.44 697.553C4524.31 682.722 4535.62 671.204 4550.37 663.001C4565.12 654.715 4582.85 650.572 4603.57 650.572C4622.29 650.572 4638.49 653.969 4652.17 660.764C4665.92 667.475 4676.57 677.004 4684.11 689.35C4691.65 701.614 4695.46 716.031 4695.54 732.603H4631.91C4630.99 722.577 4628.09 714.954 4623.21 709.734C4618.4 704.431 4612.19 701.779 4604.56 701.779C4598.6 701.779 4593.38 703.519 4588.9 706.999C4584.43 710.397 4580.95 715.575 4578.46 722.536C4575.98 729.413 4574.73 738.072 4574.73 748.512C4574.73 758.953 4575.98 767.653 4578.46 774.613C4580.95 781.49 4584.43 786.669 4588.9 790.149C4593.38 793.547 4598.6 795.245 4604.56 795.245C4609.62 795.245 4614.09 794.085 4617.99 791.765C4621.88 789.362 4625.03 785.882 4627.43 781.325C4629.92 776.685 4631.41 771.05 4631.91 764.421H4695.54C4695.29 781.242 4691.44 795.908 4683.98 808.42C4676.53 820.849 4665.96 830.461 4652.29 837.255C4638.7 844.05 4622.46 847.447 4603.57 847.447ZM4847.7 653.058V702.774H4721.92V653.058H4847.7ZM4746.28 607.319H4814.89V782.568C4814.89 785.219 4815.34 787.456 4816.25 789.279C4817.17 791.019 4818.57 792.345 4820.48 793.257C4822.39 794.085 4824.83 794.499 4827.81 794.499C4829.88 794.499 4832.29 794.251 4835.02 793.754C4837.84 793.257 4839.91 792.842 4841.24 792.511L4851.18 840.735C4848.11 841.647 4843.72 842.765 4838 844.091C4832.37 845.417 4825.66 846.287 4817.87 846.701C4802.13 847.53 4788.91 845.914 4778.22 841.854C4767.53 837.711 4759.49 831.206 4754.11 822.34C4748.72 813.474 4746.11 802.371 4746.28 789.031V607.319ZM4885.7 843.967V653.058H4954.3V843.967H4885.7ZM4920 633.171C4910.72 633.171 4902.76 630.106 4896.14 623.974C4889.51 617.842 4886.19 610.468 4886.19 601.85C4886.19 593.233 4889.51 585.858 4896.14 579.727C4902.76 573.595 4910.72 570.529 4920 570.529C4929.36 570.529 4937.32 573.595 4943.86 579.727C4950.49 585.858 4953.81 593.233 4953.81 601.85C4953.81 610.468 4950.49 617.842 4943.86 623.974C4937.32 630.106 4929.36 633.171 4920 633.171ZM5191.66 653.058L5127.53 843.967H5047.98L4983.85 653.058H5055.94L5086.76 779.336H5088.75L5119.57 653.058H5191.66ZM5306.84 847.447C5286.46 847.447 5268.89 843.552 5254.14 835.764C5239.48 827.892 5228.17 816.623 5220.21 801.957C5212.34 787.208 5208.4 769.559 5208.4 749.009C5208.4 729.289 5212.38 712.054 5220.34 697.305C5228.29 682.556 5239.52 671.08 5254.02 662.877C5268.52 654.673 5285.63 650.572 5305.35 650.572C5319.77 650.572 5332.82 652.809 5344.5 657.284C5356.18 661.758 5366.17 668.262 5374.45 676.797C5382.74 685.249 5389.12 695.523 5393.59 707.621C5398.07 719.718 5400.31 733.349 5400.31 748.512V764.421H5229.78V726.637H5337.17C5337.08 721.168 5335.68 716.363 5332.94 712.22C5330.29 707.994 5326.69 704.721 5322.13 702.401C5317.65 699.998 5312.56 698.796 5306.84 698.796C5301.29 698.796 5296.19 699.998 5291.55 702.401C5286.91 704.721 5283.18 707.952 5280.37 712.095C5277.63 716.238 5276.18 721.086 5276.02 726.637V767.404C5276.02 773.536 5277.3 779.005 5279.87 783.811C5282.44 788.616 5286.13 792.387 5290.93 795.121C5295.74 797.855 5301.54 799.222 5308.33 799.222C5313.06 799.222 5317.36 798.56 5321.26 797.234C5325.24 795.908 5328.63 794.002 5331.45 791.517C5334.27 788.948 5336.34 785.882 5337.66 782.319H5400.31C5398.15 795.577 5393.06 807.094 5385.02 816.872C5376.98 826.566 5366.33 834.106 5353.08 839.492C5339.9 844.795 5324.49 847.447 5306.84 847.447ZM5475.59 847.944C5465.98 847.944 5457.73 844.588 5450.86 837.877C5444.06 831.082 5440.71 822.838 5440.79 813.143C5440.71 803.697 5444.06 795.618 5450.86 788.906C5457.73 782.195 5465.98 778.839 5475.59 778.839C5484.7 778.839 5492.74 782.195 5499.7 788.906C5506.75 795.618 5510.31 803.697 5510.39 813.143C5510.31 819.606 5508.61 825.489 5505.3 830.792C5502.06 836.012 5497.84 840.197 5492.62 843.345C5487.4 846.411 5481.72 847.944 5475.59 847.944ZM5626.29 736.58V843.967H5557.68V653.058H5622.81V689.35H5624.79C5628.94 677.253 5636.23 667.765 5646.67 660.888C5657.19 654.011 5669.46 650.572 5683.46 650.572C5696.97 650.572 5708.69 653.679 5718.63 659.894C5728.66 666.025 5736.41 674.477 5741.88 685.249C5747.43 696.021 5750.16 708.325 5750.08 722.163V843.967H5681.47V736.58C5681.55 727.134 5679.15 719.718 5674.26 714.333C5669.46 708.947 5662.74 706.254 5654.13 706.254C5648.49 706.254 5643.56 707.497 5639.34 709.982C5635.19 712.385 5632 715.865 5629.77 720.423C5627.53 724.897 5626.37 730.283 5626.29 736.58ZM5885.42 847.447C5865.04 847.447 5847.47 843.552 5832.73 835.764C5818.06 827.892 5806.75 816.623 5798.79 801.957C5790.92 787.208 5786.99 769.559 5786.99 749.009C5786.99 729.289 5790.96 712.054 5798.92 697.305C5806.87 682.556 5818.1 671.08 5832.6 662.877C5847.1 654.673 5864.21 650.572 5883.93 650.572C5898.35 650.572 5911.4 652.809 5923.08 657.284C5934.77 661.758 5944.75 668.262 5953.04 676.797C5961.32 685.249 5967.7 695.523 5972.18 707.621C5976.65 719.718 5978.89 733.349 5978.89 748.512V764.421H5808.37V726.637H5915.75C5915.67 721.168 5914.26 716.363 5911.53 712.22C5908.87 707.994 5905.27 704.721 5900.71 702.401C5896.24 699.998 5891.14 698.796 5885.42 698.796C5879.87 698.796 5874.78 699.998 5870.14 702.401C5865.5 704.721 5861.77 707.952 5858.95 712.095C5856.22 716.238 5854.77 721.086 5854.6 726.637V767.404C5854.6 773.536 5855.89 779.005 5858.45 783.811C5861.02 788.616 5864.71 792.387 5869.52 795.121C5874.32 797.855 5880.12 799.222 5886.92 799.222C5891.64 799.222 5895.95 798.56 5899.84 797.234C5903.82 795.908 5907.22 794.002 5910.03 791.517C5912.85 788.948 5914.92 785.882 5916.25 782.319H5978.89C5976.74 795.577 5971.64 807.094 5963.6 816.872C5955.57 826.566 5944.92 834.106 5931.66 839.492C5918.49 844.795 5903.07 847.447 5885.42 847.447ZM6130.74 653.058V702.774H6004.96V653.058H6130.74ZM6029.32 607.319H6097.92V782.568C6097.92 785.219 6098.38 787.456 6099.29 789.279C6100.2 791.019 6101.61 792.345 6103.52 793.257C6105.42 794.085 6107.87 794.499 6110.85 794.499C6112.92 794.499 6115.32 794.251 6118.06 793.754C6120.88 793.257 6122.95 792.842 6124.27 792.511L6134.22 840.735C6131.15 841.647 6126.76 842.765 6121.04 844.091C6115.41 845.417 6108.7 846.287 6100.91 846.701C6085.16 847.53 6071.95 845.914 6061.26 841.854C6050.57 837.711 6042.53 831.206 6037.15 822.34C6031.76 813.474 6029.15 802.371 6029.32 789.031V607.319ZM6293.52 577.49L6211.49 882.248H6153.32L6235.35 577.49H6293.52Z" fill="#151C22"/>
<path d="M1235.21 682.219V654.779C1235.21 619.975 1202.94 591.761 1163.13 591.761C1123.32 591.761 1091.05 619.975 1091.05 654.779V684.622H1080.87C1075.34 684.622 1070.87 689.099 1070.87 694.622V833.967C1070.87 839.49 1075.34 843.967 1080.87 843.967H1245.4C1250.92 843.967 1255.4 839.49 1255.4 833.967V694.622C1255.4 689.099 1250.92 684.622 1245.4 684.622H1235.21V682.219ZM1114.12 654.771C1114.12 631.142 1136.11 611.919 1163.13 611.919C1190.16 611.919 1212.15 631.142 1212.15 654.771V684.622H1114.12V654.774V654.771Z" fill="#151C22"/>
<path d="M186.285 713.545C176.522 723.308 176.522 739.137 186.285 748.9L345.384 907.999C355.147 917.762 370.976 917.762 380.74 907.999C390.503 898.236 390.503 882.407 380.74 872.644L239.318 731.223L380.74 589.801C390.503 580.038 390.503 564.209 380.74 554.446C370.976 544.683 355.147 544.683 345.384 554.446L186.285 713.545ZM525.383 706.223L203.963 706.223L203.963 756.223L525.383 756.223L525.383 706.223Z" fill="#151C22"/>
<rect x="898.342" y="413.876" width="1564.25" height="617.694" rx="146" stroke="#D6E040" stroke-width="100"/>
<path d="M9071.81 569.217L9102.06 662.326L9104.87 670.964H9113.95H9211.85L9132.64 728.509L9125.3 733.847L9128.1 742.484L9158.36 835.594L9079.15 778.049L9071.81 772.711L9064.46 778.049L8985.25 835.594L9015.51 742.484L9018.31 733.847L9010.97 728.509L8931.76 670.964H9029.66H9038.75L9041.55 662.326L9071.81 569.217Z" stroke="#151C22" stroke-width="25"/>
<path d="M1670.29 1555.08V1491.19C1670.29 1460.24 1694.17 1435.32 1723.83 1435.32C1753.49 1435.32 1777.37 1460.24 1777.37 1491.19V1570.15" fill="white"/>
<path d="M1670.29 1555.08V1491.19C1670.29 1460.24 1694.17 1435.32 1723.83 1435.32C1753.49 1435.32 1777.37 1460.24 1777.37 1491.19V1570.15" stroke="#151C22" stroke-width="29.9999" stroke-linecap="round" stroke-linejoin="round"/>
<path d="M1777.37 1570.15V1506.51C1777.37 1475.56 1801.25 1450.64 1830.91 1450.64C1860.57 1450.64 1884.45 1475.56 1884.45 1506.51V1585.22" fill="white"/>
<path d="M1777.37 1570.15V1506.51C1777.37 1475.56 1801.25 1450.64 1830.91 1450.64C1860.57 1450.64 1884.45 1475.56 1884.45 1506.51V1585.22" stroke="#151C22" stroke-width="29.9999" stroke-linecap="round" stroke-linejoin="round"/>
<path d="M1884.45 1585.22V1521.83C1884.45 1490.87 1908.33 1465.96 1937.99 1465.96C1967.65 1465.96 1991.53 1490.87 1991.53 1521.83V1600.29" fill="white"/>
<path d="M1884.45 1585.22V1521.83C1884.45 1490.87 1908.33 1465.96 1937.99 1465.96C1967.65 1465.96 1991.53 1490.87 1991.53 1521.83V1600.29" stroke="#151C22" stroke-width="29.9999" stroke-linecap="round" stroke-linejoin="round"/>
<path d="M1991.53 1600.29L1994.86 1763.33C1999.31 1981.06 1715.76 2043.33 1572.34 1896.58C1539.58 1863.06 1524.16 1831.41 1503.85 1792.06C1470.18 1726.84 1402.84 1596.4 1402.84 1596.4C1387.39 1569.6 1395.63 1536.06 1421.32 1521.21C1447 1506.36 1480.12 1515.98 1495.58 1542.79C1495.58 1542.79 1563.21 1663.21 1563.21 1658.61L1563.21 1523.16V1246.09C1563.21 1215.14 1587.09 1190.22 1616.75 1190.22C1646.41 1190.22 1670.29 1215.14 1670.29 1246.09V1555.08" fill="white"/>
<path d="M1991.53 1600.29L1994.86 1763.33C1999.31 1981.06 1715.76 2043.33 1572.34 1896.58C1539.58 1863.06 1524.16 1831.41 1503.85 1792.06C1470.18 1726.84 1402.84 1596.4 1402.84 1596.4C1387.39 1569.6 1395.63 1536.06 1421.32 1521.21C1447 1506.36 1480.12 1515.98 1495.58 1542.79C1495.58 1542.79 1563.21 1663.21 1563.21 1658.61L1563.21 1523.16V1246.09C1563.21 1215.14 1587.09 1190.22 1616.75 1190.22C1646.41 1190.22 1670.29 1215.14 1670.29 1246.09V1555.08" stroke="#151C22" stroke-width="29.9999"/>
<path d="M1976.51 1592.46H2005.88V1617.92H1976.51V1592.46Z" fill="#151C22"/>
</svg>
