<svg width="381" height="334" viewBox="0 0 381 334" fill="none" xmlns="http://www.w3.org/2000/svg">
<path d="M339.769 170.771C339.769 172.331 339.769 173.892 339.665 175.452C339.457 181.901 338.936 188.246 338 194.487C337.064 200.936 335.712 207.385 334.048 213.522C315.221 282.588 252.083 333.452 176.984 333.452C87.1139 333.452 14.1987 260.537 14.1987 170.667C14.1987 80.7974 87.0099 7.88226 176.984 7.88226C266.957 7.88226 339.769 80.9014 339.769 170.771Z" fill="#3757A7"/>
<path fill-rule="evenodd" clip-rule="evenodd" d="M126.269 73.7521C125.869 72.9521 125.169 72.8521 124.369 73.1521L120.869 74.7521C119.969 75.1521 120.969 76.6521 121.969 78.6521C122.269 79.2521 122.869 79.3521 123.569 79.0521C126.469 77.5521 129.269 82.2521 125.769 84.0521C123.469 85.1521 122.069 83.6521 120.969 81.3521C118.769 76.8521 117.869 76.4521 116.869 76.8521L114.269 78.1521C113.369 78.6521 113.769 79.6521 114.669 81.4521C115.169 82.4521 115.469 83.0521 116.069 82.7521C119.569 81.0521 121.769 85.8521 118.369 87.5521C116.269 88.5521 114.569 86.5521 114.169 84.5521C113.969 83.9521 114.269 83.6521 113.969 82.9521C112.869 80.6521 111.769 79.3521 110.569 79.9521L106.369 81.8521L108.069 85.2521C108.269 85.8521 108.769 86.0521 109.369 85.7521C112.269 84.2521 114.969 89.0521 110.869 91.0521C109.469 91.6521 107.669 91.4521 106.669 89.6521C105.469 87.2521 106.569 86.6521 105.969 84.8521C105.069 83.1521 104.069 83.1521 103.269 83.4521L99.7686 85.0521C98.8686 85.4521 99.8687 86.9521 100.869 88.9521C101.169 89.5521 101.769 89.6521 102.469 89.3521C105.369 87.8521 108.169 92.5521 104.669 94.3521C102.369 95.4521 100.969 93.9521 99.8687 91.6521C97.6687 87.1521 96.7686 86.7521 95.7686 87.1521L93.1687 88.4521C92.2687 88.9521 92.6686 89.9521 93.5686 91.7521C94.0686 92.7521 94.3686 93.3521 94.9686 93.0521C98.4686 91.3521 100.669 96.1521 97.2686 97.8521C95.1686 98.8521 93.4686 96.8521 93.0686 94.8521C92.8686 94.2521 93.1687 93.9521 92.8687 93.2521C91.7687 90.9521 90.6686 89.6521 89.4686 90.2521L85.2686 92.1521L86.9686 95.5521C87.1686 96.1521 87.6686 96.3521 88.2686 96.0521C91.1686 94.5521 93.7687 99.4521 90.3687 101.052C87.7687 102.352 86.3687 99.9521 85.1687 97.4521L83.3687 93.8521C83.0687 93.5521 82.6687 93.4521 82.3687 93.6521L78.8687 95.2521C77.9687 95.6521 78.9686 97.1521 79.9686 99.1521C80.3686 99.7521 80.8686 99.8521 81.5686 99.5521C84.4686 98.0521 87.2686 102.752 83.7686 104.552C81.4686 105.652 80.0686 104.152 78.9686 101.852C76.7686 97.3521 75.8687 96.9521 74.8687 97.3521L72.2686 98.6521C71.3686 99.1521 71.7687 100.152 72.6687 101.952C73.1687 102.952 73.4686 103.552 74.0686 103.252C77.5686 101.552 79.7687 106.352 76.3687 108.052C74.2687 109.052 72.5687 107.052 72.1687 105.052C71.9687 104.452 72.2686 104.152 71.9686 103.452C70.8686 101.152 69.7686 99.8521 68.5686 100.452L64.3687 102.352L66.0686 105.752C66.2686 106.352 66.7687 106.552 67.3687 106.252C70.2687 104.752 72.9687 109.552 68.8687 111.552C67.4687 112.152 65.6687 111.952 64.6687 110.152C63.4687 107.752 64.5686 107.152 63.9686 105.352C63.0686 103.652 62.0686 103.652 61.2686 103.952L57.7686 105.552C56.8686 105.952 57.8687 107.452 58.8687 109.452C59.1687 110.052 59.7687 110.152 60.4687 109.852C63.3687 108.352 66.1687 113.052 62.6687 114.852C60.3687 115.952 58.9687 114.452 57.8687 112.152C55.6687 107.652 54.7686 107.252 53.7686 107.652L51.1686 108.952C50.2686 109.452 50.6686 110.452 51.5686 112.252C52.0686 113.252 52.3687 113.852 52.9687 113.552C56.4687 111.852 58.6686 116.652 55.2686 118.352C53.1686 119.352 51.4686 117.352 51.0686 115.352C50.8686 114.752 51.1687 114.452 50.8687 113.752C49.7687 111.452 48.6687 110.152 47.4687 110.752L43.2686 112.652L44.9687 116.052C45.1687 116.652 45.6686 116.852 46.2686 116.552C49.1686 115.052 51.8686 119.852 47.7686 121.852C45.4686 122.952 44.0686 120.352 44.0686 117.652C43.8686 116.452 43.4686 115.552 42.7686 114.952C41.7686 114.252 41.0687 113.952 39.9687 114.452L36.4687 116.052C35.5687 116.452 36.5686 117.952 37.5686 119.952C37.9686 120.552 38.4686 120.652 39.1686 120.352C42.0686 118.852 44.8687 123.552 41.3687 125.352C39.0687 126.452 37.6686 124.952 36.5686 122.652C34.3686 118.152 33.4687 117.752 32.4687 118.152L29.8687 119.452C28.9687 119.952 29.3686 120.952 30.2686 122.752C30.7686 123.752 31.0686 124.352 31.6686 124.052C35.1686 122.352 37.3687 127.152 33.9687 128.852C31.8687 129.852 30.1686 127.852 29.7686 125.852C29.5686 125.252 29.8686 124.952 29.5686 124.252C28.4686 121.952 27.3686 120.652 26.1686 121.252L21.9687 123.152L23.6686 126.552C23.8686 127.152 24.3687 127.352 24.9687 127.052C27.8687 125.552 30.5687 130.352 26.4687 132.352C25.0687 132.952 23.2686 132.752 22.2686 130.952C21.0686 128.552 22.1686 127.952 21.5686 126.152C20.6686 124.452 19.6687 124.452 18.8687 124.752L15.3687 126.352C14.4687 126.752 15.4687 128.252 16.4687 130.252C16.7687 130.852 17.3686 130.952 18.0686 130.652C20.9686 129.152 23.7686 133.852 20.2686 135.652C17.9686 136.752 16.5687 135.252 15.4687 132.952C13.2687 128.452 12.3687 128.052 11.3687 128.452L8.76865 129.752C7.86865 130.252 8.26865 131.252 9.16865 133.052C9.66865 134.052 9.96865 134.652 10.5686 134.352C14.0686 132.652 16.2687 137.452 12.8687 139.152C10.7687 140.152 9.06865 138.152 8.66865 136.152C8.46865 135.552 8.76865 135.252 8.46865 134.552C7.36865 132.252 6.26865 130.952 5.06865 131.552L0.868652 133.452L2.56865 136.852C2.76865 137.452 3.26865 137.652 3.86865 137.352C6.76865 135.852 9.46865 140.652 5.36865 142.652C4.66865 143.052 4.06865 143.852 4.16865 144.452C4.26865 144.752 4.36865 145.052 4.26865 145.452L84.2686 307.552L211.069 245.852L131.069 83.7521C129.469 80.3521 127.869 76.9521 126.269 73.7521Z" fill="#DCE4E7"/>
<path d="M54.6171 178.131L46.9038 181.934L47.3019 182.742L55.0152 178.938L54.6171 178.131Z" fill="#AFAFAF"/>
<path d="M66.3388 172.411L58.6255 176.215L59.0236 177.022L66.7369 173.219L66.3388 172.411Z" fill="#AFAFAF"/>
<path d="M78.2187 166.506L70.5054 170.309L70.9034 171.117L78.6168 167.313L78.2187 166.506Z" fill="#AFAFAF"/>
<path d="M90.142 160.69L82.4287 164.494L82.8268 165.301L90.5401 161.498L90.142 160.69Z" fill="#AFAFAF"/>
<path d="M101.809 154.833L94.2749 158.549L94.673 159.356L102.207 155.64L101.809 154.833Z" fill="#AFAFAF"/>
<path d="M92.4607 169.564L57.8403 186.637L58.2384 187.444L92.8588 170.371L92.4607 169.564Z" fill="#AFAFAF"/>
<path d="M134.386 148.952L99.7656 166.025L100.164 166.832L134.784 149.759L134.386 148.952Z" fill="#AFAFAF"/>
<path d="M70.392 190.612L54.9653 198.219L55.3634 199.026L70.7901 191.419L70.392 190.612Z" fill="#AFAFAF"/>
<path d="M87.8736 181.97L72.2676 189.666L72.6656 190.473L88.2717 182.777L87.8736 181.97Z" fill="#AFAFAF"/>
<path d="M115.563 168.279L99.9565 175.975L100.355 176.783L115.961 169.087L115.563 168.279Z" fill="#AFAFAF"/>
<path d="M133.068 159.629L117.641 167.237L118.039 168.044L133.466 160.436L133.068 159.629Z" fill="#AFAFAF"/>
<path d="M85.066 193.511L79.4155 196.298L79.8136 197.105L85.4641 194.318L85.066 193.511Z" fill="#AFAFAF"/>
<path d="M94.4422 188.857L88.6123 191.732L89.0104 192.539L94.8402 189.664L94.4422 188.857Z" fill="#AFAFAF"/>
<path d="M103.637 184.295L97.9863 187.081L98.3844 187.888L104.035 185.102L103.637 184.295Z" fill="#AFAFAF"/>
<path d="M112.957 179.725L107.306 182.511L107.704 183.318L113.355 180.532L112.957 179.725Z" fill="#AFAFAF"/>
<path d="M122.534 174.976L116.704 177.851L117.102 178.658L122.932 175.783L122.534 174.976Z" fill="#AFAFAF"/>
<path d="M131.943 170.363L126.113 173.238L126.511 174.045L132.341 171.17L131.943 170.363Z" fill="#AFAFAF"/>
<path d="M141.139 165.797L135.489 168.584L135.887 169.391L141.537 166.604L141.139 165.797Z" fill="#AFAFAF"/>
<path d="M150.548 161.185L144.898 163.971L145.296 164.778L150.946 161.992L150.548 161.185Z" fill="#AFAFAF"/>
<path d="M89.4429 201.391L62.9844 214.438L63.3824 215.246L89.841 202.198L89.4429 201.391Z" fill="#AFAFAF"/>
<path d="M118.232 187.173L91.7734 200.221L92.1715 201.028L118.63 187.98L118.232 187.173Z" fill="#AFAFAF"/>
<path d="M147.133 172.904L120.675 185.952L121.073 186.759L147.531 173.711L147.133 172.904Z" fill="#AFAFAF"/>
<path d="M76.5887 217.292L66.8125 222.113L67.2106 222.92L76.9868 218.099L76.5887 217.292Z" fill="#AFAFAF"/>
<path d="M89.9281 210.799L80.1519 215.62L80.5499 216.427L90.3261 211.606L89.9281 210.799Z" fill="#AFAFAF"/>
<path d="M103.424 204.122L93.6475 208.943L94.0455 209.75L103.822 204.929L103.424 204.122Z" fill="#AFAFAF"/>
<path d="M116.807 197.497L107.031 202.318L107.429 203.126L117.205 198.305L116.807 197.497Z" fill="#AFAFAF"/>
<path d="M137.03 187.546L127.433 192.278L127.831 193.085L137.428 188.353L137.03 187.546Z" fill="#AFAFAF"/>
<path d="M150.616 180.824L141.019 185.557L141.417 186.364L151.014 181.631L150.616 180.824Z" fill="#AFAFAF"/>
<path d="M89.0217 221.546L70.9043 230.48L71.3024 231.287L89.4197 222.353L89.0217 221.546Z" fill="#AFAFAF"/>
<path d="M124.221 204.206L105.924 213.229L106.322 214.036L124.619 205.013L124.221 204.206Z" fill="#AFAFAF"/>
<path d="M159.309 186.918L140.743 196.073L141.141 196.881L159.707 187.725L159.309 186.918Z" fill="#AFAFAF"/>
<path d="M125.186 213.542L96.0371 227.917L96.4352 228.724L125.584 214.349L125.186 213.542Z" fill="#AFAFAF"/>
<path d="M160.678 196.061L131.26 210.568L131.658 211.375L161.076 196.868L160.678 196.061Z" fill="#AFAFAF"/>
<path d="M150.394 211.497L95.145 238.743L95.5431 239.55L150.792 212.304L150.394 211.497Z" fill="#AFAFAF"/>
<path d="M116.699 238.218L103.335 244.808L103.734 245.615L117.097 239.025L116.699 238.218Z" fill="#AFAFAF"/>
<path d="M133.002 230.195L119.639 236.786L120.037 237.593L133.401 231.003L133.002 230.195Z" fill="#AFAFAF"/>
<path d="M149.216 222.218L135.852 228.808L136.25 229.615L149.614 223.025L149.216 222.218Z" fill="#AFAFAF"/>
<path d="M165.519 214.196L152.155 220.786L152.553 221.593L165.917 215.003L165.519 214.196Z" fill="#AFAFAF"/>
<path d="M135.272 239.168L90.0679 261.46L90.4659 262.268L135.67 239.976L135.272 239.168Z" fill="#AFAFAF"/>
<path d="M161.763 226.093L137.367 238.124L137.765 238.931L162.161 226.9L161.763 226.093Z" fill="#AFAFAF"/>
<path d="M118.419 257.556L100.302 266.49L100.7 267.298L118.817 258.363L118.419 257.556Z" fill="#AFAFAF"/>
<path d="M128.543 252.624L121.009 256.339L121.407 257.146L128.941 253.431L128.543 252.624Z" fill="#AFAFAF"/>
<path d="M137.055 248.44L129.521 252.155L129.919 252.962L137.453 249.247L137.055 248.44Z" fill="#AFAFAF"/>
<path d="M145.34 244.259L138.255 247.753L138.653 248.561L145.738 245.066L145.34 244.259Z" fill="#AFAFAF"/>
<path d="M154.121 239.942L146.587 243.658L146.985 244.465L154.519 240.75L154.121 239.942Z" fill="#AFAFAF"/>
<path d="M162.373 235.944L155.108 239.527L155.506 240.334L162.771 236.751L162.373 235.944Z" fill="#AFAFAF"/>
<path d="M170.963 231.668L163.878 235.162L164.276 235.969L171.362 232.475L170.963 231.668Z" fill="#AFAFAF"/>
<path d="M179.743 227.354L172.209 231.069L172.607 231.876L180.141 228.161L179.743 227.354Z" fill="#AFAFAF"/>
<path d="M139.458 257.105L123.224 265.11L123.622 265.918L139.856 257.912L139.458 257.105Z" fill="#AFAFAF"/>
<path d="M158.837 247.501L142.603 255.507L143.001 256.314L159.235 248.308L158.837 247.501Z" fill="#AFAFAF"/>
<path d="M177.724 238.133L161.49 246.139L161.888 246.946L178.122 238.94L177.724 238.133Z" fill="#AFAFAF"/>
<path d="M146.494 263.452L115.461 278.756L115.859 279.563L146.892 264.259L146.494 263.452Z" fill="#AFAFAF"/>
<path d="M188.008 242.958L176.527 248.62L176.925 249.427L188.406 243.766L188.008 242.958Z" fill="#AFAFAF"/>
<path fill-rule="evenodd" clip-rule="evenodd" d="M203.669 20.5521C203.569 19.6521 202.969 19.3521 202.169 19.3521L198.469 19.6521C197.569 19.7521 197.969 21.4521 198.169 23.5521C198.269 24.2521 198.669 24.552 199.469 24.452C202.569 24.152 203.469 29.2521 199.769 29.6521C197.369 29.8521 196.569 28.0521 196.369 25.5521C195.869 20.7521 195.269 20.0521 194.169 20.1521L191.469 20.452C190.469 20.552 190.469 21.6521 190.669 23.5521C190.769 24.6521 190.869 25.2521 191.469 25.1521C195.169 24.7521 195.469 29.8521 191.969 30.2521C189.769 30.4521 188.969 28.0521 189.269 26.1521C189.269 25.5521 189.669 25.3521 189.669 24.6521C189.469 22.2521 188.869 20.6521 187.669 20.8521L183.269 21.1521L183.669 24.7521C183.669 25.3521 183.969 25.7521 184.669 25.6521C187.769 25.3521 188.669 30.452 184.169 30.952C182.769 31.052 181.169 30.2521 180.869 28.2521C180.569 25.6521 181.869 25.5521 181.869 23.7521C181.669 21.8521 180.769 21.5521 179.869 21.6521L176.169 21.952C175.269 22.052 175.669 23.7521 175.869 25.8521C175.969 26.5521 176.369 26.8521 177.169 26.7521C180.269 26.4521 181.169 31.552 177.469 31.952C175.069 32.152 174.269 30.3521 174.069 27.8521C173.569 23.0521 172.969 22.352 171.869 22.452L169.169 22.7521C168.169 22.8521 168.169 23.9521 168.369 25.8521C168.469 26.9521 168.569 27.552 169.169 27.452C172.869 27.052 173.169 32.1521 169.669 32.5521C167.469 32.7521 166.669 30.352 166.969 28.452C166.969 27.852 167.369 27.652 167.369 26.952C167.169 24.552 166.569 22.9521 165.369 23.1521L160.969 23.452L161.369 27.0521C161.369 27.6521 161.669 28.052 162.369 27.952C165.469 27.652 166.169 32.8521 162.569 33.1521C159.869 33.4521 159.369 30.7521 159.069 28.1521L158.669 24.3521C158.469 23.9521 158.169 23.7521 157.869 23.8521L154.169 24.1521C153.269 24.2521 153.669 25.9521 153.869 28.0521C153.969 28.7521 154.369 29.052 155.169 28.952C158.269 28.652 159.169 33.7521 155.469 34.1521C153.069 34.3521 152.269 32.5521 152.069 30.0521C151.569 25.2521 150.969 24.5521 149.869 24.6521L147.169 24.952C146.169 25.052 146.169 26.1521 146.369 28.0521C146.469 29.1521 146.569 29.7521 147.169 29.6521C150.869 29.2521 151.169 34.3521 147.669 34.7521C145.469 34.9521 144.669 32.5521 144.969 30.6521C144.969 30.0521 145.369 29.8521 145.369 29.1521C145.169 26.7521 144.569 25.1521 143.369 25.3521L138.969 25.6521L139.369 29.2521C139.369 29.8521 139.669 30.2521 140.369 30.1521C143.469 29.8521 144.369 34.952 139.869 35.452C138.469 35.552 136.869 34.7521 136.569 32.7521C136.269 30.1521 137.569 30.0521 137.569 28.2521C137.369 26.3521 136.469 26.0521 135.569 26.1521L131.869 26.452C130.969 26.552 131.369 28.2521 131.569 30.3521C131.669 31.0521 132.069 31.3521 132.869 31.2521C135.969 30.9521 136.869 36.052 133.169 36.452C130.769 36.652 129.969 34.8521 129.769 32.3521C129.269 27.5521 128.669 26.852 127.569 26.952L124.869 27.2521C123.869 27.3521 123.869 28.4521 124.069 30.3521C124.169 31.4521 124.269 32.052 124.869 31.952C128.569 31.552 128.869 36.6521 125.369 37.0521C123.169 37.2521 122.369 34.852 122.669 32.952C122.669 32.352 123.069 32.152 123.069 31.452C122.869 29.052 122.269 27.4521 121.069 27.6521L116.669 27.952L117.069 31.5521C117.069 32.1521 117.369 32.552 118.069 32.452C121.169 32.152 122.069 37.2521 117.569 37.7521C115.169 37.9521 114.769 35.1521 115.669 32.7521C115.969 31.5521 115.869 30.652 115.469 29.952C114.769 28.952 114.269 28.5521 113.069 28.5521L109.369 28.8521C108.469 28.9521 108.869 30.6521 109.069 32.7521C109.169 33.4521 109.569 33.7521 110.369 33.6521C113.469 33.3521 114.369 38.4521 110.669 38.8521C108.269 39.0521 107.469 37.2521 107.269 34.7521C106.769 29.9521 106.169 29.2521 105.069 29.3521L102.369 29.6521C101.369 29.7521 101.369 30.8521 101.569 32.7521C101.669 33.8521 101.769 34.4521 102.369 34.3521C106.069 33.9521 106.369 39.052 102.869 39.452C100.669 39.652 99.8687 37.2521 100.169 35.3521C100.169 34.7521 100.569 34.5521 100.569 33.8521C100.369 31.4521 99.7686 29.8521 98.5686 30.0521L94.1687 30.3521L94.5686 33.952C94.5686 34.552 94.8686 34.9521 95.5686 34.8521C98.6686 34.5521 99.5686 39.6521 95.0686 40.1521C93.6686 40.2521 92.0686 39.452 91.7686 37.452C91.4686 34.852 92.7686 34.752 92.7686 32.952C92.5686 31.052 91.6686 30.7521 90.7686 30.8521L87.0686 31.1521C86.1686 31.2521 86.5686 32.9521 86.7686 35.0521C86.8686 35.7521 87.2686 36.052 88.0686 35.952C91.1686 35.652 92.0687 40.7521 88.3687 41.1521C85.9687 41.3521 85.1686 39.5521 84.9686 37.0521C84.4686 32.2521 83.8686 31.5521 82.7686 31.6521L80.0686 31.952C79.0686 32.052 79.0686 33.1521 79.2686 35.0521C79.3686 36.1521 79.4686 36.7521 80.0686 36.6521C83.7686 36.2521 84.0686 41.3521 80.5686 41.7521C78.3686 41.9521 77.5687 39.5521 77.8687 37.6521C77.8687 37.0521 78.2686 36.8521 78.2686 36.1521C78.0686 33.7521 77.4686 32.1521 76.2686 32.3521L71.8687 32.6521L72.2686 36.2521C72.2686 36.8521 72.5686 37.2521 73.2686 37.1521C76.3686 36.8521 77.2686 41.952 72.7686 42.452C72.0686 42.552 71.1686 43.0521 71.0686 43.6521C71.0686 43.9521 70.9687 44.2521 70.8687 44.5521L87.7686 216.952L222.569 203.752L205.669 31.3521C204.369 27.5521 203.969 23.9521 203.669 20.5521Z" fill="#E2E2E2"/>
<path d="M104.119 89.9671L95.9575 90.7652L96.0451 91.661L104.207 90.8629L104.119 89.9671Z" fill="#AFAFAF"/>
<path d="M116.512 88.6687L108.35 89.4669L108.438 90.3626L116.599 89.5645L116.512 88.6687Z" fill="#AFAFAF"/>
<path d="M129.215 87.4621L121.054 88.2601L121.141 89.1559L129.303 88.3578L129.215 87.4621Z" fill="#AFAFAF"/>
<path d="M141.819 86.2652L133.658 87.0633L133.745 87.9591L141.907 87.1609L141.819 86.2652Z" fill="#AFAFAF"/>
<path d="M154.213 84.9774L146.25 85.756L146.338 86.6517L154.3 85.8731L154.213 84.9774Z" fill="#AFAFAF"/>
<path d="M140.949 95.0618L104.123 98.663L104.211 99.5587L141.037 95.9576L140.949 95.0618Z" fill="#AFAFAF"/>
<path d="M185.547 90.657L148.721 94.2582L148.808 95.154L185.634 91.5528L185.547 90.657Z" fill="#AFAFAF"/>
<path d="M114.091 106.359L97.6685 107.965L97.7561 108.86L114.179 107.254L114.091 106.359Z" fill="#AFAFAF"/>
<path d="M132.692 104.55L116.071 106.175L116.158 107.071L132.78 105.445L132.692 104.55Z" fill="#AFAFAF"/>
<path d="M162.192 101.647L145.57 103.273L145.658 104.169L162.279 102.543L162.192 101.647Z" fill="#AFAFAF"/>
<path d="M180.796 99.8599L164.374 101.466L164.462 102.362L180.884 100.756L180.796 99.8599Z" fill="#AFAFAF"/>
<path d="M126.223 113.97L120.251 114.554L120.339 115.45L126.311 114.866L126.223 113.97Z" fill="#AFAFAF"/>
<path d="M136.12 112.967L129.949 113.57L130.037 114.466L136.208 113.863L136.12 112.967Z" fill="#AFAFAF"/>
<path d="M145.918 111.973L139.946 112.557L140.033 113.453L146.005 112.869L145.918 111.973Z" fill="#AFAFAF"/>
<path d="M155.925 111.071L149.954 111.655L150.041 112.55L156.013 111.966L155.925 111.071Z" fill="#AFAFAF"/>
<path d="M166.124 110.059L159.953 110.663L160.041 111.558L166.212 110.955L166.124 110.059Z" fill="#AFAFAF"/>
<path d="M176.022 109.067L169.852 109.67L169.939 110.566L176.11 109.962L176.022 109.067Z" fill="#AFAFAF"/>
<path d="M185.819 108.073L179.848 108.657L179.935 109.553L185.907 108.969L185.819 108.073Z" fill="#AFAFAF"/>
<path d="M195.827 107.17L189.855 107.754L189.943 108.65L195.915 108.066L195.827 107.17Z" fill="#AFAFAF"/>
<path d="M127.572 122.581L99.4048 125.336L99.4924 126.232L127.659 123.477L127.572 122.581Z" fill="#AFAFAF"/>
<path d="M158.073 119.59L129.906 122.344L129.993 123.24L158.16 120.486L158.073 119.59Z" fill="#AFAFAF"/>
<path d="M188.965 116.481L160.798 119.236L160.886 120.131L189.053 117.377L188.965 116.481Z" fill="#AFAFAF"/>
<path d="M110.607 132.452L100.156 133.474L100.244 134.37L110.694 133.348L110.607 132.452Z" fill="#AFAFAF"/>
<path d="M124.806 131.05L114.355 132.072L114.443 132.968L124.894 131.946L124.806 131.05Z" fill="#AFAFAF"/>
<path d="M139.208 129.651L128.757 130.673L128.845 131.569L139.296 130.547L139.208 129.651Z" fill="#AFAFAF"/>
<path d="M153.407 128.25L142.957 129.272L143.044 130.167L153.495 129.145L153.407 128.25Z" fill="#AFAFAF"/>
<path d="M174.81 126.17L164.658 127.163L164.746 128.058L174.898 127.066L174.81 126.17Z" fill="#AFAFAF"/>
<path d="M189.212 124.771L179.06 125.763L179.148 126.659L189.3 125.666L189.212 124.771Z" fill="#AFAFAF"/>
<path d="M120.293 140.524L100.984 142.412L101.072 143.308L120.381 141.42L120.293 140.524Z" fill="#AFAFAF"/>
<path d="M157.789 136.809L138.281 138.717L138.369 139.612L157.877 137.705L157.789 136.809Z" fill="#AFAFAF"/>
<path d="M194.994 133.201L175.287 135.129L175.375 136.024L195.082 134.097L194.994 133.201Z" fill="#AFAFAF"/>
<path d="M155.463 145.551L124.41 148.587L124.497 149.483L155.551 146.446L155.463 145.551Z" fill="#AFAFAF"/>
<path d="M193.162 141.838L161.909 144.894L161.997 145.79L193.249 142.733L193.162 141.838Z" fill="#AFAFAF"/>
<path d="M178.695 152.198L119.972 157.941L120.06 158.836L178.782 153.094L178.695 152.198Z" fill="#AFAFAF"/>
<path d="M139.5 164.769L125.268 166.161L125.355 167.057L139.588 165.665L139.5 164.769Z" fill="#AFAFAF"/>
<path d="M156.8 163.068L142.567 164.46L142.655 165.356L156.888 163.964L156.8 163.068Z" fill="#AFAFAF"/>
<path d="M174.1 161.367L159.867 162.759L159.955 163.655L174.188 162.263L174.1 161.367Z" fill="#AFAFAF"/>
<path d="M191.4 159.666L177.167 161.058L177.255 161.953L191.487 160.562L191.4 159.666Z" fill="#AFAFAF"/>
<path d="M155.822 171.916L107.749 176.616L107.836 177.512L155.909 172.811L155.822 171.916Z" fill="#AFAFAF"/>
<path d="M183.979 169.199L158.002 171.739L158.09 172.635L184.067 170.094L183.979 169.199Z" fill="#AFAFAF"/>
<path d="M134.489 182.726L115.18 184.614L115.268 185.51L134.577 183.622L134.489 182.726Z" fill="#AFAFAF"/>
<path d="M145.116 181.68L137.154 182.458L137.241 183.354L145.204 182.576L145.116 181.68Z" fill="#AFAFAF"/>
<path d="M154.215 180.779L146.253 181.557L146.341 182.453L154.303 181.674L154.215 180.779Z" fill="#AFAFAF"/>
<path d="M163.116 179.897L155.551 180.637L155.639 181.532L163.203 180.793L163.116 179.897Z" fill="#AFAFAF"/>
<path d="M172.414 178.976L164.451 179.755L164.539 180.651L172.501 179.872L172.414 178.976Z" fill="#AFAFAF"/>
<path d="M181.322 178.183L173.559 178.943L173.646 179.838L181.41 179.079L181.322 178.183Z" fill="#AFAFAF"/>
<path d="M190.423 177.293L182.859 178.033L182.946 178.928L190.511 178.189L190.423 177.293Z" fill="#AFAFAF"/>
<path d="M199.622 176.382L191.659 177.161L191.747 178.056L199.709 177.278L199.622 176.382Z" fill="#AFAFAF"/>
<path d="M153.49 189.324L136.172 191.017L136.259 191.913L153.578 190.219L153.49 189.324Z" fill="#AFAFAF"/>
<path d="M174.192 187.315L156.874 189.008L156.962 189.904L174.28 188.211L174.192 187.315Z" fill="#AFAFAF"/>
<path d="M194.301 185.421L176.982 187.115L177.07 188.011L194.388 186.317L194.301 185.421Z" fill="#AFAFAF"/>
<path d="M157.656 197.453L124.612 200.684L124.699 201.58L157.743 198.349L157.656 197.453Z" fill="#AFAFAF"/>
<path d="M201.711 193.177L189.568 194.364L189.656 195.26L201.799 194.073L201.711 193.177Z" fill="#AFAFAF"/>
<path fill-rule="evenodd" clip-rule="evenodd" d="M201.069 1.55209C200.869 0.652089 200.169 0.452089 199.469 0.552089L195.869 1.25209C194.969 1.45209 195.569 3.05209 196.069 5.15209C196.269 5.75209 196.669 6.05208 197.469 5.85208C200.569 5.15208 202.069 10.1521 198.369 10.9521C195.969 11.4521 195.069 9.75208 194.469 7.35208C193.369 2.65208 192.669 2.05209 191.669 2.25209L188.969 2.85208C187.969 3.05208 188.169 4.15208 188.569 5.95208C188.769 7.05208 188.969 7.55208 189.569 7.45208C193.169 6.65208 194.169 11.6521 190.669 12.4521C188.469 12.9521 187.369 10.6521 187.469 8.75209C187.369 8.15209 187.769 7.95209 187.669 7.25209C187.169 4.85209 186.469 3.45209 185.169 3.75209L180.769 4.65209L181.569 8.15209C181.669 8.75209 182.069 9.05208 182.669 8.95208C185.769 8.25208 187.169 13.2521 182.869 14.2521C181.469 14.5521 179.869 13.8521 179.269 12.0521C178.669 9.55209 179.869 9.25208 179.669 7.45208C179.169 5.65208 178.269 5.45209 177.469 5.55209L173.869 6.25209C172.969 6.45209 173.569 8.05209 174.069 10.1521C174.269 10.7521 174.669 11.0521 175.469 10.8521C178.569 10.1521 180.069 15.1521 176.369 15.9521C173.969 16.4521 173.069 14.7521 172.469 12.3521C171.369 7.65208 170.669 7.05209 169.669 7.25209L166.969 7.85208C165.969 8.05208 166.169 9.15208 166.569 10.9521C166.769 12.0521 166.969 12.5521 167.569 12.4521C171.169 11.6521 172.169 16.6521 168.669 17.4521C166.469 17.9521 165.369 15.6521 165.469 13.7521C165.369 13.1521 165.769 12.9521 165.669 12.2521C165.169 9.85209 164.469 8.45209 163.169 8.75209L158.769 9.65209L159.569 13.1521C159.669 13.7521 160.069 14.0521 160.669 13.9521C163.769 13.2521 164.969 18.3521 161.469 19.1521C158.769 19.7521 157.969 17.2521 157.369 14.6521L156.469 10.9521C156.169 10.5521 155.969 10.4521 155.569 10.5521L151.969 11.2521C151.069 11.4521 151.669 13.0521 152.169 15.1521C152.369 15.7521 152.769 16.0521 153.569 15.8521C156.669 15.1521 158.169 20.1521 154.469 20.9521C152.069 21.4521 151.169 19.7521 150.569 17.3521C149.469 12.6521 148.769 12.0521 147.769 12.2521L145.069 12.8521C144.069 13.0521 144.269 14.1521 144.669 15.9521C144.869 17.0521 145.069 17.5521 145.669 17.4521C149.269 16.6521 150.269 21.6521 146.769 22.4521C144.569 22.9521 143.469 20.6521 143.569 18.7521C143.469 18.1521 143.869 17.9521 143.769 17.2521C143.269 14.8521 142.569 13.4521 141.269 13.7521L136.869 14.6521L137.669 18.1521C137.769 18.7521 138.169 19.0521 138.769 18.9521C141.869 18.2521 143.269 23.2521 138.969 24.2521C137.569 24.5521 135.969 23.8521 135.369 22.0521C134.769 19.5521 135.969 19.2521 135.769 17.4521C135.269 15.6521 134.369 15.4521 133.569 15.5521L129.969 16.2521C129.069 16.4521 129.669 18.0521 130.169 20.1521C130.369 20.7521 130.769 21.0521 131.569 20.8521C134.669 20.1521 136.169 25.1521 132.469 25.9521C130.069 26.4521 129.169 24.7521 128.569 22.3521C127.469 17.6521 126.769 17.0521 125.769 17.2521L123.069 17.8521C122.069 18.0521 122.269 19.1521 122.669 20.9521C122.869 22.0521 123.069 22.5521 123.669 22.4521C127.269 21.6521 128.269 26.6521 124.769 27.4521C122.569 27.9521 121.469 25.6521 121.569 23.7521C121.469 23.1521 121.869 22.9521 121.769 22.2521C121.269 19.8521 120.569 18.4521 119.269 18.7521L114.869 19.6521L115.669 23.1521C115.769 23.7521 116.169 24.0521 116.769 23.9521C119.869 23.2521 121.269 28.2521 116.969 29.2521C114.569 29.7521 113.869 27.0521 114.469 24.4521C114.569 23.2521 114.369 22.3521 113.869 21.6521C113.069 20.7521 112.469 20.3521 111.369 20.5521L107.769 21.2521C106.869 21.4521 107.469 23.0521 107.969 25.1521C108.169 25.7521 108.569 26.0521 109.369 25.8521C112.469 25.1521 113.969 30.1521 110.269 30.9521C107.869 31.4521 106.969 29.7521 106.369 27.3521C105.269 22.6521 104.569 22.0521 103.569 22.2521L100.869 22.8521C99.8689 23.0521 100.069 24.1521 100.469 25.9521C100.669 27.0521 100.869 27.5521 101.469 27.4521C105.069 26.6521 106.069 31.6521 102.569 32.4521C100.369 32.9521 99.2689 30.6521 99.3689 28.7521C99.2689 28.1521 99.6689 27.9521 99.5689 27.2521C99.0689 24.8521 98.3689 23.4521 97.0689 23.7521L92.6689 24.6521L93.4689 28.1521C93.5689 28.7521 93.9689 29.0521 94.5689 28.9521C97.6689 28.2521 99.0689 33.2521 94.7689 34.2521C93.3689 34.5521 91.7689 33.8521 91.1689 32.0521C90.5689 29.5521 91.7689 29.2521 91.5689 27.4521C91.0689 25.6521 90.1689 25.4521 89.3689 25.5521L85.7689 26.2521C84.8689 26.4521 85.4689 28.0521 85.9689 30.1521C86.1689 30.7521 86.5689 31.0521 87.3689 30.8521C90.4689 30.1521 91.9689 35.1521 88.2689 35.9521C85.8689 36.4521 84.9689 34.7521 84.3689 32.3521C83.2689 27.6521 82.5689 27.0521 81.5689 27.2521L78.8689 27.8521C77.8689 28.0521 78.0689 29.1521 78.4689 30.9521C78.6689 32.0521 78.8689 32.5521 79.4689 32.4521C83.0689 31.6521 84.0689 36.6521 80.5689 37.4521C78.3689 37.9521 77.2689 35.6521 77.3689 33.7521C77.2689 33.1521 77.6689 32.9521 77.5689 32.2521C77.0689 29.8521 76.3689 28.4521 75.0689 28.7521L70.6689 29.6521L71.4689 33.1521C71.5689 33.7521 71.9689 34.0521 72.5689 33.9521C75.6689 33.2521 77.0689 38.2521 72.7689 39.2521C72.0689 39.4521 71.2689 40.0521 71.2689 40.6521C71.2689 40.9521 71.2689 41.2521 71.1689 41.6521L109.569 210.652L241.669 180.652L203.269 11.6521C202.669 8.45209 201.869 4.95209 201.069 1.55209Z" fill="#F3F4F4"/>
<path d="M110.966 82.8538L102.97 84.6693L103.169 85.5469L111.166 83.7314L110.966 82.8538Z" fill="#AFAFAF"/>
<path d="M123.28 80.1318L115.088 81.9915L115.288 82.8692L123.479 81.0094L123.28 80.1318Z" fill="#AFAFAF"/>
<path d="M135.585 77.3505L127.588 79.166L127.788 80.0436L135.784 78.2281L135.585 77.3505Z" fill="#AFAFAF"/>
<path d="M147.883 74.5506L139.887 76.3661L140.086 77.2438L148.083 75.4283L147.883 74.5506Z" fill="#AFAFAF"/>
<path d="M160.188 71.7696L152.386 73.5408L152.585 74.4185L160.387 72.6473L160.188 71.7696Z" fill="#AFAFAF"/>
<path d="M148.221 83.4535L112.042 91.6675L112.241 92.5452L148.421 84.3312L148.221 83.4535Z" fill="#AFAFAF"/>
<path d="M191.924 73.5458L155.744 81.7598L155.943 82.6375L192.123 74.4235L191.924 73.5458Z" fill="#AFAFAF"/>
<path d="M122.863 98.0523L106.772 101.704L106.972 102.581L123.062 98.93L122.863 98.0523Z" fill="#AFAFAF"/>
<path d="M141.162 93.8089L124.779 97.5284L124.978 98.4061L141.361 94.6866L141.162 93.8089Z" fill="#AFAFAF"/>
<path d="M170.073 87.3023L153.69 91.0219L153.889 91.8995L170.273 88.18L170.073 87.3023Z" fill="#AFAFAF"/>
<path d="M188.368 83.1158L172.277 86.7689L172.476 87.6465L188.567 83.9934L188.368 83.1158Z" fill="#AFAFAF"/>
<path d="M136 103.998L130.148 105.326L130.348 106.204L136.199 104.875L136 103.998Z" fill="#AFAFAF"/>
<path d="M145.71 101.86L139.664 103.232L139.863 104.11L145.909 102.737L145.71 101.86Z" fill="#AFAFAF"/>
<path d="M155.314 99.6851L149.462 101.014L149.662 101.891L155.513 100.563L155.314 99.6851Z" fill="#AFAFAF"/>
<path d="M165.097 97.3872L159.246 98.7156L159.445 99.5933L165.297 98.2649L165.097 97.3872Z" fill="#AFAFAF"/>
<path d="M175.105 95.1622L169.059 96.5349L169.258 97.4126L175.304 96.0399L175.105 95.1622Z" fill="#AFAFAF"/>
<path d="M184.904 92.9425L178.663 94.3595L178.862 95.2372L185.103 93.8202L184.904 92.9425Z" fill="#AFAFAF"/>
<path d="M194.306 90.7935L188.455 92.1219L188.654 92.9996L194.506 91.6712L194.306 90.7935Z" fill="#AFAFAF"/>
<path d="M204.112 88.5931L198.261 89.9215L198.46 90.7992L204.311 89.4708L204.112 88.5931Z" fill="#AFAFAF"/>
<path d="M138.231 112.336L110.633 118.602L110.833 119.48L138.431 113.214L138.231 112.336Z" fill="#AFAFAF"/>
<path d="M168.23 105.524L140.632 111.79L140.831 112.667L168.429 106.402L168.23 105.524Z" fill="#AFAFAF"/>
<path d="M198.421 98.6274L170.92 104.871L171.12 105.749L198.62 99.505L198.421 98.6274Z" fill="#AFAFAF"/>
<path d="M122.651 124.304L112.509 126.606L112.709 127.484L122.851 125.182L122.651 124.304Z" fill="#AFAFAF"/>
<path d="M136.542 121.106L126.4 123.408L126.599 124.286L136.741 121.983L136.542 121.106Z" fill="#AFAFAF"/>
<path d="M150.842 117.876L140.505 120.223L140.705 121.1L151.042 118.754L150.842 117.876Z" fill="#AFAFAF"/>
<path d="M164.755 114.775L154.418 117.122L154.617 118L164.954 115.653L164.755 114.775Z" fill="#AFAFAF"/>
<path d="M185.741 109.924L175.794 112.182L175.993 113.06L185.94 110.802L185.741 109.924Z" fill="#AFAFAF"/>
<path d="M199.862 106.817L189.915 109.075L190.114 109.953L200.061 107.695L199.862 106.817Z" fill="#AFAFAF"/>
<path d="M133.429 130.998L114.51 135.293L114.71 136.171L133.628 131.875L133.429 130.998Z" fill="#AFAFAF"/>
<path d="M170.131 122.682L151.017 127.021L151.216 127.899L170.33 123.559L170.131 122.682Z" fill="#AFAFAF"/>
<path d="M206.64 114.448L187.233 118.854L187.433 119.732L206.839 115.326L206.64 114.448Z" fill="#AFAFAF"/>
<path d="M168.989 131.581L138.465 138.51L138.665 139.388L169.188 132.458L168.989 131.581Z" fill="#AFAFAF"/>
<path d="M205.779 123.183L175.158 130.135L175.357 131.013L205.979 124.061L205.779 123.183Z" fill="#AFAFAF"/>
<path d="M192.741 135.339L135.205 148.402L135.404 149.28L192.941 136.217L192.741 135.339Z" fill="#AFAFAF"/>
<path d="M155.613 152.762L141.667 155.928L141.822 156.611L155.768 153.445L155.613 152.762Z" fill="#AFAFAF"/>
<path d="M172.523 148.968L158.578 152.134L158.733 152.817L172.678 149.651L172.523 148.968Z" fill="#AFAFAF"/>
<path d="M189.531 145.152L175.586 148.318L175.741 149.001L189.686 145.835L189.531 145.152Z" fill="#AFAFAF"/>
<path d="M206.42 141.26L192.475 144.427L192.63 145.109L206.575 141.943L206.42 141.26Z" fill="#AFAFAF"/>
<path d="M172.589 157.8L125.389 168.516L125.588 169.394L172.788 158.678L172.589 157.8Z" fill="#AFAFAF"/>
<path d="M200.251 151.459L174.798 157.238L174.998 158.115L200.45 152.337L200.251 151.459Z" fill="#AFAFAF"/>
<path d="M152.851 171.198L133.932 175.494L134.087 176.176L153.006 171.881L152.851 171.198Z" fill="#AFAFAF"/>
<path d="M163.302 168.868L155.5 170.64L155.655 171.322L163.457 169.551L163.302 168.868Z" fill="#AFAFAF"/>
<path d="M172.103 166.874L164.399 168.623L164.554 169.306L172.258 167.557L172.103 166.874Z" fill="#AFAFAF"/>
<path d="M180.814 164.92L173.5 166.581L173.654 167.264L180.968 165.603L180.814 164.92Z" fill="#AFAFAF"/>
<path d="M189.81 162.88L182.008 164.651L182.163 165.334L189.965 163.563L189.81 162.88Z" fill="#AFAFAF"/>
<path d="M198.708 160.863L191.004 162.613L191.159 163.295L198.863 161.546L198.708 160.863Z" fill="#AFAFAF"/>
<path d="M207.507 158.829L200.193 160.49L200.348 161.173L207.662 159.512L207.507 158.829Z" fill="#AFAFAF"/>
<path d="M216.601 156.767L208.8 158.538L208.955 159.221L216.756 157.45L216.601 156.767Z" fill="#AFAFAF"/>
<path d="M172.571 175.417L155.602 179.269L155.801 180.147L172.77 176.295L172.571 175.417Z" fill="#AFAFAF"/>
<path d="M192.666 170.826L175.697 174.679L175.897 175.556L192.865 171.704L192.666 170.826Z" fill="#AFAFAF"/>
<path d="M212.464 166.323L195.495 170.175L195.694 171.053L212.663 167.201L212.464 166.323Z" fill="#AFAFAF"/>
<path d="M177.576 182.891L145.296 190.22L145.496 191.097L177.775 183.769L177.576 182.891Z" fill="#AFAFAF"/>
<path d="M220.821 173.012L208.923 175.713L209.123 176.591L221.02 173.89L220.821 173.012Z" fill="#AFAFAF"/>
<path fill-rule="evenodd" clip-rule="evenodd" d="M69.3687 53.8521C68.8687 53.8521 68.9687 54.5521 69.3687 54.5521L88.6687 54.0521C93.3687 53.8521 92.7687 47.5521 88.3687 47.7521L65.0687 48.3521C60.5687 48.5521 59.9687 55.9521 65.3687 55.7521L71.0687 55.5521L70.9687 54.8521L65.6687 55.0521C60.9687 55.2521 61.2687 49.1521 65.4687 49.0521L87.7687 48.4521C92.0687 48.2521 92.5687 53.2521 87.9687 53.4521L69.3687 53.8521Z" fill="#596273"/>
<path fill-rule="evenodd" clip-rule="evenodd" d="M327.769 111.852C328.069 110.852 327.569 110.252 326.769 109.952L322.869 108.652C321.869 108.352 321.569 110.252 320.869 112.452C320.669 113.152 320.969 113.652 321.769 113.952C325.069 114.952 323.869 120.652 319.769 119.352C317.169 118.552 317.169 116.352 318.069 113.652C319.669 108.552 319.269 107.552 318.169 107.152L315.169 106.252C314.169 105.952 313.669 107.052 313.069 109.052C312.669 110.252 312.569 110.852 313.169 111.052C317.169 112.252 315.269 117.652 311.469 116.452C309.069 115.752 309.269 112.852 310.369 111.052C310.569 110.452 311.169 110.452 311.369 109.652C312.169 107.052 312.269 105.252 310.969 104.852L306.269 103.252L305.069 107.152C304.769 107.852 304.969 108.252 305.669 108.552C308.969 109.552 307.669 115.252 302.869 113.752C301.369 113.252 300.169 111.752 300.669 109.552C301.469 106.752 302.869 107.152 303.669 105.352C304.269 103.352 303.469 102.652 302.569 102.352L298.669 101.052C297.669 100.752 297.369 102.652 296.669 104.852C296.469 105.552 296.769 106.052 297.569 106.352C300.869 107.352 299.669 113.052 295.569 111.752C292.969 110.952 292.969 108.752 293.869 106.052C295.469 100.952 295.069 99.9521 293.969 99.5521L290.969 98.6521C289.969 98.3521 289.469 99.4521 288.869 101.452C288.469 102.652 288.369 103.252 288.969 103.452C292.969 104.652 291.069 110.052 287.269 108.852C284.869 108.152 285.069 105.252 286.169 103.452C286.369 102.852 286.969 102.852 287.169 102.052C287.969 99.4521 288.069 97.6521 286.769 97.2521L282.069 95.6521L280.869 99.5521C280.569 100.252 280.769 100.652 281.469 100.952C284.769 101.952 283.269 107.552 279.369 106.452C276.469 105.552 277.069 102.652 277.969 99.8521L279.269 95.7521C279.269 95.2521 278.969 94.9521 278.669 94.8521L274.769 93.5521C273.769 93.2521 273.469 95.1521 272.769 97.3521C272.569 98.0521 272.869 98.5521 273.669 98.8521C276.969 99.8521 275.769 105.552 271.669 104.252C269.069 103.452 269.069 101.252 269.969 98.5521C271.569 93.4521 271.169 92.4521 270.069 92.0521L267.169 91.1521C266.169 90.8521 265.669 91.9521 265.069 93.9521C264.669 95.1521 264.569 95.7521 265.169 95.9521C269.169 97.1521 267.269 102.552 263.469 101.352C261.069 100.652 261.269 97.7521 262.369 95.9521C262.569 95.3521 263.169 95.3521 263.369 94.5521C264.169 91.9521 264.269 90.1521 262.969 89.7521L258.269 88.1521L257.069 92.0521C256.769 92.7521 256.969 93.1521 257.669 93.4521C260.969 94.4521 259.669 100.152 254.869 98.6521C253.369 98.1521 252.169 96.6521 252.669 94.4521C253.469 91.6521 254.869 92.0521 255.669 90.2521C256.269 88.2521 255.469 87.5521 254.569 87.2521L250.669 85.9521C249.669 85.6521 249.369 87.5521 248.669 89.7521C248.469 90.4521 248.769 90.9521 249.569 91.2521C252.869 92.2521 251.669 97.9521 247.569 96.6521C244.969 95.8521 244.969 93.6521 245.869 90.9521C247.469 85.8521 247.069 84.8521 245.969 84.4521L243.069 83.5521C242.069 83.2521 241.569 84.3521 240.969 86.3521C240.569 87.5521 240.469 88.1521 241.069 88.3521C245.069 89.5521 243.169 94.9521 239.369 93.7521C236.969 93.0521 237.169 90.1521 238.269 88.3521C238.469 87.7521 239.069 87.7521 239.269 86.9521C240.069 84.3521 240.169 82.5521 238.869 82.1521L234.169 80.5521L232.969 84.4521C232.669 85.1521 232.869 85.5521 233.569 85.8521C236.869 86.8521 235.569 92.5521 230.769 91.0521C228.169 90.2521 228.969 87.2521 230.969 85.0521C231.769 83.9521 232.069 82.9521 231.969 82.0521C231.769 80.7521 231.369 80.0521 230.169 79.5521L226.269 78.2521C225.269 77.9521 224.969 79.8521 224.269 82.0521C224.069 82.7521 224.369 83.2521 225.169 83.5521C228.469 84.5521 227.269 90.2521 223.169 88.9521C220.569 88.1521 220.569 85.9521 221.469 83.2521C223.069 78.1521 222.669 77.1521 221.569 76.7521L218.669 75.8521C217.669 75.5521 217.169 76.6521 216.569 78.6521C216.169 79.8521 216.069 80.4521 216.669 80.6521C220.669 81.8521 218.769 87.2521 214.969 86.0521C212.569 85.3521 212.769 82.4521 213.869 80.6521C214.069 80.0521 214.669 80.0521 214.869 79.2521C215.669 76.6521 215.769 74.8521 214.469 74.4521L209.769 72.8521L208.569 76.7521C208.269 77.4521 208.469 77.8521 209.169 78.1521C212.469 79.1521 211.169 84.8521 206.369 83.3521C204.869 82.8521 203.669 81.3521 204.169 79.1521C204.969 76.3521 206.369 76.7521 207.169 74.9521C207.769 72.9521 206.969 72.2521 206.069 71.9521L202.169 70.6521C201.169 70.3521 200.869 72.2521 200.169 74.4521C199.969 75.1521 200.269 75.6521 201.069 75.9521C204.369 76.9521 203.169 82.6521 199.069 81.3521C196.469 80.5521 196.469 78.3521 197.369 75.6521C198.969 70.5521 198.569 69.5521 197.469 69.1521L194.569 68.2521C193.569 67.9521 193.069 69.0521 192.469 71.0521C192.069 72.2521 191.969 72.8521 192.569 73.0521C196.569 74.2521 194.669 79.6521 190.869 78.4521C188.469 77.7521 188.669 74.8521 189.769 73.0521C189.969 72.4521 190.569 72.4521 190.769 71.6521C191.569 69.0521 191.669 67.2521 190.369 66.8521L185.669 65.2521L184.469 69.1521C184.169 69.8521 184.369 70.2521 185.069 70.5521C188.369 71.5521 187.069 77.2521 182.269 75.7521C181.469 75.5521 180.369 75.6521 180.069 76.2521C179.869 76.5521 179.769 76.8521 179.469 77.1521L122.269 262.052L266.769 306.752L324.169 123.252C325.469 119.352 326.669 115.552 327.769 111.852Z" fill="white"/>
<path d="M186.377 137.621L186.11 138.481L194.994 141.232L195.26 140.372L186.377 137.621Z" fill="#AFAFAF"/>
<path d="M199.737 141.717L199.471 142.577L208.354 145.327L208.62 144.468L199.737 141.717Z" fill="#AFAFAF"/>
<path d="M213.387 145.924L213.121 146.784L222.004 149.535L222.271 148.675L213.387 145.924Z" fill="#AFAFAF"/>
<path d="M226.863 150.171L226.597 151.03L235.48 153.781L235.746 152.922L226.863 150.171Z" fill="#AFAFAF"/>
<path d="M240.295 154.294L240.029 155.154L248.626 157.816L248.892 156.956L240.295 154.294Z" fill="#AFAFAF"/>
<path d="M191.352 149.294L191.085 150.154L230.631 162.4L230.897 161.54L191.352 149.294Z" fill="#AFAFAF"/>
<path d="M239.136 164.068L238.87 164.928L278.415 177.174L278.681 176.315L239.136 164.068Z" fill="#AFAFAF"/>
<path d="M180.681 156.138L180.415 156.997L198.086 162.47L198.352 161.61L180.681 156.138Z" fill="#AFAFAF"/>
<path d="M200.516 162.269L200.25 163.129L218.112 168.66L218.378 167.801L200.516 162.269Z" fill="#AFAFAF"/>
<path d="M232.019 171.995L231.753 172.855L249.615 178.386L249.881 177.526L232.019 171.995Z" fill="#AFAFAF"/>
<path d="M252.285 178.271L252.019 179.131L269.69 184.603L269.956 183.744L252.285 178.271Z" fill="#AFAFAF"/>
<path d="M201.185 172.646L200.918 173.506L207.223 175.458L207.489 174.599L201.185 172.646Z" fill="#AFAFAF"/>
<path d="M211.718 175.94L211.452 176.8L217.947 178.811L218.213 177.952L211.718 175.94Z" fill="#AFAFAF"/>
<path d="M222.206 179.107L221.939 179.966L228.435 181.978L228.701 181.118L222.206 179.107Z" fill="#AFAFAF"/>
<path d="M233.001 182.486L232.735 183.345L239.23 185.357L239.496 184.497L233.001 182.486Z" fill="#AFAFAF"/>
<path d="M243.679 185.835L243.413 186.695L250.195 188.795L250.461 187.936L243.679 185.835Z" fill="#AFAFAF"/>
<path d="M254.432 189.091L254.166 189.95L260.661 191.962L260.927 191.102L254.432 189.091Z" fill="#AFAFAF"/>
<path d="M265.155 192.442L264.889 193.302L271.193 195.254L271.46 194.395L265.155 192.442Z" fill="#AFAFAF"/>
<path d="M275.687 195.734L275.421 196.593L281.916 198.605L282.182 197.745L275.687 195.734Z" fill="#AFAFAF"/>
<path d="M174.984 174.647L174.717 175.506L204.997 184.883L205.263 184.024L174.984 174.647Z" fill="#AFAFAF"/>
<path d="M207.763 184.828L207.497 185.688L237.585 195.005L237.852 194.146L207.763 184.828Z" fill="#AFAFAF"/>
<path d="M240.855 195.122L240.588 195.982L270.677 205.3L270.943 204.44L240.855 195.122Z" fill="#AFAFAF"/>
<path d="M172.309 183.305L171.983 184.355L183.159 187.816L183.485 186.766L172.309 183.305Z" fill="#AFAFAF"/>
<path d="M187.429 188.049L187.104 189.1L198.471 192.62L198.796 191.57L187.429 188.049Z" fill="#AFAFAF"/>
<path d="M203.011 192.843L202.686 193.894L213.861 197.354L214.187 196.304L203.011 192.843Z" fill="#AFAFAF"/>
<path d="M218.184 197.494L217.859 198.545L229.035 202.006L229.36 200.955L218.184 197.494Z" fill="#AFAFAF"/>
<path d="M241.516 204.779L241.19 205.83L252.175 209.231L252.501 208.181L241.516 204.779Z" fill="#AFAFAF"/>
<path d="M256.835 209.487L256.51 210.538L267.495 213.94L267.82 212.889L256.835 209.487Z" fill="#AFAFAF"/>
<path d="M169.336 192.951L169.07 193.811L189.702 200.2L189.968 199.34L169.336 192.951Z" fill="#AFAFAF"/>
<path d="M209.318 205.327L209.052 206.187L229.875 212.636L230.141 211.776L209.318 205.327Z" fill="#AFAFAF"/>
<path d="M248.861 217.657L248.595 218.516L269.896 225.113L270.162 224.253L248.861 217.657Z" fill="#AFAFAF"/>
<path d="M190.701 209.316L190.376 210.367L223.617 220.661L223.942 219.61L190.701 209.316Z" fill="#AFAFAF"/>
<path d="M230.924 221.778L230.599 222.829L264.031 233.182L264.356 232.131L230.924 221.778Z" fill="#AFAFAF"/>
<path d="M182.047 217.224L181.781 218.084L244.729 237.577L244.995 236.718L182.047 217.224Z" fill="#AFAFAF"/>
<path d="M184.054 227.977L183.788 228.837L198.976 233.54L199.242 232.681L184.054 227.977Z" fill="#AFAFAF"/>
<path d="M202.534 233.723L202.268 234.583L217.455 239.286L217.721 238.426L202.534 233.723Z" fill="#AFAFAF"/>
<path d="M221.109 239.498L220.843 240.357L236.03 245.06L236.297 244.201L221.109 239.498Z" fill="#AFAFAF"/>
<path d="M239.618 245.147L239.352 246.007L254.539 250.71L254.805 249.851L239.618 245.147Z" fill="#AFAFAF"/>
<path d="M161.375 231.158L161.109 232.018L212.69 247.991L212.956 247.132L161.375 231.158Z" fill="#AFAFAF"/>
<path d="M215.278 247.846L215.012 248.705L242.999 257.372L243.265 256.512L215.278 247.846Z" fill="#AFAFAF"/>
<path d="M165.706 242.562L165.44 243.422L186.072 249.811L186.338 248.952L165.706 242.562Z" fill="#AFAFAF"/>
<path d="M189.257 249.927L188.991 250.787L197.396 253.39L197.663 252.53L189.257 249.927Z" fill="#AFAFAF"/>
<path d="M198.922 252.907L198.656 253.766L207.253 256.429L207.519 255.569L198.922 252.907Z" fill="#AFAFAF"/>
<path d="M208.802 255.949L208.536 256.808L216.75 259.352L217.017 258.493L208.802 255.949Z" fill="#AFAFAF"/>
<path d="M218.466 258.926L218.2 259.786L226.605 262.389L226.872 261.529L218.466 258.926Z" fill="#AFAFAF"/>
<path d="M228.177 261.909L227.911 262.769L236.125 265.313L236.392 264.453L228.177 261.909Z" fill="#AFAFAF"/>
<path d="M238.107 264.978L237.84 265.838L246.055 268.382L246.321 267.522L238.107 264.978Z" fill="#AFAFAF"/>
<path d="M247.741 268.051L247.475 268.911L255.881 271.514L256.147 270.654L247.741 268.051Z" fill="#AFAFAF"/>
<path d="M184.535 258.335L184.269 259.195L202.8 264.934L203.066 264.074L184.535 258.335Z" fill="#AFAFAF"/>
<path d="M206.687 265.195L206.421 266.055L224.952 271.793L225.218 270.933L206.687 265.195Z" fill="#AFAFAF"/>
<path d="M228.094 271.797L227.828 272.656L246.55 278.454L246.816 277.594L228.094 271.797Z" fill="#AFAFAF"/>
<path d="M168.517 263.351L168.25 264.211L203.593 275.156L203.859 274.296L168.517 263.351Z" fill="#AFAFAF"/>
<path d="M237.936 284.851L237.67 285.71L250.756 289.763L251.022 288.903L237.936 284.851Z" fill="#AFAFAF"/>
<path d="M341.46 126.087L357.272 110.858C358.364 109.805 360.152 109.204 365.262 114.509L374.773 124.383C379.677 129.474 379.328 131.485 378.193 132.578L362.382 147.808L341.46 126.087Z" fill="url(#paint0_linear_2985_667)"/>
<path d="M211.211 251.542L205.414 276.978L232.062 273.19L234.318 271.194L228.632 265.201L218.836 255.579L213.195 249.631L211.211 251.542Z" fill="url(#paint1_linear_2985_667)"/>
<path d="M205.407 276.969L216.881 257.429L218.826 255.556L213.208 249.621L211.212 251.543L205.407 276.969Z" fill="#FFDED1"/>
<path d="M205.407 276.969L216.882 257.43L218.826 255.556L228.608 265.17L226.392 267.304L205.407 276.969Z" fill="url(#paint2_linear_2985_667)"/>
<path d="M234.305 271.185L228.614 265.177L226.399 267.311L205.414 276.977L232.069 273.197L234.305 271.185Z" fill="url(#paint3_linear_2985_667)"/>
<path d="M206.772 271.081L205.414 276.977L211.554 276.092C210.854 275.162 210.063 274.225 209.201 273.33C208.413 272.512 207.595 271.765 206.772 271.081Z" fill="url(#paint4_linear_2985_667)"/>
<path d="M211.212 251.544C214.848 253.606 215.487 255.496 216.882 257.43L345.763 133.29L340.093 127.404L211.212 251.544Z" fill="#E8F34A"/>
<path d="M216.876 257.424C219.934 259.91 222.88 261.607 226.387 267.298L355.268 143.158L345.757 133.284L216.876 257.424Z" fill="#D6E040"/>
<path d="M226.398 267.31C228.884 269.008 230.92 270.905 232.068 273.196L360.949 149.056L355.279 143.17L226.398 267.31Z" fill="#BFCA24"/>
<path d="M339.57 127.908L341.459 126.088L362.38 147.807L360.419 149.554L339.57 127.908Z" fill="white"/>
<path d="M341.53 126.159L347.216 132.063L365.35 114.596C360.241 109.291 358.43 109.881 357.337 110.933L341.53 126.159Z" fill="#30373D"/>
<path d="M347.223 132.07L356.745 141.956L374.879 124.489L365.357 114.603L347.223 132.07Z" fill="#151C22"/>
<path d="M356.745 141.956L362.388 147.814L378.742 132.061C379.39 130.85 379 128.768 374.879 124.489L356.745 141.956Z" fill="#0B0F12"/>
<defs>
<linearGradient id="paint0_linear_2985_667" x1="346.464" y1="121.581" x2="367.201" y2="143.11" gradientUnits="userSpaceOnUse">
<stop/>
<stop offset="0.26714" stop-color="#49494A"/>
<stop offset="0.51222" stop-color="#AAA9AD"/>
<stop offset="0.73259" stop-color="#4B4A4C"/>
<stop offset="1"/>
</linearGradient>
<linearGradient id="paint1_linear_2985_667" x1="222.849" y1="273.376" x2="211.506" y2="259.019" gradientUnits="userSpaceOnUse">
<stop stop-color="#D69F8A"/>
<stop offset="1" stop-color="#FFDED1"/>
</linearGradient>
<linearGradient id="paint2_linear_2985_667" x1="217.804" y1="271.172" x2="210.987" y2="266.127" gradientUnits="userSpaceOnUse">
<stop stop-color="#FFC2AB"/>
<stop offset="0.17493" stop-color="#FFC2AB"/>
<stop offset="0.69432" stop-color="#FFC2AB"/>
<stop offset="1" stop-color="#FFDED1"/>
</linearGradient>
<linearGradient id="paint3_linear_2985_667" x1="218.101" y1="271.253" x2="219.713" y2="275.355" gradientUnits="userSpaceOnUse">
<stop stop-color="#FFC2AB"/>
<stop offset="0.27431" stop-color="#D69F8A"/>
<stop offset="1" stop-color="#D69F8A"/>
</linearGradient>
<linearGradient id="paint4_linear_2985_667" x1="209.545" y1="275.522" x2="207.695" y2="272.485" gradientUnits="userSpaceOnUse">
<stop/>
<stop offset="1" stop-color="#808080"/>
</linearGradient>
</defs>
</svg>
