<svg width="362" height="273" viewBox="0 0 362 273" fill="none" xmlns="http://www.w3.org/2000/svg">
<path d="M345.862 13.4707H4.38261C1.96216 13.4707 0 15.4329 0 17.8533V268.364C0 270.784 1.96216 272.746 4.38261 272.746H345.862C348.283 272.746 350.245 270.784 350.245 268.364V17.8533C350.245 15.4329 348.283 13.4707 345.862 13.4707Z" fill="#7AC4E0"/>
<path d="M15.4744 3.5H356.954C357.441 3.5 357.837 3.89518 357.837 4.38261V254.893C357.837 255.38 357.441 255.775 356.954 255.775H15.4744C14.9869 255.775 14.5918 255.38 14.5918 254.893V4.38261C14.5918 3.89516 14.987 3.5 15.4744 3.5Z" fill="white" stroke="#3757A7" stroke-width="7"/>
<path d="M360.351 0H12.0777C11.5332 0 11.0918 0.44141 11.0918 0.985917V57.3406C11.0918 57.8851 11.5332 58.3265 12.0777 58.3265H360.351C360.895 58.3265 361.337 57.8851 361.337 57.3406V0.985917C361.337 0.44141 360.895 0 360.351 0Z" fill="#3757A7"/>
<path d="M69.2059 127.152H35.5133C34.9688 127.152 34.5273 127.594 34.5273 128.138V146.546C34.5273 147.091 34.9688 147.532 35.5133 147.532H69.2059C69.7504 147.532 70.1918 147.091 70.1918 146.546V128.138C70.1918 127.594 69.7504 127.152 69.2059 127.152Z" fill="#0C2746"/>
<path d="M69.2059 155.227H35.5133C34.9688 155.227 34.5273 155.668 34.5273 156.212V174.62C34.5273 175.165 34.9688 175.606 35.5133 175.606H69.2059C69.7504 175.606 70.1918 175.165 70.1918 174.62V156.212C70.1918 155.668 69.7504 155.227 69.2059 155.227Z" fill="#0C2746"/>
<path d="M69.2059 183.449H35.5133C34.9688 183.449 34.5273 183.891 34.5273 184.435V202.843C34.5273 203.387 34.9688 203.829 35.5133 203.829H69.2059C69.7504 203.829 70.1918 203.387 70.1918 202.843V184.435C70.1918 183.891 69.7504 183.449 69.2059 183.449Z" fill="#0C2746"/>
<path d="M69.2059 212.236H35.5133C34.9688 212.236 34.5273 212.678 34.5273 213.222V231.63C34.5273 232.175 34.9688 232.616 35.5133 232.616H69.2059C69.7504 232.616 70.1918 232.175 70.1918 231.63V213.222C70.1918 212.678 69.7504 212.236 69.2059 212.236Z" fill="#0C2746"/>
<path d="M113.593 127.152H79.9C79.3555 127.152 78.9141 127.594 78.9141 128.138V146.546C78.9141 147.091 79.3555 147.532 79.9 147.532H113.593C114.137 147.532 114.579 147.091 114.579 146.546V128.138C114.579 127.594 114.137 127.152 113.593 127.152Z" fill="#0C2746"/>
<path d="M113.593 155.227H79.9C79.3555 155.227 78.9141 155.668 78.9141 156.212V174.62C78.9141 175.165 79.3555 175.606 79.9 175.606H113.593C114.137 175.606 114.579 175.165 114.579 174.62V156.212C114.579 155.668 114.137 155.227 113.593 155.227Z" fill="#0C2746"/>
<path d="M113.593 183.449H79.9C79.3555 183.449 78.9141 183.891 78.9141 184.435V202.843C78.9141 203.387 79.3555 203.829 79.9 203.829H113.593C114.137 203.829 114.579 203.387 114.579 202.843V184.435C114.579 183.891 114.137 183.449 113.593 183.449Z" fill="#0C2746"/>
<path d="M113.593 212.236H79.9C79.3555 212.236 78.9141 212.678 78.9141 213.222V231.63C78.9141 232.175 79.3555 232.616 79.9 232.616H113.593C114.137 232.616 114.579 232.175 114.579 231.63V213.222C114.579 212.678 114.137 212.236 113.593 212.236Z" fill="#0C2746"/>
<path d="M157.177 127.152H123.484C122.939 127.152 122.498 127.594 122.498 128.138V146.546C122.498 147.091 122.939 147.532 123.484 147.532H157.177C157.721 147.532 158.163 147.091 158.163 146.546V128.138C158.163 127.594 157.721 127.152 157.177 127.152Z" fill="#0C2746"/>
<path d="M157.177 155.227H123.484C122.939 155.227 122.498 155.668 122.498 156.212V174.62C122.498 175.165 122.939 175.606 123.484 175.606H157.177C157.721 175.606 158.163 175.165 158.163 174.62V156.212C158.163 155.668 157.721 155.227 157.177 155.227Z" fill="#0C2746"/>
<path d="M157.177 183.449H123.484C122.939 183.449 122.498 183.891 122.498 184.435V202.843C122.498 203.387 122.939 203.829 123.484 203.829H157.177C157.721 203.829 158.163 203.387 158.163 202.843V184.435C158.163 183.891 157.721 183.449 157.177 183.449Z" fill="#0C2746"/>
<path d="M157.177 212.236H123.484C122.939 212.236 122.498 212.678 122.498 213.222V231.63C122.498 232.175 122.939 232.616 123.484 232.616H157.177C157.721 232.616 158.163 232.175 158.163 231.63V213.222C158.163 212.678 157.721 212.236 157.177 212.236Z" fill="#0C2746"/>
<path d="M201.563 99.6387H167.871C167.326 99.6387 166.885 100.08 166.885 100.625V119.032C166.885 119.577 167.326 120.018 167.871 120.018H201.563C202.108 120.018 202.549 119.577 202.549 119.032V100.625C202.549 100.08 202.108 99.6387 201.563 99.6387Z" fill="#0C2746"/>
<path d="M201.563 127.152H167.871C167.326 127.152 166.885 127.594 166.885 128.138V146.546C166.885 147.091 167.326 147.532 167.871 147.532H201.563C202.108 147.532 202.549 147.091 202.549 146.546V128.138C202.549 127.594 202.108 127.152 201.563 127.152Z" fill="#0C2746"/>
<path d="M201.563 155.227H167.871C167.326 155.227 166.885 155.668 166.885 156.212V174.62C166.885 175.165 167.326 175.606 167.871 175.606H201.563C202.108 175.606 202.549 175.165 202.549 174.62V156.212C202.549 155.668 202.108 155.227 201.563 155.227Z" fill="#0C2746"/>
<path d="M201.563 183.449H167.871C167.326 183.449 166.885 183.891 166.885 184.435V202.843C166.885 203.387 167.326 203.829 167.871 203.829H201.563C202.108 203.829 202.549 203.387 202.549 202.843V184.435C202.549 183.891 202.108 183.449 201.563 183.449Z" fill="#0C2746"/>
<path d="M201.563 212.236H167.871C167.326 212.236 166.885 212.678 166.885 213.222V231.63C166.885 232.175 167.326 232.616 167.871 232.616H201.563C202.108 232.616 202.549 232.175 202.549 231.63V213.222C202.549 212.678 202.108 212.236 201.563 212.236Z" fill="#0C2746"/>
<path d="M245.944 99.6387H212.252C211.707 99.6387 211.266 100.08 211.266 100.625V119.032C211.266 119.577 211.707 120.018 212.252 120.018H245.944C246.489 120.018 246.93 119.577 246.93 119.032V100.625C246.93 100.08 246.489 99.6387 245.944 99.6387Z" fill="#0C2746"/>
<path d="M245.944 127.152H212.252C211.707 127.152 211.266 127.594 211.266 128.138V146.546C211.266 147.091 211.707 147.532 212.252 147.532H245.944C246.489 147.532 246.93 147.091 246.93 146.546V128.138C246.93 127.594 246.489 127.152 245.944 127.152Z" fill="#0C2746"/>
<path d="M245.944 155.227H212.252C211.707 155.227 211.266 155.668 211.266 156.212V174.62C211.266 175.165 211.707 175.606 212.252 175.606H245.944C246.489 175.606 246.93 175.165 246.93 174.62V156.212C246.93 155.668 246.489 155.227 245.944 155.227Z" fill="#0C2746"/>
<path d="M245.944 183.449H212.252C211.707 183.449 211.266 183.891 211.266 184.435V202.843C211.266 203.387 211.707 203.829 212.252 203.829H245.944C246.489 203.829 246.93 203.387 246.93 202.843V184.435C246.93 183.891 246.489 183.449 245.944 183.449Z" fill="#0C2746"/>
<path d="M245.944 212.236H212.252C211.707 212.236 211.266 212.678 211.266 213.222V231.63C211.266 232.175 211.707 232.616 212.252 232.616H245.944C246.489 232.616 246.93 232.175 246.93 231.63V213.222C246.93 212.678 246.489 212.236 245.944 212.236Z" fill="#0C2746"/>
<path d="M290.013 99.6387H256.32C255.775 99.6387 255.334 100.08 255.334 100.625V119.032C255.334 119.577 255.775 120.018 256.32 120.018H290.013C290.557 120.018 290.998 119.577 290.998 119.032V100.625C290.998 100.08 290.557 99.6387 290.013 99.6387Z" fill="#0C2746"/>
<path d="M290.013 127.152H256.32C255.775 127.152 255.334 127.594 255.334 128.138V146.546C255.334 147.091 255.775 147.532 256.32 147.532H290.013C290.557 147.532 290.998 147.091 290.998 146.546V128.138C290.998 127.594 290.557 127.152 290.013 127.152Z" fill="#0C2746"/>
<path d="M290.013 155.227H256.32C255.775 155.227 255.334 155.668 255.334 156.212V174.62C255.334 175.165 255.775 175.606 256.32 175.606H290.013C290.557 175.606 290.998 175.165 290.998 174.62V156.212C290.998 155.668 290.557 155.227 290.013 155.227Z" fill="#0C2746"/>
<path d="M290.013 183.449H256.32C255.775 183.449 255.334 183.891 255.334 184.435V202.843C255.334 203.387 255.775 203.829 256.32 203.829H290.013C290.557 203.829 290.998 203.387 290.998 202.843V184.435C290.998 183.891 290.557 183.449 290.013 183.449Z" fill="#0C2746"/>
<path d="M335.204 99.6387H301.511C300.967 99.6387 300.525 100.08 300.525 100.625V119.032C300.525 119.577 300.967 120.018 301.511 120.018H335.204C335.748 120.018 336.19 119.577 336.19 119.032V100.625C336.19 100.08 335.748 99.6387 335.204 99.6387Z" fill="#D6E040"/>
<path d="M335.204 127.152H301.511C300.967 127.152 300.525 127.594 300.525 128.138V146.546C300.525 147.091 300.967 147.532 301.511 147.532H335.204C335.748 147.532 336.19 147.091 336.19 146.546V128.138C336.19 127.594 335.748 127.152 335.204 127.152Z" fill="#D6E040"/>
<path d="M335.204 155.227H301.511C300.967 155.227 300.525 155.668 300.525 156.212V174.62C300.525 175.165 300.967 175.606 301.511 175.606H335.204C335.748 175.606 336.19 175.165 336.19 174.62V156.212C336.19 155.668 335.748 155.227 335.204 155.227Z" fill="#D6E040"/>
<path d="M335.204 183.449H301.511C300.967 183.449 300.525 183.891 300.525 184.435V202.843C300.525 203.387 300.967 203.829 301.511 203.829H335.204C335.748 203.829 336.19 203.387 336.19 202.843V184.435C336.19 183.891 335.748 183.449 335.204 183.449Z" fill="#D6E040"/>
<path d="M69.781 69.9004H34.9381C34.7113 69.9004 34.5273 70.0843 34.5273 70.3112V77.9811C34.5273 78.208 34.7113 78.3919 34.9381 78.3919H69.781C70.0079 78.3919 70.1918 78.208 70.1918 77.9811V70.3112C70.1918 70.0843 70.0079 69.9004 69.781 69.9004Z" fill="#0C2746"/>
<path d="M114.168 69.9004H79.3249C79.098 69.9004 78.9141 70.0843 78.9141 70.3112V77.9811C78.9141 78.208 79.098 78.3919 79.3249 78.3919H114.168C114.395 78.3919 114.579 78.208 114.579 77.9811V70.3112C114.579 70.0843 114.395 69.9004 114.168 69.9004Z" fill="#0C2746"/>
<path d="M157.752 69.9004H122.909C122.682 69.9004 122.498 70.0843 122.498 70.3112V77.9811C122.498 78.208 122.682 78.3919 122.909 78.3919H157.752C157.979 78.3919 158.163 78.208 158.163 77.9811V70.3112C158.163 70.0843 157.979 69.9004 157.752 69.9004Z" fill="#0C2746"/>
<path d="M202.138 69.9004H167.296C167.069 69.9004 166.885 70.0843 166.885 70.3112V77.9811C166.885 78.208 167.069 78.3919 167.296 78.3919H202.138C202.365 78.3919 202.549 78.208 202.549 77.9811V70.3112C202.549 70.0843 202.365 69.9004 202.138 69.9004Z" fill="#0C2746"/>
<path d="M246.519 69.9004H211.676C211.45 69.9004 211.266 70.0843 211.266 70.3112V77.9811C211.266 78.208 211.45 78.3919 211.676 78.3919H246.519C246.746 78.3919 246.93 78.208 246.93 77.9811V70.3112C246.93 70.0843 246.746 69.9004 246.519 69.9004Z" fill="#0C2746"/>
<path d="M290.588 69.9004H255.745C255.518 69.9004 255.334 70.0843 255.334 70.3112V77.9811C255.334 78.208 255.518 78.3919 255.745 78.3919H290.588C290.815 78.3919 290.998 78.208 290.998 77.9811V70.3112C290.998 70.0843 290.815 69.9004 290.588 69.9004Z" fill="#0C2746"/>
<path d="M335.779 69.9004H300.936C300.709 69.9004 300.525 70.0843 300.525 70.3112V77.9811C300.525 78.208 300.709 78.3919 300.936 78.3919H335.779C336.006 78.3919 336.19 78.208 336.19 77.9811V70.3112C336.19 70.0843 336.006 69.9004 335.779 69.9004Z" fill="#D6E040"/>
<path d="M190.616 16.248H36.2704C34.4653 16.248 33.002 17.7114 33.002 19.5165V23.7188C33.002 25.524 34.4653 26.9873 36.2704 26.9873H190.616C192.421 26.9873 193.885 25.524 193.885 23.7188V19.5165C193.885 17.7114 192.421 16.248 190.616 16.248Z" fill="white"/>
<path d="M143.281 32.9219H35.9707C34.3311 32.9219 33.002 34.251 33.002 35.8906V39.7077C33.002 41.3473 34.3311 42.6765 35.9707 42.6765H143.281C144.92 42.6765 146.249 41.3473 146.249 39.7077V35.8906C146.249 34.251 144.92 32.9219 143.281 32.9219Z" fill="white"/>
</svg>
