<?xml version="1.0" encoding="UTF-8"?>
<svg width="138px" height="80px" viewBox="0 0 138 80" version="1.1" xmlns="http://www.w3.org/2000/svg" xmlns:xlink="http://www.w3.org/1999/xlink">
    <!-- Generator: sketchtool 55.2 (78181) - https://sketchapp.com -->
    <title>7F9A3702-D2C1-49F0-916D-3D48C43BEFBE</title>
    <desc>Created with sketchtool.</desc>
    <g id="Design-Style-Guide" stroke="none" stroke-width="1" fill="none" fill-rule="evenodd">
        <g id="DS/Brand_SilverSingles" transform="translate(-340.000000, -244.000000)">
            <g id="A#-/-Logo-/-SilverSingles-/-SilverSingles_Logo_white-Copy" transform="translate(340.000000, 244.000000)">
                <g id="Logo-Silversingles_primary">
                    <path d="M20.0660013,18.8830222 C19.8603368,19.2012444 19.6493303,19.4305778 19.4338723,19.5701333 C19.2184142,19.7105778 18.9228271,19.7808 18.5488916,19.7808 C18.1740658,19.7808 17.7903368,19.6874667 17.3968142,19.5008 C17.0041819,19.3141333 16.5625819,19.1123556 16.0755755,18.8981333 C15.588569,18.6830222 15.0312271,18.4812444 14.4035497,18.2936889 C13.7758723,18.1070222 13.049369,18.0136889 12.2249303,18.0136889 C10.9695755,18.0136889 9.99556258,18.2714667 9.30200129,18.7852444 C8.60933032,19.2990222 8.26210452,19.9772444 8.26210452,20.8190222 C8.26210452,21.3994667 8.45975613,21.8848 8.85238839,22.2776889 C9.24680129,22.6714667 9.76585935,23.0128 10.4122335,23.3025778 C11.0586077,23.5932444 11.7940142,23.8643556 12.6193432,24.1159111 C13.4428916,24.3692444 14.291369,24.6439111 15.1621045,24.9434667 C16.0337303,25.2430222 16.8813174,25.5896889 17.7057561,25.9816889 C18.5293045,26.3745778 19.2664916,26.8661333 19.9119755,27.4554667 C20.5583497,28.0439111 21.0782981,28.7541333 21.4718206,29.5870222 C21.8653432,30.4199111 22.0612142,31.4252444 22.0612142,32.6039111 C22.0612142,34.0065778 21.803911,35.3025778 21.2893045,36.4892444 C20.7738077,37.6785778 20.0188142,38.7016889 19.0269948,39.5630222 C18.0333948,40.4225778 16.7958465,41.0972444 15.3161303,41.5825778 C13.8364142,42.0688 12.1314465,42.3114667 10.2021174,42.3114667 C9.20940774,42.3114667 8.22560129,42.2225778 7.25069806,42.0448 C6.27668516,41.8670222 5.34985935,41.6154667 4.46933032,41.2883556 C3.58791097,40.9603556 2.76347226,40.5816889 1.99512387,40.1523556 C1.22677548,39.7212444 0.562594839,39.2528 -8.90322581e-05,38.7479111 L1.79836258,35.8581333 C2.00491742,35.5221333 2.26222065,35.2599111 2.5720529,35.0732444 C2.88099484,34.8865778 3.27896903,34.7914667 3.76597548,34.7914667 C4.23428516,34.7914667 4.66609161,34.9088 5.05872387,35.1425778 C5.45224645,35.3772444 5.89295613,35.6296889 6.37996258,35.9016889 C6.86696903,36.1719111 7.44211742,36.4234667 8.10807871,36.6581333 C8.77225935,36.8919111 9.60204,37.0092444 10.5947497,37.0092444 C11.3444013,37.0092444 11.9916658,36.9248 12.5338723,36.7559111 C13.0778594,36.5879111 13.518569,36.3585778 13.855111,36.0679111 C14.1925432,35.7799111 14.4409432,35.4528 14.5994206,35.0865778 C14.7596787,34.7221333 14.8389174,34.3434667 14.8389174,33.9505778 C14.8389174,33.3150222 14.6377045,32.7950222 14.2352787,32.3941333 C13.8319626,31.9914667 13.3066723,31.6403556 12.6611884,31.3408 C12.0148142,31.0412444 11.2696142,30.7710222 10.427369,30.5274667 C9.58423355,30.2848 8.7268529,30.0136889 7.8552271,29.7132444 C6.98449161,29.4154667 6.13156258,29.0599111 5.29733032,28.6483556 C4.46398839,28.2359111 3.72413032,27.7176889 3.07775613,27.0901333 C2.43138194,26.4634667 1.90609161,25.6919111 1.50366581,24.7745778 C1.10034968,23.8599111 0.900027097,22.7461333 0.900027097,21.4368 C0.900027097,20.2394667 1.13329161,19.1034667 1.60249161,18.0270222 C2.06991097,16.9514667 2.77237548,16.0021333 3.70988516,15.1799111 C4.64650452,14.3568 5.8128271,13.7016889 7.20974323,13.2145778 C8.60398839,12.7292444 10.2199239,12.4856889 12.0566594,12.4856889 C14.1177561,12.4856889 15.9918852,12.8225778 17.6772658,13.4954667 C19.3635368,14.1701333 20.7506594,15.0483556 21.8368529,16.1336889 L20.0660013,18.8830222 Z" id="Fill-1" fill="#E03351"></path>
                    <path d="M28.0478323,41.8624 L35.8043226,41.8624 L35.8043226,12.9344 L28.0478323,12.9344 L28.0478323,41.8624 Z M36.7320387,4.71306667 C36.7320387,5.36906667 36.600271,5.97617778 36.3376258,6.53795556 C36.0749806,7.09884444 35.7250839,7.59395556 35.2843742,8.02417778 C34.8445548,8.4544 34.3281677,8.79217778 33.7387742,9.03484444 C33.1484903,9.27751111 32.5163613,9.39928889 31.8423871,9.39928889 C31.2049161,9.39928889 30.6003871,9.27751111 30.0288,9.03484444 C29.4581032,8.79217778 28.9559613,8.4544 28.5250452,8.02417778 C28.0950194,7.59395556 27.7531355,7.09884444 27.5002839,6.53795556 C27.2465419,5.97617778 27.1201161,5.36906667 27.1201161,4.71306667 C27.1201161,4.05795556 27.2465419,3.4464 27.5002839,2.87573333 C27.7531355,2.30417778 28.0950194,1.80551111 28.5250452,1.3744 C28.9559613,0.945066667 29.4581032,0.607288889 30.0288,0.364622222 C30.6003871,0.121066667 31.2049161,0.000177777778 31.8423871,0.000177777778 C32.5163613,0.000177777778 33.1484903,0.121066667 33.7387742,0.364622222 C34.3281677,0.607288889 34.8445548,0.945066667 35.2843742,1.3744 C35.7250839,1.80551111 36.0749806,2.30417778 36.3376258,2.87573333 C36.600271,3.4464 36.7320387,4.05795556 36.7320387,4.71306667 L36.7320387,4.71306667 Z" id="Fill-4" fill="#E03351"></path>
                    <polygon id="Fill-6" fill="#E03351" points="43.3916516 41.8624 51.1481419 41.8624 51.1481419 0.0277333333 43.3916516 0.0277333333"></polygon>
                    <path d="M85.1822361,12.9346667 L73.8003523,41.8626667 L66.7739265,41.8626667 L55.3929329,12.9346667 L61.8281845,12.9346667 C62.3899781,12.9346667 62.8582877,13.0644444 63.2331135,13.3266667 C63.6079394,13.5888889 63.8705845,13.9266667 64.0192684,14.3373333 L68.8822103,28.6484444 C69.2009458,29.62 69.4813974,30.5693333 69.7262361,31.4946667 C69.9684039,32.4217778 70.1838619,33.3524444 70.37172,34.2866667 C70.5782748,33.3524444 70.8070877,32.4217778 71.0599394,31.4946667 C71.312791,30.5693333 71.6083781,29.62 71.9458103,28.6484444 L76.9761329,14.3373333 C77.1070103,13.9266667 77.3598619,13.5888889 77.7355781,13.3266667 C78.1104039,13.0644444 78.5502232,12.9346667 79.0550361,12.9346667 L85.1822361,12.9346667 Z" id="Fill-7" fill="#E03351"></path>
                    <path d="M106.822061,23.9897778 C106.822061,23.1853333 106.713441,22.4182222 106.498874,21.6893333 C106.283415,20.9595556 105.940641,20.3133333 105.472332,19.7524444 C105.004912,19.1915556 104.413738,18.748 103.70148,18.4208889 C102.989222,18.0937778 102.137183,17.9293333 101.145364,17.9293333 C99.2899316,17.9293333 97.8378155,18.4528889 96.7881252,19.5008889 C95.7393252,20.5471111 95.0546671,22.0448889 94.7368219,23.9897778 L106.822061,23.9897778 Z M94.6255316,28.5915556 C94.8676994,31.3035556 95.6404994,33.2866667 96.9430413,34.54 C98.2455832,35.7933333 99.945209,36.4191111 102.04459,36.4191111 C103.112086,36.4191111 104.034461,36.2937778 104.812603,36.0404444 C105.589854,35.788 106.273622,35.5071111 106.863906,35.1986667 C107.45419,34.8911111 107.988383,34.6093333 108.465596,34.3577778 C108.94459,34.1044444 109.416461,33.9782222 109.88477,33.9782222 C110.483957,33.9782222 110.954048,34.204 111.29059,34.6528889 L113.538654,37.4573333 C112.713325,38.412 111.806086,39.2022222 110.812486,39.8288889 C109.818886,40.4555556 108.788783,40.9515556 107.721286,41.316 C106.65379,41.6804444 105.575609,41.9337778 104.489415,42.0733333 C103.402332,42.2137778 102.352641,42.2831111 101.342125,42.2831111 C99.3175316,42.2831111 97.4300477,41.9515556 95.6778929,41.2875556 C93.9266284,40.6244444 92.3997252,39.6422222 91.0980735,38.3417778 C89.7955316,37.0413333 88.76988,35.4288889 88.0202284,33.5017778 C87.2705768,31.5746667 86.895751,29.34 86.895751,26.7951111 C86.895751,24.8306667 87.2189381,22.98 87.8662026,21.2395556 C88.5125768,19.5008889 89.4438542,17.9853333 90.6618155,16.6937778 C91.8797768,15.404 93.3603832,14.38 95.1027445,13.6217778 C96.8451058,12.8653333 98.8127187,12.4857778 101.004693,12.4857778 C102.859235,12.4857778 104.568654,12.7808889 106.133841,13.3702222 C107.696357,13.9577778 109.046086,14.8146667 110.180357,15.9364444 C111.313738,17.06 112.194267,18.4386667 112.821945,20.0751111 C113.448732,21.7115556 113.763015,23.5782222 113.763015,25.6742222 C113.763015,26.2528889 113.735415,26.7302222 113.679325,27.1044444 C113.623235,27.4777778 113.528861,27.7773333 113.398874,28.0022222 C113.267106,28.2262222 113.089041,28.3808889 112.86379,28.4644444 C112.639428,28.5488889 112.348293,28.5915556 111.993054,28.5915556 L94.6255316,28.5915556 Z" id="Fill-8" fill="#E03351"></path>
                    <path d="M126.747391,17.7038222 C127.665314,16.0584889 128.723907,14.7580444 129.923172,13.8042667 C131.121546,12.8504889 132.526475,12.3731556 134.138849,12.3731556 C135.449404,12.3731556 136.517791,12.6816 137.34223,13.2984889 L136.836526,19.0238222 C136.743043,19.3980444 136.59703,19.6549333 136.401159,19.7953778 C136.204397,19.9358222 135.937301,20.0051556 135.599868,20.0051556 C135.29983,20.0051556 134.868914,19.9624889 134.30712,19.8798222 C133.744436,19.7953778 133.220926,19.7527111 132.73303,19.7527111 C132.020772,19.7527111 131.388643,19.8558222 130.836643,20.0620444 C130.283752,20.2673778 129.792294,20.5580444 129.361378,20.9313778 C128.928681,21.3064889 128.541391,21.7633778 128.194165,22.3056 C127.84783,22.8496 127.524643,23.4656 127.224604,24.1589333 L127.224604,41.8629333 L119.468114,41.8629333 L119.468114,12.9349333 L124.049714,12.9349333 C124.836759,12.9349333 125.378965,13.0753778 125.679004,13.3553778 C125.979043,13.6371556 126.194501,14.1224889 126.325378,14.8149333 L126.747391,17.7038222 Z" id="Fill-9" fill="#E03351"></path>
                    <path d="M10.7272297,60.5514667 C10.6666877,60.6519111 10.5999135,60.7283556 10.5286877,60.7790222 C10.4583523,60.8296889 10.371991,60.8545778 10.2704942,60.8545778 C10.1547523,60.8545778 10.0203135,60.7985778 9.8645071,60.6830222 C9.70870065,60.5683556 9.51550065,60.4412444 9.28134581,60.3025778 C9.04808129,60.1648 8.76762968,60.0376889 8.43999097,59.9230222 C8.11146194,59.8083556 7.71437806,59.7514667 7.24873935,59.7514667 C6.80892,59.7514667 6.42162968,59.8101333 6.08686839,59.9292444 C5.7521071,60.0465778 5.47165548,60.2065778 5.24462323,60.4092444 C5.01848129,60.6119111 4.84753935,60.8501333 4.73268774,61.1230222 C4.61783613,61.3976889 4.55996516,61.6919111 4.55996516,62.0092444 C4.55996516,62.4145778 4.66057161,62.7505778 4.86000387,63.0172444 C5.05854581,63.2839111 5.32208129,63.5114667 5.65061032,63.7008 C5.97913935,63.8892444 6.35040387,64.0528 6.76618452,64.1914667 C7.18285548,64.3301333 7.60842968,64.4741333 8.04379742,64.6216889 C8.48094581,64.7710222 8.90652,64.9372444 9.32230065,65.1230222 C9.73808129,65.3096889 10.1102361,65.5443556 10.4378748,65.8279111 C10.7655135,66.1105778 11.0299394,66.4590222 11.2284813,66.8696889 C11.4288039,67.2812444 11.5276297,67.7888 11.5276297,68.3888 C11.5276297,69.0243556 11.4199006,69.6190222 11.2035523,70.1772444 C10.9872039,70.7336889 10.6711394,71.2172444 10.2553587,71.6296889 C9.83957806,72.0412444 9.32942323,72.3656889 8.72400387,72.6021333 C8.11858452,72.8385778 7.43125548,72.9559111 6.66023613,72.9559111 C5.7129329,72.9559111 4.85466194,72.7852444 4.08364258,72.4448 C3.31262323,72.1034667 2.65378452,71.6430222 2.10534581,71.0616889 L2.67337161,70.1301333 C2.72768129,70.0563556 2.79356516,69.9941333 2.87191355,69.9434667 C2.94937161,69.8936889 3.03484258,69.8679111 3.1301071,69.8679111 C3.21735871,69.8679111 3.31796516,69.9025778 3.42925548,69.9745778 C3.54054581,70.0448 3.66786194,70.1345778 3.80942323,70.2412444 C3.95187484,70.3496889 4.11391355,70.4688 4.29642968,70.5968 C4.47894581,70.7248 4.68728129,70.8439111 4.92054581,70.9505778 C5.15381032,71.0590222 5.41912645,71.1488 5.71649419,71.2190222 C6.01386194,71.2901333 6.34862323,71.3256889 6.72077806,71.3256889 C7.1873071,71.3256889 7.60308774,71.2616889 7.96812,71.1336889 C8.33404258,71.0056889 8.64298452,70.8252444 8.89583613,70.5905778 C9.15046839,70.3585778 9.34366839,70.0794667 9.47988774,69.7559111 C9.61432645,69.4314667 9.68199097,69.0705778 9.68199097,68.6723556 C9.68199097,68.2341333 9.58227484,67.8741333 9.38284258,67.5941333 C9.18341032,67.3132444 8.92165548,67.0794667 8.59668774,66.8910222 C8.27261032,66.7016889 7.90045548,66.5416889 7.48111355,66.4092444 C7.06177161,66.2776889 6.6353071,66.1434667 6.20350065,66.0048 C5.77080387,65.8661333 5.34433935,65.7061333 4.92499742,65.5230222 C4.50565548,65.3416889 4.13439097,65.1052444 3.80942323,64.8136889 C3.48534581,64.5239111 3.22270065,64.1612444 3.02326839,63.7265778 C2.82383613,63.2901333 2.72412,62.7523556 2.72412,62.1105778 C2.72412,61.5976889 2.82383613,61.1016889 3.02326839,60.6225778 C3.22270065,60.1425778 3.51383613,59.7185778 3.89578452,59.3461333 C4.2777329,58.9754667 4.74782323,58.6785778 5.30605548,58.4554667 C5.86339742,58.2332444 6.50442968,58.1203556 7.22737161,58.1203556 C8.03845548,58.1203556 8.77831355,58.2501333 9.44427484,58.5061333 C10.1102361,58.7621333 10.6969587,59.1336889 11.2035523,59.6199111 L10.7272297,60.5514667 Z" id="Fill-10" fill="#1E4047"></path>
                    <polygon id="Fill-11" fill="#1E4047" points="15.9999871 72.7939556 17.9684903 72.7939556 17.9684903 58.2828444 15.9999871 58.2828444"></polygon>
                    <path d="M35.1607084,58.2827556 L35.1607084,72.7938667 L34.1769019,72.7938667 C34.0210955,72.7938667 33.8911084,72.7663111 33.7860503,72.7129778 C33.6809923,72.6596444 33.5786052,72.5680889 33.4762181,72.4400889 L25.0689019,61.5040889 C25.0822568,61.6720889 25.0920503,61.8374222 25.0982826,61.9992 C25.1062955,62.1609778 25.1089665,62.3138667 25.1089665,62.4543111 L25.1089665,72.7938667 L23.3844116,72.7938667 L23.3844116,58.2827556 L24.3993794,58.2827556 C24.4875213,58.2827556 24.5614181,58.2880889 24.62196,58.2987556 C24.6825019,58.3076444 24.7368116,58.3245333 24.784889,58.3485333 C24.8311858,58.3725333 24.8792632,58.4063111 24.9264503,58.4498667 C24.9745277,58.4934222 25.0243858,58.5503111 25.0786955,58.6169778 L33.4869019,69.5440889 C33.4726568,69.3680889 33.4619729,69.1974222 33.451289,69.0320889 C33.4406052,68.8667556 33.4361535,68.7094222 33.4361535,68.5609778 L33.4361535,58.2827556 L35.1607084,58.2827556 Z" id="Fill-12" fill="#1E4047"></path>
                    <path d="M52.3828413,65.8170667 L52.3828413,71.3859556 C51.6527768,71.9130667 50.8728542,72.3059556 50.0448542,72.5664 C49.2159639,72.8259556 48.3087252,72.9557333 47.3204671,72.9557333 C46.1514735,72.9557333 45.0964413,72.7752889 44.157151,72.4144 C43.2169703,72.0526222 42.4138994,71.5468444 41.7479381,70.8952889 C41.0819768,70.2437333 40.569151,69.4632889 40.2112413,68.5512889 C39.8533316,67.6392889 39.6743768,66.6375111 39.6743768,65.5441778 C39.6743768,64.4366222 39.8479897,63.4268444 40.1961058,62.5166222 C40.5442219,61.6046222 41.0401316,60.8224 41.6811639,60.1717333 C42.3239768,59.5201778 43.10568,59.0152889 44.0253832,58.6570667 C44.9450865,58.2997333 45.9725187,58.1201778 47.1085703,58.1201778 C47.6828284,58.1201778 48.2170219,58.1628444 48.711151,58.2472889 C49.2043897,58.3317333 49.6602348,58.4526222 50.0795768,58.6126222 C50.499809,58.7708444 50.8879897,58.9637333 51.2467897,59.1895111 C51.6046994,59.4152889 51.9394606,59.6695111 52.2510735,59.9530667 L51.6937316,60.8455111 C51.6046994,60.9797333 51.4916284,61.0668444 51.3527381,61.1032889 C51.2147381,61.1397333 51.0607123,61.1077333 50.891551,61.0072889 C50.7295123,60.9121778 50.5434348,60.7984 50.3333187,60.6624 C50.1240929,60.5281778 49.8685703,60.3975111 49.5685316,60.2730667 C49.2667123,60.1486222 48.9123639,60.0419556 48.5037058,59.9530667 C48.0941574,59.8659556 47.6089316,59.8224 47.0480284,59.8224 C46.2298219,59.8224 45.4890735,59.9557333 44.8266735,60.2224 C44.1633832,60.4890667 43.5989187,60.8712889 43.1323897,61.3664 C42.6658606,61.8624 42.307951,62.4632889 42.05688,63.1690667 C41.8066994,63.8739556 41.6811639,64.6659556 41.6811639,65.5441778 C41.6811639,66.4544 41.8120413,67.2704 42.0729058,67.9886222 C42.33288,68.7086222 42.7050348,69.3184 43.18848,69.8215111 C43.6719252,70.3246222 44.2577574,70.7077333 44.9477574,70.9717333 C45.6377574,71.2348444 46.4114477,71.3664 47.270609,71.3664 C47.9472542,71.3664 48.5464413,71.2899556 49.0708413,71.1379556 C49.5952413,70.9868444 50.1071768,70.7761778 50.6075381,70.5050667 L50.6075381,67.3157333 L48.3461187,67.3157333 C48.2170219,67.3157333 48.1137445,67.2792889 48.0362865,67.2046222 C47.9579381,67.1299556 47.9196542,67.0392889 47.9196542,66.9308444 L47.9196542,65.8170667 L52.3828413,65.8170667 Z" id="Fill-13" fill="#1E4047"></path>
                    <polygon id="Fill-14" fill="#1E4047" points="65.3446916 71.1430222 65.3446916 72.7936889 57.0985239 72.7936889 57.0985239 58.2825778 59.0572335 58.2825778 59.0572335 71.1430222"></polygon>
                    <polygon id="Fill-15" fill="#1E4047" points="78.1857252 71.1937778 78.1750413 72.7937778 69.2192865 72.7937778 69.2192865 58.2826667 78.1750413 58.2826667 78.1750413 59.8826667 71.1868994 59.8826667 71.1868994 64.7031111 76.84668 64.7031111 76.84668 66.2417778 71.1868994 66.2417778 71.1868994 71.1937778"></polygon>
                    <path d="M90.0728671,60.5514667 C90.0123252,60.6519111 89.945551,60.7283556 89.8743252,60.7790222 C89.8039897,60.8296889 89.7176284,60.8545778 89.6161316,60.8545778 C89.5003897,60.8545778 89.365951,60.7985778 89.2101445,60.6830222 C89.0543381,60.5683556 88.8611381,60.4412444 88.6269832,60.3025778 C88.3937187,60.1648 88.1132671,60.0376889 87.7856284,59.9230222 C87.4570994,59.8083556 87.0600155,59.7514667 86.5943768,59.7514667 C86.1545574,59.7514667 85.7672671,59.8101333 85.4325058,59.9292444 C85.0977445,60.0465778 84.8172929,60.2065778 84.591151,60.4092444 C84.3641187,60.6119111 84.1931768,60.8501333 84.0783252,61.1230222 C83.9634735,61.3976889 83.9056026,61.6919111 83.9056026,62.0092444 C83.9056026,62.4145778 84.006209,62.7505778 84.204751,63.0172444 C84.4041832,63.2839111 84.668609,63.5114667 84.9962477,63.7008 C85.3238865,63.8892444 85.6960413,64.0528 86.1118219,64.1914667 C86.5284929,64.3301333 86.9531768,64.4741333 87.3894348,64.6216889 C87.8265832,64.7710222 88.2521574,64.9372444 88.6679381,65.1230222 C89.0837187,65.3096889 89.4558735,65.5443556 89.7835123,65.8279111 C90.111151,66.1105778 90.3755768,66.4590222 90.5741187,66.8696889 C90.7744413,67.2812444 90.8732671,67.7888 90.8732671,68.3888 C90.8732671,69.0243556 90.7655381,69.6190222 90.5491897,70.1772444 C90.3328413,70.7336889 90.0167768,71.2172444 89.6009961,71.6296889 C89.1852155,72.0412444 88.6741703,72.3656889 88.0696413,72.6021333 C87.4633316,72.8385778 86.7760026,72.9559111 86.0058735,72.9559111 C85.0585703,72.9559111 84.199409,72.7852444 83.42928,72.4448 C82.6582606,72.1034667 81.9994219,71.6430222 81.4509832,71.0616889 L82.019009,70.1301333 C82.0733187,70.0563556 82.1392026,69.9941333 82.217551,69.9434667 C82.295009,69.8936889 82.38048,69.8679111 82.4757445,69.8679111 C82.5629961,69.8679111 82.6636026,69.9025778 82.7757832,69.9745778 C82.8870735,70.0448 83.0134994,70.1345778 83.1550606,70.2412444 C83.2975123,70.3496889 83.459551,70.4688 83.6420671,70.5968 C83.8245832,70.7248 84.0329187,70.8439111 84.2661832,70.9505778 C84.4985574,71.0590222 84.7647639,71.1488 85.0621316,71.2190222 C85.3594994,71.2901333 85.6942606,71.3256889 86.0664155,71.3256889 C86.5329445,71.3256889 86.9478348,71.2616889 87.3137574,71.1336889 C87.67968,71.0056889 87.9886219,70.8252444 88.2414735,70.5905778 C88.4961058,70.3585778 88.6893058,70.0794667 88.8255252,69.7559111 C88.9599639,69.4314667 89.0276284,69.0705778 89.0276284,68.6723556 C89.0276284,68.2341333 88.9279123,67.8741333 88.72848,67.5941333 C88.5290477,67.3132444 88.2672929,67.0794667 87.9423252,66.8910222 C87.6182477,66.7016889 87.2460929,66.5416889 86.826751,66.4092444 C86.407409,66.2776889 85.9809445,66.1434667 85.5491381,66.0048 C85.1164413,65.8661333 84.6899768,65.7061333 84.2706348,65.5230222 C83.8521832,65.3416889 83.4800284,65.1052444 83.1550606,64.8136889 C82.8309832,64.5239111 82.5683381,64.1612444 82.3697961,63.7265778 C82.1694735,63.2901333 82.0706477,62.7523556 82.0706477,62.1105778 C82.0706477,61.5976889 82.1694735,61.1016889 82.3697961,60.6225778 C82.5683381,60.1425778 82.8594735,59.7185778 83.2414219,59.3461333 C83.6233703,58.9754667 84.0934606,58.6785778 84.6516929,58.4554667 C85.2090348,58.2332444 85.8500671,58.1203556 86.573009,58.1203556 C87.3840929,58.1203556 88.123951,58.2501333 88.7899123,58.5061333 C89.4558735,58.7621333 90.0425961,59.1336889 90.5491897,59.6199111 L90.0728671,60.5514667 Z" id="Fill-16" fill="#1E4047"></path>
                    <path d="M128.355848,59.0662222 C128.355848,54.1817778 124.389461,50.2226667 119.497138,50.2226667 C115.999061,50.2226667 112.975525,52.2466667 111.535874,55.1862222 C110.095332,52.2466667 107.072686,50.2226667 103.573719,50.2226667 C98.6822865,50.2226667 94.7158994,54.1817778 94.7158994,59.0662222 C94.7158994,70.6848889 111.535874,79.1533333 111.535874,79.1533333 C111.535874,79.1533333 128.355848,70.6848889 128.355848,59.0662222" id="Fill-17" fill="#E03351"></path>
                    <path d="M133.753428,69.5879111 C135.300809,67.3310222 134.72477,64.2483556 132.464241,62.7025778 C130.848306,61.5976889 128.809467,61.5772444 127.212228,62.4803556 C127.478435,60.6670222 126.723441,58.7763556 125.107506,57.6714667 C122.847867,56.1256889 119.760228,56.7016889 118.211957,58.9585778 C114.528693,64.3265778 119.615106,73.5532444 119.615106,73.5532444 C119.615106,73.5532444 130.070164,74.9559111 133.753428,69.5879111" id="Fill-18" fill="#FFFFFF"></path>
                    <path d="M120.042995,72.9295111 C121.829872,73.1028444 130.153498,73.6530667 133.201963,69.2112889 C134.540117,67.2610667 134.039756,64.5881778 132.086388,63.2530667 C130.723305,62.3197333 128.981834,62.2459556 127.541292,63.0601778 L126.354492,63.7312889 L126.552143,62.3837333 C126.79164,60.7481778 126.093627,59.1535111 124.730543,58.2219556 C123.785021,57.5748444 122.643627,57.3348444 121.515588,57.5446222 C120.38933,57.7552889 119.410866,58.3908444 118.763601,59.3357333 C115.714246,63.7784 119.235472,71.3304 120.042995,72.9295111 M122.65164,74.3926222 C120.914621,74.3926222 119.672621,74.2335111 119.526608,74.2139556 L119.192737,74.1695111 L119.029808,73.8744 C118.81435,73.4832889 113.790259,64.2237333 117.660492,58.5819556 C118.51075,57.3437333 119.792814,56.5099556 121.27075,56.2335111 C122.745124,55.9570667 124.245317,56.2735111 125.484646,57.1215111 C126.953679,58.1259556 127.833317,59.7161778 127.925911,61.4406222 C129.569446,60.9028444 131.37413,61.1490667 132.841382,62.1526222 C135.401059,63.9037333 136.057227,67.4077333 134.305072,69.9650667 C131.713343,73.7410667 126.167524,74.3926222 122.65164,74.3926222" id="Fill-19" fill="#E03351"></path>
                </g>
            </g>
        </g>
    </g>
</svg>