<svg width="57" height="17" viewBox="0 0 57 17" fill="none" xmlns="http://www.w3.org/2000/svg">
<path fill-rule="evenodd" clip-rule="evenodd" d="M41.7546 6.23125H39.0424C38.4973 6.23125 37.9975 6.44307 37.6146 6.79156C35.8093 6.73508 33.0824 6.86992 27.8784 7.12294C25.5422 7.23645 22.7068 7.37389 19.7898 7.51649C19.6302 7.34834 19.4269 7.12931 19.1682 6.83392C18.3903 5.94622 17.1108 4.37005 15.5776 3.26409C14.0443 2.15813 12.2573 1.52254 10.4176 1.50059C8.57796 1.47864 6.68572 2.07049 5.57139 2.76096C4.45707 3.45143 4.12074 4.24051 4.11014 4.79944C4.09961 5.35837 4.41511 5.68721 4.6673 6.02696C4.91949 6.36671 5.10882 6.71743 5.26826 7.08641C5.44485 7.49515 5.53304 7.80804 5.63639 8.23274C5.38744 8.2464 2 8.35138 2 8.50019C2 8.65176 5.37529 8.75291 5.63639 8.76726C5.53319 9.19181 5.44478 9.50493 5.26826 9.91359C5.10882 10.2826 4.91956 10.6333 4.6673 10.973C4.41503 11.3128 4.09961 11.6416 4.11014 12.2005C4.12074 12.7595 4.45707 13.5485 5.57139 14.239C6.68572 14.9296 8.57796 15.5214 10.4176 15.4994C12.2572 15.4775 14.0443 14.8419 15.5776 13.7359C17.1108 12.6299 18.3903 11.0539 19.1682 10.1661C19.427 9.87069 19.6302 9.65166 19.7898 9.48351C22.7068 9.62611 25.5422 9.7634 27.8784 9.87698C33.0824 10.13 35.8092 10.2649 37.6146 10.2084C37.9975 10.5569 38.4973 10.7687 39.0424 10.7687H41.7546C42.739 10.7687 43.5761 10.0778 43.8422 9.13824H51.6631C51.9998 9.13824 55 8.85107 55 8.50004C55 8.14901 51.9992 7.86183 51.6631 7.86183H43.8422C43.5761 6.9221 42.739 6.23125 41.7546 6.23125Z" fill="#0C2746" stroke="#0C2746" stroke-width="2.9999" stroke-miterlimit="22.9256" stroke-linecap="round" stroke-linejoin="round"/>
</svg>
