<svg xmlns="http://www.w3.org/2000/svg" fill="none" viewBox="1 0 308.25 351">
<path d="M184.626 347H81.3917C75.8689 347 71.3917 342.523 71.3917 337V256.011C-60.1654 162.266 22.9226 -11.4418 154.463 5.10231C250.598 17.1935 268.936 88.2786 266.628 122.285L301.999 176.885C310.62 190.192 301.069 207.759 285.214 207.759H276.628C271.106 207.759 266.628 212.236 266.628 217.759V260.477C266.628 277.046 253.197 290.477 236.628 290.477H204.626C199.103 290.477 194.626 294.955 194.626 300.477V337C194.626 342.523 190.149 347 184.626 347Z" fill="#0C2746" stroke="#0C2746" stroke-width="8"/>
<path d="M96.2211 133.474H86.4148C84.9466 133.474 83.5781 134.264 82.8435 135.536L77.9403 144.028C77.2061 145.3 77.2061 146.88 77.9403 148.152L82.8438 156.645C83.5781 157.916 84.9466 158.706 86.4148 158.706H96.2211C97.6892 158.706 99.0574 157.916 99.7924 156.645L104.695 148.152C105.43 146.88 105.43 145.3 104.695 144.028L99.7924 135.536C99.0577 134.264 97.6892 133.474 96.2211 133.474ZM95.5195 153.368H87.1159L82.9147 146.09L87.1163 138.813H95.5195L99.7212 146.09L95.5195 153.368Z" fill="#EAEADF"/>
<path d="M73.5694 106.703C72.906 107.836 72.2675 108.984 71.6667 110.142C70.9876 111.451 71.498 113.062 72.8067 113.741C73.1996 113.945 73.6196 114.041 74.0339 114.041C74.9988 114.041 75.9306 113.516 76.4058 112.601C76.862 111.721 77.3404 110.847 77.8369 109.982C77.9469 109.99 78.0572 109.994 78.1679 109.994H91.6822C93.3464 109.994 94.8972 109.099 95.7293 107.658L102.486 95.9544C103.319 94.5129 103.319 92.722 102.486 91.2808L99.6665 86.3973C100.785 85.6353 101.924 84.9003 103.077 84.2077C104.34 83.4478 104.748 81.8077 103.989 80.5445C103.229 79.2814 101.589 78.8728 100.326 79.6323C99.2006 80.3089 98.0869 81.0236 96.991 81.7625L95.7293 79.5771C94.8972 78.136 93.3464 77.2405 91.6822 77.2405H78.1679C76.5036 77.2405 74.9529 78.136 74.1208 79.5771L67.3636 91.2805C66.5311 92.722 66.5311 94.5129 67.3636 95.9541L73.5694 106.703ZM78.5519 82.5793H91.2978L97.6705 93.6174L91.2978 104.656H78.5519L72.1792 93.6174L78.5519 82.5793Z" fill="#EAEADF"/>
<path d="M151.379 179.366H156.414C159.288 179.366 161.627 177.027 161.627 174.153V161.413C161.627 158.792 159.68 156.622 157.157 156.259L166.203 140.592C167.328 138.643 168.24 136.58 168.914 134.461C169.361 133.056 168.585 131.555 167.18 131.108C165.776 130.662 164.273 131.438 163.827 132.843C163.269 134.597 162.513 136.306 161.58 137.922L151.027 156.2H142.48V138.271C148.63 137.029 153.275 131.584 153.275 125.074C153.275 117.65 147.235 111.61 139.811 111.61C132.387 111.61 126.347 117.65 126.347 125.074C126.347 131.584 130.992 137.028 137.141 138.271V156.2H128.594L118.042 137.922C113.498 130.052 113.498 120.655 118.042 112.785C122.585 104.915 130.723 100.217 139.811 100.217C153.969 100.217 163.045 110.976 164.693 121.604C164.919 123.061 166.284 124.058 167.74 123.833C169.197 123.607 170.195 122.243 169.969 120.786C168.884 113.791 165.381 107.328 160.104 102.588C154.57 97.6164 147.362 94.8784 139.81 94.8784C128.793 94.8784 118.926 100.575 113.418 110.116C107.909 119.657 107.909 131.05 113.418 140.592L122.464 156.259C119.941 156.622 117.994 158.792 117.994 161.413V174.153C117.994 177.027 120.333 179.366 123.207 179.366H128.242V184.406C128.242 190.785 133.432 195.974 139.81 195.974C146.189 195.974 151.378 190.784 151.378 184.406L151.379 179.366ZM131.685 125.074C131.685 120.594 135.33 116.949 139.81 116.949C144.291 116.949 147.936 120.594 147.936 125.074C147.936 129.553 144.291 133.198 139.81 133.198C135.33 133.198 131.685 129.553 131.685 125.074ZM123.333 161.539H156.288V174.027H123.333V161.539ZM146.04 184.406C146.04 187.841 143.245 190.635 139.811 190.635C136.376 190.635 133.581 187.841 133.581 184.406V179.366H146.04V184.406Z" fill="#EAEADF"/>
<path d="M205.101 166.299C194.497 166.299 185.87 174.925 185.87 185.529C185.87 196.133 194.497 204.759 205.101 204.759C215.704 204.759 224.331 196.133 224.331 185.529C224.331 174.925 215.704 166.299 205.101 166.299ZM205.101 199.42C197.441 199.42 191.209 193.188 191.209 185.529C191.209 177.869 197.441 171.637 205.101 171.637C212.76 171.637 218.992 177.869 218.992 185.529C218.992 193.188 212.76 199.42 205.101 199.42Z" fill="#EAEADF"/>
<path d="M205.101 176.264C199.992 176.264 195.835 180.42 195.835 185.529C195.835 190.638 199.992 194.794 205.101 194.794C210.21 194.794 214.366 190.638 214.366 185.529C214.366 180.42 210.21 176.264 205.101 176.264ZM205.101 189.455C202.936 189.455 201.174 187.694 201.174 185.529C201.174 183.364 202.936 181.602 205.101 181.602C207.266 181.602 209.027 183.364 209.027 185.529C209.027 187.694 207.266 189.455 205.101 189.455Z" fill="#EAEADF"/>
<path d="M239.854 173.94H233.335C233.329 173.938 233.303 173.922 233.285 173.877L230.817 174.895L233.269 173.839C233.251 173.794 233.257 173.764 233.26 173.758L237.87 169.148C239.966 167.052 239.966 163.642 237.87 161.545L229.085 152.76C226.989 150.663 223.578 150.663 221.482 152.76L216.872 157.37C216.867 157.372 216.836 157.379 216.788 157.359C216.783 157.357 216.757 157.346 216.753 157.344C216.709 157.326 216.692 157.3 216.69 157.294V150.775C216.69 147.81 214.278 145.399 211.314 145.399H198.889C195.925 145.399 193.513 147.81 193.513 150.775V157.294C193.511 157.3 193.494 157.326 193.45 157.344L193.412 157.36C193.367 157.379 193.336 157.372 193.331 157.369L188.721 152.759C186.625 150.663 183.214 150.663 181.118 152.759L172.332 161.545C170.236 163.641 170.236 167.052 172.332 169.148L176.942 173.758C176.945 173.764 176.951 173.794 176.933 173.839L176.917 173.877C176.899 173.922 176.873 173.938 176.867 173.94H170.348C167.383 173.94 164.971 176.352 164.971 179.316V191.741C164.971 194.705 167.383 197.117 170.348 197.117L176.867 197.116C176.873 197.119 176.899 197.135 176.918 197.18C176.918 197.18 176.933 197.216 176.933 197.218C176.952 197.263 176.945 197.293 176.942 197.299L172.333 201.909C170.352 203.889 170.245 207.041 172.007 209.152C171.056 209.633 170.094 210.094 169.129 210.53C167.785 211.136 167.187 212.717 167.793 214.061C168.238 215.048 169.21 215.633 170.228 215.633C170.595 215.633 170.968 215.557 171.324 215.396C172.881 214.694 174.428 213.931 175.942 213.121L181.118 218.297C183.214 220.394 186.625 220.394 188.721 218.297L193.331 213.687C193.336 213.685 193.367 213.678 193.391 213.688L193.45 213.712C193.494 213.731 193.511 213.757 193.513 213.762V220.282C193.513 223.246 195.924 225.658 198.889 225.658H211.314C214.278 225.658 216.69 223.246 216.69 220.282V213.762C216.691 213.756 216.708 213.73 216.746 213.715L216.79 213.696C216.836 213.678 216.866 213.684 216.872 213.687L221.482 218.297C223.578 220.393 226.989 220.393 229.085 218.297L237.871 209.511C239.967 207.415 239.967 204.004 237.871 201.908L233.261 197.299C233.258 197.293 233.252 197.262 233.27 197.217L233.285 197.18C233.304 197.135 233.33 197.119 233.336 197.117H239.855C242.82 197.117 245.232 194.705 245.232 191.741V179.316C245.23 176.352 242.819 173.94 239.854 173.94ZM239.892 191.741C239.892 191.761 239.875 191.778 239.854 191.778H233.335C231.15 191.778 229.193 193.099 228.337 195.174C227.491 197.215 227.942 199.531 229.485 201.074L234.095 205.683C234.109 205.698 234.109 205.722 234.095 205.736L225.309 214.522C225.295 214.537 225.271 214.537 225.256 214.522L220.646 209.912C219.104 208.369 216.788 207.919 214.716 208.777C212.672 209.621 211.351 211.577 211.351 213.762V220.281C211.351 220.302 211.334 220.319 211.313 220.319H198.888C198.868 220.319 198.851 220.302 198.851 220.281V213.762C198.851 211.577 197.53 209.62 195.455 208.764C194.771 208.481 194.057 208.343 193.351 208.343C191.949 208.343 190.582 208.886 189.555 209.912L184.946 214.522C184.931 214.537 184.907 214.537 184.893 214.522L176.107 205.736C176.092 205.722 176.092 205.698 176.107 205.683L180.717 201.074C182.26 199.531 182.71 197.215 181.869 195.185L181.852 195.143C181.008 193.099 179.052 191.778 176.867 191.778H170.348C170.327 191.778 170.31 191.761 170.31 191.74V179.316C170.31 179.296 170.327 179.279 170.348 179.279H176.867C179.052 179.279 181.009 177.958 181.842 175.938L181.865 175.882C182.711 173.841 182.26 171.526 180.717 169.983L176.108 165.373C176.093 165.359 176.093 165.335 176.108 165.32L184.893 156.535C184.908 156.52 184.932 156.52 184.946 156.535L189.556 161.144C191.099 162.687 193.414 163.138 195.445 162.297L195.486 162.28C197.531 161.436 198.852 159.479 198.852 157.294V150.775C198.852 150.754 198.868 150.738 198.889 150.738H211.314C211.335 150.738 211.351 150.754 211.351 150.775V157.294C211.351 159.479 212.672 161.436 214.748 162.293C216.788 163.138 219.104 162.687 220.647 161.144L225.257 156.535C225.272 156.52 225.295 156.52 225.31 156.535L234.096 165.32C234.11 165.335 234.11 165.359 234.096 165.373L229.485 169.983C227.943 171.526 227.492 173.842 228.35 175.913C229.194 177.958 231.151 179.279 233.336 179.279H239.855C239.876 179.279 239.893 179.296 239.893 179.316V191.741H239.892Z" fill="#EAEADF"/>
<path d="M66.0528 152.596C64.5914 152.789 63.5632 154.131 63.7568 155.592C64.0487 157.797 64.4416 160.014 64.9242 162.181C65.2011 163.425 66.3041 164.271 67.5274 164.271C67.7196 164.271 67.9147 164.25 68.1104 164.207C69.5494 163.886 70.4559 162.46 70.1356 161.021C69.6864 159.005 69.3213 156.943 69.0497 154.892C68.8557 153.43 67.5125 152.402 66.0528 152.596Z" fill="#EAEADF"/>
<path d="M65.7316 147.172H65.765C67.224 147.172 68.4156 145.998 68.4337 144.535C68.459 142.462 68.5747 140.369 68.7775 138.318C68.9224 136.85 67.8507 135.544 66.3836 135.399C64.918 135.252 63.6096 136.325 63.4644 137.793C63.2466 139.997 63.1223 142.243 63.0949 144.47C63.0768 145.945 64.2574 147.154 65.7316 147.172Z" fill="#EAEADF"/>
<path d="M111.295 79.734C111.637 79.734 111.986 79.6675 112.322 79.5272C114.229 78.7307 116.194 78.0096 118.162 77.3842C119.567 76.9375 120.344 75.4366 119.897 74.0318C119.451 72.627 117.949 71.8504 116.545 72.2967C114.428 72.9694 112.315 73.7446 110.265 74.6013C108.904 75.1697 108.262 76.7329 108.83 78.0932C109.258 79.1168 110.25 79.734 111.295 79.734Z" fill="#EAEADF"/>
<path d="M67.3077 130.045C67.5245 130.099 67.7416 130.125 67.9555 130.125C69.1521 130.125 70.2408 129.315 70.5434 128.101C71.0434 126.095 71.6389 124.087 72.3126 122.134C72.7935 120.74 72.0535 119.221 70.6598 118.74C69.266 118.259 67.7462 118.999 67.2657 120.393C66.5411 122.493 65.9008 124.652 65.363 126.809C65.0067 128.24 65.8773 129.689 67.3077 130.045Z" fill="#EAEADF"/>
<path d="M127.813 75.01C127.956 75.01 128.101 74.9986 128.245 74.9747C130.283 74.643 132.363 74.3967 134.428 74.243C135.898 74.1333 137.001 72.8528 136.891 71.3825C136.782 69.9122 135.5 68.8099 134.031 68.9188C131.812 69.084 129.577 69.3488 127.387 69.705C125.932 69.9421 124.945 71.3138 125.182 72.7684C125.395 74.0792 126.528 75.01 127.813 75.01Z" fill="#EAEADF"/>
<path d="M110.686 210.617C109.458 210.068 108.238 209.475 107.036 208.853C108.16 207.114 109.076 205.209 109.735 203.163C110.187 201.76 109.416 200.256 108.013 199.804C106.609 199.352 105.106 200.123 104.654 201.526C102.168 209.239 95.0516 214.42 86.9445 214.42C76.6851 214.42 68.3388 206.074 68.3388 195.815C68.3388 185.555 76.6854 177.209 86.9445 177.209C95.1762 177.209 102.524 182.728 104.812 190.63C105.222 192.046 106.702 192.862 108.119 192.452C109.535 192.042 110.351 190.561 109.941 189.145C106.995 178.974 97.5387 171.87 86.9448 171.87C82.5503 171.87 78.4319 173.065 74.8881 175.14C74.2559 173.761 73.6644 172.357 73.1248 170.948C72.5977 169.571 71.0541 168.883 69.6774 169.41C68.3007 169.937 67.612 171.481 68.1391 172.857C68.8567 174.731 69.661 176.594 70.5266 178.41C65.8975 182.778 63 188.963 63 195.815C63 209.018 73.7416 219.759 86.9445 219.759C93.3204 219.759 99.2173 217.265 103.572 213.062C105.187 213.929 106.84 214.745 108.505 215.491C108.859 215.649 109.23 215.724 109.594 215.724C110.615 215.724 111.589 215.136 112.033 214.144C112.635 212.799 112.032 211.22 110.686 210.617Z" fill="#EAEADF"/>
<path d="M161.094 77.2699C161.807 77.4923 162.52 77.729 163.229 77.976C161.836 81.1013 161.055 84.5573 161.055 88.1941C161.055 102.086 172.357 113.388 186.249 113.388C191.716 113.388 196.826 111.655 200.998 108.649C201.637 109.711 202.25 110.79 202.831 111.878C202.639 112.097 202.46 112.328 202.312 112.585L196.18 123.205C195.381 124.589 195.381 126.308 196.18 127.692L202.312 138.312C203.111 139.696 204.6 140.556 206.198 140.556H218.461C220.06 140.556 221.549 139.696 222.347 138.312L228.479 127.692C229.278 126.308 229.278 124.589 228.479 123.204L222.347 112.584C221.548 111.2 220.059 110.34 218.461 110.34H207.979C207.928 110.155 207.865 109.971 207.772 109.793C206.922 108.175 206 106.573 205.033 105.013C207.747 101.976 209.75 98.2481 210.751 94.0514C211.092 92.6175 210.207 91.1778 208.773 90.8361C207.338 90.4926 205.899 91.3796 205.557 92.8139C203.419 101.784 195.479 108.048 186.249 108.048C175.301 108.048 166.394 99.1414 166.394 88.1934C166.394 77.2453 175.301 68.3384 186.249 68.3384C194.768 68.3384 202.326 73.7605 205.055 81.8306C205.528 83.2272 207.044 83.9768 208.439 83.5041C209.836 83.0318 210.585 81.517 210.113 80.1204C206.649 69.8803 197.059 63 186.249 63C177.933 63 170.549 67.0518 165.958 73.2821C164.873 72.8874 163.779 72.5148 162.683 72.1731C161.276 71.7339 159.779 72.5191 159.34 73.9264C158.902 75.334 159.687 76.831 161.094 77.2699ZM223.61 125.449L217.97 135.217H206.69L201.05 125.449L206.69 115.68H217.97L223.61 125.449Z" fill="#EAEADF"/>
<path d="M159.39 214.091C157.403 214.656 155.366 215.14 153.334 215.53C151.886 215.808 150.938 217.206 151.215 218.654C151.46 219.932 152.579 220.821 153.834 220.821C154.001 220.821 154.17 220.806 154.34 220.773C156.524 220.354 158.715 219.833 160.851 219.225C162.269 218.822 163.091 217.345 162.688 215.927C162.284 214.51 160.808 213.688 159.39 214.091Z" fill="#EAEADF"/>
<path d="M126.5 215.571C124.468 215.188 122.429 214.71 120.44 214.15C119.021 213.751 117.547 214.578 117.148 215.997C116.749 217.416 117.576 218.89 118.995 219.289C121.133 219.891 123.326 220.405 125.511 220.817C125.678 220.848 125.845 220.863 126.008 220.863C127.267 220.863 128.387 219.97 128.629 218.688C128.902 217.24 127.949 215.844 126.5 215.571Z" fill="#EAEADF"/>
<path d="M144.805 74.2155C146.872 74.3582 148.953 74.5934 150.992 74.9138C151.133 74.9358 151.272 74.9465 151.41 74.9465C152.701 74.9465 153.837 74.0072 154.044 72.6914C154.273 71.2349 153.278 69.8686 151.821 69.6397C149.63 69.2952 147.393 69.0425 145.173 68.8891C143.705 68.7891 142.428 69.8974 142.326 71.3684C142.224 72.8394 143.334 74.114 144.805 74.2155Z" fill="#EAEADF"/>
<path d="M95.4766 187.282C94.4341 186.24 92.7438 186.24 91.7017 187.282L86.9448 192.039L82.1876 187.282C81.1451 186.24 79.4549 186.24 78.4127 187.282C77.3702 188.325 77.3702 190.015 78.4127 191.057L83.1696 195.814L78.4127 200.571C77.3702 201.613 77.3702 203.304 78.4127 204.346C78.9338 204.867 79.6172 205.128 80.3002 205.128C80.9832 205.128 81.6665 204.867 82.1876 204.346L86.9445 199.589L91.7013 204.346C92.2224 204.867 92.9058 205.128 93.5888 205.128C94.2718 205.128 94.9551 204.867 95.4762 204.346C96.5187 203.303 96.5187 201.613 95.4762 200.571L90.7193 195.814L95.4762 191.057C96.519 190.015 96.519 188.325 95.4766 187.282Z" fill="#EAEADF"/>
<path d="M193.997 81.301L184.372 90.9258L178.502 85.0549C177.459 84.0124 175.769 84.0124 174.727 85.0549C173.684 86.0974 173.684 87.7876 174.727 88.8298L182.485 96.5881C183.006 97.1095 183.689 97.37 184.372 97.37C185.055 97.37 185.739 97.1095 186.26 96.5881L197.772 85.0759C198.815 84.0334 198.815 82.3431 197.772 81.301C196.73 80.2582 195.04 80.2585 193.997 81.301Z" fill="#EAEADF"/>
</svg>