<svg width="538" height="273" xmlns="http://www.w3.org/2000/svg">
 <!-- Created with Method Draw - http://github.com/duopixel/Method-Draw/ -->
 <g>
  <title>background</title>
  <rect fill="#fff" id="canvas_background" height="275" width="540" y="-1" x="-1"/>
  <g display="none" overflow="visible" y="0" x="0" height="100%" width="100%" id="canvasGrid">
   <rect fill="url(#gridpattern)" stroke-width="0" y="0" x="0" height="100%" width="100%"/>
  </g>
 </g>
 <g>
  <title>Layer 1</title>
  <g stroke="null" id="svg_6">
   <path stroke="#000" id="svg_1" d="m250.828026,120.583872c38.758129,-111.412912 190.613751,0 0,143.245173c-190.613751,-143.245173 -38.758129,-254.658085 0,-143.245173z" stroke-width="1.5" fill="#000000"/>
   <path stroke="#000" id="svg_2" d="m378.465124,246.05168c6.346236,-18.747747 15.032488,-34.625144 23.271948,-42.538194c8.827255,-8.477572 4.910904,-12.154871 -4.195128,-3.939071c-3.831022,3.456459 -4.925595,0.94669 -4.925595,-11.29401c0,-29.205338 16.779974,-47.276751 57.153488,-61.552114c34.16198,-12.079133 59.348085,-25.662897 69.790786,-37.640719l8.509508,-9.760496l0,16.982298c0,20.998867 -7.22083,52.723067 -15.213635,66.840021c-8.478937,14.975623 -37.541533,42.61841 -51.80302,49.272292c-12.777028,5.961334 -40.064665,7.716317 -54.648626,3.5147c-7.267787,-2.093812 -9.574355,-0.494033 -13.340143,9.252398c-2.504147,6.481116 -4.553007,15.701514 -4.553007,20.489697c0,5.435915 -2.416447,8.705767 -6.433598,8.705767c-4.771168,0 -5.704748,-2.153084 -3.612971,-8.33257l-0.000006,0z" stroke-width="1.5" fill="#000000"/>
   <path stroke="#000" id="svg_3" d="m140.058052,82.236081l-22.143291,-13.4292c-5.586823,-3.384905 -12.948432,-1.755751 -16.468708,3.636107l-8.727923,13.404142l42.361053,25.672202l8.734806,-13.39792c3.506916,-5.398276 1.833194,-12.507969 -3.755937,-15.885332l0,0zm-122.721562,119.416739l42.363361,25.671938l69.045256,-106.05666l-42.383528,-25.678641l-69.025097,106.063356l0.000007,0.000007zm-6.470995,32.617154l-0.935655,24.113211l22.109322,-11.283884l20.545842,-10.467394l-40.869292,-24.782204l-0.850211,22.420278l0,0l-0.000007,-0.000007z" stroke-opacity="null" stroke-width="1.5" fill="#000000"/>
   <ellipse stroke="#000" ry="18.319936" rx="17.431535" id="svg_4" cy="240.934429" cx="337.481124" stroke-opacity="null" stroke-width="1.5" fill="#000000"/>
  </g>
 </g>
</svg>