<svg xmlns="http://www.w3.org/2000/svg" xmlns:xlink="http://www.w3.org/1999/xlink" viewBox="0 0 320.7 174.38" xmlns:v="https://vecta.io/nano"><defs><linearGradient id="A" x1="9.68" y1="122.23" x2="164.2" y2="122.23" xlink:href="#Aq"><stop offset="0" stop-color="#d2bd73"/><stop offset=".11" stop-color="#d1bb6f"/><stop offset=".23" stop-color="#ccb561"/><stop offset=".36" stop-color="#c5aa4c"/><stop offset=".48" stop-color="#bb9c2d"/><stop offset=".55" stop-color="#b5931a"/><stop offset=".67" stop-color="#b79620"/><stop offset=".82" stop-color="#bc9d2f"/><stop offset=".98" stop-color="#c5a949"/><stop offset="1" stop-color="#c6ab4d"/></linearGradient><linearGradient id="B" x1="9.68" y1="122.23" x2="164.2" y2="122.23" xlink:href="#Aq"><stop offset="0" stop-color="#d6c37f"/><stop offset=".55" stop-color="#d6c37f"/><stop offset=".83" stop-color="#d4c079"/><stop offset="1" stop-color="#d2bd73"/></linearGradient><linearGradient id="C" x1="14.69" y1="52.49" x2="158.92" y2="52.49" xlink:href="#Aq"><stop offset="0" stop-color="#d2bd73"/><stop offset=".1" stop-color="#d4c078"/><stop offset=".22" stop-color="#d8c788"/><stop offset=".35" stop-color="#e0d3a1"/><stop offset=".37" stop-color="#e2d5a6"/><stop offset=".53" stop-color="#d8c686"/><stop offset=".72" stop-color="#ceb767"/><stop offset=".89" stop-color="#c8ae54"/><stop offset="1" stop-color="#c6ab4d"/></linearGradient><linearGradient id="D" x1="25.72" y1="126.68" x2="20.02" y2="112.93" xlink:href="#Aq"><stop offset="0" stop-color="#a4814c"/><stop offset=".6" stop-color="#a6834c"/><stop offset=".82" stop-color="#ad894b"/><stop offset=".98" stop-color="#b89449"/><stop offset="1" stop-color="#bb9649"/></linearGradient><linearGradient id="E" x1="20.97" y1="114.14" x2="15.03" y2="99.8" xlink:href="#Aq"><stop offset="0" stop-color="#decf99"/><stop offset=".38" stop-color="#e4cf95"/><stop offset="1" stop-color="#a78342"/></linearGradient><linearGradient id="F" x1="31" y1="140.46" x2="50.78" y2="140.46" xlink:href="#Aq"><stop offset="0" stop-color="#a88442"/><stop offset=".45" stop-color="#9e7a3e"/><stop offset="1" stop-color="#9b773d"/></linearGradient><linearGradient id="G" x1="36.882" y1="136.211" x2="28.029" y2="127.444" xlink:href="#Aq"><stop offset="0" stop-color="#d2bd73"/><stop offset="1" stop-color="#a4814c"/></linearGradient><linearGradient id="H" x1="47.74" y1="143.57" x2="61.8" y2="157.63" xlink:href="#Aq"><stop offset="0" stop-color="#9a773d"/><stop offset=".17" stop-color="#9d7b40"/><stop offset=".32" stop-color="#a6864a"/><stop offset=".47" stop-color="#b5995b"/><stop offset=".62" stop-color="#cab373"/><stop offset=".7" stop-color="#d7c482"/><stop offset=".7" stop-color="#d5c280"/><stop offset=".78" stop-color="#bba163"/><stop offset=".86" stop-color="#a98a4e"/><stop offset=".94" stop-color="#9e7c41"/><stop offset="1" stop-color="#9a773d"/></linearGradient><linearGradient id="I" x1="90.43" y1="163.2" x2="72.61" y2="152.91" xlink:href="#Aq"><stop offset="0" stop-color="#9a773d"/><stop offset=".12" stop-color="#9c793f"/><stop offset=".17" stop-color="#a17e46"/><stop offset=".2" stop-color="#ab8951"/><stop offset=".23" stop-color="#b89762"/><stop offset=".23" stop-color="#be9d69"/><stop offset=".26" stop-color="#b89762"/><stop offset=".34" stop-color="#ab8951"/><stop offset=".45" stop-color="#a17e46"/><stop offset=".59" stop-color="#9c793f"/><stop offset="1" stop-color="#9a773d"/></linearGradient><linearGradient id="J" x1="99.14" y1="154.93" x2="119.03" y2="154.93" xlink:href="#Aq"><stop offset="0" stop-color="#927038"/><stop offset=".36" stop-color="#947239"/><stop offset=".51" stop-color="#9b793c"/><stop offset=".63" stop-color="#a88441"/><stop offset=".72" stop-color="#b99448"/><stop offset=".73" stop-color="#bb9649"/><stop offset=".74" stop-color="#b89448"/><stop offset=".81" stop-color="#a88442"/><stop offset=".89" stop-color="#9e7a3e"/><stop offset="1" stop-color="#9b773d"/></linearGradient><linearGradient id="K" x1="136.82" y1="127.34" x2="146.86" y2="137.38" xlink:href="#Aq"><stop offset="0" stop-color="#9b773d"/><stop offset=".48" stop-color="#9d793f"/><stop offset=".7" stop-color="#a48144"/><stop offset=".87" stop-color="#b18d4d"/><stop offset="1" stop-color="#c19e59"/></linearGradient><linearGradient id="L" x1="153.235" y1="111.526" x2="147.21" y2="126.291" xlink:href="#Aq"><stop offset="0" stop-color="#9b773d"/></linearGradient><linearGradient id="M" x1="148.313" y1="105.27" x2="161.346" y2="110.017" xlink:href="#Aq"><stop offset="0" stop-color="#9b773d"/><stop offset=".2" stop-color="#9f7b41"/><stop offset=".4" stop-color="#aa874d"/><stop offset=".6" stop-color="#bc9b61"/><stop offset=".72" stop-color="#caab71"/><stop offset=".82" stop-color="#c7a86e"/><stop offset=".88" stop-color="#bf9f65"/><stop offset=".94" stop-color="#b08f55"/><stop offset="1" stop-color="#9c793f"/><stop offset="1" stop-color="#9a773d"/></linearGradient><linearGradient id="N" x1="155.932" y1="69.853" x2="155.983" y2="81.281" xlink:href="#Aq"><stop offset="0" stop-color="#b4976b"/><stop offset=".27" stop-color="#b79b6e"/><stop offset=".53" stop-color="#c1a676"/><stop offset=".78" stop-color="#d1b984"/><stop offset="1" stop-color="#e5d195"/></linearGradient><linearGradient id="O" x1="25.443" y1="99.007" x2="29.734" y2="88.62" xlink:href="#Aq"><stop offset="0" stop-color="#b28b4a"/><stop offset="1" stop-color="#9a773d"/></linearGradient><linearGradient id="P" x1="24.71" y1="103.04" x2="35.91" y2="103.04" xlink:href="#Aq"><stop offset="0" stop-color="#b28b4a"/><stop offset=".11" stop-color="#b79251"/><stop offset=".28" stop-color="#c5a466"/><stop offset=".47" stop-color="#dbc287"/><stop offset=".55" stop-color="#e4cf95"/><stop offset="1" stop-color="#decf99"/></linearGradient><linearGradient id="Q" x1="35.43" y1="122.35" x2="35.43" y2="111.43" xlink:href="#Aq"><stop offset="0" stop-color="#a78342"/><stop offset="1" stop-color="#9a773d"/></linearGradient><linearGradient id="R" x1="42.164" y1="126.874" x2="39.347" y2="120.075" xlink:href="#Aq"><stop offset="0" stop-color="#decf99"/><stop offset=".38" stop-color="#e4cf95"/><stop offset=".39" stop-color="#e4cf95"/><stop offset=".56" stop-color="#c9ae71"/><stop offset=".73" stop-color="#b69657"/><stop offset=".88" stop-color="#ab8847"/><stop offset="1" stop-color="#a78342"/></linearGradient><linearGradient id="S" x1="52.982" y1="139.558" x2="48.769" y2="129.386" xlink:href="#Aq"><stop offset="0" stop-color="#bb9649"/><stop offset="1" stop-color="#9b773d"/></linearGradient><linearGradient id="T" x1="60.935" y1="141.16" x2="55.675" y2="135.899" xlink:href="#Aq"><stop offset="0" stop-color="#decf99"/><stop offset=".38" stop-color="#e4cf95"/><stop offset=".48" stop-color="#dbc283"/><stop offset=".7" stop-color="#c9aa64"/><stop offset=".88" stop-color="#bf9b50"/><stop offset="1" stop-color="#bb9649"/></linearGradient><linearGradient id="U" x1="75.601" y1="148.358" x2="67.929" y2="140.686" xlink:href="#Aq"><stop offset="0" stop-color="#cdb079"/><stop offset=".38" stop-color="#e4cf95"/><stop offset="1" stop-color="#9b773d"/></linearGradient><linearGradient id="V" x1="76.095" y1="150.362" x2="84.299" y2="142.157" xlink:href="#Aq"><stop offset="0" stop-color="#cdb079"/><stop offset=".38" stop-color="#e4cf95"/><stop offset=".52" stop-color="#e1cb91"/><stop offset=".65" stop-color="#d8c085"/><stop offset=".79" stop-color="#c9ae71"/><stop offset=".92" stop-color="#b59455"/><stop offset="1" stop-color="#a78342"/></linearGradient><linearGradient id="W" x1="98.118" y1="150.63" x2="89.697" y2="142.216" xlink:href="#Aq"><stop offset="0" stop-color="#decf99"/><stop offset=".38" stop-color="#e4cf95"/><stop offset=".42" stop-color="#d7c086"/><stop offset=".5" stop-color="#c1a56b"/><stop offset=".59" stop-color="#b09157"/><stop offset=".69" stop-color="#a48248"/><stop offset=".81" stop-color="#9d7a40"/><stop offset="1" stop-color="#9b773d"/></linearGradient><linearGradient id="X" x1="106.98" y1="143.48" x2="99.63" y2="143.48" xlink:href="#Aq"><stop offset="0" stop-color="#a78342"/><stop offset=".62" stop-color="#e4cf95"/><stop offset="1" stop-color="#decf99"/></linearGradient><linearGradient id="Y" x1="121.91" y1="141.39" x2="110.41" y2="137.2" xlink:href="#Aq"><stop offset="0" stop-color="#decf99"/><stop offset=".23" stop-color="#e4cf95"/><stop offset=".41" stop-color="#d2b77b"/><stop offset=".64" stop-color="#c19f60"/><stop offset=".84" stop-color="#b69050"/><stop offset="1" stop-color="#b28b4a"/></linearGradient><linearGradient id="Z" x1="124.362" y1="127.668" x2="124.359" y2="139.5" xlink:href="#Aq"><stop offset="0" stop-color="#9b773d"/><stop offset=".18" stop-color="#a17e44"/><stop offset=".44" stop-color="#b09056"/><stop offset=".74" stop-color="#caaf75"/><stop offset="1" stop-color="#e4cf95"/></linearGradient><linearGradient id="a" x1="139.56" y1="120.825" x2="129.462" y2="125.008" xlink:href="#Aq"><stop offset="0" stop-color="#d2bd73"/><stop offset=".39" stop-color="#d3b34f"/><stop offset="1" stop-color="#af8d52"/></linearGradient><linearGradient id="b" x1="134.67" y1="111.42" x2="142.52" y2="119.27" xlink:href="#Aq"><stop offset="0" stop-color="#9b773d"/><stop offset=".33" stop-color="#9d793e"/><stop offset=".47" stop-color="#a48040"/><stop offset=".57" stop-color="#af8d43"/><stop offset=".66" stop-color="#c09e49"/><stop offset=".73" stop-color="#d3b34f"/><stop offset="1" stop-color="#d2bd73"/></linearGradient><linearGradient id="c" x1="148.612" y1="98.251" x2="140.622" y2="106.241" xlink:href="#Aq"><stop offset="0" stop-color="#bb9649"/><stop offset=".17" stop-color="#be9a4e"/><stop offset=".37" stop-color="#c7a65b"/><stop offset=".57" stop-color="#d5b971"/><stop offset=".7" stop-color="#e1ca84"/><stop offset="1" stop-color="#d8ba60"/></linearGradient><linearGradient id="d" x1="141.77" y1="92.961" x2="150.195" y2="101.373" xlink:href="#Aq"><stop offset="0" stop-color="#9a773d"/><stop offset=".35" stop-color="#9e7b3e"/><stop offset=".69" stop-color="#aa8643"/><stop offset="1" stop-color="#bb9649"/></linearGradient><linearGradient id="e" x1="51.78" y1="35.46" x2="62.72" y2="35.46" xlink:href="#Aq"><stop offset="0" stop-color="#9b773d"/><stop offset="1" stop-color="#ceb766"/></linearGradient><linearGradient id="f" x1="67.36" y1="30.31" x2="74.61" y2="30.31" xlink:href="#Aq"><stop offset="0" stop-color="#bd9f33"/><stop offset="1" stop-color="#9b773d"/></linearGradient><linearGradient id="g" x1="73.872" y1="25.877" x2="83.997" y2="30.071" xlink:href="#Aq"><stop offset="0" stop-color="#9b773d"/><stop offset=".4" stop-color="#a6843a"/><stop offset="1" stop-color="#bd9f33"/></linearGradient><linearGradient id="h" x1="90.602" y1="27.243" x2="97.162" y2="29.96" xlink:href="#Aq"><stop offset="0" stop-color="#bb9549"/><stop offset=".04" stop-color="#b99348"/><stop offset=".63" stop-color="#a37f40"/><stop offset="1" stop-color="#9b773d"/></linearGradient><linearGradient id="i" x1="98.336" y1="25.5" x2="106.107" y2="33.271" xlink:href="#Aq"><stop offset="0" stop-color="#9b773d"/><stop offset=".15" stop-color="#a07e45"/><stop offset=".38" stop-color="#ae915b"/><stop offset=".67" stop-color="#c5b07f"/><stop offset=".99" stop-color="#e5dab1"/><stop offset="1" stop-color="#e6dbb2"/></linearGradient><linearGradient id="j" x1="116.777" y1="31.722" x2="116.784" y2="39.621" xlink:href="#L"/><linearGradient id="k" x1="123.303" y1="32.865" x2="123.291" y2="44.803" xlink:href="#Aq"><stop offset="0" stop-color="#9b773d"/><stop offset=".15" stop-color="#9f7c43"/><stop offset=".36" stop-color="#aa8b55"/><stop offset=".6" stop-color="#bda471"/><stop offset=".86" stop-color="#d6c699"/><stop offset="1" stop-color="#e6dbb2"/></linearGradient><linearGradient id="l" x1="135.936" y1="47.129" x2="129.449" y2="53.611" xlink:href="#Aq"><stop offset="0" stop-color="#bb9649"/><stop offset=".2" stop-color="#b48f46"/><stop offset="1" stop-color="#9b773d"/></linearGradient><linearGradient id="m" x1="141.44" y1="52.21" x2="136.83" y2="63.33" xlink:href="#Aq"><stop offset="0" stop-color="#bb9649"/><stop offset=".16" stop-color="#bd994e"/><stop offset=".36" stop-color="#c3a35d"/><stop offset=".57" stop-color="#cdb275"/><stop offset=".79" stop-color="#dac897"/><stop offset="1" stop-color="#eae1bf"/></linearGradient><linearGradient id="n" x1="147.823" y1="74.013" x2="143.739" y2="83.871" xlink:href="#Aq"><stop offset="0" stop-color="#b28b4a"/><stop offset=".22" stop-color="#b48e4e"/><stop offset=".41" stop-color="#ba9759"/><stop offset=".6" stop-color="#c4a56b"/><stop offset=".78" stop-color="#d3ba85"/><stop offset=".95" stop-color="#e5d5a6"/><stop offset="1" stop-color="#ebddb0"/></linearGradient><linearGradient id="o" x1="141.53" y1="74.49" x2="147.11" y2="68.91" xlink:href="#Aq"><stop offset="0" stop-color="#9b773d"/><stop offset=".21" stop-color="#a78144"/><stop offset=".52" stop-color="#af8949"/><stop offset="1" stop-color="#b28b4a"/></linearGradient><linearGradient id="p" x1="34.739" y1="53.054" x2="44.606" y2="48.967" xlink:href="#Aq"><stop offset="0" stop-color="#9b773d"/><stop offset="1" stop-color="#bea171"/></linearGradient><linearGradient id="q" x1="49.509" y1="46.406" x2="49.509" y2="34.045" xlink:href="#Aq"><stop offset="0" stop-color="#b99926"/><stop offset="1" stop-color="#9b773d"/></linearGradient><linearGradient id="r" x1="73.042" y1="20.778" x2="87.184" y2="12.578" xlink:href="#Aq"><stop offset="0" stop-color="#ceb766"/><stop offset=".28" stop-color="#dccd94"/><stop offset=".53" stop-color="#eae1bf"/><stop offset=".76" stop-color="#dbcb91"/><stop offset="1" stop-color="#ceb766"/></linearGradient><linearGradient id="s" x1="84.619" y1="16.334" x2="99.75" y2="16.308" xlink:href="#Aq"><stop offset="0" stop-color="#eae1bf"/><stop offset=".2" stop-color="#b99926"/><stop offset=".23" stop-color="#bb9c2c"/><stop offset=".41" stop-color="#c3a845"/><stop offset=".59" stop-color="#c9b058"/><stop offset=".79" stop-color="#cdb562"/><stop offset="1" stop-color="#ceb766"/></linearGradient><linearGradient id="t" x1="102.087" y1="17.006" x2="112.99" y2="21.519" xlink:href="#Aq"><stop offset="0" stop-color="#ceb766"/><stop offset=".19" stop-color="#d7c584"/><stop offset=".4" stop-color="#dfd19d"/><stop offset=".59" stop-color="#e4d8ad"/><stop offset=".74" stop-color="#e6dbb2"/></linearGradient><linearGradient id="u" x1="111.64" y1="20.734" x2="125.625" y2="26.52" xlink:href="#Aq"><stop offset="0" stop-color="#f2e8ca"/><stop offset=".23" stop-color="#bb9649"/><stop offset="1" stop-color="#ceb766"/></linearGradient><linearGradient id="v" x1="127.57" y1="27.805" x2="135.977" y2="36.219" xlink:href="#Aq"><stop offset="0" stop-color="#ceb766"/><stop offset=".21" stop-color="#cfb969"/><stop offset=".39" stop-color="#d2be74"/><stop offset=".56" stop-color="#d8c686"/><stop offset=".73" stop-color="#e0d29f"/><stop offset=".82" stop-color="#e6dbb2"/><stop offset=".89" stop-color="#e5dab0"/><stop offset=".93" stop-color="#e3d6a7"/><stop offset=".96" stop-color="#decf99"/><stop offset=".98" stop-color="#d8c685"/><stop offset="1" stop-color="#d2bd73"/></linearGradient><linearGradient id="w" x1="134.938" y1="35.199" x2="145.682" y2="45.936" xlink:href="#Aq"><stop offset="0" stop-color="#e7d59e"/><stop offset=".08" stop-color="#cdb57d"/><stop offset=".18" stop-color="#b2935a"/><stop offset=".27" stop-color="#a17f45"/><stop offset=".32" stop-color="#9b773d"/><stop offset=".47" stop-color="#9f7c41"/><stop offset=".64" stop-color="#aa8a4d"/><stop offset=".83" stop-color="#bda260"/><stop offset="1" stop-color="#d4bf78"/></linearGradient><linearGradient id="x" x1="150.988" y1="57.71" x2="156.886" y2="71.961" xlink:href="#Aq"><stop offset="0" stop-color="#dec67b"/><stop offset=".08" stop-color="#c7ab66"/><stop offset=".18" stop-color="#af8f50"/><stop offset=".27" stop-color="#a07d42"/><stop offset=".33" stop-color="#9b773d"/><stop offset=".53" stop-color="#a07d45"/><stop offset=".84" stop-color="#ac8d5c"/><stop offset="1" stop-color="#b4976b"/></linearGradient><linearGradient id="y" x1="145.518" y1="56.979" x2="152.59" y2="49.91" xlink:href="#Aq"><stop offset="0" stop-color="#d2bd73"/><stop offset=".24" stop-color="#d8c585"/><stop offset=".7" stop-color="#e6dbb2"/><stop offset=".77" stop-color="#e2d5a6"/><stop offset=".89" stop-color="#d9c787"/><stop offset="1" stop-color="#ceb766"/></linearGradient><linearGradient id="z" x1="48.33" y1="30.16" x2="59.03" y2="19.45" xlink:href="#Aq"><stop offset="0" stop-color="#eae1bf"/><stop offset=".92" stop-color="#d8ba60"/><stop offset="1" stop-color="#d2bd73"/></linearGradient><linearGradient id="AA" x1="57.777" y1="23.032" x2="71.999" y2="17.055" xlink:href="#Aq"><stop offset="0" stop-color="#e5d8ad"/><stop offset=".37" stop-color="#c6ab4d"/><stop offset=".57" stop-color="#d3bf77"/><stop offset=".67" stop-color="#dbca8f"/><stop offset=".77" stop-color="#dac88b"/><stop offset=".87" stop-color="#d6c380"/><stop offset=".97" stop-color="#d0ba6c"/><stop offset="1" stop-color="#ceb766"/></linearGradient><linearGradient id="AB" x1="30.22" y1="33.87" x2="51.38" y2="33.87" xlink:href="#Aq"><stop offset="0" stop-color="#e6dbb2"/><stop offset=".06" stop-color="#e3d6a7"/><stop offset=".16" stop-color="#d9c88a"/><stop offset=".29" stop-color="#cbb25c"/><stop offset=".33" stop-color="#c6ab4d"/><stop offset=".43" stop-color="#c9b057"/><stop offset=".61" stop-color="#d2bd72"/><stop offset=".85" stop-color="#e0d19e"/><stop offset="1" stop-color="#eae1bf"/></linearGradient><linearGradient id="AC" x1="28.17" y1="46.14" x2="36.24" y2="38.07" xlink:href="#Aq"><stop offset="0" stop-color="#e2d5a6"/><stop offset="1" stop-color="#af8d52"/></linearGradient><linearGradient id="AD" x1="23.321" y1="60.48" x2="24.295" y2="49.452" xlink:href="#Aq"><stop offset="0" stop-color="#b99926"/><stop offset=".04" stop-color="#c5ab4c"/><stop offset=".08" stop-color="#d3be76"/><stop offset=".12" stop-color="#dbcb8f"/><stop offset=".14" stop-color="#decf99"/><stop offset=".2" stop-color="#d7c28f"/><stop offset=".27" stop-color="#d2b988"/><stop offset=".55" stop-color="#efe7cc"/><stop offset=".69" stop-color="#e9dfbb"/><stop offset=".86" stop-color="#e4d8ab"/><stop offset="1" stop-color="#e2d5a6"/></linearGradient><linearGradient id="AE" x1="17.222" y1="71.597" x2="21.528" y2="61.054" xlink:href="#Aq"><stop offset="0" stop-color="#cab159"/><stop offset="1" stop-color="#9b773d"/></linearGradient><linearGradient id="AF" x1="9.503" y1="84.811" x2="21.781" y2="97.089" xlink:href="#Aq"><stop offset="0" stop-color="#d2bd73"/><stop offset=".09" stop-color="#c3a861"/><stop offset=".19" stop-color="#b69753"/><stop offset=".32" stop-color="#ad8c49"/><stop offset=".5" stop-color="#a88544"/><stop offset="1" stop-color="#a78342"/></linearGradient><linearGradient id="AG" x1="16.807" y1="86.079" x2="16.807" y2="73.839" xlink:href="#Aq"><stop offset="0" stop-color="#cab159"/><stop offset="0" stop-color="#cbb35c"/><stop offset=".03" stop-color="#d5c17b"/><stop offset=".06" stop-color="#dccd93"/><stop offset=".09" stop-color="#e2d5a5"/><stop offset=".13" stop-color="#e5d9af"/><stop offset=".17" stop-color="#e6dbb2"/><stop offset=".33" stop-color="#e3d6a7"/><stop offset=".61" stop-color="#dac88b"/><stop offset=".97" stop-color="#cbb35c"/><stop offset="1" stop-color="#cab159"/></linearGradient><linearGradient id="AH" x1="25.097" y1="71.078" x2="35.887" y2="71.078" xlink:href="#Aq"><stop offset="0" stop-color="#bb9549"/><stop offset="1" stop-color="#9b773d"/></linearGradient><linearGradient id="AI" x1="35.76" y1="62.565" x2="35.767" y2="51.71" xlink:href="#Aq"><stop offset="0" stop-color="#e2d5a6"/><stop offset=".27" stop-color="#c9b481"/><stop offset=".58" stop-color="#b0935c"/><stop offset=".84" stop-color="#a17e45"/><stop offset="1" stop-color="#9b773d"/></linearGradient><linearGradient id="AJ" x1="26.981" y1="82.714" x2="29.891" y2="75.667" xlink:href="#Aq"><stop offset="0" stop-color="#e2d5a6"/><stop offset=".18" stop-color="#e0d1a1"/><stop offset=".41" stop-color="#d9c691"/><stop offset=".66" stop-color="#ceb577"/><stop offset=".93" stop-color="#bf9c53"/><stop offset="1" stop-color="#bb9549"/></linearGradient><linearGradient id="AK" x1="41.94" y1="60.68" x2="74.67" y2="60.68" xlink:href="#Aq"><stop offset="0" stop-color="#727599"/><stop offset=".54" stop-color="#74779a"/><stop offset=".73" stop-color="#7b7d9f"/><stop offset=".87" stop-color="#8689a8"/><stop offset=".98" stop-color="#9799b4"/><stop offset="1" stop-color="#9b9db7"/></linearGradient><linearGradient id="AL" x1="86.82" y1="129.24" x2="86.82" y2="139.66" xlink:href="#Aq"><stop offset="0" stop-color="#b9bbcd"/><stop offset=".09" stop-color="#b5b7ca"/><stop offset=".66" stop-color="#9b9db7"/><stop offset="1" stop-color="#9194b0"/></linearGradient><linearGradient id="AM" x1="79.83" y1="47.61" x2="77.89" y2="34.33" xlink:href="#Aq"><stop offset=".28" stop-color="#9b9db7"/><stop offset=".59" stop-color="#8385a6"/><stop offset=".85" stop-color="#73769b"/></linearGradient><linearGradient id="AN" x1="101.87" y1="93.36" x2="143.86" y2="71.9" xlink:href="#Aq"><stop offset=".28" stop-color="#9b9db7"/><stop offset=".68" stop-color="#8385a6"/><stop offset="1" stop-color="#73769b"/></linearGradient><linearGradient id="AO" x1="72.6" y1="76.01" x2="72.6" y2="134.64" xlink:href="#Aq"><stop offset=".28" stop-color="#60bfec"/><stop offset=".45" stop-color="#63a1cc"/><stop offset=".68" stop-color="#677ba4"/><stop offset=".8" stop-color="#696c94"/></linearGradient><linearGradient id="AP" x1="63.67" y1="75.45" x2="63.67" y2="134.09" xlink:href="#Aq"><stop offset=".28" stop-color="#9ed3f2"/><stop offset=".36" stop-color="#9cc9e8"/><stop offset=".68" stop-color="#94a3c0"/><stop offset=".85" stop-color="#9194b0"/></linearGradient><linearGradient id="AQ" x1="41.88" y1="88.64" x2="92.47" y2="88.64" xlink:href="#Aq"><stop offset="0" stop-color="#8da4cd"/><stop offset=".77" stop-color="#99add2"/></linearGradient><linearGradient id="AR" x1="100.54" y1="74.05" x2="134.05" y2="65.07" xlink:href="#Aq"><stop offset="0" stop-color="#bfcae3"/><stop offset=".26" stop-color="#b8c5e0"/><stop offset=".63" stop-color="#a6b7d8"/><stop offset="1" stop-color="#8da4cd"/></linearGradient><linearGradient id="AS" x1="94.63" y1="48.97" x2="128.07" y2="43.07" xlink:href="#Aq"><stop offset="0" stop-color="#bac6e0"/><stop offset=".28" stop-color="#b3c1dd"/><stop offset=".68" stop-color="#a1b3d5"/><stop offset="1" stop-color="#8da4cd"/></linearGradient><linearGradient id="AT" x1="38.4" y1="106.02" x2="72.61" y2="70.88" xlink:href="#Aq"><stop offset="0" stop-color="#223a73" stop-opacity=".7"/><stop offset=".44" stop-color="#223a73" stop-opacity=".64"/><stop offset="1" stop-color="#223a73" stop-opacity=".5"/></linearGradient><linearGradient id="AU" x1="79.29" y1="88.45" x2="105.09" y2="88.45" xlink:href="#AT"/><linearGradient id="AV" x1="128.4" y1="104.03" x2="111.68" y2="67.33" xlink:href="#Aq"><stop offset="0" stop-color="#223a73" stop-opacity=".5"/><stop offset=".56" stop-color="#223a73" stop-opacity=".64"/><stop offset="1" stop-color="#223a73" stop-opacity=".7"/></linearGradient><linearGradient id="AW" x1="73.47" y1="87.85" x2="44.65" y2="87.85" xlink:href="#Aq"><stop offset=".09" stop-color="#bfbfbf" stop-opacity=".7"/><stop offset=".25" stop-color="#c2c2c2" stop-opacity=".72"/><stop offset=".47" stop-color="#c9c9c9" stop-opacity=".78"/><stop offset=".72" stop-color="#d5d5d5" stop-opacity=".87"/><stop offset="1" stop-color="#e6e6e6"/></linearGradient><linearGradient id="AX" x1="44.18" y1="104.75" x2="44.18" y2="103.57" xlink:href="#Aq"><stop offset="0" stop-color="#b2b2b2" stop-opacity=".7"/><stop offset=".04" stop-color="#b5b5b5" stop-opacity=".72"/><stop offset=".34" stop-color="#cacaca" stop-opacity=".84"/><stop offset=".61" stop-color="#d9d9d9" stop-opacity=".93"/><stop offset=".84" stop-color="#e3e3e3" stop-opacity=".98"/><stop offset="1" stop-color="#e6e6e6"/></linearGradient><linearGradient id="AY" x1="114.73" y1="104.73" x2="114.73" y2="103.11" xlink:href="#AX"/><linearGradient id="AZ" x1="90.23" y1="106.05" x2="90.23" y2="87.19" xlink:href="#AX"/><linearGradient id="Aa" x1="100.76" y1="74.09" x2="83.62" y2="74.09" xlink:href="#Aq"><stop offset="0" stop-color="#bfbfbf" stop-opacity=".7"/><stop offset=".3" stop-color="#cfcfcf" stop-opacity=".82"/><stop offset=".59" stop-color="#dcdcdc" stop-opacity=".92"/><stop offset=".83" stop-color="#e3e3e3" stop-opacity=".98"/><stop offset="1" stop-color="#e6e6e6"/></linearGradient><linearGradient id="Ab" x1="127.64" y1="89.07" x2="114.26" y2="89.07" xlink:href="#AX"/><linearGradient id="Ac" x1="135.23" y1="77.45" x2="114.26" y2="77.45" xlink:href="#AX"/><radialGradient id="Ad" cx="86.95" cy="86.96" fx="64.989" r="56.19" xlink:href="#Aq"><stop offset=".09" stop-color="#60bfec"/><stop offset=".55" stop-color="#217ab6"/><stop offset=".82" stop-color="#005699"/></radialGradient><radialGradient id="Ae" cx="85.96" cy="87.05" fx="70.176" fy="40.103" r="58.81" xlink:href="#Aq"><stop offset=".32" stop-color="#0fb3e8"/><stop offset=".48" stop-color="#0a86b9"/><stop offset=".67" stop-color="#055283"/><stop offset=".81" stop-color="#013161"/><stop offset=".89" stop-color="#002554"/></radialGradient><radialGradient id="Af" cx="67.42" cy="67.53" r="82.88" xlink:href="#Aq"><stop offset="0" stop-color="#cdd5e9"/><stop offset=".08" stop-color="#c4cee5"/><stop offset=".49" stop-color="#9aaed2"/><stop offset=".81" stop-color="#809ac6"/><stop offset="1" stop-color="#7693c2"/></radialGradient><radialGradient id="Ag" cx="67.96" cy="67.6" xlink:href="#Af"/><radialGradient id="Ah" cx="67.43" r="82.87" xlink:href="#Af"/><radialGradient id="Ai" xlink:href="#Af"/><radialGradient id="Aj" cx="67.38" cy="69" r="82.24" xlink:href="#Af"/><radialGradient id="Ak" cx="87.86" cy="87.51" fx="56.202" fy="43.592" r="54.97" xlink:href="#Aq"><stop offset=".36" stop-color="#7ad2e8"/><stop offset=".46" stop-color="#6db4d1"/><stop offset=".72" stop-color="#50739d"/><stop offset=".9" stop-color="#3e4b7c"/><stop offset="1" stop-color="#373b70"/></radialGradient><path id="Al" d="M93.89 134a9.43 9.43 0 0 1 3.34.33 15.26 15.26 0 0 1 1.86-.64 15 15 0 0 1 5.53 1.33 17.73 17.73 0 0 1 2.46 1.24l-2.44 1.07a43 43 0 0 1-13.57 2.92 52.46 52.46 0 0 1-22.9-3.36 8.09 8.09 0 0 1-1.62-.68 4.08 4.08 0 0 1 3.13-1.78l2.33-.36a13.05 13.05 0 0 1 3.89.67 7.66 7.66 0 0 1 1.91.18 4.73 4.73 0 0 0 3.07-2 2.22 2.22 0 0 0 .62-1.24 3.14 3.14 0 0 1 1.85-2.22c.09 0 .33 0 .22.3a11.29 11.29 0 0 0-.58 1.4.93.93 0 0 0 .2.8 6.33 6.33 0 0 1 .65 2 3.6 3.6 0 0 0 2.73 1.39c.78 0 1.4.28 2.12.37a.8.8 0 0 0 .58-.07z"/><path id="Am" d="M82.55 42.71a3.44 3.44 0 0 1 .26-.85 1.45 1.45 0 0 0 .2-1.33 1.62 1.62 0 0 0-.36-.52c-.4-.29-1-.5-1.21-.95a3.88 3.88 0 0 1 .56-1.28A3.57 3.57 0 0 1 80.18 36a.22.22 0 0 0-.31-.15c-.2-.18 0-.42.07-.65a1.22 1.22 0 0 1-.58.08l-.13.11-2.36.3a1.55 1.55 0 0 1-1.13.15.37.37 0 0 0-.36.11 6.47 6.47 0 0 0-1.1 2.48c0 .06-.08.33.13.22.16.11.19.34.38.4s.54 0 .68 0 .34 0 .31.16a1.44 1.44 0 0 1-.33.74 2.09 2.09 0 0 0-.28 1.91 1.79 1.79 0 0 1 .08 1.21 1.19 1.19 0 0 0 0 .87 8.64 8.64 0 0 0 .66 1 2.9 2.9 0 0 0 1.18 1.35l2.93.93a.4.4 0 0 0 .38-.22l.81-1.31a16.42 16.42 0 0 0 1.34-2.98z"/><path id="An" d="M62.42 75.48a3.34 3.34 0 0 0-1.6-.09l-.18.06a2.61 2.61 0 0 0-1.22 1.3 1.1 1.1 0 0 0 1.18.71l3.83-.55c.95.16 1.72.45 2.59.67a1.38 1.38 0 0 0 .56-.06c.17 0 .38-.17.35-.35a1.57 1.57 0 0 0-.69-1.08l-2.46-.62z"/><path id="Ao" d="M69.95 76.9v.8l-1.79.39 1.39.4h2.19l1.59.6-1-1.59-.79-1-1.59.4z"/><path id="Ap" d="M140 82.19a65.08 65.08 0 0 0-1.11-7.36 100 100 0 0 0-3.26-9.91c-1.11-2.39-2.71-5.05-2.71-5.05l-.74.15s.37 1.16-.73.93-3.77-1.55-3.92-.85a3.9 3.9 0 0 0 .22 1.93c.15.47 1.18 1.63.15 1.4l-2.44-.47a3 3 0 0 0-2.46-1.24c-1.63.08-3-.15-3.18-1s-1.18-2.17-5.17-2.4a6.57 6.57 0 0 0-5.76 2.32s-1.18 1.78-2.36 1.94-2.37.07-2.89.23a8.23 8.23 0 0 0-.7 3.09 6.31 6.31 0 0 0-1 3.3l-.56 3.79a19.42 19.42 0 0 0-.07 3.25 2.89 2.89 0 0 0 1.82 2.7l.72.74c.4.54.63 1.24 1 1.77.74 1 1.45 2.1 3 2.23a8.14 8.14 0 0 0 3.19-.42 6.29 6.29 0 0 0 2.88-.71c1.15-.34 2-1 3.47-1a1.49 1.49 0 0 1 .6.21c1 .48 1.27 1.7 1.59 2.85a4 4 0 0 0 1.17 2.56 29.43 29.43 0 0 1 1.06 4.28c.21.86.55 2.19 0 2.9a1.9 1.9 0 0 0-.42 1.43l1.46 3.51a7.52 7.52 0 0 1-.5 2.46 27.89 27.89 0 0 0 .57 4.6 18 18 0 0 1-.66 2.76.67.67 0 0 0 .32.79l5.68-.52a2.06 2.06 0 0 0 1.1-.36 5.51 5.51 0 0 1 2-2.6 5.07 5.07 0 0 1 1.05-2.1c.47-.51 1.13-.84 1.61-1.36.34-1.14.44-2.49.86-3.48s4.81-5.12 4.81-5.12a47 47 0 0 0 .31-12.17z"/><linearGradient id="Aq" gradientUnits="userSpaceOnUse"/></defs><path d="M246.1 84.11c-5.31 0-7.73 3.67-7.73 7.12a6.37 6.37 0 0 0 1.85 4.77 6.2 6.2 0 0 0 4.37 1.62 5.82 5.82 0 0 0 5.34-3.25.51.51 0 0 0-.58-.45 3.88 3.88 0 0 1-3.54 1.92 5.25 5.25 0 0 1-5.14-5.47c0-3.38 2.17-5.14 4.4-5.14a4.39 4.39 0 0 1 3.2 1.69.54.54 0 0 0 .44.23c.39 0 .71-.61.71-1.19a1.81 1.81 0 0 0-.48-1.27 8.07 8.07 0 0 0-2.84-.54m-21.24 9.41c0 2.29 0 2.61-1.21 2.77l-.67.1a.57.57 0 0 0 .06.8 44.05 44.05 0 0 1 3-.1c1.14 0 2.05 0 2.91.1a.56.56 0 0 0 .06-.8l-.57-.1c-1.15-.19-1.22-.48-1.22-2.77v-4.89a2.73 2.73 0 0 1 .48-1.92 3.51 3.51 0 0 1 2.72-1.11c2.17 0 3 1.34 3 3.16v4.76c0 2.29 0 2.58-1.21 2.77l-.61.1a.57.57 0 0 0 .06.8c.87-.06 1.82-.1 3-.1s2.05 0 3 .1a.56.56 0 0 0 .07-.8l-.71-.1c-1.14-.16-1.21-.48-1.21-2.77v-5.5c0-2.14-1.08-4-3.73-4a8.74 8.74 0 0 0-4.47 1.62.34.34 0 0 1-.36-.35 14.42 14.42 0 0 1 .07-1.49.39.39 0 0 0-.35-.23 17.12 17.12 0 0 1-3.19 1.56.45.45 0 0 0 0 .58l.22.25c.86.57.86.73.86 2zm-18.52-16.35a1.66 1.66 0 1 0 1.6 1.66 1.6 1.6 0 0 0-1.6-1.66m-1.05 16.35c0 2.29 0 2.61-1.21 2.77l-.67.1a.56.56 0 0 0 .06.8 43.82 43.82 0 0 1 3-.1c1.15 0 2 0 3 .1a.56.56 0 0 0 .06-.8l-.67-.1c-1.15-.16-1.21-.48-1.21-2.77v-5.75c0-1.31.06-2.84.13-4 0-.13-.16-.19-.32-.19a20.87 20.87 0 0 1-3.29 1.56.44.44 0 0 0 0 .58l.29.19c.86.57.86.73.86 2zm-7.03-9.45c-5.3 0-7.72 3.67-7.72 7.12a6.37 6.37 0 0 0 1.85 4.77 6.19 6.19 0 0 0 4.37 1.62 5.81 5.81 0 0 0 5.33-3.25.5.5 0 0 0-.57-.45A3.9 3.9 0 0 1 198 95.8a5.26 5.26 0 0 1-5.14-5.47c0-3.38 2.18-5.14 4.41-5.14a4.35 4.35 0 0 1 3.19 1.69.57.57 0 0 0 .45.23c.38 0 .7-.61.7-1.19a1.77 1.77 0 0 0-.48-1.27 8 8 0 0 0-2.84-.54m-9.45 7.63c0-3-2-4.89-4-6.13L182.3 84c-1.18-.73-2.72-2.07-2.72-3.93 0-1.47.67-3.54 3.8-3.54s3.93 2.07 4.35 3.6c.16.2.67.1.79-.09a13.81 13.81 0 0 0-.57-3.89 4.58 4.58 0 0 1-1.11-.19 12.11 12.11 0 0 0-3-.42c-4.15 0-6.51 2.46-6.51 5.49 0 2.62 1.85 4.44 3.45 5.49l3 2c2.34 1.5 2.62 3.07 2.62 4.48a3.63 3.63 0 0 1-4 3.67c-3.71 0-5-3.13-5.49-4.76-.13-.19-.61-.13-.77.09a15.11 15.11 0 0 0 .86 4.48 10 10 0 0 0 5 1.17c4.16 0 6.8-2.39 6.8-5.9m72.72 2.48a3.43 3.43 0 0 1-2.94 1.57c-3.42 0-5.3-2.75-5.3-6 0-.8 0-.86.86-.86h5.91c1.34 0 1.79 0 1.88-.22a1.89 1.89 0 0 0 .13-.83c0-1.92-1.78-3.8-4.53-3.8-3.84 0-6.42 3.29-6.42 7.21a6.79 6.79 0 0 0 1.34 4.16 5.73 5.73 0 0 0 4.63 2.1 5.58 5.58 0 0 0 5-3 .41.41 0 0 0-.56-.33zm-4.34-9.17c1.85 0 2.46 1.12 2.46 2 0 .41-.1.54-.2.61s-.95.31-3.32.31h-2.27c-.22 0-.22-.09-.22-.16.03-1.03 1.66-2.76 3.55-2.76zm-35.93 9.17a3.42 3.42 0 0 1-2.93 1.57c-3.42 0-5.31-2.75-5.31-6 0-.8 0-.86.87-.86h5.91c1.33 0 1.78 0 1.88-.22a2.06 2.06 0 0 0 .13-.83c0-1.92-1.79-3.8-4.54-3.8-3.83 0-6.41 3.29-6.41 7.21a6.79 6.79 0 0 0 1.34 4.16 5.71 5.71 0 0 0 4.63 2.1 5.58 5.58 0 0 0 5-3 .42.42 0 0 0-.57-.33zm-4.34-9.17c1.85 0 2.46 1.12 2.46 2 0 .41-.09.54-.19.61-.26.19-1 .31-3.32.31h-2.27c-.22 0-.22-.09-.22-.16.03-1.03 1.63-2.76 3.54-2.76z"/><path d="M153.11 80.12a83.56 83.56 0 0 1-10.81 11.36l1.63-.31c1.43-.14 3-.28 4 .84a8 8 0 0 1 .76 4.8c-.19 1.86-.31 6-2.07 8.08s-4.36 0-5.86-.76l-7.58-5.74-2.23 1.43a43.16 43.16 0 0 1 5.65 6.54c.09 2.16-2.53 1.38-3.8 2.06a38 38 0 0 1-7.21.12l-1.58 2.63a59.25 59.25 0 0 1 14.09 1.42c1.37.42 2.86.89 3.39 2.32.33 2.26-1.5 5.56-3.82 9.1a6.28 6.28 0 0 1-2.52 2.56c-2.61.87-4-1.66-5.13-2.95-2.36-3.9-4.9-7.62-6.37-11.91-.58.87-1.19 1.71-1.83 2.53a43.13 43.13 0 0 1 3.51 9.85c-.75 2-2.87.3-4.31.45a38.47 38.47 0 0 1-6.78-2.69c-.8.63-1.64 1.24-2.49 1.82a59.29 59.29 0 0 1 12.57 6.75c1.11.91 2.31 1.91 2.25 3.44-.35 1.37-1.29 3.28-4.48 5.29-1.71 1.11-3.74 2.68-6 2.46s-2.75-2.72-3.27-4.34c-.69-4.51-1.61-8.93-1.32-13.46a45.33 45.33 0 0 1-2.66 1.65 42.61 42.61 0 0 1-.54 10.45c-1.46 1.6-2.76-.82-4.15-1.23a37.93 37.93 0 0 1-5.15-5.05c-1 .27-2 .52-3 .73a59.06 59.06 0 0 1 9 11c.68 1.26 1.41 2.65.76 4a6.31 6.31 0 0 1-3.35 2.5c-1.11.39-6.2 1.18-6.34 1.21a5.57 5.57 0 0 1-3-.28c-1.46-.53-1.51-3.8-1.37-5.48a49.87 49.87 0 0 1 3.91-12.92c-1 .2-2 .37-3.07.5a42.7 42.7 0 0 1-4.49 9.43c-2 .91-2.24-1.82-3.36-2.73a37.39 37.39 0 0 1-2.88-6.59 44.39 44.39 0 0 1-3-.46 59.19 59.19 0 0 1 4.08 13.59c.14 1.43.28 3-.84 4-1 .6-4.82.6-8.24-.11-2.61-.55-5.08-1.69-5.42-2.29-.79-1.39.51-3.44 1.29-4.95 2.69-3.65 5.14-7.4 8.51-10.39a40.8 40.8 0 0 1-3-.72 43.3 43.3 0 0 1-7.72 7c-2.16.09-1.38-2.53-2.07-3.8a37.61 37.61 0 0 1-.11-7.25c-.9-.5-1.77-1-2.63-1.6a59.21 59.21 0 0 1-1.43 14.14c-.41 1.38-.88 2.87-2.31 3.4s-2.84-.28-4.27-.93c-.31-.15-5.4-3.39-7.05-5.37-2.12-2.55 1.66-4 3-5.13 3.87-2.33 7.56-4.85 11.79-6.32a45.9 45.9 0 0 1-2.51-1.82 43 43 0 0 1-9.88 3.44c-2-.74-.3-2.87-.45-4.31a38.81 38.81 0 0 1 2.63-6.66c-.63-.8-1.24-1.62-1.82-2.46a58.9 58.9 0 0 1-6.69 12.42c-.91 1.11-1.91 2.31-3.43 2.25-2-.49-3.69-2.94-5.06-4.62-1.21-1.88-2.62-3.26-3.17-5.73s2.76-3.24 4.68-3.61c4.45-.68 8.8-1.59 13.25-1.34-.56-.86-1.1-1.74-1.6-2.63a43.3 43.3 0 0 1-10.29-.55c-1.59-1.46.82-2.77 1.23-4.15 1.28-1.42 2.46-2.88 3.77-4.12-.74-.45-1.47-.92-2.2-1.39a59.91 59.91 0 0 1-8.26 6.31c-1.27.68-2.65 1.4-4 .76-1.5-1.12-2.33-3.41-2.94-5.4-.65-2.45-1.37-4.37-.65-7.2s4-1.68 5.71-1.54l1.1.27a84.77 84.77 0 0 1-11.1-11.63l-.12.28C18 84.28 14 85.26 9.7 85.12v3.82c4.8-.28 9.75 1.37 12 6.28.22.56.42 1.12.62 1.68 1.21 5 1.08 7.26.88 9.44-.9 4.62-4.24 7.07-8.25 8.58.47 1.17 1 2.57 1.45 3.54 4.33-2.1 9.53-2.47 13.45 1.23.92 1 1.81 2 2.67 3a14.74 14.74 0 0 1 3.06 6.76c.94 4.62-1.21 8.15-4.34 11.09l2.69 2.71c3.2-3.59 7.86-5.93 12.9-4a42 42 0 0 1 6.57 4.48c.78.75 1.52 1.5 2.2 2.22 2.64 3.9 2 8 .24 11.89 1.16.51 2.55 1.08 3.52 1.48 1.58-4.54 5-8.49 10.38-8.64a19.24 19.24 0 0 1 6.84 1.14 39.46 39.46 0 0 1 4.11 1.68c3.93 2.59 4.91 6.62 4.77 10.9h3.82c-.28-4.8 1.37-9.75 6.28-12a33.52 33.52 0 0 1 11-1.57c4.63.89 7.07 4.23 8.58 8.25l3.54-1.45c-2.09-4.33-2.47-9.53 1.23-13.45 2-2 7.49-4.83 9.49-5.61 4.61-.94 8.15 1.21 11.08 4.34l2.72-2.69c-3.6-3.2-5.93-7.86-4-12.89.63-1.4 4.48-6.76 4.74-7.14l2-2c3.9-2.63 8-2 11.9-.23l1.47-3.53c-4.54-1.57-8.48-5-8.64-10.37a23.19 23.19 0 0 1 2.66-10.7c2.59-3.92 6.61-4.9 10.9-4.77v-3.82c-4.23.3-8.64-.96-11.12-4.65z" fill="url(#A)"/><path d="M153.11 80.12a83.56 83.56 0 0 1-10.81 11.36l1.63-.31c1.43-.14 3-.28 4 .84a8 8 0 0 1 .76 4.8c-.19 1.86-.31 6-2.07 8.08s-4.36 0-5.86-.76l-7.58-5.74-2.23 1.43a43.16 43.16 0 0 1 5.65 6.54c.09 2.16-2.53 1.38-3.8 2.06a38 38 0 0 1-7.21.12l-1.58 2.63a57.85 57.85 0 0 1 10.82.79q1.64.27 3.27.63c1.37.42 2.86.89 3.39 2.32.33 2.26-1.5 5.56-3.82 9.1a6.28 6.28 0 0 1-2.52 2.56c-2.61.87-4-1.66-5.13-2.95l-1.41-2.3a48.6 48.6 0 0 1-5-9.61l-1.83 2.53a43.13 43.13 0 0 1 3.51 9.85c-.75 2-2.87.3-4.31.45a38.47 38.47 0 0 1-6.78-2.69l-2.49 1.82a59.29 59.29 0 0 1 12.57 6.75c1.11.91 2.31 1.91 2.25 3.44-.35 1.37-1.29 3.28-4.48 5.29-1.71 1.11-3.74 2.68-6 2.46s-2.75-2.72-3.27-4.34c-.69-4.51-1.61-8.93-1.32-13.46a45.33 45.33 0 0 1-2.66 1.65 42.61 42.61 0 0 1-.54 10.45c-1.46 1.6-2.76-.82-4.15-1.23a37.93 37.93 0 0 1-5.11-5.05c-1 .27-2 .52-3 .73a59.06 59.06 0 0 1 9 11c.68 1.26 1.41 2.65.76 4a6.31 6.31 0 0 1-3.35 2.5c-1.11.39-6.2 1.18-6.34 1.21a5.57 5.57 0 0 1-3-.28c-1.46-.53-1.51-3.8-1.37-5.48a49.87 49.87 0 0 1 3.91-12.92c-1 .2-2 .37-3.07.5a42.7 42.7 0 0 1-4.49 9.43c-2 .91-2.24-1.82-3.36-2.73a37.39 37.39 0 0 1-2.88-6.59 44.39 44.39 0 0 1-3-.46 59.19 59.19 0 0 1 4.08 13.59c.14 1.43.28 3-.84 4-1 .6-4.82.6-8.24-.11-2.61-.55-5.08-1.69-5.42-2.29-.79-1.39.51-3.44 1.29-4.95 2.69-3.65 5.14-7.4 8.51-10.39a40.8 40.8 0 0 1-3-.72 43.3 43.3 0 0 1-7.72 7c-2.16.09-1.38-2.53-2.07-3.8a37.61 37.61 0 0 1-.11-7.25c-.9-.5-1.77-1-2.63-1.6a59.21 59.21 0 0 1-1.43 14.14c-.41 1.38-.88 2.87-2.31 3.4s-2.84-.28-4.27-.93c-.31-.15-5.4-3.39-7.05-5.37-2.12-2.55 1.66-4 3-5.13 3.87-2.33 7.56-4.85 11.79-6.32a45.9 45.9 0 0 1-2.51-1.82 43 43 0 0 1-9.88 3.44c-2-.74-.3-2.87-.45-4.31a38.81 38.81 0 0 1 2.63-6.66c-.63-.8-1.24-1.62-1.82-2.46a58.9 58.9 0 0 1-6.69 12.42c-.91 1.11-1.91 2.31-3.43 2.25-2-.49-3.69-2.94-5.06-4.62-1.21-1.88-2.62-3.26-3.17-5.73s2.76-3.24 4.68-3.61c4.45-.68 8.8-1.59 13.25-1.34-.56-.86-1.1-1.74-1.6-2.63a43.3 43.3 0 0 1-10.29-.55c-1.59-1.46.82-2.77 1.23-4.15 1.28-1.42 2.46-2.88 3.77-4.12-.74-.45-1.47-.92-2.2-1.39a59.91 59.91 0 0 1-8.26 6.31c-1.27.68-2.65 1.4-4 .76-1.5-1.12-2.33-3.41-2.94-5.4-.65-2.45-1.37-4.37-.65-7.2s4-1.68 5.71-1.54l1.1.27a84.77 84.77 0 0 1-11.1-11.63l-.12.28C18 84.28 14 85.26 9.7 85.12v3.82c4.8-.28 9.75 1.37 12 6.28.22.56.42 1.12.62 1.68 1.21 5 1.08 7.26.88 9.44-.9 4.62-4.24 7.07-8.25 8.58.47 1.17 1 2.57 1.45 3.54 4.33-2.1 9.53-2.47 13.45 1.23.92 1 1.81 2 2.67 3a14.74 14.74 0 0 1 3.06 6.76c.94 4.62-1.21 8.15-4.34 11.09l2.69 2.71c3.2-3.59 7.86-5.93 12.9-4a42 42 0 0 1 6.57 4.48c.78.75 1.52 1.5 2.2 2.22 2.64 3.9 2 8 .24 11.89 1.16.51 2.55 1.08 3.52 1.48 1.58-4.54 5-8.49 10.38-8.64a19.24 19.24 0 0 1 6.84 1.14 39.46 39.46 0 0 1 4.11 1.68c3.93 2.59 4.91 6.62 4.77 10.9h3.82c-.28-4.8 1.37-9.75 6.28-12a33.52 33.52 0 0 1 11-1.57c4.63.89 7.07 4.23 8.58 8.25l3.54-1.45c-2.09-4.33-2.47-9.53 1.23-13.45 2-2 7.49-4.83 9.49-5.61 4.61-.94 8.15 1.21 11.08 4.34l2.72-2.69c-3.6-3.2-5.93-7.86-4-12.89.63-1.4 4.48-6.76 4.74-7.14l2-2c3.9-2.63 8-2 11.9-.23l1.47-3.53c-4.54-1.57-8.48-5-8.64-10.37a23.19 23.19 0 0 1 2.66-10.7c2.59-3.92 6.61-4.9 10.9-4.77v-3.82c-4.23.3-8.64-.96-11.12-4.65z" style="mix-blend-mode:multiply" opacity=".27" fill="url(#B)"/><path d="M158.92 58.94l-1.45-3.54c-4.32 2.1-9.53 2.47-13.44-1.22a28.27 28.27 0 0 1-4.27-6.42c-.5-1.13-.94-2.23-1.34-3.27-.94-4.61 1.21-8.15 4.33-11.08l-2.69-2.72c-3.19 3.59-7.86 5.93-12.89 4-1-.44-7.08-4.39-8.7-6.77-2.63-3.9-2-8-.23-11.9l-3.53-1.48c-1.58 4.54-5 8.49-10.37 8.65a21.65 21.65 0 0 1-10.74-2.57C89.67 18 88.69 14 88.83 9.72H85c.28 4.8-1.37 9.75-6.28 12-3.92 1.51-8.72 1.47-11.07 1.41-4.62-.89-7.06-4.23-8.58-8.24-1.17.46-2.56 1-3.53 1.44 2.09 4.33 2.47 9.53-1.23 13.45a18.27 18.27 0 0 1-3.72 3.11 17.43 17.43 0 0 1-6.12 2.68c-4.61.94-8.15-1.21-11.08-4.34l-2.72 2.7c3.6 3.19 5.93 7.86 4 12.89-.15.33-4.1 6.72-6.63 8.6-3.9 2.64-8 2-11.89.24l-1.48 3.52c4.54 1.58 8.49 5 8.64 10.38a33.63 33.63 0 0 1-1.06 7.12 16.65 16.65 0 0 1-1.55 3.39A84.77 84.77 0 0 0 31.82 91.7c4 1 8 1.79 11.64 3.56a44.39 44.39 0 0 1-.46-3 42.4 42.4 0 0 1-9.29-4.44c-.91-2 1.81-2.24 2.72-3.36A38.58 38.58 0 0 1 43 81.55c.12-1 .29-2 .48-3a59 59 0 0 1-13.58 4.08c-1.43.14-3 .28-4-.84-.73-1.23-.43-2.9-.24-4.56.13-1.1 1.3-8.17 2.63-8.71s3.36.28 4.87 1.06c3.66 2.7 7.43 5.16 10.42 8.55a46.84 46.84 0 0 1 .74-3 42.4 42.4 0 0 1-7-7.76c-.09-2.16 2.54-1.38 3.81-2.06a37.07 37.07 0 0 1 7.35-.11c.52-.9 1.06-1.78 1.64-2.64a58.92 58.92 0 0 1-14.29-1.43c-1.38-.41-2.87-.88-3.4-2.31-.26-1.79.69-3.9 1.63-5.7.16-.23 2.6-4.34 4.67-5.12s4 1.33 5 2.63c2.36 3.89 4.9 7.61 6.37 11.89.57-.86 1.18-1.7 1.82-2.52a42.89 42.89 0 0 1-3.5-9.84c.75-2 2.87-.3 4.31-.45a36.94 36.94 0 0 1 6.75 2.67c.8-.64 1.63-1.24 2.47-1.82a59.54 59.54 0 0 1-12.52-6.73c-1.11-.91-2.31-1.92-2.25-3.44a7.9 7.9 0 0 1 2.89-4c3.47-2.73 5.69-3.83 7.61-4 1.54-.17 3 2.77 3.55 4.39.68 4.48 1.6 8.87 1.33 13.36.86-.57 1.74-1.11 2.65-1.61a43.06 43.06 0 0 1 .53-10.39c1.47-1.59 2.77.82 4.15 1.23a37.75 37.75 0 0 1 5.24 5.07 46.52 46.52 0 0 1 3-.71 59.73 59.73 0 0 1-9-11c-.68-1.27-1.4-2.66-.77-4a8 8 0 0 1 3.66-2.36A42.18 42.18 0 0 1 78 25a6 6 0 0 1 3.27.3c1.61.66 1.37 3.77 1.23 5.46-1.09 4.4-1.92 8.8-3.88 12.84 1-.19 2-.35 3-.47a43 43 0 0 1 4.48-9.39c2-.91 2.24 1.82 3.36 2.73a37.88 37.88 0 0 1 2.89 6.69c1 .13 2 .29 3 .49A58.77 58.77 0 0 1 91.36 30c-.15-1.43-.29-3 .83-4a9 9 0 0 1 5-.75c3 .41 5.6 1 6.32 1.2a4.13 4.13 0 0 1 1.93 1.11c1 1-.3 4-1.07 5.54-2.75 3.74-5.25 7.58-8.74 10.6a7.84 7.84 0 0 1 1.75.4l1.3.34a43 43 0 0 1 7.92-7.19c2.16-.08 1.37 2.54 2.06 3.81a35.45 35.45 0 0 1 .09 7.48h-.09a7.69 7.69 0 0 1 2.25 1.4l.5.33v-.05a59.19 59.19 0 0 1 1.42-14.44c.42-1.37.88-2.86 2.32-3.39 1.64-.24 7 2.29 8.87 4 .86.7 2.32 1.66 2.49 3.43s-1.79 3-3.08 4.07c-3.92 2.37-7.66 4.93-12 6.39q1.27.85 2.49 1.8a43 43 0 0 1 9.92-3.54c2 .75.3 2.87.45 4.31a37.94 37.94 0 0 1-2.7 6.8c.64.81 1.25 1.63 1.83 2.48a59.15 59.15 0 0 1 6.75-12.58c.91-1.11 1.91-2.31 3.44-2.25 1.78.45 3.4 2.18 4.71 3.77 1.26 2 3.09 4.29 3.1 6.57s-2.78 3-4.39 3.56c-4.48.68-8.86 1.59-13.35 1.33.58.86 1.13 1.74 1.64 2.64a42.79 42.79 0 0 1 10.35.54c1.59 1.46-.82 2.76-1.23 4.15a38.15 38.15 0 0 1-5 5.15 46.73 46.73 0 0 1 .73 3A59.3 59.3 0 0 1 141.18 69c1.27-.68 2.65-1.4 4-.76a7.26 7.26 0 0 1 2.09 3c.24.72 2.24 6.1 1.16 9s-3.47 2.53-5.32 2.1c-4.38-1.08-8.77-1.91-12.81-3.86.2 1 .37 2 .5 3.06a43.42 43.42 0 0 1 9.37 4.46c.91 2-1.82 2.24-2.73 3.37a39.15 39.15 0 0 1-6.56 2.85 44.39 44.39 0 0 1-.46 3 59 59 0 0 1 11.88-3.74 83.56 83.56 0 0 0 10.81-11.36 10.37 10.37 0 0 1-.87-1.58 28.94 28.94 0 0 1-1.56-11c.89-4.64 4.23-7.09 8.24-8.6z" fill="url(#C)"/><path d="M16.72 115.17l.64 1.68c5.28-2.51 9.49-1 13 2.23a21.42 21.42 0 0 1 2.88 3.41l-1 .7a23.49 23.49 0 0 0-3.06-3.46c-4.71-4.4-10-2.26-12.29-1.12l-.43.21-.26-.63-1.38-3.34-.17-.42z" fill="url(#D)"/><path d="m14.66 114.43.42-.16c3.73-1.43 7-3 7.85-7.56.46-3-.27-7.58-1.16-10.49l1.23-.31c.88 3.11 1.73 8.26 1.29 11.17-.72 4.81-4 6.71-7.53 8.09Z" fill="url(#E)"/><path d="m32.68 140.46 1.28 1.3c3.92-4.34 8.18-5.37 12.66-3.7a17.9 17.9 0 0 1 4.16 2.47l-.75 1a18.79 18.79 0 0 0-3.89-2.3c-6-2.26-10.12 2.14-11.84 4.08l-.31.35-.48-.47c-.73-.73-1.36-1.42-2.19-2.26l-.32-.32Z" fill="url(#F)"/><path d="m31 140.57.33-.31c2.9-2.75 5.07-6.29 4-10.74a17.73 17.73 0 0 0-3.08-6.33l1-.7a19 19 0 0 1 3.27 6.78c1 4.76-1 8.45-3.83 11.19Z" fill="url(#G)"/><path d="M59.72 159.7l-.62-.25-3.34-1.39-.42-.18.18-.41c1.63-3.65 2.71-6.81.13-10.6a20.46 20.46 0 0 0-5.65-5.38l.75-1a23.8 23.8 0 0 1 6 5.79c2.75 4 2 7.13.45 10.74.89.38.92.43 1.72.75z" fill="url(#H)"/><path d="M59 157.81c2-5.51 5.7-7.72 10.48-7.89a29 29 0 0 1 4.73.59l-.3 1.19a31.24 31.24 0 0 0-4.58-.52c-6.45.22-8.57 5.63-9.41 8.08l-.16.44Z" fill="#9b773d"/><path d="M89.49 164.83h-4.74v-.45c.11-4-.14-7.64-4-10.15a18.72 18.72 0 0 0-7-2.54l.22-1.2a19.71 19.71 0 0 1 7.65 2.74c4.07 2.66 4.6 6.14 4.52 10.08h1.8Z" fill="url(#I)"/><path d="M88 163.32c-.09-5.82 2.19-8.95 6.47-11.13a22 22 0 0 1 4.82-1.54l.28 1.22a17.29 17.29 0 0 0-4.06 1.36c-5.87 2.67-6.19 8.55-6 11.13v.47Z" fill="#9a763c"/><path d="M119 158.06l-.62.26-3.34 1.38-.42.17-.16-.42c-1.43-3.73-2.88-7-7.39-7.84a17.82 17.82 0 0 0-7.64.28l-.32-1.21a21 21 0 0 1 8.31-.46c4.78.9 6.45 3.89 7.89 7.56.9-.37.87-.32 1.66-.65z" fill="url(#J)"/><g fill="#9b773d"><path d="M117 157.13c-2.51-5.28-1.42-9.41 1.84-12.91a25.08 25.08 0 0 1 3.6-2.94l.86 1.14a26.79 26.79 0 0 0-3.38 2.71c-4.4 4.71-2.23 10.18-1.09 12.5l.2.43Z"/><path d="m143.74 140.49-.47.48-2.56 2.56-.32.32-.31-.33c-2.75-2.9-5.5-5.3-10-4.36a17.21 17.21 0 0 0-6.8 3.27l-1-1.07a19.83 19.83 0 0 1 7.3-3.48c4.76-1 8 1 10.69 3.85.69-.69.69-.75 1.29-1.36Z"/></g><path d="M141.62 140.37c-4.34-3.92-4.86-8.07-3.19-12.55a27.47 27.47 0 0 1 2.29-4.38l1.1.64a25.47 25.47 0 0 0-2.17 4.08c-2.26 6 1.8 10.31 3.74 12l.35.31Z" fill="url(#K)"/><path d="M159.86 114.22l-.26.63-1.38 3.34-.18.41-.41-.18c-3.65-1.63-7.11-2.79-10.9-.21-2.43 1.78-3.39 3.44-4.91 5.87l-1.1-.64a19.41 19.41 0 0 1 5.2-6.16c4-2.74 7.65-2.37 11.26-.79l.66-1.58z" fill="url(#L)"/><path d="M157.84 114.91c-5.51-2-7.67-5.63-7.84-10.41a30.1 30.1 0 0 1 .26-4.47l1.29.23a26.76 26.76 0 0 0-.21 4.33c.22 6.45 5.63 8.64 8.08 9.48l.44.15Z" fill="url(#M)"/><path d="M164.47 84.16v4.75H164c-4-.11-7.66.24-10.16 4.07-1.57 2.58-1.83 4.47-2.3 7.29l-1.29-.23c.45-2.61.8-5.18 2.46-7.91 2.66-4.07 6.21-4.73 10.15-4.65V85.6Z" fill="#9b773d"/><path d="M162.85 85.59c-5.86.08-9.18-2.26-11.36-6.59a21.58 21.58 0 0 1-1.35-4.52l1.18-.21a18.69 18.69 0 0 0 1.3 4c2.67 5.87 8.79 6 11.38 5.88h.47Z" fill="url(#N)"/><path d="M33.44 92.21c-6.69-1.16-7.65-.42-8.06 1.29-.34 1.42.31 5.3.44 5.82l-1.11.27c-.1-.33-1.05-4.85-.44-6.65.74-2.2 2.45-3.13 9.06-2Z" fill="url(#O)"/><path d="M35.91 104c-.68.44-1.79 1-2.87 1.63-1.25.66-3.33 1.66-4.75.67h-.06c-1.78-1.09-3-4.21-3.52-6.71l1.11-.27c.47 1.88 1.64 5 3.07 6 1.26.56 2.42 0 3.58-.66a28.16 28.16 0 0 0 3-1.92Z" fill="url(#P)"/><path d="M39.52 112.36c-6.62 1.48-7.18 2.32-7 4.07s2.58 5.23 2.66 5.38l-.85.54c-.16-.18-2.82-3.95-2.95-5.84-.15-2.33 1.14-3.61 7.68-5.08Z" fill="url(#Q)"/><path d="M46.18 122.12c-.55.93-1.29 1.85-2 2.8-.9 1.1-2.16 2.53-4.07 2.37h-.01c-1.81-.2-4.33-2.81-5.8-4.93l.85-.54c1.1 1.53 3.58 4.16 5.11 4.44 1.38.12 2.29-1 3.13-2.07s1.5-2.05 2-3Z" fill="url(#R)"/><path d="M52.94 128.67c-5.55 3.9-5.93 4.76-5.08 6.3 1.09 2 4.5 4 4.62 4.13l-.55.89c-.12-.09-4.18-2.47-5.25-4.86-1-2.13 0-3.27 5.44-7.13Z" fill="url(#S)"/><path d="M62.65 135l-.75 3.39c-.43 1.71-1 3.6-2.81 4h-.06c-1.92.27-5.22-1.07-7.12-2.41l.57-.88c1.74 1.17 4.65 2.41 6.4 2.17 1.09-.2 1.65-2 2-3.25l.83-3.48z" fill="url(#T)"/><path d="M71.4 138.52c-3.62 5.73-3.37 6.52-2 7.64s5.15 1.93 5.63 2l-.16 1c-1.14-.12-5-1.06-6.41-2.3-1.75-1.54-1.62-2.94 2-8.61Z" fill="url(#U)"/><path d="M82.79 140.65a24.07 24.07 0 0 1 .73 3.57 4.75 4.75 0 0 1-1.22 4.17c-1.41 1.13-5.27 1-7.4.69l.14-1c1.87.31 5.6.29 6.65-.62.73-.53.92-2 .79-3.31a22.18 22.18 0 0 0-.77-3.67Z" fill="url(#V)"/><path d="M92.52 140.51c-1.16 6.69-.59 7.43 1.09 8s5.79-.45 6-.49l.24.89c-.28.11-4.86 1.27-6.93.53s-2.81-2.17-1.66-8.77Z" fill="url(#W)"/><path d="M103.86 138.08a23.11 23.11 0 0 1 2.08 2.94c.67 1.26 1.48 3 .77 4.52v.06c-1.05 1.67-4.58 2.79-6.83 3.28l-.22-.9c1.84-.43 5.15-1.59 6-3 .5-.8 0-2.3-.68-3.47a19.14 19.14 0 0 0-2-3.11Z" fill="url(#X)"/><path d="M112.44 134.38c1.49 6.62 2.29 7.09 4 6.94s5-2.42 5.34-2.68l.77.85c-.39.35-4.2 2.94-6.32 3-2.33.11-3.61-1-5.08-7.49Z" fill="url(#Y)"/><path d="M122.14 127.66l2.83 2c1.09.9 2.71 2.4 2.48 4.11v.06c-.48 1.88-3.1 4.4-4.86 5.65l-.79-.84c1.54-1.1 4.29-4 4.43-5s-.91-2.25-1.93-3.09a18.86 18.86 0 0 0-3-2.12z" fill="url(#Z)"/><path d="M128.76 120.82c3.78 4.85 4.77 5.61 6.33 4.79s3.72-4.49 3.82-4.62l1.06.83c-.09.11-2.7 4.29-4.4 5.13-2.09 1-3.63.19-7.49-5.29Z" fill="url(#a)"/><path d="M135.13 111a24.56 24.56 0 0 1 3.52.77c1.36.41 3.59 1.11 4 2.83v.06c.41 1.94-1.53 5.38-2.68 7.2l-1.05-.84c1-1.64 2.75-4.66 2.38-6s-1.95-1.76-3.22-2.14-2.4-.6-3.53-.78Z" fill="url(#b)"/><path d="M138.49 102.35c5.73 3.63 6.44 3.57 7.65 2.3S148 99 148 98.73l1.24.17c-.07.52-.81 5.36-2.06 6.78-1.54 1.76-3.46 1.6-9.12-2Z" fill="url(#c)"/><path d="M140.57 90.68l3.47-.5c1.41-.13 3.56-.24 4.6 1.18 1 1.67.94 5.38.58 7.51l-1.22-.14c.31-1.87.33-4.87-.46-6.36-.77-1.08-2.11-1.09-3.43-1l-3.66.58z" fill="url(#d)"/><path d="M61.74 39.57c-1.58-6.68-2.73-7.21-4.49-7S52.6 34.8 52.36 35l-.58-.89c.55-.45 3.8-2.58 5.69-2.71 2.33-.15 3.68 1.09 5.25 7.69Z" fill="url(#e)"/><path d="M70.36 35.91c-2-2.6-3.54-5.78-2.82-7.56v-.05c1.08-1.73 4.6-3.07 6.81-3.59l.23 1c-1.63.33-4.83 1.49-5.9 2.89-.7 1 .37 4 2.66 7Z" fill="url(#f)"/><path d="M81.49 33.58c1.06-6.57.51-7.72-1.17-8.24s-5.39.33-5.71.4l-.26-1c.26-.08 4.87-1.07 6.84-.35 2.19.79 2.44 2.59 1.4 9.09Z" fill="url(#g)"/><path d="M91.18 33.47c-.17-1.12-1.77-5.78.42-8h.05c1.62-1.34 6.34-.88 7.46-.68l-.18.93c-.9-.12-5.39-.55-6.52.58-1.6 1.6-.39 6.26-.2 7.28Z" fill="url(#h)"/><path d="M102.45 35.59c3.48-5.67 3.59-7.07 2.24-8.2s-5.1-1.6-5.76-1.69l.14-.94c1.19.12 5.07.77 6.5 2 1.75 1.54 1.39 3.5-2.06 9.1Z" fill="url(#i)"/><path d="M111.4 39.18l.84-3.38c.35-1.27 1-3.29 2.6-3.88h.07c2.17-.75 5.7 1.09 7.25 2.05l-.6.81c-.81-.52-4-2.58-6.26-1.9-1.28.5-1.78 2-2.16 3.23l-.9 3.53z" fill="url(#j)"/><path d="M120.84 45.33c5.39-3.9 6-5.19 5.17-6.75s-4.32-3.72-4.45-3.82l.6-.81c.31.2 4.08 2.55 4.92 4.25 1 2.09-.19 3.88-5.52 7.74Z" fill="url(#k)"/><path d="M127.67 52l2.19-2.85C131 47.92 132 46.9 133.71 47c2.27.21 4.81 2.69 6 4.52l-1 .67c-.82-1.28-2.91-3.86-5.21-4.08-1.11-.06-2.13 1-3 1.91s-1.65 2.17-2.18 2.86z" fill="url(#l)"/><path d="M134.21 61.46c6.48-1.55 6.92-2.55 6.76-4.3s-2-4.73-2.24-5l1-.67c.37.44 2.44 3.95 2.57 5.84.15 2.33-1.14 3.61-7.54 5.14Z" fill="url(#m)"/><path d="M140.41 81.47c6.27.93 7.44.36 8-1.32s-.2-4.75-.29-5.28l1.09-.3c0 .15.9 4.18.2 6.12-.8 2.19-2.38 2.88-8.88 1.84Z" fill="url(#n)"/><path d="M138 70.27l3-1.75c1.14-.75 3-1.49 4.58-.79l.3.17c2 1.06 2.85 4.9 3.27 6.67l-1.09.3c-.28-1.1-.88-5.14-2.83-6.16-1.26-.56-2.62.12-3.79.74l-3.13 1.86z" fill="url(#o)"/><path d="M45.27 53.11c-3.84-5.13-5.1-5.66-6.66-4.84s-3.43 4-3.53 4.13l-.9-.68c.12-.18 2.26-3.63 4-4.47 2.08-1 3.9-.49 7.83 5Z" fill="url(#p)"/><path d="M51.75 46.41l-2.81-2.12c-1.02-.8-2.71-2-2.5-3.95v-.06c.3-1.81 3.29-4.82 5.36-6.23l.55.91c-1.72 1.37-4.37 3.58-4.79 5.44-.17 1.21 1.1 2.16 2.12 3l2.91 2.3z" fill="url(#q)"/><path d="M86.24 11.22c-.36 5.94-2.51 9.08-6.87 11a22.94 22.94 0 0 1-4.78 1.47l-.26-1.13a26.2 26.2 0 0 0 4.3-1.35c5.89-2.64 6.21-8.66 6.06-11.25v-.47Z" fill="url(#r)"/><path d="M84.67 9.54h4.74V10c-.13 4 .1 7.64 3.93 10.16a17.84 17.84 0 0 0 6.46 2.54l-.26 1.14a19.33 19.33 0 0 1-7.06-2.69c-4-2.68-4.69-6-4.59-9.95h-1.65Z" fill="url(#s)"/><path d="M115.24 16.09c-2.22 5.44-6 8.11-10.81 8.26a26.2 26.2 0 0 1-4.89-.51l.2-1.15a23.46 23.46 0 0 0 4.68.39c6.44-.19 8.93-6 9.78-8.45l.16-.44Z" fill="url(#t)"/><path d="M114.36 14.19l.62.26 3.34 1.4.41.18-.18.41c-1.65 3.64-2.83 7.1-.26 10.89a20.12 20.12 0 0 0 5.07 4.67l-.68.94a24.06 24.06 0 0 1-5.42-5c-2.73-4-2-7.62-.45-11.22l-1.57-.65z" fill="url(#u)"/><path d="M139.91 32.26c-3.94 4.32-8.23 5-12.71 3.35a22.09 22.09 0 0 1-4.52-2.61l.68-.94a18.89 18.89 0 0 0 4.11 2.46c6 2.29 10.46-2.06 12.18-4l.32-.35Z" fill="url(#v)"/><path d="M140 30.17l.47.48 2.55 2.57.31.32-.33.31c-2.91 2.74-5.32 5.48-4.4 10a23.59 23.59 0 0 0 2.84 6.38l-.94.55a21.26 21.26 0 0 1-3.06-6.66c-1-4.76 1-7.75 3.82-10.47l-1.32-1.32z" fill="url(#w)"/><path d="M157.64 55l.26.63 1.37 3.35.17.42-.43.15c-3.74 1.41-7.11 3-8 7.47a20.48 20.48 0 0 0 .29 7.3l-1.18.21a20.77 20.77 0 0 1-.39-7.61c.92-4.77 4.08-6.85 7.76-8.27-.36-.91-.31-.9-.64-1.69z" fill="url(#x)"/><path d="M156.87 56.91c-5.29 2.48-9.73 1.47-13.22-1.8a26.42 26.42 0 0 1-3.18-4.36l.94-.55a20.73 20.73 0 0 0 3.09 4c4.69 4.42 10.39 2.11 12.72 1l.42-.21Z" fill="url(#y)"/><path d="M57 17.37c2.65 5.19 2 9.06-1.59 12.82a20.46 20.46 0 0 1-4 3l-.68-1a32.62 32.62 0 0 0 3.81-2.92c4.4-4.72 1.83-10.1.69-12.42l-.23-.43Z" fill="url(#z)"/><path d="M55 16.42l.63-.26 3.34-1.38.42-.17.16.42c1.43 3.73 3.05 7 7.56 7.85a21.17 21.17 0 0 0 7.23-.27l.26 1.13a20 20 0 0 1-7.73.42c-4.78-.9-6.81-3.82-8.25-7.49-.9.36-.87.37-1.66.7z" fill="url(#AA)"/><path d="M30.22 34.17l.48-.48 2.56-2.56.32-.31.31.32c2.75 2.9 5.55 5.16 10 4.22a22 22 0 0 0 6.78-3.17l.68 1a22.42 22.42 0 0 1-7.2 3.42c-4.76 1-7.69-.71-10.43-3.55-.69.68-.67.64-1.27 1.25z" fill="url(#AB)"/><path d="M32.48 34.33c4.34 3.92 4.74 8.27 3.07 12.75A18.51 18.51 0 0 1 33.28 51l-1.1-.8a17.76 17.76 0 0 0 2.16-3.85c2.27-6-1.82-10.11-3.77-11.82l-.35-.31Z" fill="url(#AC)"/><path d="M14.27 59.69l.26-.63 1.38-3.34.18-.41.41.18c3.65 1.63 7.14 2.65 10.83-.07a22.76 22.76 0 0 0 4.85-5.27l1.1.8c-1.66 2-2.67 3.74-5.25 5.63-4 2.74-7.37 2.24-11 .66l-.69 1.72z" fill="url(#AD)"/><path d="M16.35 59c5.51 2 8 5.87 8.18 10.65a25.08 25.08 0 0 1-.53 4.5l-1.29-.27a27.42 27.42 0 0 0 .5-4.25c-.22-6.44-6-8.91-8.49-9.75l-.45-.15Z" fill="url(#AE)"/><path d="M11.06 86.08v1.75c4 .36 7.06 1.52 9.13 3.5A10.54 10.54 0 0 1 23 95.91l-1.19.31a9.45 9.45 0 0 0-2.6-4.16 14.45 14.45 0 0 0-9.54-2.93V84.7Z" fill="url(#AF)"/><path d="M9.62 84.7h.45c4 .1 7.64-.15 10.14-4a17 17 0 0 0 2.5-6.9l1.29.27a20.75 20.75 0 0 1-2.69 7.53c-2.66 4.07-6.31 4.52-10.25 4.44Z" fill="url(#AG)"/><path d="M35.51 71.35c-5.73-3.62-6.4-3.4-7.53-2S26.3 74.84 26.26 75l-1.17-.29c0-.14.74-5 2-6.41 1.54-1.75 3.14-1.72 8.8 1.87Z" fill="url(#AH)"/><path d="M39.07 62.56l-3.35-.94c-1.36-.41-3.06-.83-3.64-2.41v-.06c-.55-2 .77-5.5 2.13-7.44l.9.68c-1.26 2.08-2.26 4.73-1.92 6.17.23 1.27 1.73 1.74 3 2.12l3.43.94z" fill="url(#AI)"/><path d="M33.31 83.08l-3.47.55c-1.36.15-3.33.23-4.48-1v-.05c-1.26-1.6-.59-5.75-.23-7.88l1.17.3c-.21 1.27-1.06 5.11 0 6.65.74 1 2.44.86 3.75.73l3.47-.51z" fill="url(#AJ)"/><path d="M140.18 87.05a53.25 53.25 0 1 1-53.24-53.24 53.25 53.25 0 0 1 53.24 53.24Z" fill="#fff"/><path d="M140.12 87.09A53.17 53.17 0 1 1 87 33.92a53.16 53.16 0 0 1 53.12 53.17Z" fill="url(#Ad)"/><circle cx="86.95" cy="87.05" r="53.17" style="mix-blend-mode:luminosity" opacity=".3" fill="url(#Ae)"/><path d="M61.33 85.22a4.74 4.74 0 0 0 2.78-.77l1.57-.82a1 1 0 0 1 1.24.26 1 1 0 0 0 1.24-.43 6.81 6.81 0 0 1 1-.92 7.55 7.55 0 0 0 1.14-.14 6.32 6.32 0 0 1 3.25 1.78 27.14 27.14 0 0 1 4.27 2.4 7.33 7.33 0 0 1 3.57 1.88c.27.9 1.14 1.19 2.22 1.19a16.26 16.26 0 0 1 2.46.11c.68.3 1.18.82 2 1.12a9.54 9.54 0 0 1 1.77.23 7.69 7.69 0 0 1 2.46 2.25 1.33 1.33 0 0 1 0 .86 15 15 0 0 0-2 5.3 8.5 8.5 0 0 1-1 2.56 5 5 0 0 1-1.53 1.24 12.68 12.68 0 0 0-2.4 1.71 42.38 42.38 0 0 0-1.92 6.12c-.12.52-.74.77-1.39.73a2.8 2.8 0 0 0-2.44 2.33 1.84 1.84 0 0 1-1.4 1.36 1.18 1.18 0 0 0-.79 1.16 2 2 0 0 1-.46 1.42.88.88 0 0 0-.2.92 6.89 6.89 0 0 1 1.11 2.73c-.32.84.37 1.35.77 1.76a1.3 1.3 0 0 1 .28 1.33 2 2 0 0 1-.87.29 5.25 5.25 0 0 1-2.22-.13c-.74-.22-1.08-.9-1.37-1.61a20.09 20.09 0 0 1-1.29-3.21c0-1.3-.74-1.9-1.06-2.83a14.63 14.63 0 0 1-.69-4.69 5 5 0 0 0-1.11-2.22 5.53 5.53 0 0 1-.83-1.31 5.26 5.26 0 0 0-.72-3.5l-.28-2.68a5.7 5.7 0 0 0-2.13-1.7 15 15 0 0 0-2-1 6.28 6.28 0 0 1-1.74-3 14.71 14.71 0 0 0-1.17-2.1 14.5 14.5 0 0 1 .17-2.61c0-.45 0-1 .08-1.44a3.73 3.73 0 0 0 .88-1.62 2.12 2.12 0 0 0-.58-2.12 1.26 1.26 0 0 0-.76-.26 7.2 7.2 0 0 1-3.39-1.3 3.54 3.54 0 0 1-.87-.57 7.64 7.64 0 0 0-4.14-2.49c-1.4-.89-3.18-1.19-4.64-1.9A4.22 4.22 0 0 1 46.24 78a1.91 1.91 0 0 0-1.31-1.45 4.06 4.06 0 0 1-1.65-3.18 19.48 19.48 0 0 0-1-2 1.46 1.46 0 0 1 0-1A6.66 6.66 0 0 0 42 66a4.82 4.82 0 0 1 0-1.14 7 7 0 0 1 1.11-3.36 1.8 1.8 0 0 0 .15-1.38 2.43 2.43 0 0 1 .91-2.69 1.22 1.22 0 0 0 .49-1.28 4.52 4.52 0 0 1 1.13-1.79 5.22 5.22 0 0 1 .64-1.36 17.79 17.79 0 0 1 4.29-5.09l3.8-3.1L57 42.84l3.66-2.23a31.93 31.93 0 0 1 4-2 1.57 1.57 0 0 1 .73-.09c.27.7.76 1.24 1.13 2a3.78 3.78 0 0 1 1.06 0 6 6 0 0 1 .92.51c.17.08.43 0 .5.12a2.64 2.64 0 0 0 .77.94 16.73 16.73 0 0 0 1.82 1.54c.72 0 1.39.22 1.56.68a2.5 2.5 0 0 1 .13.41 5.62 5.62 0 0 1-.8 3.58.44.44 0 0 1-.5.18 1.79 1.79 0 0 1-1.22-1.14c-.21-.44-.34-1-.74-1.25a1.54 1.54 0 0 0-.68-.21.78.78 0 0 0-.77.62.92.92 0 0 1-.24.56c-.35.32-1 .33-1.32.62a1.11 1.11 0 0 0-.37 1 2.3 2.3 0 0 1-2.88 1.59 3 3 0 0 0-2.41.57c-.12.39.06.78-.05 1.14 0 .15-.31.56-.35.71s.18.34.35.41l1.05.43.85 1c.12.12.36.23.49.17a11.07 11.07 0 0 0 2.59-1.38 6.52 6.52 0 0 0 1.31-2.51c0-.13.22-.3.32-.28a8 8 0 0 0 2.37-.07A2.11 2.11 0 0 1 72 52.12c.16.63 0 1.46.23 2.05a9.07 9.07 0 0 0 1.21 1.28c.27.1.67.14.85.41.53.78.47 2.32-.35 2.75a4 4 0 0 1-1.26.43c-.49-.14-1-.39-1.7-.61a5.18 5.18 0 0 0-2.41 1.28c-.1.1-.2.37 0 .43.43.12.76-.12 1.12-.26a1.61 1.61 0 0 1 1 0 .41.41 0 0 1 .27.39 2.43 2.43 0 0 1-.55 1.43 6.4 6.4 0 0 1-3 2.09 12 12 0 0 0-2 3.94 9.61 9.61 0 0 1-3.94 2.7 1 1 0 0 0-.46 1.27 7.92 7.92 0 0 1 .73 1.66 3 3 0 0 1 0 .92c-.07.16-.24.34-.39.34-.81 0-1.16-.6-1.55-1.08a4.58 4.58 0 0 0-1.48-1.39 4.32 4.32 0 0 0-3.22.7 3.94 3.94 0 0 0-1.66.56.9.9 0 0 0-.19.64 5.35 5.35 0 0 1-.62 2.3 2.62 2.62 0 0 0-.15 1.07v1.14a1.71 1.71 0 0 0 .37.75.65.65 0 0 0 .78.09c.54-.45.92-1.14 1.74-1.33a1.84 1.84 0 0 0 .83.08 1.09 1.09 0 0 1 .81.77 2.27 2.27 0 0 1-.14 1.7c-.05.15-.07.38 0 .44.28.15.56 0 .83 0 .56-.07.71.37 1 .58" opacity=".8" fill="url(#Af)"/><path d="M52.8 82.79c-1.4-.89-3.18-1.19-4.64-1.9A4.22 4.22 0 0 1 46.24 78a1.91 1.91 0 0 0-1.31-1.45 4.06 4.06 0 0 1-1.65-3.18 19.48 19.48 0 0 0-1-2 1.46 1.46 0 0 1 0-1A6.66 6.66 0 0 0 42 66a4.82 4.82 0 0 1 0-1.14 7 7 0 0 1 1.11-3.36 1.8 1.8 0 0 0 .15-1.38 2.43 2.43 0 0 1 .91-2.69 1.22 1.22 0 0 0 .49-1.28 4.52 4.52 0 0 1 1.13-1.79 5.22 5.22 0 0 1 .64-1.36 17.79 17.79 0 0 1 4.29-5.09l3.8-3.1L57 42.84l3.66-2.23a31.93 31.93 0 0 1 4-2 1.57 1.57 0 0 1 .73-.09c.27.7.76 1.24 1.13 2a3.78 3.78 0 0 1 1.06 0 6 6 0 0 1 .92.51c.17.08.43 0 .5.12a2.64 2.64 0 0 0 .77.94 16.73 16.73 0 0 0 1.82 1.54c.72 0 1.39.22 1.56.68a2.5 2.5 0 0 1 .13.41 5.63 5.63 0 0 1-.77 3.53.51.51 0 0 1-.51.24 1.79 1.79 0 0 1-1.24-1.15c-.21-.44-.34-1-.74-1.25a1.54 1.54 0 0 0-.68-.21.78.78 0 0 0-.77.62.92.92 0 0 1-.24.56c-.35.32-1 .33-1.32.62a1.11 1.11 0 0 0-.37 1 2.3 2.3 0 0 1-2.88 1.59 3 3 0 0 0-2.41.57c-.12.39.06.78-.05 1.14 0 .15-.31.56-.35.71s.18.34.35.41l1.05.43.85 1c.12.12.36.23.49.17a11.07 11.07 0 0 0 2.59-1.38 6.52 6.52 0 0 0 1.31-2.51c0-.13.22-.3.32-.28a8 8 0 0 0 2.37-.07A2.11 2.11 0 0 1 72 52.12c.16.63 0 1.46.23 2.05a9.07 9.07 0 0 0 1.21 1.28c.27.1.67.14.85.41.53.78.47 2.32-.35 2.75a4 4 0 0 1-1.26.43c-.49-.14-1-.39-1.7-.61a5.18 5.18 0 0 0-2.41 1.28c-.1.1-.2.37 0 .43.43.12.76-.12 1.12-.26a1.61 1.61 0 0 1 1 0 .41.41 0 0 1 .27.39 2.43 2.43 0 0 1-.55 1.43 6.4 6.4 0 0 1-3 2.09 12 12 0 0 0-2 3.94 9.61 9.61 0 0 1-3.94 2.7 1 1 0 0 0-.46 1.27 7.92 7.92 0 0 1 .73 1.66 3 3 0 0 1 0 .92c-.07.16-.24.34-.39.34-.81 0-1.16-.6-1.55-1.08a4.58 4.58 0 0 0-1.48-1.39 4.32 4.32 0 0 0-3.22.7 3.94 3.94 0 0 0-1.66.56.9.9 0 0 0-.19.64 5.35 5.35 0 0 1-.62 2.3 2.62 2.62 0 0 0-.15 1.07v1.14a1.71 1.71 0 0 0 .37.75.65.65 0 0 0 .78.09c.54-.45.92-1.14 1.74-1.33a1.84 1.84 0 0 0 .83.08 1.09 1.09 0 0 1 .81.77 2.27 2.27 0 0 1-.14 1.7c-.05.15-.07.38 0 .44.28.15.56 0 .83 0 .56-.07.71.37 1 .58" opacity=".45" fill="url(#AK)"/><use xlink:href="#Al" fill="url(#Ag)"/><use xlink:href="#Al" opacity=".7" fill="url(#AL)"/><use xlink:href="#Am" fill="url(#Ah)" opacity=".9"/><use xlink:href="#Am" fill="url(#AM)" opacity=".9"/><use xlink:href="#An" fill="url(#Ai)"/><use xlink:href="#Ao" fill="#bcc8e1"/><use xlink:href="#Ao" fill="#9ed3f2"/><path d="M84.17 44.6a.77.77 0 0 1 .35-.08 5.82 5.82 0 0 1 1.62.69c.19.12.37.43.15.61a3.53 3.53 0 0 1-.85.49h-1a2.56 2.56 0 0 1-1.14-.67 2.64 2.64 0 0 1 .87-1.04Z" fill="url(#Ah)" opacity=".9"/><use xlink:href="#Ap" fill="url(#Aj)"/><use xlink:href="#Ap" opacity=".25" fill="url(#AN)"/><path d="M97.34 38.88l1.9.73 1 .37 1.39.58.51-.37-1-.8L99 37.56l-1.46-.22-1.39-1-1.15-.53.81-.08 1.9 1 2.92 1 1.46.14.88.74 1 .07-.44.58 1.68 1.47-1 .43s-1.31-.43-1.24 0-2.19.37-2.19.37l-.66-.51-.22-.51-1.09-.3-.73.3 2 2-.8 1 .22 1.17-.37 1.09-.58.88-.66.88a1.85 1.85 0 0 0-1.54.58c-.73.74.37.74 2.2 1.25s3.8 3.65 3.8 3.65a14.89 14.89 0 0 1-2.12.37 20.29 20.29 0 0 0-3 .28l-1.37 1.14c-.29.05.94 1.43 1.33 1.93a2.75 2.75 0 0 1 .45 1.47l.15 1.39c.48.66 1.5.21 1.45.88.12.47.64.92.81 1.24.07.14 1.32-.11 1.38-.07l2 .66a2.24 2.24 0 0 1 1.84-1.4c1-.07 1.11-.62 1.11-.62l.22-1.62-.29-1.55-.52-1.7.37-1.4.89-1s-1.11-1.4.14-1.94 2.59-.54 2.59-1 1.4.61 1.85.77 2.14 1.24 3.4 1.24a8.8 8.8 0 0 1 3.32 1.31l1.4 1.55-.66-1.7.44-.23a4.53 4.53 0 0 0-1.48-1.09c-.88-.38-3.17-1.16-3.17-1.16l-2.44-1.39-1.11-1.08a37.57 37.57 0 0 0 3.67 1.05 32.31 32.31 0 0 1 4 2.24l1.77 1.32 1.23 1.32a12.72 12.72 0 0 0 1.7 1.31c.29.08 1.55.54 1.55.23a6.63 6.63 0 0 0-.52-1.39l-1.33-1.24-.51-1.39.51.31 1.11 1.31 1.4 1.09 1 .31.66.77.67-.85.89.08 1 1.86.36-.38a57.77 57.77 0 0 0-7.66-8.48l-3.84-3.13a17 17 0 0 0-1.63-1.31 52.59 52.59 0 0 0-24.07-9.07.35.35 0 0 0-.36.22c-.07.16.08.3.08.34a4.75 4.75 0 0 1-.42 2.49.49.49 0 0 0 .06.36 11 11 0 0 0 .69 1 18.66 18.66 0 0 0 1.88 1c1.03.46 2.12-.78 2.12-.78z" fill="url(#Ai)" opacity=".9"/><path d="M119.14 54.9l-1.55.15.16.86 2.09.54.15-.62-.85-.93zm-6.75-.48l1.32 1.7 1.08.31-.08-.93-1.39-1.47-.7-.08-.23.47zm-1.44-2.32l.93 1.17h.54l-.85-1.32-.62.15z" fill="#90a6ce"/><path d="M95.78 47.47l1.58-1.03 1.21-.46-.42-.57-.28-.41-.98-.15-1.21-.51-.88-.47-.56-.05L94 43h-.88l-.74-.41-.38.51.84.62.28.67.37.36.7-.16.84.11.37.56-.7-.1.61.56v.52l.7.25-.23.98zm-2.65-2.56l.7.44.64.5.25.55-1.04.65-.95-.05v-.8l-.49-.25-.15-.4.3-.1v-.39l.74-.15z" opacity=".9" fill="#99add2"/><path d="M61.33 85.22a4.74 4.74 0 0 0 2.78-.77l1.57-.82a1 1 0 0 1 1.24.26 1 1 0 0 0 1.24-.43 6.81 6.81 0 0 1 1-.92 7.55 7.55 0 0 0 1.14-.14 6.32 6.32 0 0 1 3.25 1.78 27.14 27.14 0 0 1 4.27 2.4 7.33 7.33 0 0 1 3.57 1.88c.27.9 1.14 1.19 2.22 1.19a16.26 16.26 0 0 1 2.46.11c.68.3 1.18.82 2 1.12a9.54 9.54 0 0 1 1.77.23 7.69 7.69 0 0 1 2.46 2.25 1.33 1.33 0 0 1 0 .86 15 15 0 0 0-2 5.3 8.5 8.5 0 0 1-1 2.56 5 5 0 0 1-1.53 1.24 12.68 12.68 0 0 0-2.4 1.71 42.38 42.38 0 0 0-1.92 6.12c-.12.52-.74.77-1.39.73a2.8 2.8 0 0 0-2.44 2.33 1.84 1.84 0 0 1-1.4 1.36 1.18 1.18 0 0 0-.79 1.16 2 2 0 0 1-.46 1.42.88.88 0 0 0-.2.92 6.89 6.89 0 0 1 1.11 2.73c-.32.84.37 1.35.77 1.76a1.3 1.3 0 0 1 .28 1.33 2 2 0 0 1-.87.29 5.25 5.25 0 0 1-2.22-.13c-.74-.22-1.08-.9-1.37-1.61a20.09 20.09 0 0 1-1.29-3.21c0-1.3-.74-1.9-1.06-2.83a14.63 14.63 0 0 1-.69-4.69 5 5 0 0 0-1.11-2.22 5.53 5.53 0 0 1-.83-1.31 5.26 5.26 0 0 0-.72-3.5l-.28-2.68a5.7 5.7 0 0 0-2.13-1.7 15 15 0 0 0-2-1 6.28 6.28 0 0 1-1.74-3 14.71 14.71 0 0 0-1.17-2.1 14.5 14.5 0 0 1 .17-2.61c0-.45 0-1 .08-1.44a3.73 3.73 0 0 0 .88-1.62 2.12 2.12 0 0 0-.58-2.12 1.26 1.26 0 0 0-.76-.26 7.2 7.2 0 0 1-3.39-1.3 3.54 3.54 0 0 1-.87-.57 7.64 7.64 0 0 0-4.14-2.49" fill="url(#AO)" opacity=".3"/><use xlink:href="#An" fill="url(#AP)"/><path d="M77.25 125.3a4.86 4.86 0 0 1-1.41-.19 2.49 2.49 0 0 1-1.42-1.64 20 20 0 0 0-.41-.93 11.2 11.2 0 0 1-.87-2.3 3.5 3.5 0 0 0-.62-1.91 5.11 5.11 0 0 1-.44-.91 14.62 14.62 0 0 1-.7-4.71 4.89 4.89 0 0 0-1.1-2.19 5.44 5.44 0 0 1-.84-1.32 5.19 5.19 0 0 0-.71-3.46l-.3-2.74a3.8 3.8 0 0 0-1.53-1.31l-.58-.36a8.93 8.93 0 0 0-1.48-.75l-.51-.22a5.73 5.73 0 0 1-1.67-2.8l-.11-.29a7.53 7.53 0 0 0-.73-1.38l-.43-.71a6.7 6.7 0 0 1 .08-1.71c0-.29.08-.6.1-.91s0-1 .07-1.4v-.07l.06-.07a3.5 3.5 0 0 0 .82-1.53 2.09 2.09 0 0 0-.59-2 1.26 1.26 0 0 0-.73-.24 7.11 7.11 0 0 1-3.36-1.28l-.28-.15a2 2 0 0 1-.61-.43 7.51 7.51 0 0 0-4.11-2.48 12.33 12.33 0 0 0-2.74-1.21 15.91 15.91 0 0 1-2-.76 4.31 4.31 0 0 1-2-2.91 1.81 1.81 0 0 0-1.27-1.41 4.09 4.09 0 0 1-1.66-3.22 4.71 4.71 0 0 0-.57-1.12 5.36 5.36 0 0 1-.48-.85 1.51 1.51 0 0 1 0-1 6.64 6.64 0 0 0-.19-4.43 5 5 0 0 1 0-1.16A7 7 0 0 1 43 61.46a1.73 1.73 0 0 0 .14-1.33 2.53 2.53 0 0 1 .93-2.76 1.16 1.16 0 0 0 .47-1.22l.15-.32a3.66 3.66 0 0 1 1-1.48 3 3 0 0 1 .44-1 3.26 3.26 0 0 0 .24-.4 5.36 5.36 0 0 1 .4-.63L47 52l.1.07-.23.34a6.77 6.77 0 0 0-.39.62 4.36 4.36 0 0 1-.24.41 2.66 2.66 0 0 0-.43 1 3.61 3.61 0 0 0-1 1.45l-.15.3a1.26 1.26 0 0 1-.52 1.32 2.42 2.42 0 0 0-.89 2.63 1.83 1.83 0 0 1-.16 1.44A7 7 0 0 0 42 64.86 4.61 4.61 0 0 0 42 66a6.75 6.75 0 0 1 .25 4.45 1.4 1.4 0 0 0 0 .95 5.57 5.57 0 0 0 .47.83 4.28 4.28 0 0 1 .58 1.15 4.07 4.07 0 0 0 1.7 3.13A1.94 1.94 0 0 1 46.29 78a4.22 4.22 0 0 0 1.9 2.84 19.69 19.69 0 0 0 2 .75 12.49 12.49 0 0 1 2.68 1.14A7.59 7.59 0 0 1 57 85.24a1.72 1.72 0 0 0 .58.4l.28.16a7.09 7.09 0 0 0 3.31 1.26 1.33 1.33 0 0 1 .8.27 2.2 2.2 0 0 1 .63 2.15 3.61 3.61 0 0 1-.85 1.59c0 .43-.06 1-.08 1.41a8.5 8.5 0 0 1-.09.91 6.46 6.46 0 0 0-.08 1.67l.42.7a7.43 7.43 0 0 1 .74 1.4l.11.29a5.62 5.62 0 0 0 1.62 2.74l.5.21a10.54 10.54 0 0 1 1.5.76c.18.13.38.24.57.35a3.94 3.94 0 0 1 1.58 1.49l.3 2.68a5.24 5.24 0 0 1 .72 3.5 5.21 5.21 0 0 0 .82 1.28 5 5 0 0 1 1.11 2.25 14.9 14.9 0 0 0 .7 4.68 4.91 4.91 0 0 0 .44.89 3.56 3.56 0 0 1 .62 2 12.18 12.18 0 0 0 .87 2.26l.41.93c.29.68.63 1.37 1.34 1.58a5.3 5.3 0 0 0 2.19.13 2 2 0 0 0 .83-.28 1.24 1.24 0 0 0-.27-1.25l-.17-.16c-.4-.4-.9-.89-.62-1.64a6.87 6.87 0 0 0-1.1-2.7.92.92 0 0 1 .22-1 2 2 0 0 0 .44-1.38 1.25 1.25 0 0 1 .83-1.22 1.78 1.78 0 0 0 1.37-1.32 2.82 2.82 0 0 1 2.49-2.37c.56 0 1.21-.16 1.34-.68a39.75 39.75 0 0 1 1.91-6.18 5.76 5.76 0 0 1 1.53-1.16l.87-.55.44-.3a3.15 3.15 0 0 0 1.08-.93 8.4 8.4 0 0 0 1-2.54 15.07 15.07 0 0 1 2-5.33 1.33 1.33 0 0 0 0-.79 7.68 7.68 0 0 0-2.44-2.23l.07-.1a8 8 0 0 1 2.47 2.26 1.35 1.35 0 0 1 0 .93 15 15 0 0 0-2 5.29 8.77 8.77 0 0 1-1 2.58 3.24 3.24 0 0 1-1.12 1l-.43.29c-.28.2-.58.38-.88.56a5.67 5.67 0 0 0-1.49 1.13 39.79 39.79 0 0 0-1.92 6.11c-.14.58-.83.81-1.45.77a2.72 2.72 0 0 0-2.38 2.28 1.91 1.91 0 0 1-1.44 1.41 1.11 1.11 0 0 0-.75 1.1 2.11 2.11 0 0 1-.49 1.42.82.82 0 0 0-.19.84 6.89 6.89 0 0 1 1.19 2.75c-.27.69.18 1.14.58 1.53l.17.17a1.31 1.31 0 0 1 .29 1.39 2.19 2.19 0 0 1-.89.3 5.79 5.79 0 0 1-.9.12z" fill="url(#AQ)"/><path d="M89.88 91.17a9 9 0 0 0-1.76-.23 5.9 5.9 0 0 1-1.2-.64 5.56 5.56 0 0 0-.81-.48 12.43 12.43 0 0 0-2-.1h-.46c-1.28 0-2-.41-2.28-1.22a7.3 7.3 0 0 0-3.53-1.85l-1.32-.81a14.52 14.52 0 0 0-3-1.6 6.21 6.21 0 0 0-3.2-1.76 4.71 4.71 0 0 1-.84.11h-.28a4.12 4.12 0 0 1-.4.33 3 3 0 0 0-.61.57 1.08 1.08 0 0 1-1.31.45 1 1 0 0 0-1.17-.24l-1.57.82c-.2.08-.38.17-.58.27a3.45 3.45 0 0 1-2.24.5v-.11a3.41 3.41 0 0 0 2.17-.49 6.11 6.11 0 0 1 .58-.27l1.57-.82a1.11 1.11 0 0 1 1.3.26 1 1 0 0 0 1.15-.41 3.1 3.1 0 0 1 .64-.61 4 4 0 0 0 .41-.33h.3a3.78 3.78 0 0 0 .83-.12 6.35 6.35 0 0 1 3.27 1.79 14.34 14.34 0 0 1 3 1.6l1.3.8a7.39 7.39 0 0 1 3.58 1.89c.24.77 1 1.15 2.17 1.15h.46a11.72 11.72 0 0 1 2 .11 6.47 6.47 0 0 1 .85.49 5.29 5.29 0 0 0 1.16.63 11.15 11.15 0 0 1 1.78.23z" fill="#bbdef6"/><path d="M61.32 75.32a6.63 6.63 0 0 1 1.1.16h2.36c.79.28 1.7.39 2.46.62a1.57 1.57 0 0 1 .69 1.08c0 .18-.18.31-.35.35a2.36 2.36 0 0 1-.44.07H67l-2.59-.67-3.83.55h-.05a1.09 1.09 0 0 1-1.13-.71 2.61 2.61 0 0 1 1.22-1.3l.18-.06a1.68 1.68 0 0 1 .5-.07m0-.12a1.53 1.53 0 0 0-.54.08.67.67 0 0 0-.2.07 2.69 2.69 0 0 0-1.27 1.36 1.22 1.22 0 0 0 1.25.79h.06l3.83-.52a14.58 14.58 0 0 1 1.64.4l.92.26h.15a2.23 2.23 0 0 0 .36 0h.1c.25 0 .48-.23.45-.48a1.72 1.72 0 0 0-.74-1.18l-1-.25a12.84 12.84 0 0 1-1.42-.37h-2.73a4 4 0 0 0-.84-.11zm12.17 3.98l-1.74-.65h-2.19l-1.39-.4V78l1.74-.39v-.79l1.67-.42.82 1zm-3.91-.77h2.2l1.42.54-.9-1.44-.76-1L70 77v.79l-1.61.36z" fill="#b2daf4"/><path d="M58.85 81.64a1.6 1.6 0 0 1-.27-.25.77.77 0 0 0-.72-.32h-.19a.9.9 0 0 1-.68 0c-.15-.09-.11-.36-.05-.51a2.22 2.22 0 0 0 .14-1.65c-.15-.31-.31-.66-.76-.74a1.85 1.85 0 0 1-.83-.08 2.52 2.52 0 0 0-1.24.86 3.92 3.92 0 0 1-.46.45.72.72 0 0 1-.86-.08 1.14 1.14 0 0 1-.31-.57c0-.07 0-.14-.07-.21v-1.41a1.91 1.91 0 0 1 .15-.84 5.2 5.2 0 0 0 .6-2.29v-.08a.91.91 0 0 1 .21-.61 2.62 2.62 0 0 1 1.24-.47l.44-.09a4.31 4.31 0 0 1 3.25-.71 3.92 3.92 0 0 1 1.36 1.22 1.46 1.46 0 0 0 .16.19l.16.21a1.64 1.64 0 0 0 1.31.85c.11 0 .27-.15.33-.31a1.59 1.59 0 0 0 .05-.63 2.18 2.18 0 0 1 0-.25 6.88 6.88 0 0 0-.62-1.45l-.1-.19a.91.91 0 0 1 0-.76 1 1 0 0 1 .52-.6 9.57 9.57 0 0 0 3.92-2.67l.31-.79a9 9 0 0 1 1.69-3.16 6.44 6.44 0 0 0 2.93-2.07 2.34 2.34 0 0 0 .54-1.39.36.36 0 0 0-.22-.34 1.58 1.58 0 0 0-1 0l-.23.1a1.23 1.23 0 0 1-.93.15.2.2 0 0 1-.16-.16.43.43 0 0 1 .11-.36A5.35 5.35 0 0 1 71 58.37l.83.31.85.3a4 4 0 0 0 1.32-.42 1.34 1.34 0 0 0 .6-.87 2.42 2.42 0 0 0-.26-1.79 1 1 0 0 0-.6-.33l-.23-.07-.19-.18a7.21 7.21 0 0 1-1-1.11 4.1 4.1 0 0 1-.13-1.08 5.89 5.89 0 0 0-.1-1 2.09 2.09 0 0 0-1.71-1.57 8.19 8.19 0 0 1-2.38.07c-.06 0-.21.12-.26.24s-.07.19-.1.29a5.65 5.65 0 0 1-1.22 2.24 5.74 5.74 0 0 1-1.74 1l-.87.4c-.28.14-.43 0-.55-.18l-.84-1a4.44 4.44 0 0 1-.7-.28l-.34-.15c-.11 0-.46-.18-.39-.48a1.88 1.88 0 0 1 .19-.38l.17-.32a1.56 1.56 0 0 0 0-.53 1.64 1.64 0 0 1 0-.62 3.14 3.14 0 0 1 2.47-.58 2.24 2.24 0 0 0 2.8-1.53 1.18 1.18 0 0 1 .39-1 2.18 2.18 0 0 1 .66-.29 1.85 1.85 0 0 0 .66-.32.72.72 0 0 0 .2-.41.27.27 0 0 1 0-.12.8.8 0 0 1 .83-.67 1.75 1.75 0 0 1 .71.22 1.89 1.89 0 0 1 .61 1l.15.33a1.74 1.74 0 0 0 1.17.98.44.44 0 0 0 .44-.16 5.56 5.56 0 0 0 .79-3.54 2.35 2.35 0 0 0-.12-.4c-.15-.39-.73-.64-1.48-.64h-.06a11.09 11.09 0 0 1-1.41-1.17l-.42-.38a2.72 2.72 0 0 1-.79-1c0-.05-.07-.06-.19-.05a.5.5 0 0 1-.27 0 2.79 2.79 0 0 1-.33-.19 2.08 2.08 0 0 0-.59-.31 2.48 2.48 0 0 0-.82 0h-.25c-.15-.31-.36-.64-.55-1l-.54-.93h-.07c-.07 0-.13 0-.17-.1h.18a.16.16 0 0 1 .17.09 10.14 10.14 0 0 0 .53.92l.54.93h.17a2.81 2.81 0 0 1 .87 0 2.44 2.44 0 0 1 .62.33l.31.19a.49.49 0 0 0 .21 0c.12 0 .26 0 .31.12a2.51 2.51 0 0 0 .76.92l.42.39a11.31 11.31 0 0 0 1.38 1.14c.8 0 1.42.28 1.59.72a2.05 2.05 0 0 1 .12.43 5.57 5.57 0 0 1-.8 3.61.5.5 0 0 1-.56.21 1.85 1.85 0 0 1-1.26-1.17 3.45 3.45 0 0 1-.14-.34 1.92 1.92 0 0 0-.58-.89 1.48 1.48 0 0 0-.66-.2.7.7 0 0 0-.7.58v.12a.83.83 0 0 1-.23.47 1.87 1.87 0 0 1-.71.34 2.06 2.06 0 0 0-.62.28 1 1 0 0 0-.34.92 2.37 2.37 0 0 1-3 1.63 3 3 0 0 0-2.35.54 1.77 1.77 0 0 0 0 .56 1.56 1.56 0 0 1 0 .57 2 2 0 0 1-.18.35 1.78 1.78 0 0 0-.17.35c0 .13.07.24.31.34l.35.16a4.84 4.84 0 0 0 .7.27l.86 1a.48.48 0 0 0 .41.16c.28-.15.58-.28.88-.41a6 6 0 0 0 1.7-1 5.56 5.56 0 0 0 1.19-2.2c0-.1.07-.19.1-.29s.25-.34.39-.32a7.91 7.91 0 0 0 2.34-.06 2.18 2.18 0 0 1 1.81 1.65 4.58 4.58 0 0 1 .1 1 4.15 4.15 0 0 0 .13 1 6.78 6.78 0 0 0 1 1.08l.19.18.2.06a1.12 1.12 0 0 1 .66.37 2.48 2.48 0 0 1 .28 1.89 1.42 1.42 0 0 1-.65 1 4.39 4.39 0 0 1-1.28.43c-.27-.08-.56-.19-.87-.31l-.81-.3a5.2 5.2 0 0 0-2.37 1.26.32.32 0 0 0-.09.25.11.11 0 0 0 .08.08 1.14 1.14 0 0 0 .85-.15l.24-.1a1.66 1.66 0 0 1 1.08 0 .47.47 0 0 1 .31.44 2.42 2.42 0 0 1-.55 1.45 6.41 6.41 0 0 1-3 2.1 9 9 0 0 0-1.65 3.11l-.32.8a9.63 9.63 0 0 1-4 2.71.9.9 0 0 0-.46.53.81.81 0 0 0 0 .66l.1.2a6.73 6.73 0 0 1 .74 1.57 2.09 2.09 0 0 0 0 .25 1.73 1.73 0 0 1-.06.69.59.59 0 0 1-.43.38 1.74 1.74 0 0 1-1.4-.9l-.17-.2-.15-.19a3.94 3.94 0 0 0-1.31-1.19 4.26 4.26 0 0 0-3.16.7l-.46.1a2.53 2.53 0 0 0-1.18.44.79.79 0 0 0-.17.53V74a5.16 5.16 0 0 1-.62 2.32 1.63 1.63 0 0 0-.13.78 2.26 2.26 0 0 0 0 .26v1.13a1.18 1.18 0 0 1 .07.2 1 1 0 0 0 .28.52.6.6 0 0 0 .71.08 4.65 4.65 0 0 0 .45-.44 2.54 2.54 0 0 1 1.31-.9 1.88 1.88 0 0 0 .8.08 1.09 1.09 0 0 1 .85.79 2.3 2.3 0 0 1-.13 1.75c-.06.15-.06.33 0 .37a.8.8 0 0 0 .59 0h.21a.9.9 0 0 1 .81.36 1.38 1.38 0 0 0 .26.23z" fill="#bfcae3"/><path d="M122.56 110a.74.74 0 0 1-.34-.87 9.44 9.44 0 0 1 .28-1 7 7 0 0 0 .37-1.71 28.75 28.75 0 0 1-.57-4.61c0-.2.11-.39.18-.6a5.5 5.5 0 0 0 .33-1.84l-1.47-3.51a2 2 0 0 1 .44-1.48c.56-.67.25-1.93 0-2.77v-.08l-.31-1.44a15.12 15.12 0 0 0-.74-2.82 4.11 4.11 0 0 1-1.18-2.58l-.06-.21c-.29-1.06-.58-2.16-1.5-2.59v-.11c1 .45 1.27 1.58 1.57 2.67l.06.22a4 4 0 0 0 1.15 2.53 15 15 0 0 1 .83 2.8l.31 1.44v.07c.21.86.53 2.16-.07 2.88a1.83 1.83 0 0 0-.41 1.38l1.46 3.52a5.11 5.11 0 0 1-.33 1.89 4.69 4.69 0 0 0-.17.58 28.36 28.36 0 0 0 .57 4.58 6.57 6.57 0 0 1-.38 1.74 9.44 9.44 0 0 0-.28 1 .61.61 0 0 0 .27.72l2.8-.25 2.87-.27a2 2 0 0 0 1.05-.34 5.64 5.64 0 0 1 2-2.6 5 5 0 0 1 1.06-2.1 5.91 5.91 0 0 1 .81-.69 6.14 6.14 0 0 0 .79-.66l.33-1.46a10.07 10.07 0 0 1 .53-2c.46-1.08 4.65-4.91 4.83-5.07l.08.09s-4.35 4-4.8 5a10.46 10.46 0 0 0-.53 2A14.62 14.62 0 0 1 134 103a5.22 5.22 0 0 1-.81.68 6.43 6.43 0 0 0-.79.68 5 5 0 0 0-1 2.07 5.44 5.44 0 0 0-1.94 2.58 2.13 2.13 0 0 1-1.12.37l-2.86.26-2.83.26z" fill="#91a7cf"/><path d="M108.48 83.77h-.6c-1.55-.13-2.29-1.16-3-2.15l-.08-.1a7.45 7.45 0 0 1-.49-.87 6.6 6.6 0 0 0-.52-.9l-.71-.73a2.91 2.91 0 0 1-1.84-2.74v-.57a14.09 14.09 0 0 1 .08-2.7l.41-2.76.15-1a5.47 5.47 0 0 1 .75-2.84l.23-.46v-.19a7.65 7.65 0 0 1 .69-2.92 5.82 5.82 0 0 1 1.29-.13c.49 0 1.05 0 1.61-.11 1.14-.15 2.31-1.89 2.32-1.91a6.69 6.69 0 0 1 5.82-2.35c3.85.22 5 1.45 5.22 2.44s1.83 1 3.12 1a3.09 3.09 0 0 1 2.55 1.24c.19 0 1.46.25 2.41.46h.37c.04 0-.15-.5-.32-.79a2.73 2.73 0 0 1-.26-.51 4 4 0 0 1-.23-2 .28.28 0 0 1 .14-.19c.37-.21 1.42.17 2.44.54a12.77 12.77 0 0 0 1.41.45.62.62 0 0 0 .61-.1c.22-.24.06-.75.06-.75h.05a.87.87 0 0 1 .28-.08.41.41 0 0 0 .16 0v.1a.36.36 0 0 1-.21.06.7.7 0 0 0-.18.05 1 1 0 0 1-.1.81.74.74 0 0 1-.73.14 13.21 13.21 0 0 1-1.42-.46c-.94-.34-2-.73-2.34-.55a.15.15 0 0 0-.08.11 3.8 3.8 0 0 0 .22 1.91 2.81 2.81 0 0 0 .25.48c.23.38.44.74.31.92s-.23.12-.48.07l-2.44-.47a3 3 0 0 0-2.4-1.44c-1.94.1-3-.26-3.23-1.05-.25-.95-1.34-2.13-5.12-2.35a6.58 6.58 0 0 0-5.71 2.29c0 .08-1.21 1.81-2.41 2-.56.07-1.12.09-1.61.11a7 7 0 0 0-1.24.11 7.71 7.71 0 0 0-.66 2.85v.22l-.23.47a5.32 5.32 0 0 0-.74 2.8l-.15 1-.41 2.76a13.78 13.78 0 0 0-.08 2.67v.57a2.81 2.81 0 0 0 1.79 2.65l.72.74a6.07 6.07 0 0 1 .53.92 6 6 0 0 0 .49.86l.07.1c.73 1 1.42 2 2.92 2.1a7.94 7.94 0 0 0 3.18-.42 6.12 6.12 0 0 0 2.85-.7 9.72 9.72 0 0 0 1.08-.41 6.11 6.11 0 0 1 2.42-.6 1.05 1.05 0 0 1 .51.16l.11.06v.11l-.11-.06a1 1 0 0 0-.46-.15 5.79 5.79 0 0 0-2.38.59 9.72 9.72 0 0 1-1.08.41 6.3 6.3 0 0 1-2.86.71 9 9 0 0 1-2.71.47z" fill="url(#AR)"/><path d="M103.47 62.38l-2-.66-.38.05c-.71.09-1 .1-1 0a2.59 2.59 0 0 0-.29-.39 2.37 2.37 0 0 1-.52-.87c0-.29-.17-.33-.53-.39a1.31 1.31 0 0 1-.92-.45c0-.05 0-.15-.07-.47s0-.57-.09-.95v-.1a2.51 2.51 0 0 0-.42-1.35l-.3-.35c-.78-.95-1.15-1.42-1.08-1.6a.09.09 0 0 1 .07-.06l1.5-1.09a19.26 19.26 0 0 1 3-.29 13 13 0 0 0 2-.35c-.3-.46-2.09-3.1-3.72-3.56l-1.1-.28c-.8-.19-1.28-.3-1.35-.56s0-.3.23-.5a1.92 1.92 0 0 1 1.55-.6l.64-.85.58-.87.36-1.08-.23-1.18.79-1L98 40.47l.83-.34 1.14.31.23.52.63.49a5 5 0 0 0 2.09-.24v-.06A.25.25 0 0 1 103 41c.23-.19 1.07.06 1.24.12l.85-.39-1.66-1.44.41-.54-.94-.07-.87-.73-1.45-.14-2.93-1-1.89-1-.59.06.92.49 1.38.95 1.46.22 2.21 1.83 1 .86-.6.43-1.42-.6L97.36 39c-.18.19-1.18 1.2-2.09.79a19.69 19.69 0 0 1-1.88-1l-.69-1.05a.55.55 0 0 1-.06-.41 4.71 4.71 0 0 0 .36-2.51.34.34 0 0 1-.06-.35.18.18 0 0 1 .1-.09s.08-.05.09-.1h.12a.25.25 0 0 1-.15.18h-.06a.26.26 0 0 0 .06.24.13.13 0 0 1 0 .08 4.8 4.8 0 0 1-.43 2.52.47.47 0 0 0 .06.3 12.26 12.26 0 0 0 .68 1l1.86 1c.9.42 2-.78 2-.79l2.89 1.11 1.36.57.42-.3-.89-.75-2.18-1.82-1.47-.23-1.38-1-1.27-.67 1-.1 1.91 1 2.92 1 1.47.15.87.73 1.11.08-.47.63 1.71 1.48-1 .49c-.36-.12-1-.27-1.14-.15a.11.11 0 0 0 0 .09.18.18 0 0 1 0 .15c-.29.33-2 .29-2.2.28l-.69-.53-.21-.5-1.05-.28-.63.25 2 2-.82 1 .22 1.16-.38 1.13-.58.87-.69.91a1.81 1.81 0 0 0-1.48.57c-.17.16-.24.28-.21.37s.56.32 1.26.49l1.11.28c1.83.51 3.76 3.55 3.84 3.68v.07h-.08a13.91 13.91 0 0 1-2.13.37 19.72 19.72 0 0 0-3 .28l-1.51 1.09a7.33 7.33 0 0 0 1.07 1.47l.3.36a2.53 2.53 0 0 1 .44 1.4v.11c0 .38.07.71.09.95a3.34 3.34 0 0 0 0 .41 1.24 1.24 0 0 0 .85.4c.34.06.65.11.62.51a2.43 2.43 0 0 0 .5.8 3.78 3.78 0 0 1 .3.41 4.05 4.05 0 0 0 .91-.06h.45l2 .65a2.32 2.32 0 0 1 1.9-1.43c1-.07 1-.54 1-.56l.22-1.62-.29-1.54-.52-1.71.39-1.44.85-1a1.83 1.83 0 0 1-.41-1.34 1 1 0 0 1 .61-.64 9.48 9.48 0 0 1 1.51-.47c.58-.14 1-.26 1-.48a.17.17 0 0 1 .08-.16c.17-.09.58.14 1.19.51a4.71 4.71 0 0 0 .66.36c.11 0 .3.14.55.27a7.32 7.32 0 0 0 2.83 1 8.74 8.74 0 0 1 3.35 1.32l1.19 1.31-.57-1.45.43-.22a4.51 4.51 0 0 0-1.41-1c-.87-.38-3.15-1.15-3.17-1.16l-2.46-1.41-1.11-1.08.06-.1a33.69 33.69 0 0 0 3.6 1.08 29 29 0 0 1 4 2.25l1.78 1.32 1.26 1.33a12.7 12.7 0 0 0 1.67 1.29l.25.08c.32.1 1.08.34 1.22.24a5.83 5.83 0 0 0-.51-1.35l-1.33-1.26-.58-1.55.68.41 1.11 1.32 1.54 1.1 1 .32.63.73.64-.82 1 .08 1 1.82.13-.13.08.08-.23.24-1.06-1.9-.82-.07-.69.89-.7-.82-1-.32-1.4-1.08-1.12-1.32-.36-.21.45 1.22 1.34 1.25a6.43 6.43 0 0 1 .52 1.41.14.14 0 0 1-.06.12c-.17.13-.73 0-1.32-.22l-.25-.07a12 12 0 0 1-1.78-1.33l-1.26-1.32-1.74-1.31a28.27 28.27 0 0 0-4-2.23 29.42 29.42 0 0 1-3.39-1l.92.9 2.47 1.38 3.17 1.16a4.63 4.63 0 0 1 1.5 1.1V53l-.46.24.65 1.65-.1.06-1.4-1.54a8.73 8.73 0 0 0-3.28-1.3 7.35 7.35 0 0 1-2.89-1 5.05 5.05 0 0 0-.53-.25 5.26 5.26 0 0 1-.69-.38c-.37-.23-.94-.57-1.06-.5 0 .31-.48.43-1.13.59a8.71 8.71 0 0 0-1.49.47.81.81 0 0 0-.54.56c-.15.57.41 1.27.41 1.28l-.91 1-.36 1.37.51 1.68.3 1.57-.22 1.63s-.09.59-1.16.67a2.18 2.18 0 0 0-1.79 1.35v.06z" fill="url(#AS)"/><path d="m119.14 54.9.85.93-.15.62-2.09-.54-.16-.86 1.55-.15m0-.11h-.05l-1.55.15h-.11v.11l.16.85v.1h.06l2.09.54h.1v-.1l.15-.62v-.02l-.85-.93Z" fill="#99add2"/><path d="m112.62 54 .7.08 1.39 1.47.08.93-1.08-.31-1.32-1.7.23-.47m-.06-.11v.07l-.23.46v.06l1.31 1.71 1.08.31h.14v-.15l-.08-.93-1.39-1.42-.7-.08ZM111.57 52l.85 1.32h-.54l-.88-1.21.62-.16m0-.12h-.07l-.62.15h-.15l.1.13.93 1.16h.78l-.1-.16-.86-1.32v-.06Z" fill="#a5b6d7"/><path d="M93.13 44.91l.7.45.64.49.25.55-1 .65h-.94v-.8l-.5-.25-.15-.4.3-.1v-.39l.74-.15m0-.11l-.74.15h-.09v.41l-.22.08h-.11v.1l.15.4.44.22v.83h1.04l1-.64.07-.05v-.08l-.25-.55-.65-.5-.7-.45zm-.8-2.26l.75.41H94l.24.82h.56l.88.47 1.21.51 1 .15.28.41.42.57-1.21.46-1.59 1 .24-1-.7-.25v-.52l-.61-.56.7.1-.42-.47-.84-.1-.7.16-.37-.36-.28-.67-.81-.62.37-.51m0-.14v.08l-.37.51-.06.08.08.07.82.6.26.64.37.36h.05l.69-.15.77.09.22.33-.47-.07h-.33l.24.22.58.54v.54h.06l.62.23-.22.88-.06.26.22-.14 1.58-1 1.2-.45h.12l-.08-.11-.42-.57-.24-.45-1-.15-1.2-.51-.88-.46-.49-.05-.33-.77v-.07h-.93l-.73-.4h-.08zm-7.88 2.07a5.82 5.82 0 0 1 1.62.69c.19.12.37.43.15.61a3.53 3.53 0 0 1-.85.49h-1a2.56 2.56 0 0 1-1.14-.67 2.64 2.64 0 0 1 .88-1 .89.89 0 0 1 .32-.08m0-.12a1 1 0 0 0-.38.1 2.9 2.9 0 0 0-.93 1.09v.13a2.64 2.64 0 0 0 1.19.7h1.1a3.93 3.93 0 0 0 .88-.51.38.38 0 0 0 .14-.33.64.64 0 0 0-.3-.47 6 6 0 0 0-1.66-.71z" fill="#bfcae3"/><path d="M79.94 35.17c0 .23-.27.47-.07.65a.15.15 0 0 1 .09 0 .23.23 0 0 1 .22.17A3.57 3.57 0 0 0 82 37.78a3.88 3.88 0 0 0-.52 1.28c.26.45.81.66 1.21.95a1.62 1.62 0 0 1 .36.52 1.45 1.45 0 0 1-.2 1.33 3.44 3.44 0 0 0-.26.85 16.42 16.42 0 0 1-1.34 3c-.3.41-.56.9-.81 1.31a.44.44 0 0 1-.33.19H80l-2.93-.93a2.9 2.9 0 0 1-1.18-1.35 8.64 8.64 0 0 1-.66-1 1.19 1.19 0 0 1 0-.87 1.79 1.79 0 0 0-.08-1.21 2.09 2.09 0 0 1 .3-1.85 1.44 1.44 0 0 0 .33-.74c0-.16-.2-.14-.31-.16H75a.79.79 0 0 1-.24 0c-.19-.06-.22-.29-.38-.4h-.09c-.1 0 0-.19 0-.24a6.47 6.47 0 0 1 1.1-2.48.34.34 0 0 1 .27-.12h.09a3.42 3.42 0 0 0 .45 0 1.2 1.2 0 0 0 .68-.19l2.36-.3s.09-.1.13-.11h.23a.66.66 0 0 0 .35-.08m.15-.18l-.22.12a.56.56 0 0 1-.29.06h-.25a.33.33 0 0 0-.17.11l-1.31.17-1 .12a1.09 1.09 0 0 1-.62.17 3.59 3.59 0 0 1-.44 0h-.1a.48.48 0 0 0-.36.15 6.68 6.68 0 0 0-1.12 2.52.42.42 0 0 0 0 .33.15.15 0 0 0 .14.07h.06a.94.94 0 0 1 .09.12.61.61 0 0 0 .28.27h.92a1.4 1.4 0 0 1-.31.67 2.2 2.2 0 0 0-.3 2 1.68 1.68 0 0 1 .04 1.12 1.28 1.28 0 0 0 0 1 3 3 0 0 0 .39.63 2.48 2.48 0 0 1 .27.39v.06A2.86 2.86 0 0 0 77 46.4l2.94.93h.1a.57.57 0 0 0 .43-.25l.19-.33a10.67 10.67 0 0 1 .62-1 16.79 16.79 0 0 0 1.35-3 3.15 3.15 0 0 0 .09-.36 1.25 1.25 0 0 1 .16-.45 1.49 1.49 0 0 0-.19-2 3.32 3.32 0 0 0-.37-.23 2.3 2.3 0 0 1-.79-.65 1.85 1.85 0 0 1 .29-.78l.22-.43v-.09h-.08a3.37 3.37 0 0 1-1.7-1.73.36.36 0 0 0-.34-.26.52.52 0 0 1 .06-.24 1.06 1.06 0 0 0 .09-.25v-.24z" fill="#bac6e0"/><circle cx="87.02" cy="87.05" r="53.17" style="mix-blend-mode:overlay" opacity=".55" fill="url(#Ak)"/><path d="M106.94 136.31a1.55 1.55 0 0 0-.4-.25l-.2-.11a13.41 13.41 0 0 0-1.74-.84l-.39-.14a14 14 0 0 0-5.12-1.18 5.92 5.92 0 0 0-1.08.35l-.76.29-.68-.14a7 7 0 0 0-2.64-.19l-4.6 1.65a.81.81 0 0 1-.6.08c-.32 0-.61-.11-.9-.17a6.72 6.72 0 0 0-1.23-.21 3.61 3.61 0 0 1-2.78-1.4c0-.15-.08-.32-.12-.5a3.69 3.69 0 0 0-.52-1.45 1 1 0 0 1-.21-.85 4.55 4.55 0 0 1 .39-1l.2-.43c.05-.12 0-.15 0-.2a.1.1 0 0 0-.12 0 3 3 0 0 0-1.82 2.17 2.27 2.27 0 0 1-.64 1.27l-.2.22a4.41 4.41 0 0 1-2.97 1.72 7.57 7.57 0 0 0-1.89-.18l-.82-.21a9.86 9.86 0 0 0-3.07-.46l-2.32.36a3.87 3.87 0 0 0-3 1.67h-.11a3.94 3.94 0 0 1 3.12-1.74l2.33-.36a9.74 9.74 0 0 1 3.11.46l.8.21a7.79 7.79 0 0 1 1.9.18 4.31 4.31 0 0 0 2.82-1.72l.2-.22a2.21 2.21 0 0 0 .62-1.21 3.14 3.14 0 0 1 1.87-2.26.25.25 0 0 1 .26 0 .28.28 0 0 1 0 .33 4.23 4.23 0 0 1-.21.45 4.38 4.38 0 0 0-.37.94.91.91 0 0 0 .19.76 3.85 3.85 0 0 1 .54 1.49c0 .18.07.34.11.48a3.55 3.55 0 0 0 2.68 1.36 6.15 6.15 0 0 1 1.26.2 7.88 7.88 0 0 0 .87.17c.19 0 .42 0 .53-.05l4.64-1.65a7.25 7.25 0 0 1 2.7.2l.66.13.73-.28a6.66 6.66 0 0 1 1.12-.36 13.91 13.91 0 0 1 5.17 1.19l.39.14a12.51 12.51 0 0 1 1.76.85l.19.1c.3.16.44.24.47.32z" fill="#9b9db7"/><path d="M86.94 33.9a52.69 52.69 0 0 1 20.69 4.18 55 55 0 0 1 16.89 11.39A53.19 53.19 0 1 1 86.94 33.9m0-.59a53.75 53.75 0 1 0 53.74 53.74 53.75 53.75 0 0 0-53.74-53.74Z" fill="#ad8700"/><path d="M74.17 69.23v1.31c-3.77.48-4.09 1.68-4.09 4.2v30.92h-1.47L45.25 77.21h-.1v21c0 3.78 1.1 4.77 5 5.19v1.32H38.22v-1.32c3.15-.36 4.62-.73 4.62-4.2V74.32c-2.94-3.62-3.78-3.78-4.46-3.78v-1.31h11.07l18.22 22.42h.1V75.74c0-3.15-.63-4.88-4.88-5.2v-1.31h11.28m.49-.49H62.4V71h.45c3.82.28 4.43 1.62 4.43 4.71V90.4L49.83 68.92l-.14-.18h-11.8V71h.49c.43 0 1.14 0 4 3.47V99.2c0 3.07-1.08 3.35-4.19 3.72h-.43v2.23h12.86V103h-.43c-3.75-.41-4.55-1.25-4.55-4.71V78.44L68.23 106l.15.18h2.19V74.74c0-2.25.14-3.27 3.66-3.71l.43-.06v-2.23zm26.01-.35v11.39H99.2c-.94-3.67-4.09-9.71-10.28-9.71-2.73 0-5.62 1.58-5.62 5 0 2.83 1 4 5.41 6.19l7.71 3.83a10.89 10.89 0 0 1 5.78 9.66c0 4.62-3.37 11-13 11-5 0-7.35-1.78-9-1.78-1.1 0-1.36.94-1.57 1.78h-1.52v-13h1.52c1.05 5.3 4.09 11.25 10.76 11.25 6.3 0 6.56-5.2 6.56-5.88 0-3.52-2.47-4.77-5.88-6.4L86.55 90c-9-4.31-9-8.82-9-11.24 0-3.2 1.62-10.33 11.6-10.33 4.2 0 6.66 1.73 8.19 1.73 1.2 0 1.46-.79 1.73-1.79h1.57m.49-.49h-2.41l-.09.37c-.28 1-.46 1.42-1.26 1.42a7.26 7.26 0 0 1-2-.52A17.83 17.83 0 0 0 89.18 68c-4.5 0-7.84 1.4-9.93 4.16a11.34 11.34 0 0 0-2.16 6.66c0 2.53 0 7.24 9.25 11.68l3.52 1.68c3.58 1.71 5.6 2.82 5.6 6 0 .55-.17 5.39-6.07 5.39-7.34 0-9.64-7.58-10.28-10.84l-.11-.47h-2.38v13.94H79l.09-.37c.25-1 .46-1.41 1.1-1.41a6.94 6.94 0 0 1 2 .51 20 20 0 0 0 7 1.27c4.44 0 8.07-1.35 10.48-3.91a11.1 11.1 0 0 0 3-7.55 11.37 11.37 0 0 0-6-10.09l-7.72-3.84c-4.46-2.23-5.13-3.28-5.13-5.75 0-3.09 2.66-4.5 5.13-4.5 7.2 0 9.56 8.39 9.81 9.34l.09.37h2.34V67.9zM135 69.23v10.55h-1.25c-1.16-5.46-2.58-8.76-11.61-8.76-2.83 0-3.77.21-3.77 2.46v12.18h.26c6.27 0 7-3.68 7.77-7.82h1.31v17.74h-1.31c-.58-4.3-1.42-8.13-8-8.13v12.22c0 3.47 2.1 3.57 5.77 3.73v1.32h-18.88v-1.32c3-.31 4.61-.47 4.61-3.73v-25.4c0-3.46-2.15-3.57-4.61-3.73v-1.31H135m.49-.49H104.8V71h.53c2.46.17 4.08.27 4.08 3.24v25.4c0 2.81-1.12 2.93-4.14 3.24h-.43v2.24h19.87v-2.27h-.47c-3.94-.16-5.31-.37-5.31-3.24V87.94c5.61.17 6.48 3.32 7.06 7.71l.06.42h2.23V77.35H126l-.07.41c-.69 3.93-1.29 7.33-7.07 7.41V73.48c0-1.73.4-2 3.29-2 4.13 0 6.8.7 8.43 2.2 1.45 1.35 2.09 3.28 2.7 6.17l.08.39h2.14v-11.5z" fill="#223a73"/><path d="M38.2 104.38c2.85-.37 5.43-2.19 5.43-5.69V77.23c-3-3.65-3.82-4.06-4.51-4.06v-3.26h11.19L68.7 92.55h.11V77.14c0-3.18-2-4.81-6.2-4.81v-2.45h13v2.34c-3.3.13-4.13 1.23-4.13 3.77v31.34h-3.57L47.28 81.72l-.06 16.57c.13 3.92 1.38 5.81 4.53 5.81v2.77H38.2Z" fill="url(#AT)"/><path d="M99.69 81.4c-1-3.71-4.53-9.13-9.78-9.25-2.34-.05-5.09 1-5.08 3.7s1.93 4 6.38 6.25l6.28 3.49a12.33 12.33 0 0 1 6.22 10.35c0 4.67-3.06 11.92-13.54 11.61-3.88-.11-7.42-2-9.06-2-1.12 0-1.38 1-1.59 1.8H78V92.64h1.88c1.06 5.35 4.24 11.13 10.52 11.13 4.55 0 5.54-2.93 5.54-3.62 0-3.56-1.4-4.9-4.85-6.54l-3.55-1.7c-9.07-4.35-9.07-9.64-9.07-12.08 0-3.24 1.65-10.44 11.72-10.44 4.24 0 6.13 1.74 7.67 1.74 1.22 0 1.48-.79 1.75-1.8h2.6V81.4Z" fill="url(#AU)"/><path d="M105.44 70h31.21v11.4h-2.72c-1.17-6.23-4.42-8.73-10.09-8.73-2.86 0-3.42.21-3.42 2.49v11.46c6.57.11 6.18-3.66 6.93-7.9h1.93v18.46h-1.93c-.59-4.89-2.82-8-7-8v10.73c0 3.5 2 3.91 5.67 4.07v2.93H106V104c3-.32 4.66-.79 4.66-4.07V76.17c0-3.5-2.17-3.6-5.2-3.76Z" fill="url(#AV)"/><path d="M38.22 103.4c3.15-.36 4.62-.73 4.62-4.2V74.32a27.45 27.45 0 0 0-2.32-2.59c-1.16-1.12-1.69-1.19-2.14-1.19v-1.31h11.07l18.22 22.42h.1V75.74c0-1.86-.22-3.23-1.28-4.1a6.35 6.35 0 0 0-3.6-1.1v-1.31h11.28v1.31c-3.77.48-4.09 1.68-4.09 4.2v30.92h-1.47L45.25 77.21h-.1v21c0 3.78 1.1 4.77 5 5.19v1.32H38.22zM99.2 79.78c-.94-3.67-4.09-9.71-10.28-9.71-2.73 0-5.62 1.58-5.62 5a6.29 6.29 0 0 0 .28 2 4 4 0 0 0 .76 1.28 14.3 14.3 0 0 0 4.37 2.87l7.71 3.83a10.89 10.89 0 0 1 5.78 9.66c0 4.62-3.37 11-13 11-5 0-7.35-1.78-9-1.78-1.1 0-1.36.94-1.57 1.78h-1.52v-13h1.52a20 20 0 0 0 1.65 5 12.47 12.47 0 0 0 3 4 9.13 9.13 0 0 0 6.12 2.2c6.3 0 6.56-5.2 6.56-5.88 0-3.52-2.47-4.77-5.88-6.4L86.55 90c-3.72-1.79-5.9-3.61-7.18-5.31a8.92 8.92 0 0 1-1.79-5.93c0-3.2 1.62-10.33 11.6-10.33 4.2 0 6.66 1.73 8.19 1.73 1.2 0 1.46-.79 1.73-1.79h1.57v11.41zm6.09-10.55H135v10.55h-1.25c-1.16-5.46-2.58-8.76-11.61-8.76-2.83 0-3.77.21-3.77 2.46v12.18c6.5.11 7.29-3.62 8-7.82h1.31v17.74h-1.31c-.58-4.3-1.42-8.13-8-8.13v12.22c0 3.47 2.1 3.57 5.77 3.73v1.32h-18.85v-1.32c3-.31 4.61-.47 4.61-3.73v-25.4c0-1.85-.61-2.74-1.55-3.19a8.72 8.72 0 0 0-3.06-.54z" fill="#fff"/><path d="M74.17 70.54V70c-1.55.14-3 .12-3.81.71-1.09.78-1.37 2.13-1.37 3.89v29.9L46.28 76.9a1.46 1.46 0 0 0-1.41-.71c-.67.17-.63.56-.63 1.09V97.9a5.52 5.52 0 0 0 1.67 3.83s-.79-.85-.76-3.63V77.21h.08l23.38 28.45h1.47V74.43c0-2 .61-2.59.89-2.83a6 6 0 0 1 3.2-1.06Z" fill="url(#AW)"/><path d="M50.14 104.72H38.22v-.34l4-.83h3.8l4.12.81z" fill="url(#AX)"/><path d="M124.18 104.72h-18.89v-.27a52.82 52.82 0 0 0 5.27-1.11 28.46 28.46 0 0 1 7.92.08c1.53.45 5.7 1 5.7 1Z" fill="url(#AY)"/><path d="M42.84 74.32c-.94-1.15-2.46-2.71-2.46-2.71-1.09-1-1.65-1-2-1.07v-.79c2 0 2.36.79 2.73 1.4l1.73 3.17zm24.92 1.21c0-1.88-.43-3.11-1.37-3.88a6.28 6.28 0 0 0-3.5-1.11v-.49c1.62.12 3.11.24 4 1a3 3 0 0 1 1 2.26 10.33 10.33 0 0 1-.13 2.22z" fill="#e6e6e6"/><path d="M88.8 105.71a19.25 19.25 0 0 1-6.47-1.26 7.16 7.16 0 0 0-2.1-.52 1.23 1.23 0 0 0-1.11.52 3.49 3.49 0 0 0-.49 1.26h-.37a4.8 4.8 0 0 1 .21-1.5c.38-1.19 1-1.62 1.82-1.5.59.09 1.19.7 2.15 1.11a15 15 0 0 0 6.36 1.72 11.69 11.69 0 0 0 9.3-4.1 11.85 11.85 0 0 0 3-7 13.89 13.89 0 0 0-2-7.35 10.73 10.73 0 0 1-.1 15.15c-1.94 1.97-5.23 3.55-10.2 3.47Z" fill="url(#AZ)"/><path d="M79.14 96.91c-.71-1.39-.54-2.07-.78-4.17h.27a21.07 21.07 0 0 0 1.18 4 13.84 13.84 0 0 0 1 2.08 14.49 14.49 0 0 0 1.39 2 20 20 0 0 1-3.06-3.91zm16.58-.52c-.79-2.13-2.2-3-5.45-4.6l-3.52-1.67c-3.36-1.59-7.21-4-8.52-7.37a19.45 19.45 0 0 0 3.91 3.7 73.33 73.33 0 0 0 8.19 4.16 10.61 10.61 0 0 1 4.21 3.24 5 5 0 0 1 1.18 2.54z" fill="#e6e6e6"/><path d="M100.67 79.78H99.2l-.09-.36A16 16 0 0 0 95.54 73a9.16 9.16 0 0 0-6.42-2.92c-2.66 0-4.68 1.27-5.39 2.89a5.82 5.82 0 0 0-.36 3.18 4.15 4.15 0 0 0 1.19 2.47 4.32 4.32 0 0 1-1.74-2.27 5.41 5.41 0 0 1-.08-3.69c.57-1.54 2.38-3.63 6.17-3.63 3.26 0 5.3 1.77 6.86 3.68a20.72 20.72 0 0 1 3.46 6.91h1.17a10.81 10.81 0 0 1-.88-3.08 37.27 37.27 0 0 1 .08-5.26 15.3 15.3 0 0 1 .81-2.89h.26Z" fill="url(#Aa)"/><path d="M118.42 100.3a3.06 3.06 0 0 1-1.35-2.36c-.14-1.26 0-6.87 0-9.23a1.37 1.37 0 0 1 .85-1.37 3.64 3.64 0 0 1 1.08-.14c4.06.07 5.73 1.17 6.72 3.87a16.12 16.12 0 0 1 .91 3.77h.83c0-1-.84-4.58-.85-5.17a56.63 56.63 0 0 1 .05-6.59 39.81 39.81 0 0 1 .85-5.22h.25v17.72h-1.31l-.06-.44a14.84 14.84 0 0 0-1-4c-1-2.35-3-3.67-7-3.7v10.38l.03 2.48z" fill="url(#Ab)"/><path d="M118.4 85.66a7.93 7.93 0 0 1-1.09-3.1l-.24-9.19c0-2.89 2.46-3.23 4.9-3.23 4 0 7.88.5 9.71 2.73 1.39 1.7 2.14 6.79 2.14 6.79h.61l-.57-8.57a3.53 3.53 0 0 1 .82-1.86h.32v10.55h-1.28s-.13-.67-.37-1.63a10.48 10.48 0 0 0-2.12-4.44c-1.83-2-5-2.73-9.32-2.68-2.87 0-3.51.43-3.56 2.28z" fill="url(#Ac)"/><path d="M109.89 74c-.07-1.46-.48-2.37-1.52-2.87a7.45 7.45 0 0 0-3.09-.54v-.27a11 11 0 0 1 3.39.07 2.21 2.21 0 0 1 1.4 2 4.62 4.62 0 0 1-.18 1.61Z" fill="#e6e6e6"/><path d="M276.54 48l.09-4a.34.34 0 0 0-.32-.19 22.27 22.27 0 0 1-3.44 1.34.49.49 0 0 0 0 .64l.32.19c1 .57 1 .77 1 2.65v14.5c0 2.3 0 2.62-1.21 2.78l-.74.09a.57.57 0 0 0 .07.81l3.06-.11 3.09.11a.57.57 0 0 0 .07-.81l-.77-.09c-1.15-.16-1.21-.48-1.21-2.78zm-31.7 15.13c0 2.3 0 2.62-1.22 2.78L243 66a.57.57 0 0 0 .07.81l3-.11 2.91.11A.57.57 0 0 0 249 66l-.57-.09c-1.15-.2-1.22-.48-1.22-2.78v-4.89a2.7 2.7 0 0 1 .48-1.91 3.5 3.5 0 0 1 2.72-1.12c2.17 0 3 1.34 3 3.16v4.76c0 2.3 0 2.58-1.21 2.78l-.61.09a.57.57 0 0 0 .07.81l3-.11 3 .11a.57.57 0 0 0 .07-.81l-.71-.09c-1.15-.16-1.21-.48-1.21-2.78v-5.49c0-2.14-1.08-4-3.73-4a8.75 8.75 0 0 0-4.47 1.63.34.34 0 0 1-.36-.36 14.42 14.42 0 0 1 .07-1.49.38.38 0 0 0-.35-.23 17.81 17.81 0 0 1-3.19 1.57c-.16.09-.16.44 0 .57l.28.19c.87.58.87.73.87 2zm-20.76-16.35a1.66 1.66 0 0 0-1.72 1.73 1.66 1.66 0 0 0 3.31-.07 1.59 1.59 0 0 0-1.59-1.66M223 63.13c0 2.3 0 2.62-1.22 2.78l-.67.09a.57.57 0 0 0 .07.81l3-.11 3 .11a.58.58 0 0 0 .06-.81l-.67-.09c-1.15-.16-1.21-.48-1.21-2.78v-5.75l.12-4c0-.13-.15-.19-.31-.19a21.74 21.74 0 0 1-3.29 1.56.44.44 0 0 0 0 .58l.28.19c.87.58.87.73.87 2zm-3.55-7.67a1 1 0 0 0 0-1.33h-3.55c-.54 0-.57 0-.57-.61v-1.44a.6.6 0 0 0-.67-.15 8.16 8.16 0 0 1-1.34 1.88 6.35 6.35 0 0 1-2 1 .53.53 0 0 0 .1.66h.89c.64 0 .67.07.67.93v7.32c0 1.91.58 3.44 3.32 3.44a4.44 4.44 0 0 0 3.36-1.46c.06-.19-.07-.55-.32-.55-.1 0-.51.36-.8.45a2.35 2.35 0 0 1-.86.16c-2.11 0-2.34-1.69-2.34-3.55v-6c0-.67 0-.77.58-.77zm-23.76-1.82c0-1.46-.06-5.42.48-6.57.13-.26.77-.51 1.79-.67l.45-.07a.55.55 0 0 0-.07-.79l-3.29.09c-1.21 0-2.29 0-3.76-.09-.26.09-.29.6-.07.79l.55.07c1.27.16 1.79.35 2 .63.6 1 .64 5.11.64 6.61v6.84a3.16 3.16 0 0 1-.13 1.34h-.06l-5.28-5.78-3.09-3.48c-1.06-1.18-4.83-5.4-5.47-7a10.79 10.79 0 0 1-1.46.09c-.57 0-2.27 0-3.61-.09a.55.55 0 0 0-.06.79l.54.07a3.47 3.47 0 0 1 2 .76 2.94 2.94 0 0 1 .7 2.3v9.23c0 1.53 0 5.43-.41 6.58-.16.35-.67.54-1.41.64l-.86.09a.61.61 0 0 0 .06.81l3.32-.11 3.74.11A.6.6 0 0 0 183 66l-1-.09c-.8-.07-1.44-.26-1.63-.61-.54-1-.57-5.11-.57-6.61v-7a8.07 8.07 0 0 1 .16-2.08h.04l3.7 4.31 7.42 8.43 4.08 4.83a.58.58 0 0 0 .61-.36c-.1-.83-.1-4.63-.1-5.58zm15.07 11.7a1.28 1.28 0 0 0-.41.22 1.78 1.78 0 0 1-.8.19c-1.25 0-1.53-1.31-1.47-2.78l.19-5.56c.1-2.39-1-3.73-3.32-3.73S199 55.94 199 57.61a.4.4 0 0 0 .45.44 3.45 3.45 0 0 0 1.82-.6c.25-.19.29-.58.32-1.09.06-1 1.15-1.44 2-1.44 2 0 2.37 1.6 2.34 2.78v1.47c0 .48-.06.77-.54.93l-3.8 1.37c-2 .73-2.65 1.47-2.65 2.72a3 3 0 0 0 1 2.23 3.29 3.29 0 0 0 2.23.73 4.72 4.72 0 0 0 2.3-.79 5.05 5.05 0 0 1 1.25-.64c.19 0 .38.26.51.44a2.52 2.52 0 0 0 2.07 1 3.36 3.36 0 0 0 2.69-1.4c.01-.23-.1-.42-.23-.42zm-5-1.92c0 .67 0 1.12-.41 1.5a3.61 3.61 0 0 1-2 .8 1.92 1.92 0 0 1-2-1.92c0-1.24.92-1.72 2.81-2.36a6.1 6.1 0 0 1 1.31-.32c.19 0 .32.06.32.41zm29.62-9.74a6.71 6.71 0 0 0-6.8 6.9 6.31 6.31 0 0 0 6.55 6.57 6.51 6.51 0 0 0 6.73-6.86 6.37 6.37 0 0 0-6.48-6.61zm.07 12.52c-2.81 0-4.12-3.13-4.12-6 0-3.51 1.56-5.53 3.67-5.53 3 0 4.12 3.46 4.12 6.17 0 2.42-.86 5.36-3.67 5.36zm35.31-.86a1.21 1.21 0 0 0-.42.22 1.77 1.77 0 0 1-.79.19c-1.25 0-1.54-1.31-1.47-2.78l.19-5.56c.09-2.39-1-3.73-3.32-3.73S259 55.94 259 57.61a.4.4 0 0 0 .45.44 3.45 3.45 0 0 0 1.82-.6c.25-.19.28-.58.31-1.09.07-1 1.16-1.44 2.05-1.44 2 0 2.37 1.6 2.33 2.78v1.47c0 .48-.06.77-.54.93l-3.81 1.37c-2 .73-2.64 1.47-2.64 2.72a3 3 0 0 0 1 2.23 3.27 3.27 0 0 0 2.23.73 4.72 4.72 0 0 0 2.3-.79 5.05 5.05 0 0 1 1.25-.64c.19 0 .38.26.51.44a2.52 2.52 0 0 0 2.07 1 3.35 3.35 0 0 0 2.68-1.4c-.01-.23-.12-.42-.25-.42zm-5-1.92v.46a1.5 1.5 0 0 1-.39 1 3.61 3.61 0 0 1-1.95.8 1.93 1.93 0 0 1-2-1.92 1.69 1.69 0 0 1 .18-.8 1.75 1.75 0 0 1 .52-.61 7.93 7.93 0 0 1 2.12-1 6.24 6.24 0 0 1 .8-.23 2.36 2.36 0 0 1 .51-.09c.19 0 .32.06.32.41zm32.35 60.48c0 2.3 0 2.62-1.22 2.78l-.67.1a.56.56 0 0 0 .07.8l3-.1 2.9.1a.56.56 0 0 0 .07-.8l-.58-.1c-1.15-.19-1.21-.48-1.21-2.78V119a2.67 2.67 0 0 1 .48-1.92 3.46 3.46 0 0 1 2.71-1.12c2.18 0 3 1.34 3 3.16v4.76c0 2.3 0 2.59-1.22 2.78l-.6.1a.56.56 0 0 0 .06.8l3-.1 3 .1a.56.56 0 0 0 .06-.8l-.7-.1c-1.15-.16-1.21-.48-1.21-2.78v-5.49c0-2.14-1.09-4-3.74-4a8.75 8.75 0 0 0-4.47 1.63.34.34 0 0 1-.35-.35l.06-1.5a.36.36 0 0 0-.35-.22 17.77 17.77 0 0 1-3.19 1.56.43.43 0 0 0 0 .57l.29.19c.86.58.86.74.86 2zm-20.76-16.34a1.65 1.65 0 0 0-1.72 1.72 1.66 1.66 0 0 0 3.32-.06 1.59 1.59 0 0 0-1.6-1.66m-1.05 16.34c0 2.3 0 2.62-1.21 2.78l-.67.1a.56.56 0 0 0 .06.8l3-.1 3 .1a.56.56 0 0 0 .06-.8l-.67-.1c-1.15-.16-1.21-.48-1.21-2.78v-5.75l.13-4a.3.3 0 0 0-.32-.19 21.87 21.87 0 0 1-3.29 1.57c-.16.09-.16.44 0 .57l.29.19c.86.58.86.74.86 2zm-3.58-7.66a1 1 0 0 0 0-1.34h-3.55c-.54 0-.57 0-.57-.61v-1.43a.58.58 0 0 0-.67-.16 8 8 0 0 1-1.34 1.88 6.39 6.39 0 0 1-2 1 .53.53 0 0 0 .09.67h.9c.64 0 .67.06.67.92v7.32c0 1.92.57 3.44 3.32 3.44a4.44 4.44 0 0 0 3.35-1.46c.06-.19-.07-.54-.32-.54-.1 0-.51.35-.8.44a2.35 2.35 0 0 1-.86.16c-2.11 0-2.33-1.69-2.33-3.54v-6c0-.67 0-.76.57-.76zm-50.22 7.66c0 2.3 0 2.62-1.22 2.78l-.67.1a.56.56 0 0 0 .07.8l3-.1 2.9.1a.56.56 0 0 0 .07-.8l-.58-.1c-1.15-.19-1.21-.48-1.21-2.78V119a2.67 2.67 0 0 1 .48-1.92 3.46 3.46 0 0 1 2.71-1.12c2.17 0 3 1.34 3 3.16v4.76c0 2.3 0 2.59-1.21 2.78l-.61.1a.56.56 0 0 0 .07.8l3-.1 3 .1a.56.56 0 0 0 .07-.8l-.7-.1c-1.15-.16-1.22-.48-1.22-2.78v-5.49c0-2.14-1.08-4-3.73-4a8.75 8.75 0 0 0-4.47 1.63.33.33 0 0 1-.35-.35l.06-1.5a.36.36 0 0 0-.35-.22 17.77 17.77 0 0 1-3.19 1.56.43.43 0 0 0 0 .57l.29.19c.86.58.86.74.86 2zm-13.77-6.44a22.29 22.29 0 0 1 .1-2.78c0-.13-.13-.19-.32-.23a11.08 11.08 0 0 1-3.42.58.48.48 0 0 0-.06.7l.38.16c1 .42 1 .7 1 2.72v5.33c0 2.58 1 4 3.86 4a8.4 8.4 0 0 0 4.41-1.65c.19 0 .29.16.29.45V128a.43.43 0 0 0 .38.22 17.16 17.16 0 0 1 4.18-1.18c.26-.12.22-.76 0-.92a5.7 5.7 0 0 1-1.24.16c-.9 0-1-1-1-3.48v-5.36l.09-2.78c0-.13-.12-.19-.28-.23a12.65 12.65 0 0 1-3.74.58.44.44 0 0 0 0 .7l.42.16c1 .38 1.18.45 1.18 2.52v5.24a2.2 2.2 0 0 1-.64 1.85 4.17 4.17 0 0 1-2.59 1c-2.42 0-3-1.47-3-3.67zm-28.19-8.79c0-1.21 0-1.28 1-1.28h1.94a13.78 13.78 0 0 1 3.1.19c1.6.42 2 1.6 2.24 3a.56.56 0 0 0 .76-.1l-.09-4.21a41.51 41.51 0 0 1-4.31.1h-5.88c-1.27 0-2.36 0-3.7-.1-.19.1-.26.67-.07.8l.52.06c1.85.23 1.91.67 1.91 4v11.49c0 3.35-.06 3.77-1.91 4l-.8.1a.63.63 0 0 0 .06.8l4-.1 4.25.1c.19-.1.25-.68.06-.8l-1.08-.1c-1.89-.16-2-.64-2-4v-4.44c0-.83.09-.86 1.05-.86h2.17a10.65 10.65 0 0 1 2.46.16 1.54 1.54 0 0 1 1 1.21l.31 1.25c.23.19.71.19.83 0l-.13-3.1.13-3.22a.67.67 0 0 0-.83 0l-.28 1.28c-.19.83-.45 1-.8 1.11a12 12 0 0 1-2.72.19h-2.17c-1 0-1.05 0-1.05-.86zm16.79 5.78a6.71 6.71 0 0 0-6.8 6.9 6.31 6.31 0 0 0 6.55 6.57 6.52 6.52 0 0 0 6.74-6.86 6.38 6.38 0 0 0-6.49-6.61zm.07 12.55c-2.81 0-4.12-3.13-4.12-6 0-3.51 1.56-5.52 3.67-5.52 3 0 4.12 3.45 4.12 6.16 0 2.36-.86 5.36-3.67 5.36zm53.29-.79a5.54 5.54 0 0 1-1.38.31c-.89 0-.92-1.18-.92-3.7v-14l.09-4a.36.36 0 0 0-.32-.19 21.29 21.29 0 0 1-3.44 1.34.49.49 0 0 0 0 .64l.32.19c1 .58 1 .77 1 2.65v4.82c0 .26 0 .45-.19.45a6.44 6.44 0 0 0-2.14-.29c-4.35 0-7.73 2.87-7.73 7.35a5.86 5.86 0 0 0 5.91 6.12 6.61 6.61 0 0 0 4-1.46h.11a3.79 3.79 0 0 1 .06 1v.56c0 .16.16.25.36.25a23.64 23.64 0 0 1 4.21-1c.31-.19.28-.98.06-1.04zm-4.69-1.89a2 2 0 0 1-.22 1.18 3.92 3.92 0 0 1-2.46.9c-3.13 0-4.76-2.75-4.76-5.66s1.5-5.3 4.4-5.3a3.34 3.34 0 0 1 2.69 1.34A1.9 1.9 0 0 1 246 118zm18 1.79c-.09 0-.25.13-.41.22a1.78 1.78 0 0 1-.8.19c-1.24 0-1.53-1.3-1.47-2.78l.19-5.55c.1-2.4-1-3.74-3.31-3.74s-5.94 2.27-5.94 3.93a.4.4 0 0 0 .44.45 3.47 3.47 0 0 0 1.82-.61c.26-.19.29-.58.32-1.09.06-1 1.15-1.44 2.05-1.44 2 0 2.36 1.6 2.33 2.79v1.46c0 .48-.07.77-.54.93l-3.81 1.37c-2 .74-2.64 1.47-2.64 2.72a3 3 0 0 0 1 2.23 3.32 3.32 0 0 0 2.24.73 4.8 4.8 0 0 0 2.3-.79 5.06 5.06 0 0 1 1.24-.64c.2 0 .39.26.52.45a2.53 2.53 0 0 0 2.07 1 3.35 3.35 0 0 0 2.68-1.4c-.02-.24-.12-.43-.28-.43zm-5-1.92c0 .67 0 1.12-.42 1.5a3.61 3.61 0 0 1-1.95.8 1.92 1.92 0 0 1-2-1.91c0-1.25.92-1.73 2.81-2.37a6.24 6.24 0 0 1 1.31-.32c.19 0 .32.07.32.42zm29.66-9.74a6.71 6.71 0 0 0-6.81 6.9 6.31 6.31 0 0 0 6.55 6.57 6.52 6.52 0 0 0 6.74-6.86 6.38 6.38 0 0 0-6.48-6.61zm.06 12.52c-2.81 0-4.12-3.13-4.12-6 0-3.51 1.56-5.52 3.67-5.52 3 0 4.12 3.45 4.12 6.16 0 2.39-.86 5.39-3.67 5.39z"/></svg>