<?xml version="1.0" encoding="UTF-8"?>
<svg xmlns="http://www.w3.org/2000/svg" id="Layer_2" data-name="Layer 2" viewBox="0 0 292.92 89.31">
  <defs>
    <style>
      .cls-1 {
        fill: #161c23;
      }

      .cls-2 {
        fill: #fff;
      }
    </style>
  </defs>
  <g id="Layer_1-2" data-name="Layer 1">
    <g>
      <path class="cls-1" d="m11.32,0h270.27c6.25,0,11.32,5.09,11.32,11.35v66.6c0,6.26-5.07,11.35-11.32,11.35H11.32c-6.25,0-11.32-5.09-11.32-11.35V11.35C0,5.09,5.07,0,11.32,0Z"></path>
      <path class="cls-2" d="m95.99,53.95h4.08v9.29c-1.19.95-2.59,1.69-4.18,2.2-1.59.51-3.23.77-4.91.77-2.37,0-4.51-.52-6.41-1.55-1.9-1.03-3.4-2.46-4.48-4.28-1.09-1.82-1.63-3.87-1.63-6.16s.54-4.34,1.63-6.16c1.08-1.82,2.58-3.25,4.5-4.28,1.91-1.03,4.07-1.55,6.46-1.55,1.95,0,3.72.32,5.31.97,1.59.64,2.93,1.59,4.02,2.83l-2.72,2.66c-1.77-1.78-3.91-2.66-6.41-2.66-1.64,0-3.1.34-4.37,1.03-1.27.69-2.27,1.65-2.99,2.9-.72,1.24-1.08,2.66-1.08,4.26s.36,2.95,1.08,4.2c.72,1.24,1.71,2.22,2.99,2.93,1.27.71,2.72,1.07,4.33,1.07,1.82,0,3.41-.4,4.78-1.2v-7.26h0Z"></path>
      <path class="cls-2" d="m108.48,64.93c-1.44-.78-2.56-1.86-3.37-3.25-.81-1.39-1.21-2.96-1.21-4.71s.4-3.32,1.21-4.69c.81-1.38,1.93-2.45,3.37-3.23,1.44-.78,3.06-1.16,4.85-1.16s3.44.39,4.88,1.16c1.44.78,2.56,1.85,3.37,3.23.81,1.38,1.21,2.94,1.21,4.69s-.4,3.32-1.21,4.71c-.81,1.39-1.93,2.47-3.37,3.25-1.44.78-3.07,1.16-4.88,1.16s-3.41-.39-4.85-1.16Zm8.64-3.93c1-1.02,1.49-2.36,1.49-4.03s-.5-3.01-1.49-4.03c-1-1.02-2.26-1.53-3.79-1.53s-2.79.51-3.77,1.53c-.99,1.02-1.48,2.36-1.48,4.03s.49,3.01,1.48,4.03c.98,1.02,2.24,1.53,3.77,1.53s2.79-.51,3.79-1.53Z"></path>
      <path class="cls-2" d="m129.9,64.93c-1.44-.78-2.56-1.86-3.37-3.25-.81-1.39-1.21-2.96-1.21-4.71s.4-3.32,1.21-4.69c.81-1.38,1.93-2.45,3.37-3.23,1.44-.78,3.06-1.16,4.85-1.16s3.44.39,4.88,1.16c1.44.78,2.56,1.85,3.37,3.23.81,1.38,1.21,2.94,1.21,4.69s-.4,3.32-1.21,4.71-1.93,2.47-3.37,3.25c-1.44.78-3.07,1.16-4.88,1.16s-3.41-.39-4.85-1.16Zm8.63-3.93c1-1.02,1.49-2.36,1.49-4.03s-.5-3.01-1.49-4.03c-1-1.02-2.26-1.53-3.78-1.53s-2.79.51-3.77,1.53c-.99,1.02-1.48,2.36-1.48,4.03s.49,3.01,1.48,4.03c.98,1.02,2.24,1.53,3.77,1.53s2.79-.51,3.78-1.53Z"></path>
      <path class="cls-2" d="m165.81,48.09v15.08c0,6.26-3.19,9.39-9.57,9.39-1.71,0-3.32-.22-4.85-.65-1.53-.43-2.79-1.06-3.79-1.88l1.86-3.13c.77.64,1.75,1.16,2.94,1.55,1.18.39,2.39.58,3.6.58,1.95,0,3.38-.44,4.28-1.33.91-.89,1.36-2.24,1.36-4.06v-.93c-.71.78-1.57,1.37-2.59,1.76-1.02.4-2.14.6-3.35.6-1.68,0-3.21-.36-4.57-1.08-1.36-.72-2.44-1.74-3.22-3.05-.79-1.31-1.18-2.81-1.18-4.5s.39-3.18,1.18-4.48c.78-1.3,1.86-2.3,3.22-3.01,1.36-.71,2.88-1.07,4.57-1.07,1.28,0,2.45.21,3.5.63,1.05.42,1.93,1.07,2.64,1.93v-2.36h3.95Zm-5.6,12.04c1.01-.94,1.51-2.17,1.51-3.68s-.5-2.7-1.51-3.63c-1.01-.93-2.3-1.4-3.87-1.4s-2.9.47-3.9,1.4c-1.01.93-1.51,2.14-1.51,3.63s.5,2.74,1.51,3.68c1.01.94,2.31,1.42,3.9,1.42s2.86-.47,3.87-1.42Z"></path>
      <path class="cls-2" d="m171.25,41.16h4.15v24.71h-4.15v-24.71Z"></path>
      <path class="cls-2" d="m197.45,58.31h-13.92c.24,1.31.88,2.35,1.91,3.11,1.03.77,2.31,1.15,3.84,1.15,1.95,0,3.55-.64,4.81-1.93l2.23,2.56c-.8.95-1.81,1.68-3.02,2.16-1.22.49-2.59.73-4.12.73-1.95,0-3.66-.39-5.15-1.16-1.48-.78-2.63-1.86-3.44-3.25-.81-1.39-1.21-2.96-1.21-4.71s.39-3.29,1.18-4.68c.79-1.39,1.88-2.47,3.27-3.25,1.39-.78,2.97-1.16,4.71-1.16s3.27.38,4.63,1.15c1.36.77,2.42,1.84,3.19,3.23.76,1.39,1.15,2.99,1.15,4.81,0,.29-.02.7-.07,1.23h0Zm-12.27-5.91c-.92.79-1.48,1.84-1.68,3.15h10.06c-.18-1.29-.72-2.33-1.63-3.13-.91-.8-2.04-1.2-3.39-1.2s-2.45.39-3.37,1.18h0Z"></path>
      <path class="cls-2" d="m225.9,43.56c1.49.67,2.64,1.62,3.44,2.86.8,1.24,1.2,2.72,1.2,4.43s-.4,3.16-1.2,4.41c-.8,1.25-1.94,2.21-3.44,2.88-1.49.67-3.25,1-5.26,1h-5.25v6.73h-4.32v-23.31h9.57c2.01,0,3.77.33,5.26,1h0Zm-1.18,10.72c.97-.8,1.46-1.94,1.46-3.43s-.49-2.63-1.46-3.43c-.97-.8-2.4-1.2-4.28-1.2h-5.05v9.26h5.05c1.88,0,3.31-.4,4.28-1.2h0Z"></path>
      <path class="cls-2" d="m234.78,41.16h4.15v24.71h-4.15v-24.71Z"></path>
      <path class="cls-2" d="m257.15,49.77c1.38,1.25,2.08,3.15,2.08,5.68v10.42h-3.92v-2.16c-.51.78-1.23,1.37-2.18,1.78-.94.41-2.08.62-3.4.62s-2.49-.23-3.49-.68c-1-.46-1.77-1.09-2.31-1.9-.54-.81-.81-1.73-.81-2.75,0-1.6.59-2.88,1.78-3.85,1.18-.97,3.05-1.45,5.6-1.45h4.58v-.27c0-1.24-.37-2.2-1.11-2.86-.74-.67-1.84-1-3.3-1-1,0-1.98.16-2.94.47-.96.31-1.78.74-2.44,1.3l-1.63-3.03c.93-.71,2.05-1.25,3.35-1.63,1.31-.38,2.69-.57,4.15-.57,2.61,0,4.61.63,5.99,1.88h0Zm-3.78,12.59c.81-.48,1.38-1.16,1.71-2.05v-2.06h-4.28c-2.39,0-3.59.79-3.59,2.36,0,.75.3,1.35.9,1.8.6.44,1.43.67,2.49.67s1.96-.24,2.77-.72h0Z"></path>
      <path class="cls-2" d="m280.81,48.09l-8.3,19.21c-.78,1.93-1.72,3.29-2.82,4.08-1.11.79-2.45,1.18-4.02,1.18-.89,0-1.76-.14-2.62-.43-.86-.29-1.57-.69-2.13-1.2l1.66-3.06c.4.38.87.68,1.41.9.54.22,1.09.33,1.64.33.73,0,1.33-.19,1.81-.57.48-.38.91-1.01,1.31-1.9l.3-.7-7.74-17.85h4.32l5.58,13.15,5.61-13.15h3.99,0Z"></path>
      <path class="cls-2" d="m70.48,43.51l-11.16-6.46-9.18,8.9,8.39,8.13,11.95-6.92c.66-.38,1.05-1.06,1.05-1.83s-.39-1.45-1.05-1.83h0Z"></path>
      <path class="cls-2" d="m57.43,35.96l-12.28-7.11-26.91-13.83,30.4,29.46,8.8-8.53Z"></path>
      <path class="cls-2" d="m18.68,76.44l26.51-14.64,11.45-6.62-8.01-7.76-29.95,29.03Z"></path>
      <path class="cls-2" d="m16.44,16.22l-.03,59.5,30.71-29.76-30.68-29.73Z"></path>
      <path class="cls-2" d="m83.19,17.23h5.51c1.44,0,2.73.3,3.85.9,1.12.6,1.99,1.43,2.62,2.48.62,1.06.93,2.26.93,3.6s-.31,2.54-.93,3.6c-.62,1.06-1.49,1.88-2.62,2.48-1.12.6-2.4.9-3.85.9h-5.51v-13.96h0Zm5.43,13.04c1.29,0,2.42-.26,3.4-.77.98-.51,1.74-1.23,2.27-2.14.53-.92.8-1.97.8-3.15s-.27-2.23-.8-3.15c-.53-.92-1.29-1.63-2.27-2.14-.98-.51-2.11-.77-3.4-.77h-4.42v12.12h4.42Z"></path>
      <path class="cls-2" d="m100.7,30.59c-.79-.45-1.41-1.08-1.86-1.88-.45-.8-.68-1.71-.68-2.72s.23-1.92.68-2.72c.45-.8,1.07-1.43,1.86-1.88.79-.45,1.67-.68,2.66-.68s1.87.23,2.65.68c.79.45,1.41,1.08,1.86,1.88.45.8.68,1.71.68,2.72s-.22,1.92-.68,2.72c-.45.8-1.07,1.43-1.86,1.88-.79.45-1.67.68-2.65.68s-1.87-.23-2.66-.68Zm4.79-.78c.63-.37,1.13-.89,1.49-1.56.36-.66.55-1.42.55-2.27s-.18-1.61-.55-2.27c-.36-.66-.86-1.18-1.49-1.56-.63-.37-1.34-.56-2.14-.56s-1.51.19-2.14.56c-.63.37-1.13.89-1.49,1.56-.36.66-.55,1.42-.55,2.27s.18,1.61.55,2.27c.36.66.86,1.18,1.49,1.56.63.37,1.34.56,2.14.56s1.51-.19,2.14-.56Z"></path>
      <path class="cls-2" d="m126.16,20.78l-3.94,10.41h-.93l-3.5-9.03-3.52,9.03h-.91l-3.94-10.41h.95l3.46,9.29,3.54-9.29h.86l3.52,9.27,3.5-9.27h.92Z"></path>
      <path class="cls-2" d="m136.62,21.83c.75.76,1.13,1.85,1.13,3.27v6.08h-.99v-6c0-1.17-.29-2.06-.89-2.67-.59-.61-1.41-.92-2.47-.92-1.22,0-2.18.37-2.88,1.1-.7.73-1.05,1.72-1.05,2.95v5.54h-.99v-10.41h.95v2.25c.36-.73.89-1.3,1.6-1.72.71-.41,1.55-.62,2.52-.62,1.3,0,2.33.38,3.08,1.14h0Z"></path>
      <path class="cls-2" d="m141.85,16.39h.99v14.79h-.99v-14.79Z"></path>
      <path class="cls-2" d="m148.44,30.59c-.79-.45-1.41-1.08-1.86-1.88-.45-.8-.68-1.71-.68-2.72s.22-1.92.68-2.72c.45-.8,1.07-1.43,1.86-1.88.79-.45,1.67-.68,2.66-.68s1.87.23,2.65.68c.79.45,1.41,1.08,1.86,1.88.45.8.68,1.71.68,2.72s-.22,1.92-.68,2.72c-.45.8-1.07,1.43-1.86,1.88-.79.45-1.67.68-2.65.68s-1.87-.23-2.66-.68Zm4.79-.78c.63-.37,1.13-.89,1.49-1.56.36-.66.55-1.42.55-2.27s-.18-1.61-.55-2.27c-.36-.66-.86-1.18-1.49-1.56-.63-.37-1.34-.56-2.14-.56s-1.51.19-2.14.56c-.63.37-1.13.89-1.49,1.56-.36.66-.55,1.42-.55,2.27s.18,1.61.55,2.27c.36.66.86,1.18,1.49,1.56.63.37,1.34.56,2.14.56s1.51-.19,2.14-.56Z"></path>
      <path class="cls-2" d="m165.79,21.68c.69.66,1.03,1.62,1.03,2.9v6.6h-.95v-1.85c-.33.61-.82,1.09-1.45,1.43-.64.34-1.4.51-2.29.51-1.15,0-2.07-.27-2.73-.82-.67-.55-1-1.26-1-2.15s.31-1.57.92-2.1,1.6-.81,2.95-.81h3.56v-.84c0-.97-.26-1.71-.78-2.21-.52-.51-1.29-.76-2.3-.76-.69,0-1.35.12-1.98.36-.63.24-1.16.56-1.6.96l-.5-.72c.52-.47,1.14-.83,1.87-1.09.73-.26,1.49-.39,2.29-.39,1.29,0,2.27.33,2.96.99h0Zm-1.32,8.16c.6-.4,1.06-.98,1.36-1.73v-1.95h-3.54c-1.02,0-1.76.19-2.22.56-.46.37-.69.88-.69,1.53s.25,1.21.76,1.6c.5.39,1.21.59,2.13.59.86,0,1.59-.2,2.2-.6h0Z"></path>
      <path class="cls-2" d="m180.17,16.39v14.79h-.98v-2.45c-.41.81-.99,1.44-1.73,1.87-.74.44-1.59.66-2.53.66s-1.84-.23-2.62-.68c-.78-.45-1.39-1.08-1.84-1.87-.44-.8-.67-1.71-.67-2.73s.22-1.94.67-2.74c.45-.8,1.06-1.43,1.84-1.87.78-.45,1.66-.67,2.62-.67s1.76.22,2.5.66c.73.44,1.32,1.05,1.74,1.83v-6.8h.99Zm-3.03,13.42c.63-.37,1.13-.89,1.49-1.56.36-.66.55-1.42.55-2.27s-.18-1.61-.55-2.27c-.36-.66-.86-1.18-1.49-1.56-.63-.37-1.34-.56-2.14-.56s-1.51.19-2.14.56c-.63.37-1.13.89-1.49,1.56-.36.66-.55,1.42-.55,2.27s.18,1.61.55,2.27c.36.66.86,1.18,1.49,1.56.63.37,1.34.56,2.14.56s1.51-.19,2.14-.56Z"></path>
      <path class="cls-2" d="m190.88,30.59c-.79-.45-1.41-1.08-1.86-1.88-.45-.8-.68-1.71-.68-2.72s.23-1.92.68-2.72c.45-.8,1.07-1.43,1.86-1.88.79-.45,1.67-.68,2.65-.68s1.87.23,2.66.68c.79.45,1.41,1.08,1.86,1.88.45.8.68,1.71.68,2.72s-.23,1.92-.68,2.72c-.45.8-1.07,1.43-1.86,1.88-.79.45-1.67.68-2.66.68s-1.87-.23-2.65-.68Zm4.79-.78c.63-.37,1.13-.89,1.49-1.56.36-.66.55-1.42.55-2.27s-.18-1.61-.55-2.27c-.36-.66-.86-1.18-1.49-1.56-.63-.37-1.34-.56-2.14-.56s-1.51.19-2.14.56c-.63.37-1.13.89-1.49,1.56-.36.66-.55,1.42-.55,2.27s.18,1.61.55,2.27.86,1.18,1.49,1.56c.63.37,1.34.56,2.14.56s1.51-.19,2.14-.56Z"></path>
      <path class="cls-2" d="m209.96,21.83c.76.76,1.13,1.85,1.13,3.27v6.08h-.99v-6c0-1.17-.3-2.06-.89-2.67-.59-.61-1.41-.92-2.48-.92-1.22,0-2.18.37-2.88,1.1-.7.73-1.05,1.72-1.05,2.95v5.54h-.99v-10.41h.95v2.25c.36-.73.89-1.3,1.6-1.72.71-.41,1.55-.62,2.52-.62,1.3,0,2.33.38,3.08,1.14h0Z"></path>
    </g>
  </g>
</svg>
