<?xml version="1.0" encoding="UTF-8"?>
<svg xmlns="http://www.w3.org/2000/svg" id="Layer_2" data-name="Layer 2" viewBox="0 0 292.92 89.31">
  <defs>
    <style>
      .cls-1 {
        fill: #161c23;
      }

      .cls-2 {
        fill: #fff;
      }
    </style>
  </defs>
  <g id="Layer_1-2" data-name="Layer 1">
    <g>
      <path class="cls-1" d="m11.32,0h270.27c6.25,0,11.32,5.09,11.32,11.35v66.6c0,6.26-5.07,11.35-11.32,11.35H11.32c-6.25,0-11.32-5.09-11.32-11.35V11.35C0,5.09,5.07,0,11.32,0h0Z"></path>
      <path class="cls-2" d="m18.18,36.49c-4.75,8.27-1.73,20.81,3.52,28.42,2.62,3.8,5.28,7.22,8.92,7.22.07,0,.14,0,.21,0,1.71-.07,2.94-.6,4.14-1.11,1.34-.57,2.73-1.16,4.9-1.16s3.39.57,4.66,1.13c1.26.55,2.55,1.11,4.47,1.07,4.1-.08,6.61-3.76,8.83-7.01,2.32-3.39,3.48-6.69,3.87-7.95l.02-.05c.08-.22-.03-.47-.25-.57,0,0-.03-.01-.03-.01-.72-.3-7.05-3.11-7.12-10.78-.06-6.23,4.75-9.53,5.71-10.13l.04-.03c.1-.07.18-.17.2-.3.02-.12,0-.25-.07-.35-3.32-4.87-8.41-5.6-10.46-5.69-.3-.03-.6-.05-.91-.05-2.41,0-4.71.91-6.56,1.64-1.28.51-2.38.94-3.14.94-.86,0-1.97-.44-3.25-.95-1.72-.68-3.67-1.46-5.73-1.46-.05,0-.1,0-.14,0-4.8.07-9.33,2.82-11.83,7.18Z"></path>
      <path class="cls-2" d="m49.76,15.78c-2.9.12-6.39,1.91-8.47,4.36-1.77,2.05-3.5,5.48-3.04,8.94.03.22.21.38.42.4.2.01.4.02.59.02,2.84,0,5.9-1.58,8-4.11,2.2-2.68,3.32-6.12,2.98-9.19-.03-.24-.24-.42-.48-.41Z"></path>
      <path class="cls-2" d="m83.19,15.54h5.51c1.44,0,2.73.3,3.85.9,1.12.6,1.99,1.43,2.62,2.48.62,1.06.93,2.26.93,3.6s-.31,2.54-.93,3.6c-.62,1.06-1.49,1.88-2.62,2.48-1.12.6-2.4.9-3.85.9h-5.51v-13.96h0Zm5.43,13.04c1.29,0,2.42-.26,3.4-.77.98-.51,1.74-1.23,2.27-2.14.53-.92.8-1.97.8-3.15s-.27-2.23-.8-3.15c-.53-.92-1.29-1.63-2.27-2.14-.98-.51-2.11-.77-3.4-.77h-4.41v12.12h4.41Z"></path>
      <path class="cls-2" d="m100.7,28.9c-.79-.45-1.41-1.08-1.86-1.88-.45-.8-.68-1.71-.68-2.72s.23-1.92.68-2.72c.45-.8,1.07-1.43,1.86-1.88.79-.45,1.67-.68,2.65-.68s1.87.23,2.65.68c.79.45,1.41,1.08,1.86,1.88.45.8.68,1.71.68,2.72s-.23,1.92-.68,2.72c-.45.8-1.07,1.43-1.86,1.88-.79.45-1.67.68-2.65.68s-1.87-.23-2.65-.68Zm4.79-.78c.63-.37,1.13-.89,1.49-1.56.36-.66.55-1.42.55-2.27s-.18-1.61-.55-2.27c-.36-.66-.86-1.18-1.49-1.56-.63-.37-1.34-.56-2.14-.56s-1.51.19-2.14.56c-.63.37-1.13.89-1.49,1.56-.36.66-.55,1.42-.55,2.27s.18,1.61.55,2.27c.36.66.86,1.18,1.49,1.56.63.37,1.34.56,2.14.56s1.51-.19,2.14-.56Z"></path>
      <path class="cls-2" d="m126.16,19.09l-3.94,10.41h-.93l-3.5-9.03-3.52,9.03h-.91l-3.94-10.41h.95l3.46,9.29,3.54-9.29h.85l3.52,9.27,3.5-9.27h.92Z"></path>
      <path class="cls-2" d="m136.62,20.15c.75.76,1.13,1.85,1.13,3.27v6.08h-1v-6c0-1.17-.29-2.06-.88-2.67-.59-.61-1.41-.92-2.48-.92-1.22,0-2.18.37-2.88,1.1-.7.73-1.05,1.72-1.05,2.95v5.54h-.99v-10.41h.95v2.25c.36-.73.89-1.3,1.6-1.72.71-.41,1.55-.62,2.51-.62,1.3,0,2.33.38,3.08,1.14h0Z"></path>
      <path class="cls-2" d="m141.85,14.7h.99v14.79h-.99v-14.79Z"></path>
      <path class="cls-2" d="m148.44,28.9c-.79-.45-1.41-1.08-1.86-1.88-.45-.8-.68-1.71-.68-2.72s.23-1.92.68-2.72c.45-.8,1.07-1.43,1.86-1.88.79-.45,1.67-.68,2.66-.68s1.87.23,2.66.68c.79.45,1.41,1.08,1.86,1.88.45.8.68,1.71.68,2.72s-.23,1.92-.68,2.72c-.45.8-1.07,1.43-1.86,1.88-.79.45-1.67.68-2.66.68s-1.87-.23-2.66-.68Zm4.79-.78c.63-.37,1.13-.89,1.49-1.56.36-.66.55-1.42.55-2.27s-.18-1.61-.55-2.27c-.36-.66-.86-1.18-1.49-1.56-.63-.37-1.34-.56-2.14-.56s-1.51.19-2.14.56c-.63.37-1.13.89-1.49,1.56-.37.66-.55,1.42-.55,2.27s.18,1.61.55,2.27c.36.66.86,1.18,1.49,1.56.63.37,1.34.56,2.14.56s1.51-.19,2.14-.56Z"></path>
      <path class="cls-2" d="m165.79,20c.69.66,1.04,1.62,1.04,2.9v6.6h-.96v-1.85c-.33.61-.82,1.09-1.45,1.43-.64.34-1.4.51-2.29.51-1.15,0-2.07-.27-2.73-.82-.67-.55-1-1.26-1-2.15s.31-1.57.93-2.1,1.6-.81,2.95-.81h3.56v-.84c0-.97-.26-1.71-.78-2.21-.52-.51-1.29-.76-2.3-.76-.69,0-1.35.12-1.98.36-.63.24-1.16.56-1.6.96l-.5-.72c.52-.46,1.14-.83,1.87-1.09.73-.26,1.49-.39,2.29-.39,1.29,0,2.27.33,2.96.99h0Zm-1.32,8.16c.6-.4,1.06-.98,1.36-1.73v-1.95h-3.54c-1.02,0-1.76.19-2.22.56s-.69.88-.69,1.53.25,1.21.75,1.6c.5.39,1.21.59,2.13.59.86,0,1.59-.2,2.2-.6h0Z"></path>
      <path class="cls-2" d="m180.17,14.7v14.79h-.98v-2.45c-.41.81-.99,1.44-1.73,1.87-.74.44-1.59.66-2.53.66s-1.84-.23-2.62-.68c-.78-.45-1.4-1.08-1.84-1.87-.44-.8-.67-1.71-.67-2.73s.22-1.94.67-2.74c.44-.8,1.06-1.43,1.84-1.87.78-.45,1.66-.67,2.62-.67s1.76.22,2.5.66c.74.44,1.32,1.05,1.74,1.83v-6.8h1Zm-3.03,13.42c.63-.37,1.13-.89,1.49-1.56.36-.66.55-1.42.55-2.27s-.18-1.61-.55-2.27-.86-1.18-1.49-1.56c-.63-.37-1.34-.56-2.14-.56s-1.51.19-2.14.56c-.63.37-1.13.89-1.49,1.56s-.55,1.42-.55,2.27.18,1.61.55,2.27.86,1.18,1.49,1.56c.63.37,1.34.56,2.14.56s1.51-.19,2.14-.56Z"></path>
      <path class="cls-2" d="m190.88,28.9c-.79-.45-1.41-1.08-1.86-1.88-.45-.8-.68-1.71-.68-2.72s.23-1.92.68-2.72c.45-.8,1.07-1.43,1.86-1.88.79-.45,1.67-.68,2.65-.68s1.87.23,2.65.68c.79.45,1.41,1.08,1.86,1.88.45.8.68,1.71.68,2.72s-.23,1.92-.68,2.72c-.45.8-1.07,1.43-1.86,1.88-.79.45-1.67.68-2.65.68s-1.87-.23-2.65-.68Zm4.79-.78c.63-.37,1.13-.89,1.49-1.56.36-.66.55-1.42.55-2.27s-.18-1.61-.55-2.27c-.36-.66-.86-1.18-1.49-1.56-.63-.37-1.34-.56-2.14-.56s-1.51.19-2.14.56c-.63.37-1.13.89-1.49,1.56-.36.66-.55,1.42-.55,2.27s.18,1.61.55,2.27c.36.66.86,1.18,1.49,1.56.63.37,1.34.56,2.14.56s1.51-.19,2.14-.56Z"></path>
      <path class="cls-2" d="m209.96,20.15c.76.76,1.13,1.85,1.13,3.27v6.08h-1v-6c0-1.17-.29-2.06-.88-2.67-.59-.61-1.41-.92-2.47-.92-1.22,0-2.18.37-2.88,1.1-.7.73-1.05,1.72-1.05,2.95v5.54h-.99v-10.41h.95v2.25c.36-.73.89-1.3,1.6-1.72.71-.41,1.55-.62,2.51-.62,1.3,0,2.33.38,3.08,1.14h0Z"></path>
      <path class="cls-2" d="m225.45,28.84c-.25.24-.57.42-.95.55-.38.13-.77.19-1.18.19-.9,0-1.6-.25-2.09-.75-.49-.5-.74-1.19-.74-2.08v-6.8h-1.91v-.86h1.91v-2.27h.99v2.27h3.3v.86h-3.3v6.7c0,.68.16,1.19.49,1.54.32.35.8.53,1.44.53s1.19-.19,1.61-.58l.42.7Z"></path>
      <path class="cls-2" d="m236.37,20.15c.76.76,1.13,1.85,1.13,3.27v6.08h-.99v-6c0-1.17-.29-2.06-.89-2.67-.59-.61-1.41-.92-2.47-.92-1.22,0-2.18.37-2.88,1.1-.7.73-1.05,1.72-1.05,2.95v5.54h-.99v-14.79h.99v6.56c.36-.72.89-1.27,1.59-1.67.7-.39,1.53-.59,2.49-.59,1.3,0,2.33.38,3.08,1.14h0Z"></path>
      <path class="cls-2" d="m250.39,24.53h-8.93c.03.81.23,1.53.62,2.16.39.63.9,1.12,1.56,1.47.66.35,1.4.52,2.22.52.68,0,1.3-.12,1.88-.37.58-.25,1.06-.61,1.44-1.09l.58.66c-.45.55-1.02.96-1.7,1.26-.68.29-1.42.44-2.22.44-1.03,0-1.96-.23-2.76-.68-.81-.45-1.44-1.08-1.9-1.87-.46-.8-.69-1.71-.69-2.73s.22-1.92.65-2.72c.43-.8,1.02-1.43,1.78-1.88.75-.45,1.6-.68,2.54-.68s1.79.22,2.54.67c.75.45,1.34,1.07,1.77,1.86s.65,1.7.65,2.71l-.02.28h0Zm-6.9-4.16c-.58.33-1.05.78-1.4,1.38s-.55,1.26-.61,2h7.95c-.04-.74-.24-1.41-.6-1.99-.36-.58-.83-1.04-1.41-1.38-.58-.33-1.24-.5-1.97-.5s-1.38.16-1.97.49Z"></path>
      <path class="cls-2" d="m97.91,60.35h-11.89l-2.34,5.52h-4.55l10.7-23.85h4.35l10.74,23.85h-4.62l-2.38-5.52Zm-1.46-3.48l-4.49-10.43-4.45,10.43h8.94Z"></path>
      <path class="cls-2" d="m122.33,48.63c1.39.77,2.49,1.86,3.28,3.27.79,1.41,1.19,3.03,1.19,4.87s-.4,3.47-1.19,4.89c-.79,1.42-1.89,2.52-3.28,3.29-1.39.77-2.97,1.16-4.74,1.16-2.45,0-4.38-.82-5.81-2.45v8.82h-4.25v-24.8h4.04v2.38c.7-.86,1.57-1.51,2.6-1.94,1.03-.43,2.17-.65,3.42-.65,1.77,0,3.35.39,4.74,1.16h0Zm-1.36,12.27c1.01-1.04,1.51-2.42,1.51-4.12s-.5-3.08-1.51-4.12c-1.01-1.04-2.29-1.57-3.86-1.57-1.02,0-1.94.23-2.75.7-.82.47-1.46,1.13-1.94,1.99-.48.86-.71,1.86-.71,3s.24,2.13.71,3c.48.86,1.12,1.53,1.94,1.99.82.47,1.73.7,2.75.7,1.56,0,2.85-.52,3.86-1.57Z"></path>
      <path class="cls-2" d="m145.64,48.63c1.39.77,2.49,1.86,3.28,3.27.79,1.41,1.19,3.03,1.19,4.87s-.4,3.47-1.19,4.89c-.79,1.42-1.89,2.52-3.28,3.29-1.39.77-2.97,1.16-4.74,1.16-2.45,0-4.38-.82-5.81-2.45v8.82h-4.25v-24.8h4.04v2.38c.7-.86,1.57-1.51,2.6-1.94,1.03-.43,2.17-.65,3.41-.65,1.77,0,3.35.39,4.74,1.16h0Zm-1.36,12.27c1.01-1.04,1.51-2.42,1.51-4.12s-.5-3.08-1.51-4.12c-1.01-1.04-2.29-1.57-3.86-1.57-1.02,0-1.94.23-2.75.7-.82.47-1.46,1.13-1.94,1.99-.48.86-.71,1.86-.71,3s.24,2.13.71,3c.48.86,1.12,1.53,1.94,1.99.82.47,1.73.7,2.75.7,1.56,0,2.85-.52,3.86-1.57Z"></path>
      <path class="cls-2" d="m165.99,65.42c-1.71-.52-3.07-1.21-4.06-2.08l1.53-3.44c.97.77,2.17,1.4,3.58,1.89,1.42.49,2.84.73,4.27.73,1.77,0,3.09-.28,3.96-.85.87-.57,1.31-1.32,1.31-2.25,0-.68-.24-1.24-.73-1.69-.49-.44-1.11-.79-1.85-1.04-.75-.25-1.77-.53-3.06-.85-1.81-.43-3.28-.86-4.4-1.3-1.12-.43-2.09-1.11-2.89-2.03-.8-.92-1.21-2.16-1.21-3.73,0-1.32.36-2.52,1.07-3.59.71-1.08,1.79-1.94,3.23-2.57,1.44-.64,3.2-.95,5.29-.95,1.45,0,2.88.18,4.28.55,1.4.36,2.62.89,3.64,1.57l-1.39,3.44c-1.04-.61-2.13-1.08-3.26-1.4-1.13-.32-2.23-.48-3.3-.48-1.75,0-3.04.3-3.89.89-.85.59-1.27,1.37-1.27,2.35,0,.68.24,1.24.73,1.67.49.43,1.1.77,1.85,1.02.75.25,1.77.53,3.06.85,1.77.41,3.22.83,4.35,1.28,1.13.44,2.1,1.12,2.9,2.03.8.91,1.21,2.14,1.21,3.68,0,1.32-.36,2.51-1.07,3.58-.71,1.07-1.8,1.92-3.24,2.55-1.45.64-3.22.95-5.3.95-1.84,0-3.61-.26-5.32-.78h0Z"></path>
      <path class="cls-2" d="m195.81,64.88c-.5.41-1.1.72-1.82.92-.71.2-1.47.31-2.26.31-1.99,0-3.53-.52-4.62-1.57-1.09-1.04-1.63-2.57-1.63-4.57v-8.76h-2.99v-3.41h2.99v-4.16h4.25v4.16h4.86v3.41h-4.86v8.65c0,.89.22,1.56.65,2.03.43.47,1.05.7,1.87.7.95,0,1.74-.25,2.38-.75l1.19,3.03h0Z"></path>
      <path class="cls-2" d="m201.9,64.91c-1.47-.79-2.62-1.9-3.45-3.32-.83-1.42-1.24-3.03-1.24-4.82s.41-3.39,1.24-4.8c.83-1.41,1.98-2.51,3.45-3.3,1.47-.79,3.13-1.19,4.96-1.19s3.52.4,5,1.19c1.47.79,2.62,1.9,3.45,3.3.83,1.41,1.24,3.01,1.24,4.8s-.41,3.4-1.24,4.82c-.83,1.42-1.98,2.53-3.45,3.32-1.47.79-3.14,1.19-5,1.19s-3.49-.4-4.96-1.19Zm8.84-4.02c1.02-1.04,1.53-2.42,1.53-4.12s-.51-3.08-1.53-4.12c-1.02-1.04-2.31-1.57-3.87-1.57s-2.85.52-3.86,1.57c-1.01,1.04-1.51,2.42-1.51,4.12s.5,3.08,1.51,4.12c1.01,1.04,2.29,1.57,3.86,1.57s2.85-.52,3.87-1.57Z"></path>
      <path class="cls-2" d="m231.12,47.47v4.05c-.36-.07-.69-.1-.99-.1-1.65,0-2.94.48-3.87,1.45-.93.97-1.39,2.36-1.39,4.17v8.82h-4.25v-18.19h4.04v2.66c1.22-1.91,3.38-2.86,6.46-2.86h0Z"></path>
      <path class="cls-2" d="m251.55,58.13h-14.24c.25,1.34.9,2.4,1.95,3.19,1.05.78,2.36,1.18,3.93,1.18,1.99,0,3.64-.66,4.93-1.98l2.28,2.62c-.82.98-1.85,1.71-3.09,2.21-1.24.5-2.65.75-4.21.75-1.99,0-3.75-.4-5.27-1.19-1.52-.79-2.69-1.9-3.52-3.32-.83-1.42-1.24-3.03-1.24-4.82s.4-3.37,1.21-4.79c.8-1.42,1.92-2.53,3.35-3.32,1.43-.79,3.04-1.19,4.83-1.19s3.35.39,4.74,1.18c1.39.78,2.48,1.89,3.26,3.3.78,1.42,1.17,3.06,1.17,4.92,0,.3-.02.72-.07,1.26Zm-12.56-6.05c-.94.81-1.51,1.88-1.72,3.22h10.3c-.18-1.32-.74-2.38-1.66-3.2-.93-.82-2.09-1.23-3.47-1.23s-2.51.4-3.45,1.21Z"></path>
    </g>
  </g>
</svg>
