<svg width="133" height="89" viewBox="0 0 133 89" fill="none" xmlns="http://www.w3.org/2000/svg">
<path d="M75.5762 71.7665V70.1316C75.5762 69.9059 75.6521 69.7143 75.804 69.5568C75.96 69.395 76.1468 69.3141 76.3643 69.3141H77.9407V68.4967H75.5762V67.6793H77.9407C78.1583 67.6793 78.343 67.7602 78.4949 67.922C78.6509 68.0838 78.7289 68.2754 78.7289 68.4968V69.3142C78.7289 69.5441 78.6509 69.7378 78.4949 69.8953C78.3389 70.0528 78.1542 70.1316 77.9407 70.1316H76.3643V70.949H78.7288V71.7664L75.5762 71.7665Z" fill="#5E9CB6"/>
<path d="M81.8606 71.7664V70.1315H80.2843C80.0626 70.1315 79.8758 70.0528 79.7239 69.8952C79.572 69.7334 79.4961 69.5397 79.4961 69.3141V67.6792H80.2842V69.3141H81.8606V67.6792H82.6487V71.7664L81.8606 71.7664Z" fill="#5E9CB6"/>
<path d="M75.5762 71.5185V69.8837C75.5762 69.658 75.6521 69.4664 75.804 69.3089C75.96 69.1471 76.1468 69.0662 76.3643 69.0662H77.9407V68.2488H75.5762V67.4314H77.9407C78.1583 67.4314 78.343 67.5123 78.4949 67.6741C78.6509 67.8359 78.7289 68.0274 78.7289 68.2488V69.0662C78.7289 69.2961 78.6509 69.4899 78.4949 69.6474C78.3389 69.8049 78.1542 69.8837 77.9407 69.8837H76.3643V70.7011H78.7288V71.5185L75.5762 71.5185Z" fill="url(#paint0_linear_2937_2359)"/>
<path d="M81.8606 71.5185V69.8836H80.2843C80.0626 69.8836 79.8758 69.8048 79.7239 69.6473C79.572 69.4855 79.4961 69.2918 79.4961 69.0662V67.4313H80.2842V69.0662H81.8606V67.4313H82.6487V71.5185L81.8606 71.5185Z" fill="url(#paint1_linear_2937_2359)"/>
<path d="M126.23 5.72302H5.9101C2.64604 5.72302 0 8.36906 0 11.6331V82.6459C0 85.91 2.64604 88.556 5.9101 88.556H126.23C129.494 88.556 132.14 85.91 132.14 82.6459V11.6331C132.14 8.36906 129.494 5.72302 126.23 5.72302Z" fill="#518197"/>
<path d="M126.23 5H5.9101C2.64604 5 0 7.64604 0 10.9101V81.9229C0 85.187 2.64604 87.833 5.9101 87.833H126.23C129.494 87.833 132.14 85.187 132.14 81.9229V10.9101C132.14 7.64604 129.494 5 126.23 5Z" fill="url(#paint2_linear_2937_2359)"/>
<path opacity="0.85771" d="M126.23 5H5.9101C2.64604 5 0 7.64604 0 10.9101V81.9229C0 85.187 2.64604 87.833 5.9101 87.833H126.23C129.494 87.833 132.14 85.187 132.14 81.9229V10.9101C132.14 7.64604 129.494 5 126.23 5Z" fill="url(#paint3_linear_2937_2359)"/>
<path d="M15.063 57.4565V52.7547H13.9297V51.5792H15.063C15.3759 51.5792 15.6415 51.6956 15.86 51.9282C16.0843 52.1608 16.1964 52.4363 16.1964 52.7547V57.4565L15.063 57.4565Z" fill="#5E9CB6"/>
<path d="M17.5493 57.4565V55.1056C17.5493 54.7811 17.6585 54.5056 17.8769 54.2791C18.1013 54.0464 18.3698 53.9301 18.6827 53.9301H20.9495V52.7547H17.5494V51.5792H20.9495C21.2624 51.5792 21.528 51.6956 21.7464 51.9282C21.9707 52.1608 22.0829 52.4363 22.0829 52.7547V53.9301C22.0829 54.2607 21.9707 54.5393 21.7464 54.7658C21.5221 54.9923 21.2565 55.1056 20.9495 55.1056H18.6827V56.281H22.0829V57.4565L17.5493 57.4565Z" fill="#5E9CB6"/>
<path d="M23.436 57.4565V56.2811H26.8362V55.1057H23.436V53.9302H26.8362V52.7548H23.436V51.5793H26.8362C27.1491 51.5794 27.4147 51.6957 27.6331 51.9283C27.8574 52.161 27.9696 52.4365 27.9696 52.7548V56.2812C27.9696 56.6118 27.8574 56.8904 27.6331 57.1169C27.4088 57.3434 27.1432 57.4567 26.8362 57.4567L23.436 57.4565Z" fill="#5E9CB6"/>
<path d="M32.7234 57.4565V55.1055H30.4566C30.1379 55.1055 29.8693 54.9923 29.6509 54.7658C29.4325 54.5331 29.3232 54.2546 29.3232 53.9301V51.5791H30.4566V53.9301H32.7234V51.5791H33.8568V57.4565L32.7234 57.4565Z" fill="#5E9CB6"/>
<path d="M39.7813 57.4565V56.281H43.1815V55.1056H40.9146C40.5959 55.1056 40.3273 54.9923 40.1089 54.7658C39.8905 54.5332 39.7812 54.2546 39.7812 53.9301V52.7547C39.7812 52.4302 39.8905 52.1547 40.1089 51.9282C40.3332 51.6955 40.6018 51.5792 40.9146 51.5792H44.3148V52.7547H40.9146V53.9301H43.1815C43.4943 53.9301 43.76 54.0464 43.9784 54.2791C44.2027 54.5117 44.3148 54.7872 44.3148 55.1056V56.281C44.3148 56.6116 44.2027 56.8902 43.9784 57.1167C43.754 57.3432 43.4884 57.4565 43.1815 57.4565H39.7813Z" fill="#5E9CB6"/>
<path d="M49.0687 56.2752V55.0997H46.8018V56.2752H49.0687ZM46.8018 57.4506C46.4831 57.4506 46.2145 57.3373 45.9961 57.1108C45.7777 56.8782 45.6685 56.5996 45.6685 56.2751V52.7487C45.6685 52.4242 45.7777 52.1487 45.9961 51.9222C46.2204 51.6896 46.489 51.5732 46.8018 51.5732H50.202V52.7487H46.8018V53.9241H49.0687C49.3815 53.9241 49.6472 54.0404 49.8656 54.2731C50.0899 54.5057 50.202 54.7812 50.202 55.0996V56.275C50.202 56.6056 50.0899 56.8842 49.8656 57.1107C49.6412 57.3372 49.3756 57.4505 49.0687 57.4505L46.8018 57.4506Z" fill="#5E9CB6"/>
<path d="M54.9553 57.4565V52.7547H51.5552V51.5792H54.9553C55.2682 51.5792 55.5338 51.6956 55.7523 51.9282C55.9766 52.1608 56.0887 52.4363 56.0887 52.7547V57.4565L54.9553 57.4565Z" fill="#5E9CB6"/>
<path d="M60.8421 56.2752V55.0997H58.5753V56.2752H60.8421ZM60.8421 53.9242V52.7487H58.5753V53.9242H60.8421ZM58.5753 57.4506C58.2565 57.4506 57.9879 57.3373 57.7695 57.1108C57.5511 56.8782 57.4419 56.5996 57.4419 56.2751V52.7487C57.4419 52.4242 57.5511 52.1487 57.7695 51.9222C57.9938 51.6896 58.2624 51.5732 58.5753 51.5732H60.8421C61.155 51.5732 61.4206 51.6896 61.639 51.9222C61.8633 52.1549 61.9755 52.4304 61.9755 52.7487V56.2751C61.9755 56.6057 61.8633 56.8843 61.639 57.1108C61.4147 57.3373 61.149 57.4506 60.8421 57.4506H58.5753Z" fill="#5E9CB6"/>
<path d="M71.3016 53.9329V52.7574H69.0348V53.9329H71.3016ZM67.9014 57.4593V56.2838H71.3016V55.1084H69.0348C68.716 55.1084 68.4474 54.9951 68.229 54.7686C68.0106 54.536 67.9014 54.2574 67.9014 53.9329V52.7575C67.9014 52.433 68.0106 52.1575 68.229 51.931C68.4533 51.6984 68.7219 51.582 69.0348 51.582H71.3016C71.6144 51.582 71.8801 51.6984 72.0985 51.931C72.3228 52.1636 72.435 52.4391 72.435 52.7575V56.2839C72.435 56.6145 72.3228 56.8931 72.0985 57.1196C71.8742 57.3461 71.6085 57.4594 71.3016 57.4594L67.9014 57.4593Z" fill="#5E9CB6"/>
<path d="M77.1834 56.2752V55.0997H74.9166V56.2752H77.1834ZM77.1834 53.9242V52.7487H74.9166V53.9242H77.1834ZM74.9166 57.4506C74.5978 57.4506 74.3292 57.3373 74.1108 57.1108C73.8924 56.8782 73.7832 56.5996 73.7832 56.2751V52.7487C73.7832 52.4242 73.8924 52.1487 74.1108 51.9222C74.3351 51.6896 74.6037 51.5732 74.9166 51.5732H77.1834C77.4963 51.5732 77.7619 51.6896 77.9803 51.9222C78.2046 52.1549 78.3168 52.4304 78.3168 52.7487V56.2751C78.3168 56.6057 78.2046 56.8843 77.9803 57.1108C77.756 57.3373 77.4904 57.4506 77.1834 57.4506H74.9166Z" fill="#5E9CB6"/>
<path d="M83.075 57.4565V52.7547H79.6748V51.5792H83.075C83.3878 51.5792 83.6535 51.6956 83.8719 51.9282C84.0962 52.1608 84.2084 52.4363 84.2084 52.7547V57.4565L83.075 57.4565Z" fill="#5E9CB6"/>
<path d="M88.9568 56.2752V55.0997H86.69V56.2752H88.9568ZM86.69 57.4506C86.3713 57.4506 86.1027 57.3373 85.8843 57.1108C85.6659 56.8782 85.5566 56.5996 85.5566 56.2751V52.7487C85.5566 52.4242 85.6659 52.1487 85.8843 51.9222C86.1086 51.6896 86.3772 51.5732 86.69 51.5732H90.0902V52.7487H86.69V53.9241H88.9568C89.2697 53.9241 89.5353 54.0404 89.7538 54.2731C89.9781 54.5057 90.0902 54.7812 90.0902 55.0996V56.275C90.0902 56.6056 89.9781 56.8842 89.7538 57.1107C89.5294 57.3372 89.2638 57.4505 88.9568 57.4505L86.69 57.4506Z" fill="#5E9CB6"/>
<path d="M96.0171 57.4565V56.281H99.4173V55.1056H97.1505C96.8317 55.1056 96.5631 54.9923 96.3447 54.7658C96.1263 54.5332 96.0171 54.2546 96.0171 53.9301V52.7547C96.0171 52.4302 96.1263 52.1547 96.3447 51.9282C96.569 51.6955 96.8376 51.5792 97.1505 51.5792H100.551V52.7547H97.1505V53.9301H99.4173C99.7301 53.9301 99.9958 54.0464 100.214 54.2791C100.439 54.5117 100.551 54.7872 100.551 55.1056V56.281C100.551 56.6116 100.439 56.8902 100.214 57.1167C99.9899 57.3432 99.7242 57.4565 99.4173 57.4565H96.0171Z" fill="#5E9CB6"/>
<path d="M105.306 57.4565V55.1055H103.04C102.721 55.1055 102.452 54.9923 102.234 54.7658C102.015 54.5331 101.906 54.2546 101.906 53.9301V51.5791H103.04V53.9301H105.306V51.5791H106.44V57.4565L105.306 57.4565Z" fill="#5E9CB6"/>
<path d="M107.791 57.4565V56.2811H111.191V55.1057H107.791V53.9302H111.191V52.7548H107.791V51.5793H111.191C111.504 51.5794 111.769 51.6957 111.988 51.9283C112.212 52.161 112.324 52.4365 112.324 52.7548V56.2812C112.324 56.6118 112.212 56.8904 111.988 57.1169C111.763 57.3434 111.498 57.4567 111.191 57.4567L107.791 57.4565Z" fill="#5E9CB6"/>
<path d="M113.682 57.4565V55.1056C113.682 54.7811 113.791 54.5056 114.01 54.2791C114.234 54.0464 114.503 53.9301 114.816 53.9301H117.082V52.7547H113.682V51.5792H117.082C117.395 51.5792 117.661 51.6956 117.879 51.9282C118.104 52.1608 118.216 52.4363 118.216 52.7547V53.9301C118.216 54.2607 118.104 54.5393 117.879 54.7658C117.655 54.9923 117.389 55.1056 117.082 55.1056H114.816V56.281H118.216V57.4565L113.682 57.4565Z" fill="#5E9CB6"/>
<path d="M65.1488 70.9924V68.5134H63.588V70.9924H65.1488ZM63.588 71.8188C63.3685 71.8188 63.1836 71.7391 63.0332 71.5799C62.8828 71.4164 62.8076 71.2205 62.8076 70.9924V68.5134C62.8076 68.2853 62.8828 68.0916 63.0332 67.9323C63.1876 67.7688 63.3726 67.687 63.588 67.687H65.1488C65.3642 67.687 65.5471 67.7688 65.6975 67.9323C65.8519 68.0959 65.9291 68.2896 65.9291 68.5134V70.9924C65.9291 71.2248 65.8519 71.4207 65.6975 71.5799C65.543 71.7392 65.3601 71.8188 65.1488 71.8188H63.588Z" fill="#5E9CB6"/>
<path d="M69.203 69.3358V68.5094H67.6422V69.3358H69.203ZM66.8618 71.8148V70.9885H69.203V70.1621H67.6422C67.4228 70.1621 67.2378 70.0825 67.0874 69.9233C66.937 69.7597 66.8619 69.5639 66.8619 69.3358V68.5095C66.8619 68.2814 66.9371 68.0877 67.0874 67.9284C67.2419 67.7649 67.4268 67.6831 67.6422 67.6831H69.203C69.4184 67.6831 69.6013 67.7649 69.7517 67.9284C69.9062 68.092 69.9834 68.2857 69.9834 68.5095V70.9885C69.9834 71.2209 69.9061 71.4168 69.7517 71.576C69.5972 71.7352 69.4144 71.8149 69.203 71.8149L66.8618 71.8148Z" fill="#5E9CB6"/>
<path d="M15.063 57.1001V52.3982H13.9297V51.2228H15.063C15.3759 51.2228 15.6415 51.3391 15.86 51.5717C16.0843 51.8044 16.1964 52.0799 16.1964 52.3982V57.1001L15.063 57.1001Z" fill="url(#paint4_linear_2937_2359)"/>
<path d="M17.5493 57.1V54.749C17.5493 54.4245 17.6585 54.149 17.8769 53.9225C18.1013 53.6899 18.3698 53.5735 18.6827 53.5735H20.9495V52.3981H17.5494V51.2227H20.9495C21.2624 51.2227 21.528 51.339 21.7464 51.5716C21.9707 51.8043 22.0829 52.0798 22.0829 52.3981V53.5736C22.0829 53.9042 21.9707 54.1827 21.7464 54.4093C21.5221 54.6358 21.2565 54.749 20.9495 54.749H18.6827V55.9245H22.0829V57.0999L17.5493 57.1Z" fill="url(#paint5_linear_2937_2359)"/>
<path d="M23.436 57.1001V55.9246H26.8362V54.7492H23.436V53.5738H26.8362V52.3983H23.436V51.2229H26.8362C27.1491 51.2229 27.4147 51.3392 27.6331 51.5719C27.8574 51.8045 27.9696 52.08 27.9696 52.3984V55.9248C27.9696 56.2554 27.8574 56.5339 27.6331 56.7605C27.4088 56.987 27.1432 57.1003 26.8362 57.1003L23.436 57.1001Z" fill="url(#paint6_linear_2937_2359)"/>
<path d="M32.7234 57.1V54.749H30.4566C30.1379 54.749 29.8693 54.6357 29.6509 54.4092C29.4325 54.1766 29.3232 53.898 29.3232 53.5735V51.2225H30.4566V53.5735H32.7234V51.2225H33.8568V57.0999L32.7234 57.1Z" fill="url(#paint7_linear_2937_2359)"/>
<path d="M39.7813 57.1V55.9246H43.1815V54.7492H40.9146C40.5959 54.7492 40.3273 54.6359 40.1089 54.4094C39.8905 54.1767 39.7812 53.8982 39.7812 53.5737V52.3983C39.7812 52.0738 39.8905 51.7983 40.1089 51.5717C40.3332 51.3391 40.6018 51.2228 40.9146 51.2228H44.3148V52.3982H40.9146V53.5737H43.1815C43.4943 53.5737 43.76 53.69 43.9784 53.9226C44.2027 54.1553 44.3148 54.4308 44.3148 54.7491V55.9246C44.3148 56.2552 44.2027 56.5337 43.9784 56.7603C43.754 56.9868 43.4884 57.1 43.1815 57.1L39.7813 57.1Z" fill="url(#paint8_linear_2937_2359)"/>
<path d="M49.0687 55.9187V54.7433H46.8018V55.9187H49.0687ZM46.8018 57.0942C46.4831 57.0942 46.2145 56.9809 45.9961 56.7544C45.7777 56.5217 45.6685 56.2432 45.6685 55.9187V52.3923C45.6685 52.0678 45.7777 51.7923 45.9961 51.5658C46.2204 51.3331 46.489 51.2168 46.8018 51.2168H50.202V52.3922H46.8018V53.5677H49.0687C49.3815 53.5677 49.6472 53.684 49.8656 53.9166C50.0899 54.1493 50.202 54.4248 50.202 54.7431V55.9186C50.202 56.2492 50.0899 56.5278 49.8656 56.7543C49.6412 56.9808 49.3756 57.0941 49.0687 57.0941L46.8018 57.0942Z" fill="url(#paint9_linear_2937_2359)"/>
<path d="M54.9553 57.1001V52.3982H51.5552V51.2228H54.9553C55.2682 51.2228 55.5338 51.3391 55.7523 51.5717C55.9766 51.8044 56.0887 52.0799 56.0887 52.3982V57.1001L54.9553 57.1001Z" fill="url(#paint10_linear_2937_2359)"/>
<path d="M60.8421 55.9187V54.7433H58.5753V55.9187H60.8421ZM60.8421 53.5677V52.3923H58.5753V53.5677H60.8421ZM58.5753 57.0942C58.2565 57.0942 57.9879 56.9809 57.7695 56.7544C57.5511 56.5217 57.4419 56.2432 57.4419 55.9187V52.3923C57.4419 52.0678 57.5511 51.7923 57.7695 51.5658C57.9938 51.3331 58.2624 51.2168 58.5753 51.2168H60.8421C61.155 51.2168 61.4206 51.3331 61.639 51.5658C61.8633 51.7984 61.9755 52.0739 61.9755 52.3923V55.9187C61.9755 56.2493 61.8633 56.5278 61.639 56.7544C61.4147 56.9809 61.149 57.0942 60.8421 57.0942H58.5753Z" fill="url(#paint11_linear_2937_2359)"/>
<path d="M71.3016 53.5662V52.3907H69.0348V53.5662H71.3016ZM67.9014 57.0926V55.9171H71.3016V54.7417H69.0348C68.716 54.7417 68.4474 54.6284 68.229 54.4019C68.0106 54.1693 67.9014 53.8907 67.9014 53.5662V52.3908C67.9014 52.0663 68.0106 51.7908 68.229 51.5643C68.4533 51.3317 68.7219 51.2153 69.0348 51.2153H71.3016C71.6144 51.2153 71.8801 51.3317 72.0985 51.5643C72.3228 51.7969 72.435 52.0724 72.435 52.3908V55.9172C72.435 56.2478 72.3228 56.5264 72.0985 56.7529C71.8742 56.9794 71.6085 57.0927 71.3016 57.0927L67.9014 57.0926Z" fill="url(#paint12_linear_2937_2359)"/>
<path d="M77.1834 55.9187V54.7433H74.9166V55.9187H77.1834ZM77.1834 53.5677V52.3923H74.9166V53.5677H77.1834ZM74.9166 57.0942C74.5978 57.0942 74.3292 56.9809 74.1108 56.7544C73.8924 56.5217 73.7832 56.2432 73.7832 55.9187V52.3923C73.7832 52.0678 73.8924 51.7923 74.1108 51.5658C74.3351 51.3331 74.6037 51.2168 74.9166 51.2168H77.1834C77.4963 51.2168 77.7619 51.3331 77.9803 51.5658C78.2046 51.7984 78.3168 52.0739 78.3168 52.3923V55.9187C78.3168 56.2493 78.2046 56.5278 77.9803 56.7544C77.756 56.9809 77.4904 57.0942 77.1834 57.0942H74.9166Z" fill="url(#paint13_linear_2937_2359)"/>
<path d="M83.075 57.1001V52.3982H79.6748V51.2228H83.075C83.3878 51.2228 83.6535 51.3391 83.8719 51.5717C84.0962 51.8044 84.2084 52.0799 84.2084 52.3982V57.1001L83.075 57.1001Z" fill="url(#paint14_linear_2937_2359)"/>
<path d="M88.9568 55.9187V54.7433H86.69V55.9187H88.9568ZM86.69 57.0942C86.3713 57.0942 86.1027 56.9809 85.8843 56.7544C85.6659 56.5217 85.5566 56.2432 85.5566 55.9187V52.3923C85.5566 52.0678 85.6659 51.7923 85.8843 51.5658C86.1086 51.3331 86.3772 51.2168 86.69 51.2168H90.0902V52.3922H86.69V53.5677H88.9568C89.2697 53.5677 89.5353 53.684 89.7538 53.9166C89.9781 54.1493 90.0902 54.4248 90.0902 54.7431V55.9186C90.0902 56.2492 89.9781 56.5278 89.7538 56.7543C89.5294 56.9808 89.2638 57.0941 88.9568 57.0941L86.69 57.0942Z" fill="url(#paint15_linear_2937_2359)"/>
<path d="M96.0171 57.1V55.9246H99.4173V54.7492H97.1505C96.8317 54.7492 96.5631 54.6359 96.3447 54.4094C96.1263 54.1767 96.0171 53.8982 96.0171 53.5737V52.3983C96.0171 52.0738 96.1263 51.7983 96.3447 51.5717C96.569 51.3391 96.8376 51.2228 97.1505 51.2228H100.551V52.3982H97.1505V53.5737H99.4173C99.7301 53.5737 99.9958 53.69 100.214 53.9226C100.439 54.1553 100.551 54.4308 100.551 54.7491V55.9246C100.551 56.2552 100.439 56.5337 100.214 56.7603C99.9899 56.9868 99.7242 57.1 99.4173 57.1L96.0171 57.1Z" fill="url(#paint16_linear_2937_2359)"/>
<path d="M105.306 57.1V54.749H103.04C102.721 54.749 102.452 54.6357 102.234 54.4092C102.015 54.1766 101.906 53.898 101.906 53.5735V51.2225H103.04V53.5735H105.306V51.2225H106.44V57.0999L105.306 57.1Z" fill="url(#paint17_linear_2937_2359)"/>
<path d="M107.791 57.1001V55.9246H111.191V54.7492H107.791V53.5738H111.191V52.3983H107.791V51.2229H111.191C111.504 51.2229 111.769 51.3392 111.988 51.5719C112.212 51.8045 112.324 52.08 112.324 52.3984V55.9248C112.324 56.2554 112.212 56.5339 111.988 56.7605C111.763 56.987 111.498 57.1003 111.191 57.1003L107.791 57.1001Z" fill="url(#paint18_linear_2937_2359)"/>
<path d="M113.682 57.1V54.749C113.682 54.4245 113.791 54.149 114.01 53.9225C114.234 53.6899 114.503 53.5735 114.816 53.5735H117.082V52.3981H113.682V51.2227H117.082C117.395 51.2227 117.661 51.339 117.879 51.5716C118.104 51.8043 118.216 52.0798 118.216 52.3981V53.5736C118.216 53.9042 118.104 54.1827 117.879 54.4093C117.655 54.6358 117.389 54.749 117.082 54.749H114.816V55.9245H118.216V57.0999L113.682 57.1Z" fill="url(#paint19_linear_2937_2359)"/>
<path d="M65.1488 70.7352V68.2561H63.588V70.7352H65.1488ZM63.588 71.5616C63.3685 71.5616 63.1836 71.4819 63.0332 71.3227C62.8828 71.1592 62.8076 70.9633 62.8076 70.7352V68.2561C62.8076 68.028 62.8828 67.8344 63.0332 67.6751C63.1876 67.5116 63.3726 67.4298 63.588 67.4298H65.1488C65.3642 67.4298 65.5471 67.5116 65.6975 67.6751C65.8519 67.8387 65.9291 68.0323 65.9291 68.2561V70.7352C65.9291 70.9676 65.8519 71.1635 65.6975 71.3227C65.543 71.4819 65.3601 71.5616 65.1488 71.5616H63.588Z" fill="url(#paint20_linear_2937_2359)"/>
<path d="M69.203 69.0888V68.2625H67.6422V69.0888H69.203ZM66.8618 71.5679V70.7415H69.203V69.9152H67.6422C67.4228 69.9152 67.2378 69.8355 67.0874 69.6763C66.937 69.5128 66.8619 69.317 66.8619 69.0888V68.2625C66.8619 68.0344 66.9371 67.8407 67.0874 67.6815C67.2419 67.5179 67.4268 67.4362 67.6422 67.4362H69.203C69.4184 67.4362 69.6013 67.518 69.7517 67.6815C69.9062 67.845 69.9834 68.0387 69.9834 68.2625V70.7416C69.9834 70.974 69.9061 71.1698 69.7517 71.329C69.5972 71.4883 69.4144 71.5679 69.203 71.5679L66.8618 71.5679Z" fill="url(#paint21_linear_2937_2359)"/>
<path d="M12.6399 13.6232C11.4378 13.6436 10.4804 14.0021 9.76765 14.6987C9.05497 15.3953 8.69005 16.3076 8.67285 17.4357C8.69002 18.5638 9.05495 19.4761 9.76765 20.1727C10.4803 20.8693 11.4378 21.2278 12.6399 21.2482C13.1576 21.238 13.6047 21.1668 13.9813 21.0345C14.3578 20.9022 14.6485 20.7699 14.8533 20.6376C15.0581 20.5053 15.1617 20.434 15.1643 20.4239L14.5461 19.445C14.5353 19.4686 14.3636 19.5631 14.0309 19.7284C13.6981 19.8936 13.2688 19.9881 12.7429 20.0117C11.9593 20.001 11.3368 19.7648 10.8753 19.3033C10.4137 18.8418 10.1776 18.2193 10.1669 17.4357C10.1776 16.6522 10.4137 16.0297 10.8753 15.5681C11.3368 15.1066 11.9593 14.8705 12.7429 14.8597C13.2329 14.8791 13.6361 14.9563 13.9523 15.0916C14.2684 15.2268 14.432 15.3041 14.443 15.3234L15.0612 14.3445C15.0537 14.3145 14.8369 14.1943 14.4108 13.9839C13.9847 13.7735 13.3945 13.6532 12.6399 13.6232Z" fill="#ADADAD"/>
<path d="M16.459 13.8302V21.0429H17.9015V18.57H19.9108L21.6109 21.0429H23.311L21.4048 18.3124V18.2609C21.4213 18.2641 21.5371 18.2005 21.7521 18.0701C21.967 17.9397 22.182 17.7234 22.397 17.4213C22.612 17.1192 22.7277 16.7121 22.7443 16.2001C22.7421 15.5154 22.4888 14.9529 21.9844 14.5128C21.4799 14.0728 20.7372 13.8452 19.7562 13.8302L16.459 13.8302ZM21.2503 16.2001C21.2492 16.4974 21.1226 16.7658 20.8703 17.0051C20.6181 17.2445 20.2467 17.3711 19.7562 17.3851H17.9015V15.0152H19.7562C20.2467 15.0227 20.6181 15.1365 20.8703 15.3565C21.1225 15.5765 21.2492 15.8577 21.2503 16.2001Z" fill="#ADADAD"/>
<path d="M24.4767 21.0422H30.3499V19.8573H25.9192V18.0541H28.9073V16.8692H25.9192V15.0145H30.2468V13.8296H24.4766L24.4767 21.0422Z" fill="#ADADAD"/>
<path d="M31.6499 13.8302V21.0429H34.4319C35.6072 21.0246 36.541 20.6876 37.2333 20.0318C37.9256 19.376 38.2798 18.5109 38.2959 17.4365C38.2798 16.3847 37.9256 15.526 37.2333 14.8605C36.541 14.195 35.6072 13.8516 34.4319 13.8301L31.6499 13.8302ZM34.4319 15.0151C35.1392 15.0258 35.7081 15.2491 36.1385 15.6848C36.5689 16.1206 36.79 16.7045 36.8018 17.4365C36.79 18.1685 36.5689 18.7524 36.1385 19.1882C35.7081 19.624 35.1392 19.8472 34.4319 19.858H33.0924V15.0152L34.4319 15.0151Z" fill="#ADADAD"/>
<path d="M41.191 13.8302H39.7485V21.0429H41.191V13.8302Z" fill="#ADADAD"/>
<path d="M42.4077 13.8302V15.0151H44.8806V21.0429H46.3231V15.0151H48.796V13.8302H42.4077Z" fill="#ADADAD"/>
<path d="M57.823 13.6232C56.6209 13.6436 55.6635 14.0021 54.9508 14.6987C54.2381 15.3953 53.8732 16.3076 53.856 17.4357C53.8731 18.5638 54.2381 19.4761 54.9508 20.1727C55.6634 20.8693 56.6209 21.2278 57.823 21.2482C58.3407 21.238 58.7878 21.1668 59.1644 21.0345C59.5409 20.9022 59.8316 20.7699 60.0364 20.6376C60.2412 20.5053 60.3448 20.434 60.3474 20.4239L59.7292 19.445C59.7184 19.4686 59.5467 19.5631 59.214 19.7284C58.8812 19.8936 58.4519 19.9881 57.926 20.0117C57.1424 20.001 56.5199 19.7648 56.0584 19.3033C55.5968 18.8418 55.3607 18.2193 55.35 17.4357C55.3607 16.6522 55.5968 16.0297 56.0584 15.5681C56.5199 15.1066 57.1424 14.8705 57.926 14.8597C58.416 14.8791 58.8192 14.9563 59.1354 15.0916C59.4516 15.2268 59.6151 15.3041 59.6261 15.3234L60.2443 14.3445C60.2368 14.3145 60.02 14.1943 59.5939 13.9839C59.1678 13.7735 58.5776 13.6532 57.823 13.6232Z" fill="#ADADAD"/>
<path d="M65.6917 13.8302H63.8885L60.9004 21.0429H62.446L63.0127 19.6004H66.5675L67.1342 21.0429H68.6798L65.6917 13.8302ZM64.7643 15.3758H64.8159L66.0524 18.3639H63.528L64.7643 15.3758Z" fill="#ADADAD"/>
<path d="M69.8018 13.8302V21.0429H71.2443V18.57H73.2536L74.9537 21.0429H76.6538L74.7476 18.3124V18.2609C74.7641 18.2641 74.8799 18.2005 75.0948 18.0701C75.3098 17.9397 75.5248 17.7234 75.7398 17.4213C75.9548 17.1192 76.0705 16.7121 76.0871 16.2001C76.0851 15.5154 75.8316 14.9529 75.3271 14.5128C74.8227 14.0728 74.0799 13.8452 73.0989 13.8302L69.8018 13.8302ZM74.5931 16.2001C74.5921 16.4974 74.4653 16.7658 74.2131 17.0051C73.9609 17.2445 73.5895 17.3711 73.099 17.3851H71.2443V15.0152H73.099C73.5895 15.0227 73.9609 15.1365 74.2131 15.3565C74.4653 15.5765 74.592 15.8577 74.5931 16.2001Z" fill="#ADADAD"/>
<path d="M77.8179 13.8302V21.0429H80.5999C81.7752 21.0246 82.709 20.6876 83.4013 20.0318C84.0936 19.376 84.4478 18.5109 84.4639 17.4365C84.4478 16.3847 84.0936 15.526 83.4013 14.8605C82.709 14.195 81.7752 13.8516 80.5999 13.8301L77.8179 13.8302ZM80.5999 15.0151C81.3072 15.0258 81.8761 15.2491 82.3065 15.6848C82.7369 16.1206 82.958 16.7045 82.9698 17.4365C82.958 18.1685 82.7369 18.7524 82.3065 19.1882C81.8761 19.624 81.3072 19.8472 80.5999 19.858H79.2604V15.0152L80.5999 15.0151Z" fill="#ADADAD"/>
<path d="M12.6399 13.4843C11.4378 13.5047 10.4804 13.8631 9.76765 14.5598C9.05497 15.2563 8.69005 16.1687 8.67285 17.2968C8.69002 18.4249 9.05495 19.3372 9.76765 20.0338C10.4803 20.7303 11.4378 21.0889 12.6399 21.1093C13.1576 21.0991 13.6047 21.0278 13.9813 20.8955C14.3578 20.7632 14.6485 20.631 14.8533 20.4987C15.0581 20.3664 15.1617 20.2951 15.1643 20.2849L14.5461 19.3061C14.5353 19.3297 14.3636 19.4241 14.0309 19.5894C13.6981 19.7547 13.2688 19.8492 12.7429 19.8728C11.9593 19.8621 11.3368 19.6259 10.8753 19.1644C10.4137 18.7029 10.1776 18.0804 10.1669 17.2968C10.1776 16.5133 10.4137 15.8908 10.8753 15.4292C11.3368 14.9677 11.9593 14.7316 12.7429 14.7208C13.2329 14.7401 13.6361 14.8174 13.9523 14.9527C14.2684 15.0879 14.432 15.1652 14.443 15.1845L15.0612 14.2056C15.0537 14.1756 14.8369 14.0554 14.4108 13.845C13.9847 13.6346 13.3945 13.5143 12.6399 13.4843Z" fill="#F0F0F0"/>
<path d="M16.459 13.6902V20.9029H17.9015V18.43H19.9108L21.6109 20.9029H23.311L21.4048 18.1724V18.1209C21.4213 18.1241 21.5371 18.0605 21.7521 17.9301C21.967 17.7997 22.182 17.5834 22.397 17.2813C22.612 16.9792 22.7277 16.5721 22.7443 16.0601C22.7421 15.3753 22.4888 14.8129 21.9844 14.3728C21.4799 13.9328 20.7372 13.7052 19.7562 13.6902L16.459 13.6902ZM21.2503 16.0601C21.2492 16.3574 21.1226 16.6258 20.8703 16.8651C20.6181 17.1045 20.2467 17.2311 19.7562 17.2451H17.9015V14.8752H19.7562C20.2467 14.8827 20.6181 14.9964 20.8703 15.2165C21.1225 15.4365 21.2492 15.7177 21.2503 16.0601Z" fill="#F0F0F0"/>
<path d="M24.4767 20.9033H30.3499V19.7184H25.9192V17.9152H28.9073V16.7303H25.9192V14.8756H30.2468V13.6907H24.4766L24.4767 20.9033Z" fill="#F0F0F0"/>
<path d="M31.6499 13.6903V20.903H34.4319C35.6072 20.8847 36.541 20.5477 37.2333 19.8919C37.9256 19.2361 38.2798 18.371 38.2959 17.2966C38.2798 16.2448 37.9256 15.3861 37.2333 14.7206C36.541 14.0551 35.6072 13.7117 34.4319 13.6902L31.6499 13.6903ZM34.4319 14.8752C35.1392 14.8859 35.7081 15.1092 36.1385 15.5449C36.5689 15.9807 36.79 16.5646 36.8018 17.2966C36.79 18.0286 36.5689 18.6125 36.1385 19.0483C35.7081 19.4841 35.1392 19.7074 34.4319 19.7181H33.0924V14.8753L34.4319 14.8752Z" fill="#F0F0F0"/>
<path d="M41.191 13.6903H39.7485V20.903H41.191V13.6903Z" fill="#F0F0F0"/>
<path d="M42.4077 13.6903V14.8752H44.8806V20.903H46.3231V14.8752H48.796V13.6903H42.4077Z" fill="#F0F0F0"/>
<path d="M57.823 13.4843C56.6209 13.5047 55.6635 13.8631 54.9508 14.5598C54.2381 15.2563 53.8732 16.1687 53.856 17.2968C53.8731 18.4249 54.2381 19.3372 54.9508 20.0338C55.6634 20.7303 56.6209 21.0889 57.823 21.1093C58.3407 21.0991 58.7878 21.0278 59.1644 20.8955C59.5409 20.7632 59.8316 20.631 60.0364 20.4987C60.2412 20.3664 60.3448 20.2951 60.3474 20.2849L59.7292 19.3061C59.7184 19.3297 59.5467 19.4241 59.214 19.5894C58.8812 19.7547 58.4519 19.8492 57.926 19.8728C57.1424 19.8621 56.5199 19.6259 56.0584 19.1644C55.5968 18.7029 55.3607 18.0804 55.35 17.2968C55.3607 16.5133 55.5968 15.8908 56.0584 15.4292C56.5199 14.9677 57.1424 14.7316 57.926 14.7208C58.416 14.7401 58.8192 14.8174 59.1354 14.9527C59.4516 15.0879 59.6151 15.1652 59.6261 15.1845L60.2443 14.2056C60.2368 14.1756 60.02 14.0554 59.5939 13.845C59.1678 13.6346 58.5776 13.5143 57.823 13.4843Z" fill="#F0F0F0"/>
<path d="M65.6917 13.6903H63.8885L60.9004 20.903H62.446L63.0127 19.4605H66.5675L67.1342 20.903H68.6798L65.6917 13.6903ZM64.7643 15.2359H64.8159L66.0524 18.224H63.528L64.7643 15.2359Z" fill="#F0F0F0"/>
<path d="M69.8018 13.6902V20.9029H71.2443V18.43H73.2536L74.9537 20.9029H76.6538L74.7476 18.1724V18.1209C74.7641 18.1241 74.8799 18.0605 75.0948 17.9301C75.3098 17.7997 75.5248 17.5834 75.7398 17.2813C75.9548 16.9792 76.0705 16.5721 76.0871 16.0601C76.0851 15.3753 75.8316 14.8129 75.3271 14.3728C74.8227 13.9328 74.0799 13.7052 73.0989 13.6902L69.8018 13.6902ZM74.5931 16.0601C74.5921 16.3574 74.4653 16.6258 74.2131 16.8651C73.9609 17.1045 73.5895 17.2311 73.099 17.2451H71.2443V14.8752H73.099C73.5895 14.8827 73.9609 14.9964 74.2131 15.2165C74.4653 15.4365 74.592 15.7177 74.5931 16.0601Z" fill="#F0F0F0"/>
<path d="M77.8179 13.6903V20.903H80.5999C81.7752 20.8847 82.709 20.5477 83.4013 19.8919C84.0936 19.2361 84.4478 18.371 84.4639 17.2966C84.4478 16.2448 84.0936 15.3861 83.4013 14.7206C82.709 14.0551 81.7752 13.7117 80.5999 13.6902L77.8179 13.6903ZM80.5999 14.8752C81.3072 14.8859 81.8761 15.1092 82.3065 15.5449C82.7369 15.9807 82.958 16.5646 82.9698 17.2966C82.958 18.0286 82.7369 18.6125 82.3065 19.0483C81.8761 19.4841 81.3072 19.7074 80.5999 19.7181H79.2604V14.8753L80.5999 14.8752Z" fill="#F0F0F0"/>
<path d="M61.3401 64.785L61.706 64.0009H61.7165L61.8315 64.9941H62.1346L61.9569 63.5305H61.6328L61.2146 64.4401H61.2042L60.786 63.5305H60.4619L60.2842 64.9941H60.5874L60.7024 64.0009H60.7128L61.0787 64.785H61.3401Z" fill="#548BA2"/>
<path d="M62.3691 64.2651C62.373 64.494 62.4462 64.6791 62.5887 64.8205C62.7311 64.9618 62.9193 65.0346 63.1532 65.0387C63.3872 65.0347 63.5753 64.9618 63.7178 64.8205C63.8602 64.6791 63.9334 64.494 63.9373 64.2651C63.9334 64.0362 63.8602 63.8511 63.7178 63.7097C63.5753 63.5683 63.3872 63.4956 63.1532 63.4915C62.9193 63.4955 62.7311 63.5684 62.5887 63.7097C62.4463 63.8511 62.3731 64.0362 62.3691 64.2651ZM63.6341 64.2651C63.631 64.4241 63.5849 64.5504 63.4956 64.6441C63.4063 64.7378 63.2922 64.7856 63.1532 64.7878C63.0143 64.7858 62.9001 64.7377 62.8108 64.6441C62.7215 64.5504 62.6754 64.4241 62.6723 64.2651C62.6753 64.1061 62.7215 63.9798 62.8108 63.8861C62.9001 63.7924 63.0143 63.7446 63.1532 63.7424C63.2922 63.7444 63.4063 63.7925 63.4956 63.8861C63.5849 63.9797 63.6311 64.1061 63.6341 64.2651Z" fill="#548BA2"/>
<path d="M65.266 64.5351L64.5446 63.5315H64.231V64.9951H64.5237V63.9915H64.5341L65.2555 64.9951H65.5692V63.5315H65.2764V64.5351H65.266Z" fill="#548BA2"/>
<path d="M65.8159 63.535V63.7755H66.3177V64.9987H66.6105V63.7755H67.1123V63.535H65.8159Z" fill="#548BA2"/>
<path d="M68.4039 63.535V64.1519H67.6511V63.535H67.3584V64.9986H67.6511V64.3923H68.4039V64.9986H68.6966V63.535H68.4039Z" fill="#548BA2"/>
<path d="M70.6131 63.425L69.8081 65.0977H70.1113L70.9163 63.425H70.6131Z" fill="#548BA2"/>
<path d="M72.6111 64.2451H72.5902L72.172 63.5342H71.8584L72.4543 64.5378V64.9978H72.747V64.5378L73.3429 63.5342H73.0293L72.6111 64.2451Z" fill="#548BA2"/>
<path d="M73.5523 64.995H74.7441V64.7546H73.845V64.3886H74.4513V64.1482H73.845V63.7718H74.7231V63.5314H73.5522L73.5523 64.995Z" fill="#548BA2"/>
<path d="M75.8302 63.535H75.4643L74.8579 64.9986H75.1715L75.2866 64.7059H76.0079L76.1229 64.9986H76.4366L75.8302 63.535ZM75.642 63.8487H75.6525L75.9034 64.455H75.3911L75.642 63.8487Z" fill="#548BA2"/>
<path d="M76.6641 63.535V64.9986H76.9568V64.4968H77.3645L77.7095 64.9986H78.0545L77.6677 64.4445V64.434C77.6707 64.4346 77.6945 64.4217 77.7382 64.3953C77.7818 64.3688 77.8255 64.325 77.8691 64.2636C77.9127 64.2023 77.9362 64.1197 77.9396 64.0158C77.9391 63.8769 77.8878 63.7627 77.7854 63.6734C77.683 63.5841 77.5323 63.538 77.3332 63.5349L76.6641 63.535ZM77.6363 64.0159C77.6361 64.0762 77.6104 64.1307 77.5592 64.1793C77.508 64.2279 77.4327 64.2536 77.3332 64.2564H76.9568V63.7754H77.3332C77.4327 63.7774 77.5081 63.8 77.5592 63.8447C77.6104 63.8893 77.6361 63.9464 77.6363 64.0159Z" fill="#548BA2"/>
<path d="M53.0149 69.2551H53.3809L53.9559 67.7915H53.6318L53.2031 68.9415H53.1927L52.764 67.7915H52.4399L53.0149 69.2551Z" fill="#548BA2"/>
<path d="M55.0021 67.795H54.6362L54.0298 69.2586H54.3434L54.4584 68.9659H55.1798L55.2948 69.2586H55.6084L55.0021 67.795ZM54.8139 68.1087H54.8243L55.0752 68.7151H54.563L54.8139 68.1087Z" fill="#548BA2"/>
<path d="M55.836 69.255H56.9546V69.0146H56.1287V67.7914H55.8359L55.836 69.255Z" fill="#548BA2"/>
<path d="M57.4949 67.795H57.2021V69.2586H57.4949V67.795Z" fill="#548BA2"/>
<path d="M57.873 67.7951V69.2587H58.4376C58.6761 69.2547 58.8656 69.1866 59.0061 69.0535C59.1465 68.9204 59.2184 68.7449 59.2217 68.5269C59.2184 68.3134 59.1466 68.1392 59.0061 68.0041C58.8656 67.8691 58.6761 67.7994 58.4376 67.795L57.873 67.7951ZM58.4376 68.0356C58.5811 68.0376 58.6966 68.0831 58.7839 68.1715C58.8712 68.2599 58.9161 68.3784 58.9185 68.5269C58.9161 68.6755 58.8712 68.7939 58.7839 68.8824C58.6966 68.9708 58.5811 69.0161 58.4376 69.0183H58.1658V68.0356H58.4376Z" fill="#548BA2"/>
<path d="M52.458 70.0551V70.2955H52.9598V71.5187H53.2526V70.2955H53.7544V70.0551H52.458Z" fill="#548BA2"/>
<path d="M55.0459 70.0551V70.6719H54.2932V70.0551H54.0005V71.5187H54.2932V70.9123H55.0459V71.5187H55.3387V70.0551H55.0459Z" fill="#548BA2"/>
<path d="M55.7178 70.055V71.5186H56.0105V71.0168H56.4182L56.7632 71.5186H57.1082L56.7214 70.9645V70.954C56.7248 70.9547 56.7483 70.9417 56.7919 70.9153C56.8355 70.8888 56.8791 70.845 56.9228 70.7837C56.9664 70.7224 56.9899 70.6397 56.9932 70.5358C56.9928 70.3969 56.9414 70.2828 56.839 70.1935C56.7367 70.1042 56.5859 70.058 56.3869 70.0549L55.7178 70.055ZM56.6901 70.5359C56.6898 70.5962 56.6641 70.6507 56.613 70.6992C56.5618 70.7478 56.4864 70.7736 56.3869 70.7764H56.0105V70.2954H56.3869C56.4864 70.2974 56.5618 70.32 56.613 70.3647C56.6641 70.4094 56.6898 70.4664 56.6901 70.5359Z" fill="#548BA2"/>
<path d="M58.005 71.555C58.2113 71.552 58.3738 71.4929 58.4925 71.3786C58.6112 71.2643 58.6717 71.114 58.6741 70.9277V70.0496H58.3814V70.9277C58.3801 71.0441 58.3461 71.1355 58.2795 71.2022C58.2128 71.2688 58.1213 71.3028 58.005 71.3041C57.8887 71.3031 57.7972 71.2688 57.7306 71.2022C57.6639 71.1355 57.63 71.0441 57.6287 70.9277V70.0496H57.3359V70.9277C57.3383 71.114 57.3989 71.2643 57.5176 71.3786C57.6363 71.493 57.7988 71.5518 58.005 71.555Z" fill="#548BA2"/>
<path d="M73.977 67.655L71.7354 71.7665Z" fill="#E2E2E2"/>
<path d="M73.977 67.655L71.7354 71.7665" stroke="url(#paint22_linear_2937_2359)" stroke-width="0.92321"/>
<path opacity="0.85771" d="M28.2908 30.1992H16.3153C14.8874 30.1992 13.73 31.3567 13.73 32.7845V44.7601C13.73 46.1879 14.8874 47.3453 16.3153 47.3453H28.2908C29.7186 47.3453 30.8761 46.1879 30.8761 44.7601V32.7845C30.8761 31.3567 29.7186 30.1992 28.2908 30.1992Z" fill="#D6C056"/>
<path opacity="0.85771" d="M28.2908 30.1992H16.3153C14.8874 30.1992 13.73 31.3567 13.73 32.7845V44.7601C13.73 46.1879 14.8874 47.3453 16.3153 47.3453H28.2908C29.7186 47.3453 30.8761 46.1879 30.8761 44.7601V32.7845C30.8761 31.3567 29.7186 30.1992 28.2908 30.1992Z" fill="url(#paint23_linear_2937_2359)"/>
<path opacity="0.85771" d="M28.2658 30.2882H16.34C14.9476 30.2882 13.8188 31.417 13.8188 32.8094V44.7351C13.8188 46.1275 14.9476 47.2563 16.34 47.2563H28.2658C29.6582 47.2563 30.7869 46.1275 30.7869 44.7351V32.8094C30.7869 31.417 29.6582 30.2882 28.2658 30.2882Z" stroke="#848484" stroke-width="0.21771"/>
<path opacity="0.85771" d="M25.0719 36.0043H19.5352V41.541H25.0719V36.0043Z" stroke="#505050" stroke-width="0.100018"/>
<path d="M22.3037 36.0043V34.4637Z" fill="#ADA47A"/>
<path d="M22.3037 36.0043V34.4637" stroke="#505050" stroke-width="0.100018"/>
<path d="M22.3037 41.5403V43.0809Z" fill="#ADA47A"/>
<path d="M22.3037 41.5403V43.0809" stroke="#505050" stroke-width="0.100018"/>
<path d="M25.0723 38.7728L30.7879 38.7728Z" fill="#ADA47A"/>
<path d="M25.0723 38.7728L30.7879 38.7728" stroke="#505050" stroke-width="0.100018"/>
<path d="M19.535 38.7728H13.8193Z" fill="#ADA47A"/>
<path d="M19.535 38.7728H13.8193" stroke="#505050" stroke-width="0.100018"/>
<path d="M25.0723 36.0042L26.0188 35.1984H30.7879" stroke="#505050" stroke-width="0.100018"/>
<path d="M19.535 41.5403L18.5884 42.3462H13.8193" stroke="#505050" stroke-width="0.100018"/>
<path d="M25.0723 41.5403L26.0188 42.3462H30.7879" stroke="#505050" stroke-width="0.100018"/>
<path d="M19.535 36.0042L18.5884 35.1984H13.8193" stroke="#505050" stroke-width="0.100018"/>
<path d="M25.786 30.2882L22.3032 34.4633" stroke="#505050" stroke-width="0.100018"/>
<path d="M25.786 47.2564L22.3032 43.0813" stroke="#505050" stroke-width="0.100018"/>
<path d="M18.8208 30.2882L22.3035 34.4633" stroke="#505050" stroke-width="0.100018"/>
<path d="M18.8208 47.2564L22.3035 43.0813" stroke="#505050" stroke-width="0.100018"/>
<path d="M9.31996 82H8.16655L9.92401 76.9091H11.3111L13.0661 82H11.9126L10.6374 78.0724H10.5977L9.31996 82ZM9.24787 79.9989H11.9723V80.8391H9.24787V79.9989ZM17.0153 78.5547C16.9805 78.4337 16.9316 78.3268 16.8686 78.234C16.8056 78.1396 16.7286 78.06 16.6374 77.9954C16.5479 77.9291 16.4452 77.8786 16.3292 77.8438C16.2148 77.8089 16.0881 77.7915 15.9488 77.7915C15.6887 77.7915 15.46 77.8562 15.2628 77.9854C15.0672 78.1147 14.9148 78.3028 14.8054 78.5497C14.696 78.795 14.6413 79.0949 14.6413 79.4496C14.6413 79.8042 14.6952 80.1058 14.8029 80.3544C14.9106 80.603 15.0631 80.7927 15.2603 80.9237C15.4575 81.0529 15.6903 81.1175 15.9588 81.1175C16.2024 81.1175 16.4104 81.0745 16.5827 80.9883C16.7567 80.9004 16.8893 80.777 16.9805 80.6179C17.0733 80.4588 17.1197 80.2707 17.1197 80.0536L17.3384 80.0859H16.0259V79.2756H18.1562V79.9169C18.1562 80.3643 18.0618 80.7488 17.8729 81.0703C17.6839 81.3902 17.4238 81.6371 17.0923 81.8111C16.7609 81.9834 16.3814 82.0696 15.9538 82.0696C15.4765 82.0696 15.0573 81.9644 14.696 81.7539C14.3347 81.5418 14.053 81.241 13.8508 80.8516C13.6503 80.4605 13.5501 79.9964 13.5501 79.4595C13.5501 79.0469 13.6097 78.679 13.729 78.3558C13.85 78.031 14.019 77.7559 14.2361 77.5305C14.4532 77.3052 14.7059 77.1336 14.9943 77.016C15.2827 76.8983 15.595 76.8395 15.9314 76.8395C16.2198 76.8395 16.4883 76.8817 16.7368 76.9663C16.9854 77.0491 17.2058 77.1668 17.3981 77.3192C17.592 77.4717 17.7502 77.6532 17.8729 77.8636C17.9955 78.0724 18.0742 78.3028 18.109 78.5547H17.0153ZM19.1647 82V76.9091H22.5951V77.7965H20.2411V79.0096H22.4186V79.897H20.2411V81.1126H22.6051V82H19.1647ZM27.909 76.9091V82H26.9794L24.7645 78.7958H24.7272V82H23.6509V76.9091H24.5955L26.7929 80.1108H26.8377V76.9091H27.909ZM28.8044 77.7965V76.9091H32.9855V77.7965H31.427V82H30.363V77.7965H28.8044Z" fill="#50869C"/>
<path d="M105.038 73.024L101.603 81.9882H104.23L104.724 80.6717H107.93L108.424 81.9882H111.04L107.593 73.024H105.038ZM105.46 78.6132L106.315 76.3153L107.171 78.6132H105.46Z" fill="#3757A6"/>
<path d="M119.621 73.024C120.235 73.6464 120.657 74.4483 120.79 75.3578H122.308V81.9882H124.875V75.3578H127.406V73.024H119.621Z" fill="#3757A6"/>
<path d="M117.764 78.7088C118.788 78.254 119.463 77.2367 119.463 75.9681C119.463 75.7526 119.439 75.5612 119.415 75.3697C119.379 75.1662 119.319 74.9627 119.246 74.7832C118.825 73.7181 117.824 73.0479 116.535 73.0479H111.919V81.988H114.486V78.984H115.101L115.824 80.1449L116.969 81.988H119.849L118.355 79.6423L117.764 78.7088ZM116.318 76.6862H114.498V75.3218H116.318C116.679 75.3218 116.932 75.5971 116.932 76.004C116.932 76.4109 116.679 76.6862 116.318 76.6862Z" fill="#3757A6"/>
<path d="M102.253 78.1943C102.603 78.1943 102.868 77.9429 102.868 77.5839C102.868 77.2368 102.615 76.9735 102.253 76.9735C101.892 76.9735 101.639 77.2248 101.639 77.5839C101.639 77.931 101.892 78.1943 102.253 78.1943Z" fill="#3757A6"/>
<path d="M120.681 76.9735C120.656 76.9735 120.632 76.9735 120.608 76.9735C120.283 76.9974 120.066 77.2488 120.066 77.5719C120.066 77.7395 120.126 77.8711 120.211 77.9788C120.319 78.0985 120.488 78.1703 120.681 78.1703C121.042 78.1703 121.295 77.919 121.295 77.5599C121.295 77.2248 121.042 76.9735 120.681 76.9735Z" fill="#3757A6"/>
<path d="M126.442 77.0093C126.08 77.0093 125.827 77.2606 125.827 77.6197C125.827 77.9787 126.08 78.23 126.442 78.23C126.803 78.23 127.056 77.9787 127.056 77.6197C127.056 77.2606 126.803 77.0093 126.442 77.0093Z" fill="#3757A6"/>
<path d="M110.726 76.9735C110.364 76.9735 110.111 77.2248 110.111 77.5839C110.111 77.9429 110.364 78.1943 110.726 78.1943C111.088 78.1943 111.341 77.9429 111.341 77.5839C111.341 77.2248 111.088 76.9735 110.726 76.9735Z" fill="#3757A6"/>
<path d="M94.7814 78.5891C94.7935 78.613 94.8055 78.6489 94.8176 78.6729C94.8296 78.6849 94.8296 78.6968 94.8296 78.7088C94.8417 78.7208 94.8417 78.7327 94.8417 78.7447C94.8778 78.8045 94.9019 78.8644 94.9381 78.9242C94.9381 78.9242 94.9381 78.9362 94.9501 78.9362C94.9983 79.008 95.0465 79.0918 95.0948 79.1636C95.2032 79.3192 95.3237 79.4747 95.4563 79.6064C95.5527 79.7141 95.6612 79.8099 95.7697 79.8936C95.7817 79.9056 95.7817 79.9056 95.7938 79.9176C95.9263 80.0253 96.0589 80.121 96.2035 80.1928C96.324 80.2646 96.4566 80.3125 96.5892 80.3604C96.6012 80.3604 96.6253 80.3724 96.6374 80.3724C96.6615 80.3843 96.6856 80.3843 96.7097 80.3963C96.7338 80.3963 96.7459 80.4083 96.77 80.4083C96.8061 80.4202 96.8423 80.4202 96.8784 80.4322H96.8905C96.9146 80.4322 96.9266 80.4322 96.9507 80.4442C96.9869 80.4442 97.011 80.4561 97.0471 80.4561C97.0712 80.4561 97.0954 80.4561 97.1195 80.4561C97.1556 80.4561 97.2038 80.4561 97.24 80.4561C97.252 80.4561 97.2641 80.4561 97.2761 80.4561C97.3123 80.4561 97.3484 80.4561 97.3846 80.4442C97.4087 80.4442 97.4328 80.4322 97.4569 80.4322C97.469 80.4322 97.481 80.4322 97.481 80.4322C97.5051 80.4322 97.5292 80.4202 97.5533 80.4083C97.6136 80.3963 97.6859 80.3724 97.7461 80.3365C97.7703 80.3245 97.7823 80.3245 97.7944 80.3125C97.8064 80.3125 97.8064 80.3005 97.8185 80.3005C97.8305 80.3005 97.8426 80.2886 97.8426 80.2886C97.8546 80.2766 97.8787 80.2766 97.8908 80.2646C97.8908 80.2646 97.8908 80.2646 97.9028 80.2646C97.9149 80.2646 97.9149 80.2527 97.9269 80.2527H97.939C97.951 80.2407 97.9631 80.2407 97.9751 80.2287C97.9751 80.2287 97.9872 80.2287 97.9872 80.2168L97.9992 80.2048L98.0233 80.1928L98.0354 80.1809C98.0354 80.1809 98.0474 80.1809 98.0474 80.1689C98.6982 79.7021 98.9031 78.8644 98.879 78.0745C98.8308 76.8657 98.168 75.5133 97.1315 74.867C97.0592 74.8192 96.2276 74.2686 95.384 74.6995C95.3719 74.7114 95.3478 74.7234 95.3358 74.7234C95.3358 74.7234 95.3237 74.7234 95.3237 74.7354C95.3237 74.7354 95.3117 74.7354 95.3117 74.7473C95.2996 74.7593 95.2876 74.7593 95.2755 74.7713C95.2514 74.7832 95.2273 74.7952 95.2032 74.8192C95.1912 74.7952 95.1791 74.8072 95.1791 74.8072C95.1791 74.8072 95.1791 74.8072 95.1671 74.8072C95.1671 74.8072 95.1671 74.8072 95.155 74.8072C95.1189 74.8311 95.0827 74.8551 95.0465 74.891C95.0345 74.9029 95.0104 74.9149 94.9983 74.9388C94.9983 74.9388 94.9863 74.9388 94.9863 74.9508C94.9863 74.9508 94.9863 74.9508 94.9742 74.9628C94.8658 75.0705 94.7694 75.1902 94.6729 75.3338C94.6729 75.3457 94.6609 75.3457 94.6609 75.3577C94.6247 75.4056 94.6006 75.4654 94.5765 75.5133C94.5765 75.5253 94.5645 75.5372 94.5645 75.5492C94.5524 75.5851 94.5404 75.609 94.5283 75.645C94.5163 75.6689 94.5042 75.7048 94.4922 75.7287C94.4922 75.7407 94.4801 75.7527 94.4801 75.7646C94.456 75.8484 94.4319 75.9322 94.4078 76.004C94.4078 76.016 94.3957 76.0279 94.3957 76.0399C94.3957 76.0519 94.3957 76.0519 94.3957 76.0638C94.2993 76.4947 94.2993 76.9734 94.3837 77.4282C94.3837 77.4402 94.3837 77.4402 94.3837 77.4521L94.7332 77.4641C94.6368 76.9255 94.6609 76.3511 94.9019 75.8723C94.914 75.8484 94.926 75.8245 94.9381 75.8005C94.9501 75.7766 94.9742 75.7527 94.9863 75.7168C95.1068 75.5372 95.2514 75.3936 95.4202 75.2979C95.4322 75.2859 95.4443 75.2859 95.4443 75.2859C95.4563 75.2859 95.4684 75.2739 95.4804 75.2739C96.5651 74.7593 97.6497 75.8484 98.0354 76.8178C98.0595 76.8657 98.0836 76.9136 98.0957 76.9614C98.3728 77.7154 98.4331 78.637 97.9992 79.3072C97.9992 79.3072 97.9992 79.3072 97.9992 79.3192C97.9872 79.3311 97.9872 79.3431 97.9751 79.3431L97.9631 79.3551C97.951 79.367 97.939 79.391 97.9269 79.4029V79.4149C97.8426 79.5346 97.722 79.6423 97.5895 79.7141C97.5654 79.7261 97.5533 79.738 97.5292 79.75C97.5172 79.762 97.5051 79.762 97.4931 79.774C96.4928 80.2407 95.4804 79.3192 95.0586 78.4455H95.0706L95.0827 78.4335L95.4081 78.2779C95.7335 78.9242 96.553 79.5944 97.252 79.1396C97.3002 79.1037 97.3484 79.0678 97.3966 79.008C97.4449 78.9601 97.4931 78.9003 97.5292 78.8404C97.5413 78.8165 97.5654 78.7926 97.5774 78.7686V78.7567C97.5895 78.7447 97.6015 78.7208 97.6015 78.7088C97.6015 78.6968 97.6136 78.6968 97.6136 78.6849C97.6256 78.6609 97.6377 78.637 97.6377 78.613V78.6011C97.9149 77.7753 97.5895 76.758 96.9387 76.1835C96.6012 75.8723 96.1071 75.6928 95.6973 75.8963C95.6853 75.9083 95.6612 75.9083 95.6491 75.9202C95.6371 75.9322 95.625 75.9322 95.613 75.9442C95.5527 75.9801 95.5045 76.016 95.4563 76.0758C95.4443 76.0878 95.4202 76.1117 95.4081 76.1237C95.384 76.1596 95.3599 76.1835 95.3358 76.2194C95.3358 76.2194 95.3358 76.2314 95.3237 76.2314C95.1068 76.5545 95.0586 76.9614 95.0948 77.3444C95.1068 77.3923 95.1068 77.4521 95.1189 77.5L95.5407 77.512C95.5166 77.4043 95.5166 77.2846 95.5286 77.1769C95.5407 77.0931 95.5527 77.0093 95.5768 76.9375C95.5889 76.9136 95.5889 76.8896 95.6009 76.8777C95.613 76.8537 95.613 76.8418 95.625 76.8178C95.625 76.8178 95.625 76.8059 95.6371 76.8059C95.6491 76.7939 95.6491 76.7819 95.6612 76.77V76.758C95.7094 76.6742 95.7817 76.6024 95.854 76.5665L95.8661 76.5545C95.8902 76.5426 95.9263 76.5186 95.9625 76.5067C96.8543 76.2673 97.5051 77.7513 97.0592 78.4216C97.0592 78.4216 97.0592 78.4216 97.0471 78.4335C97.0471 78.4455 97.0351 78.4455 97.023 78.4575V78.4694C97.023 78.4814 97.011 78.4814 97.011 78.4934C97.011 78.5053 96.9989 78.5053 96.9989 78.5173C96.6374 78.9003 96.0227 78.5173 95.7817 78.0864H95.7938L95.8058 78.0745L96.1794 77.895C96.2035 77.9189 96.2276 77.9428 96.2638 77.9668C96.312 78.0027 96.3481 78.0146 96.3963 78.0266C96.4446 78.0386 96.4928 78.0386 96.5289 78.0266C96.553 78.0146 96.5771 78.0146 96.5892 77.9907C96.6133 77.9668 96.6494 77.9428 96.6615 77.9069C96.6735 77.895 96.6735 77.883 96.6735 77.871C96.6735 77.871 96.6735 77.8591 96.6856 77.8591C96.6856 77.8591 96.6856 77.8471 96.6976 77.8471C96.6976 77.8351 96.7097 77.8231 96.7097 77.8112C96.7217 77.7633 96.7338 77.7035 96.7217 77.6317C96.7217 77.5718 96.7097 77.512 96.6856 77.4521C96.6494 77.3444 96.5651 77.2247 96.4687 77.1529C96.3843 77.0931 96.2879 77.0692 96.2035 77.1051C96.1915 77.1051 96.1915 77.117 96.1794 77.117C96.1553 77.129 96.1192 77.1529 96.0951 77.1888L96.083 77.2008C96.0589 77.2367 96.0348 77.2846 96.0227 77.3325C96.0107 77.3803 96.0107 77.4402 96.0107 77.5V77.512L96.3722 77.5239L96.0589 77.6197L96.0348 77.6317L95.6612 77.7513H95.6491H95.6371C95.4322 77.8112 95.1189 77.9189 94.914 77.9907H94.9019C94.4199 78.1463 93.1785 78.5532 92.7085 78.7088V73H96.6012C99.349 73 101.277 74.867 101.277 77.5359C101.277 80.1689 99.349 82 96.6012 82H92.7085V79.5944L94.7814 78.5891Z" fill="#3757A6"/>
<path d="M43.0923 44.1073C42.9157 44.0562 42.7368 43.8461 42.6992 43.6456C42.6746 43.515 42.7046 43.4243 42.8917 43.0623C43.648 41.5993 43.9767 40.253 43.9767 38.6189C43.9767 37.0396 43.6857 35.8108 42.9627 34.3381C42.8075 34.0219 42.6806 33.7284 42.6806 33.6859C42.6806 33.5292 42.8117 33.302 42.9536 33.2129C43.1484 33.0907 43.4747 33.1135 43.6309 33.2602C43.6909 33.3166 43.8469 33.5726 43.9775 33.8291C44.4947 34.8447 44.8491 35.9591 45.0241 37.119C45.1324 37.8368 45.1539 39.1972 45.0674 39.8543C44.9078 41.0665 44.5879 42.1481 44.0756 43.2077C43.766 43.8482 43.5716 44.1117 43.4089 44.1117C43.3763 44.1117 43.3232 44.1198 43.2909 44.1298C43.2584 44.1396 43.1691 44.1295 43.0923 44.1073ZM40.9872 43.006C40.7164 42.9272 40.5211 42.595 40.5994 42.3461C40.6184 42.2858 40.7459 42.0082 40.8826 41.7292C41.4619 40.5479 41.7029 39.2815 41.5848 38.0382C41.4878 37.0166 41.3047 36.3723 40.8435 35.4296C40.534 34.7971 40.5196 34.6991 40.6996 34.4444C40.8706 34.2023 41.2976 34.163 41.5219 34.3688C41.6774 34.5114 42.1609 35.5212 42.3475 36.093C42.9652 37.9855 42.871 40.0171 42.0794 41.8762C41.6739 42.8286 41.3893 43.123 40.9872 43.006ZM38.8164 41.8892C38.6491 41.8138 38.5051 41.6368 38.4659 41.4585C38.442 41.3499 38.4831 41.2297 38.6817 40.8277C39.4108 39.3511 39.4186 37.9288 38.7057 36.4865C38.3926 35.853 38.3857 35.7269 38.6505 35.4771C38.7812 35.3539 38.8367 35.3321 39.0202 35.3321C39.3281 35.3321 39.4877 35.4868 39.7628 36.0518C40.1859 36.921 40.3591 37.6749 40.3577 38.6409C40.3562 39.6339 40.1943 40.3155 39.7423 41.232C39.4834 41.7568 39.3554 41.8953 39.0963 41.9309C39.0172 41.9417 38.8913 41.9229 38.8164 41.8892ZM36.7908 40.8489C36.6582 40.794 36.5069 40.6137 36.4619 40.4569C36.4117 40.2816 36.4528 40.1426 36.6518 39.8154C36.9077 39.3946 36.9672 39.1688 36.9672 38.6188C36.9672 38.0689 36.9077 37.843 36.6518 37.4222C36.565 37.2795 36.478 37.1086 36.4582 37.0424C36.3758 36.765 36.6069 36.4252 36.9173 36.3669C37.1804 36.3175 37.3611 36.4349 37.6031 36.8126C38.3036 37.906 38.3035 39.3667 37.6027 40.4509C37.3556 40.8334 37.0799 40.9685 36.7908 40.8489Z" fill="#F0F0F0"/>
<path d="M75.5757 71.7665V70.1316C75.5757 69.9059 75.6516 69.7143 75.8035 69.5568C75.9595 69.395 76.1463 69.3141 76.3639 69.3141H77.9402V68.4967H75.5757V67.6793H77.9402C78.1578 67.6793 78.3425 67.7602 78.4944 67.922C78.6504 68.0838 78.7284 68.2754 78.7284 68.4968V69.3142C78.7284 69.5441 78.6504 69.7378 78.4944 69.8953C78.3384 70.0528 78.1537 70.1316 77.9402 70.1316H76.3639V70.949H78.7284V71.7664L75.5757 71.7665Z" fill="#5E9CB6"/>
<path d="M81.8601 71.7664V70.1315H80.2838C80.0621 70.1315 79.8753 70.0528 79.7234 69.8952C79.5716 69.7334 79.4956 69.5397 79.4956 69.3141V67.6792H80.2838V69.3141H81.8601V67.6792H82.6483V71.7664L81.8601 71.7664Z" fill="#5E9CB6"/>
<path d="M75.5757 71.5185V69.8837C75.5757 69.658 75.6516 69.4664 75.8035 69.3089C75.9595 69.1471 76.1463 69.0662 76.3639 69.0662H77.9402V68.2488H75.5757V67.4314H77.9402C78.1578 67.4314 78.3425 67.5123 78.4944 67.6741C78.6504 67.8359 78.7284 68.0274 78.7284 68.2488V69.0662C78.7284 69.2961 78.6504 69.4899 78.4944 69.6474C78.3384 69.8049 78.1537 69.8837 77.9402 69.8837H76.3639V70.7011H78.7284V71.5185L75.5757 71.5185Z" fill="url(#paint24_linear_2937_2359)"/>
<path d="M81.8601 71.5185V69.8836H80.2838C80.0621 69.8836 79.8753 69.8048 79.7234 69.6473C79.5716 69.4855 79.4956 69.2918 79.4956 69.0662V67.4313H80.2838V69.0662H81.8601V67.4313H82.6483V71.5185L81.8601 71.5185Z" fill="url(#paint25_linear_2937_2359)"/>
<defs>
<linearGradient id="paint0_linear_2937_2359" x1="109.363" y1="67.4285" x2="109.363" y2="71.5141" gradientUnits="userSpaceOnUse">
<stop stop-color="#A6A6A6"/>
<stop offset="0.088375" stop-color="#D0D0D0"/>
<stop offset="0.53604" stop-color="#E2E2E2"/>
<stop offset="0.94704" stop-color="#B1B1B1"/>
<stop offset="1" stop-color="#A5A5A5"/>
</linearGradient>
<linearGradient id="paint1_linear_2937_2359" x1="105.096" y1="67.4285" x2="105.096" y2="71.5141" gradientUnits="userSpaceOnUse">
<stop stop-color="#A6A6A6"/>
<stop offset="0.088375" stop-color="#D0D0D0"/>
<stop offset="0.53604" stop-color="#E2E2E2"/>
<stop offset="0.94704" stop-color="#B1B1B1"/>
<stop offset="1" stop-color="#A5A5A5"/>
</linearGradient>
<linearGradient id="paint2_linear_2937_2359" x1="68.4377" y1="6.6072" x2="68.4377" y2="86.4272" gradientUnits="userSpaceOnUse">
<stop stop-color="#5D92AB"/>
<stop offset="0.5" stop-color="#5791A9"/>
<stop offset="1" stop-color="#3D6F81" stop-opacity="0.63545"/>
</linearGradient>
<linearGradient id="paint3_linear_2937_2359" x1="-22.115" y1="-46.1752" x2="142.868" y2="118.807" gradientUnits="userSpaceOnUse">
<stop stop-color="#66A1BC" stop-opacity="0"/>
<stop offset="0.40493" stop-color="#7BCCEE" stop-opacity="0.74247"/>
<stop offset="0.54576" stop-color="#84DBFF"/>
<stop offset="0.81319" stop-color="#7BCCEE" stop-opacity="0.70569"/>
<stop offset="1" stop-color="#488297" stop-opacity="0"/>
</linearGradient>
<linearGradient id="paint4_linear_2937_2359" x1="66.1351" y1="51.2186" x2="66.1351" y2="57.0937" gradientUnits="userSpaceOnUse">
<stop stop-color="#A6A6A6"/>
<stop offset="0.088375" stop-color="#D0D0D0"/>
<stop offset="0.53604" stop-color="#E2E2E2"/>
<stop offset="0.94704" stop-color="#B1B1B1"/>
<stop offset="1" stop-color="#A5A5A5"/>
</linearGradient>
<linearGradient id="paint5_linear_2937_2359" x1="66.1351" y1="51.2185" x2="66.1351" y2="57.0936" gradientUnits="userSpaceOnUse">
<stop stop-color="#A6A6A6"/>
<stop offset="0.088375" stop-color="#D0D0D0"/>
<stop offset="0.53604" stop-color="#E2E2E2"/>
<stop offset="0.94704" stop-color="#B1B1B1"/>
<stop offset="1" stop-color="#A5A5A5"/>
</linearGradient>
<linearGradient id="paint6_linear_2937_2359" x1="66.1351" y1="51.2186" x2="66.1351" y2="57.0937" gradientUnits="userSpaceOnUse">
<stop stop-color="#A6A6A6"/>
<stop offset="0.088375" stop-color="#D0D0D0"/>
<stop offset="0.53604" stop-color="#E2E2E2"/>
<stop offset="0.94704" stop-color="#B1B1B1"/>
<stop offset="1" stop-color="#A5A5A5"/>
</linearGradient>
<linearGradient id="paint7_linear_2937_2359" x1="66.1353" y1="51.2185" x2="66.1353" y2="57.0936" gradientUnits="userSpaceOnUse">
<stop stop-color="#A6A6A6"/>
<stop offset="0.088375" stop-color="#D0D0D0"/>
<stop offset="0.53604" stop-color="#E2E2E2"/>
<stop offset="0.94704" stop-color="#B1B1B1"/>
<stop offset="1" stop-color="#A5A5A5"/>
</linearGradient>
<linearGradient id="paint8_linear_2937_2359" x1="66.135" y1="51.2186" x2="66.135" y2="57.0937" gradientUnits="userSpaceOnUse">
<stop stop-color="#A6A6A6"/>
<stop offset="0.088375" stop-color="#D0D0D0"/>
<stop offset="0.53604" stop-color="#E2E2E2"/>
<stop offset="0.94704" stop-color="#B1B1B1"/>
<stop offset="1" stop-color="#A5A5A5"/>
</linearGradient>
<linearGradient id="paint9_linear_2937_2359" x1="66.1352" y1="51.2186" x2="66.1352" y2="57.0937" gradientUnits="userSpaceOnUse">
<stop stop-color="#A6A6A6"/>
<stop offset="0.088375" stop-color="#D0D0D0"/>
<stop offset="0.53604" stop-color="#E2E2E2"/>
<stop offset="0.94704" stop-color="#B1B1B1"/>
<stop offset="1" stop-color="#A5A5A5"/>
</linearGradient>
<linearGradient id="paint10_linear_2937_2359" x1="66.1351" y1="51.2186" x2="66.1351" y2="57.0937" gradientUnits="userSpaceOnUse">
<stop stop-color="#A6A6A6"/>
<stop offset="0.088375" stop-color="#D0D0D0"/>
<stop offset="0.53604" stop-color="#E2E2E2"/>
<stop offset="0.94704" stop-color="#B1B1B1"/>
<stop offset="1" stop-color="#A5A5A5"/>
</linearGradient>
<linearGradient id="paint11_linear_2937_2359" x1="66.1351" y1="51.2186" x2="66.1351" y2="57.0937" gradientUnits="userSpaceOnUse">
<stop stop-color="#A6A6A6"/>
<stop offset="0.088375" stop-color="#D0D0D0"/>
<stop offset="0.53604" stop-color="#E2E2E2"/>
<stop offset="0.94704" stop-color="#B1B1B1"/>
<stop offset="1" stop-color="#A5A5A5"/>
</linearGradient>
<linearGradient id="paint12_linear_2937_2359" x1="66.135" y1="51.2186" x2="66.135" y2="57.0936" gradientUnits="userSpaceOnUse">
<stop stop-color="#A6A6A6"/>
<stop offset="0.088375" stop-color="#D0D0D0"/>
<stop offset="0.53604" stop-color="#E2E2E2"/>
<stop offset="0.94704" stop-color="#B1B1B1"/>
<stop offset="1" stop-color="#A5A5A5"/>
</linearGradient>
<linearGradient id="paint13_linear_2937_2359" x1="66.135" y1="51.2186" x2="66.135" y2="57.0937" gradientUnits="userSpaceOnUse">
<stop stop-color="#A6A6A6"/>
<stop offset="0.088375" stop-color="#D0D0D0"/>
<stop offset="0.53604" stop-color="#E2E2E2"/>
<stop offset="0.94704" stop-color="#B1B1B1"/>
<stop offset="1" stop-color="#A5A5A5"/>
</linearGradient>
<linearGradient id="paint14_linear_2937_2359" x1="66.1349" y1="51.2186" x2="66.1349" y2="57.0937" gradientUnits="userSpaceOnUse">
<stop stop-color="#A6A6A6"/>
<stop offset="0.088375" stop-color="#D0D0D0"/>
<stop offset="0.53604" stop-color="#E2E2E2"/>
<stop offset="0.94704" stop-color="#B1B1B1"/>
<stop offset="1" stop-color="#A5A5A5"/>
</linearGradient>
<linearGradient id="paint15_linear_2937_2359" x1="66.135" y1="51.2186" x2="66.135" y2="57.0937" gradientUnits="userSpaceOnUse">
<stop stop-color="#A6A6A6"/>
<stop offset="0.088375" stop-color="#D0D0D0"/>
<stop offset="0.53604" stop-color="#E2E2E2"/>
<stop offset="0.94704" stop-color="#B1B1B1"/>
<stop offset="1" stop-color="#A5A5A5"/>
</linearGradient>
<linearGradient id="paint16_linear_2937_2359" x1="66.1351" y1="51.2186" x2="66.1351" y2="57.0937" gradientUnits="userSpaceOnUse">
<stop stop-color="#A6A6A6"/>
<stop offset="0.088375" stop-color="#D0D0D0"/>
<stop offset="0.53604" stop-color="#E2E2E2"/>
<stop offset="0.94704" stop-color="#B1B1B1"/>
<stop offset="1" stop-color="#A5A5A5"/>
</linearGradient>
<linearGradient id="paint17_linear_2937_2359" x1="66.1353" y1="51.2185" x2="66.1353" y2="57.0936" gradientUnits="userSpaceOnUse">
<stop stop-color="#A6A6A6"/>
<stop offset="0.088375" stop-color="#D0D0D0"/>
<stop offset="0.53604" stop-color="#E2E2E2"/>
<stop offset="0.94704" stop-color="#B1B1B1"/>
<stop offset="1" stop-color="#A5A5A5"/>
</linearGradient>
<linearGradient id="paint18_linear_2937_2359" x1="66.135" y1="51.2186" x2="66.135" y2="57.0937" gradientUnits="userSpaceOnUse">
<stop stop-color="#A6A6A6"/>
<stop offset="0.088375" stop-color="#D0D0D0"/>
<stop offset="0.53604" stop-color="#E2E2E2"/>
<stop offset="0.94704" stop-color="#B1B1B1"/>
<stop offset="1" stop-color="#A5A5A5"/>
</linearGradient>
<linearGradient id="paint19_linear_2937_2359" x1="66.135" y1="51.2185" x2="66.135" y2="57.0936" gradientUnits="userSpaceOnUse">
<stop stop-color="#A6A6A6"/>
<stop offset="0.088375" stop-color="#D0D0D0"/>
<stop offset="0.53604" stop-color="#E2E2E2"/>
<stop offset="0.94704" stop-color="#B1B1B1"/>
<stop offset="1" stop-color="#A5A5A5"/>
</linearGradient>
<linearGradient id="paint20_linear_2937_2359" x1="78.2589" y1="67.4518" x2="78.2589" y2="72.449" gradientUnits="userSpaceOnUse">
<stop stop-color="#A6A6A6"/>
<stop offset="0.088375" stop-color="#D0D0D0"/>
<stop offset="0.55016" stop-color="#E2E2E2"/>
<stop offset="0.77508" stop-color="#B1B1B1"/>
<stop offset="1" stop-color="#A5A5A5"/>
</linearGradient>
<linearGradient id="paint21_linear_2937_2359" x1="78.2589" y1="67.4518" x2="78.2589" y2="72.449" gradientUnits="userSpaceOnUse">
<stop stop-color="#A6A6A6"/>
<stop offset="0.088375" stop-color="#D0D0D0"/>
<stop offset="0.55016" stop-color="#E2E2E2"/>
<stop offset="0.77508" stop-color="#B1B1B1"/>
<stop offset="1" stop-color="#A5A5A5"/>
</linearGradient>
<linearGradient id="paint22_linear_2937_2359" x1="73.7933" y1="67.9147" x2="71.5791" y2="71.5455" gradientUnits="userSpaceOnUse">
<stop stop-color="#A6A6A6"/>
<stop offset="0.088375" stop-color="#D0D0D0"/>
<stop offset="0.73874" stop-color="#E2E2E2"/>
<stop offset="0.91947" stop-color="#B1B1B1"/>
<stop offset="1" stop-color="#A5A5A5"/>
</linearGradient>
<linearGradient id="paint23_linear_2937_2359" x1="15.7443" y1="30.3662" x2="29.1698" y2="47.0793" gradientUnits="userSpaceOnUse">
<stop stop-color="#D6C056" stop-opacity="0"/>
<stop offset="0.5" stop-color="#FFFF8C"/>
<stop offset="1" stop-color="#D6C056" stop-opacity="0"/>
</linearGradient>
<linearGradient id="paint24_linear_2937_2359" x1="109.363" y1="67.4285" x2="109.363" y2="71.5141" gradientUnits="userSpaceOnUse">
<stop stop-color="#A6A6A6"/>
<stop offset="0.088375" stop-color="#D0D0D0"/>
<stop offset="0.53604" stop-color="#E2E2E2"/>
<stop offset="0.94704" stop-color="#B1B1B1"/>
<stop offset="1" stop-color="#A5A5A5"/>
</linearGradient>
<linearGradient id="paint25_linear_2937_2359" x1="105.095" y1="67.4285" x2="105.095" y2="71.5141" gradientUnits="userSpaceOnUse">
<stop stop-color="#A6A6A6"/>
<stop offset="0.088375" stop-color="#D0D0D0"/>
<stop offset="0.53604" stop-color="#E2E2E2"/>
<stop offset="0.94704" stop-color="#B1B1B1"/>
<stop offset="1" stop-color="#A5A5A5"/>
</linearGradient>
</defs>
</svg>
