<svg width="778" height="590" viewBox="0 0 778 590" fill="none" xmlns="http://www.w3.org/2000/svg">
<path d="M25.2998 75.1478L696.545 0.872536C711.308 -0.742143 724.687 10.5606 726.417 26.1884L777.049 483.777C778.779 499.405 768.226 513.36 753.463 515.033L82.2173 589.308C67.4545 590.923 54.0758 579.62 52.3457 563.992L1.71399 106.403C-0.0160233 90.7179 10.5371 76.7625 25.2998 75.1478Z" fill="#D0D0D2"/>
<path d="M79.3339 590C73.0482 590 66.9931 587.751 61.9761 583.541C56.2094 578.64 52.5764 571.72 51.7114 564.05L1.0796 106.461C-0.708078 90.545 10.1334 76.2435 25.1845 74.5712L696.43 0.295897C703.754 -0.511443 710.904 1.73758 716.671 6.63928C722.438 11.541 726.071 18.461 726.936 26.1308L777.568 483.719C778.433 491.447 776.414 499.001 771.859 504.999C767.303 511.054 760.786 514.802 753.463 515.609L82.2173 589.885C81.2946 589.942 80.3142 590 79.3339 590ZM25.3575 75.7245C10.9407 77.3392 0.560602 91.064 2.29062 106.346L52.9224 563.934C53.7297 571.316 57.2474 578.005 62.7834 582.676C68.3195 587.347 75.1819 589.481 82.1596 588.731L753.405 514.456C760.383 513.706 766.611 510.073 770.994 504.307C775.376 498.54 777.337 491.274 776.472 483.835L725.84 26.2461C725.033 18.8647 721.515 12.1753 715.979 7.50429C710.443 2.83325 703.581 0.699567 696.603 1.44924L25.3575 75.7245Z" fill="#B3B7B7"/>
<path d="M25.6455 79.9919L696.026 5.77426C708.597 4.39025 719.842 13.444 721.226 25.9578L771.916 483.892C773.3 496.464 764.246 507.709 751.732 509.093L81.352 583.311C68.7805 584.695 57.5354 575.641 56.1514 563.127L5.46201 105.192C4.078 92.6786 13.1317 81.3759 25.6455 79.9919Z" fill="black"/>
<path d="M78.8148 583.772C73.5671 583.772 68.55 581.984 64.398 578.697C59.5539 574.833 56.5552 569.297 55.8632 563.185L5.17383 105.25C3.78982 92.5632 12.9589 81.0874 25.6457 79.7034L695.968 5.4858C702.139 4.79379 708.136 6.58149 712.98 10.4452C717.824 14.3089 720.823 19.8449 721.515 25.9576L772.204 483.892C772.896 490.063 771.109 496.06 767.245 500.904C763.381 505.748 757.845 508.747 751.732 509.439L81.3521 583.656C80.5448 583.714 79.6798 583.772 78.8148 583.772ZM25.7033 80.2801C13.3626 81.6641 4.36649 92.7938 5.7505 105.192L56.4399 563.127C57.0743 569.124 60.0729 574.487 64.744 578.236C69.4727 581.984 75.3547 583.714 81.3521 583.022L751.732 508.805C757.73 508.17 763.093 505.171 766.841 500.5C770.59 495.772 772.32 489.89 771.628 483.892L720.938 25.9576C720.304 19.9602 717.305 14.5972 712.634 10.8488C707.906 7.10047 702.023 5.37046 696.026 6.06247L25.7033 80.2801Z" fill="black"/>
<path opacity="0.8706" d="M42.0229 112.862L684.435 41.7585L729.53 449.407L87.1187 520.511L42.0229 112.862Z" fill="url(#paint0_linear_2937_2293)"/>
<path opacity="0.1642" d="M366.804 76.1281C367.15 79.1844 364.786 81.9525 361.614 82.2985C358.385 82.6445 355.501 80.4531 355.155 77.3968C354.809 74.3404 357.174 71.5724 360.345 71.2264C363.575 70.8804 366.458 73.0717 366.804 76.1281Z" fill="url(#paint1_radial_2937_2293)"/>
<path d="M182.384 364.06L182.327 363.945C183.768 376.631 185.152 389.376 186.594 402.063C186.709 402.985 187.113 403.908 187.401 404.831C188.209 408.752 189.593 412.673 189.65 416.595C189.823 425.648 190.458 434.529 192.764 443.295C194.264 448.888 195.071 454.713 196.051 460.422C196.513 463.074 196.974 465.9 196.455 468.61C195.994 471.148 194.61 473.455 195.821 476.05C196.051 476.511 196.34 476.914 196.57 477.433C197.724 479.74 197.435 482.739 198.012 485.219C198.646 488.044 203.087 486.603 205.163 486.43C206.547 486.314 214.62 486.372 215.024 484.584C215.831 480.778 210.641 477.779 208.681 475.127C206.143 471.667 205.163 467.63 206.028 463.42C207.066 458.576 207.931 453.675 208.796 448.773C209.834 442.603 211.449 436.374 211.622 430.146C211.852 421.842 209.546 413.827 206.316 406.157C205.566 399.641 204.874 393.124 204.125 386.665C204.24 386.204 204.355 385.743 204.413 385.281C205.912 372.133 207.7 359.043 208.854 345.837C209.315 340.301 209.084 334.534 208.219 328.998C207.008 321.271 204.932 313.659 203.144 305.989C201.933 300.799 200.492 295.667 199.165 290.477L197.435 275.426C198.185 271.966 198.819 268.505 199.684 265.045C199.915 264.18 200.895 263.546 201.53 262.796C202.222 263.431 203.26 264.007 203.548 264.815C204.701 268.39 205.624 271.966 206.604 275.599C207.585 284.71 208.623 293.821 209.661 302.99C209.719 303.74 210.18 304.432 210.411 305.182C213.006 312.448 214.447 322.77 214.505 330.555C214.505 333.785 214.678 337.129 216.35 339.897C218.023 342.665 221.771 344.338 224.597 342.781C227.48 341.166 227.941 337.302 227.999 333.958C228.576 314.582 221.944 297.512 219.926 278.597C219.118 270.985 218.311 263.315 217.446 255.703C217.388 255.127 216.985 254.608 216.754 254.089C215.947 249.533 215.255 244.92 214.217 240.364C212.89 234.424 209.949 229.234 206.431 224.275C204.182 221.161 201.357 219.661 197.781 219.142C194.725 218.681 191.553 218.681 188.612 217.874C184.691 216.778 180.827 215.279 177.079 213.606C175.926 213.087 174.657 211.646 174.542 210.492C173.85 205.187 173.734 199.882 175.983 194.749C176.906 192.673 177.886 190.597 177.483 188.233C177.367 187.772 177.252 187.31 177.021 186.907C175.58 184.427 175.637 181.832 174.945 179.006C174.484 177.218 174.196 175.2 173.1 173.874C168.775 168.799 163.123 167.53 156.838 169.145C148.995 171.221 146.169 175.488 147.034 183.504C147.207 185.061 147.726 187.079 147.034 188.175C144.67 191.866 146.227 194.634 148.591 197.287C152.34 201.554 153.205 206.802 154.185 211.992C154.589 214.01 153.724 215.452 152.051 216.49C151.071 217.066 150.206 217.758 149.226 218.335C145.131 220.699 141.441 223.698 136.597 224.851C132.791 225.774 128.466 227.158 126.736 231.253C124.775 235.808 123.448 240.595 122.237 245.381C121.661 247.572 122.007 250.052 122.007 252.359C122.007 256.626 122.064 260.893 122.122 265.161C122.007 265.91 121.776 266.718 121.834 267.467C122.641 274.907 123.448 282.346 124.313 289.785C124.313 293.475 124.371 297.166 124.371 300.857C124.371 302.529 124.371 304.144 124.313 305.816C124.256 306.681 124.025 307.546 124.083 308.411C124.487 312.678 124.948 316.946 125.525 321.213C125.64 322.251 126.044 323.232 126.332 324.27C126.62 324.846 126.966 325.423 127.082 326.057C128.293 332.228 126.678 341.512 129.965 347.106C131.868 350.335 136.251 353.622 139.653 350.854C142.479 348.547 138.788 339.551 138.846 336.553C138.903 328.768 139.134 320.983 139.307 313.198C139.422 312.448 139.653 311.641 139.595 310.891C138.615 301.779 137.577 292.668 136.597 283.499C137 278.886 137.346 274.215 137.75 269.601C138.096 269.601 138.442 269.543 138.788 269.543C142.536 272.6 144.093 276.983 145.477 281.423L147.207 296.993C147.207 303.048 147.265 309.161 147.207 315.216C147.15 320.002 146.919 324.731 146.804 329.517C147.034 333.323 147.207 337.187 147.553 340.993C147.726 342.781 148.245 344.511 148.649 346.241C151.532 355.237 154.358 364.233 157.299 373.229C159.26 379.284 161.336 385.281 163.354 391.279C164.046 397.795 164.796 404.312 165.488 410.828C166.295 418.325 165.142 426.052 165.603 433.606C165.834 437.412 168.314 441.565 169.698 445.082C172.581 452.291 175.464 459.557 178.636 466.65C180.943 471.84 180.135 476.28 177.137 480.721C176.214 482.047 174.023 483.777 173.677 485.219C173.561 485.622 173.561 486.026 173.561 486.372C173.619 487.352 173.792 488.333 174.369 489.082C175.695 490.812 178.751 489.659 180.539 489.428C183.48 489.025 186.421 488.563 189.362 487.987C190.342 487.814 191.611 486.603 191.784 485.68C192.13 483.95 191.323 481.874 191.957 480.317C193.341 476.857 191.438 474.377 190.169 471.609C189.362 469.821 188.324 467.976 188.151 466.073C187.574 460.479 187.286 454.828 187.055 449.234C186.767 441.853 186.998 434.414 186.421 427.032C185.844 419.766 184.576 412.558 183.595 405.35C183.711 404.6 183.941 403.793 183.884 403.043C182.557 390.933 181.231 378.823 179.847 366.713C179.789 365.905 179.732 365.098 179.616 364.348C179.732 363.772 180.02 363.195 179.962 362.618C179.386 357.428 178.809 352.238 178.175 346.99C178.521 346.587 178.809 346.241 179.559 345.433C179.847 347.163 180.078 348.374 180.308 349.643C180.712 353.276 181.058 356.909 181.519 360.542C181.577 361.638 182.096 362.849 182.384 364.06Z" fill="#D4EEF8"/>
<path opacity="0.2637" d="M570.658 22.4399L358.904 538.272L764.938 494.734C764.938 494.734 717.305 52.4845 714.595 32.82C711.711 12.2328 702.485 8.42678 684.377 10.2145C665.405 12.0021 570.658 22.4399 570.658 22.4399Z" fill="url(#paint2_linear_2937_2293)"/>
<path d="M669.089 329.69L517.366 346.471C516.098 346.586 514.944 345.663 514.771 344.395L500.182 212.798C500.066 211.53 500.989 210.376 502.258 210.203L653.98 193.422C655.249 193.307 656.402 194.23 656.575 195.498L671.165 327.095C671.28 328.363 670.357 329.517 669.089 329.69Z" fill="#0C2746"/>
<path d="M539.573 343.984L524.495 207.745L524.209 207.777L539.287 344.015L539.573 343.984Z" fill="#4F78BA"/>
<path d="M563.463 341.349L548.384 205.11L548.098 205.142L563.176 341.381L563.463 341.349Z" fill="#4FA4B7"/>
<path d="M587.352 338.72L572.273 202.482L571.987 202.513L587.065 338.752L587.352 338.72Z" fill="#4FA4B7"/>
<path d="M611.234 336.034L596.156 199.795L595.87 199.827L610.948 336.066L611.234 336.034Z" fill="#4FA4B7"/>
<path d="M635.066 333.405L619.987 197.167L619.701 197.198L634.779 333.437L635.066 333.405Z" fill="#4FA4B7"/>
<path d="M658.898 330.783L643.819 194.544L643.533 194.576L658.611 330.814L658.898 330.783Z" fill="#4FA4B7"/>
<path d="M656.187 198.775L656.156 198.488L500.529 215.648L500.56 215.935L656.187 198.775Z" fill="#4FA4B7"/>
<path d="M659.082 224.948L659.051 224.661L503.424 241.821L503.456 242.107L659.082 224.948Z" fill="#4FA4B7"/>
<path d="M661.977 251.12L661.946 250.834L506.319 267.993L506.351 268.28L661.977 251.12Z" fill="#4FA4B7"/>
<path d="M664.879 277.345L664.847 277.058L509.22 294.218L509.252 294.504L664.879 277.345Z" fill="#4FA4B7"/>
<path d="M579.185 327.498L567.537 243.304C568.171 262.219 568.402 281.307 567.306 300.164C567.248 300.856 566.902 301.433 566.268 301.779C564.077 302.874 558.368 300.395 557.791 299.991C555.254 298.319 553.524 295.435 552.024 292.956L551.678 292.321C550.41 290.245 548.564 288.458 546.95 288.573C546.085 292.84 544.874 297.05 541.759 299.299C539.856 300.683 537.607 300.971 535.589 301.26L511.946 304.489L511.657 302.182L535.301 298.953C537.088 298.722 538.991 298.434 540.433 297.396C543.086 295.551 544.066 291.456 544.873 287.42L544.989 286.785L545.565 286.555C548.737 285.228 551.851 288.054 553.697 291.11L554.1 291.745C555.542 294.167 557.041 296.646 559.175 298.088C560.04 298.607 563.961 299.933 565.172 299.76C566.672 273.291 565.576 246.245 564.48 220.122L566.787 219.891L579.301 310.198C581.896 297.338 586.451 293.705 590.258 292.091C592.968 290.937 595.794 290.88 598.562 290.822C600.984 290.764 603.233 290.707 605.366 290.015C611.767 287.881 615.227 280.442 618.572 273.291C619.725 270.811 620.936 268.216 622.263 265.91C622.666 265.16 623.185 264.353 623.935 263.776C624.858 263.084 625.896 262.911 626.934 263.142C629.817 263.891 632.009 268.159 632.816 269.946C636.91 278.943 646.137 287.65 655.191 285.978L655.594 288.227C650.866 289.092 645.849 287.65 641.12 284.075C636.795 280.846 633.104 276.174 630.682 270.869C629.298 267.87 627.626 265.679 626.357 265.391C626.011 265.275 625.665 265.391 625.319 265.621C624.915 265.91 624.627 266.486 624.281 267.005C623.012 269.254 621.801 271.792 620.648 274.214C617.073 281.826 613.382 289.726 606.058 292.148C603.579 292.956 601.041 293.013 598.562 293.071C595.909 293.129 593.429 293.186 591.123 294.109C583.626 297.281 581.434 308.641 580.339 318.214L579.185 327.498Z" fill="url(#paint3_linear_2937_2293)"/>
<path d="M655.075 289.553C656.381 289.553 657.44 288.495 657.44 287.189C657.44 285.883 656.381 284.825 655.075 284.825C653.77 284.825 652.711 285.883 652.711 287.189C652.711 288.495 653.77 289.553 655.075 289.553Z" fill="white"/>
<path d="M655.767 289.784C654.383 290.188 652.884 289.323 652.538 287.939C652.192 286.555 652.999 285.055 654.383 284.709C655.767 284.306 657.267 285.171 657.613 286.555C657.959 287.939 657.151 289.38 655.767 289.784C657.151 289.38 654.383 290.188 655.767 289.784ZM654.556 285.228C653.461 285.517 652.826 286.612 653.115 287.708C653.403 288.804 654.499 289.438 655.594 289.15C656.69 288.861 657.324 287.766 657.036 286.67C656.748 285.574 655.594 284.94 654.556 285.228C655.594 284.94 653.461 285.517 654.556 285.228Z" fill="url(#paint4_linear_2937_2293)"/>
<path d="M667.774 303.523L667.742 303.237L512.115 320.396L512.147 320.683L667.774 303.523Z" fill="#4FA4B7"/>
<path d="M670.906 325.438L670.875 325.152L515.248 342.311L515.279 342.598L670.906 325.438Z" fill="#4F78BA"/>
<path d="M646.235 102.498L276.207 143.451L281.339 189.819L651.367 148.866L646.235 102.498Z" fill="#7AC4E0"/>
<path d="M472.449 211.899L286.059 232.527L301.486 371.918L487.876 351.289L472.449 211.899Z" fill="#0C2746"/>
<path d="M315.077 468.149C331.001 468.149 343.91 455.24 343.91 439.315C343.91 423.391 331.001 410.482 315.077 410.482C299.152 410.482 286.243 423.391 286.243 439.315C286.243 455.24 299.152 468.149 315.077 468.149Z" fill="#0C2746"/>
<path d="M332.838 433.549L318.421 435.106L316.864 420.747L309.31 421.612L310.867 435.971L296.508 437.528L297.373 445.14L311.732 443.525L313.289 457.884L320.901 457.077L319.286 442.66L333.645 441.103L332.838 433.549Z" fill="#D6E040"/>
<path d="M462.993 422.938L349.85 435.452C348.87 435.567 348.005 434.875 347.89 433.895L345.064 408.348C344.948 407.368 345.64 406.503 346.621 406.388L459.764 393.874C460.744 393.759 461.609 394.451 461.724 395.431L464.55 420.978C464.665 421.958 463.973 422.823 462.993 422.938Z" fill="#0C2746"/>
<path d="M454.855 412.73L450.876 409.559L454.048 405.637L451.972 403.965L448.8 407.944L444.879 404.772L443.207 406.848L447.128 410.02L443.956 413.941L446.09 415.614L449.204 411.635L453.183 414.806L454.855 412.73Z" fill="#5FC5F2"/>
<path d="M532.763 415.21L470.194 422.13C469.214 422.245 468.349 421.553 468.234 420.573L465.408 395.026C465.293 394.046 465.985 393.181 466.965 393.066L529.534 386.146C530.514 386.03 531.379 386.722 531.495 387.703L534.32 413.249C534.436 414.23 533.744 415.095 532.763 415.21Z" fill="#0C2746"/>
<path d="M524.633 405.003L520.654 401.831L523.825 397.91L521.749 396.237L518.578 400.216L514.656 397.045L512.984 399.121L516.905 402.292L513.791 406.214L515.867 407.886L519.039 403.907L522.96 407.079L524.633 405.003Z" fill="#5FC5F2"/>
<path d="M635.353 403.85L539.972 414.403C538.991 414.518 538.126 413.826 538.011 412.846L535.185 387.357C535.07 386.376 535.762 385.511 536.742 385.396L632.124 374.843C633.104 374.728 633.969 375.42 634.085 376.4L636.91 401.947C637.026 402.869 636.334 403.734 635.353 403.85Z" fill="#0C2746"/>
<path d="M627.222 393.642L623.243 390.528L626.415 386.549L624.339 384.877L621.167 388.856L617.246 385.684L615.573 387.76L619.495 390.932L616.381 394.853L618.457 396.526L621.571 392.604L625.55 395.718L627.222 393.642Z" fill="#5FC5F2"/>
<path d="M552.774 446.062L457.393 456.615C456.412 456.73 455.547 456.038 455.432 455.058L452.606 429.511C452.491 428.531 453.183 427.666 454.163 427.551L549.545 416.998C550.525 416.882 551.39 417.574 551.505 418.555L554.331 444.101C554.504 445.082 553.754 446.004 552.774 446.062Z" fill="#0C2746"/>
<path d="M544.643 435.855L540.722 432.741L543.836 428.762L541.76 427.089L538.646 431.068L534.666 427.897L532.994 429.973L536.973 433.144L533.801 437.066L535.877 438.738L539.049 434.817L542.971 437.988L544.643 435.855Z" fill="#5FC5F2"/>
<path d="M448.864 457.596L353.483 468.149C352.503 468.264 351.638 467.572 351.522 466.592L348.697 441.046C348.581 440.065 349.273 439.2 350.254 439.085L445.635 428.532C446.615 428.417 447.48 429.108 447.596 430.089L450.421 455.635C450.537 456.616 449.845 457.481 448.864 457.596Z" fill="#0C2746"/>
<path d="M440.727 447.388L436.748 444.216L439.92 440.295L437.844 438.623L434.672 442.544L430.75 439.372L429.078 441.506L432.999 444.62L429.828 448.599L431.904 450.272L435.076 446.292L439.055 449.464L440.727 447.388Z" fill="#5FC5F2"/>
<path d="M430.813 407.706L352.406 416.384L353.262 424.121L431.67 415.443L430.813 407.706Z" fill="#5FC5F2"/>
<path d="M502.76 399.741L475.249 402.786L476.105 410.523L503.616 407.478L502.76 399.741Z" fill="#5FC5F2"/>
<path d="M604.955 388.466L542.481 395.38L543.338 403.118L605.812 396.204L604.955 388.466Z" fill="#5FC5F2"/>
<path d="M525.363 430.335L459.909 437.58L460.766 445.317L526.22 438.073L525.363 430.335Z" fill="#5FC5F2"/>
<path d="M421.51 441.809L356.056 449.053L356.913 456.791L422.367 449.547L421.51 441.809Z" fill="#5FC5F2"/>
<path d="M354.123 239.534L452.907 228.577C456.251 228.231 459.25 230.595 459.596 233.94L459.884 236.65C460.23 239.995 457.866 242.994 454.521 243.34L355.737 254.296C352.393 254.642 349.394 252.278 349.048 248.933L348.76 246.223C348.414 242.878 350.778 239.88 354.123 239.534Z" fill="#65B8DE"/>
<path d="M322.348 243.051L309.777 244.435C306.432 244.781 304.068 247.78 304.414 251.125L304.702 253.835C305.048 257.18 308.047 259.544 311.392 259.198L323.963 257.814C327.308 257.468 329.672 254.47 329.326 251.125L329.038 248.414C328.692 245.07 325.693 242.648 322.348 243.051Z" fill="#65B8DE"/>
<path d="M360.639 298.198L459.423 287.299C462.768 286.953 465.766 289.318 466.112 292.662L466.401 295.373C466.747 298.717 464.382 301.716 461.038 302.062L362.254 313.019C358.909 313.365 355.911 311 355.565 307.656L355.276 304.945C354.93 301.601 357.295 298.602 360.639 298.198Z" fill="#65B8DE"/>
<path d="M328.865 301.716L316.294 303.1C312.949 303.446 310.585 306.445 310.931 309.789L311.219 312.5C311.565 315.844 314.564 318.209 317.908 317.863L330.48 316.479C333.824 316.133 336.189 313.134 335.843 309.789L335.554 307.079C335.208 303.792 332.21 301.37 328.865 301.716Z" fill="#65B8DE"/>
<path d="M363.869 327.591L462.653 316.635C465.998 316.289 468.996 318.653 469.342 321.998L469.631 324.708C469.977 328.053 467.612 331.051 464.268 331.397L365.484 342.354C362.139 342.7 359.14 340.336 358.794 336.991L358.506 334.281C358.16 330.936 360.582 327.937 363.869 327.591Z" fill="#65B8DE"/>
<path d="M332.095 331.109L319.523 332.493C316.178 332.839 313.814 335.838 314.16 339.182L314.448 341.893C314.794 345.237 317.793 347.602 321.138 347.256L333.709 345.872C337.054 345.526 339.418 342.527 339.072 339.182L338.784 336.472C338.438 333.127 335.439 330.705 332.095 331.109Z" fill="#65B8DE"/>
<path d="M357.41 268.869L456.194 257.912C459.538 257.566 462.537 259.93 462.883 263.275L463.171 265.986C463.517 269.33 461.153 272.329 457.808 272.675L359.025 283.632C355.68 283.978 352.681 281.613 352.335 278.269L352.047 275.558C351.643 272.214 354.065 269.215 357.41 268.869Z" fill="#65B8DE"/>
<path d="M325.636 272.386L313.064 273.771C309.719 274.117 307.355 277.115 307.701 280.46L307.989 283.17C308.335 286.515 311.334 288.879 314.679 288.533L327.25 287.149C330.595 286.803 332.959 283.805 332.613 280.46L332.325 277.75C331.921 274.405 328.923 272.04 325.636 272.386Z" fill="#65B8DE"/>
<path d="M157.242 270.87C162.242 270.87 166.295 266.816 166.295 261.816C166.295 256.816 162.242 252.762 157.242 252.762C152.241 252.762 148.188 256.816 148.188 261.816C148.188 266.816 152.241 270.87 157.242 270.87Z" fill="#D6E040"/>
<path d="M157.242 273.407C154.589 273.407 152.052 272.542 149.976 270.87C147.554 268.909 145.997 266.199 145.651 263.085C144.959 256.741 149.572 250.975 155.973 250.283C159.087 249.937 162.144 250.802 164.566 252.762C166.988 254.723 168.545 257.433 168.891 260.547C169.583 266.891 164.969 272.658 158.568 273.35C158.107 273.35 157.645 273.407 157.242 273.407ZM157.299 250.744C156.896 250.744 156.492 250.744 156.031 250.802C149.976 251.494 145.535 256.914 146.227 262.97C146.573 265.911 148.015 268.506 150.322 270.351C152.628 272.196 155.512 273.004 158.453 272.715C164.508 272.023 168.948 266.603 168.256 260.547C167.91 257.606 166.469 255.011 164.162 253.166C162.201 251.609 159.779 250.744 157.299 250.744Z" fill="#D6E040"/>
<path d="M157.242 275.714C154.128 275.714 151.071 274.676 148.592 272.658C145.708 270.351 143.863 267.006 143.459 263.316C143.056 259.625 144.094 255.992 146.4 253.109C148.707 250.225 152.052 248.38 155.742 247.976C159.433 247.572 163.066 248.61 165.949 250.917C168.833 253.224 170.678 256.569 171.082 260.259C171.486 263.95 170.447 267.583 168.141 270.466C165.834 273.35 162.489 275.195 158.799 275.599C158.28 275.656 157.761 275.714 157.242 275.714ZM157.299 248.495C156.78 248.495 156.319 248.495 155.8 248.553C152.282 248.956 149.111 250.686 146.862 253.454C144.613 256.223 143.632 259.683 144.036 263.258C144.843 270.582 151.417 275.829 158.741 275.022C162.259 274.618 165.43 272.888 167.679 270.12C169.928 267.352 170.909 263.892 170.505 260.317C170.101 256.799 168.371 253.628 165.603 251.378C163.181 249.475 160.298 248.495 157.299 248.495Z" fill="#D6E040"/>
<path d="M321.807 175.367L318.891 149.348L329.156 148.197C331.13 147.976 332.853 148.165 334.327 148.763C335.799 149.352 336.974 150.271 337.852 151.519C338.737 152.758 339.276 154.241 339.47 155.969C339.663 157.697 339.461 159.263 338.864 160.668C338.267 162.073 337.302 163.223 335.971 164.118C334.647 165.013 332.986 165.572 330.987 165.796L324.444 166.529L323.95 162.121L329.604 161.487C330.662 161.369 331.514 161.089 332.16 160.648C332.812 160.197 333.272 159.627 333.537 158.937C333.811 158.237 333.899 157.46 333.803 156.604C333.707 155.74 333.448 155.006 333.029 154.401C332.617 153.787 332.044 153.341 331.31 153.063C330.574 152.777 329.673 152.693 328.606 152.813L324.896 153.229L327.308 174.75L321.807 175.367ZM350.646 172.508C349.401 172.647 348.268 172.556 347.245 172.233C346.222 171.902 345.378 171.34 344.715 170.548C344.059 169.747 343.659 168.703 343.515 167.415C343.393 166.331 343.491 165.398 343.806 164.617C344.122 163.835 344.597 163.182 345.233 162.656C345.869 162.13 346.61 161.704 347.457 161.378C348.312 161.05 349.217 160.786 350.172 160.584C351.294 160.339 352.196 160.126 352.879 159.947C353.561 159.759 354.047 159.541 354.337 159.294C354.627 159.048 354.748 158.717 354.702 158.302L354.693 158.225C354.603 157.421 354.279 156.827 353.722 156.443C353.173 156.059 352.436 155.918 351.513 156.022C350.539 156.131 349.788 156.434 349.261 156.93C348.732 157.418 348.411 157.995 348.297 158.659L343.246 158.814C343.367 157.599 343.752 156.518 344.4 155.571C345.048 154.615 345.934 153.838 347.059 153.241C348.192 152.633 349.537 152.242 351.096 152.068C352.18 151.946 353.232 151.957 354.251 152.1C355.279 152.242 356.208 152.537 357.039 152.984C357.878 153.43 358.569 154.048 359.112 154.836C359.654 155.616 359.99 156.586 360.12 157.746L361.595 170.908L356.462 171.483L356.159 168.777L356.006 168.794C355.761 169.439 355.402 170.024 354.929 170.548C354.455 171.065 353.865 171.495 353.157 171.84C352.449 172.177 351.612 172.4 350.646 172.508ZM351.778 168.599C352.574 168.51 353.259 168.274 353.834 167.893C354.408 167.502 354.838 167.017 355.124 166.436C355.411 165.855 355.516 165.221 355.439 164.535L355.207 162.464C355.05 162.594 354.828 162.721 354.542 162.848C354.264 162.965 353.947 163.082 353.591 163.199C353.234 163.307 352.877 163.412 352.52 163.512C352.161 163.603 351.836 163.687 351.545 163.762C350.92 163.927 350.382 164.137 349.93 164.394C349.479 164.65 349.141 164.967 348.917 165.343C348.693 165.712 348.609 166.15 348.666 166.658C348.748 167.395 349.078 167.928 349.656 168.258C350.24 168.578 350.948 168.692 351.778 168.599ZM374.682 149.682L375.137 153.747L363.386 155.064L362.93 150.999L374.682 149.682ZM365.074 146.025L370.486 145.418L372.525 163.611C372.581 164.111 372.701 164.492 372.885 164.754C373.068 165.008 373.301 165.175 373.584 165.255C373.876 165.334 374.204 165.353 374.568 165.312C374.822 165.283 375.074 165.234 375.323 165.163C375.572 165.083 375.762 165.024 375.895 164.983L377.197 168.915C376.936 169.03 376.566 169.17 376.087 169.335C375.609 169.509 375.02 169.648 374.32 169.752C373.021 169.949 371.858 169.903 370.831 169.615C369.812 169.327 368.985 168.793 368.349 168.015C367.713 167.238 367.327 166.209 367.193 164.929L365.074 146.025ZM381.09 168.723L378.903 149.209L384.315 148.602L386.502 168.117L381.09 168.723ZM381.34 146.389C380.535 146.479 379.815 146.289 379.179 145.82C378.551 145.342 378.195 144.726 378.11 143.972C378.027 143.227 378.239 142.555 378.746 141.958C379.262 141.352 379.922 141.003 380.726 140.913C381.531 140.823 382.247 141.017 382.875 141.495C383.511 141.965 383.871 142.572 383.954 143.317C384.039 144.071 383.823 144.751 383.308 145.358C382.801 145.955 382.144 146.299 381.34 146.389ZM400.469 166.937C398.462 167.162 396.688 166.949 395.149 166.299C393.617 165.638 392.377 164.602 391.43 163.19C390.482 161.77 389.893 160.031 389.662 157.973C389.437 155.966 389.629 154.16 390.238 152.557C390.848 150.953 391.812 149.649 393.132 148.643C394.46 147.637 396.081 147.027 397.995 146.812C399.282 146.668 400.504 146.741 401.66 147.032C402.824 147.313 403.866 147.818 404.789 148.546C405.719 149.274 406.487 150.234 407.092 151.427C407.697 152.611 408.092 154.034 408.278 155.694L408.445 157.18L391.967 159.027L391.591 155.673L402.974 154.397C402.887 153.618 402.64 152.946 402.234 152.383C401.828 151.82 401.305 151.402 400.666 151.131C400.034 150.85 399.324 150.754 398.537 150.842C397.715 150.934 397.008 151.206 396.416 151.659C395.831 152.102 395.396 152.661 395.111 153.336C394.826 154.002 394.722 154.721 394.8 155.493L395.157 158.682C395.265 159.648 395.537 160.462 395.971 161.125C396.414 161.787 396.987 162.272 397.691 162.579C398.394 162.886 399.199 162.989 400.105 162.887C400.707 162.82 401.248 162.673 401.728 162.448C402.209 162.223 402.608 161.921 402.926 161.542C403.244 161.163 403.468 160.718 403.6 160.206L408.642 159.975C408.523 161.206 408.12 162.315 407.433 163.301C406.753 164.278 405.823 165.085 404.642 165.723C403.469 166.352 402.078 166.757 400.469 166.937ZM417.758 153.19L419.023 164.472L413.61 165.079L411.424 145.564L416.582 144.986L416.968 148.429L417.196 148.404C417.501 147.22 418.125 146.241 419.067 145.467C420.008 144.684 421.203 144.211 422.651 144.049C424.007 143.897 425.221 144.061 426.296 144.541C427.37 145.021 428.248 145.78 428.931 146.819C429.612 147.848 430.038 149.121 430.208 150.638L431.6 163.063L426.188 163.669L424.904 152.21C424.778 151.014 424.369 150.117 423.676 149.517C422.982 148.909 422.092 148.665 421.008 148.787C420.28 148.869 419.654 149.097 419.13 149.473C418.614 149.848 418.234 150.354 417.988 150.991C417.749 151.618 417.673 152.351 417.758 153.19ZM444.754 141.829L445.21 145.895L433.458 147.212L433.002 143.146L444.754 141.829ZM435.146 138.172L440.559 137.565L442.597 155.758C442.653 156.258 442.773 156.639 442.957 156.902C443.14 157.155 443.373 157.322 443.656 157.402C443.948 157.481 444.276 157.5 444.64 157.459C444.894 157.431 445.146 157.381 445.396 157.31C445.644 157.231 445.834 157.171 445.967 157.13L447.27 161.062C447.008 161.177 446.638 161.317 446.159 161.483C445.681 161.656 445.092 161.795 444.392 161.899C443.093 162.096 441.93 162.051 440.903 161.763C439.885 161.474 439.057 160.941 438.421 160.163C437.785 159.385 437.4 158.356 437.265 157.076L435.146 138.172ZM460.24 159.853L457.324 133.834L467.589 132.684C469.554 132.464 471.27 132.627 472.738 133.174C474.214 133.712 475.387 134.58 476.259 135.777C477.138 136.965 477.674 138.419 477.867 140.138C478.06 141.866 477.854 143.394 477.248 144.723C476.642 146.043 475.668 147.112 474.328 147.932C472.996 148.75 471.33 149.271 469.332 149.495L462.458 150.265L461.963 145.844L467.947 145.173C468.997 145.056 469.853 144.814 470.515 144.448C471.178 144.082 471.646 143.592 471.92 142.979C472.203 142.364 472.296 141.629 472.2 140.773C472.104 139.909 471.848 139.2 471.435 138.646C471.029 138.091 470.458 137.701 469.721 137.475C468.992 137.239 468.097 137.181 467.039 137.299L463.329 137.715L465.741 159.237L460.24 159.853ZM472.964 146.438L480.758 157.554L474.685 158.234L467.031 147.103L472.964 146.438ZM492.933 156.575C490.926 156.8 489.152 156.587 487.613 155.936C486.081 155.276 484.842 154.24 483.894 152.828C482.946 151.408 482.357 149.669 482.126 147.611C481.901 145.603 482.093 143.798 482.703 142.195C483.312 140.591 484.276 139.287 485.596 138.281C486.924 137.275 488.545 136.665 490.459 136.45C491.747 136.306 492.968 136.379 494.124 136.67C495.288 136.951 496.331 137.456 497.253 138.184C498.183 138.912 498.951 139.872 499.557 141.065C500.161 142.249 500.556 143.672 500.742 145.332L500.909 146.818L484.431 148.665L484.055 145.311L495.439 144.035C495.351 143.256 495.104 142.584 494.698 142.021C494.292 141.458 493.769 141.04 493.13 140.769C492.498 140.488 491.788 140.392 491.001 140.48C490.179 140.572 489.472 140.844 488.88 141.297C488.295 141.74 487.86 142.299 487.575 142.974C487.29 143.64 487.186 144.359 487.264 145.131L487.621 148.32C487.73 149.286 488.001 150.1 488.435 150.763C488.878 151.425 489.452 151.91 490.155 152.217C490.858 152.524 491.663 152.627 492.569 152.525C493.171 152.458 493.712 152.311 494.192 152.086C494.673 151.861 495.072 151.559 495.39 151.18C495.708 150.801 495.932 150.356 496.064 149.844L501.106 149.613C500.987 150.844 500.584 151.953 499.897 152.939C499.217 153.916 498.287 154.723 497.107 155.361C495.934 155.99 494.542 156.395 492.933 156.575ZM514.934 154.11C512.935 154.334 511.169 154.103 509.634 153.417C508.107 152.722 506.873 151.66 505.932 150.23C505 148.799 504.423 147.097 504.202 145.124C503.978 143.125 504.167 141.329 504.769 139.735C505.378 138.131 506.351 136.826 507.687 135.819C509.023 134.803 510.677 134.184 512.651 133.963C514.353 133.772 515.879 133.914 517.227 134.389C518.575 134.864 519.684 135.619 520.555 136.654C521.426 137.688 521.984 138.955 522.229 140.454L517.122 141.026C516.868 140.068 516.399 139.328 515.715 138.804C515.038 138.271 514.203 138.06 513.212 138.171C512.374 138.265 511.667 138.576 511.091 139.103C510.523 139.622 510.114 140.332 509.864 141.235C509.613 142.138 509.557 143.203 509.695 144.431C509.834 145.676 510.122 146.716 510.559 147.55C511.004 148.384 511.565 148.994 512.243 149.381C512.921 149.768 513.68 149.915 514.518 149.821C515.136 149.752 515.677 149.563 516.14 149.253C516.611 148.943 516.98 148.529 517.248 148.01C517.523 147.482 517.673 146.869 517.698 146.172L522.805 145.599C522.888 147.099 522.628 148.458 522.027 149.674C521.433 150.881 520.537 151.874 519.338 152.651C518.138 153.429 516.671 153.915 514.934 154.11ZM536.627 151.679C534.654 151.9 532.9 151.672 531.367 150.995C529.84 150.308 528.603 149.255 527.655 147.834C526.706 146.406 526.119 144.692 525.895 142.693C525.669 140.677 525.861 138.872 526.472 137.277C527.081 135.673 528.054 134.372 529.392 133.373C530.737 132.365 532.396 131.75 534.369 131.529C536.343 131.308 538.093 131.541 539.619 132.227C541.153 132.904 542.394 133.957 543.343 135.386C544.292 136.806 544.879 138.524 545.104 140.54C545.328 142.539 545.136 144.34 544.527 145.944C543.916 147.539 542.939 148.84 541.594 149.849C540.256 150.847 538.601 151.457 536.627 151.679ZM536.183 147.483C537.081 147.383 537.802 147.045 538.346 146.469C538.89 145.885 539.264 145.131 539.469 144.208C539.683 143.283 539.726 142.254 539.599 141.119C539.472 139.984 539.202 138.989 538.789 138.135C538.384 137.28 537.852 136.628 537.193 136.178C536.534 135.729 535.755 135.555 534.858 135.655C533.951 135.757 533.218 136.101 532.658 136.687C532.106 137.272 531.723 138.026 531.509 138.951C531.304 139.874 531.265 140.903 531.392 142.038C531.519 143.173 531.785 144.168 532.19 145.023C532.603 145.878 533.143 146.529 533.811 146.977C534.486 147.416 535.277 147.585 536.183 147.483ZM550.404 149.749L548.217 130.235L553.464 129.647L553.846 133.051L554.049 133.029C554.269 131.778 554.764 130.796 555.533 130.084C556.301 129.363 557.232 128.941 558.324 128.819C558.595 128.789 558.889 128.773 559.207 128.772C559.524 128.77 559.804 128.786 560.048 128.819L560.586 133.621C560.324 133.573 559.964 133.545 559.509 133.536C559.053 133.527 558.639 133.543 558.267 133.585C557.47 133.674 556.778 133.928 556.191 134.345C555.61 134.753 555.172 135.283 554.876 135.933C554.589 136.583 554.49 137.306 554.579 138.102L555.816 149.142L550.404 149.749ZM572.057 147.644C570.574 147.81 569.189 147.579 567.901 146.952C566.621 146.315 565.545 145.291 564.675 143.879C563.813 142.457 563.259 140.658 563.016 138.482C562.765 136.246 562.917 134.346 563.47 132.783C564.023 131.212 564.856 129.991 565.967 129.12C567.086 128.24 568.362 127.72 569.793 127.559C570.886 127.437 571.817 127.521 572.587 127.812C573.365 128.094 574.009 128.485 574.52 128.985C575.038 129.476 575.445 129.971 575.741 130.469L575.906 130.451L574.81 120.668L580.209 120.063L583.125 146.082L577.789 146.68L577.439 143.555L577.21 143.58C577.017 144.151 576.717 144.729 576.311 145.315C575.912 145.891 575.364 146.394 574.666 146.824C573.977 147.253 573.107 147.526 572.057 147.644ZM573.289 143.145C574.162 143.047 574.872 142.727 575.42 142.186C575.976 141.635 576.366 140.909 576.591 140.009C576.825 139.108 576.876 138.077 576.746 136.917C576.616 135.757 576.342 134.767 575.925 133.948C575.507 133.128 574.967 132.52 574.305 132.122C573.643 131.725 572.876 131.575 572.004 131.673C571.114 131.772 570.392 132.098 569.836 132.649C569.28 133.2 568.894 133.921 568.676 134.811C568.459 135.702 568.413 136.71 568.539 137.837C568.666 138.972 568.936 139.958 569.347 140.795C569.765 141.623 570.303 142.249 570.959 142.673C571.623 143.087 572.4 143.245 573.289 143.145ZM602.943 129.736L598.023 130.596C597.891 130.182 597.666 129.822 597.348 129.514C597.03 129.198 596.631 128.964 596.151 128.812C595.678 128.651 595.128 128.605 594.501 128.675C593.663 128.769 592.976 129.026 592.44 129.447C591.903 129.859 591.667 130.357 591.732 130.941C591.785 131.407 592.015 131.78 592.424 132.06C592.832 132.34 593.501 132.527 594.429 132.62L598.041 132.936C599.981 133.113 601.466 133.581 602.495 134.34C603.523 135.1 604.116 136.183 604.274 137.589C604.417 138.867 604.166 140.032 603.52 141.082C602.883 142.131 601.943 143 600.699 143.688C599.463 144.367 597.998 144.801 596.304 144.991C593.721 145.28 591.602 144.973 589.949 144.069C588.303 143.156 587.244 141.783 586.773 139.949L592.065 139.073C592.314 139.842 592.771 140.4 593.436 140.746C594.1 141.083 594.914 141.197 595.88 141.089C596.828 140.983 597.57 140.715 598.105 140.287C598.648 139.848 598.891 139.337 598.834 138.751C598.77 138.261 598.518 137.882 598.076 137.614C597.633 137.338 596.979 137.163 596.113 137.088L592.658 136.793C590.71 136.626 589.217 136.124 588.18 135.288C587.152 134.452 586.556 133.305 586.392 131.848C586.252 130.595 586.47 129.477 587.046 128.495C587.63 127.512 588.513 126.705 589.695 126.075C590.885 125.444 592.314 125.036 593.983 124.849C596.447 124.572 598.445 124.876 599.976 125.759C601.516 126.642 602.505 127.967 602.943 129.736Z" fill="#0C2746"/>
<defs>
<linearGradient id="paint0_linear_2937_2293" x1="64.5774" y1="316.698" x2="706.945" y2="245.605" gradientUnits="userSpaceOnUse">
<stop stop-color="#7AC4E0"/>
<stop offset="1" stop-color="#3757A7"/>
</linearGradient>
<radialGradient id="paint1_radial_2937_2293" cx="0" cy="0" r="1" gradientUnits="userSpaceOnUse" gradientTransform="translate(361.121 77.8852) rotate(-6.31551) scale(5.85776 5.56458)">
<stop stop-color="white"/>
<stop offset="1" stop-opacity="0"/>
</radialGradient>
<linearGradient id="paint2_linear_2937_2293" x1="439.265" y1="101.8" x2="663.72" y2="519.83" gradientUnits="userSpaceOnUse">
<stop stop-color="white"/>
<stop offset="1" stop-opacity="0"/>
</linearGradient>
<linearGradient id="paint3_linear_2937_2293" x1="509.206" y1="280.73" x2="655.479" y2="264.526" gradientUnits="userSpaceOnUse">
<stop stop-color="#002CAA" stop-opacity="0"/>
<stop offset="0.0054872" stop-color="#0932A5" stop-opacity="0.01"/>
<stop offset="0.035447" stop-color="#374D8E" stop-opacity="0.047676"/>
<stop offset="0.069212" stop-color="#626779" stop-opacity="0.09309"/>
<stop offset="0.1055" stop-color="#D6E040" stop-opacity="0.1419"/>
<stop offset="0.145" stop-color="#D6E040" stop-opacity="0.195"/>
<stop offset="0.1887" stop-color="#D6E040" stop-opacity="0.2537"/>
<stop offset="0.2379" stop-color="#D6E040" stop-opacity="0.32"/>
<stop offset="0.2955" stop-color="#D6E040" stop-opacity="0.3974"/>
<stop offset="0.3666" stop-color="#D6E040" stop-opacity="0.4931"/>
<stop offset="0.4664" stop-color="#D6E040" stop-opacity="0.6274"/>
<stop offset="0.7435" stop-color="#D6E040"/>
</linearGradient>
<linearGradient id="paint4_linear_2937_2293" x1="511.68" y1="303.105" x2="657.953" y2="286.901" gradientUnits="userSpaceOnUse">
<stop stop-color="#002CAA" stop-opacity="0"/>
<stop offset="0.0054872" stop-color="#0932A5" stop-opacity="0.01"/>
<stop offset="0.035447" stop-color="#374D8E" stop-opacity="0.047676"/>
<stop offset="0.069212" stop-color="#626779" stop-opacity="0.09309"/>
<stop offset="0.1055" stop-color="#887D66" stop-opacity="0.1419"/>
<stop offset="0.145" stop-color="#A89055" stop-opacity="0.195"/>
<stop offset="0.1887" stop-color="#C4A148" stop-opacity="0.2537"/>
<stop offset="0.2379" stop-color="#DAAE3D" stop-opacity="0.32"/>
<stop offset="0.2955" stop-color="#EBB834" stop-opacity="0.3974"/>
<stop offset="0.3666" stop-color="#F6BF2E" stop-opacity="0.4931"/>
<stop offset="0.4664" stop-color="#FDC32B" stop-opacity="0.6274"/>
<stop offset="0.7435" stop-color="#FFC42A"/>
</linearGradient>
</defs>
</svg>
