<svg width="381" height="334" viewBox="0 0 381 334" fill="none" xmlns="http://www.w3.org/2000/svg">
<path d="M339.58 170.631C339.58 172.191 339.58 173.752 339.476 175.312C339.268 181.761 338.747 188.106 337.811 194.347C336.875 200.796 335.523 207.245 333.859 213.382C315.032 282.448 251.894 333.312 176.795 333.312C86.9249 333.312 14.0098 260.397 14.0098 170.527C14.0098 80.6574 86.8209 7.74219 176.795 7.74219C266.768 7.74219 339.58 80.7614 339.58 170.631Z" fill="#3757A7"/>
<path fill-rule="evenodd" clip-rule="evenodd" d="M126.08 73.6149C125.68 72.8149 124.98 72.7149 124.18 73.0149L120.68 74.6149C119.78 75.0149 120.78 76.5149 121.78 78.5149C122.08 79.1149 122.68 79.2149 123.38 78.9149C126.28 77.4149 129.08 82.1149 125.58 83.9149C123.28 85.0149 121.88 83.5149 120.78 81.2149C118.58 76.7149 117.68 76.3149 116.68 76.7149L114.08 78.0149C113.18 78.5149 113.58 79.5149 114.48 81.3149C114.98 82.3149 115.28 82.9149 115.88 82.6149C119.38 80.9149 121.58 85.7149 118.18 87.4149C116.08 88.4149 114.38 86.4149 113.98 84.4149C113.78 83.8149 114.08 83.5149 113.78 82.8149C112.68 80.5149 111.58 79.2149 110.38 79.8149L106.18 81.7149L107.88 85.1149C108.08 85.7149 108.58 85.9149 109.18 85.6149C112.08 84.1149 114.78 88.9149 110.68 90.9149C109.28 91.5149 107.48 91.3149 106.48 89.5149C105.28 87.1149 106.38 86.5149 105.78 84.7149C104.88 83.0149 103.88 83.0149 103.08 83.3149L99.5797 84.9149C98.6797 85.3149 99.6797 86.8149 100.68 88.8149C100.98 89.4149 101.58 89.5149 102.28 89.2149C105.18 87.7149 107.98 92.4149 104.48 94.2149C102.18 95.3149 100.78 93.8149 99.6797 91.5149C97.4797 87.0149 96.5797 86.6149 95.5797 87.0149L92.9797 88.3149C92.0797 88.8149 92.4797 89.8149 93.3797 91.6149C93.8797 92.6149 94.1797 93.2149 94.7797 92.9149C98.2797 91.2149 100.48 96.0149 97.0797 97.7149C94.9797 98.7149 93.2797 96.7149 92.8797 94.7149C92.6797 94.1149 92.9797 93.8149 92.6797 93.1149C91.5797 90.8149 90.4797 89.5149 89.2797 90.1149L85.0797 92.0149L86.7797 95.4149C86.9797 96.0149 87.4797 96.2149 88.0797 95.9149C90.9797 94.4149 93.5797 99.3149 90.1797 100.915C87.5797 102.215 86.1797 99.8149 84.9797 97.3149L83.1797 93.7149C82.8797 93.4149 82.4797 93.3149 82.1797 93.5149L78.6797 95.1149C77.7797 95.5149 78.7797 97.0149 79.7797 99.0149C80.1797 99.6149 80.6797 99.7149 81.3797 99.4149C84.2797 97.9149 87.0797 102.615 83.5797 104.415C81.2797 105.515 79.8797 104.015 78.7797 101.715C76.5797 97.2149 75.6797 96.8149 74.6797 97.2149L72.0797 98.5149C71.1797 99.0149 71.5797 100.015 72.4797 101.815C72.9797 102.815 73.2797 103.415 73.8797 103.115C77.3797 101.415 79.5797 106.215 76.1797 107.915C74.0797 108.915 72.3797 106.915 71.9797 104.915C71.7797 104.315 72.0797 104.015 71.7797 103.315C70.6797 101.015 69.5797 99.7149 68.3797 100.315L64.1797 102.215L65.8797 105.615C66.0797 106.215 66.5797 106.415 67.1797 106.115C70.0797 104.615 72.7797 109.415 68.6797 111.415C67.2797 112.015 65.4797 111.815 64.4797 110.015C63.2797 107.615 64.3797 107.015 63.7797 105.215C62.8797 103.515 61.8797 103.515 61.0797 103.815L57.5797 105.415C56.6797 105.815 57.6797 107.315 58.6797 109.315C58.9797 109.915 59.5797 110.015 60.2797 109.715C63.1797 108.215 65.9797 112.915 62.4797 114.715C60.1797 115.815 58.7797 114.315 57.6797 112.015C55.4797 107.515 54.5797 107.115 53.5797 107.515L50.9797 108.815C50.0797 109.315 50.4797 110.315 51.3797 112.115C51.8797 113.115 52.1797 113.715 52.7797 113.415C56.2797 111.715 58.4797 116.515 55.0797 118.215C52.9797 119.215 51.2797 117.215 50.8797 115.215C50.6797 114.615 50.9797 114.315 50.6797 113.615C49.5797 111.315 48.4797 110.015 47.2797 110.615L43.0797 112.515L44.7797 115.915C44.9797 116.515 45.4797 116.715 46.0797 116.415C48.9797 114.915 51.6797 119.715 47.5797 121.715C45.2797 122.815 43.8797 120.215 43.8797 117.515C43.6797 116.315 43.2797 115.415 42.5797 114.815C41.5797 114.115 40.8797 113.815 39.7797 114.315L36.2797 115.915C35.3797 116.315 36.3797 117.815 37.3797 119.815C37.7797 120.415 38.2797 120.515 38.9797 120.215C41.8797 118.715 44.6797 123.415 41.1797 125.215C38.8797 126.315 37.4797 124.815 36.3797 122.515C34.1797 118.015 33.2797 117.615 32.2797 118.015L29.6797 119.315C28.7797 119.815 29.1797 120.815 30.0797 122.615C30.5797 123.615 30.8797 124.215 31.4797 123.915C34.9797 122.215 37.1797 127.015 33.7797 128.715C31.6797 129.715 29.9797 127.715 29.5797 125.715C29.3797 125.115 29.6797 124.815 29.3797 124.115C28.2797 121.815 27.1797 120.515 25.9797 121.115L21.7797 123.015L23.4797 126.415C23.6797 127.015 24.1797 127.215 24.7797 126.915C27.6797 125.415 30.3797 130.215 26.2797 132.215C24.8797 132.815 23.0797 132.615 22.0797 130.815C20.8797 128.415 21.9797 127.815 21.3797 126.015C20.4797 124.315 19.4797 124.315 18.6797 124.615L15.1797 126.215C14.2797 126.615 15.2797 128.115 16.2797 130.115C16.5797 130.715 17.1797 130.815 17.8797 130.515C20.7797 129.015 23.5797 133.715 20.0797 135.515C17.7797 136.615 16.3797 135.115 15.2797 132.815C13.0797 128.315 12.1797 127.915 11.1797 128.315L8.57968 129.615C7.67968 130.115 8.07968 131.115 8.97968 132.915C9.47968 133.915 9.77968 134.515 10.3797 134.215C13.8797 132.515 16.0797 137.315 12.6797 139.015C10.5797 140.015 8.87968 138.015 8.47968 136.015C8.27968 135.415 8.57969 135.115 8.27969 134.415C7.17969 132.115 6.07968 130.815 4.87968 131.415L0.679688 133.315L2.37968 136.715C2.57968 137.315 3.07969 137.515 3.67969 137.215C6.57969 135.715 9.27969 140.515 5.17969 142.515C4.47969 142.915 3.87968 143.715 3.97968 144.315C4.07968 144.615 4.17968 144.915 4.07968 145.315L84.0797 307.415L210.88 245.715L130.88 83.6149C129.28 80.2149 127.68 76.8149 126.08 73.6149Z" fill="#DCE4E7"/>
<path d="M54.4282 177.993L46.7148 181.797L47.1129 182.604L54.8262 178.8L54.4282 177.993Z" fill="#AFAFAF"/>
<path d="M66.1508 172.274L58.4375 176.078L58.8356 176.885L66.5489 173.082L66.1508 172.274Z" fill="#AFAFAF"/>
<path d="M78.0298 166.368L70.3164 170.172L70.7145 170.979L78.4278 167.175L78.0298 166.368Z" fill="#AFAFAF"/>
<path d="M89.9516 160.552L82.2383 164.355L82.6363 165.163L90.3497 161.359L89.9516 160.552Z" fill="#AFAFAF"/>
<path d="M101.62 154.695L94.0859 158.41L94.484 159.217L102.018 155.502L101.62 154.695Z" fill="#AFAFAF"/>
<path d="M92.2727 169.423L57.6523 186.496L58.0504 187.303L92.6708 170.231L92.2727 169.423Z" fill="#AFAFAF"/>
<path d="M134.197 148.814L99.5762 165.887L99.9742 166.694L134.595 149.621L134.197 148.814Z" fill="#AFAFAF"/>
<path d="M70.204 190.474L54.7773 198.082L55.1754 198.889L70.6021 191.282L70.204 190.474Z" fill="#AFAFAF"/>
<path d="M87.6842 181.831L72.0781 189.527L72.4762 190.335L88.0822 182.639L87.6842 181.831Z" fill="#AFAFAF"/>
<path d="M115.374 168.14L99.7676 175.836L100.166 176.643L115.772 168.947L115.374 168.14Z" fill="#AFAFAF"/>
<path d="M132.878 159.49L117.451 167.098L117.849 167.905L133.276 160.297L132.878 159.49Z" fill="#AFAFAF"/>
<path d="M84.877 193.374L79.2266 196.16L79.6246 196.967L85.2751 194.181L84.877 193.374Z" fill="#AFAFAF"/>
<path d="M94.2517 188.719L88.4219 191.594L88.8199 192.401L94.6498 189.526L94.2517 188.719Z" fill="#AFAFAF"/>
<path d="M103.447 184.155L97.7969 186.941L98.1949 187.749L103.845 184.962L103.447 184.155Z" fill="#AFAFAF"/>
<path d="M112.768 179.585L107.117 182.371L107.515 183.178L113.166 180.392L112.768 179.585Z" fill="#AFAFAF"/>
<path d="M122.345 174.836L116.516 177.711L116.914 178.518L122.744 175.643L122.345 174.836Z" fill="#AFAFAF"/>
<path d="M131.754 170.223L125.924 173.098L126.322 173.905L132.152 171.03L131.754 170.223Z" fill="#AFAFAF"/>
<path d="M140.951 165.659L135.301 168.445L135.699 169.253L141.349 166.466L140.951 165.659Z" fill="#AFAFAF"/>
<path d="M150.358 161.046L144.707 163.832L145.105 164.639L150.756 161.853L150.358 161.046Z" fill="#AFAFAF"/>
<path d="M89.2535 201.253L62.7949 214.301L63.193 215.108L89.6515 202.06L89.2535 201.253Z" fill="#AFAFAF"/>
<path d="M118.043 187.034L91.584 200.082L91.9821 200.889L118.441 187.841L118.043 187.034Z" fill="#AFAFAF"/>
<path d="M146.943 172.765L120.484 185.812L120.882 186.62L147.341 173.572L146.943 172.765Z" fill="#AFAFAF"/>
<path d="M76.3993 217.152L66.623 221.973L67.0211 222.78L76.7973 217.959L76.3993 217.152Z" fill="#AFAFAF"/>
<path d="M89.7391 210.659L79.9629 215.48L80.361 216.288L90.1372 211.467L89.7391 210.659Z" fill="#AFAFAF"/>
<path d="M103.233 203.984L93.457 208.805L93.8551 209.612L103.631 204.791L103.233 203.984Z" fill="#AFAFAF"/>
<path d="M116.618 197.359L106.842 202.18L107.24 202.987L117.016 198.166L116.618 197.359Z" fill="#AFAFAF"/>
<path d="M136.839 187.408L127.242 192.141L127.64 192.948L137.237 188.215L136.839 187.408Z" fill="#AFAFAF"/>
<path d="M150.425 180.685L140.828 185.418L141.226 186.225L150.823 181.493L150.425 180.685Z" fill="#AFAFAF"/>
<path d="M88.8322 221.405L70.7148 230.34L71.1129 231.147L89.2303 222.213L88.8322 221.405Z" fill="#AFAFAF"/>
<path d="M124.031 204.067L105.734 213.09L106.132 213.897L124.429 204.874L124.031 204.067Z" fill="#AFAFAF"/>
<path d="M159.121 186.778L140.555 195.934L140.953 196.741L159.519 187.585L159.121 186.778Z" fill="#AFAFAF"/>
<path d="M124.997 213.403L95.8477 227.777L96.2457 228.585L125.395 214.21L124.997 213.403Z" fill="#AFAFAF"/>
<path d="M160.489 195.922L131.07 210.43L131.468 211.237L160.887 196.729L160.489 195.922Z" fill="#AFAFAF"/>
<path d="M150.206 211.36L94.957 238.605L95.3551 239.413L150.604 212.167L150.206 211.36Z" fill="#AFAFAF"/>
<path d="M116.508 238.078L103.145 244.668L103.543 245.475L116.906 238.885L116.508 238.078Z" fill="#AFAFAF"/>
<path d="M132.813 230.054L119.449 236.645L119.847 237.452L133.211 230.861L132.813 230.054Z" fill="#AFAFAF"/>
<path d="M149.026 222.078L135.662 228.668L136.06 229.475L149.424 222.885L149.026 222.078Z" fill="#AFAFAF"/>
<path d="M165.329 214.058L151.965 220.648L152.363 221.456L165.727 214.865L165.329 214.058Z" fill="#AFAFAF"/>
<path d="M135.083 239.028L89.8789 261.32L90.277 262.128L135.481 239.836L135.083 239.028Z" fill="#AFAFAF"/>
<path d="M161.573 225.954L137.178 237.984L137.576 238.792L161.971 226.761L161.573 225.954Z" fill="#AFAFAF"/>
<path d="M118.231 257.417L100.113 266.352L100.511 267.159L118.629 258.224L118.231 257.417Z" fill="#AFAFAF"/>
<path d="M128.354 252.484L120.82 256.199L121.218 257.006L128.752 253.291L128.354 252.484Z" fill="#AFAFAF"/>
<path d="M136.866 248.3L129.332 252.016L129.73 252.823L137.264 249.108L136.866 248.3Z" fill="#AFAFAF"/>
<path d="M145.152 244.119L138.066 247.613L138.464 248.42L145.55 244.926L145.152 244.119Z" fill="#AFAFAF"/>
<path d="M153.932 239.804L146.398 243.52L146.797 244.327L154.33 240.611L153.932 239.804Z" fill="#AFAFAF"/>
<path d="M162.183 235.804L154.918 239.387L155.316 240.194L162.581 236.611L162.183 235.804Z" fill="#AFAFAF"/>
<path d="M170.773 231.529L163.688 235.023L164.086 235.831L171.171 232.336L170.773 231.529Z" fill="#AFAFAF"/>
<path d="M179.553 227.214L172.02 230.93L172.418 231.737L179.952 228.022L179.553 227.214Z" fill="#AFAFAF"/>
<path d="M139.269 256.967L123.035 264.973L123.433 265.78L139.667 257.774L139.269 256.967Z" fill="#AFAFAF"/>
<path d="M158.648 247.362L142.414 255.367L142.812 256.174L159.046 248.169L158.648 247.362Z" fill="#AFAFAF"/>
<path d="M177.535 237.994L161.301 246L161.699 246.807L177.933 238.802L177.535 237.994Z" fill="#AFAFAF"/>
<path d="M146.304 263.314L115.271 278.617L115.67 279.424L146.702 264.121L146.304 263.314Z" fill="#AFAFAF"/>
<path d="M187.818 242.819L176.338 248.48L176.736 249.288L188.216 243.626L187.818 242.819Z" fill="#AFAFAF"/>
<path fill-rule="evenodd" clip-rule="evenodd" d="M203.48 20.4148C203.38 19.5148 202.78 19.2148 201.98 19.2148L198.28 19.5148C197.38 19.6148 197.78 21.3148 197.98 23.4148C198.08 24.1148 198.48 24.4148 199.28 24.3148C202.38 24.0148 203.28 29.1148 199.58 29.5148C197.18 29.7148 196.38 27.9148 196.18 25.4148C195.68 20.6148 195.08 19.9148 193.98 20.0148L191.28 20.3148C190.28 20.4148 190.28 21.5148 190.48 23.4148C190.58 24.5148 190.68 25.1148 191.28 25.0148C194.98 24.6148 195.28 29.7148 191.78 30.1148C189.58 30.3148 188.78 27.9148 189.08 26.0148C189.08 25.4148 189.48 25.2148 189.48 24.5148C189.28 22.1148 188.68 20.5148 187.48 20.7148L183.08 21.0148L183.48 24.6148C183.48 25.2148 183.78 25.6148 184.48 25.5148C187.58 25.2148 188.48 30.3148 183.98 30.8148C182.58 30.9148 180.98 30.1148 180.68 28.1148C180.38 25.5148 181.68 25.4148 181.68 23.6148C181.48 21.7148 180.58 21.4148 179.68 21.5148L175.98 21.8148C175.08 21.9148 175.48 23.6148 175.68 25.7148C175.78 26.4148 176.18 26.7148 176.98 26.6148C180.08 26.3148 180.98 31.4148 177.28 31.8148C174.88 32.0148 174.08 30.2148 173.88 27.7148C173.38 22.9148 172.78 22.2148 171.68 22.3148L168.98 22.6148C167.98 22.7148 167.98 23.8148 168.18 25.7148C168.28 26.8148 168.38 27.4148 168.98 27.3148C172.68 26.9148 172.98 32.0148 169.48 32.4148C167.28 32.6148 166.48 30.2148 166.78 28.3148C166.78 27.7148 167.18 27.5148 167.18 26.8148C166.98 24.4148 166.38 22.8148 165.18 23.0148L160.78 23.3148L161.18 26.9148C161.18 27.5148 161.48 27.9148 162.18 27.8148C165.28 27.5148 165.98 32.7148 162.38 33.0148C159.68 33.3148 159.18 30.6148 158.88 28.0148L158.48 24.2148C158.28 23.8148 157.98 23.6148 157.68 23.7148L153.98 24.0148C153.08 24.1148 153.48 25.8148 153.68 27.9148C153.78 28.6148 154.18 28.9148 154.98 28.8148C158.08 28.5148 158.98 33.6148 155.28 34.0148C152.88 34.2148 152.08 32.4148 151.88 29.9148C151.38 25.1148 150.78 24.4148 149.68 24.5148L146.98 24.8148C145.98 24.9148 145.98 26.0148 146.18 27.9148C146.28 29.0148 146.38 29.6148 146.98 29.5148C150.68 29.1148 150.98 34.2148 147.48 34.6148C145.28 34.8148 144.48 32.4148 144.78 30.5148C144.78 29.9148 145.18 29.7148 145.18 29.0148C144.98 26.6148 144.38 25.0148 143.18 25.2148L138.78 25.5148L139.18 29.1148C139.18 29.7148 139.48 30.1148 140.18 30.0148C143.28 29.7148 144.18 34.8148 139.68 35.3148C138.28 35.4148 136.68 34.6148 136.38 32.6148C136.08 30.0148 137.38 29.9148 137.38 28.1148C137.18 26.2148 136.28 25.9148 135.38 26.0148L131.68 26.3148C130.78 26.4148 131.18 28.1148 131.38 30.2148C131.48 30.9148 131.88 31.2148 132.68 31.1148C135.78 30.8148 136.68 35.9148 132.98 36.3148C130.58 36.5148 129.78 34.7148 129.58 32.2148C129.08 27.4148 128.48 26.7148 127.38 26.8148L124.68 27.1148C123.68 27.2148 123.68 28.3148 123.88 30.2148C123.98 31.3148 124.08 31.9148 124.68 31.8148C128.38 31.4148 128.68 36.5148 125.18 36.9148C122.98 37.1148 122.18 34.7148 122.48 32.8148C122.48 32.2148 122.88 32.0148 122.88 31.3148C122.68 28.9148 122.08 27.3148 120.88 27.5148L116.48 27.8148L116.88 31.4148C116.88 32.0148 117.18 32.4148 117.88 32.3148C120.98 32.0148 121.88 37.1148 117.38 37.6148C114.98 37.8148 114.58 35.0148 115.48 32.6148C115.78 31.4148 115.68 30.5148 115.28 29.8148C114.58 28.8148 114.08 28.4148 112.88 28.4148L109.18 28.7148C108.28 28.8148 108.68 30.5148 108.88 32.6148C108.98 33.3148 109.38 33.6148 110.18 33.5148C113.28 33.2148 114.18 38.3148 110.48 38.7148C108.08 38.9148 107.28 37.1148 107.08 34.6148C106.58 29.8148 105.98 29.1148 104.88 29.2148L102.18 29.5148C101.18 29.6148 101.18 30.7148 101.38 32.6148C101.48 33.7148 101.58 34.3148 102.18 34.2148C105.88 33.8148 106.18 38.9148 102.68 39.3148C100.48 39.5148 99.6797 37.1148 99.9797 35.2148C99.9797 34.6148 100.38 34.4148 100.38 33.7148C100.18 31.3148 99.5797 29.7148 98.3797 29.9148L93.9797 30.2148L94.3797 33.8148C94.3797 34.4148 94.6797 34.8148 95.3797 34.7148C98.4797 34.4148 99.3797 39.5148 94.8797 40.0148C93.4797 40.1148 91.8797 39.3148 91.5797 37.3148C91.2797 34.7148 92.5797 34.6148 92.5797 32.8148C92.3797 30.9148 91.4797 30.6148 90.5797 30.7148L86.8797 31.0148C85.9797 31.1148 86.3797 32.8148 86.5797 34.9148C86.6797 35.6148 87.0797 35.9148 87.8797 35.8148C90.9797 35.5148 91.8797 40.6148 88.1797 41.0148C85.7797 41.2148 84.9797 39.4148 84.7797 36.9148C84.2797 32.1148 83.6797 31.4148 82.5797 31.5148L79.8797 31.8148C78.8797 31.9148 78.8797 33.0148 79.0797 34.9148C79.1797 36.0148 79.2797 36.6148 79.8797 36.5148C83.5797 36.1148 83.8797 41.2148 80.3797 41.6148C78.1797 41.8148 77.3797 39.4148 77.6797 37.5148C77.6797 36.9148 78.0797 36.7148 78.0797 36.0148C77.8797 33.6148 77.2797 32.0148 76.0797 32.2148L71.6797 32.5148L72.0797 36.1148C72.0797 36.7148 72.3797 37.1148 73.0797 37.0148C76.1797 36.7148 77.0797 41.8148 72.5797 42.3148C71.8797 42.4148 70.9797 42.9148 70.8797 43.5148C70.8797 43.8148 70.7797 44.1148 70.6797 44.4148L87.5797 216.815L222.38 203.615L205.48 31.2148C204.18 27.4148 203.78 23.8148 203.48 20.4148Z" fill="#E2E2E2"/>
<path d="M103.931 89.8308L95.7695 90.6289L95.8571 91.5247L104.019 90.7266L103.931 89.8308Z" fill="#AFAFAF"/>
<path d="M116.322 88.53L108.16 89.3281L108.248 90.2239L116.409 89.4258L116.322 88.53Z" fill="#AFAFAF"/>
<path d="M129.027 87.323L120.865 88.1211L120.953 89.0169L129.114 88.2188L129.027 87.323Z" fill="#AFAFAF"/>
<path d="M141.63 86.1277L133.469 86.9258L133.556 87.8216L141.718 87.0234L141.63 86.1277Z" fill="#AFAFAF"/>
<path d="M154.025 84.8386L146.062 85.6172L146.15 86.513L154.112 85.7343L154.025 84.8386Z" fill="#AFAFAF"/>
<path d="M140.76 94.9262L103.934 98.5273L104.021 99.4231L140.847 95.822L140.76 94.9262Z" fill="#AFAFAF"/>
<path d="M185.357 90.52L148.531 94.1211L148.619 95.0169L185.445 91.4157L185.357 90.52Z" fill="#AFAFAF"/>
<path d="M113.903 106.222L97.4805 107.828L97.5681 108.724L113.991 107.118L113.903 106.222Z" fill="#AFAFAF"/>
<path d="M132.504 104.414L115.883 106.039L115.97 106.935L132.592 105.309L132.504 104.414Z" fill="#AFAFAF"/>
<path d="M162.002 101.511L145.381 103.137L145.468 104.032L162.09 102.407L162.002 101.511Z" fill="#AFAFAF"/>
<path d="M180.608 99.7222L164.186 101.328L164.273 102.224L180.696 100.618L180.608 99.7222Z" fill="#AFAFAF"/>
<path d="M126.034 113.834L120.062 114.418L120.15 115.314L126.122 114.73L126.034 113.834Z" fill="#AFAFAF"/>
<path d="M135.931 112.83L129.76 113.434L129.847 114.329L136.018 113.726L135.931 112.83Z" fill="#AFAFAF"/>
<path d="M145.728 111.838L139.756 112.422L139.843 113.318L145.815 112.734L145.728 111.838Z" fill="#AFAFAF"/>
<path d="M155.735 110.932L149.764 111.516L149.851 112.411L155.823 111.827L155.735 110.932Z" fill="#AFAFAF"/>
<path d="M165.935 109.92L159.764 110.523L159.851 111.419L166.022 110.816L165.935 109.92Z" fill="#AFAFAF"/>
<path d="M175.833 108.928L169.662 109.531L169.75 110.427L175.921 109.824L175.833 108.928Z" fill="#AFAFAF"/>
<path d="M185.63 107.936L179.658 108.52L179.746 109.415L185.718 108.831L185.63 107.936Z" fill="#AFAFAF"/>
<path d="M195.638 107.033L189.666 107.617L189.754 108.513L195.725 107.929L195.638 107.033Z" fill="#AFAFAF"/>
<path d="M127.384 122.445L99.2168 125.199L99.3044 126.095L127.471 123.341L127.384 122.445Z" fill="#AFAFAF"/>
<path d="M157.884 119.453L129.717 122.207L129.804 123.103L157.971 120.348L157.884 119.453Z" fill="#AFAFAF"/>
<path d="M188.776 116.343L160.609 119.098L160.697 119.993L188.864 117.239L188.776 116.343Z" fill="#AFAFAF"/>
<path d="M110.417 132.314L99.9668 133.336L100.054 134.232L110.505 133.21L110.417 132.314Z" fill="#AFAFAF"/>
<path d="M124.617 130.912L114.166 131.934L114.254 132.829L124.704 131.807L124.617 130.912Z" fill="#AFAFAF"/>
<path d="M139.019 129.513L128.568 130.535L128.656 131.431L139.107 130.409L139.019 129.513Z" fill="#AFAFAF"/>
<path d="M153.218 128.111L142.768 129.133L142.855 130.029L153.306 129.007L153.218 128.111Z" fill="#AFAFAF"/>
<path d="M174.621 126.035L164.469 127.027L164.556 127.923L174.708 126.93L174.621 126.035Z" fill="#AFAFAF"/>
<path d="M189.023 124.632L178.871 125.625L178.959 126.521L189.111 125.528L189.023 124.632Z" fill="#AFAFAF"/>
<path d="M120.104 140.385L100.795 142.273L100.883 143.169L120.191 141.281L120.104 140.385Z" fill="#AFAFAF"/>
<path d="M157.6 136.67L138.092 138.578L138.179 139.474L157.687 137.566L157.6 136.67Z" fill="#AFAFAF"/>
<path d="M194.805 133.065L175.098 134.992L175.185 135.888L194.892 133.961L194.805 133.065Z" fill="#AFAFAF"/>
<path d="M155.274 145.413L124.221 148.449L124.308 149.345L155.362 146.308L155.274 145.413Z" fill="#AFAFAF"/>
<path d="M192.973 141.702L161.721 144.758L161.808 145.654L193.061 142.597L192.973 141.702Z" fill="#AFAFAF"/>
<path d="M178.506 152.062L119.783 157.805L119.871 158.7L178.593 152.958L178.506 152.062Z" fill="#AFAFAF"/>
<path d="M139.311 164.632L125.078 166.023L125.166 166.919L139.399 165.527L139.311 164.632Z" fill="#AFAFAF"/>
<path d="M156.612 162.932L142.379 164.324L142.467 165.22L156.699 163.828L156.612 162.932Z" fill="#AFAFAF"/>
<path d="M173.911 161.229L159.678 162.621L159.765 163.517L173.998 162.125L173.911 161.229Z" fill="#AFAFAF"/>
<path d="M191.211 159.53L176.979 160.922L177.066 161.818L191.299 160.426L191.211 159.53Z" fill="#AFAFAF"/>
<path d="M155.634 171.78L107.561 176.48L107.648 177.376L155.721 172.675L155.634 171.78Z" fill="#AFAFAF"/>
<path d="M183.79 169.061L157.812 171.602L157.9 172.497L183.877 169.957L183.79 169.061Z" fill="#AFAFAF"/>
<path d="M134.301 182.588L114.992 184.477L115.08 185.372L134.389 183.484L134.301 182.588Z" fill="#AFAFAF"/>
<path d="M144.927 181.542L136.965 182.32L137.052 183.216L145.015 182.437L144.927 181.542Z" fill="#AFAFAF"/>
<path d="M154.027 180.643L146.064 181.422L146.152 182.318L154.114 181.539L154.027 180.643Z" fill="#AFAFAF"/>
<path d="M162.926 179.76L155.361 180.5L155.449 181.396L163.013 180.656L162.926 179.76Z" fill="#AFAFAF"/>
<path d="M172.224 178.839L164.262 179.617L164.349 180.513L172.312 179.734L172.224 178.839Z" fill="#AFAFAF"/>
<path d="M181.132 178.046L173.369 178.805L173.457 179.7L181.22 178.941L181.132 178.046Z" fill="#AFAFAF"/>
<path d="M190.234 177.155L182.67 177.895L182.758 178.79L190.322 178.051L190.234 177.155Z" fill="#AFAFAF"/>
<path d="M199.433 176.245L191.471 177.023L191.558 177.919L199.521 177.141L199.433 176.245Z" fill="#AFAFAF"/>
<path d="M153.301 189.185L135.982 190.879L136.07 191.775L153.388 190.081L153.301 189.185Z" fill="#AFAFAF"/>
<path d="M174.004 187.178L156.686 188.871L156.773 189.767L174.091 188.073L174.004 187.178Z" fill="#AFAFAF"/>
<path d="M194.111 185.283L176.793 186.977L176.881 187.872L194.199 186.179L194.111 185.283Z" fill="#AFAFAF"/>
<path d="M157.468 197.316L124.424 200.547L124.511 201.443L157.555 198.211L157.468 197.316Z" fill="#AFAFAF"/>
<path d="M201.522 193.039L189.379 194.227L189.467 195.122L201.609 193.935L201.522 193.039Z" fill="#AFAFAF"/>
<path fill-rule="evenodd" clip-rule="evenodd" d="M200.88 1.41403C200.68 0.514027 199.98 0.314027 199.28 0.414027L195.68 1.11402C194.78 1.31402 195.38 2.91403 195.88 5.01403C196.08 5.61403 196.48 5.91402 197.28 5.71402C200.38 5.01402 201.88 10.014 198.18 10.814C195.78 11.314 194.88 9.61402 194.28 7.21402C193.18 2.51402 192.48 1.91402 191.48 2.11402L188.78 2.71402C187.78 2.91402 187.98 4.01402 188.38 5.81402C188.58 6.91402 188.78 7.41402 189.38 7.31402C192.98 6.51402 193.98 11.514 190.48 12.314C188.28 12.814 187.18 10.514 187.28 8.61402C187.18 8.01402 187.58 7.81402 187.48 7.11402C186.98 4.71402 186.28 3.31402 184.98 3.61402L180.58 4.51403L181.38 8.01403C181.48 8.61403 181.88 8.91402 182.48 8.81402C185.58 8.11402 186.98 13.114 182.68 14.114C181.28 14.414 179.68 13.714 179.08 11.914C178.48 9.41403 179.68 9.11402 179.48 7.31402C178.98 5.51402 178.08 5.31403 177.28 5.41403L173.68 6.11402C172.78 6.31402 173.38 7.91403 173.88 10.014C174.08 10.614 174.48 10.914 175.28 10.714C178.38 10.014 179.88 15.014 176.18 15.814C173.78 16.314 172.88 14.614 172.28 12.214C171.18 7.51402 170.48 6.91402 169.48 7.11402L166.78 7.71402C165.78 7.91402 165.98 9.01402 166.38 10.814C166.58 11.914 166.78 12.414 167.38 12.314C170.98 11.514 171.98 16.514 168.48 17.314C166.28 17.814 165.18 15.514 165.28 13.614C165.18 13.014 165.58 12.814 165.48 12.114C164.98 9.71402 164.28 8.31402 162.98 8.61402L158.58 9.51403L159.38 13.014C159.48 13.614 159.88 13.914 160.48 13.814C163.58 13.114 164.78 18.214 161.28 19.014C158.58 19.614 157.78 17.114 157.18 14.514L156.28 10.814C155.98 10.414 155.78 10.314 155.38 10.414L151.78 11.114C150.88 11.314 151.48 12.914 151.98 15.014C152.18 15.614 152.58 15.914 153.38 15.714C156.48 15.014 157.98 20.014 154.28 20.814C151.88 21.314 150.98 19.614 150.38 17.214C149.28 12.514 148.58 11.914 147.58 12.114L144.88 12.714C143.88 12.914 144.08 14.014 144.48 15.814C144.68 16.914 144.88 17.414 145.48 17.314C149.08 16.514 150.08 21.514 146.58 22.314C144.38 22.814 143.28 20.514 143.38 18.614C143.28 18.014 143.68 17.814 143.58 17.114C143.08 14.714 142.38 13.314 141.08 13.614L136.68 14.514L137.48 18.014C137.58 18.614 137.98 18.914 138.58 18.814C141.68 18.114 143.08 23.114 138.78 24.114C137.38 24.414 135.78 23.714 135.18 21.914C134.58 19.414 135.78 19.114 135.58 17.314C135.08 15.514 134.18 15.314 133.38 15.414L129.78 16.114C128.88 16.314 129.48 17.914 129.98 20.014C130.18 20.614 130.58 20.914 131.38 20.714C134.48 20.014 135.98 25.014 132.28 25.814C129.88 26.314 128.98 24.614 128.38 22.214C127.28 17.514 126.58 16.914 125.58 17.114L122.88 17.714C121.88 17.914 122.08 19.014 122.48 20.814C122.68 21.914 122.88 22.414 123.48 22.314C127.08 21.514 128.08 26.514 124.58 27.314C122.38 27.814 121.28 25.514 121.38 23.614C121.28 23.014 121.68 22.814 121.58 22.114C121.08 19.714 120.38 18.314 119.08 18.614L114.68 19.514L115.48 23.014C115.58 23.614 115.98 23.914 116.58 23.814C119.68 23.114 121.08 28.114 116.78 29.114C114.38 29.614 113.68 26.914 114.28 24.314C114.38 23.114 114.18 22.214 113.68 21.514C112.88 20.614 112.28 20.214 111.18 20.414L107.58 21.114C106.68 21.314 107.28 22.914 107.78 25.014C107.98 25.614 108.38 25.914 109.18 25.714C112.28 25.014 113.78 30.014 110.08 30.814C107.68 31.314 106.78 29.614 106.18 27.214C105.08 22.514 104.38 21.914 103.38 22.114L100.68 22.714C99.6805 22.914 99.8805 24.014 100.28 25.814C100.48 26.914 100.68 27.414 101.28 27.314C104.88 26.514 105.88 31.514 102.38 32.314C100.18 32.814 99.0805 30.514 99.1805 28.614C99.0805 28.014 99.4805 27.814 99.3805 27.114C98.8805 24.714 98.1805 23.314 96.8805 23.614L92.4805 24.514L93.2805 28.014C93.3805 28.614 93.7805 28.914 94.3805 28.814C97.4805 28.114 98.8805 33.114 94.5805 34.114C93.1805 34.414 91.5805 33.714 90.9805 31.914C90.3805 29.414 91.5805 29.114 91.3805 27.314C90.8805 25.514 89.9805 25.314 89.1805 25.414L85.5805 26.114C84.6805 26.314 85.2805 27.914 85.7805 30.014C85.9805 30.614 86.3805 30.914 87.1805 30.714C90.2805 30.014 91.7805 35.014 88.0805 35.814C85.6805 36.314 84.7805 34.614 84.1805 32.214C83.0805 27.514 82.3805 26.914 81.3805 27.114L78.6805 27.714C77.6805 27.914 77.8805 29.014 78.2805 30.814C78.4805 31.914 78.6805 32.414 79.2805 32.314C82.8805 31.514 83.8805 36.514 80.3805 37.314C78.1805 37.814 77.0805 35.514 77.1805 33.614C77.0805 33.014 77.4805 32.814 77.3805 32.114C76.8805 29.714 76.1805 28.314 74.8805 28.614L70.4805 29.514L71.2805 33.014C71.3805 33.614 71.7805 33.914 72.3805 33.814C75.4805 33.114 76.8805 38.114 72.5805 39.114C71.8805 39.314 71.0805 39.914 71.0805 40.514C71.0805 40.814 71.0805 41.114 70.9805 41.514L109.38 210.514L241.48 180.514L203.08 11.514C202.48 8.31403 201.68 4.81403 200.88 1.41403Z" fill="#F3F4F4"/>
<path d="M110.778 82.7158L102.781 84.5312L102.981 85.4089L110.977 83.5934L110.778 82.7158Z" fill="#AFAFAF"/>
<path d="M123.09 79.9918L114.898 81.8516L115.098 82.7292L123.289 80.8695L123.09 79.9918Z" fill="#AFAFAF"/>
<path d="M135.397 77.2119L127.4 79.0273L127.6 79.905L135.596 78.0895L135.397 77.2119Z" fill="#AFAFAF"/>
<path d="M147.694 74.4111L139.697 76.2266L139.897 77.1043L147.893 75.2888L147.694 74.4111Z" fill="#AFAFAF"/>
<path d="M159.999 71.6311L152.197 73.4023L152.397 74.28L160.198 72.5088L159.999 71.6311Z" fill="#AFAFAF"/>
<path d="M148.031 83.3173L111.852 91.5312L112.051 92.4089L148.231 84.195L148.031 83.3173Z" fill="#AFAFAF"/>
<path d="M191.735 73.4072L155.555 81.6211L155.754 82.4988L191.934 74.2848L191.735 73.4072Z" fill="#AFAFAF"/>
<path d="M122.675 97.915L106.584 101.566L106.783 102.444L122.874 98.7926L122.675 97.915Z" fill="#AFAFAF"/>
<path d="M140.973 93.6711L124.59 97.3906L124.789 98.2683L141.172 94.5488L140.973 93.6711Z" fill="#AFAFAF"/>
<path d="M169.885 87.1633L153.502 90.8828L153.701 91.7605L170.085 88.041L169.885 87.1633Z" fill="#AFAFAF"/>
<path d="M188.179 82.9758L172.088 86.6289L172.287 87.5066L188.378 83.8535L188.179 82.9758Z" fill="#AFAFAF"/>
<path d="M135.81 103.859L129.959 105.188L130.158 106.065L136.009 104.737L135.81 103.859Z" fill="#AFAFAF"/>
<path d="M145.521 101.721L139.475 103.094L139.674 103.971L145.72 102.599L145.521 101.721Z" fill="#AFAFAF"/>
<path d="M155.125 99.5466L149.273 100.875L149.473 101.753L155.324 100.424L155.125 99.5466Z" fill="#AFAFAF"/>
<path d="M164.908 97.2497L159.057 98.5781L159.256 99.4558L165.107 98.1274L164.908 97.2497Z" fill="#AFAFAF"/>
<path d="M174.915 95.0258L168.869 96.3984L169.068 97.2761L175.115 95.9034L174.915 95.0258Z" fill="#AFAFAF"/>
<path d="M184.716 92.8057L178.475 94.2227L178.674 95.1003L184.915 93.6834L184.716 92.8057Z" fill="#AFAFAF"/>
<path d="M194.117 90.656L188.266 91.9844L188.465 92.8621L194.316 91.5337L194.117 90.656Z" fill="#AFAFAF"/>
<path d="M203.923 88.4568L198.072 89.7852L198.272 90.6628L204.123 89.3344L203.923 88.4568Z" fill="#AFAFAF"/>
<path d="M138.043 112.199L110.445 118.465L110.645 119.343L138.243 113.077L138.043 112.199Z" fill="#AFAFAF"/>
<path d="M168.042 105.387L140.443 111.652L140.643 112.53L168.241 106.264L168.042 105.387Z" fill="#AFAFAF"/>
<path d="M198.231 98.4909L170.73 104.734L170.93 105.612L198.43 99.3686L198.231 98.4909Z" fill="#AFAFAF"/>
<path d="M122.462 124.166L112.32 126.469L112.52 127.346L122.662 125.044L122.462 124.166Z" fill="#AFAFAF"/>
<path d="M136.353 120.967L126.211 123.27L126.41 124.147L136.552 121.845L136.353 120.967Z" fill="#AFAFAF"/>
<path d="M150.654 117.739L140.316 120.086L140.516 120.964L150.853 118.617L150.654 117.739Z" fill="#AFAFAF"/>
<path d="M164.566 114.638L154.229 116.984L154.428 117.862L164.765 115.515L164.566 114.638Z" fill="#AFAFAF"/>
<path d="M185.553 109.785L175.605 112.043L175.805 112.921L185.752 110.662L185.553 109.785Z" fill="#AFAFAF"/>
<path d="M199.674 106.679L189.727 108.938L189.926 109.815L199.873 107.557L199.674 106.679Z" fill="#AFAFAF"/>
<path d="M133.239 130.861L114.32 135.156L114.52 136.034L133.438 131.739L133.239 130.861Z" fill="#AFAFAF"/>
<path d="M169.942 122.543L150.828 126.883L151.027 127.76L170.141 123.421L169.942 122.543Z" fill="#AFAFAF"/>
<path d="M206.451 114.309L187.045 118.715L187.244 119.593L206.651 115.187L206.451 114.309Z" fill="#AFAFAF"/>
<path d="M168.801 131.441L138.277 138.371L138.477 139.249L169 132.319L168.801 131.441Z" fill="#AFAFAF"/>
<path d="M205.59 123.044L174.969 129.996L175.168 130.874L205.789 123.922L205.59 123.044Z" fill="#AFAFAF"/>
<path d="M192.552 135.203L135.016 148.266L135.215 149.143L192.752 136.081L192.552 135.203Z" fill="#AFAFAF"/>
<path d="M155.424 152.623L141.479 155.789L141.633 156.472L155.579 153.306L155.424 152.623Z" fill="#AFAFAF"/>
<path d="M172.334 148.83L158.389 151.996L158.544 152.679L172.489 149.513L172.334 148.83Z" fill="#AFAFAF"/>
<path d="M189.342 145.014L175.396 148.18L175.551 148.862L189.497 145.696L189.342 145.014Z" fill="#AFAFAF"/>
<path d="M206.231 141.123L192.285 144.289L192.44 144.972L206.386 141.806L206.231 141.123Z" fill="#AFAFAF"/>
<path d="M172.401 157.663L125.201 168.379L125.4 169.257L172.6 158.541L172.401 157.663Z" fill="#AFAFAF"/>
<path d="M200.062 151.319L174.609 157.098L174.809 157.975L200.261 152.197L200.062 151.319Z" fill="#AFAFAF"/>
<path d="M152.661 171.06L133.742 175.355L133.897 176.038L152.816 171.743L152.661 171.06Z" fill="#AFAFAF"/>
<path d="M163.114 168.729L155.312 170.5L155.467 171.183L163.269 169.411L163.114 168.729Z" fill="#AFAFAF"/>
<path d="M171.913 166.735L164.209 168.484L164.364 169.167L172.068 167.418L171.913 166.735Z" fill="#AFAFAF"/>
<path d="M180.625 164.781L173.311 166.441L173.466 167.124L180.78 165.464L180.625 164.781Z" fill="#AFAFAF"/>
<path d="M189.622 162.741L181.82 164.512L181.975 165.194L189.777 163.423L189.622 162.741Z" fill="#AFAFAF"/>
<path d="M198.52 160.724L190.816 162.473L190.971 163.155L198.675 161.406L198.52 160.724Z" fill="#AFAFAF"/>
<path d="M207.318 158.691L200.004 160.352L200.159 161.034L207.473 159.374L207.318 158.691Z" fill="#AFAFAF"/>
<path d="M216.413 156.627L208.611 158.398L208.766 159.081L216.568 157.31L216.413 156.627Z" fill="#AFAFAF"/>
<path d="M172.383 175.28L155.414 179.133L155.613 180.01L172.582 176.158L172.383 175.28Z" fill="#AFAFAF"/>
<path d="M192.476 170.687L175.508 174.539L175.707 175.417L192.676 171.564L192.476 170.687Z" fill="#AFAFAF"/>
<path d="M212.275 166.187L195.307 170.039L195.506 170.917L212.474 167.064L212.275 166.187Z" fill="#AFAFAF"/>
<path d="M177.387 182.754L145.107 190.082L145.307 190.96L177.586 183.631L177.387 182.754Z" fill="#AFAFAF"/>
<path d="M220.632 172.873L208.734 175.574L208.934 176.452L220.831 173.751L220.632 172.873Z" fill="#AFAFAF"/>
<path fill-rule="evenodd" clip-rule="evenodd" d="M69.1798 53.714C68.6798 53.714 68.7798 54.414 69.1798 54.414L88.4798 53.914C93.1798 53.714 92.5798 47.414 88.1798 47.614L64.8798 48.214C60.3798 48.414 59.7798 55.814 65.1798 55.614L70.8798 55.414L70.7797 54.714L65.4798 54.914C60.7798 55.114 61.0798 49.014 65.2797 48.914L87.5798 48.314C91.8798 48.114 92.3798 53.114 87.7798 53.314L69.1798 53.714Z" fill="#596273"/>
<path fill-rule="evenodd" clip-rule="evenodd" d="M327.578 111.713C327.878 110.713 327.378 110.113 326.578 109.813L322.678 108.513C321.678 108.213 321.378 110.113 320.678 112.313C320.478 113.013 320.778 113.513 321.578 113.813C324.878 114.813 323.678 120.513 319.578 119.213C316.978 118.413 316.978 116.213 317.878 113.513C319.478 108.413 319.078 107.413 317.978 107.013L314.978 106.113C313.978 105.813 313.478 106.913 312.878 108.913C312.478 110.113 312.378 110.713 312.978 110.913C316.978 112.113 315.078 117.513 311.278 116.313C308.878 115.613 309.078 112.713 310.178 110.913C310.378 110.313 310.978 110.313 311.178 109.513C311.978 106.913 312.078 105.113 310.778 104.713L306.078 103.113L304.878 107.013C304.578 107.713 304.778 108.113 305.478 108.413C308.778 109.413 307.478 115.113 302.678 113.613C301.178 113.113 299.978 111.613 300.478 109.413C301.278 106.613 302.678 107.013 303.478 105.213C304.078 103.213 303.278 102.513 302.378 102.213L298.478 100.913C297.478 100.613 297.178 102.513 296.478 104.713C296.278 105.413 296.578 105.913 297.378 106.213C300.678 107.213 299.478 112.913 295.378 111.613C292.778 110.813 292.778 108.613 293.678 105.913C295.278 100.813 294.878 99.8133 293.778 99.4133L290.778 98.5133C289.778 98.2133 289.278 99.3133 288.678 101.313C288.278 102.513 288.178 103.113 288.778 103.313C292.778 104.513 290.878 109.913 287.078 108.713C284.678 108.013 284.878 105.113 285.978 103.313C286.178 102.713 286.778 102.713 286.978 101.913C287.778 99.3133 287.878 97.5133 286.578 97.1133L281.878 95.5133L280.678 99.4133C280.378 100.113 280.578 100.513 281.278 100.813C284.578 101.813 283.078 107.413 279.178 106.313C276.278 105.413 276.878 102.513 277.778 99.7133L279.078 95.6133C279.078 95.1133 278.778 94.8133 278.478 94.7133L274.578 93.4133C273.578 93.1133 273.278 95.0133 272.578 97.2133C272.378 97.9133 272.678 98.4133 273.478 98.7133C276.778 99.7133 275.578 105.413 271.478 104.113C268.878 103.313 268.878 101.113 269.778 98.4133C271.378 93.3133 270.978 92.3133 269.878 91.9133L266.978 91.0133C265.978 90.7133 265.478 91.8133 264.878 93.8133C264.478 95.0133 264.378 95.6133 264.978 95.8133C268.978 97.0133 267.078 102.413 263.278 101.213C260.878 100.513 261.078 97.6133 262.178 95.8133C262.378 95.2133 262.978 95.2133 263.178 94.4133C263.978 91.8133 264.078 90.0133 262.778 89.6133L258.078 88.0133L256.878 91.9133C256.578 92.6133 256.778 93.0133 257.478 93.3133C260.778 94.3133 259.478 100.013 254.678 98.5133C253.178 98.0133 251.978 96.5133 252.478 94.3133C253.278 91.5133 254.678 91.9133 255.478 90.1133C256.078 88.1133 255.278 87.4133 254.378 87.1133L250.478 85.8133C249.478 85.5133 249.178 87.4133 248.478 89.6133C248.278 90.3133 248.578 90.8133 249.378 91.1133C252.678 92.1133 251.478 97.8133 247.378 96.5133C244.778 95.7133 244.778 93.5133 245.678 90.8133C247.278 85.7133 246.878 84.7133 245.778 84.3133L242.878 83.4133C241.878 83.1133 241.378 84.2133 240.778 86.2133C240.378 87.4133 240.278 88.0133 240.878 88.2133C244.878 89.4133 242.978 94.8133 239.178 93.6133C236.778 92.9133 236.978 90.0133 238.078 88.2133C238.278 87.6133 238.878 87.6133 239.078 86.8133C239.878 84.2133 239.978 82.4133 238.678 82.0133L233.978 80.4133L232.778 84.3133C232.478 85.0133 232.678 85.4133 233.378 85.7133C236.678 86.7133 235.378 92.4133 230.578 90.9133C227.978 90.1133 228.778 87.1133 230.778 84.9133C231.578 83.8133 231.878 82.8133 231.778 81.9133C231.578 80.6133 231.178 79.9133 229.978 79.4133L226.078 78.1133C225.078 77.8133 224.778 79.7133 224.078 81.9133C223.878 82.6133 224.178 83.1133 224.978 83.4133C228.278 84.4133 227.078 90.1133 222.978 88.8133C220.378 88.0133 220.378 85.8133 221.278 83.1133C222.878 78.0133 222.478 77.0133 221.378 76.6133L218.478 75.7133C217.478 75.4133 216.978 76.5133 216.378 78.5133C215.978 79.7133 215.878 80.3133 216.478 80.5133C220.478 81.7133 218.578 87.1133 214.778 85.9133C212.378 85.2133 212.578 82.3133 213.678 80.5133C213.878 79.9133 214.478 79.9133 214.678 79.1133C215.478 76.5133 215.578 74.7133 214.278 74.3133L209.578 72.7133L208.378 76.6133C208.078 77.3133 208.278 77.7133 208.978 78.0133C212.278 79.0133 210.978 84.7133 206.178 83.2133C204.678 82.7133 203.478 81.2133 203.978 79.0133C204.778 76.2133 206.178 76.6133 206.978 74.8133C207.578 72.8133 206.778 72.1133 205.878 71.8133L201.978 70.5133C200.978 70.2133 200.678 72.1133 199.978 74.3133C199.778 75.0133 200.078 75.5133 200.878 75.8133C204.178 76.8133 202.978 82.5133 198.878 81.2133C196.278 80.4133 196.278 78.2133 197.178 75.5133C198.778 70.4133 198.378 69.4133 197.278 69.0133L194.378 68.1133C193.378 67.8133 192.878 68.9133 192.278 70.9133C191.878 72.1133 191.778 72.7133 192.378 72.9133C196.378 74.1133 194.478 79.5133 190.678 78.3133C188.278 77.6133 188.478 74.7133 189.578 72.9133C189.778 72.3133 190.378 72.3133 190.578 71.5133C191.378 68.9133 191.478 67.1133 190.178 66.7133L185.478 65.1133L184.278 69.0133C183.978 69.7133 184.178 70.1133 184.878 70.4133C188.178 71.4133 186.878 77.1133 182.078 75.6133C181.278 75.4133 180.178 75.5133 179.878 76.1133C179.678 76.4133 179.578 76.7133 179.278 77.0133L122.078 261.913L266.578 306.613L323.978 123.113C325.278 119.213 326.478 115.413 327.578 111.713Z" fill="white"/>
<path d="M186.188 137.484L185.922 138.344L194.805 141.095L195.071 140.235L186.188 137.484Z" fill="#AFAFAF"/>
<path d="M199.547 141.578L199.281 142.438L208.165 145.188L208.431 144.329L199.547 141.578Z" fill="#AFAFAF"/>
<path d="M213.198 145.785L212.932 146.645L221.815 149.395L222.081 148.536L213.198 145.785Z" fill="#AFAFAF"/>
<path d="M226.672 150.031L226.406 150.891L235.29 153.642L235.556 152.782L226.672 150.031Z" fill="#AFAFAF"/>
<path d="M240.106 154.156L239.84 155.016L248.437 157.678L248.703 156.818L240.106 154.156Z" fill="#AFAFAF"/>
<path d="M191.163 149.156L190.896 150.016L230.442 162.262L230.708 161.402L191.163 149.156Z" fill="#AFAFAF"/>
<path d="M238.946 163.929L238.68 164.789L278.225 177.035L278.491 176.175L238.946 163.929Z" fill="#AFAFAF"/>
<path d="M180.493 156L180.227 156.859L197.898 162.332L198.164 161.472L180.493 156Z" fill="#AFAFAF"/>
<path d="M200.325 162.129L200.059 162.988L217.921 168.52L218.187 167.66L200.325 162.129Z" fill="#AFAFAF"/>
<path d="M231.829 171.855L231.562 172.715L249.425 178.246L249.691 177.387L231.829 171.855Z" fill="#AFAFAF"/>
<path d="M252.094 178.133L251.828 178.992L269.499 184.464L269.766 183.605L252.094 178.133Z" fill="#AFAFAF"/>
<path d="M200.995 172.508L200.729 173.367L207.033 175.319L207.299 174.46L200.995 172.508Z" fill="#AFAFAF"/>
<path d="M211.528 175.8L211.262 176.66L217.757 178.672L218.023 177.812L211.528 175.8Z" fill="#AFAFAF"/>
<path d="M222.016 178.968L221.75 179.828L228.245 181.84L228.512 180.98L222.016 178.968Z" fill="#AFAFAF"/>
<path d="M232.811 182.347L232.545 183.207L239.04 185.218L239.307 184.359L232.811 182.347Z" fill="#AFAFAF"/>
<path d="M243.489 185.695L243.223 186.555L250.005 188.655L250.271 187.795L243.489 185.695Z" fill="#AFAFAF"/>
<path d="M254.241 188.953L253.975 189.812L260.47 191.824L260.736 190.964L254.241 188.953Z" fill="#AFAFAF"/>
<path d="M264.965 192.304L264.699 193.164L271.004 195.116L271.27 194.257L264.965 192.304Z" fill="#AFAFAF"/>
<path d="M275.497 195.593L275.23 196.453L281.726 198.465L281.992 197.605L275.497 195.593Z" fill="#AFAFAF"/>
<path d="M174.794 174.508L174.527 175.367L204.807 184.744L205.073 183.884L174.794 174.508Z" fill="#AFAFAF"/>
<path d="M207.573 184.687L207.307 185.547L237.395 194.865L237.662 194.005L207.573 184.687Z" fill="#AFAFAF"/>
<path d="M240.665 194.984L240.398 195.844L270.487 205.161L270.753 204.302L240.665 194.984Z" fill="#AFAFAF"/>
<path d="M172.118 183.164L171.793 184.215L182.969 187.676L183.294 186.625L172.118 183.164Z" fill="#AFAFAF"/>
<path d="M187.239 187.91L186.914 188.961L198.281 192.481L198.606 191.43L187.239 187.91Z" fill="#AFAFAF"/>
<path d="M202.821 192.703L202.496 193.754L213.672 197.215L213.997 196.164L202.821 192.703Z" fill="#AFAFAF"/>
<path d="M217.995 197.356L217.67 198.406L228.846 201.867L229.171 200.816L217.995 197.356Z" fill="#AFAFAF"/>
<path d="M241.325 204.641L241 205.691L251.985 209.093L252.31 208.042L241.325 204.641Z" fill="#AFAFAF"/>
<path d="M256.646 209.348L256.32 210.398L267.305 213.8L267.63 212.749L256.646 209.348Z" fill="#AFAFAF"/>
<path d="M169.147 192.812L168.881 193.672L189.513 200.061L189.779 199.201L169.147 192.812Z" fill="#AFAFAF"/>
<path d="M209.129 205.187L208.863 206.047L229.687 212.495L229.953 211.636L209.129 205.187Z" fill="#AFAFAF"/>
<path d="M248.671 217.519L248.404 218.379L269.705 224.975L269.971 224.116L248.671 217.519Z" fill="#AFAFAF"/>
<path d="M190.513 209.176L190.188 210.227L223.428 220.52L223.754 219.47L190.513 209.176Z" fill="#AFAFAF"/>
<path d="M230.736 221.641L230.41 222.691L263.842 233.044L264.168 231.994L230.736 221.641Z" fill="#AFAFAF"/>
<path d="M181.858 217.086L181.592 217.945L244.539 237.439L244.806 236.579L181.858 217.086Z" fill="#AFAFAF"/>
<path d="M183.864 227.84L183.598 228.699L198.785 233.402L199.052 232.543L183.864 227.84Z" fill="#AFAFAF"/>
<path d="M202.344 233.582L202.078 234.441L217.266 239.145L217.532 238.285L202.344 233.582Z" fill="#AFAFAF"/>
<path d="M220.919 239.359L220.652 240.219L235.84 244.922L236.106 244.062L220.919 239.359Z" fill="#AFAFAF"/>
<path d="M239.428 245.008L239.162 245.867L254.35 250.57L254.616 249.711L239.428 245.008Z" fill="#AFAFAF"/>
<path d="M161.184 231.019L160.918 231.879L212.499 247.852L212.765 246.992L161.184 231.019Z" fill="#AFAFAF"/>
<path d="M215.088 247.707L214.822 248.566L242.81 257.233L243.076 256.374L215.088 247.707Z" fill="#AFAFAF"/>
<path d="M165.516 242.422L165.25 243.281L185.882 249.671L186.149 248.811L165.516 242.422Z" fill="#AFAFAF"/>
<path d="M189.067 249.789L188.801 250.648L197.207 253.251L197.473 252.392L189.067 249.789Z" fill="#AFAFAF"/>
<path d="M198.731 252.769L198.465 253.629L207.062 256.291L207.328 255.431L198.731 252.769Z" fill="#AFAFAF"/>
<path d="M208.612 255.808L208.346 256.668L216.56 259.212L216.827 258.352L208.612 255.808Z" fill="#AFAFAF"/>
<path d="M218.276 258.789L218.01 259.648L226.416 262.251L226.682 261.392L218.276 258.789Z" fill="#AFAFAF"/>
<path d="M227.987 261.769L227.721 262.629L235.935 265.173L236.202 264.313L227.987 261.769Z" fill="#AFAFAF"/>
<path d="M237.917 264.84L237.65 265.699L245.865 268.243L246.131 267.383L237.917 264.84Z" fill="#AFAFAF"/>
<path d="M247.551 267.914L247.285 268.773L255.691 271.376L255.957 270.517L247.551 267.914Z" fill="#AFAFAF"/>
<path d="M184.346 258.195L184.08 259.055L202.611 264.793L202.877 263.934L184.346 258.195Z" fill="#AFAFAF"/>
<path d="M206.497 265.054L206.23 265.914L224.761 271.653L225.028 270.793L206.497 265.054Z" fill="#AFAFAF"/>
<path d="M227.903 271.656L227.637 272.516L246.359 278.313L246.625 277.454L227.903 271.656Z" fill="#AFAFAF"/>
<path d="M168.329 263.211L168.062 264.07L203.405 275.015L203.671 274.155L168.329 263.211Z" fill="#AFAFAF"/>
<path d="M237.747 284.711L237.48 285.57L250.567 289.623L250.833 288.763L237.747 284.711Z" fill="#AFAFAF"/>
<path d="M341.271 125.949L357.083 110.719C358.175 109.667 359.963 109.066 365.073 114.371L374.584 124.245C379.488 129.336 379.139 131.347 378.004 132.44L362.193 147.669L341.271 125.949Z" fill="url(#paint0_linear_4075_8823)"/>
<path d="M211.022 251.405L205.225 276.841L231.874 273.053L234.129 271.057L228.444 265.064L218.648 255.442L213.007 249.494L211.022 251.405Z" fill="url(#paint1_linear_4075_8823)"/>
<path d="M205.219 276.832L216.693 257.292L218.638 255.419L213.02 249.484L211.024 251.406L205.219 276.832Z" fill="#FFDED1"/>
<path d="M205.219 276.832L216.694 257.293L218.638 255.42L228.42 265.033L226.204 267.167L205.219 276.832Z" fill="url(#paint2_linear_4075_8823)"/>
<path d="M234.115 271.049L228.425 265.04L226.21 267.174L205.225 276.84L231.879 273.06L234.115 271.049Z" fill="url(#paint3_linear_4075_8823)"/>
<path d="M206.583 270.946L205.226 276.841L211.365 275.956C210.666 275.026 209.874 274.089 209.012 273.194C208.225 272.376 207.406 271.629 206.583 270.946Z" fill="url(#paint4_linear_4075_8823)"/>
<path d="M211.023 251.406C214.659 253.469 215.298 255.359 216.693 257.293L345.574 133.153L339.904 127.267L211.023 251.406Z" fill="#E8F34A"/>
<path d="M216.688 257.285C219.745 259.771 222.691 261.468 226.198 267.159L355.079 143.019L345.568 133.145L216.688 257.285Z" fill="#D6E040"/>
<path d="M226.209 267.172C228.694 268.87 230.731 270.767 231.879 273.058L360.76 148.919L355.09 143.032L226.209 267.172Z" fill="#BFCA24"/>
<path d="M339.381 127.77L341.271 125.949L362.191 147.669L360.23 149.415L339.381 127.77Z" fill="white"/>
<path d="M341.342 126.023L347.029 131.927L365.162 114.46C360.053 109.155 358.242 109.745 357.149 110.798L341.342 126.023Z" fill="#30373D"/>
<path d="M347.035 131.934L356.557 141.819L374.691 124.352L365.169 114.467L347.035 131.934Z" fill="#151C22"/>
<path d="M356.557 141.82L362.2 147.678L378.554 131.925C379.202 130.714 378.812 128.632 374.691 124.353L356.557 141.82Z" fill="#0B0F12"/>
<defs>
<linearGradient id="paint0_linear_4075_8823" x1="346.275" y1="121.443" x2="367.012" y2="142.972" gradientUnits="userSpaceOnUse">
<stop/>
<stop offset="0.26714" stop-color="#49494A"/>
<stop offset="0.51222" stop-color="#AAA9AD"/>
<stop offset="0.73259" stop-color="#4B4A4C"/>
<stop offset="1"/>
</linearGradient>
<linearGradient id="paint1_linear_4075_8823" x1="222.661" y1="273.239" x2="211.318" y2="258.882" gradientUnits="userSpaceOnUse">
<stop stop-color="#D69F8A"/>
<stop offset="1" stop-color="#FFDED1"/>
</linearGradient>
<linearGradient id="paint2_linear_4075_8823" x1="217.616" y1="271.035" x2="210.799" y2="265.99" gradientUnits="userSpaceOnUse">
<stop stop-color="#FFC2AB"/>
<stop offset="0.17493" stop-color="#FFC2AB"/>
<stop offset="0.69432" stop-color="#FFC2AB"/>
<stop offset="1" stop-color="#FFDED1"/>
</linearGradient>
<linearGradient id="paint3_linear_4075_8823" x1="217.911" y1="271.116" x2="219.523" y2="275.219" gradientUnits="userSpaceOnUse">
<stop stop-color="#FFC2AB"/>
<stop offset="0.27431" stop-color="#D69F8A"/>
<stop offset="1" stop-color="#D69F8A"/>
</linearGradient>
<linearGradient id="paint4_linear_4075_8823" x1="209.356" y1="275.386" x2="207.507" y2="272.349" gradientUnits="userSpaceOnUse">
<stop/>
<stop offset="1" stop-color="#808080"/>
</linearGradient>
</defs>
</svg>
