<svg width="309" height="301" viewBox="0 0 309 301" fill="none" xmlns="http://www.w3.org/2000/svg">
<g clip-path="url(#clip0_3930_17813)">
<path d="M3.50189 22.3667C3.50189 22.3667 11.5069 57.8182 45.5413 64.2258C89.7711 72.5539 77.8895 101.918 93.338 117.175" stroke="#333333" stroke-width="7"/>
<path d="M47.9863 3.4995C47.9863 3.4995 55.9913 38.951 90.0257 45.3586C134.255 53.6867 122.374 83.0509 137.822 98.308" stroke="#333333" stroke-width="7"/>
<path d="M167.16 282.735L150.367 258.73L160.079 245.595L207.664 203.63L220.013 189.628L238.506 176.528L241.123 180.929L244.65 177.43L273.042 206.101L269.515 209.6L273.896 212.252L260.651 230.641L246.553 242.88L204.216 290.135L191.005 299.743L167.16 282.735Z" fill="#DF7537" stroke="black" stroke-width="1.2294"/>
<path d="M237.461 183.415L227.299 199.62L250.734 223.24L267.02 213.206L237.461 183.415Z" fill="black"/>
<path d="M187.099 243.186L182.739 235.266L199.018 226.987L223.144 251.302L214.737 267.515L206.851 263.094L187.099 243.186Z" fill="black"/>
<path d="M239.975 182.358L244.305 176.195L258.422 192.178L274.294 206.42L268.097 210.702L239.975 182.358Z" fill="#DF7537" stroke="black" stroke-width="1.2666"/>
<path d="M257.482 228.255L250.686 227.606L239.225 238.977L240.706 243.996L257.482 228.255ZM222.351 192.848L222.947 199.649L211.486 211.02L206.479 209.5L222.351 192.848Z" fill="black"/>
<path d="M238.387 246.352L237.241 239.849L226.175 250.065L221.726 263.227L238.387 246.352ZM204.092 211.787L210.585 212.984L200.284 223.969L187.087 228.315L204.092 211.787Z" fill="black"/>
<path d="M210.909 272.152L190.191 292.708M178.078 239.062L157.36 259.618" stroke="black" stroke-width="1.2294"/>
<path d="M207.636 213.206L197.397 218.838L208.123 219.696L194.714 224.368L205.932 227.822L192.839 226.338L200.149 234.977L189.382 228.806L192.291 239.431L185.123 229.124L183.411 240.089L180.753 225.647L174.541 237.58L177.322 224.436L168.033 231.635L174.557 219.624L165.365 224.164L174.406 214.807L165.21 214.425L177.968 211.349L167.301 207.219L180.228 209.443L172.449 200.947L183.399 205.99L179.527 195.753L187.462 206.364L187.876 194.9L191.413 209.161L196.745 197.409L195.494 211.029L204.684 204.75L196.73 215.365L207.636 213.206L207.636 213.206Z" fill="#FFFF00" stroke="black" stroke-width="1.82576"/>
<path d="M107.844 94.0149L95.5199 100.128L87.7852 106.951L82.1433 112.444L81.3693 118.972L99.1875 164.116L110.445 188.57L106.577 191.982L107.692 194.61L110.797 194.621L113.424 193.507L126.592 222.466L133.518 231.486L139.932 234.08L146.893 233.785L181.187 219.24L186.238 214.44L188.831 208.026L187.161 196.777L175.494 167.181L178.121 166.067L180.271 163.827L179.157 161.199L174.016 161.608L164.26 136.517L144.19 92.3286L138.958 88.3473L131.088 88.5853L120.806 89.4032L107.844 94.0149Z" fill="#BF2714" stroke="black" stroke-width="1.14162"/>
<path d="M126.114 165.17L115.559 167.432L117.274 195.491L127.282 196.118L135.744 195.186L161.197 184.391L167.749 178.955L174.256 171.324L155.275 150.588L146.312 156.604L126.114 165.17Z" fill="black"/>
<path d="M91.0195 104.945L94.4882 107.903L127.236 94.0384L127.521 89.4889L91.0195 104.945Z" fill="black"/>
<path d="M96.2558 144.536L85.3284 117.728L92.0279 115.772L100.67 138.235L96.2558 144.536ZM152.266 120.78L140.588 94.2903L134.526 97.7473L144.669 119.574L152.266 120.78Z" fill="black"/>
<path d="M112.741 185.348L98.5158 152.852L103.737 145.323L112.175 165.217L112.741 185.348ZM170.263 160.976L156.788 128.162L147.746 126.682L156.184 146.576L170.263 160.976Z" fill="black"/>
<path d="M175.437 179.153L183.022 198.08L184.476 209.863M122.195 201.734L130.53 220.343L137.991 229.579" stroke="black" stroke-width="1.14162"/>
<path d="M193.422 198.305C250.016 123.892 209.299 84.9019 209.299 84.9019" stroke="black" stroke-width="0.88149"/>
<path d="M161.364 233.791C105.732 283.72 70.6797 257.988 70.6797 257.988" stroke="black"/>
<path d="M215.021 179.204C257.886 137.982 291.984 135.589 291.984 135.589" stroke="black"/>
<path d="M65.7705 255.96C66.6537 258.042 65.7809 260.404 63.8211 261.235C61.8612 262.066 59.5565 261.052 58.6733 258.97C57.7902 256.887 58.663 254.525 60.6228 253.694C62.5826 252.863 64.8874 253.877 65.7705 255.96Z" fill="#FFFF00" stroke="black" stroke-width="0.581916" stroke-linecap="square"/>
<path d="M205.052 77.2837C205.935 79.3661 205.062 81.728 203.102 82.5592C201.142 83.3904 198.838 82.3762 197.955 80.2938C197.071 78.2115 197.944 75.8496 199.904 75.0184C201.864 74.1872 204.169 75.2014 205.052 77.2837Z" fill="#FFFF00" stroke="black" stroke-width="0.581916" stroke-linecap="square"/>
<path d="M307.509 132.585C308.392 134.667 307.519 137.029 305.559 137.86C303.6 138.691 301.295 137.677 300.412 135.595C299.528 133.512 300.401 131.15 302.361 130.319C304.321 129.488 306.626 130.502 307.509 132.585Z" fill="#FFFF00" stroke="black" stroke-width="0.581916" stroke-linecap="square"/>
</g>
<defs>
<clipPath id="clip0_3930_17813">
<rect width="308.145" height="300.377" fill="white"/>
</clipPath>
</defs>
</svg>
