<?xml version="1.0" encoding="UTF-8"?>
<svg xmlns="http://www.w3.org/2000/svg" xmlns:xlink="http://www.w3.org/1999/xlink" viewBox="0 0 324.66 272.86">
  <defs>
    <style>
      .cls-1 {
        fill-rule: evenodd;
      }

      .cls-1, .cls-2, .cls-3, .cls-4, .cls-5, .cls-6, .cls-7, .cls-8, .cls-9, .cls-10, .cls-11, .cls-12, .cls-13, .cls-14, .cls-15 {
        stroke-width: 0px;
      }

      .cls-1, .cls-13 {
        fill: #fff;
      }

      .cls-2 {
        fill: url(#linear-gradient);
      }

      .cls-3 {
        fill: #ff424b;
      }

      .cls-16 {
        isolation: isolate;
      }

      .cls-4 {
        fill: #3757a7;
      }

      .cls-5 {
        fill: none;
      }

      .cls-6 {
        fill: #161616;
      }

      .cls-7 {
        fill: url(#radial-gradient);
        mix-blend-mode: screen;
      }

      .cls-8 {
        fill: #1d1b21;
      }

      .cls-9 {
        fill: #96c257;
      }

      .cls-10 {
        fill: url(#linear-gradient-2);
      }

      .cls-11 {
        fill: url(#linear-gradient-3);
      }

      .cls-17 {
        clip-path: url(#clippath);
      }

      .cls-12 {
        fill: #121114;
      }

      .cls-14 {
        fill: #dae5eb;
      }

      .cls-15 {
        fill: url(#linear-gradient-4);
        opacity: .1;
      }
    </style>
    <clipPath id="clippath">
      <circle class="cls-5" cx="91.5" cy="77.98" r="37.34" transform="translate(-2.47 152.96) rotate(-79.02)"/>
    </clipPath>
    <linearGradient id="linear-gradient" x1="2.35" y1="136.43" x2="180.66" y2="136.43" gradientUnits="userSpaceOnUse">
      <stop offset="0" stop-color="#282433"/>
      <stop offset=".1" stop-color="#312e3c"/>
      <stop offset=".26" stop-color="#494654"/>
      <stop offset=".28" stop-color="#464351"/>
      <stop offset=".5" stop-color="#353140"/>
      <stop offset=".73" stop-color="#2b2736"/>
      <stop offset="1" stop-color="#282433"/>
    </linearGradient>
    <linearGradient id="linear-gradient-2" x1="174.91" y1="87.33" x2="174.91" y2="177.69" xlink:href="#linear-gradient"/>
    <linearGradient id="linear-gradient-3" x1="-1026.22" y1="2088.26" x2="-1026.22" y2="2178.62" gradientTransform="translate(-1018.12 2332.49) rotate(-180)" xlink:href="#linear-gradient"/>
    <radialGradient id="radial-gradient" cx="5930.92" cy="454.92" fx="5930.92" fy="454.92" r="27.83" gradientTransform="translate(-313.66 -540.18) scale(.08 1.47)" gradientUnits="userSpaceOnUse">
      <stop offset="0" stop-color="#494654"/>
      <stop offset=".16" stop-color="#312f38"/>
      <stop offset=".35" stop-color="#1b1a1f"/>
      <stop offset=".55" stop-color="#0c0b0d"/>
      <stop offset=".76" stop-color="#020203"/>
      <stop offset="1" stop-color="#000"/>
    </radialGradient>
    <linearGradient id="linear-gradient-4" x1="156.61" y1="79.92" x2="-39.56" y2="121.42" gradientUnits="userSpaceOnUse">
      <stop offset="0" stop-color="#fff"/>
      <stop offset=".05" stop-color="rgba(255, 255, 255, .9)" stop-opacity=".9"/>
      <stop offset=".15" stop-color="rgba(255, 255, 255, .69)" stop-opacity=".69"/>
      <stop offset=".26" stop-color="rgba(255, 255, 255, .51)" stop-opacity=".51"/>
      <stop offset=".37" stop-color="rgba(255, 255, 255, .35)" stop-opacity=".35"/>
      <stop offset=".48" stop-color="rgba(255, 255, 255, .22)" stop-opacity=".22"/>
      <stop offset=".6" stop-color="rgba(255, 255, 255, .12)" stop-opacity=".12"/>
      <stop offset=".72" stop-color="rgba(255, 255, 255, .05)" stop-opacity=".05"/>
      <stop offset=".85" stop-color="rgba(255, 255, 255, .01)" stop-opacity=".01"/>
      <stop offset="1" stop-color="#fff" stop-opacity="0"/>
    </linearGradient>
  </defs>
  <g class="cls-16">
    <g id="TEXTS">
      <g>
        <g>
          <path class="cls-8" d="M24.9,268.96c-10.56,0-19.16-6.21-19.16-13.84V17.24c0-7.63,8.59-13.84,19.16-13.84h133.21c10.56,0,19.16,6.21,19.16,13.84v237.88c0,7.63-8.59,13.84-19.16,13.84H24.9Z"/>
          <g>
            <circle class="cls-9" cx="42.94" cy="207.4" r="17.31"/>
            <path class="cls-13" d="M46.18,207.1c-.33,0-.61-.26-.63-.6-.03-.64-.29-1.23-.72-1.67-.43-.44-1.02-.71-1.66-.76-.35-.03-.61-.33-.58-.67.02-.35.32-.6.67-.58.94.07,1.82.47,2.46,1.13.64.66,1.03,1.54,1.07,2.49.02.35-.25.64-.6.66-.01,0-.02,0-.03,0Z"/>
            <path class="cls-13" d="M49.02,206.96c-.33,0-.61-.26-.63-.6-.07-1.34-.6-2.6-1.52-3.53-.91-.93-2.15-1.5-3.5-1.6-.35-.03-.61-.33-.58-.67.02-.34.34-.61.67-.58,1.65.12,3.18.82,4.31,1.97,1.13,1.15,1.79,2.7,1.87,4.35.02.35-.25.64-.6.66-.01,0-.02,0-.03,0Z"/>
            <path class="cls-13" d="M51.9,206.82c-.33,0-.61-.26-.63-.6-.1-2.03-.93-3.95-2.35-5.39-1.41-1.45-3.31-2.32-5.34-2.47-.35-.02-.61-.33-.58-.67.02-.35.32-.62.67-.58,2.34.17,4.52,1.18,6.15,2.84,1.63,1.66,2.59,3.87,2.7,6.21.02.35-.25.64-.6.66-.01,0-.02,0-.03,0Z"/>
            <path class="cls-1" d="M35.69,198.77c.39.09.77.2,1.08.47.04.04.09.07.13.11.89.89,1.78,1.77,2.66,2.66.65.66.77,1.57.31,2.33-.21.34-.5.58-.88.72-.54.2-.97.53-1.2,1.07-.16.36-.18.73-.08,1.11.25.96.78,1.77,1.41,2.52.81.95,1.74,1.75,2.87,2.3.4.2.81.38,1.27.36.86-.04,1.47-.46,1.77-1.28.15-.39.39-.71.75-.92.69-.41,1.56-.35,2.15.19.57.52,1.1,1.08,1.65,1.63.45.45.91.88,1.32,1.35.55.63.57,1.62.08,2.31-.1.14-.21.27-.33.4-.52.53-1.05,1.04-1.57,1.57-.47.49-1.03.76-1.69.83-.03,0-.06.02-.09.03h-.81c-.36-.07-.72-.12-1.07-.21-1.45-.37-2.77-1.05-4.02-1.86-2.08-1.34-3.9-2.98-5.53-4.83-1.43-1.63-2.67-3.39-3.53-5.4-.4-.94-.7-1.92-.73-2.96-.03-.92.22-1.72.92-2.36.46-.42.89-.86,1.31-1.31.39-.41.82-.76,1.41-.84h.43Z"/>
          </g>
          <g>
            <circle class="cls-3" cx="139.81" cy="207.4" r="17.31"/>
            <g>
              <path class="cls-1" d="M147.38,199.52c-.49-.49-1.29-.49-1.78,0l-7.53,7.53c-.46-.61-.83-1.27-1.03-2.03-.1-.38-.08-.75.08-1.11.23-.54.65-.87,1.2-1.07.38-.14.67-.38.88-.72.46-.76.35-1.67-.31-2.33-.88-.89-1.77-1.78-2.66-2.66-.04-.04-.09-.07-.13-.11-.31-.26-.69-.39-1.08-.47h-.43c-.59.08-1.02.42-1.41.84-.42.45-.85.89-1.31,1.31-.7.64-.95,1.44-.92,2.36.03,1.04.33,2.01.73,2.96.85,2.01,2.09,3.77,3.52,5.4.08.09.17.18.25.27l-3.83,3.83c-.49.49-.49,1.29,0,1.78.25.25.57.37.89.37s.64-.12.89-.37l13.98-13.98c.49-.49.49-1.29,0-1.78Z"/>
              <path class="cls-1" d="M150.24,211.17c-.41-.47-.87-.91-1.32-1.35-.55-.55-1.08-1.1-1.65-1.63-.59-.54-1.47-.6-2.15-.19-.36.21-.61.53-.75.92-.31.82-.91,1.24-1.77,1.28-.46.02-.87-.16-1.27-.36-.09-.04-.17-.1-.25-.14l-2.74,2.75c.77.64,1.56,1.25,2.41,1.8,1.25.81,2.57,1.49,4.02,1.86.35.09.71.14,1.07.21.27,0,.54,0,.81,0,.03-.01.06-.03.09-.03.67-.07,1.23-.34,1.69-.83.51-.53,1.05-1.05,1.56-1.57.12-.12.23-.26.33-.4.49-.69.47-1.68-.08-2.31Z"/>
            </g>
          </g>
          <g>
            <circle class="cls-14" cx="91.5" cy="77.98" r="37.34" transform="translate(-2.47 152.96) rotate(-79.02)"/>
            <g class="cls-17">
              <g>
                <circle class="cls-4" cx="91.04" cy="70.06" r="18.09"/>
                <ellipse class="cls-4" cx="91.5" cy="104.91" rx="34.04" ry="21.65"/>
              </g>
            </g>
          </g>
          <g>
            <g>
              <path class="cls-6" d="M1.4,38.78c-.78,0-1.4.46-1.4,1.02v5.6c0,.57.63,1.02,1.4,1.02h1.9v-7.65h-1.9Z"/>
              <path class="cls-6" d="M1.4,56.85c-.78,0-1.4.46-1.4,1.02v18.78c0,.57.63,1.02,1.4,1.02h1.9v-20.83h-1.9Z"/>
              <path class="cls-6" d="M181.6,63.37c.78,0,1.4.46,1.4,1.02v18.78c0,.57-.63,1.02-1.4,1.02h-1.9v-20.83h1.9Z"/>
              <path class="cls-6" d="M1.4,82.08c-.78,0-1.4.46-1.4,1.02v18.79c0,.57.63,1.02,1.4,1.02h1.9v-20.83h-1.9Z"/>
            </g>
            <path class="cls-2" d="M158.11,0H24.9C12.5,0,2.35,7.4,2.35,16.44v239.98c0,9.04,10.15,16.44,22.55,16.44h133.21c12.4,0,22.55-7.4,22.55-16.44V16.44c0-9.04-10.15-16.44-22.55-16.44ZM174.43,256.42c0,6.56-7.32,11.9-16.33,11.9H24.9c-9,0-16.33-5.34-16.33-11.9V16.44c0-6.56,7.32-11.9,16.33-11.9h57.83c1.65,0,2.67,1.09,3.3,2.3.63,1.2,1.26,3.18,5.47,3.18s4.84-1.98,5.47-3.18c.63-1.2,1.65-2.3,3.3-2.3h57.83c9,0,16.33,5.34,16.33,11.9v239.98Z"/>
          </g>
          <path class="cls-8" d="M93.78,9.29c0,1.26-1.02,2.28-2.28,2.28s-2.28-1.02-2.28-2.28,1.02-2.28,2.28-2.28,2.28,1.02,2.28,2.28Z"/>
          <path class="cls-12" d="M92.68,9.29c0,.65-.53,1.18-1.18,1.18s-1.18-.53-1.18-1.18.53-1.18,1.18-1.18,1.18.53,1.18,1.18Z"/>
          <g>
            <path class="cls-10" d="M174.96,82.19c-.08-6.77-.28-12.41-.36-16.36-.1-3.95-.15-6.21-.15-6.21v144.46s.06-2.26.15-6.21c.08-3.95.28-9.59.36-16.36.08-6.77.25-14.67.28-23.14.04-8.46.08-17.49.12-26.52-.04-9.03-.08-18.06-.12-26.52-.03-8.46-.2-16.36-.28-23.14Z"/>
            <path class="cls-11" d="M8.04,249.37c.08,6.77.28,12.41.36,16.36.1,3.95.15,6.21.15,6.21V127.48s-.06,2.26-.15,6.21c-.08,3.95-.28,9.59-.36,16.36-.08,6.77-.25,14.67-.28,23.14-.04,8.46-.08,17.49-.12,26.52.04,9.03.08,18.06.12,26.52.03,8.46.2,16.36.28,23.14Z"/>
          </g>
          <path class="cls-7" d="M176.74,130.28c0,22.66-1.03,41.02-2.29,41.02s-2.29-18.37-2.29-41.02,1.03-41.02,2.29-41.02,2.29,18.37,2.29,41.02Z"/>
          <path class="cls-15" d="M142.59,7.16h-42.32c-.96,0-1.78.86-2.42,2.54l-.14.39c-.62,1.71-1.66,4.58-6.21,4.58s-5.59-2.87-6.21-4.58l-.14-.39c-.64-1.69-1.46-2.54-2.42-2.54H24.9c-8.48,0-15.38,6.9-15.38,15.38v189.45L142.59,7.16Z"/>
        </g>
        <g>
          <path class="cls-13" d="M54.61,158.72c0-2.9,2.14-5.07,5.06-5.07,2.27,0,4.08,1.37,4.69,3.4h-1.69c-.52-1.15-1.62-1.89-3.01-1.89-2,0-3.45,1.51-3.45,3.56s1.44,3.56,3.45,3.56c1.39,0,2.49-.74,3.01-1.89h1.69c-.62,2.03-2.42,3.4-4.69,3.4-2.91,0-5.06-2.17-5.06-5.07Z"/>
          <path class="cls-13" d="M71.94,160.99h-4.26l-.99,2.63h-1.68l3.8-9.81h2.02l3.8,9.81h-1.68l-.99-2.63ZM71.36,159.49l-1.55-4.1-1.55,4.1h3.11Z"/>
          <path class="cls-13" d="M82.24,162.11v1.51h-6.05v-9.81h1.58v8.29h4.47Z"/>
          <path class="cls-13" d="M89.85,162.11v1.51h-6.05v-9.81h1.58v8.29h4.47Z"/>
          <path class="cls-13" d="M91.42,153.82h1.58v9.81h-1.58v-9.81Z"/>
          <path class="cls-13" d="M103.44,153.82v9.81h-1.88l-4.9-7.58.15,3.47v4.1h-1.58v-9.81h1.86l4.9,7.56-.14-3.46v-4.1h1.58Z"/>
          <path class="cls-13" d="M115.07,158.41v5.21h-1.37v-1.96c-.46,1.26-1.79,2.13-3.54,2.13-2.77,0-4.92-2.13-4.92-5.06s2.16-5.08,5.06-5.08c2.28,0,4.08,1.34,4.69,3.33h-1.69c-.53-1.12-1.62-1.82-3.01-1.82-2,0-3.45,1.5-3.45,3.6,0,1.99,1.32,3.56,3.43,3.56,1.64,0,2.94-.97,3.19-2.56h-3.68v-1.34h5.29Z"/>
          <path class="cls-13" d="M119.35,162.8c0,.57-.45.99-1.04.99s-1.02-.42-1.02-.99.43-.98,1.02-.98,1.04.41,1.04.98Z"/>
          <path class="cls-13" d="M123.69,162.8c0,.57-.45.99-1.04.99s-1.02-.42-1.02-.99.43-.98,1.02-.98,1.04.41,1.04.98Z"/>
          <path class="cls-13" d="M128.03,162.8c0,.57-.45.99-1.04.99s-1.02-.42-1.02-.99.43-.98,1.02-.98,1.04.41,1.04.98Z"/>
        </g>
        <g>
          <path class="cls-13" d="M23.54,237.79h-3.96l-.84,2h-2.12l3.67-8.48h2.54l3.67,8.48h-2.13l-.83-2ZM22.84,236.15l-1.29-3.08-1.29,3.08h2.58Z"/>
          <path class="cls-13" d="M26.96,236.46c0-1.97,1.69-3.48,4.02-3.48,1.88,0,3.54.98,3.84,2.68h-2.06c-.24-.73-.97-1.08-1.78-1.08-1.22,0-2,.78-1.99,1.88-.01,1.12.8,1.88,1.98,1.88.83,0,1.55-.36,1.79-1.09h2.06c-.31,1.76-2,2.69-3.85,2.69-2.31,0-4.01-1.5-4.01-3.48Z"/>
          <path class="cls-13" d="M35.9,236.46c0-1.97,1.69-3.48,4.02-3.48,1.88,0,3.54.98,3.84,2.68h-2.06c-.24-.73-.97-1.08-1.78-1.08-1.22,0-2,.78-1.99,1.88-.01,1.12.8,1.88,1.98,1.88.83,0,1.55-.36,1.79-1.09h2.06c-.31,1.76-2,2.69-3.85,2.69-2.31,0-4.01-1.5-4.01-3.48Z"/>
          <path class="cls-13" d="M52.81,236.91h-5.91c.13,1.07.97,1.6,2,1.6.77,0,1.44-.3,1.71-.84h2.07c-.57,1.58-2.12,2.27-3.77,2.27-2.41,0-4.06-1.48-4.06-3.46s1.67-3.49,4.02-3.49c2.55,0,4.13,1.73,3.94,3.92ZM46.99,235.64h3.68c-.22-.73-.85-1.22-1.82-1.22s-1.61.51-1.86,1.22Z"/>
          <path class="cls-13" d="M62.18,236.46c0,2.05-1.51,3.48-3.52,3.48-1.09,0-1.89-.41-2.44-1.04v3.93h-2v-9.69h2v.93c.53-.64,1.36-1.08,2.44-1.08,1.97,0,3.52,1.42,3.52,3.48ZM60.15,236.46c0-1.09-.83-1.83-1.95-1.83s-1.98.74-1.98,1.83.85,1.83,1.98,1.83,1.95-.73,1.95-1.83Z"/>
          <path class="cls-13" d="M69.65,239.41c-.42.24-1.37.53-2.3.53-1.54,0-2.89-.8-2.89-2.71v-2.46h-1.37v-1.63h1.37v-1.44l2-.38v1.82h2.86v1.63h-2.86v2.36c0,.79.43,1.2,1.23,1.2.45,0,.98-.13,1.61-.33l.34,1.41Z"/>
        </g>
        <g>
          <path class="cls-13" d="M122.75,234.4c0,2.8-2.16,4.9-5.01,4.9h-3.54v-9.81h3.54c2.86,0,5.01,2.09,5.01,4.9ZM120.75,234.4c0-1.77-1.25-3-3.01-3h-1.54v6h1.54c1.77,0,3.01-1.23,3.01-3Z"/>
          <path class="cls-13" d="M131.94,235.96h-5.91c.13,1.23.97,1.85,2,1.85.77,0,1.44-.35,1.71-.97h2.07c-.57,1.82-2.12,2.62-3.77,2.62-2.41,0-4.06-1.71-4.06-4.01s1.67-4.03,4.02-4.03c2.55,0,4.13,2,3.94,4.54ZM126.12,234.49h3.68c-.22-.84-.85-1.42-1.82-1.42s-1.61.59-1.86,1.42Z"/>
          <path class="cls-13" d="M133.11,235.45c0-2.28,1.69-4.02,4.02-4.02,1.88,0,3.54,1.13,3.84,3.1h-2.06c-.24-.84-.97-1.25-1.78-1.25-1.22,0-2,.9-1.99,2.17-.01,1.29.8,2.17,1.98,2.17.83,0,1.55-.42,1.79-1.26h2.06c-.31,2.03-2,3.11-3.85,3.11-2.31,0-4.01-1.74-4.01-4.02Z"/>
          <path class="cls-13" d="M142.25,228.51h2v10.79h-2v-10.79Z"/>
          <path class="cls-13" d="M148.1,229.21c0,.69-.52,1.19-1.25,1.19s-1.25-.5-1.25-1.19.55-1.18,1.25-1.18,1.25.49,1.25,1.18ZM145.85,231.59h2v7.7h-2v-7.7Z"/>
          <path class="cls-13" d="M156.65,234.46v4.83h-2v-4.4c0-1.01-.38-1.57-1.44-1.57-1.13,0-1.74.66-1.74,1.92v4.05h-2v-7.7h2v1.05c.56-.79,1.33-1.22,2.4-1.22,1.74,0,2.79,1.15,2.79,3.04Z"/>
          <path class="cls-13" d="M165.94,235.96h-5.91c.13,1.23.97,1.85,2,1.85.77,0,1.44-.35,1.71-.97h2.07c-.57,1.82-2.12,2.62-3.77,2.62-2.41,0-4.06-1.71-4.06-4.01s1.67-4.03,4.02-4.03c2.55,0,4.13,2,3.94,4.54ZM160.13,234.49h3.68c-.22-.84-.85-1.42-1.82-1.42s-1.61.59-1.86,1.42Z"/>
        </g>
        <g>
          <path class="cls-13" d="M23.25,134.51v2.43h-6.81v-10.5h2.55v8.07h4.26Z"/>
          <path class="cls-13" d="M31.38,134.77h-3.93l-.75,2.17h-2.7l3.81-10.5h3.21l3.81,10.5h-2.7l-.75-2.17ZM30.54,132.34l-1.12-3.27-1.12,3.27h2.25Z"/>
          <path class="cls-13" d="M49.03,126.44l-2.53,10.5h-3.14l-.92-3.79-.54-3.71h-.26s-.52,3.71-.52,3.71l-.92,3.79h-3.15l-2.53-10.5h2.62l1.2,5.03.31,2.44.31-2.44,1.2-5.03h3.19l1.2,5.03.33,2.5.31-2.5,1.2-5.03h2.61Z"/>
          <path class="cls-13" d="M57.51,128.88v1.56h4.26v2.43h-4.26v1.65h4.68v2.43h-7.23v-10.5h7.23v2.43h-4.68Z"/>
          <path class="cls-13" d="M72.87,126.44v10.5h-2.9l-3.94-6.61.21,2.22v4.39h-2.55v-10.5h2.89l3.93,6.62-.2-2.22v-4.4h2.55Z"/>
          <path class="cls-13" d="M77.44,128.88v1.67h4.26v2.43h-4.26v3.97h-2.55v-10.5h7.23v2.43h-4.68Z"/>
          <path class="cls-13" d="M94.23,131.69c0,3.09-2.38,5.45-5.49,5.45s-5.49-2.36-5.49-5.45,2.38-5.44,5.49-5.44,5.49,2.35,5.49,5.44ZM85.83,131.69c0,1.75,1.23,3.01,2.91,3.01s2.91-1.26,2.91-3.01-1.23-3.01-2.91-3.01-2.91,1.26-2.91,3.01Z"/>
          <path class="cls-13" d="M99.22,133.3h-.8v3.64h-2.55v-10.5h4.68c2.22,0,3.6,1.32,3.6,3.51,0,1.68-.81,2.68-2.1,3.1l2.76,3.88h-3.12l-2.47-3.64ZM100.27,128.88h-1.85v2.19h1.85c.88,0,1.3-.36,1.3-1.08s-.45-1.11-1.3-1.11Z"/>
          <path class="cls-13" d="M105.42,131.69c0-3.09,2.29-5.44,5.44-5.44,2.58,0,4.54,1.62,5.11,3.9h-2.73c-.42-.92-1.28-1.47-2.39-1.47-1.74,0-2.86,1.26-2.86,3.01s1.12,3.01,2.86,3.01c1.11,0,1.96-.55,2.39-1.47h2.73c-.57,2.28-2.53,3.9-5.11,3.9-3.15,0-5.44-2.36-5.44-5.45Z"/>
          <path class="cls-13" d="M120.1,128.88v1.56h4.26v2.43h-4.26v1.65h4.68v2.43h-7.23v-10.5h7.23v2.43h-4.68Z"/>
          <path class="cls-13" d="M136.87,126.44v10.5h-2.55v-6.93l-2.62,4h-.24l-2.62-4v6.93h-2.55v-10.5h2.89l2.4,3.6,2.4-3.6h2.9Z"/>
          <path class="cls-13" d="M141.52,128.88v1.56h4.26v2.43h-4.26v1.65h4.68v2.43h-7.23v-10.5h7.23v2.43h-4.68Z"/>
          <path class="cls-13" d="M156.88,126.44v10.5h-2.9l-3.94-6.61.21,2.22v4.39h-2.55v-10.5h2.89l3.93,6.62-.2-2.22v-4.4h2.55Z"/>
          <path class="cls-13" d="M166.5,128.88h-2.86v8.07h-2.55v-8.07h-2.85v-2.43h8.26v2.43Z"/>
        </g>
        <text/>
      </g>
    </g>
  </g>
</svg>