<svg width="287" height="263" viewBox="0 0 287 263" fill="none" xmlns="http://www.w3.org/2000/svg">
<path d="M147.796 68.3374C153.051 81.8676 164.413 95.037 177.392 102.641C187.062 108.306 198.458 111.971 208.218 112.553C209.659 112.639 210.962 112.797 211.112 112.904C211.384 113.098 211.32 119.211 211.033 120.34C210.707 121.625 197.738 119.68 189.971 117.182C167.478 109.948 149.179 93.2126 140.516 71.9514L139.21 68.7472L141.79 67.8021C143.21 67.2823 144.946 66.6872 145.65 66.4797L146.929 66.1025L147.796 68.3374Z" fill="#D6E040"/>
<path d="M164.282 63.8415C168.823 74.0176 177.365 83.3973 186.896 88.6748C193.833 92.5156 202.241 95.1833 208.829 95.6335C210.281 95.7327 211.584 95.8931 211.723 95.9898C212.028 96.2009 211.896 103.222 211.578 103.681C211.456 103.858 209.916 103.875 208.155 103.72C190.089 102.126 173.772 92.7186 162.862 77.607C159.448 72.8772 154.828 63.8315 155.402 63.0011C155.588 62.7328 161.226 60.5675 162.347 60.3343C162.533 60.2955 163.404 61.8736 164.282 63.8414L164.282 63.8415Z" fill="#D6E040"/>
<path d="M179.141 55.4489C179.764 57.4233 182.704 62.3602 184.762 64.8882C190.774 72.2733 199.778 77.366 208.852 78.5131C210.649 78.7404 212.208 78.9872 212.315 79.0618C212.58 79.2453 212.315 86.3799 212.028 86.7949C211.623 87.3788 202.378 85.7085 198.727 84.392C187.954 80.5073 179.656 73.4288 174.11 63.3934C170.436 56.7448 170.369 57.383 174.913 55.7756C177.021 55.0296 178.769 54.4418 178.797 54.4692C178.825 54.4967 178.98 54.9376 179.141 55.4489Z" fill="#D6E040"/>
<path d="M49.2079 72.7871C37.1132 80.8115 26.6764 94.7258 22.0222 109.03C18.5542 119.688 17.4097 131.603 18.9272 141.262C19.1513 142.689 19.2753 143.995 19.2027 144.164C19.0708 144.472 13.0857 145.715 11.9215 145.677C10.5967 145.633 9.72434 132.548 10.5048 124.426C12.7648 100.907 25.203 79.4542 44.1214 66.4471L46.9725 64.4867L48.4473 66.8054C49.2583 68.0807 50.2109 69.6502 50.5639 70.293L51.2058 71.4618L49.2079 72.7871Z" fill="#8E0808"/>
<path d="M71.9753 91.9289C63.0048 98.5397 55.6672 108.889 52.5487 119.328C50.2791 126.925 49.4701 135.709 50.4381 142.241C50.6515 143.681 50.7731 144.987 50.7086 145.144C50.5675 145.487 43.6801 146.859 43.164 146.647C42.9653 146.565 42.619 145.064 42.3945 143.31C40.0903 125.322 45.7934 107.371 58.2244 93.4835C62.1151 89.137 69.9645 82.6906 70.8985 83.0746C71.2003 83.1987 74.5205 88.2439 74.9878 89.2885C75.0656 89.4623 73.71 90.6503 71.9753 91.9287L71.9753 91.9289Z" fill="#8E0808"/>
<path d="M97.2172 110.893C95.4217 111.924 91.2272 115.851 89.1974 118.402C83.2678 125.853 80.217 135.737 81.0355 144.846C81.1976 146.651 81.2896 148.226 81.2398 148.347C81.1172 148.645 74.0906 149.91 73.6238 149.718C72.967 149.448 72.6229 140.06 73.1287 136.212C74.6214 124.858 79.7629 115.239 88.3811 107.676C94.0909 102.666 93.4531 102.737 95.9944 106.832C97.1738 108.732 98.1216 110.314 98.1007 110.347C98.0799 110.38 97.6822 110.626 97.2172 110.893Z" fill="#8E0808"/>
<path d="M142.876 119H142.874C131.788 119 122.801 127.987 122.801 139.073V191.912C122.801 202.999 131.788 211.986 142.874 211.986H142.876C153.962 211.986 162.949 202.999 162.949 191.912V139.073C162.949 127.987 153.962 119 142.876 119Z" fill="#7D7C7C"/>
<path d="M192.399 183.344C192.399 192.865 190.079 202.219 185.673 210.465C181.267 218.71 174.93 225.558 167.299 230.318C159.668 235.079 151.011 237.585 142.199 237.585C133.388 237.585 124.731 235.079 117.1 230.318C109.468 225.558 103.131 218.71 98.7254 210.465C94.3195 202.219 92 192.865 92 183.344H142.199H192.399Z" stroke="#7091B7" stroke-width="10" stroke-linecap="round"/>
<path d="M163.09 138.535H145.693V145.947H163.09V138.535Z" fill="#1A1A1A"/>
<path d="M163.09 147.988H145.693V155.4H163.09V147.988Z" fill="#1A1A1A"/>
<path d="M163.328 157.441H145.693V164.853H163.328V157.441Z" fill="#1A1A1A"/>
<path d="M150.075 233.742H136.38C135.092 233.742 134.049 234.786 134.049 236.073V260.357C134.049 261.644 135.092 262.687 136.38 262.687H150.075C151.362 262.687 152.406 261.644 152.406 260.357V236.073C152.406 234.786 151.362 233.742 150.075 233.742Z" fill="#7091B7"/>
<path d="M174.002 1.00029C174.002 1.00029 186.583 16.8233 205.452 16.8233C224.322 16.8233 255.772 5.94516 270.866 6.93413C285.962 7.92311 285.917 8.16816 285.917 8.16816C285.917 8.16816 289.101 29.3942 256 45.748C247.669 49.864 230.61 54.4028 216.772 49.4585C202.935 44.5138 194.036 35.8953 186.58 24.7348C180.447 15.5539 174 1 174 1L174.002 1.00029Z" fill="black" stroke="black" stroke-width="1.125"/>
<path d="M198.725 22.2552C198.725 22.2552 209.385 29.1966 230.209 28.7013C259.027 28.0149 271.115 18.2891 271.115 18.2891C275.714 15.2222 277.783 11.3118 280.535 7.62934C280.535 7.62934 269.126 6.66039 264.173 6.88548C253.265 7.38137 238.467 11.0972 232.441 12.8353C219.549 16.554 203.683 17.7936 196.742 15.8103C189.8 13.827 186.082 11.1 186.082 11.1C190.139 14.8725 192.323 19.0694 198.725 22.2558L198.725 22.2552Z" fill="white" stroke="black"/>
<path d="M191.668 15.8607C191.668 15.8607 201.429 16.5982 205.487 17.3409C209.567 18.0879 233.453 12.9283 233.453 12.9283L252.137 8.76374L260.881 7.52413L266.816 7.31872L277.71 8.06252C277.71 8.06252 266.491 5.75351 265.088 9.25942C263.686 12.7655 262.369 14.6636 262.369 14.6636C262.369 14.6636 261.888 7.42169 257.085 8.43046C251.185 9.67006 245.993 8.84128 245.993 15.5698C245.993 19.0757 247.52 10.7725 235.638 13.1331C229.158 14.4207 225.573 13.5792 226.523 20.1453C226.84 22.34 227.283 20.1444 223.017 17.3407C220.473 15.669 212.656 17.3264 211.418 17.5006C207.977 17.9851 207.769 23.22 207.803 22.051C207.931 17.6601 191.668 15.8607 191.668 15.8607Z" fill="#FF7070"/>
<path d="M228.908 27.0508C229.049 27.5005 229.386 27.923 229.707 28.2438C229.821 28.3573 229.999 28.4584 230.069 28.5984" stroke="black" stroke-linecap="round"/>
<path d="M248.899 24.082C248.899 25.0823 249.026 26.1503 248.705 27.1128" stroke="black" stroke-linecap="round"/>
<path d="M249 24C249.221 24.0818 249.406 25.2676 249.574 25.8188C249.697 26.2266 249.853 26.7829 250 27" stroke="black" stroke-linecap="round"/>
<path d="M264.182 20.8594V23.1164" stroke="black" stroke-linecap="round"/>
</svg>
