<?xml version="1.0" encoding="UTF-8"?>
<svg xmlns="http://www.w3.org/2000/svg" width="338.190240054858805" height="224.859051082570659" xmlns:xlink="http://www.w3.org/1999/xlink" viewBox="0 0 338.190240054858805 224.859051082570659">
  <defs>
    <style>
      .cls-1 {
        stroke-width: .161175891201617px;
      }

      .cls-1, .cls-2 {
        stroke: #e9e9de;
      }

      .cls-1, .cls-2, .cls-3, .cls-4, .cls-5, .cls-6 {
        stroke-miterlimit: 10;
      }

      .cls-1, .cls-7 {
        fill: #151c22;
      }

      .cls-8 {
        fill: #3657a6;
      }

      .cls-8, .cls-9, .cls-7, .cls-10, .cls-11, .cls-12, .cls-13, .cls-14, .cls-15, .cls-16, .cls-17, .cls-18, .cls-19, .cls-20, .cls-21, .cls-22 {
        stroke-width: 0px;
      }

      .cls-2 {
        stroke-width: .134196066389791px;
      }

      .cls-2, .cls-10, .cls-3, .cls-4, .cls-5, .cls-6 {
        fill: none;
      }

      .cls-9 {
        fill: #b7afa9;
      }

      .cls-23 {
        clip-path: url(#clippath);
      }

      .cls-3 {
        stroke-width: .24270785111997px;
      }

      .cls-3, .cls-4, .cls-5, .cls-18, .cls-24 {
        mix-blend-mode: multiply;
      }

      .cls-3, .cls-5 {
        stroke: #f1b068;
      }

      .cls-3, .cls-5, .cls-18, .cls-24 {
        opacity: .6;
      }

      .cls-4 {
        stroke: #151c22;
        stroke-width: 6.08839308145578px;
      }

      .cls-11 {
        fill: #79c4e0;
      }

      .cls-12 {
        fill: #e2b186;
      }

      .cls-13 {
        fill: #000;
      }

      .cls-5 {
        stroke-width: .256916195516216px;
      }

      .cls-14 {
        fill: #505050;
      }

      .cls-15 {
        fill: #910000;
      }

      .cls-16 {
        fill: #c8c8c8;
      }

      .cls-17 {
        fill: #e9e9de;
      }

      .cls-18, .cls-22 {
        fill: #f1b068;
      }

      .cls-25 {
        opacity: .3;
      }

      .cls-19 {
        fill: #de5f56;
      }

      .cls-6 {
        stroke: #d6e03f;
        stroke-linecap: round;
        stroke-width: 3.78371624067559px;
      }

      .cls-26 {
        isolation: isolate;
      }

      .cls-20 {
        fill: #4d3329;
      }

      .cls-21 {
        fill: #fff;
      }
    </style>
    <clipPath id="clippath">
      <path class="cls-10" d="M36.412701893526901,131.713678662988968c8.467206921402976-6.714068534460239,17.89820085800784-7.835310847178334,23.147187470984136-8.393321082938201,7.011846087129015-.745411515501473,6.386725761263733.590826881189059,12.325209126020127-.397444040339906,2.354306924647972-.391798897740955,8.100182395064621-1.541693339420817,14.801299073724294-1.396282697131028,1.07074558336717.023238354619025,2.101554080605638.078145221939849,3.305348505720758.631157915800941,3.500784528556323,1.608230952748272,4.624153013573959,6.006162670688354,6.113504219149036,9.061625429269043,3.479221320476427,7.137748175820889,5.209630160607048,13.986338681530469,6.062904047959819,19.72081535137113-25.584632338977826,4.028628112188017-61.148098091762222,11.675597495610418-86.732730430738229,15.70422560778934-1.810518216680066-5.587081801159002-2.392724808994899-9.552865695190121-2.279568267751529-12.396478011049112.119463087392432-3.002094896372,1.51837032210824-4.992817498910881,1.892656246793194-5.662912270090601,3.341277242419892-5.982125770871789,8.479603199633857-5.72464058253172,16.345250727395978-12.114237843690717,3.203600960920085-2.602416944739161,2.178778367355335-2.505038398789111,5.018939280742416-4.757148358990889Z"/>
    </clipPath>
  </defs>
  <g class="cls-26">
    <g id="Layer_2" data-name="Layer 2">
      <g id="Layer_1-2" data-name="Layer 1">
        <g>
          <g>
            <path class="cls-20" d="M47.791236268416469,77.136714962271071c4.419453260003138.441052150368705,13.037885960482527,1.301169721758924,18.635085629579407,7.475871310209186,1.996183753883088,2.202134557839599,2.351521653625241,4.552874082279232,6.289892562461318,9.586514869870371,1.50774167916461,1.927042401528524,2.853616161497484,3.422678300348707,3.757303001628316,4.387235091979164l-6.945521015273698-2.51176767051038c.715957364278438.490537035280795,3.740934099878359,2.680528182980197,4.63862703974155,6.821110601909822.66631744580809,3.073389844881603-.198569455398683,5.564724697989732-.591645384894946,6.527167098651262-.050013525575196-.938690962200781-.338549745745695-4.162556605329883-2.873313313151812-6.321212877470316-.628147046440063-.534960067399879-1.275754081283594-.903572004810485-1.862456191434831-1.160940650081102,1.447183486037829,1.716467094222025,3.685202538878002,4.95855785474123,2.90077490906333,8.191802461011321-.365208858438564,1.505232145578702-1.404389852710665,2.865925805299412-3.48275184124941,5.587313124740831-1.388411655887467,1.817991140927916-1.888629220571602,2.163174973789864-2.888826130159941,3.622727328129258-1.380555784329772,2.014611584669183-2.158129479461422,3.882157305000874-2.597543428733843,5.1356398111202-.720767536418862-1.749138169310754-1.441552026535646-3.498240136999812-2.162319562963603-5.247378306299652-.686646434760405,1.146307832557795-1.605312709669306,2.454764341888222-2.827428518859961,3.776841806478842-2.310480990576252,2.499372335749285-4.756946071245693,4.020807814200452-6.541148594549668,4.924937584159125.837736354824301-4.797673684608526,2.277308117405482-16.890214350358292-3.66084748675712-30.20270489197901-4.430787229041016-9.933110748270337-10.979223577480298-16.084641232440845-14.722866375166632-19.117934766589315,6.409745938857668-1.913758106171372,11.744642662335536-1.79364273740066,14.934984700721543-1.475221925329606Z"/>
            <path class="cls-20" d="M7.221046361986737,94.534717896400252c-.203904697185862,3.343552693990205-.082062705067074,5.025566321279257.000955088806222,9.408376591240085.153091873131416,8.082351741879393-.166393455750949,8.623859550580164.159647946913537,13.426257350389278.208751782762192,3.074822696960837.497082495354334,5.609340227090797.718813749694164,7.334410116360232,1.201617958395218-2.532568945358435,2.403231967902684-5.065103938370157,3.604855137215054-7.597658513021088-.121317020795686,2.217918280761296-.020248801363778,5.904326758391107,1.611999096052386,10.012531784672319.950568213091174,2.392565174090123,2.153590243944564,4.256383837910107,3.186761623042912,5.601024759569555-.047308276569311-3.956082108430564-.094602182420203-7.912169427771005-.141896088269277-11.868256747111445.067248003069835,1.731541597309842.508814501001325,7.541094353140579,5.025872477457597,12.655257158270615,3.606365113490028,4.083079376030582,7.890192694701909,5.548593925270325,9.698653984869452,6.055131693889052-1.56416797676502-2.683828180437558-3.128364694970514-5.367645939048089-4.692537882652687-8.051488490207703.767991857901507,1.381121694488684,2.177893590531312,3.514267356549681,4.569596039658791,5.478333301729435,2.232124233592913,1.83303493475978,4.429562087676459,2.788041965899538,5.882143103479393,3.289981397749216-.443787011126915-2.170553259620647-.887563600424983-4.341077777809915-1.331364982272135-6.511625826518866,1.416738891879504.664481370647991,3.164877352483018,1.334746851949603,5.216741436968732,1.819724650969874,3.879100437701709.916837400249278,7.250685826624249.794803559769207,9.575233122661302.5061538134687-.908376965981006-5.313177155569065-4.048017850453107-19.416234831158363-16.196977505136601-31.733826934538229-9.9763948810687-10.114869609911693-21.038941127124417-13.967421559091235-26.334679792935276-15.438329207470815-.179481216378917,1.311061964179316-.40981703727266,3.252631781359014-.553816555553567,5.614003100559785Z"/>
            <path class="cls-17" d="M36.412701893526901,131.713678662988968c8.267778014924261-6.80975502678848,17.756688147048408-7.86398149535853,23.147187470984136-8.393321082938201,6.564615720595611-.64464150384083,6.803018784021333.475128499499988,13.15590647634599-.521407529391581,2.08409427267361-.32692386025883,5.508479738560709-.988609629999701,10.46958825987349-1.237208131358784,4.655815179961792-.233295924870617,5.881063639948479.136944782469072,6.8063619692457.596046839080373,3.044047405697711,1.510333496129533,4.122164268568667,4.976311993279523,6.113504219149036,9.061625429269043,3.479221320476427,7.137748175820889,5.209630160607048,13.986338681530469,6.062904047959819,19.72081535137113-25.584632338977826,4.028628112188017-61.148098091762222,11.675597495610418-86.732730430738229,15.70422560778934-1.810518216680066-5.587081801159002-2.392724808994899-9.552865695190121-2.279568267751529-12.396478011049112.118360802382085-2.974410531842295,1.498732811851369-4.955826764020458,1.892656246793194-5.662912270090601,3.504783848493389-6.290943847940071,8.980003605469392-5.793470667209476,17.255672335482814-12.878657182809548,2.694864396500634-2.307213571912143,1.813094436001847-2.102096408911166,4.10851767265558-3.992729019872058Z"/>
            <g class="cls-23">
              <path class="cls-4" d="M10.66847220489035,159.742994053840448c29.065726585227821-10.539421951139957,58.131488610073575-21.078856752921638,87.197215195306853-31.618278704061595"/>
              <path class="cls-4" d="M7.145647170847951,150.027710832249795c29.065726585226002-10.539421951139957,58.131488610069937-21.078856752910724,87.197215195303215-31.618278704059776"/>
              <path class="cls-4" d="M17.714122272978784,179.173560496999926c29.065726585224184-10.539421951139957,58.131488610069937-21.078856752910724,87.197215195303215-31.618278704050681"/>
              <path class="cls-4" d="M14.191297238934567,169.458277275420187c29.065726585226002-10.539421951139957,58.131488610071756-21.078856752919819,87.197215195305034-31.618278704059776"/>
            </g>
            <path class="cls-14" d="M35.289639930610065,132.622193974861148c1.307549394965463-.988738879601442,2.498149969211227-1.783769615631172,3.492220863718103-2.404903161841503,3.501036462292177-2.187595882169262,9.917605670536432-6.145562374969813,18.388828454273607-6.686183744550362,1.485418848702466-.094809320278728,2.727796852985193-.065330772049492,3.595105506401524-.019277865099866.041262502008976.211581421650408.082606365658648.423172306200286.123868867673082.634753727850693-.775746200313733,1.396239883450107-3.955533330215985,6.735006431359579-10.798194298033195,9.258165391938746-6.973329114913213,2.571358351091476-12.966362483266494.45432863806127-14.430560451964993-.110054443039189-.123760476410098-.224178114169263-.247508465654391-.448321791089256-.371268942068127-.672499905258519Z"/>
            <path class="cls-12" d="M23.73781477045668,117.121901376380265c-2.664381538317684,1.771979017950798-6.393909119129603.509118934300204-8.261830609815661-2.797548984141031-1.867921490687877-3.306667918430321-1.212546092734556-7.485792655948899,1.451835445577672-9.257771673908792,2.269998388082968,4.018440219349941,4.539996776160478,8.036880438708977,6.809995164237989,12.055320658049823Z"/>
            <path class="cls-12" d="M57.593843576329164,105.040162740990127c2.849524648445367-.016237167739746,4.9357105139552-3.151704488800533,4.621421442485371-6.94585826877119-.314289071471649-3.794153779959743-2.91771438543401-6.902944699899308-5.767239033870283-6.886707532159562.381920176518179,4.610848722801165.763897414877647,9.221717078131405,1.145817591384912,13.832565800930752Z"/>
            <path class="cls-3" d="M60.965413795167478,96.115018282700476c-.154412966050586-.365732805450534-.439913839452856-.919938090069991-.818408220115089-1.012289240270547-.814022024596852-.198631741159261-1.598184949427377,1.851144495840344-1.549330715690303,3.78942347480006.018961508991197.75175722529093.180007007878885,2.153516044720163.68113615866605,2.537484405849682.495072973495553.379331552680014,1.124378808202891-.386138788839162,1.209602463452029-1.522594911069973.062784694982838-.837280545239992-.160151812367985-2.004542785509329-.514690645593873-2.124715111400292-.217188106485992-.07360978980978-.470917742544771.250033712200093-.568603465273554.794606940091398-.113354934726885.631764111529264.044122198562036,1.221893955738778.060200829444511,1.280016390719538"/>
            <path class="cls-5" d="M15.645057097734025,111.671094903758785c-.034720698300589-.397365756009094-.036563131397997-1.026475462309463.289271782872675-1.304559255750064.700761199455883-.598082248478022,2.521122885493241.765354833070887,3.463513853213954,2.468417516960471.365490950189269.660536173250875.923126571555258,1.958004031241217.625455673261968,2.552672891300972-.294071751764932.587485255509819-1.305479102496975.254477432428757-1.970248000567153-.684451258281115-.489762917892222-.691754688119545-.866563687815869-1.818679919630085-.57855623915566-2.108299796049323.176434989081827-.177413158178751.591896658790574-.03015417737879.966471323939913.390004471539214.434575774588666.487414560971956.580952615027854,1.0805891693999.59480905169039,1.139309153251816"/>
            <path class="cls-12" d="M34.754108227416509,124.49489970293871c.409488514775148.955212542390655,3.135103373708262,7.419081097621529,1.425127426138715,8.616286448632309-.134870126314127.094417175620038-.304070323838459.160794681920379-.51832298615227.183508250678642.929725503092413,1.129759754161569,3.902617083082077,4.442601554350404,8.961208994332992,5.505554973360631,3.16185790617601.664407975049471,5.805789003428799.169752074958524,7.258633920810098-.221204727869917,1.401341165481426-.811063559191098,4.102849421622523-2.62440770602916,6.233044113389042-5.982743617689266,2.209339389297384-3.483116004110343,2.662241615136736-6.827956447072211,2.775931191317795-8.449740591280715-.118229723533659.109456517369836-.300798460164515.243673680739448-.543152145797649.286333002779429-1.246651987377845.219425263268931-2.627134128195394-2.238861015750444-3.258715294647118-3.363607418130414-.516747982837842-.920254536078573-1.179089602166641-2.311669316630287-1.637307504443015-4.163996640949335-6.898826801758332,2.529884898220189-13.797620913192077,5.059725422250267-20.69644771494859,7.589610320468637Z"/>
            <path class="cls-18" d="M43.372381295141167,131.398247313840329c4.407343778835639-.219232300629301,9.467827928776387-4.462984428510026,13.258845484426274-11.207460571591582-.412259060114593-.85324175345886-.849611515834113-1.947190155939097-1.180666124251729-3.285496856538884-6.898825081680116,2.529886626400184-13.797628213285861,5.059726328390752-20.696453294955063,7.589612954789118.241298377319254.562832252240696,1.28611562442893,3.037939309710055,1.754439533078767,5.221501125241048,2.345331307165907,1.902495505841216,5.413722694251192,1.753991881840193,6.863834401701752,1.681843348100301Z"/>
            <path class="cls-12" d="M53.572342087880315,81.51706673002991c-4.96706953494504-8.688326766670798-16.779389527215244-18.145664988769568-28.38161771581872-14.091711489429144-11.583388419669063,4.047390370129506-15.164852182377217,18.839491938679203-13.520242592578143,28.011203552669031.454900719287252,2.536939564970453,2.035670172061145,7.932580630620578,5.617194945489246,13.139834616838925,1.178324219601564,1.713196337241243.966968817816451,1.06641747527101,3.619926963714533,4.570700439322536,4.603729788979763,6.080983185718651,5.45922461252303,8.317810400189046,8.684788792701511,10.160993091469209,1.44845283414179.827681617878625,2.681570475229819,1.179849331969308,4.298178357859797,1.641547406659811.733183517359066.209396928968999,1.766454442573377.468582507519386,3.014680924583445.670311691728784,1.375247455685894.222256199900585,3.232555925247652.409877130710811,5.449523402574414.310188384821231.69550112109755.188345216829475,2.408170977050759.550348529450275,4.406270975745429-.101411019619263,2.565554768743823-.836855593672226,3.8487827765166-2.773241857801622,4.189155517426116-3.326876443152287,4.316153010891867-4.391516256948307,5.911110703131271-8.371547567818197,6.582177482425323-10.769263896529083.068276209276519-.243945321990395.196299611186987-.627555867040428.292740973160107-1.170056745859256.321145742087538-1.806603064149385.062368701037485-3.942355533221416-.32060692442974-11.280444680010987-.109294340425549-2.093548957069288-.185735605948139-3.788830048279124-.230676857790968-4.824554788488967-.169537081310409-3.167570992380206-.888046217492956-8.019146052050928-3.701494245062349-12.940460120420539Z"/>
            <g class="cls-24">
              <path class="cls-22" d="M42.978012379291613,106.76338201064209c-.474670692428845,2.682592249784648-3.823084940406261,4.348712565406458-6.138476883514159,2.652217433495025,2.583702574404015.556338875716392,4.712754848014811-.477676647664339,6.138476883514159-2.652217433495025h0Z"/>
            </g>
            <g>
              <path class="cls-21" d="M36.431968142025653,117.857918293040711c2.175194944626128-.350672965520062,5.278525544174045-1.138512284211174,8.54419839044931-3.046116777570205,1.61528493122205-.943551765900338,2.934003844067774-1.964624457150421,3.981500990146742-2.903952064130863.005476145457578.341511708740654.003339244001836,4.273295139320908-3.157071782858111,6.481236514360717-2.694139763581916,1.882184782440163-6.533383205607606,1.708264048089404-9.368627597737941-.531167672659649Z"/>
              <path class="cls-19" d="M36.297714527729113,117.82734685439209c.251634867947359-.137987259420697.680509662124678-.208871471180828.971067536749615-.266833588630107,4.258957716079749-.90806450648779,8.305861692153485-2.892005867928674,11.525750971564776-5.834499905089615.000007663560609.000015134344721.409065280748109-.371566896905279.409065280748109-.371566896905279.161954198903913,3.182239124704211-1.403242093705558,6.560387102730601-4.424743496387237,7.863249411060679-2.745690512863803,1.220455781374767-6.31918355889502.721650529838371-8.481140292675263-1.390349020435679h0ZM36.568832691791613,117.89277654189209c5.449509005406071,3.58801552116347,12.007308938324059.787501549606532,12.144631873457911-5.981078792407061.000021446854589.000121761157061.407125939042089.178100276782061.407125939042089.178100276782061-3.312193652218411,2.946062116774556-7.430381999112797,4.977619421932104-11.795656898872039,5.755849014249179-.212389029842598.033562189049917-.534110655395125.122950433973529-.756100913627961.047129501375821h0Z"/>
            </g>
            <path class="cls-20" d="M39.631861048361316,70.79219926532096c.383651038648168.338297059348406,1.044414130874429.927417585950025,1.738347536325819,1.855716388099609,1.10583635058174,1.479289915219852,1.565339384736944,2.842600060290351,2.066327978551271,4.371153523708927.343783968157368,1.048900526340731.731826418037599,2.477584161240884.974409049775204,4.221545679291012-1.144330843349962-1.185922055610718-2.288632265675915-2.371793633459674-3.432927425257731-3.557678599690917.483359733669204,1.213073167800758,1.118139161513682,3.286123954831055.978780731671577,5.881231065121028-.081174300245038,1.51133029543962-.402089985254861,2.775407160328541-.725718190802581,3.718322589898889-.715268111538535-2.213222857410074-1.430538004482514-4.426450627599479-2.145814160172449-6.639665009419332.287153681769269.977438074949532,1.130199722210818,4.297341594949103-.42803724094847,7.993744963820063-1.244042163427366,2.951197244448849-3.356283602122858,4.570858248320292-4.269032277385122,5.192103689008945.368457956665225-1.788655625798128.736925738889113-3.577314814408965,1.105344448969845-5.366017355159784-.16901247964779.913527099100975-.554730829186155,2.366440663479807-1.519194003338271,3.909209035980894-.900131558009889,1.439829194499907-1.945525209217521,2.383884947919796-2.660841218030328,2.93586356528067-.159606276711202-1.29263001470099-.319232204541549-2.585252903771107-.478842044067278-3.87789274403076-.724032926782456.64527421692037-1.57625185177676,1.326201108679015-2.565677375521773,1.991904026150223-1.5808187161565,1.063606231489757-3.090892453317792,1.805112862890383-4.377179211751354,2.327043852339557-4.57875675582909-3.614852128279381-6.848921728716959-9.167815434509976-5.784216195908812-14.357704720359834.911228863535143-4.441758998700607,3.95350860068902-7.098407416509872,5.058901869200781-7.975229732199296-1.518845280243113,1.218696735199046-3.037702167446696,2.437392120418735-4.556547447689809,3.656088855619601,1.312944054461695-2.294781419650462,4.253055532477447-6.598105252611276,9.621650091190531-8.955304765109759,1.288163262277521-.565597072160017,2.527297392269247-.936231379269884,3.661118393230936-1.178271293221769,1.773641150530239.462858641050843,5.112339574307043,1.537557224040938,7.739146691958013,3.853836984872032Z"/>
            <path class="cls-20" d="M26.982353436082121,65.36316440326118c.544802774900745-.161288721270466,2.488464727346582-.51434814473032,6.390896191634965-1.126920280090417,5.508424576941252-.864670402201227,5.837958443717071-1.146584985170193,9.139138356138574-1.500675801431498,2.113637566424586-.226717280598677,3.86980417722225-.334618186148873,5.068155440207192-.390748184519907-1.576275748320768,1.119740924101279-3.1525227552047,2.239471426360979-4.728795898063254,3.359219535821467,1.492017314543773-.348217637991183,4.008183087113139-.721373947220854,6.994375733662309-.105008916081715,1.739106037601232.358945863841654,3.149317876748682.952736765309965,4.18651843094267,1.493384815870741-2.692912959042587.441993978989558-5.385806336445967.883997117780382-8.078714084571402,1.326005467490177,1.184231657020064-.16183987650038,5.183384477411892-.558165664910121,9.198621015544632,1.897192694870682,3.205717430386358,1.960330938938569,4.714610213595734,4.694543857289318,5.275418115452339,5.862270253579482-2.010492350738787-.740834141539381-4.020992517853301-1.481689839150931-6.031487474048845-2.222531166049521,1.03018674075247.356149859730067,2.648139222028476,1.058190665979055,4.268890789262514,2.447406421988489,1.512636581441257,1.29652408524089,2.424703585080351,2.674712345251464,2.939744140623588,3.601244566230889-1.527572611961659-.041314253849123-3.055111271565693-.08262455879958-4.58268648898229-.123945998009731.621149671624153.882706747490374,1.285950566150859,1.989830200420329,1.86130078435599,3.325463055769433,1.087670173983497,2.525063265740755,1.408858524515381,4.829884988799677,1.491384324317551,6.443471645519821-4.946242618305405-.357648184079153-13.939202188599666-1.672867554108961-23.496895471629614-7.198809238259855-7.792826196910028-4.505553605900786-12.838240957291418-10.004816174270672-15.7024277718956-13.666474719970211,2.277792857787063-2.096094279539102,4.354122235383329-2.990538295409351,5.806563867048681-3.420544152728326Z"/>
            <path class="cls-20" d="M5.456467650712511,97.470295830149553c.317926064042695,5.47113192192046,3.161335095799586,9.29140657003154,4.43994849572664,10.810513149121107,1.524518550015273-.836427586829814,3.049037100032365-1.672855173659627,4.573555650045819-2.509282760500355,2.457737839513356-2.788663242241455,7.100366872175073-8.80934874156992,9.245418837206671-17.84768960969086,2.241858002933441-9.446249831020396.576546299324036-17.220538247500372-.433480810410401-20.812272003209728-1.678651646827348.383420780910456-3.902767456984293,1.050744610651236-6.346423406946997,2.267002324200803-2.8684138940298,1.427668201038614-4.88486603711317,3.037102659180164-5.951785724111687,3.96465991804871-2.572374725099507,2.236375141970711-3.118273250864149,3.545976637240528-6.552391924455151,7.481213758790545-1.848093525000877,2.117771059260122-3.437524339413358,3.741048443420368-4.431308767767405,4.726712756610141,2.314473135707885-1.091357940598755,4.628948876872528-2.182708695829206,6.943422012580413-3.274066636429779-.817633398059115.775408065279407-2.950997222671504,3.00209969305979-3.734443738883783,6.64848947973951-.78426755970213,3.650224102790162.24910626140263,6.559399893050795.676497825859769,7.601698306380058-.041972402370448-.50211606521043-.097884529151997-1.979393043369782.86869525615657-3.340348884039486.416023178466276-.585765134159374.894642295304948-.971414008610736,1.261627573028818-1.213810930710679-.3743353377522,1.42072563479087-.686868358128777,3.302336083250339-.559331278029276,5.497181131690013Z"/>
            <path class="cls-20" d="M13.098080180536272,103.538162395729159c1.825572993933747,2.366716324480876,3.797196349676597,4.779129943010048,5.927422248143557,7.221140369700151,1.514097731087531,1.73570658636163,3.035520079614798,3.40291434673054,4.555957770320674,5.003326482561533-2.950420960003612-4.072075262640283-4.265394971269416-7.693232725750931-4.917514814942479-10.302455236931564-.632820058692232-2.532006555458793-.918317918127286-5.218889505249535-2.296624861270175-5.160348197128769-1.083991019149835.04604601561914-2.355213926590295,1.769443689829131-3.269240342251578,3.238336581798649Z"/>
            <path class="cls-20" d="M56.372694673387741,85.502085755280859c.530704925136888,4.131451228928199.992112770809399,8.428876157668128,1.362686384010885,12.883596423378549.263393804976658,3.166277909031123.468238018465854,6.259785882160941.621822910008632,9.27601049346049-1.04992963433142-6.960132875430645-2.923132082865777-12.131361343510434-4.484921769037101-15.627681373209271-1.515571834388538-3.392850770829682-3.400977033328672-6.692906671230958-2.365950961971976-7.698151508970113.814016532138339-.790584441061583,3.067405879020953.194646623809604,4.866363436989559,1.166225965340345Z"/>
            <rect class="cls-15" x="22.048895033846794" y="101.223166162800069" width="12.12305889542213" height="6.714276995240041" transform="translate(-33.966450560412547 15.846446001939313) rotate(-19.930974745603624)"/>
            <rect class="cls-15" x="39.979235756603053" y="94.721507721519913" width="12.123058895425693" height="6.714276995235537" transform="translate(-30.676158209841091 21.569257470801134) rotate(-19.930974745641077)"/>
            <g id="_9VrKlJ" data-name="9VrKlJ">
              <path class="cls-13" d="M49.991267988445543,105.119187082938879c-.718128691256425.072233822691487-1.467677253691363.230580878831461-2.217351918112399.205386461011585-1.461928872391582-.049126518681078-2.924516178376507-.188808490380325-4.385686794954381-.314787262890604-.894973315960669-.077162542249425-1.786775983942789-.224666099469687-2.681862195324356-.294151868520203-1.461801058710989-.113481831529498-2.741306782980246.344352707339567-3.783699344236084,1.375153217710249-.800402378332365.791502091518851-1.562854784444426,1.625309814719003-2.32533389451055,2.457070477650632-1.230639168006746,1.342460136609589-2.527314925675455,2.605428254388244-4.111173681652872,3.493661201810028-.401918895840936.225393748838542-.897049821203836.407934784949248-1.348532951571542.390608313140547-2.667297864951252-.102360405760919-5.268459948729287-.629375505101052-7.684926507061391-1.944574834342347-.820093054751851-.446349607238517-1.555336539531709-1.069872344658506-2.328530893550123-1.613730488088549-.219213424021291-.154193625219705-.253827993867162-.350743533430432-.203145424955437-.61532268027986.532700786479836-2.780832334290608,1.672847906007519-5.276935726858937,3.094639450919203-7.641469859599965.250583399298193-.416736570550711.531472095266508-.813024260709426.793936526846664-1.221915897671352.332136768922282-.517434710098314.80742139139511-.776850822578126,1.399035349275437-.864595702769293,2.26114777919247-.335357780390041,4.544707774492053-.333225789929202,6.832585279707928-.288297065089864.845586902451032.016605041320872,1.690900685764063.00116558101945,2.535921206257626-.009327689729616,1.834323087761732-.022780002000218,3.439725654698123-.663095827459983,4.84406657798354-1.82849931894998,1.534616740720594-1.273513325100794,3.045270314920344-2.578771709440844,4.603739996282457-3.8202907263003.83653794336351-.666408546869206,1.747289926965095-1.234639088339463,2.632828413868992-1.834318432449436.471667101319326-.319409363950399.992202091765648-.389673202200356,1.555579456711712-.228022692730519,3.034956665629579.870827698010544,5.894979520942798,2.14303480118906,8.464517386399166,4.118395008490552.427086338224399.328330006039323.534389577342154.644235772730099.438396913066754,1.159858922099374-.357900198861898,1.922529451079754-1.164655276072153,3.61763166845958-2.217343344131223,5.194124339570408-.876578082057677,1.312744866050707-1.910673056696396,2.481264480349637-3.058325392255938,3.53840885091995-.237773316644962.21901912038993-.532906081400142.371168628438681-.849334215003182.586637727008565ZM41.895752013291713,101.526310077380913c2.145372287213831.182698499658727,4.163148292016558-.034004985202046,5.859655731144812-1.358820351590111,1.488067186552144-1.162043258220365,2.279356941395235-2.807043329299631,2.746312830522584-4.665198762580985-4.402078334460384-.58511645175895-7.550065044069925,1.511981519201072-8.605968561667396,6.024019114171097ZM23.483188626034462,105.529119009630449c1.798435243945278,1.127929681189926,3.654661720785953,1.873048452920557,5.737127108426648,1.528747535039656,1.909820904200387-.315755459299908,3.388988009826789-1.420344463229412,4.686592901947733-2.86188392844997-3.808011113605971-2.627003361791139-7.510096169648023-2.074906668451149-10.423720010374382,1.333136393410314Z"/>
            </g>
            <path class="cls-20" d="M32.220444019916613,98.92085271376709c-4.782772455748272-.269460925199382-9.939194860447969-.818502821308357-14.671382080123294-1.557437571485934-.000004638626706.000064524610934,3.675044189498294.018619212110934,3.675044189498294.018619212110934,3.526115423746887.024802384048598,7.433567162777763-.212738020467441,10.968997418009167-.464590783525637-.000003277364158-.000008825853001.027340472601281,2.003409142902456.027340472615833,2.003409142900637h0Z"/>
            <path class="cls-20" d="M38.051986988666613,94.79292302626709c3.882114179830751-2.746221090214021,7.933502346309979-5.928429538349519,11.526573404549708-9.043508878121429.000037923575292.000051846871429-2.463707193612208,2.732473721871429-2.463707193612208,2.732473721871429-2.376403407650287,2.647067475316362-5.209744698546274,5.3996749816597-7.799677592593071,7.866220052501376-.000005024594429-.000009115001376-1.263188618344429-1.555184896251376-1.263188618344429-1.555184896251376h0Z"/>
          </g>
          <g>
            <circle class="cls-11" cx="198.849068782436007" cy="112.429525541282601" r="112.429525541283965"/>
            <g>
              <path class="cls-16" d="M117.86752971122587,147.306165250020058c-36.397799761150964,6.899300729159222-72.795801723310433,13.798803659310579-109.193601484461396,20.698104388429783,1.684031128119386,1.684132228620001,3.368062256238773,3.368264457240002,5.052093384361797,5.052194484849679,67.906480153578741,11.191017208031553,135.813263608681154,22.381832215021859,203.719743762259895,33.572849423060688,29.370910193458258-13.56020646520119,58.741820386931067-27.120412930360544,88.112730580400239-40.680619395519898.139923100268788-2.677950202420107.27994730106002-5.356102605850538.419870401328808-8.034052808270644-2.515178387777269-1.24980445492838-5.03025567505756-2.499406708819151-7.545434062847562-3.749211163758446-60.188467527010289-2.286489043261099-120.376935054029673-4.572775885520969-180.565402581041781-6.859264928791163Z"/>
              <path class="cls-16" d="M150.951558187845876,20.837115906610052c-10.756285032299274,40.472352353199312-21.512671165099164,80.944502505359196-32.269057297900872,121.416854858560328,62.431853955022234,5.220195475660148,124.863993658251275,10.440390951329391,187.295858391251386,15.660586427020462,3.225279085838338.269679391498357,6.136775173261412-1.930951560050744,6.757301631270821-5.107443189310288,8.460621957499825-43.310151371360917,16.921329297958437-86.620302742740023,25.381955703589483-129.930454114110034.467971149060759-2.395555639901431-1.385940075499093-4.615129400030128-3.826542282138689-4.581296145570377-61.113287249820132.847193120589509-122.226209548660336,1.694568716649883-183.339516146072128,2.54175216340991Z"/>
              <path class="cls-7" d="M145.084479206767355,20.837204408409889c-10.756361448640746,40.472245088829368-21.512722897292406,80.944490177640546-32.269084345942247,121.416735266449905,64.320879785871512,5.378180724341291,128.641983812081889,10.756361448658936,192.962863597962496,16.134542172980218,9.126582533348483-46.719581437209854,18.253389307059479-93.439162874419708,27.379971840417056-140.158744311629562-62.691325110939943.869155624079212-125.382425981508277,1.738311248140235-188.073751092437305,2.607466872199439Z"/>
              <path class="cls-9" d="M112.815394860825108,142.253939674859794c-34.713752718878823,8.583472388510927-69.427729678111064,17.166944776990931-104.141482396993524,25.75041716548003,69.101684198914882,9.77867349176995,138.203144157476345,19.556898502820331,207.30482835638395,29.335571994559359,29.933172546188871-12.983965155899568,59.86634509238138-25.96748183112868,89.79951763857207-38.951446987059171-64.320879785880607-5.378180724321282-128.641983812090984-10.756361448638927-192.962863597962496-16.134542172980218Z"/>
              <path class="cls-8" d="M149.484747733846234,27.030274590370027c-9.398137605789088,36.723843279789435-18.796499451920681,73.447686559580688-28.19463705770977,110.171529839370123,58.45385508309846,4.400492767428659,116.907710166200559,8.800537054159577,175.361565249288105,13.201029821590055,8.311693075713265-41.558913859260429,16.623610391779948-83.117379237799469,24.935303467482299-124.676293097050802-57.367410553018999.434577812040516-114.734821106030722.869155624050109-172.102231659060635,1.303733436090624Z"/>
              <path class="cls-17" d="M123.895110904386456,145.350250525500087c-19.031503346141108,4.705908133770208-38.063006692289491,9.411367786839037-57.094510038441513,14.117275920640168,54.126240431713086,7.245654418118647,108.25248086342981,14.490860355530458,162.378721295150171,21.736514773660019,17.427960552631703-7.559590918050162,34.8559211052725-15.119181836100324,52.283881657902384-22.678772754150486-52.522697638200043-4.391523153150047-105.045395276400086-8.783046306309188-157.568092914611043-13.175017940149701Z"/>
              <path class="cls-7" d="M112.702959344196643,168.160624956550237c-5.883621583299828,2.128461675680228-11.767172189222038,4.256783378610635-17.650788744380407,6.385232236680167-.468448229919886.169465173459685-.398382879109704.852738831699753.094712563928624.923584249228952,16.573504459869582,2.381195891930474,33.147096121090726,4.762389464760417,49.720603588022641,7.143582979650091.82692812951791.118808641029318,1.670069119609252-.034491784270358,2.402252761767159-.436776184589689,4.409168666741607-2.422534007710055,8.818274825200206-4.845068334800089,13.22744129277271-7.267606725890801.405090726308117-.222569921897957.290471528307535-.833225972350192-.167755611742905-.89375493065927-15.270725136208057-2.01716791609033-30.541278340690042-4.033809588609074-45.812009162296818-6.050797812380551-.611826792361171-.080811288567929-1.234123193631603-.01340552642796-1.814456688071004.196536187961101Z"/>
              <g>
                <polygon class="cls-7" points="264.550478606115576 157.111137130619682 248.500995885426164 155.769161988519045 233.24994535726546 154.493947637040037 218.739621232927675 153.28066901505008 204.917134135985179 152.124903785190327 191.734707839697876 151.022657145229459 179.148704276705757 149.970280304580228 167.119898607137657 148.964493484010745 155.611919839824623 148.002255528419482 144.591494980237258 147.08078432126058 134.02859614832596 146.197569085750729 123.895160268655673 145.3502633319913 119.613365491995864 146.465978063639341 115.252956892336442 147.602177336269961 110.811749383914503 148.759430521440663 106.287476143885215 149.938328289170386 101.677784754296226 151.139483613080301 96.980233123476864 152.363532833240242 92.192285172046468 153.611136780298693 87.311306267425607 154.882981965080035 82.334558389515223 156.179781838220151 77.259195009106406 157.502278124840814 72.082255658757276 158.851242239041312 66.800660174454606 160.227476784581086 76.860096483806046 161.526984778200131 87.400040978596735 162.888566252770033 98.455936216747432 164.316799783558963 110.066257335047339 165.816655703711149 122.273971240456376 167.393684606318857 135.126602292846655 169.054025830020692 148.676220527404439 170.804405937298725 162.981324331727592 172.652381924310248 178.106911106666303 174.606350349378772 194.125904194086615 176.675731667201035 211.119336642337657 178.870993968859693 229.179192833727939 181.204020071139894 234.193877131378031 179.028841112040027 239.07279227703475 176.912553637441306 243.821378412254489 174.852797921310412 248.444788867514944 172.847338645209675 252.94790881769768 170.894056806409935 257.335372500047015 168.990942249329237 261.611579122434705 167.136086765429354 265.780707576235727 165.327677710660282 269.84673005818513 163.563992097580922 273.813424693225897 161.84339111952977 277.684387244067693 160.164315071569945 281.463041982826326 158.525278635101131 264.550478606115576 157.111137130619682"/>
                <g class="cls-25">
                  <polygon class="cls-2" points="123.895129816844928 145.350251923009637 134.028613338947252 146.197561476519695 129.751257638718016 147.344510624800023 119.613340034627981 146.465965177319958 123.895129816844928 145.350251923009637"/>
                  <polygon class="cls-2" points="134.028613338947252 146.197561476519695 144.591563921696434 147.080780847460119 140.32290578800712 148.260642883600667 129.751257638718016 147.344510624800023 134.028613338947252 146.197561476519695"/>
                  <polygon class="cls-2" points="144.591563921696434 147.080780847460119 155.611874488537069 148.00224229801097 151.356727360296645 149.216826795280213 140.32290578800712 148.260642883600667 144.591563921696434 147.080780847460119"/>
                  <polygon class="cls-2" points="155.611874488537069 148.00224229801097 167.119906856487432 148.964484526539309 162.883707753304407 150.215747534570255 151.356727360296645 149.216826795280213 155.611874488537069 148.00224229801097"/>
                  <polygon class="cls-2" points="167.119906856487432 148.964484526539309 179.148771079764629 149.970276024800114 174.937665474926689 151.260335791630496 162.883707753304407 150.215747534570255 167.119906856487432 148.964484526539309"/>
                  <polygon class="cls-2" points="179.148771079764629 149.970276024800114 191.734643599376795 151.022641679850494 187.555583520046639 152.353796489231172 174.937665474926689 151.260335791630496 179.148771079764629 149.970276024800114"/>
                  <polygon class="cls-2" points="191.734643599376795 151.022641679850494 204.917130636755246 152.124893159460044 200.777988373507469 153.499641626540324 187.555583520046639 152.353796489231172 191.734643599376795 151.022641679850494"/>
                  <polygon class="cls-2" points="204.917130636755246 152.124893159460044 218.739684520547598 153.280663722820464 214.649384820264459 154.701727959700293 200.777988373507469 153.499641626540324 204.917130636755246 152.124893159460044"/>
                  <polygon class="cls-2" points="218.739684520547598 153.280663722820464 233.250082165706772 154.493948228850059 229.218756391705028 155.964300370220371 214.649384820264459 154.701727959700293 218.739684520547598 153.280663722820464"/>
                  <polygon class="cls-2" points="233.250082165706772 154.493948228850059 248.500976805857135 155.769149269030095 244.540143304884623 157.292041948669066 229.218756391705028 155.964300370220371 233.250082165706772 154.493948228850059"/>
                  <polygon class="cls-2" points="248.500976805857135 155.769149269030095 264.550536405864477 157.111130548059009 260.673312266104404 158.690132039590026 244.540143304884623 157.292041948669066 248.500976805857135 155.769149269030095"/>
                  <polygon class="cls-2" points="264.550536405864477 157.111130548059009 281.463185069254905 158.525278876830271 277.684535637197769 160.164313763360042 260.673312266104404 158.690132039590026 264.550536405864477 157.111130548059009"/>
                  <polygon class="cls-2" points="119.613332159535275 146.465967229349189 129.751249770275535 147.344512734700402 125.393701541344853 148.512965063699085 115.252928598436483 147.602165009870077 119.613332159535275 146.465967229349189"/>
                  <polygon class="cls-2" points="129.751249770275535 147.344512734700402 140.322897934054708 148.260645054459019 135.972481990056622 149.463105043789255 125.393701541344853 148.512965063699085 129.751249770275535 147.344512734700402"/>
                  <polygon class="cls-2" points="140.322897934054708 148.260645054459019 151.356719529567272 149.216829030459849 147.018274435306012 150.455190007171041 135.972481990056622 149.463105043789255 140.322897934054708 148.260645054459019"/>
                  <polygon class="cls-2" points="151.356719529567272 149.216829030459849 162.883699955777047 150.215749837720068 158.562702040775548 151.492060208640396 147.018274435306012 150.455190007171041 151.356719529567272 149.216829030459849"/>
                  <polygon class="cls-2" points="162.883699955777047 150.215749837720068 174.93765772185543 151.260338166790461 170.64030900162652 152.576818257370178 158.562702040775548 151.492060208640396 162.883699955777047 150.215749837720068"/>
                  <polygon class="cls-2" points="174.93765772185543 151.260338166790461 187.55557582417714 152.353798940599518 183.288905786497708 153.712860124929648 170.64030900162652 152.576818257370178 174.93765772185543 151.260338166790461"/>
                  <polygon class="cls-2" points="187.55557582417714 152.353798940599518 200.777980749267954 153.499644158810042 196.549964530886427 154.903910657889355 183.288905786497708 153.712860124929648 187.55557582417714 152.353798940599518"/>
                  <polygon class="cls-2" points="200.777980749267954 153.499644158810042 214.649377284067668 154.70173057799002 210.469073291946188 156.154064376940369 196.549964530886427 154.903910657889355 200.777980749267954 153.499644158810042"/>
                  <polygon class="cls-2" points="214.649377284067668 154.70173057799002 229.218748962126483 155.96430308005074 225.096459647947995 157.46783250442968 210.469073291946188 156.154064376940369 214.649377284067668 154.70173057799002"/>
                  <polygon class="cls-2" points="229.218748962126483 155.96430308005074 244.540136003155567 157.292044756119139 240.48759631496614 158.850197358038713 225.096459647947995 157.46783250442968 229.218748962126483 155.96430308005074"/>
                  <polygon class="cls-2" points="244.540136003155567 157.292044756119139 260.673305116366464 158.690134951330037 256.703904171065005 160.306675493498915 240.48759631496614 158.850197358038713 244.540136003155567 157.292044756119139"/>
                  <polygon class="cls-2" points="260.673305116366464 158.690134951330037 277.684528667026825 160.164316786740528 273.813571469674571 161.843391282760422 256.703904171065005 160.306675493498915 260.673305116366464 158.690134951330037"/>
                  <polygon class="cls-2" points="115.252920578064732 147.602167099739745 125.393693524714763 148.512967213309821 120.953676233684746 149.703533162781241 110.81171815221569 148.759418778048712 115.252920578064732 147.602167099739745"/>
                  <polygon class="cls-2" points="125.393693524714763 148.512967213309821 135.972473984946191 149.46310725640069 131.537928652385744 150.688820705869148 120.953676233684746 149.703533162781241 125.393693524714763 148.512967213309821"/>
                  <polygon class="cls-2" points="135.972473984946191 149.46310725640069 147.018266450546434 150.455192286330202 142.594053274844555 151.718034809480741 131.537928652385744 150.688820705869148 135.972473984946191 149.46310725640069"/>
                  <polygon class="cls-2" points="147.018266450546434 150.455192286330202 158.562694086374904 151.49206255819081 154.154325406076168 152.794179980150147 142.594053274844555 151.718034809480741 147.018266450546434 150.455192286330202"/>
                  <polygon class="cls-2" points="158.562694086374904 151.49206255819081 170.640301088946217 152.576820681370009 166.254032464677948 153.920541121999122 154.154325406076168 152.794179980150147 158.562694086374904 151.49206255819081"/>
                  <polygon class="cls-2" points="170.640301088946217 152.576820681370009 183.288897928416191 153.712862627930008 178.931833761396774 155.100717028350118 166.254032464677948 153.920541121999122 170.640301088946217 152.576820681370009"/>
                  <polygon class="cls-2" points="183.288897928416191 153.712862627930008 196.549956742044742 154.903913244799696 192.230173107565861 156.3386587915993 178.931833761396774 155.100717028350118 183.288897928416191 153.712862627930008"/>
                  <polygon class="cls-2" points="196.549956742044742 154.903913244799696 210.469065588966259 156.154067053121253 206.19575353118671 157.638713994270802 192.230173107565861 156.3386587915993 196.549956742044742 154.903913244799696"/>
                  <polygon class="cls-2" points="210.469065588966259 156.154067053121253 225.096452049767322 157.46783527567095 220.880085288177725 159.005677723631379 206.19575353118671 157.638713994270802 210.469065588966259 156.154067053121253"/>
                  <polygon class="cls-2" points="225.096452049767322 157.46783527567095 240.487588843165213 158.85020023081961 236.340120719927654 160.444851670370554 220.880085288177725 159.005677723631379 225.096452049767322 157.46783527567095"/>
                  <polygon class="cls-2" points="240.487588843165213 158.85020023081961 256.703896850336605 160.30667847488985 252.638992450136357 161.962112847340904 236.340120719927654 160.444851670370554 240.487588843165213 158.85020023081961"/>
                  <polygon class="cls-2" points="256.703896850336605 160.30667847488985 273.813564328234861 161.843394380450263 269.846875092165646 163.563993805930295 252.638992450136357 161.962112847340904 256.703896850336605 160.30667847488985"/>
                  <polygon class="cls-2" points="110.811709982577668 148.759420906841115 120.953668064596059 149.703535353290135 116.428818185564523 150.916848689528706 106.287441868966198 149.938317152820673 110.811709982577668 148.759420906841115"/>
                  <polygon class="cls-2" points="120.953668064596059 149.703535353290135 131.537920491706245 150.688822961488768 127.016781572465334 151.938470978300757 116.428818185564523 150.916848689528706 120.953668064596059 149.703535353290135"/>
                  <polygon class="cls-2" points="131.537920491706245 150.688822961488768 142.59404513143636 151.71803713393092 138.081495118947714 153.006094426200434 127.016781572465334 151.938470978300757 131.537920491706245 150.688822961488768"/>
                  <polygon class="cls-2" points="142.59404513143636 151.71803713393092 154.154317290025574 152.794182377419929 149.655900818635928 154.12289757427061 138.081495118947714 153.006094426200434 142.59404513143636 151.71803713393092"/>
                  <polygon class="cls-2" points="154.154317290025574 152.794182377419929 166.254024387426398 153.920543596421339 161.77604713722576 155.292358703800346 149.655900818635928 154.12289757427061 154.154317290025574 152.794182377419929"/>
                  <polygon class="cls-2" points="166.254024387426398 153.920543596421339 178.931825735957318 155.100719584708713 174.481464034086457 156.518292022190508 161.77604713722576 155.292358703800346 166.254024387426398 153.920543596421339"/>
                  <polygon class="cls-2" points="178.931825735957318 155.100719584708713 192.230165148766901 156.338661434980168 187.815593656358033 157.804889219871257 174.481464034086457 156.518292022190508 178.931825735957318 155.100719584708713"/>
                  <polygon class="cls-2" points="192.230165148766901 156.338661434980168 206.195745655895735 157.638716730351007 201.826286592366159 159.156767353690157 187.815593656358033 157.804889219871257 192.230165148766901 156.338661434980168"/>
                  <polygon class="cls-2" points="206.195745655895735 157.638716730351007 220.880077515606899 159.005680558540917 216.566375629814502 160.579024207880138 201.826286592366159 159.156767353690157 206.195745655895735 157.638716730351007"/>
                  <polygon class="cls-2" points="220.880077515606899 159.005680558540917 236.340113072104941 160.444854610859693 232.094341518286456 162.077302533120019 216.566375629814502 160.579024207880138 220.880077515606899 159.005680558540917"/>
                  <polygon class="cls-2" points="236.340113072104941 160.444854610859693 252.638984952185638 161.962115900911158 248.475088420747852 163.65786486891011 232.094341518286456 162.077302533120019 236.340113072104941 160.444854610859693"/>
                  <polygon class="cls-2" points="252.638984952185638 161.962115900911158 269.84686777297793 163.56399698073983 265.780850733966872 165.327681041919277 248.475088420747852 163.65786486891011 252.638984952185638 161.962115900911158"/>
                  <polygon class="cls-2" points="106.287433545794556 149.938319321609015 116.428809859675312 150.916850922090816 111.816672678827672 152.153569862959557 101.677747326224562 151.139473108880338 106.287433545794556 149.938319321609015"/>
                  <polygon class="cls-2" points="116.428809859675312 150.916850922090816 127.016773251647464 151.938473278150923 122.406479361705351 153.212763831799748 111.816672678827672 152.153569862959557 116.428809859675312 150.916850922090816"/>
                  <polygon class="cls-2" points="127.016773251647464 151.938473278150923 138.081486812146977 153.006096797329519 133.477927593956338 154.320131656761077 122.406479361705351 153.212763831799748 127.016773251647464 151.938473278150923"/>
                  <polygon class="cls-2" points="138.081486812146977 153.006096797329519 149.655892535965904 154.122900020749512 145.064640754326319 155.4790363530592 133.477927593956338 154.320131656761077 138.081486812146977 153.006096797329519"/>
                  <polygon class="cls-2" points="149.655892535965904 154.122900020749512 161.776038890215204 155.29236123022929 157.203446446355883 156.693161422790581 145.064640754326319 155.4790363530592 149.655892535965904 154.122900020749512"/>
                  <polygon class="cls-2" points="161.776038890215204 155.29236123022929 174.481455835886663 156.518294633569894 169.934767507076685 157.96654996387042 157.203446446355883 156.693161422790581 161.776038890215204 155.29236123022929"/>
                  <polygon class="cls-2" points="174.481455835886663 156.518294633569894 187.81558552194474 157.804891921619856 183.303071705866387 159.303649648920327 169.934767507076685 157.96654996387042 174.481455835886663 156.518294633569894"/>
                  <polygon class="cls-2" points="187.81558552194474 157.804891921619856 201.826278538896076 159.156770151650562 197.357390673854752 160.709364628659387 183.303071705866387 159.303649648920327 187.81558552194474 157.804891921619856"/>
                  <polygon class="cls-2" points="201.826278538896076 159.156770151650562 216.566367676807204 160.579027108578885 212.151920826358037 162.189115636199858 197.357390673854752 160.709364628659387 201.826278538896076 159.156770151650562"/>
                  <polygon class="cls-2" points="216.566367676807204 160.579027108578885 232.094333688097322 162.077305543691182 227.74672180093512 163.748909845020535 212.151920826358037 162.189115636199858 216.566367676807204 160.579027108578885"/>
                  <polygon class="cls-2" points="232.094333688097322 162.077305543691182 248.475080739104669 163.657867997219 244.208531386915638 165.395422378329386 227.74672180093512 163.748909845020535 232.094333688097322 162.077305543691182"/>
                  <polygon class="cls-2" points="248.475080739104669 163.657867997219 265.780843230337268 165.32768429673888 261.611720261427763 167.136091801859948 244.208531386915638 165.395422378329386 248.475080739104669 163.657867997219"/>
                  <polygon class="cls-2" points="101.677738845175554 151.139475318828772 111.816664191546806 152.153572138780874 107.114689366606399 153.414380544469168 96.980192427736256 152.363522987479882 101.677738845175554 151.139475318828772"/>
                  <polygon class="cls-2" points="111.816664191546806 152.153572138780874 122.406470876007006 153.212766177261074 117.704358606524693 154.512435436939995 107.114689366606399 153.414380544469168 111.816664191546806 152.153572138780874"/>
                  <polygon class="cls-2" points="122.406470876007006 153.212766177261074 133.477919118786303 154.320134075900569 128.780569435255529 155.66094038222036 117.704358606524693 154.512435436939995 122.406470876007006 153.212766177261074"/>
                  <polygon class="cls-2" points="133.477919118786303 154.320134075900569 145.064632299856385 155.479038850269717 140.377641435405167 156.863454016949618 128.780569435255529 155.66094038222036 133.477919118786303 154.320134075900569"/>
                  <polygon class="cls-2" points="145.064632299856385 155.479038850269717 157.203438024176648 156.69316400291973 152.533199681756741 158.123877728110529 140.377641435405167 156.863454016949618 145.064632299856385 155.479038850269717"/>
                  <polygon class="cls-2" points="157.203438024176648 156.69316400291973 169.934759130495877 157.966552632060484 165.288582520677664 159.446497936049127 152.533199681756741 158.123877728110529 157.203438024176648 156.69316400291973"/>
                  <polygon class="cls-2" points="169.934759130495877 157.966552632060484 183.303063389996169 159.303652410901122 178.689311243475458 160.836034795400337 165.288582520677664 159.446497936049127 169.934759130495877 157.966552632060484"/>
                  <polygon class="cls-2" points="183.303063389996169 159.303652410901122 197.357382436044645 160.709367490620934 192.785632897635878 162.297698479829705 178.689311243475458 160.836034795400337 183.303063389996169 159.303652410901122"/>
                  <polygon class="cls-2" points="197.357382436044645 160.709367490620934 212.151912686496871 162.189118605008844 207.633149877745382 163.837254465201113 192.785632897635878 162.297698479829705 197.357382436044645 160.709367490620934"/>
                  <polygon class="cls-2" points="212.151912686496871 162.189118605008844 227.746713781845756 163.748912928320351 223.293552924516916 165.461099534850291 207.633149877745382 163.837254465201113 212.151912686496871 162.189118605008844"/>
                  <polygon class="cls-2" points="227.746713781845756 163.748912928320351 244.208523514766057 165.395425584309123 239.835477905306107 167.176350620091398 223.293552924516916 165.461099534850291 227.746713781845756 163.748912928320351"/>
                  <polygon class="cls-2" points="244.208523514766057 165.395425584309123 261.611712566294955 167.136095139689132 257.335511468734694 168.99094907801009 239.835477905306107 167.176350620091398 244.208523514766057 165.395425584309123"/>
                  <polygon class="cls-2" points="96.980183784266046 152.36352523971982 107.114680713197231 153.414382864801155 102.320217570935711 154.699991498539021 92.192241089187519 153.611127620350089 96.980183784266046 152.36352523971982"/>
                  <polygon class="cls-2" points="107.114680713197231 153.414382864801155 117.704349950987307 154.512437829369446 112.907648737456839 155.838251582419616 102.320217570935711 154.699991498539021 107.114680713197231 153.414382864801155"/>
                  <polygon class="cls-2" points="117.704349950987307 154.512437829369446 128.780560786517526 155.660942850920037 123.986524883837774 157.029347164840146 112.907648737456839 155.838251582419616 117.704349950987307 154.512437829369446"/>
                  <polygon class="cls-2" points="128.780560786517526 155.660942850920037 140.377632803714732 156.863456566539753 135.59187670603751 158.2770444136695 123.986524883837774 157.029347164840146 128.780560786517526 155.660942850920037"/>
                  <polygon class="cls-2" points="140.377632803714732 156.863456566539753 152.533191078744494 158.12388036360062 147.762145296857852 159.585476150248724 135.59187670603751 158.2770444136695 140.377632803714732 156.863456566539753"/>
                  <polygon class="cls-2" points="152.533191078744494 158.12388036360062 165.288573959775022 159.446500662919789 160.539607520966456 160.959187581651349 147.762145296857852 159.585476150248724 152.533191078744494 158.12388036360062"/>
                  <polygon class="cls-2" points="165.288573959775022 159.446500662919789 178.689302739987397 160.836037619679701 173.97086668652446 162.403189053238748 160.539607520966456 160.959187581651349 165.288573959775022 159.446500662919789"/>
                  <polygon class="cls-2" points="178.689302739987397 160.836037619679701 192.78562446914475 162.297701408100693 188.107420514827027 163.923017110999353 173.97086668652446 162.403189053238748 178.689302739987397 160.836037619679701"/>
                  <polygon class="cls-2" points="192.78562446914475 162.297701408100693 207.633141544416503 163.837257504639638 203.006320996597424 165.524805443379591 188.107420514827027 163.923017110999353 192.78562446914475 162.297701408100693"/>
                  <polygon class="cls-2" points="207.633141544416503 163.837257504639638 223.293544709535126 165.46110269339988 218.730943959964861 167.215367617711308 203.006320996597424 165.524805443379591 207.633141544416503 163.837257504639638"/>
                  <polygon class="cls-2" points="223.293544709535126 165.46110269339988 239.835469835377808 167.176353906530494 235.351890237097905 169.002293965169883 218.730943959964861 167.215367617711308 223.293544709535126 165.46110269339988"/>
                  <polygon class="cls-2" points="239.835469835377808 167.176353906530494 257.33550357475724 168.990952502190339 252.948045454655585 170.894065519480137 235.351890237097905 169.002293965169883 239.835469835377808 167.176353906530494"/>
                  <polygon class="cls-2" points="92.192232278597658 153.61112991616028 102.320208746476055 154.699993864749558 97.430501299906609 156.011141729090014 87.311258672876647 154.88297351959045 92.192232278597658 153.61112991616028"/>
                  <polygon class="cls-2" points="102.320208746476055 154.699993864749558 112.907639906925397 155.838254023168702 108.013466585505739 157.191009179368848 97.430501299906609 156.011141729090014 102.320208746476055 154.699993864749558"/>
                  <polygon class="cls-2" points="112.907639906925397 155.838254023168702 123.986516056147593 157.02934968460977 119.092777733485491 158.426212947209933 108.013466585505739 157.191009179368848 112.907639906925397 155.838254023168702"/>
                  <polygon class="cls-2" points="123.986516056147593 157.02934968460977 135.591867891476795 158.277047017250879 130.704191516824721 159.72073946268938 119.092777733485491 158.426212947209933 123.986516056147593 157.02934968460977"/>
                  <polygon class="cls-2" points="135.591867891476795 158.277047017250879 147.762136507155446 159.585478842960583 142.886983771657469 161.078967487399495 130.704191516824721 159.72073946268938 135.591867891476795 158.277047017250879"/>
                  <polygon class="cls-2" points="147.762136507155446 159.585478842960583 160.539598769604709 160.9591903692708 155.684393235957032 162.505717596370232 142.886983771657469 161.078967487399495 147.762136507155446 159.585478842960583"/>
                  <polygon class="cls-2" points="160.539598769604709 160.9591903692708 173.970857989015713 162.403191941990372 169.144134300886435 164.006309343971225 155.684393235957032 162.505717596370232 160.539598769604709 160.9591903692708"/>
                  <polygon class="cls-2" points="173.970857989015713 162.403191941990372 188.107411888917341 163.923020107849879 183.318991489244581 165.586627540040354 169.144134300886435 164.006309343971225 173.970857989015713 162.403191941990372"/>
                  <polygon class="cls-2" points="188.107411888917341 163.923020107849879 203.006312462786809 165.52480855588874 198.267511274216304 167.253199379600119 183.318991489244581 165.586627540040354 188.107411888917341 163.923020107849879"/>
                  <polygon class="cls-2" points="203.006312462786809 165.52480855588874 218.730935541867439 167.215370854370121 214.054810353934954 169.013284555148857 198.267511274216304 167.253199379600119 203.006312462786809 165.52480855588874"/>
                  <polygon class="cls-2" points="218.730935541867439 167.215370854370121 235.351881961927575 169.002297335278854 230.753523913544996 170.874980975710059 214.054810353934954 169.013284555148857 218.730935541867439 167.215370854370121"/>
                  <polygon class="cls-2" points="235.351881961927575 169.002297335278854 252.948037353924519 170.894069033260166 248.444923000757626 172.84734934035987 230.753523913544996 170.874980975710059 235.351881961927575 169.002297335278854"/>
                  <polygon class="cls-2" points="87.311249690266777 154.882975860209626 97.430492299276011 156.011144142559715 92.442673964827918 157.348599895960433 82.334507153276718 156.179774137150162 87.311249690266777 154.882975860209626"/>
                  <polygon class="cls-2" points="97.430492299276011 156.011144142559715 108.013457574596032 157.191011670020089 103.018810603067323 158.571537859130331 92.442673964827918 157.348599895960433 97.430492299276011 156.011144142559715"/>
                  <polygon class="cls-2" points="108.013457574596032 157.191011670020089 119.092768721287939 158.426215519619291 114.096185002605125 159.852434858490597 103.018810603067323 158.571537859130331 108.013457574596032 157.191011670020089"/>
                  <polygon class="cls-2" points="119.092768721287939 158.426215519619291 130.704182513565684 159.720742122040974 125.711294988495865 161.195511204190552 114.096185002605125 159.852434858490597 119.092768721287939 158.426215519619291"/>
                  <polygon class="cls-2" points="130.704182513565684 159.720742122040974 142.886974789107626 161.078970239159389 137.904270002887642 162.605407136750728 125.711294988495865 161.195511204190552 130.704182513565684 159.720742122040974"/>
                  <polygon class="cls-2" points="142.886974789107626 161.078970239159389 155.684384287736975 162.505720446679334 150.719334320734561 164.087236389750615 137.904270002887642 162.605407136750728 142.886974789107626 161.078970239159389"/>
                  <polygon class="cls-2" points="155.684384287736975 162.505720446679334 169.144125402604914 164.00631229937062 164.205343021536464 165.646648165120496 150.719334320734561 164.087236389750615 155.684384287736975 162.505720446679334"/>
                  <polygon class="cls-2" points="169.144125402604914 164.00631229937062 183.318982658935056 165.586630607909683 178.416404407927985 167.289899104511278 164.205343021536464 165.646648165120496 169.144125402604914 164.00631229937062"/>
                  <polygon class="cls-2" points="183.318982658935056 165.586630607909683 198.267502532626168 167.253202567990229 193.412605587416692 169.023937189671415 178.416404407927985 167.289899104511278 183.318982658935056 165.586630607909683"/>
                  <polygon class="cls-2" points="198.267502532626168 167.253202567990229 214.054801725056677 169.013287872829096 209.260861732525882 170.856499944169627 193.412605587416692 169.023937189671415 198.267502532626168 167.253202567990229"/>
                  <polygon class="cls-2" points="214.054801725056677 169.013287872829096 230.753515425176374 170.874984432619385 226.035914333626351 172.796229862680775 209.260861732525882 170.856499944169627 214.054801725056677 169.013287872829096"/>
                  <polygon class="cls-2" points="230.753515425176374 170.874984432619385 248.444914685076583 172.847352947370382 243.821509858336867 174.852810702010174 226.035914333626351 172.796229862680775 230.753515425176374 170.874984432619385"/>
                  <polygon class="cls-2" points="82.334497993555487 156.179776523909823 92.442664782707652 157.348602358099015 87.353752776356487 158.713165817540357 77.259139995496298 157.502271199460665 82.334497993555487 156.179776523909823"/>
                  <polygon class="cls-2" points="92.442664782707652 157.348602358099015 103.018801406245984 158.571540401120728 97.920554725567854 159.980701669410337 87.353752776356487 158.713165817540357 92.442664782707652 157.348602358099015"/>
                  <polygon class="cls-2" points="103.018801406245984 158.571540401120728 114.096175800024866 159.852437485289556 108.993470202667595 161.30894813597115 97.920554725567854 159.980701669410337 103.018801406245984 158.571540401120728"/>
                  <polygon class="cls-2" points="114.096175800024866 159.852437485289556 125.71128579035576 161.195513921040401 120.609753022605219 162.702373981470373 108.993470202667595 161.30894813597115 114.096175800024866 159.852437485289556"/>
                  <polygon class="cls-2" points="125.71128579035576 161.195513921040401 137.904260821076605 162.605409949590467 132.81040518514601 164.165897581749959 120.609753022605219 162.702373981470373 125.71128579035576 161.195513921040401"/>
                  <polygon class="cls-2" points="137.904260821076605 162.605409949590467 150.719325168925934 164.087239304899413 145.640660428676711 165.70494492907892 132.81040518514601 164.165897581749959 137.904260821076605 162.605409949590467"/>
                  <polygon class="cls-2" points="150.719325168925934 164.087239304899413 164.205333915464507 165.646651189570548 159.150544626654664 167.32551685405997 145.640660428676711 165.70494492907892 150.719325168925934 164.087239304899413"/>
                  <polygon class="cls-2" points="164.205333915464507 165.646651189570548 178.416395365855351 167.289902245969643 173.395527660917651 169.03426722075892 159.150544626654664 167.32551685405997 164.205333915464507 165.646651189570548"/>
                  <polygon class="cls-2" points="178.416395365855351 167.289902245969643 193.412596630367261 169.023940456640048 188.43728467996516 170.838594243110492 173.395527660917651 169.03426722075892 178.416395365855351 167.289902245969643"/>
                  <polygon class="cls-2" points="193.412596630367261 169.023940456640048 209.260852884906853 170.856503345999954 204.344588772206407 172.746747565259284 188.43728467996516 170.838594243110492 193.412596630367261 169.023940456640048"/>
                  <polygon class="cls-2" points="209.260852884906853 170.856503345999954 226.035905623726649 172.796233409810156 221.194362305695904 174.767954374328838 204.344588772206407 172.746747565259284 209.260852884906853 170.856503345999954"/>
                  <polygon class="cls-2" points="226.035905623726649 172.796233409810156 243.821501319065646 174.852814405989193 239.072920840337247 176.912568613439362 221.194362305695904 174.767954374328838 226.035905623726649 172.796233409810156"/>
                  <polygon class="cls-2" points="77.259130653337706 157.50227363373051 87.353743407167713 158.713168329830296 82.160632796256323 160.105672065699764 72.08219672609448 158.851236122151022 77.259130653337706 157.50227363373051"/>
                  <polygon class="cls-2" points="87.353743407167713 158.713168329830296 97.920545336985015 159.980704264409724 92.715441846698013 161.419400878290617 82.160632796256323 160.105672065699764 87.353743407167713 158.713168329830296"/>
                  <polygon class="cls-2" points="97.920545336985015 159.980704264409724 108.993460803556445 161.308950818871381 103.781216173274515 162.796728170180359 92.715441846698013 161.419400878290617 97.920545336985015 159.980704264409724"/>
                  <polygon class="cls-2" points="108.993460803556445 161.308950818871381 120.609743623237591 162.702376757781167 115.395980424875233 164.242386767618882 103.781216173274515 162.796728170180359 108.993460803556445 161.308950818871381"/>
                  <polygon class="cls-2" points="120.609743623237591 162.702376757781167 132.810395797396268 164.165900457610405 127.601628142625486 165.761591047479669 115.395980424875233 164.242386767618882 120.609743623237591 162.702376757781167"/>
                  <polygon class="cls-2" points="132.810395797396268 164.165900457610405 145.640651066247301 165.704947911279305 140.444426663225386 167.360099781239114 127.601628142625486 165.761591047479669 132.810395797396268 164.165900457610405"/>
                  <polygon class="cls-2" points="145.640651066247301 165.704947911279305 159.150535305447193 167.325519949939917 153.975603210858026 169.044289084220509 140.444426663225386 167.360099781239114 145.640651066247301 165.704947911279305"/>
                  <polygon class="cls-2" points="159.150535305447193 167.325519949939917 173.395518399365756 169.034270438449312 168.252027828666542 170.821237418460441 153.975603210858026 169.044289084220509 159.150535305447193 167.325519949939917"/>
                  <polygon class="cls-2" points="173.395518399365756 169.034270438449312 188.437275499354655 170.838597591549842 183.337012345864423 172.698825037759889 168.252027828666542 170.821237418460441 173.395518399365756 169.034270438449312"/>
                  <polygon class="cls-2" points="188.437275499354655 170.838597591549842 204.344579697377412 172.746751054401102 199.301249051915875 174.685850822039356 183.337012345864423 172.698825037759889 188.437275499354655 170.838597591549842"/>
                  <polygon class="cls-2" points="204.344579697377412 172.746751054401102 221.194353365435745 174.767958015199838 216.223918434157895 176.792170154360065 199.301249051915875 174.685850822039356 204.344579697377412 172.746751054401102"/>
                  <polygon class="cls-2" points="221.194353365435745 174.767958015199838 239.072912068286314 176.912572418390482 234.194002603037006 179.028858399829915 216.223918434157895 176.792170154360065 221.194353365435745 174.767958015199838"/>
                  <polygon class="cls-2" points="72.082187196045197 158.851238605369872 82.160623234225568 160.105674629710848 76.860080619977452 161.526985659989805 66.800597174706127 160.227471510390387 72.082187196045197 158.851238605369872"/>
                  <polygon class="cls-2" points="82.160623234225568 160.105674629710848 92.715432260314628 161.419403527950635 87.40007687943762 162.888573891619671 76.860080619977452 161.526985659989805 82.160623234225568 160.105674629710848"/>
                  <polygon class="cls-2" points="92.715432260314628 161.419403527950635 103.781206571346047 162.796730910918996 98.455857451084739 164.316792682941013 87.40007687943762 162.888573891619671 92.715432260314628 161.419403527950635"/>
                  <polygon class="cls-2" points="103.781206571346047 162.796730910918996 115.395970817606212 164.242389605318749 110.066232502676939 165.816655647449807 98.455857451084739 164.316792682941013 103.781206571346047 162.796730910918996"/>
                  <polygon class="cls-2" points="115.395970817606212 164.242389605318749 127.601618541886637 165.761593988609093 122.274006067167647 167.393692338060646 110.066232502676939 165.816655647449807 115.395970817606212 164.242389605318749"/>
                  <polygon class="cls-2" points="127.601618541886637 165.761593988609093 140.44441708283739 167.360102832881239 135.126503358287664 169.054016367450458 122.274006067167647 167.393692338060646 127.601618541886637 165.761593988609093"/>
                  <polygon class="cls-2" points="140.44441708283739 167.360102832881239 153.975593666787972 169.044292254149696 148.676183898836825 170.804404613591032 135.126503358287664 169.054016367450458 140.44441708283739 167.360102832881239"/>
                  <polygon class="cls-2" points="153.975593666787972 169.044292254149696 168.252018339515416 170.821240715249587 162.981357207745532 172.652389674480219 148.676183898836825 170.804404613591032 153.975593666787972 169.044292254149696"/>
                  <polygon class="cls-2" points="168.252018339515416 170.821240715249587 183.337002933245458 172.698828470820445 178.107021634887133 174.606368231299712 162.981357207745532 172.652389674480219 168.252018339515416 170.821240715249587"/>
                  <polygon class="cls-2" points="183.337002933245458 172.698828470820445 199.301239741007521 174.68585440193965 194.125851794427945 176.675728608050122 178.107021634887133 174.606368231299712 183.337002933245458 172.698828470820445"/>
                  <polygon class="cls-2" points="199.301239741007521 174.68585440193965 216.223909254336832 176.792173892870778 211.119366242755859 178.871001615540081 194.125851794427945 176.675728608050122 199.301239741007521 174.68585440193965"/>
                  <polygon class="cls-2" points="216.223909254336832 176.792173892870778 234.193993588576632 179.028862310000477 229.179314990708008 181.204039794520213 211.119366242755859 178.871001615540081 216.223909254336832 176.792173892870778"/>
                </g>
              </g>
              <ellipse class="cls-1" cx="228.499492759604436" cy="23.024227951272223" rx="1.447022938562964" ry="1.069793254158126" transform="translate(-1.153209827678978 24.354437899138865) rotate(-6.085725995063423)"/>
            </g>
          </g>
          <g>
            <path class="cls-6" d="M201.258268845926068,73.42182533840969c1.950797851060997-1.904884154198953,5.713968769212443-5.021215232609393,10.8924858289447-5.956266540799334,4.804905042354221-.867578240960938,8.694388214771607.524783784449028,10.888574464570411,1.580855606460318"/>
            <path class="cls-6" d="M194.903505652338936,65.068937517709855c2.723210690850465-2.915006837660258,8.500470807668535-8.259061324190043,16.669222188626009-9.706603378948785,7.387579478514454-1.309107341250638,13.309360250956161,1.166387750457943,16.454478991216092,2.863361428448115"/>
            <path class="cls-6" d="M188.183898726672851,56.886717399160261c2.917122798007767-3.792738423569972,10.647563336480744-12.820063260511233,22.292919675868689-15.033160466360641,10.896832189859197-2.070699813908504,19.385835444083568,2.908632285869317,23.005573493781412,5.416319011630549"/>
            <path class="cls-17" d="M233.766872536933079,109.481519886519891c4.268398941914711-1.671425125028691,8.55712264525755-3.350940728809292,12.866337321795072-5.038362061261068.626454840452425-.24530995574969.765832769669942-1.10315064869792.235067890291248-1.446718796778441-11.693265857673396-7.569140031380812-23.206150305362826-15.021369663951191-34.542820502614632-22.359685868510496-.521845429366294-.337794670209405-1.24556231371389.169120711079813-1.189002384811829.832370789550623,1.21719134245177,14.273395831909511,2.439982495290678,28.61291034092028,3.668513130831343,43.019310977899295.055613053034904.652148102339197.808124220302489.894570591450247,1.270649056459661.408819065769421,2.905332592235936-3.051230180430139,5.818970925476606-6.111161103410268,8.740893137497551-9.179818554810481.359789269074099-.377857431298253.936816748728234-.337792842929048,1.184149211219847.082507999770314l9.377288249177582,15.935159152501001c.236830673689838.402454779799882.762761726278768.506844596140581,1.16881295573512.231735691999347l5.956363621935452-4.035571252688896c.408752577721316-.276939128780214.547600424575649-.833515732720116.308472915457969-1.23659336377932l-9.494343435108021-16.003836089272227c-.253036546046133-.426522953928725-.032167539589864-1.020659165827965.449618832133638-1.209317690389071Z"/>
          </g>
        </g>
      </g>
    </g>
  </g>
</svg>