<?xml version="1.0" encoding="UTF-8"?>
<svg id="Layer_1" xmlns="http://www.w3.org/2000/svg" xmlns:xlink="http://www.w3.org/1999/xlink" viewBox="0 0 329.52 224.86">
  <defs>
    <style>
      .cls-1 {
        fill: #4b4342;
      }

      .cls-2 {
        fill: #c84530;
      }

      .cls-3 {
        fill: #e9e9de;
      }

      .cls-4 {
        fill: #f4f7f8;
      }

      .cls-5 {
        fill: #fff;
      }

      .cls-6 {
        stroke-miterlimit: 10;
        stroke-width: .13px;
      }

      .cls-6, .cls-7 {
        fill: none;
      }

      .cls-6, .cls-8 {
        stroke: #e9e9de;
      }

      .cls-9 {
        fill: #e08362;
      }

      .cls-10 {
        fill: #f1b068;
      }

      .cls-11 {
        opacity: .6;
      }

      .cls-11, .cls-12 {
        mix-blend-mode: multiply;
      }

      .cls-13 {
        fill: #79c4e0;
      }

      .cls-14 {
        clip-path: url(#clippath-1);
      }

      .cls-15 {
        fill: #0b2645;
      }

      .cls-16 {
        isolation: isolate;
      }

      .cls-17 {
        fill: #ffc58f;
      }

      .cls-18 {
        fill: #c8c8c8;
      }

      .cls-19 {
        fill: #aea8a9;
      }

      .cls-20 {
        fill: #d6e03f;
      }

      .cls-21 {
        fill: #b7afa9;
      }

      .cls-22, .cls-12 {
        opacity: .3;
      }

      .cls-23, .cls-8 {
        fill: #151c22;
      }

      .cls-24 {
        clip-path: url(#clippath-2);
      }

      .cls-8 {
        stroke-miterlimit: 10;
        stroke-width: .16px;
      }

      .cls-25 {
        clip-path: url(#clippath);
      }

      .cls-26 {
        fill: #3657a6;
      }
    </style>
    <clipPath id="clippath">
      <path class="cls-7" d="M143.09,132.27l-17.45-1.33c-1.25-.1-2.01-1.17-1.67-2.38l3.37-12.28c.33-1.19,1.61-2.11,2.86-2.03l17.33,1.07c1.29.08,2.08,1.14,1.76,2.36l-3.26,12.52c-.32,1.24-1.65,2.17-2.94,2.08h0Z"/>
    </clipPath>
    <clipPath id="clippath-1">
      <path class="cls-7" d="M140.8,121.29s-.69.72-1.58.68c-.83-.04-1.15-.66-1.18-.72.11-.09.69-.52,1.46-.52.81,0,1.23.48,1.3.57h0Z"/>
    </clipPath>
    <clipPath id="clippath-2">
      <path class="cls-7" d="M133.35,120.88s.34.75,1.23.77c.83.02,1.42-.57,1.48-.63-.07-.09-.44-.56-1.19-.61-.79-.05-1.41.39-1.52.47Z"/>
    </clipPath>
  </defs>
  <g class="cls-16">
    <g id="Layer_2">
      <g id="Layer_1-2">
        <g>
          <circle class="cls-26" cx="164.76" cy="112.43" r="112.43"/>
          <g>
            <g>
              <path class="cls-18" d="M109.19,147.31C72.8,154.21,36.4,161.1,0,168c1.68,1.68,3.37,3.37,5.05,5.05,67.91,11.19,135.81,22.38,203.72,33.57,29.37-13.56,58.74-27.12,88.11-40.68.14-2.68.28-5.36.42-8.03-2.52-1.25-5.03-2.5-7.55-3.75-60.19-2.29-120.38-4.57-180.57-6.86h0Z"/>
              <path class="cls-18" d="M142.28,20.84c-10.76,40.47-21.51,80.94-32.27,121.42,62.43,5.22,124.86,10.44,187.3,15.66,3.23.27,6.14-1.93,6.76-5.11,8.46-43.31,16.92-86.62,25.38-129.93.47-2.4-1.39-4.62-3.83-4.58-61.11.85-122.23,1.69-183.34,2.54h0Z"/>
              <path class="cls-23" d="M136.41,20.84l-32.27,121.42c64.32,5.38,128.64,10.76,192.96,16.13,9.13-46.72,18.25-93.44,27.38-140.16-62.69.87-125.38,1.74-188.07,2.61Z"/>
              <path class="cls-21" d="M104.14,142.25c-34.71,8.58-69.43,17.17-104.14,25.75,69.1,9.78,138.2,19.56,207.3,29.34,29.93-12.98,59.87-25.97,89.8-38.95-64.32-5.38-128.64-10.76-192.96-16.13Z"/>
              <path class="cls-4" d="M140.81,27.03c-9.4,36.72-18.8,73.45-28.19,110.17,58.45,4.4,116.91,8.8,175.36,13.2,8.31-41.56,16.62-83.12,24.94-124.68-57.37.43-114.73.87-172.1,1.3h0Z"/>
              <path class="cls-3" d="M115.22,145.35c-19.03,4.71-38.06,9.41-57.09,14.12,54.13,7.25,108.25,14.49,162.38,21.74,17.43-7.56,34.86-15.12,52.28-22.68-52.52-4.39-105.05-8.78-157.57-13.18Z"/>
              <path class="cls-23" d="M104.03,168.16c-5.88,2.13-11.77,4.26-17.65,6.39-.47.17-.4.85.09.92,16.57,2.38,33.15,4.76,49.72,7.14.83.12,1.67-.03,2.4-.44,4.41-2.42,8.82-4.85,13.23-7.27.41-.22.29-.83-.17-.89-15.27-2.02-30.54-4.03-45.81-6.05-.61-.08-1.23-.01-1.81.2Z"/>
              <g>
                <polygon class="cls-23" points="255.88 157.11 239.83 155.77 224.58 154.49 210.07 153.28 196.24 152.12 183.06 151.02 170.47 149.97 158.45 148.96 146.94 148 135.92 147.08 125.35 146.2 115.22 145.35 110.94 146.47 106.58 147.6 102.14 148.76 97.61 149.94 93 151.14 88.31 152.36 83.52 153.61 78.64 154.88 73.66 156.18 68.59 157.5 63.41 158.85 58.13 160.23 68.19 161.53 78.73 162.89 89.78 164.32 101.39 165.82 113.6 167.39 126.45 169.05 140 170.8 154.31 172.65 169.43 174.61 185.45 176.68 202.45 178.87 220.51 181.2 225.52 179.03 230.4 176.91 235.15 174.85 239.77 172.85 244.27 170.89 248.66 168.99 252.94 167.14 257.11 165.33 261.17 163.56 265.14 161.84 269.01 160.16 272.79 158.53 255.88 157.11"/>
                <g class="cls-22">
                  <polygon class="cls-6" points="115.22 145.35 125.35 146.2 121.08 147.34 110.94 146.47 115.22 145.35"/>
                  <polygon class="cls-6" points="125.35 146.2 135.92 147.08 131.65 148.26 121.08 147.34 125.35 146.2"/>
                  <polygon class="cls-6" points="135.92 147.08 146.94 148 142.68 149.22 131.65 148.26 135.92 147.08"/>
                  <polygon class="cls-6" points="146.94 148 158.45 148.96 154.21 150.22 142.68 149.22 146.94 148"/>
                  <polygon class="cls-6" points="158.45 148.96 170.47 149.97 166.26 151.26 154.21 150.22 158.45 148.96"/>
                  <polygon class="cls-6" points="170.47 149.97 183.06 151.02 178.88 152.35 166.26 151.26 170.47 149.97"/>
                  <polygon class="cls-6" points="183.06 151.02 196.24 152.12 192.1 153.5 178.88 152.35 183.06 151.02"/>
                  <polygon class="cls-6" points="196.24 152.12 210.07 153.28 205.98 154.7 192.1 153.5 196.24 152.12"/>
                  <polygon class="cls-6" points="210.07 153.28 224.58 154.49 220.54 155.96 205.98 154.7 210.07 153.28"/>
                  <polygon class="cls-6" points="224.58 154.49 239.83 155.77 235.87 157.29 220.54 155.96 224.58 154.49"/>
                  <polygon class="cls-6" points="239.83 155.77 255.88 157.11 252 158.69 235.87 157.29 239.83 155.77"/>
                  <polygon class="cls-6" points="255.88 157.11 272.79 158.53 269.01 160.16 252 158.69 255.88 157.11"/>
                  <polygon class="cls-6" points="110.94 146.47 121.08 147.34 116.72 148.51 106.58 147.6 110.94 146.47"/>
                  <polygon class="cls-6" points="121.08 147.34 131.65 148.26 127.3 149.46 116.72 148.51 121.08 147.34"/>
                  <polygon class="cls-6" points="131.65 148.26 142.68 149.22 138.34 150.46 127.3 149.46 131.65 148.26"/>
                  <polygon class="cls-6" points="142.68 149.22 154.21 150.22 149.89 151.49 138.34 150.46 142.68 149.22"/>
                  <polygon class="cls-6" points="154.21 150.22 166.26 151.26 161.97 152.58 149.89 151.49 154.21 150.22"/>
                  <polygon class="cls-6" points="166.26 151.26 178.88 152.35 174.61 153.71 161.97 152.58 166.26 151.26"/>
                  <polygon class="cls-6" points="178.88 152.35 192.1 153.5 187.88 154.9 174.61 153.71 178.88 152.35"/>
                  <polygon class="cls-6" points="192.1 153.5 205.98 154.7 201.8 156.15 187.88 154.9 192.1 153.5"/>
                  <polygon class="cls-6" points="205.98 154.7 220.54 155.96 216.42 157.47 201.8 156.15 205.98 154.7"/>
                  <polygon class="cls-6" points="220.54 155.96 235.87 157.29 231.81 158.85 216.42 157.47 220.54 155.96"/>
                  <polygon class="cls-6" points="235.87 157.29 252 158.69 248.03 160.31 231.81 158.85 235.87 157.29"/>
                  <polygon class="cls-6" points="252 158.69 269.01 160.16 265.14 161.84 248.03 160.31 252 158.69"/>
                  <polygon class="cls-6" points="106.58 147.6 116.72 148.51 112.28 149.7 102.14 148.76 106.58 147.6"/>
                  <polygon class="cls-6" points="116.72 148.51 127.3 149.46 122.86 150.69 112.28 149.7 116.72 148.51"/>
                  <polygon class="cls-6" points="127.3 149.46 138.34 150.46 133.92 151.72 122.86 150.69 127.3 149.46"/>
                  <polygon class="cls-6" points="138.34 150.46 149.89 151.49 145.48 152.79 133.92 151.72 138.34 150.46"/>
                  <polygon class="cls-6" points="149.89 151.49 161.97 152.58 157.58 153.92 145.48 152.79 149.89 151.49"/>
                  <polygon class="cls-6" points="161.97 152.58 174.61 153.71 170.26 155.1 157.58 153.92 161.97 152.58"/>
                  <polygon class="cls-6" points="174.61 153.71 187.88 154.9 183.56 156.34 170.26 155.1 174.61 153.71"/>
                  <polygon class="cls-6" points="187.88 154.9 201.8 156.15 197.52 157.64 183.56 156.34 187.88 154.9"/>
                  <polygon class="cls-6" points="201.8 156.15 216.42 157.47 212.21 159.01 197.52 157.64 201.8 156.15"/>
                  <polygon class="cls-6" points="216.42 157.47 231.81 158.85 227.67 160.44 212.21 159.01 216.42 157.47"/>
                  <polygon class="cls-6" points="231.81 158.85 248.03 160.31 243.97 161.96 227.67 160.44 231.81 158.85"/>
                  <polygon class="cls-6" points="248.03 160.31 265.14 161.84 261.17 163.56 243.97 161.96 248.03 160.31"/>
                  <polygon class="cls-6" points="102.14 148.76 112.28 149.7 107.75 150.92 97.61 149.94 102.14 148.76"/>
                  <polygon class="cls-6" points="112.28 149.7 122.86 150.69 118.34 151.94 107.75 150.92 112.28 149.7"/>
                  <polygon class="cls-6" points="122.86 150.69 133.92 151.72 129.41 153.01 118.34 151.94 122.86 150.69"/>
                  <polygon class="cls-6" points="133.92 151.72 145.48 152.79 140.98 154.12 129.41 153.01 133.92 151.72"/>
                  <polygon class="cls-6" points="145.48 152.79 157.58 153.92 153.1 155.29 140.98 154.12 145.48 152.79"/>
                  <polygon class="cls-6" points="157.58 153.92 170.26 155.1 165.81 156.52 153.1 155.29 157.58 153.92"/>
                  <polygon class="cls-6" points="170.26 155.1 183.56 156.34 179.14 157.8 165.81 156.52 170.26 155.1"/>
                  <polygon class="cls-6" points="183.56 156.34 197.52 157.64 193.15 159.16 179.14 157.8 183.56 156.34"/>
                  <polygon class="cls-6" points="197.52 157.64 212.21 159.01 207.89 160.58 193.15 159.16 197.52 157.64"/>
                  <polygon class="cls-6" points="212.21 159.01 227.67 160.44 223.42 162.08 207.89 160.58 212.21 159.01"/>
                  <polygon class="cls-6" points="227.67 160.44 243.97 161.96 239.8 163.66 223.42 162.08 227.67 160.44"/>
                  <polygon class="cls-6" points="243.97 161.96 261.17 163.56 257.11 165.33 239.8 163.66 243.97 161.96"/>
                  <polygon class="cls-6" points="97.61 149.94 107.75 150.92 103.14 152.15 93 151.14 97.61 149.94"/>
                  <polygon class="cls-6" points="107.75 150.92 118.34 151.94 113.73 153.21 103.14 152.15 107.75 150.92"/>
                  <polygon class="cls-6" points="118.34 151.94 129.41 153.01 124.8 154.32 113.73 153.21 118.34 151.94"/>
                  <polygon class="cls-6" points="129.41 153.01 140.98 154.12 136.39 155.48 124.8 154.32 129.41 153.01"/>
                  <polygon class="cls-6" points="140.98 154.12 153.1 155.29 148.53 156.69 136.39 155.48 140.98 154.12"/>
                  <polygon class="cls-6" points="153.1 155.29 165.81 156.52 161.26 157.97 148.53 156.69 153.1 155.29"/>
                  <polygon class="cls-6" points="165.81 156.52 179.14 157.8 174.63 159.3 161.26 157.97 165.81 156.52"/>
                  <polygon class="cls-6" points="179.14 157.8 193.15 159.16 188.68 160.71 174.63 159.3 179.14 157.8"/>
                  <polygon class="cls-6" points="193.15 159.16 207.89 160.58 203.48 162.19 188.68 160.71 193.15 159.16"/>
                  <polygon class="cls-6" points="207.89 160.58 223.42 162.08 219.07 163.75 203.48 162.19 207.89 160.58"/>
                  <polygon class="cls-6" points="223.42 162.08 239.8 163.66 235.53 165.4 219.07 163.75 223.42 162.08"/>
                  <polygon class="cls-6" points="239.8 163.66 257.11 165.33 252.94 167.14 235.53 165.4 239.8 163.66"/>
                  <polygon class="cls-6" points="93 151.14 103.14 152.15 98.44 153.41 88.31 152.36 93 151.14"/>
                  <polygon class="cls-6" points="103.14 152.15 113.73 153.21 109.03 154.51 98.44 153.41 103.14 152.15"/>
                  <polygon class="cls-6" points="113.73 153.21 124.8 154.32 120.11 155.66 109.03 154.51 113.73 153.21"/>
                  <polygon class="cls-6" points="124.8 154.32 136.39 155.48 131.7 156.86 120.11 155.66 124.8 154.32"/>
                  <polygon class="cls-6" points="136.39 155.48 148.53 156.69 143.86 158.12 131.7 156.86 136.39 155.48"/>
                  <polygon class="cls-6" points="148.53 156.69 161.26 157.97 156.61 159.45 143.86 158.12 148.53 156.69"/>
                  <polygon class="cls-6" points="161.26 157.97 174.63 159.3 170.02 160.84 156.61 159.45 161.26 157.97"/>
                  <polygon class="cls-6" points="174.63 159.3 188.68 160.71 184.11 162.3 170.02 160.84 174.63 159.3"/>
                  <polygon class="cls-6" points="188.68 160.71 203.48 162.19 198.96 163.84 184.11 162.3 188.68 160.71"/>
                  <polygon class="cls-6" points="203.48 162.19 219.07 163.75 214.62 165.46 198.96 163.84 203.48 162.19"/>
                  <polygon class="cls-6" points="219.07 163.75 235.53 165.4 231.16 167.18 214.62 165.46 219.07 163.75"/>
                  <polygon class="cls-6" points="235.53 165.4 252.94 167.14 248.66 168.99 231.16 167.18 235.53 165.4"/>
                  <polygon class="cls-6" points="88.31 152.36 98.44 153.41 93.65 154.7 83.52 153.61 88.31 152.36"/>
                  <polygon class="cls-6" points="98.44 153.41 109.03 154.51 104.23 155.84 93.65 154.7 98.44 153.41"/>
                  <polygon class="cls-6" points="109.03 154.51 120.11 155.66 115.31 157.03 104.23 155.84 109.03 154.51"/>
                  <polygon class="cls-6" points="120.11 155.66 131.7 156.86 126.92 158.28 115.31 157.03 120.11 155.66"/>
                  <polygon class="cls-6" points="131.7 156.86 143.86 158.12 139.09 159.59 126.92 158.28 131.7 156.86"/>
                  <polygon class="cls-6" points="143.86 158.12 156.61 159.45 151.87 160.96 139.09 159.59 143.86 158.12"/>
                  <polygon class="cls-6" points="156.61 159.45 170.02 160.84 165.3 162.4 151.87 160.96 156.61 159.45"/>
                  <polygon class="cls-6" points="170.02 160.84 184.11 162.3 179.43 163.92 165.3 162.4 170.02 160.84"/>
                  <polygon class="cls-6" points="184.11 162.3 198.96 163.84 194.33 165.52 179.43 163.92 184.11 162.3"/>
                  <polygon class="cls-6" points="198.96 163.84 214.62 165.46 210.06 167.22 194.33 165.52 198.96 163.84"/>
                  <polygon class="cls-6" points="214.62 165.46 231.16 167.18 226.68 169 210.06 167.22 214.62 165.46"/>
                  <polygon class="cls-6" points="231.16 167.18 248.66 168.99 244.27 170.89 226.68 169 231.16 167.18"/>
                  <polygon class="cls-6" points="83.52 153.61 93.65 154.7 88.76 156.01 78.64 154.88 83.52 153.61"/>
                  <polygon class="cls-6" points="93.65 154.7 104.23 155.84 99.34 157.19 88.76 156.01 93.65 154.7"/>
                  <polygon class="cls-6" points="104.23 155.84 115.31 157.03 110.42 158.43 99.34 157.19 104.23 155.84"/>
                  <polygon class="cls-6" points="115.31 157.03 126.92 158.28 122.03 159.72 110.42 158.43 115.31 157.03"/>
                  <polygon class="cls-6" points="126.92 158.28 139.09 159.59 134.21 161.08 122.03 159.72 126.92 158.28"/>
                  <polygon class="cls-6" points="139.09 159.59 151.87 160.96 147.01 162.51 134.21 161.08 139.09 159.59"/>
                  <polygon class="cls-6" points="151.87 160.96 165.3 162.4 160.47 164.01 147.01 162.51 151.87 160.96"/>
                  <polygon class="cls-6" points="165.3 162.4 179.43 163.92 174.65 165.59 160.47 164.01 165.3 162.4"/>
                  <polygon class="cls-6" points="179.43 163.92 194.33 165.52 189.59 167.25 174.65 165.59 179.43 163.92"/>
                  <polygon class="cls-6" points="194.33 165.52 210.06 167.22 205.38 169.01 189.59 167.25 194.33 165.52"/>
                  <polygon class="cls-6" points="210.06 167.22 226.68 169 222.08 170.87 205.38 169.01 210.06 167.22"/>
                  <polygon class="cls-6" points="226.68 169 244.27 170.89 239.77 172.85 222.08 170.87 226.68 169"/>
                  <polygon class="cls-6" points="78.64 154.88 88.76 156.01 83.77 157.35 73.66 156.18 78.64 154.88"/>
                  <polygon class="cls-6" points="88.76 156.01 99.34 157.19 94.34 158.57 83.77 157.35 88.76 156.01"/>
                  <polygon class="cls-6" points="99.34 157.19 110.42 158.43 105.42 159.85 94.34 158.57 99.34 157.19"/>
                  <polygon class="cls-6" points="110.42 158.43 122.03 159.72 117.04 161.2 105.42 159.85 110.42 158.43"/>
                  <polygon class="cls-6" points="122.03 159.72 134.21 161.08 129.23 162.61 117.04 161.2 122.03 159.72"/>
                  <polygon class="cls-6" points="134.21 161.08 147.01 162.51 142.05 164.09 129.23 162.61 134.21 161.08"/>
                  <polygon class="cls-6" points="147.01 162.51 160.47 164.01 155.53 165.65 142.05 164.09 147.01 162.51"/>
                  <polygon class="cls-6" points="160.47 164.01 174.65 165.59 169.74 167.29 155.53 165.65 160.47 164.01"/>
                  <polygon class="cls-6" points="174.65 165.59 189.59 167.25 184.74 169.02 169.74 167.29 174.65 165.59"/>
                  <polygon class="cls-6" points="189.59 167.25 205.38 169.01 200.59 170.86 184.74 169.02 189.59 167.25"/>
                  <polygon class="cls-6" points="205.38 169.01 222.08 170.87 217.36 172.8 200.59 170.86 205.38 169.01"/>
                  <polygon class="cls-6" points="222.08 170.87 239.77 172.85 235.15 174.85 217.36 172.8 222.08 170.87"/>
                  <polygon class="cls-6" points="73.66 156.18 83.77 157.35 78.68 158.71 68.59 157.5 73.66 156.18"/>
                  <polygon class="cls-6" points="83.77 157.35 94.34 158.57 89.25 159.98 78.68 158.71 83.77 157.35"/>
                  <polygon class="cls-6" points="94.34 158.57 105.42 159.85 100.32 161.31 89.25 159.98 94.34 158.57"/>
                  <polygon class="cls-6" points="105.42 159.85 117.04 161.2 111.94 162.7 100.32 161.31 105.42 159.85"/>
                  <polygon class="cls-6" points="117.04 161.2 129.23 162.61 124.14 164.17 111.94 162.7 117.04 161.2"/>
                  <polygon class="cls-6" points="129.23 162.61 142.05 164.09 136.97 165.7 124.14 164.17 129.23 162.61"/>
                  <polygon class="cls-6" points="142.05 164.09 155.53 165.65 150.48 167.33 136.97 165.7 142.05 164.09"/>
                  <polygon class="cls-6" points="155.53 165.65 169.74 167.29 164.72 169.03 150.48 167.33 155.53 165.65"/>
                  <polygon class="cls-6" points="169.74 167.29 184.74 169.02 179.76 170.84 164.72 169.03 169.74 167.29"/>
                  <polygon class="cls-6" points="184.74 169.02 200.59 170.86 195.67 172.75 179.76 170.84 184.74 169.02"/>
                  <polygon class="cls-6" points="200.59 170.86 217.36 172.8 212.52 174.77 195.67 172.75 200.59 170.86"/>
                  <polygon class="cls-6" points="217.36 172.8 235.15 174.85 230.4 176.91 212.52 174.77 217.36 172.8"/>
                  <polygon class="cls-6" points="68.59 157.5 78.68 158.71 73.49 160.11 63.41 158.85 68.59 157.5"/>
                  <polygon class="cls-6" points="78.68 158.71 89.25 159.98 84.04 161.42 73.49 160.11 78.68 158.71"/>
                  <polygon class="cls-6" points="89.25 159.98 100.32 161.31 95.11 162.8 84.04 161.42 89.25 159.98"/>
                  <polygon class="cls-6" points="100.32 161.31 111.94 162.7 106.72 164.24 95.11 162.8 100.32 161.31"/>
                  <polygon class="cls-6" points="111.94 162.7 124.14 164.17 118.93 165.76 106.72 164.24 111.94 162.7"/>
                  <polygon class="cls-6" points="124.14 164.17 136.97 165.7 131.77 167.36 118.93 165.76 124.14 164.17"/>
                  <polygon class="cls-6" points="136.97 165.7 150.48 167.33 145.3 169.04 131.77 167.36 136.97 165.7"/>
                  <polygon class="cls-6" points="150.48 167.33 164.72 169.03 159.58 170.82 145.3 169.04 150.48 167.33"/>
                  <polygon class="cls-6" points="164.72 169.03 179.76 170.84 174.66 172.7 159.58 170.82 164.72 169.03"/>
                  <polygon class="cls-6" points="179.76 170.84 195.67 172.75 190.63 174.69 174.66 172.7 179.76 170.84"/>
                  <polygon class="cls-6" points="195.67 172.75 212.52 174.77 207.55 176.79 190.63 174.69 195.67 172.75"/>
                  <polygon class="cls-6" points="212.52 174.77 230.4 176.91 225.52 179.03 207.55 176.79 212.52 174.77"/>
                  <polygon class="cls-6" points="63.41 158.85 73.49 160.11 68.19 161.53 58.13 160.23 63.41 158.85"/>
                  <polygon class="cls-6" points="73.49 160.11 84.04 161.42 78.73 162.89 68.19 161.53 73.49 160.11"/>
                  <polygon class="cls-6" points="84.04 161.42 95.11 162.8 89.78 164.32 78.73 162.89 84.04 161.42"/>
                  <polygon class="cls-6" points="95.11 162.8 106.72 164.24 101.39 165.82 89.78 164.32 95.11 162.8"/>
                  <polygon class="cls-6" points="106.72 164.24 118.93 165.76 113.6 167.39 101.39 165.82 106.72 164.24"/>
                  <polygon class="cls-6" points="118.93 165.76 131.77 167.36 126.45 169.05 113.6 167.39 118.93 165.76"/>
                  <polygon class="cls-6" points="131.77 167.36 145.3 169.04 140 170.8 126.45 169.05 131.77 167.36"/>
                  <polygon class="cls-6" points="145.3 169.04 159.58 170.82 154.31 172.65 140 170.8 145.3 169.04"/>
                  <polygon class="cls-6" points="159.58 170.82 174.66 172.7 169.43 174.61 154.31 172.65 159.58 170.82"/>
                  <polygon class="cls-6" points="174.66 172.7 190.63 174.69 185.45 176.68 169.43 174.61 174.66 172.7"/>
                  <polygon class="cls-6" points="190.63 174.69 207.55 176.79 202.45 178.87 185.45 176.68 190.63 174.69"/>
                  <polygon class="cls-6" points="207.55 176.79 225.52 179.03 220.51 181.2 202.45 178.87 207.55 176.79"/>
                </g>
              </g>
              <ellipse class="cls-8" cx="219.83" cy="23.02" rx="1.45" ry="1.07" transform="translate(-1.2 23.43) rotate(-6.09)"/>
            </g>
            <g>
              <g>
                <path class="cls-23" d="M205.95,34.08l-2.19,3.9h-.68s-.13-1.41-.13-1.41l-.1-1.92h-.1s-1.02,1.93-1.02,1.93l-.79,1.41h-.69s-.32-3.88-.32-3.88h.55s.15,1.85.15,1.85l.08,1.55.82-1.56,1.05-1.86h.69s.16,1.85.16,1.85l.08,1.56.83-1.57,1.04-1.86h.56Z"/>
                <path class="cls-23" d="M209.23,36.57h-3.08c-.1.64.34,1.03,1.06,1.03.5,0,.95-.18,1.25-.54h.56c-.45.65-1.18.97-1.94.98-1.06,0-1.69-.64-1.47-1.58.22-.93,1.14-1.61,2.21-1.61,1.12,0,1.67.72,1.39,1.73ZM206.28,36.15h2.46c0-.52-.36-.87-1.01-.87-.66,0-1.21.37-1.46.87Z"/>
                <path class="cls-23" d="M210.72,33.67h.54s-1,4.3-1,4.3h-.54s1.01-4.3,1.01-4.3Z"/>
                <path class="cls-23" d="M211.43,36.43c.21-.92,1.18-1.6,2.24-1.61.84,0,1.47.42,1.5,1.13h-.57c-.07-.43-.47-.7-1.03-.7-.76,0-1.43.5-1.59,1.17-.16.68.29,1.17,1.04,1.17.56,0,1.09-.28,1.36-.71h.57c-.36.72-1.19,1.14-2.03,1.14-1.06,0-1.71-.68-1.5-1.6h0Z"/>
                <path class="cls-23" d="M219.44,36.4c-.21.93-1.2,1.61-2.25,1.62-1.05,0-1.72-.68-1.51-1.6.21-.93,1.21-1.61,2.24-1.61,1.04,0,1.73.67,1.52,1.6ZM216.24,36.41c-.16.68.32,1.16,1.05,1.16.74,0,1.44-.49,1.59-1.17.16-.68-.33-1.16-1.06-1.16-.73,0-1.43.48-1.59,1.17Z"/>
                <path class="cls-23" d="M225.77,35.92l-.45,2.02h-.56s.43-1.94.43-1.94c.12-.53-.1-.79-.65-.79-.7,0-1.15.51-1.29,1.13l-.35,1.6h-.56s.44-1.93.44-1.93c.12-.53-.1-.79-.65-.79-.69,0-1.14.51-1.28,1.13l-.36,1.59h-.55s.7-3.1.7-3.1h.55s-.13.58-.13.58c.33-.4.75-.65,1.34-.65.6,0,.94.25.99.71.33-.43.8-.71,1.43-.72.78,0,1.13.41.97,1.15h0Z"/>
                <path class="cls-23" d="M230.2,36.51h-3.18c-.09.66.37,1.05,1.12,1.04.51,0,.98-.18,1.28-.55h.58c-.46.66-1.2.99-1.98.99-1.1,0-1.75-.65-1.54-1.61.21-.95,1.15-1.63,2.25-1.64,1.15,0,1.74.73,1.47,1.76h0ZM227.15,36.08h2.54c0-.53-.39-.89-1.05-.88-.68,0-1.25.37-1.49.88Z"/>
                <path class="cls-23" d="M235.53,37.79c-.22.09-.65.2-1.06.2-.8,0-1.25-.43-1.07-1.26l.32-1.49h-.72s.1-.44.1-.44h.72s.16-.75.16-.75l.59-.1-.19.85h1.68s-.1.44-.1.44h-1.68s-.32,1.48-.32,1.48c-.12.54.1.84.69.84.27,0,.55-.07.85-.16l.02.39h0Z"/>
                <path class="cls-23" d="M240.18,36.34c-.2.95-1.21,1.64-2.3,1.64-1.08,0-1.79-.69-1.58-1.63.2-.94,1.22-1.63,2.29-1.64,1.07,0,1.8.68,1.6,1.63ZM236.87,36.35c-.15.69.35,1.18,1.11,1.18.77,0,1.48-.5,1.62-1.19.15-.69-.36-1.18-1.12-1.18-.75,0-1.47.49-1.62,1.19h0Z"/>
              </g>
              <g>
                <path class="cls-23" d="M146.71,57.01l-.16.59-3.43-.05,1.43-5.2h.68s-1.27,4.62-1.27,4.62l2.76.04h0Z"/>
                <path class="cls-23" d="M152.2,55.8l-3.88-.05c-.16.85.36,1.38,1.27,1.39.63,0,1.21-.22,1.61-.7h.71c-.62.88-1.56,1.3-2.51,1.28-1.34-.02-2.08-.9-1.74-2.15.34-1.24,1.54-2.13,2.89-2.12,1.41.02,2.06,1,1.64,2.35ZM148.51,55.17l3.1.04c.04-.69-.4-1.17-1.21-1.17-.83,0-1.55.47-1.89,1.14Z"/>
                <path class="cls-23" d="M156.1,57.56c-.28.12-.81.25-1.31.25-.98-.01-1.48-.59-1.19-1.68l.53-1.96h-.88s.16-.59.16-.59h.88s.26-.98.26-.98l.72-.13-.3,1.12,2.05.02-.16.58-2.05-.02-.52,1.93c-.19.71.05,1.12.77,1.13.32,0,.68-.08,1.05-.19v.52h-.01Z"/>
                <path class="cls-23" d="M158.47,54.47h-.49s.87-1.22.87-1.22c-.19-.05-.28-.19-.23-.4.07-.26.32-.42.6-.42.2,0,.45.1.37.45-.03.13-.09.28-1.12,1.6h0Z"/>
                <path class="cls-23" d="M159.54,56.49h.71c.03.59.46.8,1.31.81.69,0,1.25-.2,1.36-.6.11-.41-.38-.5-1.18-.7-1.2-.3-1.7-.51-1.52-1.19.21-.8,1.11-1.24,2.2-1.23,1.08.01,1.66.46,1.65,1.21h-.71c-.07-.43-.47-.61-1.09-.62-.75,0-1.25.24-1.34.6-.09.33.26.43,1.13.65,1.12.28,1.79.45,1.58,1.23-.22.86-1.2,1.26-2.24,1.24-1.21-.02-1.91-.53-1.87-1.41Z"/>
                <path class="cls-23" d="M173.07,52.64l-3.51,5.29h-.91s-.76-5.34-.76-5.34h.74s.64,4.63.64,4.63l3.04-4.59h.75Z"/>
                <path class="cls-23" d="M177.04,56.12l-4.04-.05c-.15.87.41,1.41,1.36,1.42.65,0,1.26-.23,1.66-.71h.74c-.62.9-1.59,1.32-2.58,1.31-1.4-.02-2.19-.92-1.86-2.2.32-1.27,1.56-2.18,2.96-2.16,1.47.02,2.17,1.02,1.76,2.4ZM173.18,55.48l3.23.04c.02-.7-.44-1.19-1.29-1.2-.86,0-1.61.48-1.94,1.16Z"/>
                <path class="cls-23" d="M181.37,53.81l-.16.65c-.08,0-.18-.02-.3-.02-.99-.01-1.83.55-2.1,1.63l-.5,1.99h-.72s1.06-4.21,1.06-4.21h.72s-.24.95-.24.95c.44-.62,1.11-1.01,1.95-1,.11,0,.22.01.29.02Z"/>
                <path class="cls-23" d="M183.44,52.46c-.06.24-.32.43-.61.42-.29,0-.46-.19-.4-.43.06-.24.32-.42.61-.41.29,0,.46.19.4.42h0ZM182.22,53.88h.72s-1.05,4.23-1.05,4.23h-.72s1.05-4.23,1.05-4.23h0Z"/>
                <path class="cls-23" d="M185.45,53.9v.02s1.94.02,1.94.02l-.15.6-1.94-.02-.9,3.63h-.72s.9-3.64.9-3.64h-.92s.15-.61.15-.61h.92s.01-.04.01-.04c.27-1.1,1.15-1.71,2.21-1.7.35,0,.72.07.99.19l-.26.53-.12-.03c-.22-.08-.45-.11-.67-.11-.8,0-1.25.43-1.43,1.17Z"/>
                <path class="cls-23" d="M192.67,54l-4.77,6.14h-.78s1.88-2.45,1.88-2.45l-1.04-3.74h.78s.82,3.06.82,3.06l2.33-3.02s.78,0,.78,0Z"/>
                <path class="cls-23" d="M198.33,56.38l-.47,1.95h-.74s.46-1.95.46-1.95l-1.46-3.52h.83s1.17,2.8,1.17,2.8l2.49-2.75h.85s-3.14,3.47-3.14,3.47Z"/>
                <path class="cls-23" d="M205.45,56.29c-.3,1.29-1.65,2.22-3.08,2.2-1.42-.02-2.31-.99-2.01-2.26.3-1.28,1.66-2.21,3.06-2.19,1.41.02,2.33.97,2.03,2.26ZM201.12,56.23c-.22.94.41,1.62,1.4,1.64,1.01.01,1.96-.65,2.18-1.59.22-.94-.42-1.62-1.42-1.63-.98-.01-1.94.64-2.16,1.59h0Z"/>
                <path class="cls-23" d="M211.32,54.2l-.99,4.31h-.75s.2-.87.2-.87c-.47.56-1.13.93-1.99.92-1.1-.02-1.62-.64-1.38-1.69l.63-2.73h.75s-.6,2.61-.6,2.61c-.18.77.14,1.17.96,1.18.99.01,1.7-.59,1.92-1.55l.51-2.21h.75Z"/>
                <path class="cls-23" d="M213.1,55.1h-.54s.89-1.28.89-1.28c-.21-.05-.32-.2-.27-.42.06-.27.33-.44.63-.44.22,0,.5.11.42.47-.02.13-.09.3-1.14,1.67Z"/>
                <path class="cls-23" d="M218.41,54.21l-.15.67c-.08,0-.19-.02-.32-.02-1.05-.01-1.92.57-2.17,1.68l-.46,2.05h-.76s.98-4.34.98-4.34h.76s-.22.97-.22.97c.45-.64,1.14-1.04,2.03-1.03.12,0,.24.01.31.02h0Z"/>
                <path class="cls-23" d="M223.62,56.71l-4.35-.06c-.13.9.5,1.46,1.52,1.47.7,0,1.34-.24,1.76-.74h.8c-.63.93-1.66,1.37-2.72,1.36-1.5-.02-2.39-.95-2.09-2.28.3-1.32,1.58-2.26,3.09-2.24,1.58.02,2.38,1.06,1.99,2.49h0ZM219.45,56.04l3.48.04c0-.73-.52-1.23-1.44-1.25-.93-.01-1.71.49-2.04,1.2h0Z"/>
                <path class="cls-23" d="M228.44,53.19h.77s-1.21,5.57-1.21,5.57h-.77s1.22-5.57,1.22-5.57Z"/>
                <path class="cls-23" d="M234.61,56.06l-.6,2.79h-.78s.57-2.67.57-2.67c.17-.79-.21-1.19-1.05-1.2-1.05-.01-1.77.61-1.97,1.57l-.49,2.25h-.78s.95-4.39.95-4.39h.78s-.19.87-.19.87c.47-.58,1.15-.94,2.05-.93,1.16.01,1.74.64,1.51,1.71h0Z"/>
                <path class="cls-23" d="M237.63,54.46v.02s2.1.02,2.1.02l-.13.62-2.11-.02-.8,3.78h-.79s.81-3.79.81-3.79h-1s.13-.63.13-.63h1s.01-.04.01-.04c.24-1.15,1.16-1.78,2.32-1.77.38,0,.78.07,1.08.19l-.26.55-.13-.03c-.24-.08-.5-.12-.73-.12-.87,0-1.33.44-1.5,1.22h0Z"/>
                <path class="cls-23" d="M245.3,56.79c-.28,1.33-1.68,2.29-3.19,2.27-1.51-.02-2.49-1.02-2.21-2.34.28-1.32,1.69-2.28,3.17-2.26,1.5.02,2.51,1,2.23,2.33ZM240.69,56.73c-.2.97.49,1.68,1.55,1.69,1.07.01,2.06-.67,2.26-1.64.2-.97-.5-1.67-1.56-1.69-1.05-.01-2.04.66-2.24,1.64Z"/>
                <path class="cls-23" d="M249.97,54.55l-.14.68c-.08,0-.2-.02-.33-.02-1.11-.01-2,.58-2.23,1.72l-.43,2.1h-.8s.92-4.45.92-4.45h.8s-.2,1-.2,1c.45-.66,1.17-1.07,2.1-1.06.12,0,.25.01.32.02h0Z"/>
                <path class="cls-23" d="M258.43,56.28l-.58,2.91h-.81s.55-2.8.55-2.8c.15-.76-.18-1.14-.98-1.15-1.01-.01-1.65.7-1.83,1.6l-.45,2.29h-.82s.56-2.79.56-2.79c.15-.75-.17-1.14-.97-1.15-1-.01-1.63.7-1.82,1.6l-.46,2.29h-.8s.91-4.46.91-4.46h.8s-.17.85-.17.85c.46-.57,1.07-.92,1.92-.91.87,0,1.38.38,1.46,1.04.46-.61,1.13-1.01,2.04-1,1.13.01,1.66.62,1.45,1.68Z"/>
                <path class="cls-23" d="M265.34,54.79l-.87,4.5h-.82s.18-.92.18-.92c-.54.6-1.35.98-2.28.97-1.47-.02-2.33-1.02-2.06-2.37.27-1.36,1.52-2.31,2.98-2.3.93.01,1.59.42,1.89,1.03l.18-.92h.82s0,0,0,0ZM264.09,57.02c.19-.99-.51-1.7-1.61-1.71-1.1-.01-1.99.69-2.18,1.66-.19.99.43,1.7,1.52,1.72,1.1.02,2.08-.68,2.27-1.67Z"/>
                <path class="cls-23" d="M265.87,57.89h.84c.1.65.62.88,1.63.89.81.01,1.46-.22,1.54-.66.08-.44-.5-.54-1.47-.76-1.45-.33-2.06-.56-1.91-1.3.17-.87,1.18-1.35,2.47-1.33,1.28.01,2.01.51,2.08,1.32h-.83c-.12-.47-.61-.67-1.35-.67-.88,0-1.45.26-1.52.65-.07.36.35.46,1.4.71,1.34.3,2.16.5,1.99,1.34-.18.93-1.29,1.37-2.52,1.35-1.43-.02-2.31-.58-2.35-1.54h0Z"/>
                <path class="cls-23" d="M277.03,56.57l-.54,2.88h-.83s.51-2.76.51-2.76c.15-.82-.25-1.23-1.16-1.24-1.13-.01-1.86.63-2.05,1.62l-.44,2.32h-.83s1.2-6.34,1.2-6.34h.83s-.51,2.69-.51,2.69c.49-.6,1.2-.96,2.15-.95,1.25.01,1.87.66,1.67,1.77Z"/>
                <path class="cls-23" d="M280.06,53.4c-.05.26-.34.46-.67.46-.33,0-.55-.2-.5-.47.05-.25.34-.45.67-.45.33,0,.55.2.5.46ZM278.77,54.93h.84s-.84,4.56-.84,4.56h-.84s.84-4.56.84-4.56Z"/>
                <path class="cls-23" d="M286.2,57.3c-.25,1.37-1.7,2.36-3.32,2.34-1.6-.02-2.68-1.05-2.43-2.41.25-1.36,1.72-2.35,3.29-2.33,1.59.02,2.7,1.03,2.45,2.4ZM281.3,57.24c-.18,1,.58,1.73,1.7,1.74,1.14.02,2.16-.69,2.34-1.69.18-1-.59-1.73-1.72-1.74-1.11-.01-2.14.68-2.33,1.69Z"/>
                <path class="cls-23" d="M292.48,56.76l-.51,2.92h-.85s.49-2.79.49-2.79c.15-.83-.28-1.25-1.21-1.26-1.14-.01-1.89.64-2.07,1.64l-.42,2.35h-.85s.82-4.59.82-4.59h.85s-.16.91-.16.91c.49-.61,1.21-.99,2.19-.98,1.27.01,1.92.67,1.73,1.79h0Z"/>
                <path class="cls-23" d="M294.84,59.34c-.05.27-.34.47-.68.46-.34,0-.56-.21-.52-.48.05-.28.34-.47.68-.46.34,0,.56.2.52.48h0ZM295.23,56.13l-.38,1.86h-.74s.26-1.87.26-1.87l.4-2.27h.86s-.39,2.28-.39,2.28h0Z"/>
              </g>
              <g>
                <g>
                  <path class="cls-13" d="M143.09,132.27l-17.45-1.33c-1.25-.1-2.01-1.17-1.67-2.38l3.37-12.28c.33-1.19,1.61-2.11,2.86-2.03l17.33,1.07c1.29.08,2.08,1.14,1.76,2.36l-3.26,12.52c-.32,1.24-1.65,2.17-2.94,2.08h0Z"/>
                  <g class="cls-25">
                    <g>
                      <path class="cls-15" d="M132.25,127.66c2.73-.33,4.83.12,6.38.47.95.21,1.55.41,2.35.67,3.03,1,4.13,1.05,4.7,2.02.33.57.24,1.21.06,2.51-.25,1.85-.87,3.47-1.52,4.77-6.4-1.68-15.46-3.56-21.67-5.2.42-1.33.87-2.21,1.31-2.78.42-.55.95-.81,1.24-.99.4-.25,2.69-.71,4.79-1.01,1.02-.15,1.58-.35,2.36-.45h0Z"/>
                      <path class="cls-23" d="M132.18,127.76c.4-.08.75-.14,1.03-.17,1.01-.13,2.85-.35,4.64.33.31.12.56.24.73.33-.02.05-.04.1-.06.14-.35.22-1.74,1.03-3.47.92-1.76-.12-2.68-1.13-2.89-1.38,0-.06.01-.12.02-.17h0Z"/>
                      <path class="cls-17" d="M131.84,123.38c-.83.13-1.43-.52-1.35-1.42.09-.91.84-1.76,1.66-1.89,0,0-.31,3.31-.31,3.31Z"/>
                      <path class="cls-17" d="M141.09,123.65c.67.19,1.52-.4,1.89-1.31.36-.91.11-1.8-.56-1.99-.44,1.1-.88,2.2-1.32,3.3Z"/>
                      <g class="cls-11">
                        <path class="cls-10" d="M141.96,123s-.07-.02-.09-.06c-.1-.16.11-.61.13-.66.17-.37.48-.72.69-.8.06-.02.12-.02.16,0,.07.04.1.15.09.31h-.06c0-.14-.01-.23-.06-.26-.03-.02-.06-.02-.1,0-.2.07-.49.41-.65.76-.1.23-.19.51-.13.61.02.03.04.04.07.03.08-.01.22-.12.33-.3.12-.21.18-.46.13-.5,0,0,0,0-.02,0-.03,0-.09.05-.15.14-.1.14-.13.28-.13.29h-.06s.04-.17.14-.31c.06-.09.14-.15.2-.17.03,0,.05,0,.07.01.09.07-.01.38-.12.56-.11.19-.26.32-.39.34-.01,0-.02,0-.03,0h0Z"/>
                      </g>
                      <g class="cls-11">
                        <path class="cls-10" d="M131.19,122.69s-.03,0-.05-.01c-.11-.04-.19-.2-.2-.39,0-.19.08-.51.21-.55.03,0,.06,0,.08,0,.05.03.09.1.11.19.02.16-.04.32-.04.32h-.06s.06-.16.04-.3c-.01-.09-.05-.14-.08-.16,0,0-.02,0-.03,0-.07.02-.16.27-.16.48,0,.19.09.31.16.34.04.01.07,0,.1-.02.12-.08.2-.36.22-.6.04-.34-.06-.71-.22-.82-.04-.03-.08-.04-.12-.03-.05.01-.13.06-.23.24l-.06-.02c.09-.16.18-.25.28-.28.06-.02.12,0,.18.04.17.13.27.51.23.87,0,.05-.06.52-.26.65-.04.03-.08.04-.12.04h0Z"/>
                      </g>
                      <path class="cls-17" d="M133.19,126.03c-.05.24-.39,1.84-.9,1.92-.04,0-.08,0-.13-.01.22.25,1.13,1.26,2.89,1.38,1.73.12,3.12-.7,3.47-.92-.04.01-.09.02-.15,0-.28-.07-.22-.72-.2-1.01.02-.24.08-.59.24-1.02-1.75-.12-3.49-.24-5.23-.35h0Z"/>
                      <g class="cls-11">
                        <path class="cls-10" d="M133.97,128.27c.92.37,2.53-.04,4.23-1.09.03-.22.1-.49.21-.8-1.75-.12-3.49-.24-5.23-.35-.03.14-.16.75-.37,1.25.21.62.85.87,1.15.99h0Z"/>
                      </g>
                      <path class="cls-17" d="M143.09,119.13c.16-2.26-1.03-5.29-4.06-5.5-3.01-.22-5.84,2.49-6.79,4.52-.26.56-.69,1.82-.67,3.22,0,.46.05.31.12,1.28.11,1.68-.03,2.23.39,2.91.19.31.4.5.67.74.65.58,1.3.86,1.65,1,.41.17.62.25.96.29.59.06,1.1-.09,1.36-.19,1.55-.51,2.46-1.19,2.93-1.62.05-.05.13-.11.23-.22.33-.35.57-.82,1.53-2.38.27-.45.5-.81.63-1.02.41-.67.94-1.75,1.04-3.03Z"/>
                      <g class="cls-11">
                        <path class="cls-10" d="M137.57,123.21c-.55.9-2.14.88-2.15-.15.69.37,1.24.42,2.15.15h0Z"/>
                      </g>
                      <g class="cls-11">
                        <path class="cls-10" d="M138.08,121.14c.75-1.02,2.44-.94,2.82.03-.66-.74-1.88-.84-2.82-.03h0Z"/>
                      </g>
                      <g class="cls-11">
                        <path class="cls-10" d="M133.38,120.74c.74-.89,2.31-.85,2.64.08-.61-.7-1.72-.75-2.64-.08h0Z"/>
                      </g>
                      <g class="cls-11">
                        <path class="cls-10" d="M136.05,121.14c-.14.14-.31.28-.5.33.15-.1.34-.24.5-.33h0Z"/>
                      </g>
                      <g class="cls-11">
                        <path class="cls-10" d="M138.28,121.75c-.11-.1-.25-.25-.25-.41.06.13.19.28.25.41h0Z"/>
                      </g>
                      <g class="cls-12">
                        <path class="cls-10" d="M139.74,122.54c-.78.1-1.74-.11-1.87-.87.27.69,1.11.84,1.87.87h0Z"/>
                      </g>
                      <g class="cls-12">
                        <path class="cls-10" d="M136.11,121.45c-.34.7-1.31,1.04-1.96.82.71.08,1.5-.18,1.96-.82h0Z"/>
                      </g>
                      <g class="cls-11">
                        <path class="cls-10" d="M138.13,120.8c.13-.12.32-.27.49-.3-.15.08-.34.23-.49.3h0Z"/>
                      </g>
                      <g class="cls-11">
                        <path class="cls-10" d="M136.11,120.64c-.12-.09-.24-.24-.35-.33.16.04.27.21.35.33h0Z"/>
                      </g>
                      <g class="cls-11">
                        <path class="cls-10" d="M136.81,119.49c.07-.15.21-.33.28-.48-.02.16-.17.35-.28.48h0Z"/>
                      </g>
                      <g class="cls-11">
                        <path class="cls-10" d="M138.24,119.54c-.04-.14-.09-.34-.02-.5,0,.15.04.35.02.5h0Z"/>
                      </g>
                      <g class="cls-11">
                        <path class="cls-10" d="M141.55,121.15c-.17.06-.4.13-.55.09.16-.01.39-.08.55-.09h0Z"/>
                      </g>
                      <g class="cls-11">
                        <path class="cls-10" d="M141.44,121.43c-.17,0-.39-.02-.51-.12.14.05.36.07.51.12h0Z"/>
                      </g>
                      <g class="cls-11">
                        <path class="cls-10" d="M132.76,120.71c.16.02.35.1.5.12-.17.03-.37-.05-.5-.12h0Z"/>
                      </g>
                      <g class="cls-11">
                        <path class="cls-10" d="M132.74,120.99c.16-.04.38-.05.55-.08-.16.09-.39.09-.55.08h0Z"/>
                      </g>
                      <g>
                        <path class="cls-5" d="M134.5,124.59c.27.15,1.02.51,2.09.35.54-.08.97-.27,1.26-.42-.04.09-.43.91-1.24,1.18-.84.28-1.82-.15-2.11-1.11h0Z"/>
                        <path class="cls-9" d="M134.48,124.57c1.02.51,2.32.51,3.48-.17-.72,1.9-3.12,1.83-3.48.17h0ZM134.52,124.61c.51,1.38,2.46,1.63,3.28-.11,0,0,.07.06.07.06-1.09.57-2.49.62-3.35.05h0Z"/>
                      </g>
                      <polygon class="cls-19" points="138.46 119.11 141.25 119.22 141.34 119.23 141.38 119.27 141.96 120.2 141.84 120.28 141.08 119.49 141.2 119.54 138.35 119.81 138.46 119.11 138.46 119.11"/>
                      <path class="cls-19" d="M136.44,119.73l-2.65-.5.14-.04-1.11.71-.07-.09,1-.85c.06-.06.07-.04.14-.04l2.77.11-.22.7h0Z"/>
                      <path class="cls-5" d="M140.8,121.29s-.69.72-1.58.68c-.83-.04-1.15-.66-1.18-.72.11-.09.69-.52,1.46-.52.81,0,1.23.48,1.3.57h0Z"/>
                      <path class="cls-5" d="M133.35,120.88s.34.75,1.23.77c.83.02,1.42-.57,1.48-.63-.07-.1-.44-.56-1.19-.61-.79-.05-1.41.39-1.52.47Z"/>
                      <g class="cls-14">
                        <path class="cls-23" d="M140.02,121.43c-.17.34-.59.54-.93.44-.35-.1-.49-.46-.32-.8.17-.34.59-.54.93-.44.35.1.49.46.32.8Z"/>
                      </g>
                      <g class="cls-24">
                        <path class="cls-23" d="M135.48,120.76c.01.35-.29.69-.67.76-.38.07-.7-.15-.71-.5,0-.35.29-.69.67-.76.38-.07.7.15.71.5h0Z"/>
                      </g>
                      <path class="cls-1" d="M138.04,121.24c.86-.77,2.27-.8,2.82.02,0,0-.1.08-.1.08-.59-.75-1.83-.68-2.71-.09h0Z"/>
                      <path class="cls-1" d="M136.05,121.03c-.56-.72-1.78-.76-2.67-.11,0,0-.07-.08-.07-.08.86-.76,2.37-.64,2.73.19h0Z"/>
                      <g class="cls-11">
                        <path class="cls-10" d="M137,120.82c-.05.48-.19.99-.53,1.43.2-.48.32-.94.53-1.43h0Z"/>
                      </g>
                      <g class="cls-11">
                        <path class="cls-10" d="M138.13,123.71c.56.42.46,1.39-.18,1.91.5-.62.58-1.38.18-1.91h0Z"/>
                      </g>
                      <g class="cls-11">
                        <path class="cls-10" d="M136.11,128.28c-.37.35-1,.35-1.25.01.33.25.83.25,1.25-.01h0Z"/>
                      </g>
                      <g class="cls-11">
                        <path class="cls-10" d="M134.73,123.78c-.67.46-.98,1.2-.83,1.86-.33-.59.08-1.54.83-1.86h0Z"/>
                      </g>
                      <g class="cls-12">
                        <path class="cls-10" d="M134.04,124.15c-.42.36-.59.86-.45,1.3-.28-.37-.06-1.04.45-1.3h0Z"/>
                      </g>
                      <g class="cls-12">
                        <path class="cls-10" d="M138.67,123.98c.36.31.22,1-.25,1.32.37-.41.47-.91.25-1.32h0Z"/>
                      </g>
                      <path class="cls-19" d="M141.84,122.32c.21-.83.26-1.49.27-1.94,0-.22-.03-.54-.01-1.05,0-.4.04-.74.06-.96-.54-.2-1.16-.48-1.81-.88-.67-.42-1.19-.87-1.58-1.26.49-.69.98-1.37,1.47-2.06.39-.06,1.4-.17,2.25.36.39.24.75.62.99,1.2.71,1.72.07,4.47-1.64,6.59h0Z"/>
                      <path class="cls-19" d="M141.63,114.29c-.2.31-1.49,2.21-3.92,2.91-1.82.53-3.19.07-3.61-.09-.33.35-.66.7-.99,1.04l-.68,1.85c-.18.59-.36,1.17-.54,1.76-.14-.51-.28-1.26-.19-2.2.04-.46.13-.8.18-1.01.18-.71.37-1.5.97-2.31.35-.47.73-.79,1.1-1.11.08-.07.62-.53,1.14-.84,1.22-.73,2.5-.75,3.2-.77,1.65-.05,2.8.47,3.34.76Z"/>
                      <g class="cls-12">
                        <path class="cls-10" d="M139.91,124.6c.4-.59.62-1.68,1.42-1.87-.78.33-.88,1.28-1.42,1.87h0Z"/>
                      </g>
                      <g class="cls-12">
                        <path class="cls-10" d="M132.57,124.09c-.21-.63.19-1.55-.38-1.98.67.28.3,1.35.38,1.98h0Z"/>
                      </g>
                      <path class="cls-19" d="M141.41,114.44c.05-.11.15-.35.13-.63-.02-.27-.13-.46-.2-.54-.05.16-.1.32-.15.48-.05.16-.1.32-.15.47l.37.22Z"/>
                      <path class="cls-19" d="M141.33,114.24c.08-.06.24-.19.48-.27.23-.08.4-.07.49-.06-.12.08-.24.15-.35.23-.12.08-.23.15-.35.23,0,0-.27-.13-.27-.13Z"/>
                      <path class="cls-19" d="M139.26,115.03c-.43.04-.65.14-.8.27-.16.14-.28.37-.36.5-.05.09-.1.19-.14.3-.07.19-.12.46.01.83.17-.3.35-.6.52-.9-.04.25-.06.67.09,1.12.09.26.22.46.33.6.04-.45.07-.9.11-1.35,0,.2-.02.85.49,1.38.4.43.92.55,1.13.58-.17-.29-.33-.58-.5-.87.08.15.23.38.51.57.26.18.52.27.69.31-.03-.24-.06-.49-.1-.73.17.06.38.12.63.15.47.06.89.01,1.18-.05-.12-.34-.71-1.88-2.11-2.48-.04-.02-.77-.32-1.69-.25h0Z"/>
                    </g>
                  </g>
                </g>
                <g>
                  <path class="cls-2" d="M144.34,65.67l-.82,3h-.63s-1-2.37-1-2.37l-.24,1.06-.34,1.26h-.53s.82-3.01.82-3.01h.62s1,2.36,1,2.36l.24-1.06.34-1.26h.53Z"/>
                  <path class="cls-2" d="M147.37,66.38l-.64,2.37h-.53s.11-.41.11-.41c-.26.27-.62.44-1.02.43-.69-.02-1.05-.54-.85-1.26.2-.72.85-1.22,1.52-1.21.41,0,.67.2.78.47l.11-.4h.53ZM146.52,67.56c.12-.45-.13-.78-.58-.79-.45,0-.86.3-.98.75-.12.46.11.78.56.79.45.01.88-.3,1-.75Z"/>
                  <path class="cls-2" d="M151.65,67.33l-.41,1.53h-.54s.38-1.43.38-1.43c.09-.35-.01-.54-.37-.55-.42,0-.72.28-.83.72l-.33,1.23h-.54s.38-1.43.38-1.43c.1-.35-.01-.54-.37-.55-.42,0-.71.28-.83.71l-.33,1.23h-.53s.64-2.38.64-2.38h.53s-.1.39-.1.39c.25-.27.55-.42.92-.41.4,0,.63.19.67.51.26-.3.6-.49,1.01-.48.55.01.79.35.64.92Z"/>
                  <path class="cls-2" d="M154.71,67.87l-2.12-.05c-.07.44.2.69.64.7.31,0,.61-.11.79-.34h.56c-.35.54-.91.78-1.47.77-.79-.02-1.22-.55-1.03-1.27.19-.72.89-1.23,1.68-1.22.84.02,1.22.62.95,1.4ZM152.72,67.43l1.52.03c0-.33-.2-.56-.6-.57-.41,0-.75.22-.92.54h0Z"/>
                </g>
                <g>
                  <path d="M142.92,75.41l-.57,2.09c-.18.65-.71.99-1.31.97-.59-.02-.93-.37-.75-1.02l.05-.2h.39s-.05.2-.05.2c-.12.45.08.66.45.67.37.01.69-.18.81-.65l.57-2.08h.4s0,.01,0,.01Z"/>
                  <path d="M145.74,77.36c-.19.72-.93,1.23-1.68,1.21-.75-.02-1.19-.57-1-1.29.2-.72.94-1.23,1.67-1.21.74.02,1.2.57,1,1.29h0ZM143.46,77.29c-.14.53.17.91.69.93.53.02,1.05-.35,1.19-.87.14-.53-.18-.92-.7-.93-.52-.02-1.04.34-1.18.87Z"/>
                  <path d="M148.71,77.12l-.41,1.53h-.4s.39-1.47.39-1.47c.12-.43-.05-.66-.48-.67-.54-.02-.92.32-1.06.85l-.33,1.23h-.39s.9-3.37.9-3.37h.39s-.38,1.44-.38,1.44c.27-.31.62-.5,1.07-.49.59.02.85.37.7.95Z"/>
                  <path d="M151.67,77.21l-.41,1.53h-.4s.39-1.47.39-1.47c.12-.43-.06-.66-.49-.67-.53-.02-.92.32-1.06.85l-.33,1.24h-.4s.64-2.42.64-2.42h.4s-.13.49-.13.49c.26-.32.62-.51,1.08-.5.59.02.86.37.7.96h0Z"/>
                  <path d="M156.71,77.36c-.23.9-1.16,1.52-2.13,1.49l-1.14-.04.81-3.08,1.14.03c.98.03,1.56.69,1.32,1.59h0ZM156.31,77.35c.18-.7-.26-1.21-1.01-1.23l-.74-.02-.63,2.38.74.02c.75.02,1.45-.45,1.64-1.15Z"/>
                  <path d="M160.1,76.57l-.63,2.43h-.4s.13-.5.13-.5c-.29.32-.71.52-1.17.51-.72-.02-1.1-.57-.91-1.3.19-.74.85-1.24,1.57-1.22.46.01.76.24.88.58l.13-.5s.4.01.4.01ZM159.39,77.78c.14-.53-.17-.93-.71-.94-.54-.02-1.01.36-1.15.89-.14.53.14.92.67.94.54.02,1.05-.35,1.19-.88Z"/>
                  <path d="M162.34,76.6l-.1.38s-.1-.01-.17-.01c-.56-.02-1.03.3-1.19.93l-.3,1.15h-.4s.63-2.44.63-2.44h.4s-.14.56-.14.56c.25-.36.63-.58,1.1-.56.06,0,.12,0,.16.01Z"/>
                  <path d="M164.22,79.05c-.16.07-.47.14-.77.13-.58-.02-.87-.37-.71-1.01l.3-1.16-.52-.02.09-.35.52.02.15-.58.42-.07-.17.66,1.2.04-.09.35-1.2-.04-.29,1.14c-.11.42.03.66.45.68.19,0,.4-.04.62-.1v.31s0,0,0,0Z"/>
                </g>
                <g>
                  <path d="M219.28,77.63l-.72,3.24h-.44s.62-2.81.62-2.81l-.92.28.08-.38,1.18-.34h.2s0,0,0,0Z"/>
                  <path d="M222.06,80.98l-2.8-.09.06-.28,1.26-.79c1.06-.66,1.37-.86,1.44-1.19.08-.35-.19-.62-.71-.63-.53-.02-.89.24-1.08.65h-.45c.25-.65.87-1.04,1.63-1.02.76.02,1.17.45,1.05,1-.11.48-.57.77-1.57,1.39l-.83.52,2.07.06-.08.37h0Z"/>
                  <path d="M225.54,80.17c-.13.6-.76.95-1.55.92-.73-.02-1.29-.36-1.25-1.03h.45c.02.46.38.64.88.66.56.02.95-.21,1.03-.6.07-.33-.1-.58-.71-.6l-.52-.02.07-.34h.39c.57.03.88-.15.95-.47.08-.36-.21-.6-.7-.61-.45-.01-.8.12-1.02.54h-.45c.28-.67.89-.93,1.56-.91.72.02,1.19.4,1.07.94-.07.31-.31.57-.69.67.39.13.58.43.49.83h0Z"/>
                  <path d="M228.06,79.94l-1.75-.05.08-.37,1.75.05-.08.37Z"/>
                  <path d="M231.65,80.49l-.56-.02-.17.79h-.45s.17-.8.17-.8l-2.03-.06.08-.36,2.26-2.07.67.02-.45,2.12.56.02-.08.37h0ZM230.72,80.09l.38-1.76h-.04s-1.86,1.71-1.86,1.71l1.53.05h0Z"/>
                  <path d="M235,80.29c-.14.67-.85,1.12-1.63,1.1-.72-.02-1.29-.39-1.26-1.07h.46c.02.44.38.68.88.7.55.02,1-.3,1.09-.74.1-.46-.23-.76-.77-.78-.43-.01-.76.15-.99.4h-.43s.86-1.87.86-1.87l2.08.06-.08.37-1.74-.05-.47,1.01c.25-.17.55-.26.93-.25.71.02,1.21.45,1.07,1.12Z"/>
                  <path d="M237.52,80.23l-1.77-.05.08-.37,1.77.05-.08.37Z"/>
                  <path d="M241.08,80.45c-.15.71-.88,1.16-1.68,1.13-.78-.02-1.34-.48-1.19-1.23.12-.57.62-1.01,1.85-2.12l.53.02-1.35,1.22c.22-.09.46-.16.75-.15.69.02,1.23.43,1.09,1.14h0ZM240.62,80.43c.1-.5-.27-.81-.81-.82-.57-.02-1.04.27-1.14.77-.1.49.27.81.81.83.55.02,1.05-.29,1.15-.77Z"/>
                  <path d="M244.46,78.36l-.06.3-2.35,2.96-.52-.02,2.31-2.88-2.09-.06.08-.38,2.63.08h0Z"/>
                  <path d="M247.27,80.86c-.12.6-.82.94-1.63.91-.8-.03-1.36-.4-1.24-1,.08-.4.4-.71.87-.82-.34-.13-.48-.4-.42-.73.11-.55.75-.89,1.49-.87.73.02,1.23.39,1.12.95-.07.32-.32.59-.72.69.42.14.61.47.53.87h0ZM246.81,80.82c.08-.42-.21-.63-.85-.65-.64-.02-1.02.17-1.1.59-.08.39.28.63.85.65.57.02,1.02-.19,1.1-.59ZM245.3,79.28c-.06.3.13.53.74.55.6.02.89-.19.95-.5.07-.36-.23-.59-.72-.61-.5-.01-.89.19-.96.56Z"/>
                  <path d="M250.92,79.69c-.12.58-.62,1.02-1.86,2.14l-.54-.02,1.36-1.23c-.23.09-.47.16-.77.15-.69-.02-1.25-.43-1.11-1.15.14-.72.88-1.16,1.69-1.14.8.02,1.37.48,1.22,1.24h0ZM250.46,79.66c.1-.5-.28-.81-.83-.83-.56-.02-1.05.29-1.15.78-.1.5.28.81.82.83.57.02,1.06-.27,1.16-.77Z"/>
                </g>
                <g>
                  <path d="M137.63,97.53c-.28,1.03-.93,1.59-1.78,1.55-.83-.04-1.18-.64-.9-1.68.28-1.03.94-1.59,1.77-1.55.84.04,1.18.65.9,1.67h0ZM137.23,97.51c.24-.9-.04-1.28-.6-1.3-.56-.03-1.03.32-1.28,1.21-.24.9.04,1.28.59,1.31.56.03,1.04-.32,1.28-1.22Z"/>
                  <path d="M140.84,97.68c-.28,1.03-.93,1.6-1.78,1.56-.84-.04-1.19-.64-.91-1.68.28-1.04.94-1.59,1.78-1.55.85.04,1.18.65.91,1.68ZM140.44,97.66c.24-.9-.04-1.28-.6-1.31-.56-.03-1.04.32-1.28,1.22-.24.9.04,1.28.6,1.31.56.03,1.04-.32,1.28-1.22Z"/>
                  <path d="M144.06,97.83c-.28,1.03-.93,1.6-1.79,1.56-.84-.04-1.19-.65-.91-1.69.28-1.04.94-1.59,1.78-1.56.85.04,1.19.66.92,1.68ZM143.66,97.81c.24-.9-.04-1.28-.61-1.31-.56-.03-1.04.32-1.29,1.22-.24.9.04,1.29.61,1.31.57.03,1.05-.32,1.29-1.22Z"/>
                  <path d="M147.3,97.99c-.27,1.03-.93,1.61-1.79,1.56-.85-.04-1.2-.65-.92-1.69.28-1.04.94-1.6,1.79-1.56.86.04,1.2.66.93,1.69h0ZM146.9,97.97c.24-.91-.05-1.29-.62-1.31-.57-.03-1.05.32-1.29,1.22-.24.91.05,1.29.61,1.32.57.03,1.05-.32,1.29-1.23Z"/>
                  <path d="M150.79,96.55l-.83,3.17-.4-.02.72-2.73-.86.26.1-.37,1.09-.31s.18,0,.18,0Z"/>
                  <path d="M153.15,99.87l-2.56-.12.07-.27,1.2-.76c1-.64,1.3-.82,1.38-1.15.09-.34-.14-.61-.61-.63-.48-.02-.83.22-1.02.62l-.41-.02c.26-.62.86-.99,1.55-.96.7.03,1.05.46.91.99-.12.47-.56.74-1.51,1.34l-.79.49,1.89.09-.09.36Z"/>
                  <path d="M156.38,99.13c-.15.58-.75.92-1.47.88-.67-.03-1.16-.37-1.09-1.02l.41.02c0,.44.31.62.77.64.51.02.88-.2.97-.57.08-.32-.06-.57-.62-.6l-.47-.02.09-.33.36.02c.52.02.82-.15.9-.45.09-.35-.16-.59-.61-.61-.41-.02-.74.11-.96.52l-.41-.02c.3-.64.86-.89,1.47-.86.66.03,1.07.41.93.94-.08.3-.32.55-.67.64.35.13.5.43.4.82Z"/>
                  <path d="M159.48,99.41l-.51-.02-.2.77-.41-.02.2-.77-1.84-.09.09-.36,2.17-1.99.61.03-.53,2.07.51.02-.09.36h0ZM158.66,99.01l.44-1.71h-.04s-1.79,1.64-1.79,1.64l1.39.07Z"/>
                  <path d="M164.02,99.33c-.17.66-.83,1.09-1.55,1.05-.66-.03-1.16-.4-1.09-1.06l.41.02c0,.42.31.66.77.68.5.02.93-.28,1.04-.71.11-.44-.17-.75-.66-.77-.4-.02-.71.13-.93.38l-.4-.02.89-1.8,1.89.09-.09.36-1.58-.07-.48.98c.24-.16.52-.25.86-.23.65.03,1.08.46.91,1.11Z"/>
                  <path d="M167.07,99.45c-.17.69-.86,1.12-1.59,1.08-.71-.03-1.19-.49-1.01-1.22.14-.56.62-.98,1.8-2.04l.48.02-1.3,1.17c.21-.09.43-.15.69-.14.62.03,1.09.44.92,1.12h0ZM166.66,99.43c.12-.48-.2-.79-.69-.81-.51-.02-.96.25-1.08.73-.12.48.2.79.68.82.5.02.97-.26,1.09-.74Z"/>
                  <path d="M170.26,97.45l-.07.29-2.3,2.85-.47-.02,2.26-2.77-1.89-.09.09-.37s2.38.11,2.38.11Z"/>
                  <path d="M172.66,99.93c-.15.59-.8.9-1.53.87-.73-.04-1.21-.41-1.07-.99.1-.39.4-.68.84-.79-.3-.13-.42-.4-.34-.71.13-.54.74-.86,1.4-.83.66.03,1.09.4.96.94-.08.31-.32.57-.69.67.38.14.53.46.43.85ZM172.25,99.89c.1-.41-.16-.61-.73-.64-.58-.03-.93.15-1.03.56-.1.38.22.62.73.64.51.02.93-.17,1.03-.56ZM170.97,98.37c-.07.29.09.52.64.54.55.03.82-.18.89-.47.09-.35-.17-.58-.62-.6-.45-.02-.82.18-.9.53Z"/>
                  <path d="M177.56,98.92c-.14.56-.62.99-1.81,2.06l-.49-.02,1.31-1.18c-.21.09-.44.15-.71.14-.63-.03-1.11-.44-.94-1.13.17-.7.87-1.12,1.61-1.09.72.03,1.22.49,1.04,1.23h0ZM177.15,98.88c.12-.49-.21-.8-.71-.82-.5-.02-.98.27-1.09.74-.12.48.21.79.7.82.52.02.98-.25,1.1-.74h0Z"/>
                  <path d="M179.47,97.88l-.79,3.24-.42-.02.68-2.79-.89.26.09-.38,1.14-.32h.19Z"/>
                  <path d="M182.69,99.67c-.26,1.07-.94,1.65-1.85,1.61-.9-.04-1.29-.67-1.03-1.75.26-1.07.95-1.65,1.84-1.61.91.04,1.29.68,1.03,1.74ZM182.26,99.65c.23-.93-.09-1.33-.69-1.36-.6-.03-1.1.33-1.33,1.26-.23.93.09,1.33.69,1.36.6.03,1.1-.33,1.33-1.26Z"/>
                  <path d="M184.85,98.13l-.78,3.26-.43-.02.68-2.81-.9.26.09-.38,1.14-.32h.19s0,0,0,0Z"/>
                </g>
                <g>
                  <path d="M213.15,99.43l-.74,3.33-.45-.02.64-2.87-.93.27.09-.39,1.19-.33s.2,0,.2,0Z"/>
                  <path d="M216.6,101.28c-.24,1.1-.94,1.7-1.9,1.65-.95-.05-1.38-.69-1.13-1.8.24-1.11.95-1.69,1.9-1.65.96.04,1.38.7,1.14,1.79ZM216.14,101.26c.21-.96-.13-1.37-.77-1.4-.63-.03-1.15.34-1.36,1.29-.21.96.13,1.37.77,1.4.64.03,1.15-.34,1.36-1.3h0Z"/>
                  <path d="M217.11,103l-.45-.02,1.9-3.63.45.02-1.9,3.63Z"/>
                  <path d="M221.42,103.21l-2.85-.14.06-.29,1.28-.8c1.08-.67,1.39-.86,1.47-1.21.08-.36-.19-.64-.72-.67-.54-.02-.91.23-1.1.66l-.46-.02c.25-.66.89-1.05,1.66-1.01.78.04,1.19.49,1.07,1.05-.11.5-.58.79-1.6,1.42l-.85.52,2.11.1-.08.38h0Z"/>
                  <path d="M224.91,102.45c-.13.61-.83.94-1.62.9-.79-.04-1.33-.43-1.2-1.04.09-.4.4-.71.87-.82-.33-.14-.47-.42-.4-.75.12-.56.76-.89,1.48-.86.71.03,1.2.42,1.08.98-.07.33-.32.59-.72.69.42.15.59.49.51.89h0ZM224.46,102.4c.09-.42-.2-.64-.82-.67-.63-.03-1,.16-1.09.58-.09.4.26.65.82.67.56.03,1-.18,1.09-.58h0ZM223,100.81c-.07.31.12.54.71.57.59.03.88-.18.94-.49.08-.37-.21-.61-.7-.63-.49-.02-.88.18-.95.55Z"/>
                </g>
                <g>
                  <path d="M254.62,101.35l-.67,3.45-.48-.02.58-2.97-.98.28.08-.4,1.25-.34h.22s0,.01,0,.01Z"/>
                  <path d="M257.72,104.98l-3.01-.15.06-.3,1.33-.82c1.12-.69,1.45-.89,1.51-1.24.07-.37-.22-.66-.78-.69-.57-.03-.95.24-1.14.68l-.48-.02c.25-.68.91-1.08,1.72-1.04.82.04,1.27.51,1.16,1.08-.1.51-.58.81-1.64,1.46l-.88.54,2.23.11-.08.4Z"/>
                  <path d="M261.43,104.18c-.12.63-.79,1-1.64.96-.79-.04-1.39-.41-1.38-1.12l.48.02c.03.48.43.68.96.71.6.03,1.01-.21,1.09-.62.07-.35-.13-.62-.78-.65l-.56-.03.07-.36.42.02c.61.03.94-.16,1.01-.49.07-.39-.24-.64-.78-.66-.48-.02-.85.11-1.08.56l-.48-.02c.28-.7.93-.96,1.65-.93.77.04,1.29.45,1.18,1.03-.06.33-.32.6-.72.7.43.14.63.47.55.89Z"/>
                </g>
                <path d="M202.5,82.52l-63.07-2.1c-1.3-.04-2.08-1.06-1.75-2.26l1.11-4.06c.33-1.19,1.64-2.14,2.93-2.1l62.82,1.65c1.43.04,2.36,1.09,2.07,2.36l-.99,4.29c-.29,1.27-1.7,2.27-3.14,2.22ZM141.68,72.22c-1.16-.03-2.35.82-2.64,1.89l-1.11,4.06c-.3,1.08.41,1.99,1.58,2.03l63.06,2.09c1.29.04,2.56-.85,2.83-2l.99-4.29c.26-1.14-.58-2.09-1.87-2.12l-62.83-1.66Z"/>
                <g>
                  <path class="cls-2" d="M135.29,88.26c.25-.91,1.15-1.56,2.13-1.53.76.03,1.25.48,1.29,1.13l-.57-.02c-.08-.37-.38-.62-.85-.63-.67-.03-1.29.43-1.46,1.07-.18.64.18,1.14.85,1.17.47.02.9-.2,1.18-.56l.57.02c-.38.63-1.11,1.04-1.87,1.01-.98-.04-1.51-.75-1.26-1.67Z"/>
                  <path class="cls-2" d="M140.87,87.55l-.14.51s-.09-.01-.16-.01c-.49-.02-.93.22-1.09.82l-.3,1.12-.53-.02.66-2.43.53.02-.13.48c.25-.33.6-.52,1.01-.5.07,0,.12,0,.15.02Z"/>
                  <path class="cls-2" d="M143.46,89.06l-2.12-.09c-.08.45.19.71.63.73.31.01.61-.1.8-.34l.56.02c-.35.54-.92.78-1.48.75-.79-.03-1.21-.59-1.01-1.32.2-.73.9-1.25,1.69-1.22.84.03,1.21.66.94,1.46h0ZM141.47,88.57l1.52.06c0-.34-.2-.58-.59-.6-.41-.02-.75.21-.93.54Z"/>
                  <path class="cls-2" d="M147.22,86.85l-.91,3.42-.54-.02.11-.41c-.27.27-.64.44-1.05.43-.7-.03-1.07-.58-.87-1.32.2-.75.86-1.25,1.55-1.23.42.02.68.22.8.51l.37-1.39s.54.02.54.02ZM146.09,89.03c.12-.47-.14-.81-.59-.83-.46-.02-.87.3-1,.76-.13.47.12.81.57.83.46.02.89-.29,1.02-.76Z"/>
                  <path class="cls-2" d="M148.42,87.08c-.05.18-.23.31-.44.3-.2,0-.31-.15-.27-.33.05-.18.23-.3.43-.29.21,0,.32.14.27.32ZM147.58,87.85l.54.02-.65,2.45-.54-.02.65-2.45Z"/>
                  <path class="cls-2" d="M150.14,90.31c-.17.08-.5.16-.8.15-.54-.02-.88-.36-.7-1.03l.28-1.04-.49-.02.13-.47.49.02.15-.56.57-.09-.18.67,1.09.04-.12.47-1.09-.04-.27,1.01c-.09.36.03.56.37.57.17,0,.37-.04.6-.1v.41s-.01,0-.01,0Z"/>
                  <path class="cls-2" d="M152.41,88.95c.24-.92,1.16-1.59,2.17-1.55.78.03,1.3.49,1.34,1.15l-.59-.02c-.08-.37-.4-.63-.88-.64-.69-.03-1.32.44-1.49,1.09-.17.65.2,1.16.89,1.18.48.02.92-.2,1.2-.56l.59.02c-.38.64-1.13,1.06-1.91,1.02-1.01-.04-1.56-.77-1.32-1.69Z"/>
                  <path class="cls-2" d="M159.16,88.31l-.64,2.47-.55-.02.11-.41c-.27.28-.64.45-1.06.43-.72-.03-1.1-.59-.9-1.34.2-.75.87-1.27,1.57-1.24.42.02.69.22.82.51l.11-.42.55.02h0ZM158.29,89.52c.12-.47-.15-.82-.61-.84-.47-.02-.88.3-1.01.77-.12.48.13.82.59.84.47.02.91-.29,1.03-.77Z"/>
                  <path class="cls-2" d="M161.42,88.36l-.13.52s-.09-.01-.16-.02c-.5-.02-.96.23-1.12.84l-.29,1.14-.55-.02.64-2.47.55.02-.13.49c.25-.34.61-.53,1.04-.51.07,0,.12,0,.16.02Z"/>
                  <path class="cls-2" d="M164.74,87.53l-.89,3.47-.56-.02.11-.42c-.27.27-.65.45-1.07.43-.72-.03-1.11-.59-.91-1.35.19-.76.87-1.27,1.57-1.24.43.02.7.22.83.51l.36-1.41.56.02h0ZM163.62,89.74c.12-.47-.15-.82-.62-.84-.47-.02-.89.3-1.01.77-.12.48.13.82.6.84.47.02.92-.3,1.04-.77h0Z"/>
                </g>
                <path d="M197.24,105.26l-63.69-3.27c-1.31-.07-2.09-1.13-1.75-2.36l1.15-4.17c.34-1.23,1.67-2.18,2.97-2.12l63.44,2.8c1.45.06,2.38,1.17,2.09,2.47l-1.02,4.42c-.3,1.31-1.73,2.32-3.19,2.24ZM135.85,93.55c-1.17-.05-2.37.8-2.68,1.91l-1.15,4.17c-.31,1.11.4,2.07,1.58,2.13l63.68,3.26c1.31.07,2.6-.84,2.87-2.02l1.02-4.42c.27-1.17-.57-2.17-1.88-2.23l-63.45-2.81Z"/>
                <g>
                  <path class="cls-2" d="M219.18,69.53c-.16.7-.93.96-1.59.94-1.03-.02-1.37-.53-1.35-1.08h.6c.03.39.27.58.85.6.49.01.82-.15.88-.45.07-.3-.22-.35-.88-.5-.68-.15-1.2-.34-1.07-.93.14-.63.86-.95,1.57-.94.93.02,1.26.44,1.25.95h-.6c-.05-.28-.26-.46-.75-.47-.49-.01-.8.17-.87.45-.05.23.14.3.73.43.89.2,1.37.38,1.23.99Z"/>
                  <path class="cls-2" d="M222.64,69.61c-.15.7-.94.96-1.6.94-1.04-.02-1.38-.53-1.36-1.08h.6c.03.39.27.59.86.6.5.01.82-.15.89-.45.07-.3-.23-.35-.88-.5-.69-.15-1.21-.34-1.08-.94.14-.63.86-.95,1.57-.94.93.02,1.27.44,1.26.95h-.6c-.05-.28-.26-.46-.76-.47-.5-.01-.81.18-.87.45-.05.23.14.31.73.43.9.2,1.37.38,1.24,1Z"/>
                  <path class="cls-2" d="M226.88,67.4l-.7,3.21-.72-.02-1.32-2.52-.19,1.14-.3,1.34h-.6s.7-3.22.7-3.22h.71s1.32,2.53,1.32,2.53l.19-1.14.29-1.34h.6Z"/>
                </g>
                <path d="M287.03,85.33l-71.52-2.38c-1.47-.05-2.42-1.13-2.13-2.41l.97-4.32c.29-1.27,1.7-2.27,3.16-2.23l71.19,1.87c1.63.04,2.77,1.17,2.53,2.52l-.8,4.59c-.24,1.36-1.76,2.42-3.4,2.37h0ZM217.46,74.22c-1.31-.03-2.59.87-2.85,2.01l-.97,4.32c-.26,1.15.6,2.13,1.92,2.17l71.51,2.37c1.47.05,2.85-.91,3.06-2.13l.8-4.58c.21-1.21-.81-2.23-2.28-2.27l-71.19-1.88h0Z"/>
                <g>
                  <path class="cls-2" d="M212.39,90.19l-.19.85,1.7.07-.11.51-1.7-.07-.21.92,1.83.07-.11.51-2.43-.1.74-3.28,2.43.09-.11.51-1.83-.07h0Z"/>
                  <path class="cls-2" d="M216.07,93.15l-.51-.96-.89.9-.73-.03,1.35-1.29-.71-1.3.72.03.46.89.82-.84.73.03-1.27,1.23.76,1.37-.72-.03h0Z"/>
                  <path class="cls-2" d="M220.59,92.02c-.17.79-.87,1.33-1.66,1.3-.46-.02-.77-.23-.92-.53l-.36,1.62-.61-.03.83-3.78.61.02-.1.44c.28-.29.68-.48,1.15-.46.77.03,1.24.62,1.06,1.41ZM219.97,92c.11-.5-.18-.86-.7-.88-.52-.02-.98.31-1.09.81-.11.5.21.86.72.88.51.02.96-.31,1.07-.81Z"/>
                  <path class="cls-2" d="M226.25,91.89c-.21.96-1.2,1.63-2.3,1.58l-1.33-.05.72-3.31,1.32.05c1.1.04,1.79.77,1.58,1.73ZM225.63,91.87c.14-.67-.31-1.17-1.07-1.2l-.72-.03-.5,2.29.72.03c.76.03,1.42-.42,1.57-1.09h0Z"/>
                  <path class="cls-2" d="M230.01,91.08l-.56,2.62-.62-.03.09-.44c-.28.29-.69.47-1.15.45-.8-.03-1.26-.62-1.09-1.42.17-.8.89-1.34,1.67-1.31.47.02.79.24.94.54l.1-.45.62.02h0ZM229.12,92.37c.11-.5-.22-.87-.74-.89-.52-.02-.97.32-1.08.82-.11.5.19.87.71.89.52.02,1-.31,1.1-.81Z"/>
                  <path class="cls-2" d="M232.49,93.69c-.18.08-.56.17-.9.16-.62-.03-1.03-.38-.88-1.11l.24-1.11-.56-.02.11-.5.56.02.13-.59.64-.1-.15.71,1.24.05-.11.51-1.24-.05-.23,1.08c-.08.38.08.6.47.62.19,0,.42-.04.67-.1l.02.44h0Z"/>
                  <path class="cls-2" d="M236.12,92.8l-2.46-.1c-.05.48.28.77.79.79.36.01.69-.11.89-.36l.65.03c-.36.58-1,.83-1.64.81-.92-.04-1.45-.64-1.29-1.43.17-.79.94-1.35,1.85-1.31.97.04,1.46.72,1.21,1.58h0ZM233.79,92.26l1.76.07c-.02-.36-.28-.63-.74-.65-.47-.02-.85.23-1.03.58Z"/>
                </g>
                <path d="M239.03,107.41l-28.63-1.47c-1.48-.08-2.44-1.21-2.14-2.53l1-4.45c.29-1.31,1.73-2.32,3.2-2.25l28.51,1.26c1.54.07,2.58,1.22,2.31,2.56l-.93,4.57c-.27,1.35-1.76,2.39-3.31,2.31h0ZM212.4,96.94c-1.33-.06-2.62.85-2.89,2.03l-1,4.45c-.27,1.19.6,2.21,1.93,2.28l28.63,1.47c1.4.07,2.74-.86,2.98-2.08l.93-4.57c.25-1.21-.69-2.24-2.08-2.31l-28.51-1.26h0Z"/>
                <path d="M143.05,132.39l-17.45-1.33c-1.32-.1-2.11-1.23-1.76-2.51l3.37-12.28c.35-1.26,1.7-2.22,3.01-2.14l17.33,1.07c1.36.08,2.19,1.2,1.85,2.48l-3.26,12.52c-.34,1.31-1.73,2.29-3.1,2.18h0ZM130.16,114.36c-1.18-.07-2.4.79-2.71,1.92l-3.37,12.28c-.32,1.15.39,2.17,1.58,2.26l17.45,1.33c1.23.09,2.48-.79,2.79-1.97l3.26-12.52c.3-1.16-.45-2.16-1.67-2.23l-17.33-1.07h0Z"/>
                <g>
                  <path class="cls-2" d="M252.75,92.95c.2-1,1.21-1.72,2.39-1.67.92.04,1.56.54,1.67,1.25l-.69-.03c-.13-.41-.53-.68-1.09-.7-.81-.03-1.5.47-1.64,1.18-.14.71.34,1.26,1.15,1.29.56.02,1.06-.22,1.35-.61l.69.03c-.39.7-1.22,1.14-2.14,1.11-1.18-.05-1.9-.84-1.7-1.84h0Z"/>
                  <path class="cls-2" d="M260.86,91.55l-2.04,3.36-.82-.03-.71-3.46.68.03.56,2.82,1.64-2.73.69.03Z"/>
                  <path class="cls-2" d="M264.88,91.71l-2.04,3.37-.83-.03-.72-3.47.69.03.57,2.83,1.64-2.74.69.03Z"/>
                </g>
                <path d="M282.75,109.65l-30.56-1.57c-1.58-.08-2.64-1.26-2.37-2.62l.91-4.6c.27-1.35,1.76-2.4,3.33-2.33l30.41,1.34c1.65.07,2.8,1.26,2.55,2.65l-.82,4.73c-.24,1.4-1.79,2.48-3.45,2.39h0ZM254.01,98.78c-1.41-.06-2.76.88-3,2.09l-.91,4.6c-.24,1.23.71,2.29,2.14,2.36l30.56,1.57c1.49.08,2.89-.89,3.11-2.15l.82-4.73c.22-1.25-.81-2.32-2.3-2.39l-30.42-1.35h0Z"/>
                <g>
                  <path class="cls-20" d="M276.98,142.46l-31.06-2.36c-1.52-.12-2.54-1.31-2.28-2.66l.95-4.79c.26-1.33,1.71-2.34,3.23-2.24l30.91,2.12c1.59.11,2.7,1.32,2.46,2.7l-.86,4.93c-.24,1.39-1.75,2.42-3.35,2.3Z"/>
                  <g>
                    <path d="M255.27,136.78c-.14.74-.94.97-1.62.92-1.07-.08-1.44-.63-1.43-1.22l.62.05c.04.4.29.62.9.66.51.04.84-.12.9-.43.06-.31-.24-.39-.92-.58-.71-.2-1.25-.42-1.13-1.05.13-.66.86-.97,1.59-.91.96.07,1.32.54,1.33,1.08l-.62-.04c-.06-.29-.28-.49-.8-.52-.51-.04-.83.14-.88.44-.05.24.16.33.77.5.93.26,1.43.47,1.3,1.12h0Z"/>
                    <path d="M258.87,135.34l-.5,2.65-.62-.05.08-.44c-.27.29-.63.46-1.1.42-.67-.05-.99-.47-.87-1.11l.32-1.67.62.04-.3,1.56c-.08.41.08.64.53.67.52.04.86-.24.96-.75l.26-1.37.62.04Z"/>
                    <path d="M262.41,136.94c-.15.81-.85,1.34-1.66,1.28-.47-.03-.8-.26-.96-.58l-.08.44-.62-.05.7-3.71.62.04-.28,1.51c.28-.29.68-.47,1.16-.43.79.06,1.29.67,1.14,1.48h0ZM261.78,136.89c.09-.51-.21-.89-.74-.93-.53-.04-1,.29-1.09.8-.1.51.24.89.77.93.52.04.97-.29,1.06-.8h0Z"/>
                    <path d="M267.7,136.94l-.31,1.71-.63-.05.29-1.6c.07-.4-.07-.62-.49-.65-.49-.04-.81.28-.9.76l-.25,1.38-.63-.05.29-1.59c.07-.4-.07-.62-.49-.65-.49-.04-.8.28-.89.76l-.26,1.38-.62-.05.49-2.66.62.04-.08.42c.27-.29.6-.45,1.04-.41.46.03.76.25.84.62.27-.33.65-.52,1.13-.48.64.05.96.45.85,1.09h0Z"/>
                    <path d="M269.46,135.22c-.04.2-.24.33-.47.31-.23-.02-.38-.17-.34-.37.04-.19.24-.32.47-.31.24.02.39.17.35.36h0ZM268.58,136.03l.63.05-.49,2.67-.63-.05.49-2.67Z"/>
                    <path d="M271.82,138.84c-.18.07-.56.16-.92.13-.63-.05-1.06-.43-.93-1.17l.2-1.13-.57-.04.09-.51.57.04.11-.61.65-.08-.13.73,1.26.09-.09.52-1.26-.09-.2,1.1c-.07.39.1.62.5.65.19.01.42-.03.68-.08l.03.46h0Z"/>
                  </g>
                </g>
                <g>
                  <path class="cls-2" d="M132.31,108.94c-.17.62-.73,1.03-1.46.99l-.83-.05-.29,1.07-.54-.03.87-3.17,1.36.08c.73.04,1.05.48.88,1.11h0ZM131.76,108.92c.09-.32-.05-.57-.49-.59l-.81-.05-.31,1.12.81.05c.44.03.71-.2.79-.53Z"/>
                  <path class="cls-2" d="M135.06,109.67l-.43,1.58-.54-.03.4-1.47c.1-.39-.02-.6-.42-.62-.46-.03-.78.25-.91.73l-.35,1.3-.54-.03.95-3.49.54.03-.38,1.41c.26-.28.6-.44,1-.41.59.03.85.42.68,1.03Z"/>
                  <path class="cls-2" d="M138.22,110.18c-.2.75-.95,1.27-1.72,1.23-.76-.05-1.21-.64-1.01-1.39.2-.76.97-1.27,1.72-1.23.76.04,1.22.63,1.02,1.39h0ZM136.03,110.06c-.13.48.14.84.6.86.46.03.91-.28,1.04-.77.13-.48-.14-.84-.6-.86-.46-.03-.91.28-1.04.77h0Z"/>
                  <path class="cls-2" d="M140.4,111.46c-.17.07-.5.16-.81.14-.54-.03-.88-.38-.7-1.08l.29-1.06-.49-.03.13-.48.49.03.15-.57.57-.08-.18.68,1.09.06-.13.48-1.09-.06-.28,1.04c-.1.37.03.58.37.6.17,0,.37-.03.6-.09l-.02.43h0Z"/>
                  <path class="cls-2" d="M143.75,110.51c-.2.76-.95,1.28-1.73,1.23-.77-.05-1.23-.64-1.03-1.39.2-.76.97-1.28,1.73-1.23.76.04,1.23.63,1.03,1.39ZM141.54,110.38c-.13.48.14.84.61.87.46.03.92-.29,1.05-.77.13-.49-.15-.84-.61-.87-.46-.03-.92.29-1.05.77Z"/>
                </g>
              </g>
            </g>
          </g>
        </g>
      </g>
    </g>
  </g>
  <g>
    <path class="cls-2" d="M191.12,43.27h-1.91l-1.23,5.38h-1.7l1.23-5.38h-1.9l.37-1.62h5.51l-.37,1.62Z"/>
    <path class="cls-2" d="M196.04,46.26h-4.01c-.11.85.34,1.21.93,1.21.46,0,.89-.22,1.11-.62h1.75c-.69,1.36-1.97,1.93-3.16,1.93-1.76,0-2.65-1.25-2.28-2.88.37-1.63,1.85-2.88,3.56-2.88,1.82,0,2.68,1.43,2.1,3.24ZM192.31,45.23h2.19c.01-.53-.26-.9-.87-.9s-1.05.37-1.31.9Z"/>
    <path class="cls-2" d="M196.85,45.9c.37-1.63,1.86-2.88,3.55-2.88,1.37,0,2.41.83,2.24,2.3h-1.75c0-.53-.4-.73-.85-.73-.75,0-1.29.54-1.47,1.31-.18.79.15,1.31.86,1.31.46,0,.95-.22,1.2-.74h1.75c-.53,1.52-1.97,2.31-3.31,2.31-1.68,0-2.59-1.25-2.22-2.88Z"/>
    <path class="cls-2" d="M208.78,45.21l-.79,3.44h-1.7l.7-3.06c.14-.6.04-.95-.64-.95s-1.07.33-1.25,1.09l-.67,2.92h-1.7l1.76-7.7h1.7l-.64,2.82c.51-.49,1.08-.75,1.76-.75,1.22,0,1.77.85,1.47,2.19Z"/>
    <path class="cls-2" d="M216.85,41.65l-1.6,7h-1.7l.63-2.76h-2.69l-.63,2.76h-1.7l1.6-7h1.7l-.6,2.62h2.69l.6-2.62h1.7Z"/>
    <path class="cls-2" d="M222.65,46.26h-4.01c-.11.85.34,1.21.93,1.21.46,0,.89-.22,1.11-.62h1.75c-.69,1.36-1.97,1.93-3.16,1.93-1.76,0-2.65-1.25-2.28-2.88.37-1.63,1.85-2.88,3.56-2.88,1.82,0,2.68,1.43,2.1,3.24ZM218.92,45.23h2.19c.01-.53-.26-.9-.87-.9s-1.05.37-1.31.9Z"/>
    <path class="cls-2" d="M224.69,40.95h1.7l-1.76,7.7h-1.7l1.76-7.7Z"/>
    <path class="cls-2" d="M232.06,45.9c-.39,1.7-1.74,2.88-3.14,2.88-.7,0-1.13-.29-1.39-.72l-.71,3.09h-1.7l1.83-8h1.7l-.14.62c.45-.45,1.04-.75,1.74-.75,1.37,0,2.2,1.17,1.81,2.88ZM230.34,45.9c.17-.76-.21-1.26-.87-1.26s-1.27.5-1.45,1.26c-.18.77.21,1.26.87,1.26s1.27-.49,1.45-1.26Z"/>
    <path class="cls-2" d="M234.8,47.8c-.13.57-.66.98-1.25.98s-.94-.41-.81-.98c.13-.57.66-.98,1.25-.98s.94.41.81.98Z"/>
    <path class="cls-2" d="M236.34,45.9c.37-1.63,1.86-2.88,3.55-2.88,1.37,0,2.41.83,2.24,2.3h-1.75c0-.53-.4-.73-.85-.73-.75,0-1.29.54-1.47,1.31-.18.79.15,1.31.86,1.31.46,0,.95-.22,1.2-.74h1.75c-.53,1.52-1.97,2.31-3.31,2.31-1.68,0-2.59-1.25-2.22-2.88Z"/>
    <path class="cls-2" d="M248.47,45.9c-.38,1.66-1.93,2.88-3.54,2.88s-2.6-1.23-2.22-2.88c.38-1.66,1.95-2.88,3.54-2.88s2.6,1.22,2.22,2.88ZM244.43,45.9c-.18.77.22,1.26.87,1.26s1.27-.49,1.45-1.26c.17-.76-.21-1.26-.87-1.26s-1.27.5-1.45,1.26Z"/>
    <path class="cls-2" d="M258.19,45.21l-.79,3.44h-1.7l.7-3.06c.14-.6.04-.95-.6-.95s-1.04.33-1.21,1.09l-.67,2.92h-1.7l.7-3.06c.14-.6.04-.95-.6-.95s-1.03.33-1.21,1.09l-.67,2.92h-1.7l1.26-5.5h1.7l-.14.62c.51-.49,1.08-.75,1.73-.75.75,0,1.25.35,1.43.96.56-.61,1.28-.96,2.04-.96,1.18,0,1.74.85,1.43,2.19Z"/>
  </g>
</svg>