<?xml version="1.0" encoding="UTF-8"?>
<svg xmlns="http://www.w3.org/2000/svg" xmlns:xlink="http://www.w3.org/1999/xlink" id="Layer_2" data-name="Layer 2" viewBox="0 0 171.93 63.55">
  <defs>
    <style>
      .cls-1, .cls-2 {
        fill: none;
      }

      .cls-3 {
        fill: #f6f4ee;
      }

      .cls-4 {
        fill: #ee6352;
      }

      .cls-5 {
        fill: #2b3336;
      }

      .cls-2 {
        clip-path: url(#clippath);
      }
    </style>
    <clipPath id="clippath">
      <rect class="cls-1" width="171.93" height="63.55"></rect>
    </clipPath>
  </defs>
  <g id="Layer_1-2" data-name="Layer 1">
    <g id="Group_29812" data-name="Group 29812">
      <g class="cls-2">
        <g id="Group_29809" data-name="Group 29809">
          <path id="Path_274809" data-name="Path 274809" class="cls-4" d="m31.77,0C14.23,0,0,14.23,0,31.77s14.23,31.77,31.77,31.77,31.77-14.23,31.77-31.77C63.55,14.23,49.32,0,31.78,0c0,0,0,0,0,0"></path>
          <path id="Path_274810" data-name="Path 274810" class="cls-3" d="m28.45,32.91c1.69-.81,2.76-2.52,2.74-4.39.03-2.97-2.36-5.39-5.33-5.42-.14,0-.27,0-.41.01h-6.66v16.81h4.14v-6.26h1.39l2.98,6.26h4.79l-3.64-7.01Zm-3.19-2.69h-2.33v-3.4h2.33c.94,0,1.7.76,1.7,1.7s-.76,1.7-1.7,1.7h0"></path>
          <path id="Path_274811" data-name="Path 274811" class="cls-3" d="m17.37,23.11h-3.23v16.81h3.22v2.97h-6.52v-22.75h6.53v2.97Z"></path>
          <path id="Path_274812" data-name="Path 274812" class="cls-3" d="m44.68,26.79h-7.3v2.81h6.24v3.69h-6.23v2.95h7.3v3.68h-11.43v-16.82h11.43v3.68Z"></path>
          <path id="Path_274813" data-name="Path 274813" class="cls-3" d="m52.7,42.9h-6.52v-2.94h3.22v-16.86h-3.22v-2.94h6.52v22.75Z"></path>
          <path id="Path_274814" data-name="Path 274814" class="cls-5" d="m75.22,31.65V9.52h6.3v2.87h-3.12v16.39h3.12v2.87h-6.3Z"></path>
          <path id="Path_274815" data-name="Path 274815" class="cls-5" d="m91.07,28.78l-2.88-6.05h-1.35v6.05h-3.99V12.53h6.44c2.86-.19,5.34,1.97,5.53,4.83,0,.13.01.27.01.4.01,1.81-1.02,3.46-2.65,4.24l3.51,6.78h-4.63Zm-1.96-12.66h-2.26v3.28h2.26c.91.05,1.68-.64,1.73-1.55s-.64-1.68-1.55-1.73c-.06,0-.12,0-.18,0"></path>
          <path id="Path_274816" data-name="Path 274816" class="cls-5" d="m96.82,28.78V12.53h11.04v3.56h-7.05v2.71h6.02v3.56h-6.02v2.85h7.05v3.56h-11.04Z"></path>
          <path id="Path_274817" data-name="Path 274817" class="cls-5" d="m109.29,31.65v-2.85h3.12V12.37h-3.12v-2.85h6.3v22.13h-6.3Z"></path>
          <path id="Path_274818" data-name="Path 274818" class="cls-5" d="m126.9,28.78l-5.2-8.17v8.17h-3.99V12.53h3.49l5.2,8.17v-8.17h3.99v16.24h-3.49Z"></path>
          <path id="Path_274819" data-name="Path 274819" class="cls-5" d="m142.51,27.09c-2.54,2.43-6.54,2.43-9.08,0-1.71-1.71-1.64-3.99-1.64-6.43s-.07-4.72,1.64-6.43c2.54-2.43,6.54-2.43,9.08,0,1.71,1.71,1.64,3.99,1.64,6.43s.07,4.72-1.64,6.43m-2.94-10.43c-.8-.88-2.16-.95-3.05-.15-.05.05-.1.1-.15.15-.36.48-.59,1.03-.59,3.99s.23,3.49.59,3.97c.76.88,2.1.98,2.98.22.08-.07.15-.14.22-.22.37-.48.6-1,.6-3.97s-.23-3.51-.6-3.99"></path>
          <path id="Path_274820" data-name="Path 274820" class="cls-5" d="m151.41,28.92c-3.38,0-6.14-2.28-6.14-5.84v-10.54h3.99v10.45c-.16,1.14.63,2.19,1.77,2.35.12.02.25.02.38.02,1.17.05,2.15-.86,2.2-2.02,0-.12,0-.23-.01-.35v-10.45h3.99v10.54c0,3.56-2.81,5.84-6.18,5.84"></path>
          <path id="Path_274821" data-name="Path 274821" class="cls-5" d="m168.44,28.78l-5.2-8.17v8.17h-3.99V12.53h3.49l5.2,8.17v-8.17h3.99v16.24h-3.49Z"></path>
          <path id="Path_274822" data-name="Path 274822" class="cls-5" d="m81.4,53c-1.71.02-3.35-.65-4.55-1.85-1.68-1.68-1.68-3.43-1.68-7.2s0-5.53,1.68-7.2c1.21-1.2,2.85-1.87,4.55-1.85,3.12-.11,5.81,2.2,6.17,5.3h-1.95c-.3-2.09-2.11-3.63-4.23-3.6-1.15-.01-2.26.44-3.08,1.25-1.12,1.15-1.25,2.38-1.25,6.1s.12,4.95,1.25,6.1c1.72,1.69,4.48,1.66,6.17-.06.62-.63,1.03-1.43,1.18-2.29h1.9c-.36,3.11-3.05,5.41-6.17,5.3"></path>
          <path id="Path_274823" data-name="Path 274823" class="cls-5" d="m100,52.85l-4.05-7.9h-4.27v7.9h-1.9v-17.81h6.83c3.1,0,5.28,1.88,5.28,4.95.11,2.35-1.56,4.4-3.88,4.78l4.23,8.08h-2.23Zm-3.58-16.11h-4.75v6.53h4.75c2.08,0,3.55-1.08,3.55-3.25s-1.48-3.28-3.55-3.28"></path>
          <path id="Path_274824" data-name="Path 274824" class="cls-5" d="m103.68,52.85v-17.81h11.05v1.7h-9.15v6.28h7.8v1.7h-7.8v6.43h9.15v1.7h-11.05Z"></path>
          <path id="Path_274825" data-name="Path 274825" class="cls-5" d="m128.56,52.85l-1.42-4.03h-7.78l-1.42,4.03h-2.03l6.56-17.81h1.6l6.52,17.81h-2.03Zm-5.27-15.08l-3.35,9.4h6.65l-3.3-9.4Z"></path>
          <path id="Path_274826" data-name="Path 274826" class="cls-5" d="m134.69,36.74v16.11h-1.9v-16.11h-5.15v-1.7h12.2v1.7h-5.15Z"></path>
          <rect id="Rectangle_4394" data-name="Rectangle 4394" class="cls-5" x="142.16" y="35.04" width="1.9" height="17.81"></rect>
          <path id="Path_274827" data-name="Path 274827" class="cls-5" d="m153.24,52.85h-1.55l-5.85-17.81h2l4.63,14.41,4.63-14.41h2l-5.85,17.81Z"></path>
          <path id="Path_274828" data-name="Path 274828" class="cls-5" d="m160.87,52.85v-17.81h11.05v1.7h-9.15v6.28h7.8v1.7h-7.8v6.43h9.15v1.7h-11.05Z"></path>
        </g>
      </g>
    </g>
  </g>
</svg>
