<?xml version="1.0" encoding="utf-8"?>
<!-- Generator: Adobe Illustrator 16.0.0, SVG Export Plug-In . SVG Version: 6.00 Build 0)  -->
<!DOCTYPE svg PUBLIC "-//W3C//DTD SVG 1.1//EN" "http://www.w3.org/Graphics/SVG/1.1/DTD/svg11.dtd">
<svg version="1.1" id="Layer_1" xmlns="http://www.w3.org/2000/svg" xmlns:xlink="http://www.w3.org/1999/xlink" x="0px" y="0px"
	 width="216px" height="144px" viewBox="0 0 216 144" enable-background="new 0 0 216 144" xml:space="preserve">
<g>
	<g>
		<g>
			<path d="M24.816,13.435h167.219c10.762,0,19.566,9.617,19.566,21.369v74.659c0,11.76-8.805,21.373-19.566,21.373H24.816
				c-10.763,0-19.567-9.613-19.567-21.373V34.803C5.249,23.051,14.053,13.435,24.816,13.435z M167.201,21.834H32.204
				c-1.238,0-2.257,1.086-2.257,2.422v96.167c0,1.328,1.019,2.418,2.257,2.418h134.998c1.24,0,2.256-1.09,2.256-2.418V24.256
				C169.457,22.92,168.441,21.834,167.201,21.834z M190.998,61.542c-5.68,0-10.285,4.928-10.285,11.01
				c0,6.083,4.605,11.02,10.285,11.02c5.682,0,10.287-4.938,10.287-11.02C201.285,66.47,196.68,61.542,190.998,61.542z"/>
		</g>
		<g>
			<path fill="none" d="M192.035,13.435c10.762,0,19.566,9.617,19.566,21.369v74.659c0,11.76-8.805,21.373-19.566,21.373H24.816
				c-10.763,0-19.567-9.613-19.567-21.373V34.803c0-11.752,8.805-21.369,19.567-21.369H192.035z"/>
			<path fill="#FFFFFF" d="M180.713,72.551c0,6.083,4.605,11.02,10.285,11.02c5.682,0,10.287-4.938,10.287-11.02
				c0-6.082-4.605-11.01-10.287-11.01C185.318,61.542,180.713,66.47,180.713,72.551z"/>
			<path fill="#FFFFFF" d="M32.204,21.834c-1.238,0-2.257,1.086-2.257,2.422v96.167c0,1.328,1.019,2.418,2.257,2.418h134.998
				c1.24,0,2.256-1.09,2.256-2.418V24.256c0-1.336-1.016-2.422-2.256-2.422H32.204z"/>
		</g>
	</g>
	<path fill="#00AEEF" d="M71.451,89.828c0-1.934,1.346-3.236,3.237-3.236h6.979c9.416,0,14.797,6.054,14.797,15.387
		c0,8.827-5.717,14.545-14.377,14.545h-7.314c-1.388,0-3.321-0.758-3.321-3.153V89.828z M77.756,110.722h4.246
		c5.423,0,7.903-3.993,7.903-9.038c0-5.381-2.522-9.291-8.324-9.291h-3.825V110.722z"/>
	<path fill="#00AEEF" d="M99.402,96.934c0-2.018,1.598-3.027,3.11-3.027c1.598,0,2.943,0.589,2.943,2.522h0.084
		c1.135-1.682,2.354-2.522,4.246-2.522c1.471,0,2.943,1.051,2.943,3.237c0,1.976-1.809,2.102-3.615,2.942
		c-1.808,0.841-3.658,1.64-3.658,4.035v9.291c0,2.018-1.262,3.363-3.027,3.363s-3.026-1.346-3.026-3.363V96.934z"/>
	<path fill="#00AEEF" d="M114.564,97.27c0-2.018,1.26-3.363,3.025-3.363s3.027,1.346,3.027,3.363v16.143
		c0,2.018-1.262,3.363-3.027,3.363s-3.025-1.346-3.025-3.363V97.27z"/>
	<path fill="#00AEEF" d="M122.758,98.615c-0.295-0.758-0.379-1.22-0.379-1.766c0-1.934,1.514-2.943,3.152-2.943
		c1.682,0,2.396,1.219,2.691,2.145l3.867,11.938h0.084l3.867-11.938c0.295-0.926,1.01-2.145,2.691-2.145
		c1.639,0,3.152,1.01,3.152,2.943c0,0.546-0.084,1.008-0.379,1.766l-6.096,15.638c-0.588,1.556-1.219,2.522-3.277,2.522
		c-2.061,0-2.691-0.967-3.279-2.522L122.758,98.615z"/>
	<path fill="#00AEEF" d="M147.605,107.359c0.422,2.984,2.902,4.371,5.719,4.371c3.109,0,5.254-2.438,6.852-2.438
		c1.303,0,2.48,1.303,2.48,2.605c0,2.606-5.381,5.129-9.879,5.129c-6.811,0-11.352-4.961-11.352-11.645
		c0-6.138,4.457-11.729,10.848-11.729c6.557,0,10.887,5.969,10.887,11.014c0,1.809-0.799,2.691-2.648,2.691H147.605z
		 M157.107,103.323c-0.336-2.648-2.018-4.624-4.834-4.624c-2.691,0-4.498,2.06-4.793,4.624H157.107z"/>
	<path fill="#00AEEF" d="M79.166,53.11H73.38c-2.547,0-3.608-1.857-3.608-3.662c0-1.857,1.326-3.662,3.608-3.662h19.53
		c2.282,0,3.608,1.805,3.608,3.662c0,1.804-1.062,3.662-3.608,3.662h-5.785v26.641c0,2.653-1.698,4.14-3.98,4.14
		c-2.281,0-3.979-1.486-3.979-4.14V53.11z"/>
	<path fill="#00AEEF" d="M101.217,72.003c0.53,3.769,3.662,5.52,7.218,5.52c3.926,0,6.633-3.078,8.651-3.078
		c1.645,0,3.131,1.646,3.131,3.29c0,3.291-6.793,6.475-12.472,6.475c-8.597,0-14.329-6.262-14.329-14.7
		c0-7.749,5.626-14.807,13.692-14.807c8.279,0,13.746,7.536,13.746,13.904c0,2.282-1.008,3.396-3.344,3.396H101.217z
		 M113.211,66.908c-0.424-3.343-2.547-5.838-6.103-5.838c-3.396,0-5.679,2.601-6.05,5.838H113.211z"/>
	<path fill="#00AEEF" d="M140.65,63.618c-1.432,0-4.352-2.229-6.846-2.229c-1.379,0-2.6,0.637-2.6,2.123
		c0,3.556,13.268,3.025,13.268,11.729c0,5.095-4.299,8.969-10.879,8.969c-4.299,0-10.668-2.441-10.668-5.891
		c0-1.168,1.168-3.396,3.291-3.396c2.971,0,4.299,2.601,7.906,2.601c2.336,0,3.025-0.743,3.025-2.177
		c0-3.502-13.268-2.971-13.268-11.728c0-5.307,4.299-8.916,10.35-8.916c3.768,0,9.553,1.751,9.553,5.52
		C143.783,61.973,142.455,63.618,140.65,63.618z"/>
	<path fill="#00AEEF" d="M151.057,62.026h-1.699c-2.068,0-3.344-1.274-3.344-3.343c0-1.911,1.434-3.344,3.344-3.344h1.699v-4.564
		c0-2.547,1.592-4.246,3.82-4.246s3.822,1.698,3.822,4.246v4.564h2.176c1.963,0,3.66,0.902,3.66,3.344
		c0,2.388-1.697,3.343-3.66,3.343h-2.176v17.619c0,2.548-1.594,4.246-3.822,4.246s-3.82-1.698-3.82-4.246V62.026z"/>
	<g>
		<path fill="#2B3990" d="M45.757,28.715c0,0.839-0.559,1.591-1.44,1.591c-0.881,0-1.569-0.645-2.859-0.645
			c-0.925,0-1.763,0.495-1.763,1.397c0,2.214,7.181,0.795,7.181,6.342c0,3.075-2.537,4.988-5.504,4.988
			c-1.655,0-5.225-0.387-5.225-2.408c0-0.838,0.56-1.526,1.44-1.526c1.011,0,2.215,0.838,3.612,0.838
			c1.419,0,2.193-0.795,2.193-1.849c0-2.537-7.182-1.01-7.182-5.999c0-3.01,2.473-4.88,5.332-4.88
			C42.748,26.565,45.757,27.017,45.757,28.715z"/>
		<path fill="#2B3990" d="M59.667,36.434c0,3.225-2.214,5.955-5.547,5.955c-3.332,0-5.547-2.73-5.547-5.955
			c0-3.139,2.279-5.999,5.547-5.999C57.389,30.435,59.667,33.294,59.667,36.434z M51.67,36.434c0,1.483,0.773,3.117,2.45,3.117
			c1.678,0,2.451-1.634,2.451-3.117s-0.752-3.161-2.451-3.161C52.422,33.273,51.67,34.95,51.67,36.434z"/>
		<path fill="#2B3990" d="M69.536,33.875c-0.773,0-1.462-0.602-2.451-0.602c-1.763,0-2.601,1.569-2.601,3.161
			c0,1.526,0.924,3.117,2.601,3.117c0.774,0,1.936-0.645,2.301-0.645c0.731,0,1.333,0.624,1.333,1.354
			c0,1.591-2.666,2.128-3.784,2.128c-3.332,0-5.547-2.73-5.547-5.955c0-3.139,2.279-5.999,5.547-5.999
			c1.226,0,3.784,0.452,3.784,1.957C70.718,33.037,70.267,33.875,69.536,33.875z"/>
		<path fill="#2B3990" d="M75.9,27.619c0,0.967-0.774,1.785-1.741,1.785c-0.925,0-1.742-0.839-1.742-1.785
			c0-0.881,0.817-1.699,1.742-1.699C75.083,25.92,75.9,26.716,75.9,27.619z M72.611,32.284c0-1.032,0.645-1.72,1.548-1.72
			c0.902,0,1.548,0.688,1.548,1.72v8.256c0,1.032-0.646,1.72-1.548,1.72c-0.903,0-1.548-0.688-1.548-1.72V32.284z"/>
		<path fill="#2B3990" d="M88.864,40.239c0,0.795,0,2.021-1.483,2.021c-0.902,0-1.269-0.495-1.483-1.312
			c-0.795,0.946-1.763,1.44-2.945,1.44c-2.902,0-5.117-2.472-5.117-5.955c0-3.397,2.279-5.999,5.117-5.999
			c1.14,0,2.258,0.452,2.945,1.419c0.086-0.752,0.731-1.29,1.483-1.29c1.483,0,1.483,1.226,1.483,2.021V40.239z M83.381,39.551
			c1.613,0,2.387-1.634,2.387-3.117s-0.752-3.161-2.387-3.161c-1.698,0-2.45,1.677-2.45,3.161S81.705,39.551,83.381,39.551z"/>
		<path fill="#2B3990" d="M91.444,27.296c0-1.032,0.645-1.72,1.548-1.72c0.902,0,1.548,0.688,1.548,1.72V40.54
			c0,1.032-0.646,1.72-1.548,1.72c-0.903,0-1.548-0.688-1.548-1.72V27.296z"/>
		<path fill="#2B3990" d="M105.2,28.35c0.129-0.774,0.968-1.655,2.106-1.655c1.075,0,1.915,0.774,2.151,1.548l2.537,8.514h0.043
			l2.537-8.514c0.236-0.774,1.074-1.548,2.148-1.548c1.141,0,1.979,0.881,2.107,1.655l2,11.997c0.021,0.129,0.021,0.258,0.021,0.366
			c0,0.946-0.688,1.548-1.549,1.548c-1.096,0-1.525-0.495-1.676-1.505l-1.27-8.75h-0.043l-2.58,9.008
			c-0.15,0.516-0.559,1.247-1.719,1.247c-1.162,0-1.57-0.731-1.721-1.247l-2.58-9.008h-0.043l-1.269,8.75
			c-0.15,1.01-0.581,1.505-1.677,1.505c-0.86,0-1.549-0.602-1.549-1.548c0-0.107,0-0.236,0.021-0.366L105.2,28.35z"/>
		<path fill="#2B3990" d="M125.604,37.444c0.215,1.526,1.484,2.236,2.924,2.236c1.592,0,2.688-1.247,3.504-1.247
			c0.668,0,1.27,0.667,1.27,1.333c0,1.333-2.752,2.623-5.053,2.623c-3.482,0-5.805-2.537-5.805-5.955
			c0-3.139,2.279-5.999,5.547-5.999c3.354,0,5.568,3.053,5.568,5.633c0,0.925-0.408,1.376-1.355,1.376H125.604z M130.463,35.38
			c-0.172-1.354-1.033-2.365-2.473-2.365c-1.377,0-2.301,1.053-2.451,2.365H130.463z"/>
		<path fill="#2B3990" d="M146.092,40.54c0,1.032-0.645,1.72-1.547,1.72c-0.859,0-1.355-0.473-1.549-1.29
			c-0.58,0.946-1.783,1.419-2.838,1.419c-3.117,0-5.096-2.902-5.096-5.826c0-3.01,1.656-6.127,4.988-6.127
			c1.076,0,2.129,0.366,2.945,1.075v-4.214c0-1.032,0.646-1.72,1.549-1.72s1.547,0.688,1.547,1.72V40.54z M140.566,33.273
			c-1.611,0-2.406,1.699-2.406,3.161c0,1.44,0.795,3.117,2.406,3.117c1.699,0,2.43-1.72,2.43-3.225
			C142.996,34.821,142.223,33.273,140.566,33.273z"/>
		<path fill="#2B3990" d="M151.961,27.619c0,0.967-0.773,1.785-1.74,1.785c-0.926,0-1.742-0.839-1.742-1.785
			c0-0.881,0.816-1.699,1.742-1.699C151.145,25.92,151.961,26.716,151.961,27.619z M148.672,32.284c0-1.032,0.645-1.72,1.549-1.72
			c0.902,0,1.547,0.688,1.547,1.72v8.256c0,1.032-0.645,1.72-1.547,1.72c-0.904,0-1.549-0.688-1.549-1.72V32.284z"/>
		<path fill="#2B3990" d="M164.926,40.239c0,0.795,0,2.021-1.484,2.021c-0.902,0-1.268-0.495-1.482-1.312
			c-0.795,0.946-1.764,1.44-2.945,1.44c-2.902,0-5.117-2.472-5.117-5.955c0-3.397,2.279-5.999,5.117-5.999
			c1.139,0,2.258,0.452,2.945,1.419c0.086-0.752,0.73-1.29,1.482-1.29c1.484,0,1.484,1.226,1.484,2.021V40.239z M159.443,39.551
			c1.613,0,2.387-1.634,2.387-3.117s-0.752-3.161-2.387-3.161c-1.699,0-2.451,1.677-2.451,3.161S157.766,39.551,159.443,39.551z"/>
	</g>
	<g>
		<g>
			<path fill="#00AEEF" d="M61.063,93.899c0,4.197-3.339,7.863-7.451,7.863c-3.896,0.09-7.412-3.466-7.461-7.863
				c0-4.197,3.34-7.137,7.461-7.137C57.724,86.763,61.063,89.702,61.063,93.899z"/>
			<path fill="#00AEEF" d="M66.69,113.942c-0.01,0.229-0.217,1.98-0.417,1.98h-25.33c-0.238,0-0.394-1.79-0.401-2.062
				c-0.021-0.816-0.052-2.431,0.016-3.057c0.082-0.854,0.512-1.604,0.512-1.604c0.485-1.125,1.646-2.088,2.86-2.832
				c1.423-1.131,3.425-1.992,5.762-2.459c1.229-0.24,2.541-0.196,3.917-0.196c1.383,0,2.718-0.044,3.951,0.204
				c2.012,0.402,3.777,1.109,5.13,2.014c0.385,0.219,0.793,0.459,1.229,0.736c2.516,1.605,2.771,3.67,2.771,3.67
				S66.71,113.284,66.69,113.942z"/>
		</g>
		<g>
			<path fill="#2B3990" d="M56.063,93.899c0,4.197-3.339,7.863-7.451,7.863c-3.896,0.09-7.412-3.466-7.461-7.863
				c0-4.197,3.34-7.137,7.461-7.137C52.724,86.763,56.063,89.702,56.063,93.899z"/>
			<path fill="#2B3990" d="M61.69,113.942c-0.01,0.229-0.217,1.98-0.417,1.98h-25.33c-0.238,0-0.394-1.79-0.401-2.062
				c-0.021-0.816-0.052-2.431,0.016-3.057c0.082-0.854,0.512-1.604,0.512-1.604c0.485-1.125,1.646-2.088,2.86-2.832
				c1.423-1.131,3.425-1.992,5.762-2.459c1.229-0.24,2.541-0.196,3.917-0.196c1.383,0,2.718-0.044,3.951,0.204
				c2.012,0.402,3.777,1.109,5.13,2.014c0.385,0.219,0.793,0.459,1.229,0.736c2.516,1.605,2.771,3.67,2.771,3.67
				S61.71,113.284,61.69,113.942z"/>
		</g>
	</g>
	<g>
		<g>
			<path fill="#2B3990" d="M41.939,63.39h-6.815c1.119,5.738,1.637,16.429,1.637,16.429c2.002-0.125,3.705-0.225,5.179-0.308V63.39z
				"/>
		</g>
		<g>
			<path fill="#2B3990" d="M60.36,59.754l-6.209,0.265l0.535-5.569c0.411-3.899-1.547-5.24-4.035-5.051
				c-0.268,0.019-0.875,0.865-0.928,1.25c-0.618,4.691-2.066,8.8-6.903,12.623v14.957c8.152-0.436,8.028-0.158,17.516-0.1
				c2.657,0.016,3.788-0.393,4.03-2.514c0.167-1.458,1.663-1.808,1.173-4.25c-0.222-1.105-0.716-1.115,0.442-3.029
				c1.195-1.979,0.096-4.642,0.096-4.642C67.199,59.542,66.124,59.346,60.36,59.754z"/>
		</g>
	</g>
</g>
</svg>
