<?xml version="1.0" encoding="UTF-8"?>
<svg xmlns="http://www.w3.org/2000/svg" width="322.686289422599657" height="234.347244345281069" xmlns:xlink="http://www.w3.org/1999/xlink" viewBox="0 0 322.686289422599657 234.347244345281069">
  <defs>
    <style>
      .cls-1 {
        fill: #f8b787;
      }

      .cls-1, .cls-2, .cls-3, .cls-4, .cls-5, .cls-6, .cls-7, .cls-8, .cls-9, .cls-10, .cls-11, .cls-12, .cls-13, .cls-14, .cls-15, .cls-16, .cls-17, .cls-18, .cls-19 {
        stroke-width: 0px;
      }

      .cls-2 {
        fill: #3657a6;
      }

      .cls-3 {
        fill: #f8bf87;
      }

      .cls-4, .cls-20 {
        fill: #151c22;
      }

      .cls-21 {
        clip-path: url(#clippath);
      }

      .cls-5, .cls-22, .cls-23, .cls-24, .cls-25, .cls-26, .cls-27, .cls-28, .cls-29 {
        fill: none;
      }

      .cls-22 {
        stroke: #bb4d34;
        stroke-width: 8px;
      }

      .cls-22, .cls-23, .cls-24, .cls-25, .cls-28, .cls-29, .cls-20, .cls-30 {
        stroke-miterlimit: 10;
      }

      .cls-23 {
        stroke-width: .515625622853655px;
      }

      .cls-23, .cls-25, .cls-10, .cls-11, .cls-12, .cls-15, .cls-16, .cls-28, .cls-29, .cls-31, .cls-32 {
        mix-blend-mode: multiply;
      }

      .cls-23, .cls-25, .cls-15, .cls-28, .cls-29, .cls-32 {
        opacity: .6;
      }

      .cls-23, .cls-25, .cls-28, .cls-29 {
        stroke: #f1b068;
      }

      .cls-24 {
        stroke-width: 2.145138692854612px;
      }

      .cls-24, .cls-26, .cls-20, .cls-30 {
        stroke: #0b2645;
      }

      .cls-6 {
        fill: #79c4e0;
      }

      .cls-33 {
        clip-path: url(#clippath-1);
      }

      .cls-34 {
        clip-path: url(#clippath-3);
      }

      .cls-35 {
        clip-path: url(#clippath-2);
      }

      .cls-7 {
        fill: #ffc58f;
      }

      .cls-25 {
        stroke-width: .545810828627706px;
      }

      .cls-8 {
        fill: #4b4342;
      }

      .cls-26 {
        stroke-width: 1.072569346427309px;
      }

      .cls-26, .cls-27 {
        stroke-linecap: round;
        stroke-linejoin: round;
      }

      .cls-9 {
        fill: #aea8a9;
      }

      .cls-10 {
        fill: url(#radial-gradient-3);
      }

      .cls-10, .cls-11, .cls-12, .cls-16 {
        opacity: .1;
      }

      .cls-11 {
        fill: url(#radial-gradient-4);
      }

      .cls-12 {
        fill: url(#radial-gradient-2);
      }

      .cls-13 {
        fill: #e08362;
      }

      .cls-27 {
        stroke: #e9e9de;
        stroke-width: .617959201335907px;
      }

      .cls-14, .cls-30 {
        fill: #e9e9de;
      }

      .cls-15, .cls-19 {
        fill: #f1b068;
      }

      .cls-16 {
        fill: url(#radial-gradient);
      }

      .cls-28 {
        stroke-width: .049844208551523px;
      }

      .cls-29 {
        stroke-width: .05276213509568px;
      }

      .cls-17 {
        fill: #0b2645;
      }

      .cls-20 {
        stroke-width: .450167074262006px;
      }

      .cls-36 {
        isolation: isolate;
      }

      .cls-30 {
        stroke-width: .508920518387571px;
      }

      .cls-31 {
        opacity: .3;
      }

      .cls-18 {
        fill: #fff;
      }
    </style>
    <clipPath id="clippath">
      <path class="cls-5" d="M125.724959388140633,93.407009306270993c-.224417284771334.379046796429975-4.088728716051264,6.650982484119595-11.566052246371328,6.80367447468052-6.917448483220141.141263220519249-10.941638137679547-5.076886238721272-11.322786468519553-5.589340753420402.74531819206095-.836916214550001,4.553151983120188-4.93854450830986,10.937382296469877-5.377904895191023,6.707793872679758-.461618363049638,11.185950969280384,3.468845644190878,11.951456418421003,4.163571173930904Z"/>
    </clipPath>
    <clipPath id="clippath-1">
      <path class="cls-5" d="M62.959162070630555,94.122042773600697c.249903889909547.3627501032297,4.535575973310188,6.35466923669992,12.005746836699473,5.993796277480214,6.910831674349538-.333847846090066,10.567384846899586-5.815891721360458,10.912462140579009-6.353297844430926-.801002227010031-.783787847529311-4.881371159528499-4.614393832880523-11.280701923198649-4.614537537039723-6.723658983879432-.000141460639497-10.921489155511154,4.228411500391303-11.637507054079833,4.974039103990435Z"/>
    </clipPath>
    <radialGradient id="radial-gradient" cx="95.96565090639524" cy="109.341576497070491" fx="95.96565090639524" fy="109.341576497070491" r="17.129250662057522" gradientTransform="translate(40.031957342272335 38.764039876082279) scale(.853091239733539 .645477583935139)" gradientUnits="userSpaceOnUse">
      <stop offset=".537641841231661" stop-color="#e984a2"/>
      <stop offset=".592832570610897" stop-color="rgba(233, 132, 162, .886871293855677)" stop-opacity=".886871293855677"/>
      <stop offset=".711273432585101" stop-color="rgba(233, 132, 162, .596518194573597)" stop-opacity=".596518194573597"/>
      <stop offset=".8824215114979" stop-color="rgba(233, 132, 162, .136328760171738)" stop-opacity=".136328760171738"/>
      <stop offset=".931113028771807" stop-color="#e984a2" stop-opacity="0"/>
    </radialGradient>
    <radialGradient id="radial-gradient-2" cx="30.527891074580111" fx="30.527891074580111" xlink:href="#radial-gradient"/>
    <clipPath id="clippath-2">
      <path class="cls-5" d="M226.695496259264473,52.312641759761391c-.029487867210264.030719489384865-.531619946876162.535690060845809-1.238706301903221.385003380486523-.654142370161935-.139403404076802-.917684998936238-.719332156968449-.94224403707085-.775974555590437.088618751795366-.062312555550307.537527415299337-.364274989027763,1.14806715074883-.264696943137096.641482708128024.104625727904931.976174537283441.573387156098761,1.032883188225242.65566811824101Z"/>
    </clipPath>
    <clipPath id="clippath-3">
      <path class="cls-5" d="M220.772614484494625,50.994421971836346c.015511814484853.039656083423324.286582964077752.69817892687206.997591616696809.829115113636362.657770820056612.121132562895582,1.12291373356129-.314084791571076,1.167252994060618-.357044512875291-.058083378256924-.091446481164894-.357542341256703-.542029025091324-.959801464652628-.683303594891186-.632782780096022-.14843369218579-1.121197078793557.156865128461504-1.205043146104799.211232994130114Z"/>
    </clipPath>
    <radialGradient id="radial-gradient-3" cx="779.613754498945127" cy="-332.697183735130238" fx="779.613754498945127" fy="-332.697183735130238" r="1.655840877380726" gradientTransform="translate(11.235141916284789 -611.353813907585049) rotate(90.000000000338261) scale(.853091239733539 .645477583935139)" xlink:href="#radial-gradient"/>
    <radialGradient id="radial-gradient-4" cx="773.288053521620895" cy="-332.697183735130238" fx="773.288053521620895" fy="-332.697183735130238" r="1.655840877381946" gradientTransform="translate(5.981323938483655 -607.189700525917033) rotate(90.000000000762213) scale(.853091239733539 .645477583935139)" xlink:href="#radial-gradient"/>
  </defs>
  <g class="cls-36">
    <g id="Layer_2" data-name="Layer 2">
      <g id="Layer_1-2" data-name="Layer 1">
        <g>
          <g>
            <g>
              <path class="cls-17" d="M69.026333737690948,153.512639122811379c21.922177262209516-4.553557561070193,40.236742857618083-1.999686473351176,53.735504121428676,0,8.248121656810326,1.221868109889328,13.579497581340547,2.534930230609461,20.736655121359945,4.297673163389845,26.876271789869861,6.619354207468859,35.935559419551282,6.332901167817909,42.565444451060102,14.230726664318354,3.883241359530075,4.625883845530552,4.522696396221363,10.139794053180594,5.801606469571198,21.167614468471584,1.828121798598659,15.764058520930121.283308418589513,29.795284574538528-2.23224217058123,41.138590926289908-55.489251975350271-9.850562046081905-134.144049755179367-19.701197222879273-189.633301730529638-29.551759268950264.441928955469848-11.71810130403901,2.197797600339982-19.55742222263143,4.545513181599745-24.817349431381444,2.251329289139903-5.04397218548911,6.128647060160802-7.639381523527845,8.096156015661109-9.34025586514872,2.80653773360973-2.426184846399337,20.888181978169087-7.814602734410073,37.736915373759985-11.764539312769557,8.198392765569224-1.921948515440818,12.354046066049705-4.053416550559632,18.64774916667011-5.360701344219706Z"/>
              <path class="cls-4" d="M68.627771300600216,154.453465866510669c3.126923428459122-.965837450759864,5.902526866499102-1.647708306440109,8.190933431889789-2.136952839300648,8.059590654460408-1.723106081239166,22.795943133469336-4.784723774579106,39.06284850162956-.034298308808502,2.852390696561997.832958928160224,5.164052831680237,1.733783166699141,6.760496501710804,2.410461741077597-.066548957389386.425182020051579-.132951653329656.850437170822261-.199500610720861,1.275619190861107-2.4061470284596,2.092562490810451-12.007333311139519,9.948484083370204-26.566928834108694,10.027245871400737-14.837638529541437.080297533189878-24.644760926510571-7.971541264691041-27.008711528151252-10.027245871400737-.079712487409779-.50496763818046-.159424974830472-1.009862145650914-.239137462249346-1.514829783829555Z"/>
              <path class="cls-7" d="M55.951205755500268,116.75124413372032c-6.604641992309553,1.609475920758996-13.138769229100944-3.613683775329264-14.474715964321149-11.570597005140371-1.3359467352293-7.956913229818383,2.999531579340328-15.828930336489066,9.6041735716517-17.438406257258976,1.623514130889816,9.669667754129478,3.247028261768719,19.339335508269869,4.870542392669449,29.009003262399347Z"/>
              <path class="cls-7" d="M133.188396798550457,113.578558542651081c5.929748516618929,1.219395438609354,11.644684787010192-4.3800833366804,12.660015122379264-12.404275839200636,1.015330335370891-8.024192502509322-3.028609270579182-15.630589392660113-8.958357787189016-16.849984831260372-1.23392243392118,9.751398256959874-2.467734901250878,19.502862413501134-3.701657335190248,29.254260670461008Z"/>
              <path class="cls-23" d="M144.121089175960151,96.5107753834709c-.160100983950542-.828065696810881-.509777158260476-2.105511806919822-1.255847045220435-2.463911050690513-1.604555036799866-.770831881289268-4.135838135620361,3.144681551770191-4.886699349910486,7.19479134005087-.291191801448804,1.570832082948982-.572921540529933,4.555147708559161.299793818561739,5.573591555939856.862167011629936,1.00614310860874,2.506783766179069-.30810066947015,3.183699851309939-2.632694166881265.498708418508613-1.712638664459519.548675265670681-4.23678176382964-.135369103019912-4.642471060449679-.419044047961506-.248508051048702-1.088739232671287.312586889089289-1.531263116341506,1.401498133531277-.513435816579658,1.263242650438769-.445649831459377,2.559054961018774-.437791796310194,2.686930753978231"/>
              <path class="cls-25" d="M43.735671330099649,100.003943956420699c.218429716949686-.818772958709815.67035503659099-2.076579620399571,1.522509985850775-2.396003338750234,1.832711164930515-.687008093009354,4.480969937219925,3.354396760480086,5.129766494299474,7.43827794516983.251602616039236,1.583928787780678.425691190619546,4.579104508689852-.599486766410337,5.551215747660535-1.012787248850145.960370502640217-2.791626961259681-.437187717951019-3.439340819730205-2.79386734533-.477192807289612-1.736277636620798-.413621867190159-4.259880007910397.371337699931246-4.629738736521176.480863700569898-.226558345499143,1.203987445300299.36843053847042,1.647815128299044,1.478850293051437.514956137531044,1.288197975249204.377722673280005,2.578906929229561.362871698100207,2.706218745750448"/>
              <path class="cls-7" d="M73.153685448600299,138.83552252894151c.118471770289034,2.071427712027798.83500658838966,16.057897763537767-3.189084542489582,17.141110023749206-.317387335229796.085416683770745-.680115718339948.094850546960515-1.097692143261156-.008336902350493,2.363950601640681,2.055704606709696,12.171146129330737,10.107470273871513,27.008711528151252,10.027245871400737,14.559595522969175-.078761788030533,24.160781805649094-7.934683380590286,26.56707509555963-10.027245871400737-.296325687169883.124980404589223-.730429655350235.252666645899808-1.214262514760776.16776187719006-2.489077267659013-.436590412738951-3.407014095248087-5.989844949041071-3.826930703278776-8.530625637449702-.343568133850567-2.078813914989951-.639747559571333-5.141016654119085-.23913746226026-8.929334335969543-14.669584129460418.053166035180766-29.339095128199915.106258939649706-44.008679257660333.159424974830472Z"/>
              <path class="cls-15" d="M84.630601630169622,157.657030292040872c8.421002684561245,2.587950004348386,20.80671435342083-1.932918123800846,32.511725258151273-12.011136108711071-.193065107130678-1.881946010289539-.269413581321714-4.232733081888.020037817939738-6.969796629218763-14.669584129460418.053166035180766-29.339095128199915.106258939649706-44.008679257660333.159424974830472.069839839899942,1.220551756889108.346347101300125,6.576938388479903-.260711025361161,10.993814629378903,3.107031871961226,5.166758668408875,8.966923527290419,6.976232132799851,11.737627206930483,7.827693133720459Z"/>
              <path class="cls-7" d="M139.822942872560816,73.3774522067215c-3.572289527881367-19.686790470550477-20.056978187350978-45.475389026150879-45.762719634460154-45.762719634471068-25.663983804621239-.286818693259193-43.254116463920582,25.037984820870406-46.559917639369814,43.370906227601154-.9144265529103,5.070957422060019-1.65326624133013,16.273414002449499,1.676594941778603,28.483904460428676,1.095498221580783,4.017289973700827,1.141058661640272,2.659544981581348,3.859254482591496,11.041934644730645,4.716931594908601,14.545993208588698,4.804249677459666,19.326329139830705,9.83286441124983,24.980796595938955,2.258130446329233,2.539171812510176,4.431868038989705,4.039302321139985,7.281626029538529,6.00600683868106,6.696726511780071,4.621569132908917,12.713044782331053,6.577304042100877,15.945203320319706,7.600549109938584,3.75460441883115,1.188666761921922,5.676699195721085,1.799308293981085,8.557172089680535,1.860299316460441,5.030369871130461.106478331821563,8.867100091210887-1.483456703919728,10.789706783150905-2.444979442059775,11.684388041028797-5.323039022179728,17.64892976010924-11.760443992310684,20.622424932969807-15.732539179558444.332452264039603-.444196007880237.843928536509338-1.061419304951414,1.409960327899171-1.99676124447069,1.919681463050438-3.172118214890361,2.933712059870231-7.356658150729345,7.412968806980643-21.389566210960766,1.277886243260582-4.003614528599428,2.336380319300588-7.23738194247926,2.986512441440937-9.211838316608919,1.925239397958649-6.060342965440213,3.971729533648613-15.654874352390834,1.948348706229808-26.805993165649852Z"/>
              <g class="cls-32">
                <path class="cls-19" d="M103.179297241307722,111.838968608637515c-2.837766991600802,8.347427425156638-15.637023911060169,8.860580959231811-18.111848364782418-.000151331165398,3.237194091347192,1.131487161092082,5.815156499296791,2.186280183466806,8.979774559687939,2.182485800527502,3.132663352815143-.000903046820895,5.929257948497252-1.124008092388976,9.132073805094478-2.182334469362104h0Z"/>
              </g>
              <g class="cls-32">
                <path class="cls-19" d="M102.830298217870222,93.629007671137515c4.465767047395275-9.440447237433546,17.65866861521863-9.635847690260562,23.420910980235931-1.361128031956468-.922253753673431-.686235249293532-1.833386566173431-1.340776264918532-2.794934417735931-1.902787983668532-6.935141046013086-4.250215173384277-15.38617908436936-3.108842746571099-20.6259765625,3.263916015625h0Z"/>
              </g>
              <g class="cls-32">
                <path class="cls-19" d="M62.867895874120222,92.875101421137515c4.534337873739787-8.266443961245386,17.014740679691386-8.80421870299142,22.136724247924576-.839889508992201-1.658818974487076-1.351272600382799-3.464238896362076-2.403030412882799-5.352666630737076-3.146926897257799-5.835810799009778-2.353134378974573-12.430806793723605-.428474729455047-16.7840576171875,3.98681640625h0Z"/>
              </g>
              <g class="cls-32">
                <path class="cls-19" d="M86.049292358495222,94.799417827387515c-.598628908703176,1.49902033892613-1.927439679075178,2.601110015257291-3.399035387345066,3.192875341650506,1.04262805219696-1.178346789085481,2.295790430958732-2.087704012841641,3.399035387345066-3.192875341650506h0Z"/>
              </g>
              <g class="cls-32">
                <path class="cls-19" d="M105.846167358495222,98.797220561762515c-1.044733964450643-.498943805672752-1.934574449480351-1.316453566261771-2.54287123823633-2.299289826216409-.19248032426367-.337184783158591-.36545395707617-.693874236283591-.42832016801367-1.084987517533591.2578125.294677734375.49658203125.57666015625.7484130859375.850830078125.697319569990213.788801326665634,1.574867143421216,1.704043182395253,2.2227783203125,2.533447265625h0Z"/>
              </g>
              <g class="cls-31">
                <path class="cls-19" d="M119.637305053807722,104.763040874262515c-6.222862037133382,1.319551291899188-14.680469940405601.136763154263463-17.406414208086062-6.43482303748533.472820458086062.67725467811033.948406395586062,1.34375858436033,1.552532372148562,1.88868045936033,4.080459336453714,4.142989488806052,10.328102820090862,4.603588168316492,15.8538818359375,4.546142578125h0Z"/>
              </g>
              <g class="cls-31">
                <path class="cls-19" d="M87.198218139745222,97.455667827387515c-1.29153243521796,6.316073656218578-8.450048597518617,9.836636569665643-14.450645566927051,8.251053547110132,1.515098691927051.016524577889868,3.008751035677051-.099686359610132,4.457237363802051-.392166828360132,4.420867888858993-.792789320803422,8.200654130276234-3.713823644662625,9.993408203125-7.85888671875h0Z"/>
              </g>
              <g class="cls-32">
                <path class="cls-19" d="M102.484228881932722,90.661966655512515c.514138304870357-1.037412833711642,1.34458766762873-1.915206665062215,2.33652144613734-2.508814175484076.33974808511266-.187474887015924.69912308511266-.355199496390924,1.09096878823766-.412328402640924-.29833984375.25341796875-.5838623046875.488037109375-.86181640625.73583984375-.798930625433059.685709739265803-1.726874301746648,1.549488868538901-2.565673828125,2.185302734375h0Z"/>
              </g>
              <g class="cls-32">
                <path class="cls-19" d="M85.432348999120222,90.495951030512515c-.878977220781962-.57507714042913-1.867095406154476-1.375926349866859-2.709727545883652-2.003894738714735-.294178704116348-.228038855035265-.595082024428848-.442638464410265-.910145500991348-.675060339410265.3948974609375.0302734375.7647705078125.1728515625,1.11669921875.336669921875,1.030126157354971.524056255968389,1.919101470924943,1.342792873809231,2.503173828125,2.34228515625h0Z"/>
              </g>
              <g class="cls-32">
                <path class="cls-19" d="M88.660376342870222,80.090189311762515c.245630474748395-1.021418770684249.666097631652519-2.221574703207807.973618294918197-3.226568749523722.115615103519303-.353997656726278.216078970706803-.709466406726278.328749869144303-1.084466406726278.104736328125.3818359375.0950927734375.7783203125.0594482421875,1.164794921875-.146229347084954,1.146872434139368-.617539738002961,2.259215232021234-1.36181640625,3.146240234375h0Z"/>
              </g>
              <g class="cls-32">
                <path class="cls-19" d="M100.625952514745222,79.681009624262515c-.74424390717104-.886750695637602-1.2157065327483-1.999661286499759-1.361849906992575-3.146226134795143-.035611030507425-.386488708954857-.045254585194925-.782728943329857.059481742930075-1.164809021454857.1126708984375.375.213134765625.730712890625.3287353515625,1.08447265625.307910743444154,1.006763692381355.727431855859322,2.203352627639106.9736328125,3.2265625h0Z"/>
              </g>
              <g class="cls-32">
                <path class="cls-19" d="M131.581030639745222,91.762064311762515c-.926493064893293.694321256711191-2.063705342901812,1.103046935364546-3.216662554586946,1.186069377115928-.387829632913054.014125935384072-.784191937600554.001674763509072-1.159680218850554-.123813517740928.3804931640625-.091796875.7412109375-.172607421875,1.1009521484375-.268310546875,1.022199134809853-.252039972066996,2.240091537463741-.604595757065908,3.275390625-.7939453125h0Z"/>
              </g>
              <g class="cls-32">
                <path class="cls-19" d="M131.286719116307722,94.198587749262515c-1.124099411954376.277052113951868-2.330790705040272.210079865653825-3.424440609962403-.164270381641472-.362546694725097-.138463993358528-.722532046287597-.304479618358528-1.019284975975097-.566930790233528.38623046875.064208984375.749755859375.130859375,1.118408203125.18310546875,1.039447414437745.16710114122543,2.29831423374344.318082754269199,3.3253173828125.548095703125h0Z"/>
              </g>
              <g class="cls-32">
                <path class="cls-19" d="M57.618262085057722,93.053568218012515c1.043938574646745.117601008943893,2.286975253402488.386021310992874,3.322269982250873.567123819404515.365474158374127.071059774345485.730830603686627.126723836845485,1.116816931811627.192153524345485-.3660888671875.151123046875-.7606201171875.190673828125-1.1485595703125.203125-1.15585118310446-.003439795042141-2.318258035356848-.333539226512585-3.29052734375-.96240234375h0Z"/>
              </g>
              <g class="cls-32">
                <path class="cls-19" d="M58.079199585057722,95.464212749262515c1.006788118593249-.299585678367293,2.256166267769004-.537681930689359,3.279905396993854-.77516202397419.364137571756146-.07737703852581.722169798318646-.16868563227581,1.103151243631146-.25926180415081-.2779541015625.281982421875-.6258544921875.472412109375-.97802734375.635498046875-1.065489881491885.448238402870629-2.264472224655037.598182392470335-3.405029296875.39892578125h0Z"/>
              </g>
              <g>
                <path class="cls-18" d="M80.819535310130959,125.657855443849257c2.600250244138806,1.13671875,9.615005493158606,3.777099609382276,18.061447143549231,1.728820800792164,4.253677368169519-1.031555175792164,7.448410034179688-2.907348632819776,9.496353149419519-4.371704101569776-.145065307619006.829040527349207-1.538513183599207,8.143127441409888-7.601303100589575,10.955322265628638-6.335983276370825,2.938903808590112-15.379196166990369-.148559570308862-19.956497192379175-8.312438964851026Z"/>
                <path class="cls-13" d="M80.611792358495222,125.479837749262515c.306863256040742-.026916885530227.835900712760122.127743517386989,1.146954430871119.269326713510964,8.60141871273845,3.393956287962283,18.859022023505531,2.439033606786325,26.336668714568077-3.128342578536831.000019432685804.000129146275867.987324120185804-.716911869349133.987324120185804-.716911869349133-1.606964060829341,11.785637982906337-11.839484537085809,17.357853508188782-22.130366504568883,10.85223283443338-1.680591603899302-1.056547333364506-3.130895882797631-2.484689979784889-4.402226894309933-3.994077590952656-.77725131033003-.969377041490588-1.557378816592973-2.114215036228416-1.938353866746183-3.282227509105724h0ZM81.335547241307722,126.173441264887515c7.881143402950329,11.50264648355369,23.341427089344506,12.059129352328455,26.564597059074003-3.241991341124958-.000021863761503.000047981749958.758889269050997.477587044249958.758889269050997.477587044249958-7.819533259498712,5.683859501050392-18.518754644695946,6.652126002671139-27.323486328125,2.764404296875h0Z"/>
              </g>
              <polygon class="cls-9" points="101.556372436620222 75.800150249262515 124.905737670995222 75.191751811762515 125.658423217870222 75.172220561762515 126.016333374120222 75.573099468012515 132.854101928807722 83.233499858637515 132.071142944432722 84.057230327387515 124.073218139745222 77.617533061762515 125.183447631932722 77.998636577387515 102.167822631932722 81.978617046137515 101.556372436620222 75.800150249262515 101.556372436620222 75.800150249262515"/>
              <polygon class="cls-9" points="86.120703491307722 82.358988139887515 62.931128295995222 79.564798686762515 64.020361694432722 79.127298686762515 56.363257202245222 85.968851421137515 55.539160522557722 85.186380718012515 61.974951538182722 77.185160014887515 62.311743530370222 76.766458843012515 63.064551147557722 76.747415874262515 86.414404663182722 76.157083843012515 86.120703491307722 82.358988139887515 86.120703491307722 82.358988139887515"/>
              <path class="cls-18" d="M125.724959388140633,93.407009306270993c-.224417284771334.379046796429975-4.088728716051264,6.650982484119595-11.566052246371328,6.80367447468052-6.917448483220141.141263220519249-10.941638137679547-5.076886238721272-11.322786468519553-5.589340753420402.74531819206095-.836916214550001,4.553151983120188-4.93854450830986,10.937382296469877-5.377904895191023,6.707793872679758-.461618363049638,11.185950969280384,3.468845644190878,11.951456418421003,4.163571173930904Z"/>
              <path class="cls-18" d="M62.959162070630555,94.122042773600697c.249903889909547.3627501032297,4.535575973310188,6.35466923669992,12.005746836699473,5.993796277480214,6.910831674349538-.333847846090066,10.567384846899586-5.815891721360458,10.912462140579009-6.353297844430926-.801002227010031-.783787847529311-4.881371159528499-4.614393832880523-11.280701923198649-4.614537537039723-6.723658983879432-.000141460639497-10.921489155511154,4.228411500391303-11.637507054079833,4.974039103990435Z"/>
              <g class="cls-21">
                <circle class="cls-4" cx="114.010079143797611" cy="93.808625536878026" r="5.68986906165142"/>
              </g>
              <g class="cls-33">
                <circle class="cls-4" cx="74.977992920792531" cy="93.401034161768166" r="5.689869061654699"/>
              </g>
              <path class="cls-8" d="M102.743628295995222,94.541361186762515c5.569473553394346-7.382326201966862,16.880687768836651-8.230078215581671,23.324716110095324-1.497597195313574-.000009078845324-.000205539061426-.686898727282824.726601101563574-.686898727282824.726601101563574-4.678242314032104-4.102354782175098-11.61832375782069-5.395164957328234-17.291882839315804-2.63805997844247-1.891588840371696.86657560344247-3.644762668496696,2.08996427531747-5.160998020059196,3.56896818156747.000000000003638,0-.184936523439319-.159912109375-.1849365234375-.159912109375h0Z"/>
              <path class="cls-8" d="M85.790503295995222,93.848734233637515c-6.51153944816906-5.785527490861568-16.334067412872173-5.635679886867365-22.463729495091684.612555128887834-.000015622095816-.000250441387834-.735123043970816-.678228957012834-.735123043970816-.678228957012834,4.294914710542798-5.157028768553573,12.109056348961531-6.919820819555753,18.150411035476282-3.954719662891875,1.990946386398718.922004819141875,3.785013769211218,2.229866147266875,5.222147558273718,3.848030209766875l-.1737060546875.17236328125h0Z"/>
              <g class="cls-32">
                <path class="cls-19" d="M93.237768920995222,91.508402202387515c1.114742009162001,4.178590211184201.68667238706621,8.814255660459821-1.197539593144029,12.708994301632629.541876747001879-4.309746309905677.927009111368534-8.373774942003365,1.197539593144029-12.708994301632629h0Z"/>
              </g>
              <g class="cls-32">
                <path class="cls-19" d="M108.904394897557722,115.828714702387515c5.572135508571591,3.253464335073659,6.900269599294916,11.657951855257124,2.741754459861113,16.592547771280806.640569758888887-1.407489177530806,1.070623469826387-2.868426677530806,1.319402766701387-4.338153240030806.785172477071683-4.505403622142694-.836165710214118-8.948146393107891-4.0611572265625-12.25439453125h0Z"/>
              </g>
              <g class="cls-32">
                <path class="cls-19" d="M102.302344116307722,156.389993999262515c-2.244745247799074,3.27161874714875-7.509616721639759,3.674206924270038-10.306035132101897.903919894239152,3.33744595870121,1.909006116162345,7.375747346908611,1.623137022987066,10.306035132101897-.903919894239152h0Z"/>
              </g>
              <g class="cls-32">
                <path class="cls-19" d="M80.906714233495222,118.467142436762515c-3.225429899841401,3.306041159596134-4.847233803027848,7.748561146132488-4.062573585246355,12.254166565940977.248486671183855,1.469710387184023.678418311808855,2.930647887184023,1.318677100871355,4.338118590309023-4.158107190894953-4.934808218898979-2.828263150124258-13.340059260373891,2.743896484375-16.59228515625h0Z"/>
              </g>
              <g class="cls-31">
                <path class="cls-19" d="M76.011694702245222,122.079935405512515c-2.66555593567864,3.388166866661777-2.89612471820692,7.737825804475506-.812749781362072,11.481450417155429-3.237136060059129-2.991796210964822-2.875457051266494-9.004659655820433.812749781362072-11.481450417155429h0Z"/>
              </g>
              <g class="cls-31">
                <path class="cls-19" d="M114.040503295995222,117.897074077387515c3.688350482128953,2.477327668048019,4.048619763729221,8.490091363764805.811373829510558,11.481447724461759,2.08407593634729-3.743762438391059,1.853616267944744-8.09290550440528-.811373829510558-11.481447724461759h0Z"/>
              </g>
              <path class="cls-9" d="M136.473515966490595,101.64576806893092c-.081298828121362-7.290771484380457-1.072265625-12.999450683601026-1.981201171871362-16.909912109380457-.437255859378638-1.881210327150256-1.388427734378638-4.631744384771082-2.395385742189319-9.049377441409888-.797607421869543-3.498947143549231-1.305908203119543-6.404281616209119-1.614379882810681-8.342872619619811-4.866943359378638-1.407279968270814-10.678588867189319-3.500778198249463-16.939086914058862-6.677017211921338-6.517578125-3.306701660159888-11.8115234375-6.919303894039331-15.9140625-10.132087707519531,2.553100585930224-6.276184082029431,5.106323242180224-12.552368164058862,7.659423828119543-18.828552246090112,3.12158203125-.73309326171875,11.281616210939319-2.221740722659888,19.479248046880457,1.90264892578125,3.794921875,1.909301757808862,7.601928710930224,5.01318359375,10.8623046875,9.950012207029431,9.626831054680224,14.576477050779431,10.286865234369543,38.770202636720569.843139648430224,58.087158203130457Z"/>
              <path class="cls-9" d="M117.157475927429914,31.996827028890038c-.999755859369543,2.799827575679956-7.502685546869543,20.098800659181506-26.148681640619543,27.605125427240637-13.956420898441138,5.618423461919519-26.432861328130457,2.416130065919788-30.342041015630457,1.242073059080212-1.984008789060681,3.231369018560144-3.968139648439319,6.462738037109375-5.9521484375,9.694107055669519-.500122070310681,5.522277832029431-1.000244140619543,11.044555664060681-1.500366210939319,16.566833496090112-.177490234371362,5.204879760740369-.354858398430224,10.40974426269895-.532348632810681,15.614624023439319-2.367431640619543-4.358215332029431-5.205444335939319-10.81257629394895-6.566162109369543-19.041931152338293-.663330078130457-4.011856079110657-.752075195319776-7.093627929691138-.797485351569776-8.9046783447302-.159301757810681-6.355453491210938-.333740234371362-13.316528320310681,2.927734375-20.760345458991651,1.897094726569776-4.329780578609643,4.305786132819776-7.337394714348193,6.74267578125-10.38017272948855.526123046878638-.656906127929688,4.012573242189319-4.979461669920056,7.6298828125-7.984748840330212,8.553344726569776-7.106300354000268,19.25927734375-7.955085754390893,25.018920898439319-8.517066955570044,13.664184570310681-1.333244323730469,24.38818359375,2.583045959479932,29.52001953125,4.866180419929151Z"/>
              <ellipse class="cls-16" cx="121.899413445847131" cy="109.341576497070491" rx="14.831661226057802" ry="11.907359779830585"/>
              <ellipse class="cls-12" cx="66.075033785537926" cy="109.341576497070491" rx="14.831661226057802" ry="11.907359779830585"/>
              <g class="cls-31">
                <path class="cls-19" d="M125.598486694432722,122.477884624262515c.859139485677588-3.096600089906133,1.671724757336051-6.164466147320127,2.320780334686788-9.307134014776238.525684003390779-3.056862053959776,1.840429041219977-6.902949121669735,5.300601305219971-7.613167638301093-3.122980742100481,1.383795994708635-3.895046542558703,4.712563025328564-4.493310575040596,7.791484402638162-.684260142232233,3.142003442442729-1.688397307510968,6.245940325428819-3.128071064866162,9.12881725043917h0Z"/>
              </g>
              <g class="cls-31">
                <path class="cls-19" d="M63.648413452245222,122.477884624262515c-1.439613043739882-2.882875611230702-2.443766769711146-5.986880515207304-3.127930032716904-9.128904978655555-.597615065051286-3.077544869951453-1.371449041896994-6.409403144622047-4.493433784551598-7.791407208807868,3.461614503170495.712407198376241,4.773930071840368,4.554711630287784,5.300394402474922,7.61328702830906.649247595232737,3.142576634736542,1.461823366886165,6.210399214132849,2.320969414793581,9.307025159154364h0Z"/>
              </g>
              <path class="cls-9" d="M115.650517919619233,33.451905153890038c.191528320310681-1.0023345947302.455688476560681-3.112823486329944-.332641601558862-5.589317321779163-.759521484380457-2.385971069339575-2.11669921875-3.920532226560681-2.838989257819776-4.635589599609375-.043212890621362,1.420455932619006-.0947265625,2.854850769039331-.1552734375,4.302886962888806-.059326171871362,1.418571472169788-.1259765625,2.823379516599744-.19970703125,4.214172363279431l3.526611328128638,1.707847595220301Z"/>
              <path class="cls-9" d="M114.540750514719548,31.747884880320271c.499635888600096-.590991319260866,1.611897276659874-1.764177507919158,3.392644281781031-2.578793187220072,1.715658791268652-.784835582078813,3.195266279630232-.84508444857056,3.923640883649568-.827160839919088-.806879460929849.720740921778997-1.618265967090338,1.452585169030499-2.433669420588558,2.195761195949672-.798806681590577.728059626058894-1.586442246281877,1.453097911809891-2.362866081009997,2.174866095800098-.8399165546125-.321557754879905-1.679833109221363-.6431155097398-2.519749663832044-.96467326461061Z"/>
              <path class="cls-9" d="M99.117207275499823,39.776991702370651c-3.540458627228873.551561378659244-5.12060234754972,1.539071593959306-6.047163741059194,2.77430143851052-1.011067336241467,1.347883906539209-1.534956075431182,3.393798321580107-1.863537448851275,4.614426070729678-.229112114719101.851180037050653-.401491738090044,1.745408209910238-.518972668209244,2.735901441159513-.197543960499388,1.665381064740359.010222372100543,4.077794644619644,1.929451780830277,7.205505102770985.781629799548682-2.727634992450476,1.563101826030106-5.455128127090575,2.344663758920433-8.182666215721838.245322673228657,2.234817977250714.955248787018718,5.899455933880745,3.263873658639568,9.732319275730333,1.344540113070252,2.232142363540333,2.853889995059944,3.894624256010502,4.107768791469425,5.06667530741106-.700843265220101-3.9427417336301-1.401701223599957-7.885518100480112-2.102454582400242-11.828304788099558.353142090820256,1.718085500499001,1.753939783440728,7.446573360968614,7.109601322879826,11.807325645599121,4.275964885409849,3.481618058649474,8.79594640437972,4.237342991480546,10.685522722091264,4.444391021830597-2.005363900550947-2.421667278689711-4.010817707510796-4.843289603390076-6.016208545521295-7.26502037632963.995101911539678,1.252304218200152,2.75551847503084,3.149522431969672,5.468357358251524,4.715778816089369,2.531831782969675,1.461722705689681,4.88404382923909,2.052336027869387,6.4174688508283,2.313559002979673-.801720483999816-2.094203499500509-1.603528425548575-4.188356272810779-2.405266051579019-6.282600177739369,1.524504083159627.429510234489499,3.380989982069877.810038767220249,5.510158896959183.955318691379944,4.02514066546064.274671763760125,7.371790296760082-.404149315700124,9.645470030831348-1.076479874809593-1.748029652080731-2.895509687290541-9.941405078059688-15.958393944411-22.903993922631344-20.489787515201897-.365823303796788-.12788365698907-7.116529290047765-2.410318454069056-14.624740211449534-1.240642866288908Z"/>
            </g>
            <g>
              <path class="cls-3" d="M130.017210489802892,153.392328817830276c-.769434777565039,6.649865880650395,2.793754264954259,13.401523999640631,9.082450288538894,17.333038800301438,2.028185231758471-.42463231047077,4.879060169794684-1.26934129457004,7.917933760638334-3.059659792150342,2.145982445510526-1.264187780299835,3.797323819868325-2.653270456490645,5.004387278580907-3.835344193830679-.796964647543064-3.705012872851512-2.105363679438597-6.536010403939144-3.098528587284818-8.432168090599589-1.761175115134392-3.362488826620393-4.398521840481408-6.957502930919873-8.355818203368472-9.828268966331962-1.658158387142976-1.203037963128736-3.320996669595843-2.113854099568925-4.893595595836814-2.809008264568547-1.265394436270071,1.151251311508531-4.986681388329089,4.840881582529619-5.656828941268031,10.63141050717968Z"/>
              <path class="cls-4" d="M123.395415374092408,141.380845929990755c-.098137850822241.408430405528634-.084045334730035.830646717538912.050478410073993,1.228578616261075,1.177590154813515,3.483405007009424,2.921957361157183,7.654528816809034,5.54706847935995,12.086691336839067,1.380763067320004,2.331335097509509,2.809300130673364,4.404063548530758,4.203341887028728,6.227786011380886,1.089208778550528,1.424931862418816,3.334134947559505,1.020390400368342,3.886861095517816-.685862916461701l15.453531516639487-47.704707846049132c.224953924907823-.694427759450264.096073368500583-1.454984569480075-.345096414097497-2.036537150381264-4.462146512103573-5.882027561359791-8.924270092533334-11.76389580535033-13.386410275386879-17.645879394378426-1.138035802359809-1.50015634627016-3.507955423900057-1.003509616630254-3.947874950757978.82735503171898-3.820640598485625,15.900807713131144-7.641254282847513,31.801802411619065-11.461899748377618,47.702576311070516Z"/>
              <path class="cls-1" d="M146.186530787659649,120.459158741039573c1.659124242583857,10.173074912661832,5.849669931487369,18.003287429601187,9.322821953281164,23.145324926110334-.308663894382335-9.172086253638554-.617289917341623-18.343909396280651-.925953811723957-27.515995649930119-1.663459260451418-2.492648900139102-3.592682150774635-5.127249740849948-5.826681027478116-7.824064056649149-3.664341624515146-4.423507924229853-7.358075737887702-8.060463759349659-10.746654583872441-11.010316686481019-.08481534706516-.022973564959102-.208842189995266-.047822881759203-.357876593589026-.044902094208737-1.03731883855653.021473054239323-1.741705731106777,1.365228740440216-1.852306485094232,1.576392939719881-.69375078631856,1.323425408840194-.00014946446754,3.46474126989051,1.670345358101258,5.376551900579216,2.666262090750024,2.750077328690168,5.33259992434796,5.500680879391439,7.998862015097984,8.250758208070692.041135301418763,2.477204357259325.24936147569133,5.175823913319618.717443175277367,8.046250512788902Z"/>
              <path class="cls-3" d="M154.780852846866765,139.071274189111136c-.869813512716064-7.518884887880631-1.739758580933994-15.037750840050649-2.609572093650058-22.55663572793128-2.601648776137154-1.728367645899198-5.516140354970048-3.48636588645968-8.74849000107497-5.181961722519191-5.302091271980316-2.781046742620674-10.316215382814335-4.793827874180352-14.760743457103672-6.268485073660486-.090793227600443.011994261280051-.220142203143041.03786354867043-.362158459707643.100737763341385-.988985120275174.437501361458999-1.126111380013754,2.013019203459407-1.147691029367707,2.260516832968278-.135065169337395,1.551587709200248,1.392700253461953,3.331936236041656,3.767576609121534,4.49888545299109,3.66965223599982,1.573031001569689,7.339342343422686,3.146325114139472,11.008994579420687,4.719356115700066,4.284040574595565,7.475949823379779,8.568043277771721,14.951636535739453,12.852083852361829,22.427586359110137Z"/>
              <path class="cls-7" d="M135.705143015229623,138.64492086294922c1.191717171315759,1.869551912361203,1.892698073523206,3.633626075632492,2.315989100119623,4.997881210012565-.006304419708613,1.399944227408923-.056731926881184,3.584934595828599-.296429414995146,6.280861711369653-.134401217339473,1.511618334719969-.243077682183866,2.226039328717889-.453195123936894,4.17897197073944-.322261972003616,2.995412913320251-.582519225541546,5.414837302740125-.613682787319703,6.945387880999988-.04438990516428,2.180668140008493.31688413451775,5.479745310298313,2.441835989244282,9.677343982060847,1.674973100496572-.346659760130933,3.80253554965384-.95825582271209,6.109042931755539-2.08226235579059,3.115983160796532-1.518502189950595,5.359743765344319-3.387753317450915,6.813278107463702-4.81274163019043,1.526456305393367-2.38609939717935,4.192123118458767-7.324056886540347,4.288470645848065-13.938951402371458.04188529291423-2.875386206838812-.412312465887226-5.337748154748624-.937285723917739-7.233218719698925-1.446360811100021-6.960152026458672-2.892661209645667-13.9203127485398-4.339022020747507-20.880464775000291-1.102063059548527-1.10573452089011-2.470968036766862-2.319574680539517-4.134744828805196-3.505524604999664-2.273175340356829-1.620160464450237-4.446039596143237-2.724200854729133-6.24682201592077-3.481227131709602-3.000369930714442-.128786264489463-6.18260558471593-.172444361851376-9.528354444450088-.096864051491139-2.797356794304505.063243680340747-5.474236527586982.204355732630574-8.020389159548358.402868230590684-.0690883269599.081228155810095-.159657986509046.205999969719414-.225323134411155.37355856071008-.467145402675669,1.191994073329624,1.02450606673483,2.752231749898783,1.37617024870633,3.12019065909044,1.46626362000643,1.533799811728386,3.421708518008018,1.899319351188751,4.387323925919191,2.003535017729519,3.374453602249559.083574747261082,6.749062812028569.167373753520224,10.123516414278129.250948500781305,1.565655227292154,1.458322815629799,3.131466062113759,2.916869890268572,4.697121289407733,4.375192705898371.322677632835621,2.552823009631538.645269222981369,5.105905060689111.96794685581699,7.658728070320649l-6.09243843341028-2.798503808520763c-1.692525433862102-.562703619109016-3.750526616944626-1.102647195939426-6.122019897906284-1.436894133730675-3.076547607577595-.433542046797811-5.777081362817626-.393361087279118-7.908218161401237-.206733346438341-1.185948476895646.433391312728418-2.397898211642314.896917436550211-3.633015313014766,1.393130349859348-1.052876115680192.423116910200406-2.076882374494744.851451332750003-3.071813735374235,1.283000501069182-.074357174220495.143157399121264-.158224898919798.353047743679781-.168501110481884.609816553140263-.047900765117447,1.212059318651882,1.603653175367072,2.128446197180892,2.102909049543086,2.405357347612153,2.17051892125528,1.204273933288277,4.65055009716707.57894306516755,5.56902447687753.296526640027878,2.624988088033206.268654151761439,5.249890133376539.537567344941635,7.874878221409745.806221496690341.844168016006734.855006807800237,1.811470797603761,1.982851549770203,2.723748049251299,3.413864571239174Z"/>
            </g>
          </g>
          <path class="cls-6" d="M200.713805457298804,101.98691509640048c-17.29925537109375.16455078125-34.59857177734375.328857421875-51.8978271484375.493408203125,16.1527099609375-4.833251953125,32.30535888671875-9.66650390625,48.45806884765625-14.499755859375,1.14654541015625,4.6689453125,2.293212890625,9.337646484375,3.43975830078125,14.00634765625Z"/>
          <circle class="cls-6" cx="247.158947733051718" cy="75.612074062678403" r="60.011880931207088"/>
          <g>
            <rect class="cls-30" x="209.940814359026376" y="41.198761067343966" width="63.12559480215009" height="39.232440569341904" rx="2.899069324949091" ry="2.899069324949091" transform="translate(20.268250104117243 -53.541352984853404) rotate(13.200153221830018)"/>
            <rect class="cls-20" x="214.169529884747021" y="42.387216520416942" width="18.413019487326181" height="23.564883094682244" transform="translate(18.271805909971846 -49.577439462838583) rotate(13.200153153006255)"/>
            <line class="cls-24" x1="239.714373202286879" y1="46.705979659824152" x2="270.564656656209991" y2="53.941935357566763"/>
            <line class="cls-24" x1="238.63875816613654" y1="51.291832605676973" x2="269.489041620059652" y2="58.527788303421403"/>
            <line class="cls-24" x1="237.563143129986202" y1="55.877685551533432" x2="268.413426583912951" y2="63.113641249276043"/>
            <line class="cls-24" x1="236.487528093839501" y1="60.463538497386253" x2="267.337811547760793" y2="67.699494195128864"/>
            <line class="cls-24" x1="235.411913057687343" y1="65.049391443240893" x2="266.262196511612274" y2="72.285347140979866"/>
            <path class="cls-26" d="M211.028966520421818,66.281304253061535c.560788680244514.131533380288602.466038848526296.535496579901519,1.026827528772628.667029960190121q.56142745840225.131683206154776,1.123109071051658.262282925079489c.560804485254266.13153708736354.583602479769979.034338603185461,1.144406965022426.165875690549001.558399889656357.130973087772873.696338843248668-.457125473576525,1.254738732905025-.326152385805472.559247546445476.131171906268719.228564901835853,1.541027681931155.787812448283148,1.672199588199874.561812112649932.131773427081498.864374808978027-1.158193596482306,1.426186921629778-1.026420169402627.56057173388399.131482495366072.624645259946192-.141692997967766,1.185216993830181-.010210502601694.560585858493141.131485808302386.588092936621251.014210285253284,1.148678795112573.145696093555671.562440504341794.131920816795173.164903739711008,1.82680715825154.727344244050983,1.958727975046713.561512211490481.131703085051413.56628111925238.111371079636228,1.127793330742861.243074164687641.562265647937238.131879804101118.615635346312047-.095660235892865,1.177900994249285.036219568210072.562900028138756.132028598423858.941241684722627-1.481019782859221,1.504141712861383-1.348991184433544.562098017880999.131840486352303.288746662978156,1.297266002866309.850844680859154,1.42910648922043.562963758275146.132043546373097.481728259906959.478388785424613,1.044692018183923.610432331799529.564546881358183.132414869007334.83256131480266-1.0102566561618,1.397108196159024-.877841787152647.564546881358183.132414869007334.538430148464613.24376288039457,1.102977029820977.376177749401904"/>
            <g>
              <path class="cls-6" d="M220.032621349730107,56.717790200968011c2.16364937491926.055328724854917,3.830964731050699.69997048278492,5.05722701369632,1.18617523588.74927898369242.297093273855353,1.222057681792649.538380027319363,1.856713512705028.862229852053133,2.383291989892314,1.216276355618902,3.242225052628783,1.389238345216654,3.691830666488386,2.278893661912662.113572002564979.224755027373249.253040524015887.593135397490187.078740706867393,2.12026553884607-.128718121542988,1.127693060396268-.407368487114582,2.709960808384494-1.068398632463868,4.577759177878761-.061253389687408-.014333866543893-9.040990762083311-2.120552216190845-9.102244151772538-2.134886082720186-.057574363941967-.013473834549586-8.766688336030711-2.056336494089919-8.824262699974497-2.069810328634048.326740487820643-1.477152726678469.55304835073548-2.591085275194928.695909220601607-3.314563299114525.203732023113844-1.031751713671838.337204210394702-1.773003732096186.961754665393528-2.438668494296508.077641777103054-.08275418949961.416804949258221-.411668647073384.968133236006906-.700352719220973.317686262120333-.166368410991709,2.138373990252148-.274350205616429,3.811255664557393-.27415908738476.8139725013516.000095559096735,1.25215880153155-.10874626750774,1.873340797894343-.092883455199626Z"/>
              <path class="cls-4" d="M219.97432940235376,56.797543642513119c.315605391342615-.021873382280319.591878513225311-.024776883356026.81804781730898-.020306233367592.796551315033867.015742955078167,2.251021654486976.05289928658749,3.677091666944762.859058929356252.250060948397731.141357195159799.447734051604129.277165190644155.583043436079606.376090112113161-.015648758930183.038546268846403-.031285367025703.077102648912842-.046934125955886.115648917775616-.272642446867394.143823890173735-1.349656347454584.671230877902417-2.721646906938986.357249853635949-1.398192011882202-.319974107882445-2.14343382833431-1.29424524804017-2.320534743445023-1.539897108614241.003644823438663-.049283784492218.007288032566066-.098560686408746.010932856006548-.147844470899145Z"/>
              <path class="cls-7" d="M219.613547580394879,52.969435295921357c-.657112947274072.005679973772203-1.156763549615789-.630125541305461-1.106850278263664-1.408467252927949.049913271344849-.778341711611574.631709184845022-1.423500564502319,1.288822132119094-1.42918053827816l-.18197185385543,2.837647791206109Z"/>
              <path class="cls-7" d="M226.952631400034079,54.375803831891972c.53115099140814.245656683187917,1.192607480939841-.155175398243955,1.465292401248007-.887946080883921.272684920311804-.732770682639966.060002559501299-1.537901309315203-.471148431903202-1.783557992501301-.33138428798884.890498481308896-.662759681350508,1.781005592074507-.994143969344805,2.671504073385222Z"/>
              <path class="cls-28" d="M228.35830359148531,53.010830050274308c.003211373279555-.081466140614793-.001499025933299-.209409714538197-.063802714503254-.259608864313122-.133994399444418-.10796505534563-.458654268903047.204660512217743-.618723841607789.569255040070857-.062080120487735.14140836149636-.154471460469722.416053227787415-.094818798781489.531166985854725.058931452402248.113723246764494.242722876109838.026339235300838.35774358216986-.177493507582767.084740486930968-.150173456655466.145161842710877-.386625970870227.089739478915362-.439906571948086-.033951975798118-.032638042526742-.109365020516634.005385384274632-.175049418807248.098098016462245-.076206407953578.107554205882479-.098431053589593.231003742250323-.100514282352378.243212019304337"/>
              <path class="cls-29" d="M218.833588728501127,51.123641251562731c.038631025010545-.072235752235429.108928479679889-.180636163157033.196178685193445-.191887427636175.187647796155943-.024200714420658.347672863017578.414607915812667.318584255444875.813277312847276-.011285034301181.154622768044646-.061017526722935.440351605469914-.178959153343385.509210092823196-.116516326790588.068027044413611-.253078662104599-.102768530901812-.262015004002023-.338861346674094-.006583007379959-.173940580818453.055106738602262-.410041903855017.137146283179391-.427523069003655.050256809150596-.010707407200243.10517839826025.06125145916667.12243670666976.175553960460093.020028105696838.13260391489348-.021378948731581.251047487034157-.025586948551791.262701399817161"/>
              <path class="cls-7" d="M220.745034125724487,55.427593663864172c-.034575641071569.197564136280562-.275882354606438,1.529694374952669-.678514153685683,1.542809899983695-.031755894895468.001032730076986-.066101715448895-.006086409750424-.103123425691592-.025015450435603.177100915110714.245651860574071.922351228451589,1.219917732463728,2.320534743445023,1.539897108614241,1.371990559484402.313981024266468,2.449004460071592-.213425963462214,2.721660672090366-.357246625018888-.030647056455564.005221125509706-.074320614619865.007655540775886-.117981516443251-.01101542354445-.224617889600268-.096033729721967-.18842351110834-.638931834064351-.171857185721819-.887322537360888.013554119466789-.203228131551441.053275813572327-.497960180280643.174603199398916-.845648147111206-1.381776943424484-.31881785227597-2.763545389967476-.637640972840018-4.14532233339196-.956458825126902Z"/>
              <path class="cls-15" d="M221.409692381646892,57.452293765627473c.735401256593832.429448711722216,2.000856973540067.277381272888306,3.324924545235262-.412732863431302.023372729361654-.181377982475169.068079409214988-.404303712697583.155739532234293-.655508413205098-1.381776943424484-.31881785227597-2.763545389967476-.637640972840018-4.14532233339196-.956458825126902-.020370022984935.116411852930469-.112585740305803.626622925639822-.267217656091816,1.028909423028381.178360278492619.55484653592066.689911221550574.854495379509899.93187591201422.99579067873492Z"/>
              <path class="cls-7" d="M228.464443745731842,50.73879731787747c.098372991276847-1.93164526583314-.883789406107098-4.722584752644252-3.29669956834914-5.317063838001559-2.408991511860222-.593509134669148-4.623485873087702,1.401601642382957-5.339293074735906,3.054000430920496-.197997795063202.457059294953069-.514819364130744,1.495050327872377-.470973655188573,2.717724693955461.01442192880495.402262924118986.048681106862205.275486745442322.119463778606587,1.124383704294814.122832820110489,1.473094968379883.025527822948789,1.924915766834602.373968800900911,2.56807988447872.156469605777602.288816656031486.327932877371495.477982763084583.55271935995188.725982410034703.528233079345227.582777099696614,1.051277225440572.899644109502333,1.33287894590103,1.067292892917976.327119263598433.194749820522702.49453448107306.294648311763012.764279025559517.363972936727805.471074394656171.121063157930621.867258609629062.056122397982108,1.069426504156581.008070582591245,1.217159216823347-.243043669679537,1.920603578311784-.717225894146395,2.288130501645355-1.025415016147235.041093524589087-.034466096711185.102855058215937-.081264528918837.176773254293948-.156797886847926.250690042263159-.256162878315081.438494818252366-.627599782172183,1.169819840397395-1.849406752349751.208643298032257-.348584971212404.379644997696232-.629560009503621.484415927723603-.80103142203734.314968792219588-.527860624990353.719363794702076-1.385658942501323.775090359136811-2.47979262053741Z"/>
              <g class="cls-32">
                <path class="cls-19" d="M224.166723999120222,53.549661968012515c-.394853647252603.713594314722286-1.713746340601574.452857839301942-1.704460093338639-.399961896486275.61824033728044.441948638655958.959263776769149.507396863175018,1.704460093338639.399961896486275h0Z"/>
              </g>
              <g class="cls-32">
                <path class="cls-19" d="M224.535864624120222,51.828226421137515c.582088998085965-.775019785814948,1.912702581854319-.492096249932729,2.234240439714995.388965232170449-.525568370483597-.727138970576561-1.506764611420294-.973002317616192-2.234240439714995-.388965232170449h0Z"/>
              </g>
              <g class="cls-32">
                <path class="cls-19" d="M220.791601928807722,50.875101421137515c.578636671736604-.666457376679318,1.819667542986281-.430353044073854,2.101797192593949.409464427872081-.487479070539848-.692592251007227-1.391776545113316-.879480296554902-2.101797192593949-.409464427872081h0Z"/>
              </g>
              <g class="cls-32">
                <path class="cls-19" d="M222.930762085057722,51.567972514887515c-.10236855259609.099243267704878-.249443945001985.20472679393788-.390392613127915.225315701625732.134289097502915-.075657498500732.248913120940415-.159886014125732.390392613127915-.225315701625732h0Z"/>
              </g>
              <g class="cls-32">
                <path class="cls-19" d="M224.705664428807722,52.381204936762515c-.086850210473131-.100625555729493-.198637663263071-.246956617351316-.204935616191506-.384283467867135.060526436504006.135015889742135.153177803691506.242437764742135.204935616191506.384283467867135h0Z"/>
              </g>
              <g class="cls-31">
                <path class="cls-19" d="M225.871924194432722,53.246927593012515c-.613197772850981-.016264761665298-1.377448920504321-.315318099728756-1.496214874559882-.989748902575229.226789908983847.63057703807317.893497247323467.863971119724738,1.496214874559882.989748902575229h0Z"/>
              </g>
              <g class="cls-31">
                <path class="cls-19" d="M222.980200561620222,51.843118999262515c-.257617961840879.559143716207473-1.018935996617074.734531927944772-1.542117664563193.457746496935215.564102370839464.159479061008824,1.18762480886835.037048637203043,1.542117664563193-.457746496935215h0Z"/>
              </g>
              <g class="cls-32">
                <path class="cls-19" d="M224.568823608495222,51.541361186762515c.10189670658292-.085341670874186.249648830771548-.194944473008945.387090770829673-.199442454853852-.135870067704673.058573314228852-.244512645829673.149637767353852-.387090770829673.199442454853852h0Z"/>
              </g>
              <g class="cls-32">
                <path class="cls-19" d="M222.967627319432722,51.149271343012515c-.11279296875-.100341796875-.1783447265625-.22607421875-.281494140625-.33203125.125100152412415.056187692562162.220283748965812.214733926457484.281494140625.33203125h0Z"/>
              </g>
              <g class="cls-32">
                <path class="cls-19" d="M223.501196655370222,50.241068218012515c.0565185546875-.139892578125.152587890625-.244140625.2177734375-.376953125-.010661310627256.136640143962723-.127899915320086.279827448141077-.2177734375.376953125h0Z"/>
              </g>
              <g class="cls-32">
                <path class="cls-19" d="M224.636328491307722,50.466898296137515c-.037230669015116-.127526570831833-.078667416535609-.30702487180497-.027322758769515-.434567405642156-.000875483417985.147946311892156.039041508769515.283932640017156.027322758769515.434567405642156h0Z"/>
              </g>
              <g class="cls-32">
                <path class="cls-19" d="M227.282934936620222,52.287210796137515c-.129377129564091.029857214227377-.310755989628888.061430781064701-.435298679169136.003153212517645.147701022919136.009053818732355.285640476044136-.023172743767645.435298679169136-.003153212517645h0Z"/>
              </g>
              <g class="cls-32">
                <path class="cls-19" d="M227.201514038182722,52.509867046137515c-.130830397314639-.022586052247789-.310207220818484-.064763529338961-.402087714015579-.16676573899349.132434393703079.06569152024349.272082831203079.08986144211849.402087714015579.16676573899349h0Z"/>
              </g>
              <g class="cls-32">
                <path class="cls-19" d="M220.293555053807722,50.775980327387515c.14599609375.038818359375.2611083984375.121337890625.4010009765625.16943359375-.136824816292574.006459741691287-.293431232095827-.092604279212537-.4010009765625-.16943359375h0Z"/>
              </g>
              <g class="cls-32">
                <path class="cls-19" d="M220.283667358495222,51.013040874262515c.1495361328125-.021484375.287841796875.009765625.4354248046875-.000732421875-.123591444560589.059416382082418-.3062794508769.029771425683066-.4354248046875.000732421875h0Z"/>
              </g>
              <g>
                <path class="cls-18" d="M221.75738113539046,54.356618226383944c.219625872476172.16437920622775.821523130354763.567720366740105,1.661660254363596.561399718233588.423098626843057-.003185938876413.765172455270658-.109201461833436.990235881312401-.201809817750473-.031953106386936.074821538657488-.324548808774125.732415125661646-.957215489557711.863248004938214-.661174834227495.136727318171324-1.444107930759856-.353467141825604-1.694680646118286-1.222837905421329Z"/>
                <path class="cls-13" d="M221.742163452245222,54.334574077387515c.819857868667896.564821042813492,1.849485209146223.731114377987979,2.755746666442064.294398989601177-.534626969318197,1.539155553264209-2.438023607579453,1.183370735834615-2.755746666442064-.294398989601177h0ZM221.772558960057722,54.378763530512515c.428048722613312,1.247819885586068,1.981374796190721,1.709668145314936,2.594493126098314.31952040021315-.000010704223314.00005967791185.059559608276686.06036241228685.059559608276686.06036241228685-.851317697919512.357245953786332-1.958167128948844.219748316620098-2.654052734375-.3798828125h0Z"/>
              </g>
              <polygon class="cls-9" points="224.809546264745222 50.122171733637515 227.020361694432722 50.580179546137515 227.091772827245222 50.595072124262515 227.116675170995222 50.640726421137515 227.591040405370222 51.512552593012515 227.499121460057722 51.572855327387515 226.888647827245222 50.790140483637515 226.984595092870222 50.850443218012515 224.730688842870222 50.717142436762515 224.809546264745222 50.122171733637515 224.809546264745222 50.122171733637515"/>
              <path class="cls-9" d="M223.212134155370222,50.398538921137515l-2.1207275390625-.774658203125.112060546875-.01708984375-.87158203125.474609375-.060302734375-.091796875.7822265625-.61083984375c.046677460699357-.045663060609513.056998967229447-.026753561587611.112307613937446-.01708589781083-.000002926437446-.00000394593917,2.210568362625054.45971285093583,2.210568362625054.45971285093583l-.16455078125.5771484375h0Z"/>
              <path class="cls-18" d="M226.695496259264473,52.312641759761391c-.029487867210264.030719489384865-.531619946876162.535690060845809-1.238706301903221.385003380486523-.654142370161935-.139403404076802-.917684998936238-.719332156968449-.94224403707085-.775974555590437.088618751795366-.062312555550307.537527415299337-.364274989027763,1.14806715074883-.264696943137096.641482708128024.104625727904931.976174537283441.573387156098761,1.032883188225242.65566811824101Z"/>
              <path class="cls-18" d="M220.772614484494625,50.994421971836346c.015511814484853.039656083423324.286582964077752.69817892687206.997591616696809.829115113636362.657770820056612.121132562895582,1.12291373356129-.314084791571076,1.167252994060618-.357044512875291-.058083378256924-.091446481164894-.357542341256703-.542029025091324-.959801464652628-.683303594891186-.632782780096022-.14843369218579-1.121197078793557.156865128461504-1.205043146104799.211232994130114Z"/>
              <g class="cls-35">
                <circle class="cls-4" cx="225.584104512297017" cy="52.091840871612021" r=".550025098302187"/>
              </g>
              <g class="cls-34">
                <circle class="cls-4" cx="221.919662411718946" cy="51.191873292056243" r=".550025098306833"/>
              </g>
              <path class="cls-8" d="M224.507544311620222,51.912210796137515c.677148526534438-.558776687810678,1.773330198804615-.390521844245086,2.228259738456472.373831824061199.000011745918528-.000052527186199-.080676730643972.053170129063801-.080676730643972.053170129063801-.458444629994119-.722317342506358-1.460354786348034-.820892549530981-2.1475830078125-.427001953125h0Z"/>
              <path class="cls-8" d="M222.927344116307722,51.472757671137515c-.4613037109375-.697998046875-1.452880859375-.898193359375-2.1275634765625-.438232421875l-.0543212890625-.080078125c.683556955069434-.535603625969088,1.877922126315752-.255242728077064,2.181884765625.518310546875h0Z"/>
              <g class="cls-32">
                <path class="cls-19" d="M223.679907592870222,51.416849468012515c-.034485344247514.411381005036674-.136610786739766.834734285381273-.393203562818599,1.169669588969555.148575740055094-.39297428489408.237671841690826-.771422482528578.393203562818599-1.169669588969555h0Z"/>
              </g>
              <g class="cls-32">
                <path class="cls-19" d="M224.617529663182722,54.051615093012515c.447783866027748.429631904129565.382883569982368,1.252116704015862-.108292558790708,1.622068638025667.382886778841566-.469179877027273.436369291137453-1.108385073554018.108292558790708-1.622068638025667h0Z"/>
              </g>
              <g class="cls-32">
                <path class="cls-19" d="M223.100806030370222,57.723245952387515c-.298554318313109.246526905713836-.77035183638327.17296461717342-.989862767086379-.142607799916732.257440892086379.258818737416732.670770970211379.324980846791732.989862767086379.142607799916732h0Z"/>
              </g>
              <g class="cls-32">
                <path class="cls-19" d="M221.924292358495222,53.681742046137515c-.522157261842949.314343537707828-.758658513403134.910489094932927-.624490376123504,1.500984389687801-.275508619044558-.549622953167272.032497789648914-1.315245033145402.624490376123504-1.500984389687801h0Z"/>
              </g>
              <g class="cls-31">
                <path class="cls-19" d="M221.383887085057722,53.913675639887515c-.3272705078125.25-.450439453125.671630859375-.3299560546875,1.062744140625-.232988783469409-.35348508597599-.067503409913115-.907463557432493.3299560546875-1.062744140625h0Z"/>
              </g>
              <g class="cls-31">
                <path class="cls-19" d="M225.055273803807722,54.359476421137515c.286850301967206.315835176659675.188837222325674.885512044815187-.177134515237412,1.098630773720288.281870843362412-.296872961220288.359019280862412-.729246008095288.177134515237412-1.098630773720288h0Z"/>
              </g>
              <path class="cls-9" d="M227.525213440650987,53.325286103730832c.153287713739701-.687953364293207.186039896885632-1.247091089304377.186817831310691-1.635181774459852.000374886023565-.186699096202574-.028426819584638-.466557499375995-.025678622509076-.904543574788477.002171485532017-.346904212161462.018466969093424-.631555307078088.032228803403996-.820811862889968-.426979436066176-.239878391563252-.9277201126406-.56519274803577-1.44680299873653-1.002315566231118-.540397669341473-.455075966383447-.958882630902735-.911930358051904-1.27406611931292-1.304856994276633.378823447843388-.534314524658839.757658384129172-1.068626354694061,1.136481831968922-1.602940879354719.309965018792354-.00008696063378,1.11079388710823.039938899950357,1.791257069204221.609056289613363.315006126773369.263461157555867.604780034707801.639614985784647.802647592481662,1.176207010630606.584246872500444,1.584346726605872.112304199461505,3.875868507473569-1.202885387810966,5.485387351756799Z"/>
              <path class="cls-9" d="M227.244771553103419,46.344003720898399c-.155894712401278.241432125043502-1.149770574918875,1.725948076149507-3.070304478822436,2.02079507758026-1.437508201915989.220689640649653-2.541018959835128-.356098108752121-2.883008316717678-.552885104694724-.258052023578784.260319184773834-.516115535601784.520635674922232-.774167559180569.780954859696067l-.506906477492521,1.526040180291602c-.131598515979931.485930559252665-.26318520669156.971862377084108-.394783722675129,1.457792936336773-.126602107449798-.462425642304879-.251221117443492-1.132514288721723-.197625159922609-1.937043192339843.026130902435398-.39221169285338.085806904375204-.684206478888882.121510958168074-.855652854623258.125300065103147-.601649341779193.262544258601338-1.260629854517902.733809877892782-1.889197314725607.274118969668052-.365612919988052.567200043555204-.595499197470417.863711167437941-.828072406788124.064015962825579-.050209797387652.487554972205544-.380058761656983.89433175385966-.583046584435579.961850648691325-.479988058215895,1.988157947020227-.323543607077227,2.542622520251825-.2492931583256,1.315412339843533.176151890014808,2.2382339954911.781452261451705,2.67080943720066,1.109607562028032Z"/>
              <ellipse class="cls-10" cx="225.983716251735132" cy="53.727850432505875" rx="1.151054033484564" ry="1.433738779476239" transform="translate(122.071280783847556 261.471749688716443) rotate(-76.799846778510798)"/>
              <ellipse class="cls-11" cx="220.729898269085879" cy="52.495563726834916" rx="1.151054033485554" ry="1.433738779476889" transform="translate(119.216917975505368 255.405856794471902) rotate(-76.799846778934764)"/>
              <g class="cls-31">
                <path class="cls-19" d="M226.041846069432722,55.045755718012515c.321925755282791-.470114160312733.439500850403419-1.346733153261084,1.090747443309738-1.424129453838759-.614008867012672.194562468701406-.671095565880023.992303269196782-1.090747443309738,1.424129453838759h0Z"/>
              </g>
              <g class="cls-31">
                <path class="cls-19" d="M220.211523803807722,53.678324077387515c-.183737455594382-.573713379377295.11971279323916-1.312980685934235-.3436617617499-1.760759832624899.548937090754407.358944350304228.264442813961068,1.196227835214813.3436617617499,1.760759832624899h0Z"/>
              </g>
              <path class="cls-9" d="M227.070826825569384,46.447680847912125c.040151248304028-.090105178898739.111599902225862-.282899142881433.092074520714959-.533372083327777-.01881233988388-.241317611049453-.112666414130217-.415699075594603-.164859106986114-.498939583159881-.035422545410256.13272993442115-.07193399714015.266588471115028-.109596717702516.401531439250903-.036897421652611.132196891427157-.074180331208481.262936783574332-.111820194128086.392201370756084l.294201498101756.238578856480672Z"/>
              <path class="cls-9" d="M227.003998059324658,46.262812443843359c.060068141960073-.044591022287932.190644077954857-.130451031876873.376218208342834-.16780839538842.178791085978446-.035991439362988.319371820680317-.009000291964185.387525924516012.008764951899138-.091847993815463.05001998768239-.184365259299739.100985456168928-.277510714686287.152928724628509-.091249793322277.050886976589027-.181381541582596.10173619993293-.270385931291457.152525154717296l-.215847486881103-.146410435856524Z"/>
              <path class="cls-9" d="M225.375199835772946,46.677993743835032c-.345379690275877-.02624403563641-.515890912451141.031813193974813-.630359577680792.127611544356114-.124908565292571.104535185271743-.219375700360615.285518491798939-.277244145938312.393142608658309-.040351746063607.075049883183965-.076314468202327.155403502230911-.109235480049392.246028798788757-.055353717798425.152373895451092-.089052590945357.384000464629935.022530305301188.720725430481252.133772539546044-.239452831261588.267527099123981-.478895794534765.401291112430044-.718341003956084-.026244014172335.215741488183994-.040324995581614.576303906096655.092339413231457.987988804843553.077266056352528.239754184058256.182617790725999.429533795057068.274752232182436.567517971652705.021074757652968-.386535191093571.042148896987783-.773073965961885.063233108365239-1.159611403194504-.004690238496551.169490119887996.000690863373165.739538853124031.408469220716142,1.268166478994317.325570828925265.422055782633834.734279184247498.592955207506748.907543044251724.6541523486394-.135274741522153-.27217825731168-.270558936770612-.544354268478855-.405834811877867-.816539096065753.066008552181302.139824738309471.189807355820449.357238297940057.41054755685218.564528039754805.206012533642934.193456116307061.414349627100819.300964243810085.55289902793993.359398161963327-.029224406513094-.214789910278341-.058458163694013-.429576977134275-.087683291574649-.644371068499822.133994990366773.074075067792364.300315132295509.150868586444631.497491338839609.211541375765592.372756171665969.114702623137418.70270502767562.124691618239012.93152984509652.111606348380519-.100596398217021-.311092656482288-.58334756728982-1.72134753627688-1.703272351016494-2.433952730911187-.031605899295755-.020110866567848-.616554028551036-.383935818052123-1.348996547068964-.439592609651299Z"/>
            </g>
          </g>
          <g>
            <g>
              <rect class="cls-2" x="234.368404491925531" y="61.574520241857385" width="57.299001469295916" height="38.922484294289688" rx="6.682155503745684" ry="6.682155503745684" transform="translate(-4.082355298203936 14.683188336915492) rotate(-3.173140393297192)"/>
              <g>
                <rect class="cls-14" x="247.786766539260697" y="62.338900251217247" width="2.876223390923371" height="38.922883494073965" transform="translate(-4.145349617529888 13.919096280152402) rotate(-3.172739505991456)"/>
                <rect class="cls-14" x="234.12840404448599" y="75.265601738978376" width="57.298740557079668" height="2.876223390925134" transform="translate(-3.853591552911155 14.709092184463458) rotate(-3.182990548198253)"/>
                <rect class="cls-14" x="270.774421699687252" y="87.429187687838152" width="17.227603056310443" height="1.438070361707375" transform="translate(-4.428043794195389 15.510663390178095) rotate(-3.15505642946824)"/>
                <rect class="cls-14" x="271.049537454351764" y="92.398611056202895" width="17.228304184150716" height="1.438070361706821" transform="translate(-4.701134857163652 15.533357019683677) rotate(-3.155056429395774)"/>
                <path class="cls-14" d="M245.04229786202086,78.775810646269747c-2.468738501876942-.008123380172037-4.622475477261105-.899381893072132-5.683599806818165-2.507347548003963-.995458111576227-1.508699255868123-1.121778546377755-3.895040849116413.564114145377971-5.536029403554494,1.600620426299429-1.560522913900058,4.125582230008149-1.758690045604453,5.796883715554941-1.282841610100149,1.465018506305569.417518104384726,2.709313369849042,1.476196918822097,3.413580313505008,2.905191734815162.714026931675107,1.449397918091563.83985804196891,3.186764444904838.354761135085937,4.891043414696469l-.211247383524096.740928582275956-.733392527201431.23477312535033c-1.183414372042535.379253530249116-2.375243605196374.558306636068664-3.501099591980164.55428170452069ZM244.00984472422715,72.094858454451241c-.76204226180198-.002724298643443-1.582460050472946.213476557721151-2.080054313868459.698427647665085-.708328025149967.689284523252354-.363212408828986,1.598659543204121-.170407726513076,1.890824930360395.557456743350485.84481539583976,2.580420506064911,1.577577178091815,5.113716417154137,1.012812057753763.086257931621731-.749101291974512-.022153696983878-1.465185627437677-.320594680317299-2.070977689392748-.350740084570134-.711331842307118-.926285901592564-1.211357037800553-1.620205202876605-1.409091673871444l-.000702343098965-.000002510880222c-.275742130625076-.078946857540359-.593757923510566-.120820183319665-.921752150479733-.121992761634829Z"/>
                <path class="cls-14" d="M252.403705421726045,78.367371720451047c-.739567282646021-.002643950676429-1.501348413521555-.078411931564915-2.269869246574672-.233569791316768l-.755186357691855-.152300780735459-.291735731661902-.713227958165589c-.670501044864068-1.640282077521988-.737322780505565-3.380949406389846-.187565814543632-4.90098097308146.541953354764701-1.498286550269768,1.661542681449646-2.688282549179348,3.071114743779617-3.264088499432546h0c1.606519391316397-.656574704851664,4.139495017940135-.738825094813365,5.90381363232882.633557124081563,1.855364597124208,1.445049971698609,1.99433222944208,3.830032074492919,1.172444581607124,5.439694192529714-1.024171396245947,2.00436317240019-3.640499061420996,3.201650673876429-6.643015807243501,3.190916686120545ZM251.514459193345829,75.439598628539898c2.583628296004463.287367884524429,4.510795983953358-.67077424794843,4.970545471445803-1.571653061122561.159144536228268-.311977732073501.401310783046938-1.253668472900245-.37753287961641-1.861177972916266-.784454874827134-.609636616283751-2.165306602089913-.601930819451809-3.048050334398795-.240565898651766l-.000702343098965-.000002510867489c-.668210206251388.272933163972993-1.18433656464731.833672025799387-1.453898512343585,1.580010950303404-.229831505152106.634806980786379-.259109254326177,1.358827302063219-.090361401988048,2.093388493254679Z"/>
                <rect class="cls-14" x="240.692342047659338" y="78.404352271983043" width="8.610809282215627" height="2.877046163297578" transform="translate(17.169630314791931 200.230291709309569) rotate(-45.902960020664551)"/>
                <rect class="cls-14" x="252.03225931140102" y="75.068179228490663" width="2.876467949353412" height="8.610525331805945" transform="translate(30.816838481886776 224.1932756437335) rotate(-50.428815899841105)"/>
              </g>
              <g>
                <path class="cls-14" d="M266.40630582437916,72.86254887287032c-.175442362849935.009626287977881-.327312700095717-.044109172878962-.455611011700967-.161206382559612-.127427603112665-.117575175132515-.196628885629252-.2642803156632-.206451545131131-.439048341550006l-.038275411481663-.689998202216884.286574970758011.239266710263109c-.412360539523434.004276486197341-.767621134122237-.026757174891827-1.065670634645357-.095994702718599-.29824587206349-.068563190847271-.543704530706236-.140042427490698-.735701638977844-.214241338375359-.161370350502693-.063817146605288-.277326782925229-.160495317646564-.348543634256202-.290230884664197-.07121685132006-.129735567030366-.102851634794206-.264769564953895-.094904350435172-.405101993757853.006880204320623-.139180126383508.050174605252323-.267756190187356.12814178579174-.384772260531463.079119482958049-.11594899030024.186149891143941-.199629912478485.322917863948533-.249779314930493.137442309773178-.049953030928009.292721301157144-.040579292366601.46631493959103.028991924213187.130265627307381.052564673806046.320317504918421.110835164472519.56919970195122.173070054999698.249752905532659.061756925071677.555957345774004.082894229441081.919484029243904.06293394765089.247726052895814-.014180043739543.44568824558155-.050898401952509.593886578077218-.110155074627983.149069040999166-.059734638114605.252957504711958-.132626168688148.311469019618016-.218000254746585.059185851880102-.085177714536258.086370345305113-.176016834535403.080879143291895-.272713731546901-.00506509009756-.085599984735381-.031897892762572-.159250833354236-.080583630413457-.223171928293596-.049360074630385-.064117466465177-.128665127915156-.120861637617054-.237633565964643-.168687467963537-.108575694976025-.049174504289113-.251364688760077-.086366503575846-.429519283750778-.112643077900429l-1.038085956070063-.170623808575328c-.575794711945491-.090134049265544-1.007929962934213-.276691085069615-1.296687346875842-.561216152866109-.288757383943448-.284525067811046-.44697523011564-.665636124798766-.473782829994889-1.143811136411387-.019960281788372-.363526683457167.05137059511253-.693885063123162.213992630702705-.991075138983433s.400640178519097-.54682103106461.714250800334412-.74956720256705c.313610621800763-.20274617150244.686977966761333-.33688425811124,1.120298406411166-.403088596822272l-.263561567291617.169040365311957-.034592364234413-.617236546746426c-.010078326657094-.1814261732452.042419609399076-.336582972962788.156230356598826-.463643759765546.114877827232704-.128213089232304.25984155075821-.196458440857896.435283913624517-.206084728821224.187409983614998-.010530365349041.343633863367359.040815268275765.468082524666897.156059911811099.12551574133613.114092341113064.192104898334946.262231377979333.202183224992041.443657551226352l.034592364219861.617236546746426-.282217586529441-.16630868325592c.230482327595382-.000181969935511.479349640401779.026935544410662.746601938386448.08135254303852.267252297997402.054416998631496.507153258189646.137445186213881.71942128667979.247539517282348.142940953917787.064302554164897.247040914719037.158991083155342.311147580001489.282998506960212.064977373782312.123529458360281.093070027618523.253142833724269.085541413069222.387013486706564-.007528614536568.133870652978658-.049618859537077.253287593062851-.126074363479347.357576483282173-.07625913240372.103614553230727-.180821933096013.176309712276634-.315711412993551.217496362543898-.134018771397677.040708684826313-.297671400379841.02743344242117-.489216469959501-.040781658080959-.148695023894106-.052079266235523-.308624035951652-.095725599239813-.480376150753727-.128915988076187-.17194848633153-.032516051862331-.391000454226742-.041441352146649-.657155903722014-.026775900845678-.31517823496506.017214680794496-.557120449404465.089406188952125-.726023014849488.21724886147058-.169098936976297.128517009499774-.248314684840807.282477095417562-.23823635817098.463903268662762.007102985244273.121306475501115.062461754481774.220089279455351.166947016237827.29587044641994.104288890204771.076455503940451.294229618673853.137619714027096.56934421996084.182621921778264l1.038760293033192.170820180099327c.582623304082517.094317147013498,1.017652274505963.280985331961347,1.306153991279643.55885225241218.288783310703366.279411965926556.446097079480751.648555402143757.471548563296892,1.108778982612421.020156653326922.362852346490399-.048562098068942.691776829818991-.204892802599716.984946810587644-.156723447602417.294518654724016-.386316099406031.537824909986739-.688299990006271.730789474300764-.301787519048958.192290227347257-.657203432867391.325072197896588-1.066136592300609.395452192220546l.196138912391689-.228907996279304.038275411479844.689998202220522c.009822659501879.174768025886806-.040063151038339.328490929277905-.151962036457917.4590345500892-.11035383995295.130262026903438-.260345442964535.200700834222516-.447755426592266.211231199569738Z"/>
                <path class="cls-14" d="M271.668830104565131,71.541365692926774c-.29076502798307.016277234530207-.598147697408422-.000814047985841-.923103939157954-.053015264573332-.324281904768213-.052004845036208-.626948057089976-.143069381087116-.907324119987607-.272997236601441-.167806199589904-.069348918292235-.286545202292473-.169031957899278-.357762053610713-.298767524931463-.071216851316422-.129735567028547-.099761543844579-.265332752773247-.086393636940556-.409207311227874.013171535380025-.143200221466032.058966912674805-.270316462183473.138256840406029-.381826687596913.078897184674133-.110161551443525.186857596991103-.186987954726646.323403271513598-.231349918334672.137894348463306-.043969220547297.293429007013401-.027937334623857.46699671868555.046746983833145.199362961477163.086585201461276.408014680448105.148809049478587.62536604233901.188694554934045.218025698872225.040081877006742.421038097414566.053846127362704.608448081042297.043315762013663.199181232865158-.010760105753434.371689065304963-.050501817164331.516849160356287-.119421505763967.144289386546006-.068441723158685.251090054325687-.163893894548892.320402003337222-.286356514197905.06931194902063-.122462619649014.099734651805193-.262102226843126.091464479903152-.419593158554562-.013728005045778-.241742242513283-.104915698038894-.428499974195802-.272607148070165-.558531778056931-.168365787019866-.13022817539786-.391512029878868-.187894667236833-.670309437100514-.172521510075967-.120435767013987.006625019803323-.251679410237557.032779885095806-.391118804178404.077030699561874-.140788067899848.043858071407158-.28338789094596.121570067429275-.429344514624972.233417581974209-.063613574275223.045117681249394-.152707435554476.092325111174432-.265258572904713.142211404352565-.111962022780062.047863282256003-.228933440401306.075248230245052-.350239915916973.082351215500239-.21182319059335.011467811600596-.373212025740941-.029677545026061-.485037213928081-.122958104457211-.111628816663142-.093954896379728-.172934427020664-.237629241581089-.183046122559972-.431501001043216l-.152957127920672-2.750440942070782c-.012371888971757-.223790811369327.040426125631711-.400074355582547.158197672290044-.528176295663798.116900838158472-.127623974636663.287344848688008-.197959074928804.511809997020464-.210134592376562l2.85003155850427-.158337180806484c.229774621750039-.012823927661884.407432766656711.03525372812328.531625760799216.143840224298401.124389365666502.107912159208354.192445787874021.271108907794769.205039975142427.489112280307381.012371888984489.223790811356594-.037224885518299.396617448312099-.148790323521098.518479910855604-.112239774965929.121666091004954-.282376264818595.188433134899242-.512825223535401.201060691040766l-1.988355421353845.110802297644113.079603944646806,1.424776796528022-.381478114615675.02131639786603c.141658535076203-.177473057228781.327215711229655-.317290792632775.555408076903404-.417626566824765.227518028708801-.100532145726902.477782027241119-.158595946306377.749921287102552-.173713436297476.417858942355451-.023157921486927.784316555835176.044786386295527,1.09956921198318.203158586389691.315252656157099.158372200094163.567829184285074.386275288419711.757447990483342.68216421948091.189618806201906.295888931061199.295879336466896.649433794089418.318585219278248,1.061308926053243.024036072110903.434939664999547-.057720980477825.823709694263016-.245749123205314,1.165439379297823-.18648309724631.341448091130587-.463008785860438.61278386288177-.828228391897937.814400058323372-.365612349101866.202964869398784-.807958436967965.317747397004496-1.328498086706531.346848559200225Z"/>
                <path class="cls-14" d="M277.161312424355856,71.236663035148013c-.786695099217468.043766613507614-1.407088957301312-.21224304761563-1.859243785720537-.76965925120021-.453307130826943-.55848328362481-.708911819179775-1.368827947420868-.768051589833703-2.434320453859982-.039179488851005-.701965822983766.021950628402919-1.30376319878269.182323271747009-1.804239824983597.160176271803721-.499802289219588.414711708228424-.88653850636365.764365868639288-1.157792897451145.348979823405898-.271450762620589.786872262146062-.42118022163595,1.313199350726791-.450059085544126.79267890959818-.044218652197742,1.413124621205498.201564805163798,1.862489437213299.738417452101203.448212513589169.535785566897175.702127638438469,1.336859957817069.761267409092397,2.402352464267096.038957190578003.707753261827747-.021046551019026,1.315730819533201-.181163527195167,1.822865593094321-.160398570105826.50558972807994-.414593116978722.901203475026705-.762472491502194,1.183947521432856-.348946454538236.283896348828421-.786386854586453.439609618224495-1.312713943167182.468488482143584ZM277.086747643043054,69.902599325234405c.290568656448158-.015602897552526.496930172183056-.186669874176005.618017467175378-.512048627462718.121761631944537-.325182381751802.163150889255121-.839093652606607.123971400404116-1.541059475588554-.038531078647793-.696656349564364-.135495650612938-1.190140898337631-.291175309814207-1.481998691797344-.156353996166217-.292054164983711-.379674525540395-.429507275965079-.669765216547603-.41303366989996-.290568656460891.015602897554345-.49640035324046.177314378932351-.619518101262656.484545329538378-.123117748020377.307230950604207-.164540374211356.808696635245724-.126009295563563,1.505352984821002.039179488863738.701965822983766.136177429700183,1.207895957961227.293887541940421,1.517901554087075.15703577527529.309809224603669.379826485670492.45661783083051.670591513668114.440340596302121Z"/>
                <path class="cls-14" d="M282.607469306560233,70.935295092960587c-.78649872769347.043092276528114-1.406021877275634-.213395350032442-1.859047414183806-.77033358817971-.452632793861994-.558286912098993-.708911819179775-1.368827947406317-.768051589833703-2.434320453858163-.038505151886056-.701769451445216.0219506284011-1.303763198769957.182323271732457-1.804239824969045.160372643342271-.50047662621364.415386045218838-.886342134843289.76504020561697-1.157596525928966.348979823418631-.271450762622408.786872262147881-.421180221637769,1.313395722265341-.450733422521807.792482538074182-.043544315220061,1.412928249666948.202239142128747,1.861618728698886.738895417542153.448886850579584.535981938433906.702801975416151,1.3370563293538.761941746070079,2.402548835792913.038957190576184.70775326184048-.021720887983975,1.315534448020117-.18183786417103,1.822669221566684-.159724233128145.505786099616671-.414593116978722.901203475041257-.762472491493099,1.183947521447408-.348272117573288.2840927203506-.786386854584634.439609618224495-1.312910314702094.469162819108533ZM282.533578862214199,69.60142775458371c.290090691018122-.016473606054205.49645220675302-.187540582692236.61821383871029-.5127229644404.121087294979588-.325378753288533.162476552290173-.839290024141519.123971400404116-1.541059475588554-.038531078649612-.696656349566183-.136169987579706-1.190337269874362-.291175309814207-1.481998691797344-.156353996166217-.292054164983711-.379674525527662-.429507275952346-.669568845012691-.413708006877641-.291439364960752.016080862995295-.49727106174214.177792344373302-.619714472795749.48521966651424-.123117748022196.307230950607845-.164540374200442.808696635245724-.126009295552649,1.50535298482464.039179488861919.701965822971033.136177429698364,1.207895957957589.29321320496274,1.517705182561258.157035775262557.309809224603669.380500822649992.456814202356327.671069479098151.441211304803801Z"/>
              </g>
            </g>
            <g>
              <rect class="cls-17" x="211.782509581658218" y="71.652779645538686" width="57.299001469300293" height="38.92248429429533" rx="3.015185993744101" ry="3.015185993744101" transform="translate(-16.591175924430445 84.157134080639153) rotate(-19.204229358721154)"/>
              <rect class="cls-14" x="217.654502551818354" y="97.360325868477616" width="8.634025461235325" height="2.511362835700069" transform="translate(-20.086139626492809 78.502275910283188) rotate(-19.204229358722642)"/>
              <rect class="cls-14" x="228.08218483149966" y="93.7281596020526" width="8.634025461234728" height="2.511362835698364" transform="translate(-18.311109385385095 81.730197268120065) rotate(-19.204229358726607)"/>
              <rect class="cls-14" x="220.599494996782937" y="106.622949846852009" width="25.255778514753985" height="1.726992823312571" transform="translate(-22.377471673562098 82.697204206980956) rotate(-19.203969873834929)"/>
              <rect class="cls-14" x="231.413335191541194" y="99.342945844258608" width="3.363258081741947" height="1.956529174315989" transform="translate(-20.028046271361035 82.256073663575691) rotate(-19.204229358737301)"/>
              <rect class="cls-14" x="227.282581615857254" y="100.745659812586496" width="3.363258081740668" height=".730997046219059" transform="translate(-20.517756540059764 80.941276202534368) rotate(-19.204229041801696)"/>
              <rect class="cls-14" x="227.697401760180071" y="101.972141341085816" width="3.363258081741265" height=".659870212889274" transform="translate(-20.886408925532749 81.143997726494504) rotate(-19.204229041801696)"/>
              <rect class="cls-14" x="235.228866935939095" y="98.013921299898172" width="3.363258081740213" height="1.956529174315989" transform="translate(-19.378555420897214 83.437183336782653) rotate(-19.204229358747472)"/>
              <rect class="cls-14" x="238.509867111179489" y="90.095993335625849" width="8.634025461237059" height="2.511362835700069" transform="translate(-16.536079144278119 84.95811862602541) rotate(-19.204229358745444)"/>
              <rect class="cls-14" x="248.937549390861648" y="86.463827069199965" width="8.634025461234728" height="2.511362835700069" transform="translate(-14.761048903166966 88.186039983706948) rotate(-19.204229358715217)"/>
              <rect class="cls-6" x="246.450918890854012" y="70.427982650853593" width="11.50444824532164" height="3.91474551470597" transform="translate(-9.775597738581268 86.986876473281839) rotate(-19.204229358721985)"/>
              <rect class="cls-14" x="214.877278041311286" y="88.755103101914685" width="8.417583670836279" height="6.60607449911474" rx="2.212890805400753" ry="2.212890805400753" transform="translate(-18.089587773411466 77.188216436883053) rotate(-19.204229358797093)"/>
              <path class="cls-27" d="M223.947896819328889,89.484596329346459c.059698865588871.033763290142815.367535789224348.215421323146074.47189130100378.602977245311195.085526069320622.317576539358924-.018180681052399.578015130718995-.052412919570997.655353125112015"/>
              <path class="cls-27" d="M224.730749633225059,88.410398741063545c.124843992100068.070606767591016.76860145862338.450495293365748.986832719141603,1.260963432270728.178854586565649.664125232236984-.038019965357307,1.208761937203235-.109607411342949,1.370493384973088"/>
              <path class="cls-27" d="M225.534775090512994,87.414104466713979c.186403375886584.105422292397634,1.147591519536945.672630233075324,1.473430536705564,1.882732494310403.267046080218279.991599060705994-.056767248264805,1.804790939071609-.163653782234178,2.046270623784949"/>
              <path class="cls-27" d="M226.541779102484725,86.534807874915714c.232102213096368.131267726565056,1.428936199008604.83753293069276,1.834658234027302,2.34430506706849.332515363119455,1.234700473669363-.070684363365217,2.247255282551123-.203775306421448,2.547936367185685"/>
            </g>
          </g>
          <circle class="cls-22" cx="247.074215359916707" cy="75.61207406268295" r="71.61207406268295"/>
          <line class="cls-22" x1="299.015954452677761" y1="23.670334969923715" x2="195.132476267157472" y2="127.553813155442185"/>
        </g>
      </g>
    </g>
  </g>
</svg>