<?xml version="1.0" encoding="UTF-8"?>
<svg id="Layer_2" data-name="Layer 2" xmlns="http://www.w3.org/2000/svg" width="38.879575214425131" height="78.758613618386335" viewBox="0 0 38.879575214425131 78.758613618386335">
  <defs>
    <style>
      .cls-1 {
        fill: #f8b787;
      }

      .cls-1, .cls-2, .cls-3, .cls-4 {
        stroke-width: 0px;
      }

      .cls-2 {
        fill: #f8bf87;
      }

      .cls-3 {
        fill: #151c22;
      }

      .cls-4 {
        fill: #ffc58f;
      }
    </style>
  </defs>
  <g id="Layer_1-2" data-name="Layer 1">
    <g>
      <path class="cls-2" d="M12.583647995676074,61.425574818090354c-.769434777559582,6.649865880652214,2.793754264959716,13.401523999636993,9.082450288538894,17.333038800295981,2.02818523176029-.424632310465313,4.879060169800141-1.269341294571859,7.917933760640153-3.059659792143066,2.145982445510526-1.264187780307111,3.797323819870144-2.653270456492464,5.004387278580907-3.835344193830679-.796964647539426-3.705012872851512-2.105363679440416-6.53601040394642-3.09852858728118-8.432168090601408-1.761175115139849-3.36248882662403-4.398521840488684-6.957502930927149-8.355818203368472-9.828268966328324-1.658158387150252-1.203037963137831-3.3209966696013-2.113854099570744-4.893595595840452-2.809008264577642-1.265394436270071,1.151251311513988-4.986681388330908,4.840881582536895-5.65682894126985,10.631410507185137Z"/>
      <path class="cls-3" d="M5.961852879965591,49.414091930245377c-.098137850820422.408430405537729-.084045334730035.830646717546188.05047841007945,1.228578616261075,1.177590154809877,3.483405007011243,2.921957361149907,7.654528816810853,5.54706847935995,12.086691336846343,1.380763067320004,2.33133509750769,2.809300130671545,4.404063548528939,4.203341887021452,6.22778601137361,1.089208778559623,1.424931862426092,3.334134947559505,1.020390400373799,3.886861095519635-.685862916454425l15.453531516639487-47.704707846050951c.224953924909642-.694427759452083.096073368500583-1.454984569481894-.345096414099316-2.036537150383992C30.295891342386312,12.648012420477244,25.833767761954732,6.766144176491252,21.371627579106644.884160587454062c-1.138035802361628-1.500156346260155-3.507955423901876-1.003509616622068-3.947874950761616.827355031722618-3.820640598489263,15.900807713127506-7.641254282849332,31.80180241162725-11.461899748379437,47.702576311068697Z"/>
      <path class="cls-1" d="M28.752968293536469,28.492404741299652c1.6591242425784,10.173074912653647,5.849669931489188,18.00328742959573,9.322821953279345,23.145324926108515-.308663894380516-9.172086253644011-.617289917339804-18.343909396283379-.925953811720319-27.5159956499283-1.663459260460513-2.492648900136373-3.592682150780092-5.127249740850857-5.826681027479935-7.82406405664824-3.664341624520603-4.423507924232581-7.358075737889521-8.060463759355116-10.746654583870622-11.010316686477381-.084815347068798-.022973564966378-.208842189998904-.047822881762841-.357876593589026-.044902094220561-1.037318838560168.02147305424387-1.741705731110414,1.365228740442944-1.852306485099689,1.576392939725338-.693750786320379,1.323425408834737-.000149464471178,3.464741269886872,1.670345358099439,5.376551900581035,2.666262090750024,2.75007732868653,5.332599924349779,5.500680879384163,7.998862015099803,8.250758208072511.041135301420582,2.477204357257506.249361475689511,5.17582391331598.717443175281005,8.046250512787083Z"/>
      <path class="cls-2" d="M37.347290352745404,47.104520189367577c-.869813512719702-7.518884887878812-1.739758580939451-15.03775084004883-2.609572093650058-22.556635727927642-2.601648776138973-1.728367645901017-5.516140354970048-3.486365886461499-8.748490001078608-5.181961722521919-5.302091271980316-2.781046742621584-10.316215382810697-4.79382787418217-14.760743457100034-6.268485073657757-.090793227600443.011994261273685-.220142203150317.037863548667701-.362158459711281.100737763339566-.988985120280631.437501361458999-1.126111380010116,2.013019203453041-1.147691029369525,2.260516832966459-.135065169339214,1.551587709202067,1.392700253460134,3.331936236044385,3.767576609119715,4.498885452994728,3.66965223599982,1.57303100156696,7.339342343429962,3.146325114137653,11.008994579420687,4.719356115701885,4.284040574599203,7.475949823370684,8.568043277778997,14.951636535735815,12.852083852369105,22.42758635910468Z"/>
      <path class="cls-4" d="M18.271580521106443,46.678166863203842c1.191717171308483,1.869551912363022,1.892698073519568,3.633626075634311,2.315989100119623,4.997881210016203-.006304419710432,1.399944227412561-.056731926881184,3.584934595828599-.296429415000603,6.280861711369653-.134401217339473,1.51161833471815-.243077682180228,2.226039328723346-.453195123929618,4.178971970735802-.322261972010892,2.995412913320251-.582519225539727,5.414837302741944-.613682787319703,6.945387881005445-.044389905169737,2.180668140004855.316884134510474,5.479745310300132,2.441835989238825,9.67734398205539,1.67497310050021-.346659760132752,3.802535549661116-.958255822706633,6.109042931760996-2.082262355783314,3.115983160789256-1.518502189956052,5.359743765340681-3.387753317458191,6.813278107460064-4.81274163019043,1.526456305389729-2.386099397184807,4.192123118460586-7.324056886545804,4.288470645849884-13.938951402369639.041885292910592-2.875386206847907-.412312465890864-5.337748154750443-.937285723919558-7.233218719702563-1.446360811100021-6.960152026465948-2.89266120964021-13.920312748537981-4.339022020751145-20.880464775003929-1.102063059550346-1.10573452089011-2.470968036759587-2.319574680536789-4.134744828799739-3.505524604994207-2.273175340360467-1.620160464452056-4.446039596150513-2.72420085473459-6.246822015918951-3.481227131719606-3.000369930719899-.128786264483097-6.182605584721387-.1724443618441-9.528354444450088-.096864051478406-2.797356794309962.063243680328924-5.47423652759062.204355732627846-8.020389159550177.402868230587046-.0690883269599.081228155805547-.159657986510865.205999969718505-.225323134411155.37355856071099-.467145402679307,1.191994073327805,1.024506066731192,2.752231749900602,1.376170248700873,3.120190659082255,1.466263620010068,1.53379981173839,3.421708518009837,1.89931935119148,4.387323925919191,2.003535017733157,3.374453602249559.083574747258353,6.749062812030388.167373753523862,10.123516414279948.250948500782215,1.565655227290335,1.458322815629799,3.131466062121035,2.916869890267662,4.697121289411371,4.375192705897462.322677632830164,2.552823009630629.64526922297955,5.10590506069002.967946855818809,7.658728070321558-2.030812811139185-.932834602841467-4.061625622280189-1.865669205682934-6.09243843341028-2.798503808524401-1.692525433869378-.562703619102649-3.750526616950083-1.102647195938516-6.122019897909922-1.436894133725218-3.076547607579414-.433542046801449-5.777081362819445-.393361087279118-7.908218161399418-.206733346443798-1.185948476899284.433391312734784-2.397898211640495.896917436550211-3.633015313020223,1.393130349860257-1.052876115680192.423116910197677-2.076882374489287.851451332751822-3.071813735368778,1.28300050107373-.074357174220495.143157399120355-.158224898921617.353047743677962-.168501110481884.609816553134806-.047900765119266,1.212059318649153,1.603653175361615,2.128446197180892,2.102909049541267,2.4053573476167,2.170518921258918,1.20427393328373,4.650550097168889.578943065164822,5.569024476879349.296526640030606,2.624988088029568.268654151752344,5.249890133371082.53756734493254,7.874878221409745.806221496685794.844168016001277.855006807802965,1.811470797600123,1.982851549771112,2.723748049251299,3.413864571236445Z"/>
    </g>
  </g>
</svg>