<?xml version="1.0" encoding="UTF-8"?>
<svg xmlns="http://www.w3.org/2000/svg" width="286.82723967234142" height="240.63825227088455" xmlns:xlink="http://www.w3.org/1999/xlink" viewBox="0 0 286.82723967234142 240.63825227088455">
  <defs>
    <style>
      .cls-1 {
        fill: #3657a6;
      }

      .cls-1, .cls-2, .cls-3, .cls-4, .cls-5, .cls-6, .cls-7, .cls-8, .cls-9, .cls-10, .cls-11, .cls-12, .cls-13, .cls-14, .cls-15, .cls-16, .cls-17, .cls-18, .cls-19, .cls-20, .cls-21, .cls-22, .cls-23, .cls-24 {
        stroke-width: 0px;
      }

      .cls-2 {
        fill: #271e1e;
      }

      .cls-3, .cls-24 {
        fill: #151c22;
      }

      .cls-25 {
        clip-path: url(#clippath);
      }

      .cls-4, .cls-26, .cls-27, .cls-28, .cls-29, .cls-30 {
        fill: none;
      }

      .cls-26 {
        stroke: #151c22;
        stroke-width: 6.81410537707063px;
      }

      .cls-26, .cls-31, .cls-28, .cls-29, .cls-13, .cls-15, .cls-16, .cls-30, .cls-19, .cls-32, .cls-24 {
        mix-blend-mode: multiply;
      }

      .cls-26, .cls-27, .cls-28, .cls-29, .cls-30 {
        stroke-miterlimit: 10;
      }

      .cls-5 {
        fill: #79c4e0;
      }

      .cls-6 {
        fill: #e2bc86;
      }

      .cls-33 {
        clip-path: url(#clippath-1);
      }

      .cls-34 {
        clip-path: url(#clippath-2);
      }

      .cls-7 {
        fill: #000;
      }

      .cls-27 {
        stroke: #27201d;
        stroke-width: 1.85461063707757px;
      }

      .cls-28 {
        stroke-width: .276469632559509px;
      }

      .cls-28, .cls-29, .cls-15, .cls-32 {
        opacity: .6;
      }

      .cls-28, .cls-29, .cls-30 {
        stroke: #f1b068;
      }

      .cls-8 {
        fill: #505050;
      }

      .cls-29 {
        stroke-width: .292654423188996px;
      }

      .cls-9 {
        fill: #5e5a5b;
      }

      .cls-10 {
        fill: #910000;
      }

      .cls-11 {
        fill: #e08362;
      }

      .cls-12 {
        fill: #dc5b42;
      }

      .cls-13 {
        fill: url(#radial-gradient-2);
      }

      .cls-13, .cls-19 {
        opacity: .4;
      }

      .cls-14, .cls-21 {
        fill: #e9e9de;
      }

      .cls-15, .cls-16, .cls-22 {
        fill: #f1b068;
      }

      .cls-30 {
        stroke-width: .618203545692524px;
      }

      .cls-17 {
        fill: #0b2645;
      }

      .cls-35 {
        isolation: isolate;
      }

      .cls-18 {
        fill: #4d3329;
      }

      .cls-19 {
        fill: url(#radial-gradient);
      }

      .cls-20 {
        fill: #fff;
      }

      .cls-21 {
        mix-blend-mode: screen;
      }

      .cls-23 {
        fill: #c74530;
      }
    </style>
    <radialGradient id="radial-gradient" cx="-292.417565286756144" cy="-137.022877865425471" fx="-292.417565286756144" fy="-137.022877865425471" r="17.129250662057235" gradientTransform="translate(471.801313290634425 191.689295226189103) scale(.853091239733539 .645477583935139)" gradientUnits="userSpaceOnUse">
      <stop offset=".537641841231661" stop-color="#e984a2"/>
      <stop offset=".592832570610897" stop-color="rgba(233, 132, 162, .886871293855677)" stop-opacity=".886871293855677"/>
      <stop offset=".711273432585101" stop-color="rgba(233, 132, 162, .596518194573597)" stop-opacity=".596518194573597"/>
      <stop offset=".8824215114979" stop-color="rgba(233, 132, 162, .136328760171738)" stop-opacity=".136328760171738"/>
      <stop offset=".931113028771807" stop-color="#e984a2" stop-opacity="0"/>
    </radialGradient>
    <radialGradient id="radial-gradient-2" cx="362.382328628525102" cy="335.005105230060508" fx="362.382328628525102" fy="335.005105230060508" r="17.12925066205845" gradientTransform="translate(382.756356269726325 -205.901090909473368) rotate(89.999999999985889) scale(.853091239733539 .645477583935139)" xlink:href="#radial-gradient"/>
    <clipPath id="clippath">
      <path class="cls-4" d="M227.80416582590442,86.327466453480156c-.187648201743286.375346363560311-3.436045037931763,6.596249908399841-10.531027598159199,7.246414460720189-6.563735540012203.60148661735002-10.740175000026284-4.085217476349499-11.136974343986367-4.546429938071014.651704546517067-.845620137359219,3.993031148698719-5.000382978489142,10.029942758037578-5.849118017149522,6.34287311602202-.891741287719924,10.863714212226114,2.540680848749616,11.638059184107988,3.149133494500347Z"/>
    </clipPath>
    <clipPath id="clippath-1">
      <path class="cls-4" d="M162.213792639389794,86.032592135989034c.165389058747678.406101700660656,3.050656282062846,7.14783591133164,10.390303094052797,8.39434317523046,6.79007987760906,1.1531774813011,11.517197420278535-3.394570821519665,11.967594278288743-3.843247806169529-.611134952090651-.933274924609577-3.75896067798385-5.529885943940826-9.980343224960961-6.898394902549626-6.536694106785944-1.437857898659786-11.522005755488863,1.775508399099635-12.377554147380579,2.347299533488695Z"/>
    </clipPath>
    <clipPath id="clippath-2">
      <path class="cls-4" d="M45.740775249147191,141.618598672330336c11.754296111184885-2.44153960129006,21.5742526137401-1.072197649729787,28.812057286659183,0,4.42250161357515.655144760508847,7.281094104066142,1.359186188270542,11.118639436977901,2.304338768330126,14.410596776233433,3.54918439389985,19.26803169622508,3.395593178500349,22.822862537674155,7.630271988449749,2.082127530726211,2.480319716700251,2.424992373076748,5.436783964560163,3.110722057770545,11.349712460309092.980207608536148,8.452418277280231.15190512342997,15.975721453989536-1.196890032913871,22.057808107310848-29.752386859438047-5.281702714390121-71.925742754307066-10.563444640220041-101.678129613743295-15.845147354610162.236954739515568-6.283045289759684,1.17842144408587-10.48635494670998,2.437226342748545-13.306637859101102,1.207124219085017-2.704491526348647,3.286075623072975-4.096105576549235,4.341020238642159-5.00808527729896,1.504817481108148-1.300878775129604,11.19988554325937-4.190056189800089,20.233887917265747-6.307944554959249,4.395837833517362-1.03051588766175,6.624027982927146-2.173372554530943,9.998603828918931-2.874316278430342Z"/>
    </clipPath>
  </defs>
  <g class="cls-35">
    <g id="Layer_2" data-name="Layer 2">
      <g id="Layer_1-2" data-name="Layer 1">
        <g>
          <g>
            <g>
              <path class="cls-9" d="M227.013085715430861,18.523277008069272c0,3.559342460930566-1.274552714924539,7.210495873820037-3.090344331007145,10.058607544320694-1.820436766380226,2.855397697510853-4.971120628751123,4.807152074159603-8.070846532132236,6.43595188728068-2.927324161105389,1.53820860138876-6.251706022927465,2.876373509188852-9.846125576016675,2.876373509188852-3.594498008807932,0-6.86566826138187-1.439594999030305-9.793036732737164-2.977866040429944-3.099712926495158-1.628834455979813-6.071598512351557-3.627181556659707-7.892003946561999-6.482608836000509-1.815713735831196-2.848068037648773-2.679641181490297-6.35119812270932-2.679641181490297-9.910458092448607,0-3.559342460930566,1.138818736119902-6.887325249010246,2.954610352200689-9.735436919510903,1.820436766376588-2.855397697509034,4.759991691190407-4.567447400379024,7.859717594570611-6.196247213500101,2.92732416110357-1.538208601399674,5.955934329191223-2.591592846969434,9.550353882280433-2.591592846969434,3.594498008809751,0,6.925210542560308.478628472070341,9.85257901391924,2.016899513479075,3.099712926496068,1.628834455979813,5.079927476008379,4.334747079970839,6.90033291022155,7.190174359311641,1.815713735831196,2.848068037648773,4.254404546752994,5.756943165539269,4.254404546752994,9.316203135278556Z"/>
              <path class="cls-5" d="M169.854107207796915,149.104588363990842c23.453550167170761-8.445511803500267,47.271441980479722-2.158807264171628,55.450262943570124,0,3.579422734090258.944737586609335,6.02205123505064,1.779599150679132,7.99031113871024,2.575973921149853,3.325258967680384,1.345377561639907,4.485296205590203,2.155034049119422,7.906092978579181,3.569536910639727,3.219608946021253,1.331341201608666,5.707516027679958,2.060024493908713,8.123581094610927,2.759729494558997,24.678939489909681,7.147374894400855,27.672004603749883,7.933712912810734,30.442450029069732,10.214395023409452,4.426584979270046,3.644095640211162,8.721711145859445,11.462951886620431,6.417031387480165,30.290842247981345-58.941845231071056,10.847163188900595-117.883690462140294,21.694326377790276-176.82553569321135,32.541489566699966-.082407016898287-48.354430166880775,7.72588422734043-61.683085971841138,15.356985292370155-64.280265361630882,3.312279107880386-1.127285731188749,17.752071283581245-6.256896140350364,27.862174642751597-9.679051270768468,2.454853717738843-.830937420410919,3.688393185008863-3.099620707120266,17.276646186069229-7.992650532039988Z"/>
              <path class="cls-1" d="M169.442826766306098,150.075436598810484c3.226702590331115-.996657025831155,6.090874677731335-1.700286170140316,8.452303590611336-2.205142345110289,8.316769705659681-1.778089864659705,23.523430110059053-4.937402834020759,40.309407409789856-.03539275725052,2.943409603660257.859538390559464,5.328836164309905,1.789107652639359,6.976221859309589,2.487378831550814-.068672514089485.43874944712843-.137194099559565.877574358559286-.20586661364905,1.316323805678621-3.698052615571214,11.772581914410694-14.294297003001702,19.997511565521563-26.32632518490027,20.540024426780292-12.94333508309137.583565441111205-24.94004597203093-7.840665429448563-28.958972796261151-20.540024426780292-.082256088298891-.521080999718833-.164512176599601-1.042086535149792-.246768264900311-1.563167534868626Z"/>
              <path class="cls-22" d="M156.361779383327303,111.170113877649783c-8.210815876080233,1.660833800819091-16.33396860936864-3.728995309700622-17.994802410190459-11.93981118576994-1.660833800838191-8.210815876080233,3.72898357566919-16.334026619939323,11.939799451740328-17.994860420769328,2.018334319480346,9.97822386884036,4.036668638960691,19.956447737689814,6.055002958450132,29.934671606539268Z"/>
              <path class="cls-22" d="M234.062935467925854,109.318561344580303c8.3086101250301,1.069039164620335,16.025250363051782-4.888203739599703,17.094289527671208-13.196813864640717,1.069039164609421-8.308610125019186-4.888209139429819-16.025325633909233-13.196819264459918-17.094364798520473-1.299208734918466,10.097038063981017-2.598261528290095,20.194140599180173-3.897470263211289,30.29117866316119Z"/>
              <path class="cls-30" d="M248.551899037986004,91.36667588597993c-.258481563778332-.84898876079933-.800217923349919-2.155445274929662-1.854395723008565-2.501367162969473-2.267196842680278-.743998099071177-5.62343227771089,3.375075642989032-6.494931121979789,7.576326431189955-.33796957442155,1.629451079939827-.602054114041493,4.716494965539823.656807063568522,5.739169920560016,1.243645944450691,1.010323358468668,3.47706618292068-.397539968391357,4.319720891910038-2.816707637170111.620812859860962-1.782315706939698.581969169461445-4.387354812230114-.387879075798992-4.784026045899736-.5941261622811-.242983093661678-1.502471036870702.357048806459716-2.071845580670924,1.494252526288619-.660620463049781,1.319268679790184-.510582705407614,2.653637425029956-.494149235450095,2.785280933450849"/>
              <path class="cls-30" d="M141.175565791176268,93.888412518630503c.271549342080107-.844899751200501.833377764220131-2.142842635421403,1.892767114070011-2.47245906606986,2.278405695099536-.708930309290736,5.570690908560209,3.46143452619981,6.377267416020914,7.675631099518796.312789513300231,1.634471466721152.529214451040389,4.72522232079973-.7452751360197,5.728353329481251-1.259085599431273.991015629089816-3.470518916890796-.451138243141031-4.275749425751201-2.883018790340429-.593240675660127-1.791681720320412-.514210005288987-4.395811464690269.461642809030309-4.777472271211082.597804288490806-.233787752418721,1.496783511051035.38018704327078,2.04854504334071,1.526039949631013.640187618710115,1.329303975209768.469580535330351,2.661199053700329.451117971750136,2.792573351000101"/>
              <path class="cls-22" d="M178.026340983036789,132.332571959979759c3.25251138134081,3.970780600069702,3.75555641307983,9.430547326939632,1.316248341379833,13.601987503869168-3.070793344069898,5.251485255590524-9.177968310859796,5.678839593230805-9.652940622549067,5.704044669830182,4.097409697458716,12.852400600149849,16.282781339379653,21.298968903860441,29.287997149440343,20.567493432421543,11.881099579519287-.668236387051365,22.312831790368364-8.876563891901242,25.997300831708344-20.567493432421543-.619712841378714-.14994756645865-7.437459668179145-1.926301752198924-10.091690069670221-8.775441728299484-2.424818925868749-6.256971604660066.583339048211201-11.694099041169466.987223988180631-12.395388792130689-12.614763515699451.621599448910274-25.229376102790411,1.243198897820548-37.844139618489862,1.864798346730822Z"/>
              <path class="cls-16" d="M215.870480601526651,130.467773613248937c-12.614763515699451.621599448910274-25.229376102790411,1.243198897820548-37.844139618489862,1.864798346730822,2.841230939840898,3.468792068539187,3.582894091949129,8.073321870020663,2.099265930530237,11.963204739209687.086180231959588.862028712510437.314686135969168,2.091794964710061.972131127949979,3.393856017470171,2.00870876909903,3.978704351689885,6.344887515539085,5.311328446419793,8.336692281169235,5.923419393380755,6.508041334720474,2.000030374469134,16.487742381431417-2.214499918451111,25.330800123600056-11.12396624567009-2.025461843968515-6.113891289589446.676160138671548-11.243199841550449,1.105250155240356-12.021312251121344Z"/>
              <path class="cls-22" d="M242.909889762027888,63.938823004729784c-3.686280184570933-20.314989880629582-20.696990173251834-46.926494659739546-47.222993899111316-47.222993899120411-26.482989074180296-.295970989269335-44.634417439659956,25.836939191680358-48.045705710699622,44.75485846436095-1.782466794129505,9.884993348709031.050862939000581,20.066787794008633,1.730094569109497,29.392817063810071,2.547674808211013,14.148952758909218,6.585316779130153,21.180414486680093,8.448983161350043,24.53970785419915,1.936112111350667,3.489846608579683,4.476542346650604,6.594674352490983,7.193559046731025,9.501559234360684,5.324459234840106,5.696875561219713,10.880895731528653,10.911534237819069,17.663476193978568,14.889785803708946,2.983405683291494,1.768883219911004,6.347000515981563,3.286847638370091,9.76055271605037,3.966856456410824,10.029054699691187,1.997841909729686,19.229209515089678-4.005569642920818,26.061747344931064-10.734268594320383,6.645990077298848-6.545094306600731,13.715485812868792-13.95659425517988,17.445686220738935-22.609934744150451,1.925547109200124-4.466807451799468,3.92655851956988-12.204313181518955,4.954080444589636-18.817023501989752,1.98667319316155-6.25372663969938,4.098466197690868-16.154416563060295,2.010519912331802-27.661364137269629Z"/>
              <path class="cls-9" d="M244.368625233426428,81.463247587409569c-4.753208080779586-2.442082805109749-14.165140378659999-8.251761168668963-22.817883210349464-21.113035637559733-9.248039713580511-13.745901832380696-12.707506853359519-28.231657011419884-14.011653504379865-35.052058139499422.938168231150485-.455098777511012,15.733074665959066-7.241820837039995,27.933752054150318,5.995786535258958,10.383408399669861,11.265977491120793,14.355957807729283,32.118408077250933,8.895784660579011,50.169307241800198Z"/>
              <path class="cls-9" d="M215.357830186836509,37.67778908848959c-3.407134820059582,4.683196693129503-6.932990301169411,9.879166651440755-7.443906264759789,15.765050616120789-.107655426820202,1.466618846439815.129604336119883,2.846709986619317.613330506750572,4.294379408520399,1.041076929299379,2.965977898638812.068683852048707,6.463779420409992-2.483102577840327,8.331165972438612-1.183255031221051.959055486440775-2.539197595020596,1.65630789729039-3.930910237590069,2.218479209021098,2.621668424520976-1.216752625779918,5.373410363139556-3.125549998600036,6.081669144410625-6.066238048850209.35453017556938-1.414689056820862.123005699519126-2.891412234681411-.356947256050262-4.269352642280865-1.867438505860264-4.337349728699337-.44808115079104-9.370211726640264,1.421781215949522-13.439208538689854,1.268219264300569-2.791653361478893,2.835763728640813-5.42045229346877,4.52872986156035-7.948129061858708l1.569355607569378,1.113853085578739h0Z"/>
              <ellipse class="cls-19" cx="222.342450000276585" cy="103.24409907782001" rx="14.831661226058992" ry="11.907359779824292" transform="translate(-17.342032534200598 51.796476210518264) rotate(-12.793105487907233)"/>
              <ellipse class="cls-13" cx="166.518070339966926" cy="103.244099077815008" rx="11.907359779823322" ry="14.831661226060696" transform="translate(18.558920839619532 231.679693144528869) rotate(-72.759170584522934)"/>
              <path class="cls-9" d="M205.904007646986429,76.102520302449193c8.450201796192232-4.117231316218749,18.757810945890014-3.024224884629803,25.639679791271192,3.265716754180175-1.923921315839834-1.137773571939761-3.925312436766035-2.069503141439782-5.99943371092013-2.693572235039028-6.142892335124998-1.949292412709838-12.8695138187868-1.162937805720503-18.865345658587103,1.691768735359801-.000002811473678-.000040866170821-.774900421763959-2.263913254500949-.774900421763959-2.263913254500949h0Z"/>
              <path class="cls-9" d="M185.063359713294631,76.102520302449193c-8.450201796191323-4.117231316218749-18.757810945890014-3.024224884629803-25.639679791271192,3.265716754180175,1.923921315839834-1.137773571939761,3.925312436766035-2.069503141439782,5.99943371092013-2.693572235039028,6.142892335124998-1.949292412709838,12.8695138187868-1.162937805720503,18.865345658587103,1.691768735359801.000002811473678-.000040866170821.774900421763959-2.263913254500949.774900421763959-2.263913254500949h0Z"/>
              <g class="cls-31">
                <path class="cls-22" d="M201.581832726795255,106.911014711689859c-2.000615053858382,4.490978324269236-9.458523889410571,5.189701676430559-11.789951469467269.70825122910901,4.151258221518219.975776467741525,7.779326166912142.685951394090807,11.789951469467269-.70825122910901h0Z"/>
              </g>
              <path class="cls-9" d="M150.185954106636927,81.20661678354918c1.055741661739376,6.556861196409955,1.621373663019767,13.531055807681696.872506472989699,20.117020203309949.000162705980983-.000010916859537-.187743403979766-.00219938158989-.187743403979766-.00219938158989-.42659303831897-6.505602832479781-2.129882051360255-12.998510449810055-4.275218020260581-19.126574154619448.000165357791047-.000041643010263,3.590454951250649-.988246667100611,3.590454951250649-.988246667100611h0Z"/>
              <path class="cls-9" d="M240.156757915636263,75.817861964100302c-1.732033582309668,9.595548852979846-3.003313438110126,19.599192194738862-2.977972549939295,29.355935690769911-.000150632269651-.000020670320737-.229713036489557.015487243690586-.229713036489557.015487243690586-1.456765572780569-9.725794703361316-1.646497137080587-20.06318376478157-1.318338584011144-29.918506371190233-.000173686399648.000004985238775,4.526024170439996.547083436729736,4.526024170439996.547083436729736h0Z"/>
              <circle class="cls-14" cx="240.793767892736923" cy="108.62005524612232" r="3.483940031284192"/>
              <circle class="cls-14" cx="150.096971399402264" cy="109.457501775870242" r="3.4839400312826"/>
              <path class="cls-12" d="M185.318221886951505,122.339481508570316c7.062198620104937,4.357546807559629,15.637067279045368,3.495173625989992,21.722409318472273-2.13147014822971.000033308480852.000244562288572.996889997934886.918457452909934.996889997934886.918457452909934-5.432114368553812,7.409979717369424-16.756611444341615,8.491196071539889-23.461776618682961,2.201802596478956.000015144072677.000223770710363.742477302275802-.98878990115918.742477302275802-.98878990115918h0Z"/>
              <path class="cls-9" d="M222.342450000276585,23.461960310580253c-3.784232847528983,8.551690075270017-12.584879652429663,25.339780375439659-30.769059524620388,39.654150882559406-19.434925200147518,15.298877780460316-39.246115406018362,19.630604133129964-48.539242240497515,21.061105426500944-.510893319061324-1.827594446240255-8.043287078141475-30.588171594659798,11.02412697519776-51.500989669330011,16.227390542309877-17.797953578701708,44.638492511920049-22.14386721999108,68.284174789920144-9.21426663973034Z"/>
              <g class="cls-32">
                <path class="cls-22" d="M194.54280074437338,89.64453521950054c2.031971279659956,3.461295679409886,1.298927389325399,8.131487146909421-1.093300225509665,11.232546583798467,1.534541221028121-3.556321870439206,1.94179243022063-7.460215273418726,1.093300225509665-11.232546583798467h0Z"/>
              </g>
              <g class="cls-32">
                <path class="cls-22" d="M182.906234582264005,113.004642641379178c-3.408593508631384,4.411193769970851-5.588255225373359,9.701322881550368-5.580149229173003,15.325481246160052-.754590341075527-5.604952703050003,1.418553072938266-11.506205598940141,5.580149229173003-15.325481246160052h0Z"/>
              </g>
              <g class="cls-32">
                <path class="cls-22" d="M208.356918176014005,113.004642641379178c4.468026024860592,3.551204756780862,6.65298544829966,9.741078688160997,5.580271182618162,15.325429718881423.313477613485702-5.641539800100873-1.846973188168704-11.142732963920935-5.580271182618162-15.325429718881423h0Z"/>
              </g>
              <g>
                <circle class="cls-27" cx="171.617181058347114" cy="88.966025415647437" r="18.855411200901131"/>
                <circle class="cls-27" cx="217.491210277406935" cy="88.966025415647437" r="18.855411200901699"/>
                <path class="cls-27" d="M190.274521959667254,87.853522483650522c.655935705950469-.397244081461395,2.573181742009183-1.438840098649962,5.100783046100332-1.151811629069925,1.514719453509315.172020874559166,2.64683489996969.752907332978793,3.288885174508323,1.151811629069925"/>
              </g>
              <g>
                <g class="cls-32">
                  <path class="cls-22" d="M206.06361373265463,88.08496490700054c1.018393969632598-4.323008514080357,6.036165276334032-7.474576367590998,10.360758613428516-6.239682190140229-4.371374584358819.411868158989819-7.962532984335667,2.560547467219294-10.360758613428516,6.239682190140229h0Z"/>
                </g>
                <g class="cls-32">
                  <path class="cls-22" d="M211.556564172108665,94.140384828879178c-2.271802897354974-.464099215709211-4.397614718059231-1.882311936929909-5.622983116787509-3.860557679859994,1.736884562160412,1.518742137461231,3.55912723079291,2.801152816789909,5.622983116787509,3.860557679859994h0Z"/>
                </g>
                <g class="cls-32">
                  <path class="cls-22" d="M209.827560265858665,94.84326568825054c-1.434671907858501-.145702661420728-2.964083429154016-.780649545960841-3.793224404756984-2.004326183940066,1.273292784328987.706235578169071,2.531180348616545,1.257361414500338,3.793224404756984,2.004326183940066h0Z"/>
                </g>
                <g class="cls-32">
                  <path class="cls-22" d="M205.534286340076505,85.288822328879178c.573653276584082-1.323015454179767,1.642228598662768-2.588167439258541,3.059609454605379-3.007384994778477-1.058826380999562.99925465817978-1.965334407997034,2.031075122429684-3.059609454605379,3.007384994778477h0Z"/>
                </g>
                <g class="cls-32">
                  <path class="cls-22" d="M233.257797082264005,84.368900453879178c-1.108557177824878.922197264981151-2.632735284951195,1.569602695210051-4.0868946962064,1.304887328771656,1.395652228023209-.414672235980106,2.669974266677855-.926927142221757,4.0868946962064-1.304887328771656h0Z"/>
                </g>
                <g class="cls-32">
                  <path class="cls-22" d="M233.142684777576505,86.703983461689859c-1.380646726776831.416168700279741-3.036649489074989.41707039962057-4.271985206642967-.39445212551982,1.446739415701813.163212400289922,2.81995896421904.1892902353502,4.271985206642967.39445212551982h0Z"/>
                </g>
                <path class="cls-20" d="M227.80416582590442,86.327466453480156c-.187648201743286.375346363560311-3.436045037931763,6.596249908399841-10.531027598159199,7.246414460720189-6.563735540012203.60148661735002-10.740175000026284-4.085217476349499-11.136974343986367-4.546429938071014.651704546517067-.845620137359219,3.993031148698719-5.000382978489142,10.029942758037578-5.849118017149522,6.34287311602202-.891741287719924,10.863714212226114,2.540680848749616,11.638059184107988,3.149133494500347Z"/>
                <g class="cls-25">
                  <circle class="cls-3" cx="215.752543128401612" cy="90.261609193582444" r="5.420417699675147"/>
                </g>
                <path class="cls-2" d="M206.042831261951505,88.957767641379178c4.746429675583386-7.376212219169247,15.534495236485782-8.958861203369452,22.063135805698039-2.998551721319018-.000025454137358-.00022757555962-.603632631868095.736832971319018-.603632631868095.736832971319018-6.612630319265008-5.082676386798994-15.898190376155071-3.91851958119878-21.272823295346825,2.401359700341345-.000034370670619-.000236653469983-.186679878483119-.139640950341345-.186679878483119-.139640950341345h0Z"/>
              </g>
              <g>
                <g class="cls-32">
                  <path class="cls-22" d="M174.502364953358665,82.206424867939859c4.117622532632595-.480015350050962,8.573860408349901,2.457589529331017,9.590235691265661,6.511116012059574-2.437766391490186-3.324286490178565-5.577395582502504-5.523906142649139-9.590235691265661-6.511116012059574h0Z"/>
                </g>
                <g class="cls-32">
                  <path class="cls-22" d="M184.517135461170255,93.98584381325054c-.902524521181476,1.32940125461937-2.430088099958084,2.116963742768348-3.98726282782809,2.377326444910068,1.265523411053437-.922566772131177,2.678530398137809-1.538612262560491,3.98726282782809-2.377326444910068h0Z"/>
                </g>
                <g class="cls-32">
                  <path class="cls-22" d="M184.51710494359213,91.968387758570316c-1.633266986960734,1.908561923139132-4.178369964509329,3.085863959739072-6.697585659209835,3.011386997059162,2.394684817241796-.647344594099195,4.645684766572231-1.609408641999835,6.697585659209835-3.011386997059162h0Z"/>
                </g>
                <g class="cls-32">
                  <path class="cls-22" d="M184.83753951390463,87.312870180439859c-.731412212659961-.747356667790882-1.520991875151594-1.736853598249581-2.205853931272941-2.52770110046913-.237291820680184-.284676829220189-.483995922242684-.557503977650413-.740557201539559-.850838938591551.37744140625.113647460941138.706634521484375.331420898441138,1.013671875.56591796875.889536999507982.729863627171653,1.578443136493661,1.715838285601421,1.9327392578125,2.812622070310681h0Z"/>
                </g>
                <g class="cls-32">
                  <path class="cls-22" d="M157.24989302952963,83.851810610129178c.989749583938647.337379221969968,2.140752206271827.864540885460883,3.108589037927231,1.261705030310623.340141430822769.147108446250058.683372631994644.279432665000058,1.044639721838394.425672899380515-.388153076171875.068603515619543-.780181884765625.022705078119543-1.15997314453125-.048217773441138-1.123072595565645-.250371141059077-2.182591927007707-.819854122009929-2.993255615234375-1.63916015625h0Z"/>
                </g>
                <g class="cls-32">
                  <path class="cls-22" d="M157.182494958240568,86.29394928200054c1.042898609468466-.076109400470159,2.308394280345965-.040000191829677,3.354478470962931-.052261700770032.370573408919881.002579083589808.738218672591756-.009627947660192,1.127897627669881-.016219744540649-.330535888671875.21484375-.70941162109375.325561523439319-1.086700439453125.40869140625-1.131706103295983.207984847220359-2.329441299445534.097372738709964-3.395675659179688-.340209960939319h0Z"/>
                </g>
                <path class="cls-20" d="M162.213792639389794,86.032592135989034c.165389058747678.406101700660656,3.050656282062846,7.14783591133164,10.390303094052797,8.39434317523046,6.79007987760906,1.1531774813011,11.517197420278535-3.394570821519665,11.967594278288743-3.843247806169529-.611134952090651-.933274924609577-3.75896067798385-5.529885943940826-9.980343224960961-6.898394902549626-6.536694106785944-1.437857898659786-11.522005755488863,1.775508399099635-12.377554147380579,2.347299533488695Z"/>
                <g class="cls-33">
                  <circle class="cls-3" cx="174.999376144800408" cy="90.662821993386842" r="5.663895962356957"/>
                </g>
                <path class="cls-2" d="M184.46888717015463,90.64892975075054c-5.093577237736099-7.016975717280729-14.674750205963392-8.971782960181372-21.970253258896264-4.20788301319044.000038415144445-.000246869620241-.569694250867542-.81653104930956-.569694250867542-.81653104930956,5.278330523036857-4.095302252640977,13.252046253717708-4.138289950600665,18.491450478069964.036248181710107,1.738438437943842,1.322150255789893,3.202946494584467,2.977301622979212,4.254093955522876,4.857794787039893l-.205596923829034.13037109375h0Z"/>
              </g>
            </g>
            <g id="Artwork_9" data-name="Artwork 9">
              <path class="cls-23" d="M227.71515536725019,172.678588842749377c1.288818091206849-2.456564037180215.342172162912902-5.492798719889834-2.114391874261855-6.781616811098502-1.463580107564667-.767856441771073-3.132774402696668-.741895955550717-4.515743854197353-.0761950265005-.238225659850286-1.516248912850642-1.165501911518732-2.904428402260237-2.629082019087946-3.67228484403131-2.456568312521995-1.288820334239063-5.492798719891653-.342172162909264-6.781616811096683,2.114391874260036-.050176579918116.095639549581392-.095766920305323.192420339741147-.139209186721928.289679296591203-.081757372563516.177574692510461-.157022460929511.355338752509851-.224659952535148.533102705489-1.903138785657575,5.001986071811189,1.381494607860077,10.587773378359998,3.151467285826584,13.160490333661073,3.4120386119248-.00115002882012,9.879665567872507-.522690535730362,12.849073407845935-4.906596007740518.047363965279146-.069930808509525.093575584955033-.141343980760212.139247545605031-.213432835020285.09486158182699-.143057328339637.183432909740077-.292228094760503.264915458623364-.447538685610198Z"/>
            </g>
            <g id="Artwork_9-2" data-name="Artwork 9">
              <path class="cls-23" d="M242.334512469637048,152.517720109190122c1.628703334192323-3.10440555211062.432409310829826-6.941351654020764-2.671996241280794-8.570054988211268-1.849553336745885-.970354432038221-3.958945137221235-.937547683939556-5.70662929226819-.096289068689657-.301050186320936-1.916111883179838-1.472866389955016-3.670380059809759-3.3224197267009-4.640734491838884-3.104410954945706-1.628706168759891-6.941351654026221-.432409310829826-8.570054988218544,2.671996241278976-.063409074999072.120861473271361-.121022434017505.243165153440714-.175921232101246.366073101720758-.10331830861287.22440443358937-.198432197224975.44904817439965-.283906950291566.673691779949877-2.405031793687158,6.321102604249973,1.745820367779743,13.379965660520611,3.982567680454849,16.631155810329801,4.31185649980398-.001453312759622,12.4851166823928-.66053372783972,16.237612463247387-6.200556410449281.059854721701413-.088372860191157.118253202880624-.178619010939656.175969706937394-.269719033580259.11987834098727-.180784200059861.231807571391982-.369294065259965.334778580221609-.565562940510063Z"/>
            </g>
            <g id="Artwork_9-3" data-name="Artwork 9">
              <path class="cls-23" d="M279.42995321350827,161.784592853849972c4.791297972662505-3.77663255779953,5.613847506561797-10.722318456850189,1.837214948764085-15.513616429519971-2.25005503684406-2.854575861290868-5.624988673787811-4.2996383319296-8.999016348854639-4.203407589529888.881661041259576-3.258219899920732.264874920843795-6.877329939630727-1.985180116007541-9.731905800910681-3.776639130559488-4.791306311330118-10.722318456855646-5.613847506569073-15.51361642952179-1.837214948769542-.186535979953987.147032778819266-.364886688555998.300470748179578-.53935307869142.456795571830298-.323440449168629.283227436179004-.634014610557642.572658388678974-.92927289054569.868930725910104-8.307944590707848,8.336679779709812-6.722776909038657,22.498790032070247-5.476378775732883,29.252244208259071,6.852213200496408,3.058130786081165,20.306642045245098,7.812067416540231,30.201205384031709,1.672852488851277.157828862604219-.097933856870441.314673491364374-.199877817200104.471040570500918-.303662558080759.318792493895671-.202164643420474.630437981310024-.42224679202991.933356736057249-.661015668039909Z"/>
            </g>
            <g id="Artwork_9-4" data-name="Artwork 9">
              <path class="cls-23" d="M241.4976324994077,172.84068377147014c1.831524117666959-.669357361690345,2.773647215033634-2.696724082799847,2.104289853350565-4.528248200469534-.39879201380063-1.091191690740743-1.279696822412006-1.866447976861309-2.313956985104596-2.173534161780481.592521675076568-.901617476351021.765947806725308-2.06219447417061.367155792926496-3.153386164909534-.669358526616634-1.831527305210329-2.696724082803485-2.77364721504091-4.528248200469534-2.104289853350565-.071305343155473.026059583869937-.14076332359582.054880256609977-.20932941522733.084964821200629-.126457644686525.053774795309437-.249626233076924.110716019109532-.368825421388465.171261554078228-3.35403359263546,1.703684790780244-4.284256948028997,6.162620790770234-4.578894381027567,8.33783326396042,1.776145137893764,1.611736222481341,5.388304515484378,4.396561416730037,9.005147664325705,3.51837946131127.05769319403953-.014010010920174.115487195746027-.029335966610233.173319651318707-.045268554671566.116966050044539-.02961989232972.233547556593294-.065393591228712.349341441296019-.107712165368866Z"/>
            </g>
            <g>
              <path class="cls-22" d="M167.049643167825707,217.636453322409579c-2.04442747104622-1.256032536119164-.823275826007375-8.767507946198748,2.813218291581506-13.886267431680608,1.964727721337113-2.765476062650123.704871781561451-3.331556925368204,11.207454049721491-8.689491979988816,1.552994741530711-.792160319189861,2.664397653921696-2.1364047570205,3.769553210213417-1.716043069849547,1.375979467726211.523368350539386,1.946909946114829,3.143578829029138,1.474118808506319,5.208348433019637-.498426835664759,2.178254725919032-1.974311764823142,2.93513950068882-4.197728588831524,5.299052620010116-3.08307815236185,3.277819134338642-2.512421884201103,4.232887105579721-5.103701871670637,7.32243318141991-2.780320345209475,3.314990904378647-8.007080451743604,7.663429587799328-9.962913899520572,6.461968247069308Z"/>
              <g>
                <path class="cls-17" d="M210.161049303613254,235.726792306579227h-26.425279141289138c-3.140183054434601,0-5.846827477294937-2.232783360119356-6.017499632527688-5.006171790599183l-3.321153677983602-53.968083861489504c-.239329995343724-3.889064617800614,2.682662718014399-7.132962909130583,6.497975657173811-7.132962909130583h32.106634447965007c3.815312939154865,0,6.737305652514806,3.24389829132997,6.497975657172901,7.132962909130583l-3.321153677985421,53.968083861489504c-.170672155232751,2.773388430479827-2.877316578089449,5.006171790599183-6.017499632525869,5.006171790599183Z"/>
                <path class="cls-24" d="M194.232884576187644,181.911593490420273l-14.106352067356966.000000016920239c-1.493539318230432.000000001789886-2.782747507299973-1.243091459291463-2.865537923688862-2.774091204080833l-.181341841589528-3.353459558709801c-.085041146367075-1.572621313649506,1.097252797171677-2.869359792910473,2.627983997270348-2.869359791029638l14.457626313569563.000000017718776c1.53073119030887.000000001869921,2.783147609125081,1.296738475901293,2.783147597470816,2.869359779560909l-.000000024849214,3.353459531930639c-.000000011344127,1.530999743179564-1.221986734184611,2.774091205899822-2.715526050826156,2.774091207689708Z"/>
                <path class="cls-21" d="M199.865853494988187,179.109955191450354h-.00000319652554c-.879044140719088-.000000004691174-1.595594452296609-.736270626070109-1.59231933789215-1.640210814721286l.000009366976883-.002585310219729c.003291430643003-.908443513599195.731728982909772-1.655079001819104,1.618735221429233-1.655078997910095h.000003273504262c.887006224300421.000000003899913,1.603478455228469.746635486520972,1.592211499495534,1.655078985600994l-.000032064630432.002585339168945c-.011211103497772.903940188860361-.739560621375858,1.64021080276143-1.618604762357791,1.640210798081171Z"/>
              </g>
              <path class="cls-22" d="M179.024999967919939,205.312585235920778c-2.989375197081245-.659626248021596-5.890140249885008-.02109765339992-7.448607677546534,1.130103918829263-4.469294438244106,3.301295888119057-5.80217926417572,11.387296132799747-4.875018542083126,17.231751848590648,1.098214004270631,6.923276107900165,5.347605978231513,10.573007856390177,6.604052382999726,11.546258836679044.164074827591321.126991644499867.340159088656947.237267455919209.497255461663372.34332373666075,3.748566140186085,2.532205276878813,7.103904478928598,3.536940447629604,8.063523129327223,3.806341252578932,3.954024826371096,1.1101422929205,7.16346477737352,2.011255527540925,9.417181029373751.366450010580593,2.237162708566757-1.632877228299549,3.280685103638461-4.185693289660776,3.280685103638461-4.185774434479754.039436382894564-.097617219380481.068973097653725-.174136785370138.088447854637707-.225095732810587.010711116341554-.028157252800156,1.833872949346187-5.210065507029867-.129669423587984-12.155169571718943-1.801090441757879-6.370436444001825-5.773778576905897-10.636300816589937-7.770914905637255-12.530302078121167-.375375940871891-.073273773159599-1.321849130306873-.309892070508795-2.168189610914851-1.134404594329681-.80041251205148-.779639437940205-1.072572240906084-1.657707543470679-1.165726495148192-2.031541732740152-.787591630371026-.649077421319816-2.275949932891308-1.694790726560313-4.393018306722297-2.161941459718946Z"/>
              <path class="cls-22" d="M172.622024450784011,211.508316880819621c-1.656977240078049-2.164943818079337-1.45914616704431-2.862789276689-1.02015268669129-3.369782116840724,1.048466646017914-1.661975430668463,2.265021086714114-3.413948456849539,3.489632231236101-4.928051549688462,2.1293085264806-2.645369897691126,4.723972108457019-4.931825338690032,7.649205507868828-6.723586057740249,6.113819494459676-1.059085610129841,12.033711686915922-3.261480817560368,18.309731815475971-2.97677240125995,1.09434079458606.025168432890496,1.969966192538777.964196971710408,1.857090487326786,2.065014611638617-.061495963873313.633078123681116-.441091435425733,1.167497913260377-.955711888733276,1.458320950890993-1.376053870579199.76487108054971-2.80322897824044,1.31754845479918-4.229430348053938,1.870306973869447-4.185343711778842,1.476923426051144-8.6464904334116,3.538063130290539-13.047910770979797,4.158670735911073-.000014118824765-.000079816380094,1.720742950376007-1.161586780850485,1.720742950376007-1.161586780850485-1.44281442240208,3.852585047559842-3.913551477950023,7.115575962279763-6.650223702081348,10.116379049210082-.000081228756244-.000054244110288-1.390254298148648,1.463068019160346-1.390254298148648,1.463068019160346-.533033046869605,1.3503053735094-4.697961356592714-.330928911271258-5.732719297595395-1.971981434300687h0Z"/>
              <path class="cls-22" d="M176.445730694998929,218.433215885130267c-.171539525106709-1.472043120309536-.502366125399931-3.172683459701148.700155808832278-3.806552538550022,2.796749204469961-1.467646191900712,5.682483097547447-2.728404040321038,8.70518823384009-3.678306779160266,3.866276511957039-1.228918514889301,7.797348556712677-2.330753644340803,11.595727178282687-3.7586263830799,4.30095858553068-.964314757420652,9.010936554692307-2.160036332299569,13.390368774951639-2.570780986079626,2.166619456924309.046493429119437,6.282847187512743-1.756196302550961,6.741081743766699,1.482622265199097.0594809578688.903533561080621-.472323642688934,1.639071359959416-1.215461720496023,2.031832036640481-5.255334982952263,3.201502981350131-11.422832155651122,3.727828119770493-17.233040092049123,5.307230597749367.000014718480088.000065544731115.467895755025893-.165307599989319.467895755025893-.165307599989319l-2.589493520337783,1.332641391460129c-5.295377925745925,2.939506713230003-10.362576551849997,6.493819646770135-16.130014084485083,8.453564748730059-.638957583187221.281366869528938-1.164768720547727.005773739379947-1.810281591766397-.498753760381078-1.021961992855722-.77910549652006-2.484772867004722-2.637466086898712-2.622126485564877-4.129562992538922h0Z"/>
              <path class="cls-22" d="M180.079233479335016,226.129234121210175c.267453329250202-4.4075432296504,2.553952088843289-3.722112928620845,4.170356918533798-4.726848099369818,5.285828130383379-2.194019927061163,10.624460380007804-4.251763592530551,16.029829559569407-6.139105892671068,3.419602993943045-.883407803548835,9.069517734809779-2.362503870228466,11.436481257342166-2.700985006698829,2.342076802458905-.741002667949942,4.71702341668788-1.40314440541988,7.122642773168991-1.991931224900327,1.289228912355611-.315653352790832,2.590304968543933.473642318818747,2.905958321332946,1.76287123117072.254470157924516,1.040114312598234-.213248588977876,2.089073410668789-1.079226116213249,2.620977710799707-5.16666204532703,3.503638931619207-12.952362276877466,6.330884273569609-17.666924864555767,8.003821857550065-5.138095051393975,2.284032811608995-10.343156708539027,4.398486145379138-15.600334618178749,6.38682437387979-1.865851275411842.375520238128956-3.061601354243976,2.441386230058924-6.276396863417176-.585883598319924-.745558613214598-.702064989291102-1.095130501082167-1.68148297595144-1.042386367582367-2.629741351440316h0Z"/>
              <path class="cls-22" d="M186.683935020899298,233.88067426985981c-.346001515754324-2.28901424903961.046414837477641-2.986129404249368.614753162137276-3.315820811028971,3.742823441794826-2.724908293581393,8.422830590017838-3.638904624320276,12.567616130700117-5.586065525511003,2.533612047183851-1.063524168590448,8.479689272016913-3.483662934298991,10.905420932524976-4.588103790089008,2.13158851377284-.740814766610129,5.219369251576609-3.447335702150667,6.82080457765278-.555276661450989,1.271550134022618,2.89211864050958-2.543033565794758,3.88386812807039-4.266904627624172,5.297739527379235-1.933413506192664,1.241029713850367-4.681112241465598,3.226769820441405-6.601988645546953,4.561260081940418-3.263901983867981,2.423442884261021-7.117487605117276,3.767534060909384-10.028107552907386,6.709041602989601-1.539180484709505,1.396121220790519-3.204254442691308,2.517358275919833-5.216113390240935,2.998290226500103-.611978207194625.264398780360352-1.500676284242218-.047603055489162-3.595673266823724-2.959322659089594-.583759715447741-.744028045479354-1.086525610202443-1.648148286089054-1.199807319871979-2.561741991639792h0Z"/>
            </g>
          </g>
          <rect class="cls-1" y="61.011181599560587" width="120.763823240184138" height="137.676486855449184" rx="12.651852620401769" ry="12.651852620401769"/>
          <g>
            <path class="cls-14" d="M45.740775249147191,141.618598672330336c11.754296111184885-2.44153960129006,21.5742526137401-1.072197649729787,28.812057286659183,0,4.42250161357515.655144760508847,7.281094104066142,1.359186188270542,11.118639436977901,2.304338768330126,14.410596776233433,3.54918439389985,19.26803169622508,3.395593178500349,22.822862537674155,7.630271988449749,2.082127530726211,2.480319716700251,2.424992373076748,5.436783964560163,3.110722057770545,11.349712460309092.980207608536148,8.452418277280231.15190512342997,15.975721453989536-1.196890032913871,22.057808107310848-29.752386859438047-5.281702714390121-71.925742754307066-10.563444640220041-101.678129613743295-15.845147354610162.236954739515568-6.283045289759684,1.17842144408587-10.48635494670998,2.437226342748545-13.306637859101102,1.207124219085017-2.704491526348647,3.286075623072975-4.096105576549235,4.341020238642159-5.00808527729896,1.504817481108148-1.300878775129604,11.19988554325937-4.190056189800089,20.233887917265747-6.307944554959249,4.395837833517362-1.03051588766175,6.624027982927146-2.173372554530943,9.998603828918931-2.874316278430342Z"/>
            <g class="cls-34">
              <path class="cls-26" d="M6.238956231198244,160.431045090659609h108.537210576797406"/>
              <path class="cls-26" d="M6.238956231198244,149.368884383979093h108.537210576797406"/>
              <path class="cls-26" d="M6.238956231198244,182.55536650402064h108.537210576797406"/>
              <path class="cls-26" d="M6.238956231198244,171.493205797340124h108.537210576797406"/>
            </g>
            <path class="cls-8" d="M45.527072894297817,142.123053864090252c1.676602805251605-.517865504671136,3.164833846707552-.883472982950479,4.391838266510604-1.145797524961381,4.321414518015445-.923899978888585,12.222794411321956-2.565486967099787,20.944830558688409-.018390165949313,1.529403054777504.446618315920205,2.768876712898418.929624849321044,3.6248624755317,1.292448315271031-.035682411544258.227975319459802-.071286400203462.455989850368496-.10696881174772.683965169830117-1.290134840226528,1.121996180119822-6.438126539931545,5.334206834239012-14.244732379722336,5.376437556469682-7.955687739446148.043054162499175-13.214098857730278-4.274203942741224-14.481608696352851-5.376437556469682-.042740470968056-.270755001871294-.08548094193975-.541470792310065-.128221412907806-.812225794190454Z"/>
            <path class="cls-6" d="M38.730115488662705,121.907768083119663c-3.541295956023532.862973432340368-7.044783107448893-1.93759536926882-7.761094873692855-6.203956010160255-.7163117662476-4.266360640898711,1.608297476877851-8.487201434099916,5.149593432901383-9.350174866449379.870500480265036,5.18471029220018,1.741000960526435,10.369420584409454,2.611501440791471,15.554130876609634Z"/>
            <path class="cls-6" d="M79.846842400796959,120.312529969169191c3.198077395041764.555475446570199,6.168298929023877-2.539922993539221,6.579784115516304-6.857097772868656.411485186485152-4.317174779340348-1.881526623081299-8.32679962308066-5.079604018119426-8.882275069650859-.500080040346802,5.246446447710696-1.000100057044619,10.492926394819733-1.500180097396878,15.739372842519515Z"/>
            <path class="cls-28" d="M85.423807281036716,110.984685001460093c-.099492458266468-.441136701670985-.308012870169478-1.119974801940771-.713777750303052-1.29971668753933-.872669539616254-.386583289011469-2.164522270175439,1.753697817679495-2.499971967747115,3.9366783248297-.130088286716273.846666891409768-.231737393345611,2.45070268139898.252812418837493,2.982087167709324.47869329797868.524966565590148,1.338361843116218-.206562770359596,1.662709108912168-1.463568393379319.238957845393088-.92609573720074.22400647250106-2.279680627480047-.149299014594362-2.485792001099981-.22868583563104-.126254628381503-.578317984285604.185523460490003-.797476643849222.776417381899591-.254280239145373.685495333849758-.196529020364324,1.378836699810563-.190203593123442,1.447238998860485"/>
            <path class="cls-29" d="M32.18035507595232,112.928152464079176c.117118274418317-.439012041968454.359432893248595-1.113426438649185.816343787017104-1.284695967469816.982668348186053-.368361976979941,2.402619360176686,1.798570111241133,2.75049296582074,3.988277281001501.134905014952892.849275497039343.228248328015979,2.455237437199685-.321434540139308,2.976466839698332-.543039182568464.514934220700525-1.496822580262233-.234412569128835-1.844115661451724-1.498023835849381-.255862613095815-.930962341370105-.221776963433513-2.284074725430401.199104916908254-2.482386643230711.257830883219867-.121476705890018.645557454301525.197546146700915.883530259010513.792934207251164.276110664206499.690709698659703.202528430294478,1.382765741140247.194565591673381,1.451028157409382"/>
            <path class="cls-6" d="M47.953790570789351,133.748980046439101c.063522534836011,1.110664073590669.447716236270935,8.60996984825033-1.709932530322476,9.190769716151408-.170177655052612.045798963388734-.364666403685987.050857239310062-.588563733261253-.004470104309803,1.267509838622573,1.102233613728458,6.52596016834832,5.419452507529058,14.481608696352851,5.376437556469682,7.806605839790791-.04223072223067,12.954597539495808-4.25444137634986,14.244810802605571-5.376437556469682-.158884759972352.067012353109021-.391643875273076.13547552953969-.651066770627949.089951046249553-1.334600614609371-.234092304310252-1.826782625264968-3.211652307571057-2.051934720961071-4.573975411150968-.18421535102334-1.114624429159448-.343021688111548-2.75652510889995-.128221412907806-4.787756188879939-7.86557984744104.028506717790151-15.731120483438644.056974224140504-23.596700330877866.08548094193975Z"/>
            <path class="cls-15" d="M54.107516527286862,143.840750259780179c4.515197460703348,1.387614483190191,11.156203997699777-1.036397603849764,17.432230439475461-6.440165534881089-.103518204918146-1.009067229299035-.144454949589999-2.269519008488714.010743934904895-3.737085620399739-7.86557984744104.028506717790151-15.731120483438644.056974224140504-23.596700330877866.08548094193975.037446926400662.654438954570651.185705385792971,3.526441757971043-.139788788081205,5.894695175551533,1.665937293231764,2.770327536229161,4.807910869687475,3.740536227240227,6.293514744578715,4.197075037789546Z"/>
            <path class="cls-6" d="M83.700704935219619,97.366252162029923c-1.915400482501354-10.555719986299664-10.754208301934341-24.383124996720653-24.537186749414104-24.537186749419561-13.76058871452733-.153787272611225-23.192116679991159,13.42493877736888-24.964630670558108,23.254737351679069-.490299861474341,2.718960548179894-.886453052489742,8.725525965639463.898961502249222,15.27258188937958.587387390025469,2.154002102550294.611816117929266,1.426002484180572,2.069266177997633,5.920496303901018,2.529137961055312,7.799312511719108,2.57595642191518,10.362446792340052,5.272213545606064,13.39427543030979,1.210770883122677,1.361460451869789,2.376291763033805,2.165804746369759,3.904283205924003,3.220318036079334,3.590670098757982,2.478006241661205,6.81651694806169,3.526637815180948,8.549545017282071,4.075284301250576,2.013154605555428.637342766189249,3.043748916106779.964758300680842,4.588209164323416.997460642689475,2.697198198282422.057091858459899,4.754387252372908-.795404085898554,5.785256043009213-1.310956115528825,6.264968815343309-2.854122386201198,9.463053964236678-6.305748714259607,11.057391165732042-8.435518146110553.178255211953001-.238170294189331.452500032099124-.569114858399189.755996587427944-1.070629192070555,1.029300332986168-1.700835475949134,1.573006177452044-3.944514144659479,3.974706954420981-11.468719184518704.685180724523889-2.146669563040632,1.252727125269303-3.880560283960222,1.601316838041384-4.9392299864503,1.032280402521792-3.249452136940818,2.129573374648317-8.39387559548959,1.044671217958239-14.372914581190344Z"/>
            <g class="cls-32">
              <path class="cls-22" d="M64.41011031468588,118.958622133570316c-1.446374428871422,4.610222420509672-8.751074490897736,5.341730879988972-10.565590872784924.634611450679586,3.848042200458622,1.23676453590997,6.885182066591369.972837997929673,10.565590872784924-.634611450679586h0Z"/>
            </g>
            <rect class="cls-10" x="40.472925773518" y="106.35363720651003" width="14.183056243589817" height="7.855193072959082"/>
            <rect class="cls-10" x="62.786557586956405" y="106.35363720651003" width="14.183056243589817" height="7.855193072959082"/>
            <g>
              <path class="cls-20" d="M52.064083934803421,127.682302172410346c1.394215431744669.609500366979773,5.155408683518544,2.025235124989194,9.684239736552627.926959785589133,2.280752446224142-.55308616991897,3.99371055915617-1.558867891399132,5.091788473539054-2.344027162429484.077785454561308,2.775499525230771-.954648643471955,3.959556032159526-1.361146742307028,4.352826655220269-2.356366225659258,2.279913389918875-8.061652922665417,1.579054598829316-13.414881467784653-2.935759278379919Z"/>
              <path class="cls-11" d="M51.938812096912443,127.60742584450054c.159012912487924-.031005770370029.460019491605635.041012377649167.628872530111948.123812818999795,4.612180739436553,1.818519850228768,10.111455678655147,1.307378307539693,14.120430453022891-1.678448336060683.000010371357348.000070087380664.402140498311383-.292044170439112.402140498311383-.292044170439112.745098365277045,9.752842074249202-10.967512041287591,6.484406697638406-15.151443481446222,1.8466796875h0ZM52.18452437718588,127.757206117939859c.641331764975803.326973041590463,1.35514519292974.836509606739128,1.923385307711214,1.241116449300534,4.160313883654453,2.956915169979766,12.829081822341323,4.912798724550157,12.471077096862246-2.72576101281993.00006884542654.000147493208715.412941159879665.205225618208715.412941159879665.205225618208715-4.157661866267517,3.019211615070162-9.838341397576187,3.562863432131053-14.534975852867319,1.529226683591332-.254655411255044-.09736076936133-.13839037163234-.050596016460986-.272427711585806-.249807738280651h0Z"/>
            </g>
            <g>
              <path class="cls-6" d="M96.146135681383385,180.577645862600548c1.186231513300299-.728783680100605.477686659360188-5.087142667651278-1.632304514844691-8.057183863371392-1.139987586309871-1.604603196379685-.408985465107435-1.933058457299921-6.502864672839678-5.041875716909999-.901089096323631-.459632609869004-1.545954799472383-1.239599195279879-2.187195619478189-.995694098450258-.798380098772213.303672318661484-1.129649236444493,1.823988536820252-.855323169815165,3.022023099860235.289200584472383,1.263881666871384,1.145548504743601,1.703046462131169,2.435634429132733,3.074652095770944,1.78888442563948,1.901878353290158,1.457774392074498,2.456034341150371,2.961304365358956,4.248671629020464,1.613216246241791,1.923446408729433,4.645922291647366,4.446526866689965,5.780749182486034,3.749406854080007Z"/>
              <g>
                <path class="cls-5" d="M86.721720551891849,187.84402298860914h-13.730641699266926c-1.631647036158029,0-3.038026305754101-1.160159866089089-3.126707988132694-2.601219490399671l-1.725679828648936-28.041952508279792c-.124356469288614-2.020767785530552,1.393918315265182-3.706305520390742,3.376364542531519-3.706305520390742h16.682688247765327c1.982446227268156,0,3.500721011820133,1.685537734860191,3.376364542535157,3.706305520390742l-1.725679828652574,28.041952508279792c-.088681682378592,1.441059624310583-1.495060951971027,2.601219490399671-3.126707988130875,2.601219490399671Z"/>
                <path class="cls-24" d="M70.106944529821703,164.274474669260599l-.42875955261843-7.20821017821072c-.057752350448936-.970919663010136.532742662133387-1.850637005749377,1.323127427176587-1.9085156559795l1.739437940055723-.127376341990384c.819620943681002-.060019570240911,1.445713492619689.75831589974041,1.385618936775245,1.768592324990095l-.443008732739145,7.447617718329639c-.036821345953285.619020096570239-.562573808376328,1.106852063310725-1.164989365610381,1.106851665110298l-1.284591703573824-.000000849100616c-.586471860926395-.000000387659384-1.090956944244681-.475785644019197-1.126834949465774-1.078958683148812Z"/>
                <path class="cls-21" d="M75.743755830819282,157.568979491950813h-.000001660922862c-.456753552894952-.00000000243017-.829074902281718-.382568074530354-.827373144575176-.852257676731824l.000004867102689-.001343333718978c.001710235666906-.472029541200754.380208225296883-.85998322425985.841098904294995-.859983222229857h.000001700922439c.460890671610287.000000002019078.833171450090958.387953682178704.827317111472439.859983215839748l-.000016660860638.001343348749288c-.005825317658491.469689602310609-.38427756440251.852257670519975-.841031117433886.852257668091625Z"/>
              </g>
              <path class="cls-6" d="M89.197713289068815,173.427007898199008c1.73451546414708-.38273279608984,3.417616951993296-.012241422929947,4.321881447226588.655716527391633,2.593204200169566,1.915500193899788,3.366579634863228,6.607213860759657,2.828616179560413,9.998323423869806-.637213145813803,4.017070016308935-3.10282405315229,6.134742018110046-3.831847870927959,6.699448274279348-.09520060446448.073683949540282-.197369403520497.137668925539401-.288520921943928.199205616951076-2.175018359979731,1.469253245779328-4.121875429535066,2.052227471538572-4.678671843188567,2.208541025849627-2.29423098634652.644134258009217-4.156433908114195,1.166984264238636-5.464100371227687.212624099789537-1.298061654357298-.947439052250047-1.903541265350214-2.428651226580769-1.903541265350214-2.428698308969615-.022882044397193-.056640122240424-.040020036496571-.101038821559996-.051319811505891-.130606566170172-.006214876257218-.016337591370757-1.064062146843753-3.023019392139759.075237668610498-7.052754572951017,1.045040858911307-3.696297653188594,3.350100796307743-6.171466286888972,4.508892723657482-7.270416489089257.217803163330245-.042515403471043.766972228851955-.179807669850561,1.258041617860727-.658211894369742.464420752939986-.452367659599986.622335108713742-.961846265390705.676385699181992-1.178754863200083.456981734395413-.376612084630324,1.32056703958915-.983362920311265,2.548946748046546-1.254416273381139Z"/>
              <path class="cls-6" d="M92.912890983010584,177.021937153069302c.961422523831061-1.256158322028568.846635642679757-1.661066926579224.59191988098064-1.955237736028721-.608348397665395-.964322607720533-1.314225830656142-1.980864228071368-2.024777978749626-2.859387349360986-1.235481772484491-1.534914386260425-2.740974997821468-2.86157700269905-4.43827367497579-3.901204506899376-3.547401633788468-.614509804730915-6.982281458815123-1.892398424790372-10.62379623986817-1.72720298485001-.634965805935281.014603398100007-1.143027087446171.5594528781603-1.077533583520562,1.198176723039069.035681603445482.367328864111187.255933051361353.677413523360883.554529606020878.846156830190012.798423269299747.443798663551206,1.626508448003733.764476861881121,2.454028637954252,1.085202142590788,2.428448392138307.856950483950641,5.016925069152421,2.052878882050209,7.570746900275481,2.412972017958964.000008192120731-.000046311608457-.998421094869627-.673983726199367-.998421094869627-.673983726199367.837159527516633,2.235372912860839,2.270747266806211,4.128647536430435,3.858637705483488,5.869793767989904.000047131097745-.000031473879062.806662737279112.848911206199773.806662737279112.848911206199773.3092800340346.783483302449895,2.725882863727747-.19201380766026,3.326277103989923-1.14419638463005h0Z"/>
              <path class="cls-6" d="M90.694274324447179,181.039948817300683c.09953182166646-.854118799990829.291486265765343-1.840875822170347-.406249131565346-2.208663619621802-1.622748709907682-.851567584508302-3.297128716752013-1.583093017228748-5.050983103303224-2.13425199906851-2.243317066790951-.713051399610777-4.524230235187133-1.352365619130069-6.728151129504113-2.180855582049844-2.495531234935697-.559521220580791-5.228386458755267-1.253310867490654-7.769450195963145-1.491635904270879-1.257130572512324.026976731420291-3.645476023302763-1.018992078290466-3.911355971995363.860257102889591-.034512443052336.524254344391011.274054813569819.95103305315024.7052434074958,1.178923305291391,3.049285953164144,1.85759767962918,6.627832811907865,2.162985605729773,9.999070897187266,3.079397177238206-.000008540053386.000038030801079-.271485634688361-.095915891999539-.271485634688361-.095915891999539l1.502493417261576.773234187510752c3.072519939843914,1.705580435669617,6.012644145550439,3.767887888299811,9.359065698328777,4.904984425549628.370740283806299.163256585119598.67582997273712.003350078050062,1.050373810034216-.28939027494016.592969688817902-.452057852498911,1.441731692599205-1.530328383780216,1.521427936711916-2.396082926528834h0Z"/>
              <path class="cls-6" d="M88.58601880182141,185.505384489559219c-.155183576815034-2.557374496898774-1.48187132786552-2.159669498929361-2.419752653754585-2.742643724688605-3.066978893090891-1.273029058331304-6.164596148829332-2.466986983879906-9.300935956735884-3.562073478520688-1.984145141775116-.512576841440023-5.262376826680338-1.370787949610531-6.63575238586327-1.567183760380431-1.358935618404757-.429949571998804-2.736943180962953-.81414192235934-4.132747889162601-1.155771786849073-.748045105710844-.183150519969786-1.502964241218251.274819944739647-1.686114761183489,1.022865050448672-.147650393472759.603502150361237.123732536367243,1.212136281879793.62619586517576,1.520761386860613,2.997835542490066,2.032905041030972,7.51530710778934,3.673348425769291,10.250822449927,4.644031568119317,2.981260208352978,1.325256942051055,6.001376232919938,2.552119334310191,9.051731501453105,3.705806368521735,1.082616827137826.217886888469366,1.77642301279775,1.416557605129128,3.641733372694944-.33994533789155.432593053326855-.407356889139919.635424014768432-.975641407389048.604820457449023-1.525846285619991h0Z"/>
              <path class="cls-6" d="M84.753794271724473,190.002977438200105c.20075933602493-1.328147305321181-.026931130441881-1.732632168310374-.356696231172464-1.923927942760201-2.171686292742379-1.581064691439678-4.887151644439655-2.111389814690483-7.292067100655913-3.241184661990701-1.470069491537288-.617085175099419-4.920142572878831-2.02131443297003-6.327616977940124-2.662140564620131-1.236804682112052-.429840546619744-3.028417673629519-2.00023640101972-3.957613293043323-.322186374300145-.737787405560084,1.678084608120116,1.475536108689994,2.253524193090925,2.475772217512713,3.073890204290365,1.121818240933862.720078641261352,2.716106556365048,1.872258175641036,3.830650435245843,2.64656512700094,1.893803250261044,1.406146395849646,4.129756722741149,2.186024055039525,5.818576284311348,3.892765425140169.893073694947816.810066882759202,1.859194151116753,1.460638618618759,3.026528535776379,1.739688202718753.355086128078256.153411245841198.870732527733708-.027620566308542,2.086305824512237-1.717078177598523.338713004236524-.431704976981564.630431226876681-.956299728530212.696160305453304-1.486391237880525h0Z"/>
            </g>
            <g id="_9VrKlJ" data-name="9VrKlJ">
              <path class="cls-7" d="M71.415188662605942,119.600284483909491c-.818641689402284-.206952549518974-1.706183588634303-.331724097710321-2.52066548874609-.658414046039979-1.588310335531787-.637067779529389-3.141230173938311-1.373995575138906-4.698056877839917-2.09528691181913-.95356308283408-.441794059970562-1.875586029784245-.959688197430296-2.832334876216919-1.393083981751261-1.562504035984603-.707798003249991-3.152358821102098-.714531921699745-4.709930843003349.003474611270576-1.195983817588967.551322929070011-2.36710038250385,1.164310646850936-3.537429923891978,1.775036255310624-1.888908925438045.985710245329756-3.818745764795494,1.857654947159972-5.914991665234083,2.202914872519614-.531940455055519.087608930540227-1.149309959275342.090912148420102-1.638963707662697-.108201632750934-2.89280518963642-1.176333680039534-5.543513198635992-2.793348071299988-7.676745841348747-5.203588026070065-.723969486180067-.817981283449626-1.283958248817726-1.796987356299724-1.917458540099688-2.703509610328183-.179607512842267-.257014997900114-.139291728335593-.486995168821522.021969055365844-.7577797126105,1.694922593713272-2.846050827620275,3.944391547862324-5.136685115679938,6.451155645032486-7.170289532859897.441804063475502-.358411888500996.908784135006499-.682246933040005,1.360526892984126-1.027292262549963.571660254227027-.436640218509638,1.197860565989686-.532409457040558,1.88354102140147-.392972442999962,2.620668599169221.532931427778749,5.131392030065399,1.445989293868479,7.629796188466571,2.407839030958712.923396538433735.355493951599783,1.85927244474442.675634831370189,2.792853202112383,1.001098821259802,2.026565393782221.706496971690285,4.047633730953748.642500666410342,6.056976090290846-.079199323088687,2.195741817922681-.788648935300444,4.377788081194012-1.621769495221088,6.587004818118658-2.365716628830342,1.185838613495434-.399327454599188,2.414146899815023-.661076309339478,3.627266304793011-.967469598559546.646147658408154-.163195536129933,1.246680240576097-.032879199599847,1.801842598271833.369594244230029,2.990700153286525,2.168159552818906,5.628924085722247,4.708010439950158,7.667231601415551,7.905375203748918.338788738232324.531441296910998.330818947881198.921684194090631.019604285107562,1.45050926310978-1.16036595811056,1.971759028001543-2.72370410449912,3.514373110831002-4.510228668852506,4.828453242920659-1.487643972805017,1.094232001260025-3.091014037100649,1.967018088780605-4.774862301729627,2.67201997192933-.348862639336403.146061155730422-.734143615070025.195700078311347-1.168098968734739.306488193000405ZM63.94421998584221,112.420062802379107c2.286725427613419,1.05654293058069,4.59240070172018,1.622916514430472,6.986657932597154.842407109341366,2.100088594510453-.684613129611535,3.626435826367015-2.178290130461392,4.881073513221054-4.035754581231231-4.608274368726597-2.399145654109816-8.906937426341756-1.348109684558949-11.867731445818208,3.193347471889865ZM42.096788738937903,109.479386332910508c1.52817637393855,1.957792603139751,3.272584338781598,3.517598472519239,5.700295729060599,3.969432961579514,2.226444042618823.414377381710437,4.293830389164214-.210594146770745,6.295905679386124-1.278570012749697-3.140558802633677-4.407993560151226-7.432480670737277-5.277208927749598-11.996201408446723-2.690862948829817Z"/>
            </g>
            <path class="cls-18" d="M62.274240243579698,72.685814984370154c-4.109359043699442-1.446745336599633-12.123118927649557-4.26804774646007-19.663910407160074-1.111448302410281-2.75970123564548,1.155208270860385-5.7412608059185,3.230473799369065-9.575512377760788,5.899204491299315-2.118751016862007,1.474703094219876-3.815116388507704,2.773778143051459-4.958718072758529,3.67626867501167,2.33688426457411-.227975319461621,4.673729317706602-.455950638930517,7.010613582280712-.683925958390319-1.64542970945331.868415789509527-4.249892849164098,2.529255595378345-6.497649507760798,5.471682147279353-1.309073966351207,1.71361840578902-2.129573374648317,3.380771253700004-2.650340525979118,4.702236035489477,2.821341621300235-1.738400036669191,5.64268324259956-3.4768000733402,8.464024863898885-5.215200110020305-1.214809661572872.794306165540547-5.197672595775657,3.61447144360136-6.925132640339143,9.062509091800166-1.379184023320704,4.349646755721551-.586250258229484,8.058186446900436-.1709618838795,9.57547316632008,1.253942679948523-2.279870828979256,2.507846148453609-4.559741657969425,3.761788828398494-6.839612486948681-.661183322468787,1.146699388098568-1.586024375946181,3.078490253059499-1.966414567577885,5.642683242589555-.355020389139099,2.393113471340257-.094264304781973,4.383015692230401.171001095319298,5.642683242600469,1.367930339680242-1.253942679941247,2.735860679359575-2.507846148449971,4.103791019040727-3.761788828391218.133083631622867,1.303937267541187.404779708091155,2.848436727199442.940447207098259,4.531274151609978,1.012674681895078,3.181420286360662,2.55293930589869,5.550693201410468,3.761788828402132,7.096094524220462,1.251707627792712-4.610363628629784,5.003536750115018-15.951253514649579,15.816640636814554-25.306632861189428,8.06822457585622-6.980499195400625,16.444415811338331-9.720790767620201,21.031840746838498-10.857922564069668-4.897744281604901-4.366546886900323-9.686794448045475-6.479220130360773-12.653296824875724-7.523577656800626Z"/>
            <path class="cls-18" d="M55.658015337459801,73.08745777717013c4.109359043695804-1.446745336610547,12.123079716204302-4.268047746470984,19.663910407154617-1.111448302421195,2.689355910029917,1.125760478480515,3.982941357087839,3.066138649061031,9.575512377759878,5.899204491301134,2.141023115496864,1.084588465158959,3.958787109275363,1.853289559549012,5.162813624499904,2.334178675120711-2.404916115154265.219388013829303-4.809832230306711.438776027669519-7.214748345460976.658164041498821.840065917482207.137906638899949,4.438264612961575.82489108972004,6.95822709676213,4.129592147390213,1.870464170820924,2.452950130689715,2.138592006136605,5.025848060189674,2.189802148415765,6.044326035389531-.434933306416497-.813049234458958-2.032407423212135-3.556830624949725-5.182105653595499-4.419913658459336-.780542949656592-.213898412050185-1.509169951084914-.271931345110715-2.13741566290264-.256482037260866,1.999626658329362.922723635660077,5.336441886385728,2.871689111880187,5.984685433239065,6.070166375180634.301771251912214,1.489054481720814-.055288132170972,3.130092509760289-.769406900333706,6.412168565821048-.477046394333229,2.192546949308962-.777798148767033,2.707275538688918-1.059101028346049,4.419913658448422-.388271691321279,2.363940159049889-.302084943437876,4.346392206100063-.170961883877681,5.642683242611383-1.367930339676604-1.253942679950342-2.735860679360485-2.507846148460885-4.103791019037089-3.761788828400313-.133083631626505,1.303937267539368-.40481891953641,2.848436727208536-.940447207105535,4.531274151619073-1.012674681894168,3.181420286360662-2.55297851733485,5.550693201410468-3.761788828396675,7.096094524211367-1.25170762779635-4.610363628631603-5.003536750115018-15.951253514651398-15.816640636818192-25.306632861191247-8.068224575852582-6.980499195398806-16.444415811336512-9.720790767620201-21.031840746838498-10.857922564058754,4.89774428160672-4.366546886900323,9.686794448047294-6.479220130371687,12.653296824881181-7.523577656800626Z"/>
            <path class="cls-18" d="M76.406461323280382,74.156419739168996c.863394667305329.562583174141764.493468222810407,1.759067420820429,1.094015530701654,4.000279964351648.815365813523385,3.042748984329592,2.186319845987782,3.409110812448489,2.804767736375652,5.746233953919727.355036758939605,1.341655688249375.4646092915591,3.34238039336924-.745172900226862,6.12771919422994-.95677605882247-2.144239644319896-1.913513359199897-4.288411112909671-2.870250659575504-6.432582581501265.058246910914022,1.859586828250031-.098372137046681,4.944597659950887-1.545431279975674,8.35286757978065-.842752089289206,1.984900235849636-1.886536413298018,3.522169415180542-2.77797561943953,4.627955515039503.116877750557251-3.311848852679759.233755501110863-6.623697705359518.350633251669933-9.935546558039277-.090110884282694,1.448675290530446-.573353433126613,6.30490901505982-4.455789721241672,10.499165256600463-3.099654389970965,3.348705166708896-6.715503551527945,4.492228423008783-8.239798388740383,4.881048743609426,1.362262199147153-2.216828050610275,2.724524398294307-4.433656101220549,4.086747838993688-6.65055232757004-.670093195378286,1.141515651279406-1.892387816973496,2.900248939220546-3.933512728590358,4.498254356449252-1.904957273824039,1.491364927951508-3.763720304174058,2.24813740449099-4.989912932127481,2.640056418471431.414032403116835-1.808917584630763.828030718361333-3.617815790041277,1.242063121475439-5.426733374670221-1.199331092617285.528742452430379-2.676277438182296,1.05590990733981-4.403985474671572,1.421899548269721-3.266207098529776.691979941420868-6.087114311651021.523959221100085-8.028046866074874.236804143200061-1.413489402371852-13.143190984579633,5.339722660130064-23.996380309270535,14.182996919989819-26.257058970650178,6.269537752806173-1.602705567149314,11.996521505863711,1.520629646040106,14.037468302443813,2.774405905320236,1.345073043406956-.86608093733048,3.149478502240527-1.782970849160847,4.191183869013912-1.104216766811078Z"/>
            <polygon class="cls-18" points="61.804672082264005 103.655521547629178 73.097900231678068 98.241947328879178 73.462020715076505 98.06738678200054 73.725005944568693 98.185184633570316 78.74964888890463 100.435794985129178 78.546981652576505 101.010502016379178 73.22206099827963 99.611454164820316 73.848815759021818 99.55469146950054 63.457626183826505 106.545169985129178 61.804672082264005 103.655521547629178 61.804672082264005 103.655521547629178"/>
            <polygon class="cls-18" points="52.756576379139005 106.545169985129178 42.365402062733665 99.55469146950054 42.992156823474943 99.611454164820316 37.667220910389005 101.010502016379178 37.46455367406088 100.435794985129178 42.489196618396818 98.185184633570316 42.752181847889005 98.06738678200054 43.116317590076505 98.241947328879178 54.409530480701505 103.655521547629178 52.756576379139005 106.545169985129178 52.756576379139005 106.545169985129178"/>
          </g>
          <path class="cls-1" d="M115.091485605214984,184.107896614930723c18.538182909085663.658124170689916,37.076290353870718,1.316323805678621,55.61447326295638,1.974447976368538-17.660608550533652-7.459117922629957-35.32129256537155-14.918311309558703-52.981901115907021-22.377429232179566-.877498894248674,6.800993751930946-1.755073252799775,13.601987503880082-2.632572147049359,20.402981255811028Z"/>
        </g>
      </g>
    </g>
  </g>
</svg>