<?xml version="1.0" encoding="UTF-8"?>
<svg id="Layer_1" data-name="Layer 1" xmlns="http://www.w3.org/2000/svg" xmlns:xlink="http://www.w3.org/1999/xlink" version="1.1" viewBox="0 0 192.7 211.1">
  <defs>
    <style>
      .cls-1 {
        fill: #151c22;
      }

      .cls-1, .cls-2, .cls-3, .cls-4, .cls-5, .cls-6, .cls-7, .cls-8, .cls-9, .cls-10, .cls-11, .cls-12 {
        stroke-width: 0px;
      }

      .cls-13 {
        clip-path: url(#clippath);
      }

      .cls-2, .cls-14 {
        fill: none;
      }

      .cls-3 {
        fill: url(#radial-gradient-2);
      }

      .cls-3, .cls-4, .cls-14, .cls-15, .cls-10 {
        isolation: isolate;
      }

      .cls-3, .cls-4, .cls-14, .cls-10, .cls-16, .cls-17 {
        mix-blend-mode: multiply;
      }

      .cls-3, .cls-10 {
        opacity: .2;
      }

      .cls-4, .cls-14, .cls-17 {
        opacity: .6;
      }

      .cls-4, .cls-12 {
        fill: #f1b068;
      }

      .cls-18 {
        clip-path: url(#clippath-1);
      }

      .cls-5 {
        fill: #ffc58f;
      }

      .cls-14 {
        stroke: #f1b068;
        stroke-miterlimit: 10;
        stroke-width: .5px;
      }

      .cls-6 {
        fill: #4b4342;
      }

      .cls-7 {
        fill: #aea8a9;
      }

      .cls-8 {
        fill: #e08362;
      }

      .cls-9 {
        fill: #0b2645;
      }

      .cls-10 {
        fill: url(#radial-gradient);
      }

      .cls-16 {
        opacity: .3;
      }

      .cls-11 {
        fill: #fff;
      }
    </style>
    <clipPath id="clippath">
      <path class="cls-2" d="M125.7,70.2c-.2.4-4.1,6.7-11.6,6.8-6.9,0-10.9-5.1-11.3-5.6.7-.8,4.6-4.9,10.9-5.4,6.7-.5,11.2,3.5,12,4.2Z"/>
    </clipPath>
    <clipPath id="clippath-1">
      <path class="cls-2" d="M63,70.9c.2.4,4.5,6.4,12,6,6.9-.3,10.6-5.8,10.9-6.4-.8-.8-4.9-4.6-11.3-4.6s-10.9,4.2-11.6,5Z"/>
    </clipPath>
    <radialGradient id="radial-gradient" cx="300.9" cy="1487.2" fx="300.9" fy="1487.2" r="17.1" gradientTransform="translate(-148.2 -806) scale(.9 .6)" gradientUnits="userSpaceOnUse">
      <stop offset=".5" stop-color="#e984a2"/>
      <stop offset="1" stop-color="#e984a2" stop-opacity="0"/>
    </radialGradient>
    <radialGradient id="radial-gradient-2" cx="234.9" fx="234.9" r="17.1" xlink:href="#radial-gradient"/>
  </defs>
  <g class="cls-15">
    <g id="Layer_2" data-name="Layer 2">
      <g id="Layer_1-2" data-name="Layer 1-2">
        <g>
          <path class="cls-9" d="M69,130.3c21.9-4.6,40.2-2,53.7,0,8.2,1.2,13.6,2.5,20.7,4.3,26.9,6.6,35.9,6.3,42.6,14.2,3.9,4.6,4.5,10.1,5.8,21.2,1.8,15.8.3,29.8-2.2,41.1-55.5-9.9-134.1-19.7-189.6-29.6.4-11.7,2.2-19.6,4.5-24.8,2.3-5,6.1-7.6,8.1-9.3,2.8-2.4,20.9-7.8,37.7-11.8,8.2-1.9,12.4-4.1,18.6-5.4h0Z"/>
          <path class="cls-1" d="M68.6,131.2c3.1-1,5.9-1.6,8.2-2.1,8.1-1.7,22.8-4.8,39.1,0,2.9.8,5.2,1.7,6.8,2.4,0,.4,0,.9-.2,1.3-2.4,2.1-12,9.9-26.6,10-14.8,0-24.6-8-27-10,0-.5-.2-1-.2-1.5h-.1Z"/>
          <path class="cls-5" d="M56,93.5c-6.6,1.6-13.1-3.6-14.5-11.6-1.3-8,3-15.8,9.6-17.4,1.6,9.7,3.2,19.3,4.9,29Z"/>
          <path class="cls-5" d="M133.2,90.4c5.9,1.2,11.6-4.4,12.7-12.4s-3-15.6-9-16.8c-1.2,9.8-2.5,19.5-3.7,29.3h0Z"/>
          <path class="cls-14" d="M144.1,73.3c-.2-.8-.5-2.1-1.3-2.5-1.6-.8-4.1,3.1-4.9,7.2-.3,1.6-.6,4.6.3,5.6.9,1,2.5-.3,3.2-2.6.5-1.7.5-4.2-.1-4.6-.4-.2-1.1.3-1.5,1.4-.5,1.3-.4,2.6-.4,2.7"/>
          <path class="cls-14" d="M43.7,76.8c.2-.8.7-2.1,1.5-2.4,1.8-.7,4.5,3.4,5.1,7.4.3,1.6.4,4.6-.6,5.6s-2.8-.4-3.4-2.8c-.5-1.7-.4-4.3.4-4.6.5-.2,1.2.4,1.6,1.5.5,1.3.4,2.6.4,2.7"/>
          <path class="cls-5" d="M73.2,115.6c0,2.1.8,16.1-3.2,17.1h-1.1c2.4,2.1,12.2,10.1,27,10,14.6,0,24.2-7.9,26.6-10-.3.1-.7.3-1.2.2-2.5-.4-3.4-6-3.8-8.5-.3-2.1-.6-5.1-.2-8.9-14.7,0-29.3,0-44,.2h-.1Z"/>
          <path class="cls-4" d="M84.6,134.4c8.4,2.6,20.8-1.9,32.5-12-.2-1.9-.3-4.2,0-7-14.7,0-29.3,0-44,.2,0,1.2.3,6.6-.3,11,3.1,5.2,9,7,11.7,7.8h.1Z"/>
          <path class="cls-5" d="M139.8,50.2c-3.6-19.7-20.1-45.5-45.8-45.8-25.7-.3-43.3,25-46.6,43.4-.9,5.1-1.7,16.3,1.7,28.5,1.1,4,1.1,2.7,3.9,11,4.7,14.5,4.8,19.3,9.8,25,2.3,2.5,4.4,4,7.3,6,6.7,4.6,12.7,6.6,15.9,7.6,3.8,1.2,5.7,1.8,8.6,1.9,5,0,8.9-1.5,10.8-2.4,11.7-5.3,17.6-11.8,20.6-15.7.3-.4.8-1.1,1.4-2,1.9-3.2,2.9-7.4,7.4-21.4,1.3-4,2.3-7.2,3-9.2,1.9-6.1,4-15.7,1.9-26.8h.1Z"/>
          <g class="cls-17">
            <path class="cls-12" d="M103.2,88.6c-2.8,8.3-15.6,8.9-18.1,0,3.2,1.1,5.8,2.2,9,2.2s5.9-1.1,9.1-2.2h0Z"/>
          </g>
          <g class="cls-17">
            <path class="cls-12" d="M102.8,70.4c4.5-9.4,17.7-9.6,23.4-1.4-.9-.7-1.8-1.3-2.8-1.9-6.9-4.3-15.4-3.1-20.6,3.3h0Z"/>
          </g>
          <g class="cls-17">
            <path class="cls-12" d="M62.9,69.6c4.5-8.3,17-8.8,22.1-.8-6.7-5.7-15.9-5.5-22.1.8h0Z"/>
          </g>
          <g class="cls-17">
            <path class="cls-12" d="M86,71.6c-.6,1.5-1.9,2.6-3.4,3.2,1-1.2,2.3-2.1,3.4-3.2h0Z"/>
          </g>
          <g class="cls-17">
            <path class="cls-12" d="M105.8,75.6c-1-.5-1.9-1.3-2.5-2.3-.2-.3-.4-.7-.4-1.1.3.3.5.6.7.9.7.8,1.6,1.7,2.2,2.5h0Z"/>
          </g>
          <g class="cls-16">
            <path class="cls-12" d="M119.6,81.5c-6.2,1.3-14.7,0-17.4-6.4.5.7.9,1.3,1.6,1.9,4.1,4.1,10.3,4.6,15.9,4.5h0Z"/>
          </g>
          <g class="cls-16">
            <path class="cls-12" d="M87.2,74.2c-1.3,6.3-8.5,9.8-14.5,8.3,1.5,0,3,0,4.5-.4,4.4-.8,8.2-3.7,10-7.9h0Z"/>
          </g>
          <g class="cls-17">
            <path class="cls-12" d="M102.5,67.4c.5-1,1.3-1.9,2.3-2.5.3-.2.7-.4,1.1-.4-.3.3-.6.5-.9.7-.8.7-1.7,1.5-2.6,2.2h0Z"/>
          </g>
          <g class="cls-17">
            <path class="cls-12" d="M85.4,67.3c-.9-.6-1.9-1.4-2.7-2-.3-.2-.6-.4-.9-.7.4,0,.8.2,1.1.3,1,.5,1.9,1.3,2.5,2.3h0Z"/>
          </g>
          <g class="cls-17">
            <path class="cls-12" d="M88.7,56.9c.2-1,.7-2.2,1-3.2,0-.4.2-.7.3-1.1,0,.4,0,.8,0,1.2,0,1.1-.6,2.3-1.4,3.1h0Z"/>
          </g>
          <g class="cls-17">
            <path class="cls-12" d="M100.6,56.5c-.7-.9-1.2-2-1.4-3.1v-1.2c0,.4.2.7.3,1.1.3,1,.7,2.2,1,3.2h0Z"/>
          </g>
          <g class="cls-17">
            <path class="cls-12" d="M131.6,68.5c-.9.7-2.1,1.1-3.2,1.2-.4,0-.8,0-1.2,0,.4,0,.7-.2,1.1-.3,1-.3,2.2-.6,3.3-.8h0Z"/>
          </g>
          <g class="cls-17">
            <path class="cls-12" d="M131.3,71c-1.1.3-2.3.2-3.4-.2-.4,0-.7-.3-1-.6.4,0,.7,0,1.1.2,1,.2,2.3.3,3.3.5h0Z"/>
          </g>
          <g class="cls-17">
            <path class="cls-12" d="M57.6,69.8c1,0,2.3.4,3.3.6.4,0,.7,0,1.1.2-.4.2-.8.2-1.1.2-1.2,0-2.3-.3-3.3-1h0Z"/>
          </g>
          <g class="cls-17">
            <path class="cls-12" d="M58.1,72.2c1-.3,2.3-.5,3.3-.8.4,0,.7-.2,1.1-.3-.3.3-.6.5-1,.6-1.1.4-2.3.6-3.4.4h0Z"/>
          </g>
          <g>
            <path class="cls-11" d="M80.8,102.4c2.6,1.1,9.6,3.8,18.1,1.7,4.3-1,7.4-2.9,9.5-4.4,0,.8-1.5,8.1-7.6,11-6.3,2.9-15.4,0-20-8.3Z"/>
            <path class="cls-8" d="M80.6,102.3c.3,0,.8,0,1.1.3,8.6,3.4,18.9,2.4,26.3-3.1l1-.7c-1.6,11.8-11.8,17.4-22.1,10.9-1.7-1.1-3.1-2.5-4.4-4-.8-1-1.6-2.1-1.9-3.3h0ZM81.3,102.9c7.9,11.5,23.3,12.1,26.6-3.2l.8.5c-7.8,5.7-18.5,6.7-27.3,2.8h-.1Z"/>
          </g>
          <polygon class="cls-7" points="101.6 52.6 124.9 52 125.7 51.9 126 52.3 132.9 60 132.1 60.8 124.1 54.4 125.2 54.8 102.2 58.8 101.6 52.6 101.6 52.6"/>
          <polygon class="cls-7" points="86.1 59.1 62.9 56.3 64 55.9 56.4 62.7 55.5 62 62 54 62.3 53.5 63.1 53.5 86.4 52.9 86.1 59.1 86.1 59.1"/>
          <path class="cls-11" d="M125.7,70.2c-.2.4-4.1,6.7-11.6,6.8-6.9,0-10.9-5.1-11.3-5.6.7-.8,4.6-4.9,10.9-5.4,6.7-.5,11.2,3.5,12,4.2Z"/>
          <path class="cls-11" d="M63,70.9c.2.4,4.5,6.4,12,6,6.9-.3,10.6-5.8,10.9-6.4-.8-.8-4.9-4.6-11.3-4.6s-10.9,4.2-11.6,5Z"/>
          <g class="cls-13">
            <circle class="cls-1" cx="114" cy="70.6" r="5.7"/>
          </g>
          <g class="cls-18">
            <circle class="cls-1" cx="75" cy="70.2" r="5.7"/>
          </g>
          <path class="cls-6" d="M102.7,71.3c5.6-7.4,16.9-8.2,23.3-1.5l-.7.7c-4.7-4.1-11.6-5.4-17.3-2.6-1.9.9-3.6,2.1-5.2,3.6l-.2-.2h0Z"/>
          <path class="cls-6" d="M85.8,70.6c-6.5-5.8-16.3-5.6-22.5.6l-.7-.7c4.3-5.2,12.1-6.9,18.2-4,2,.9,3.8,2.2,5.2,3.8l-.2.2h0Z"/>
          <g class="cls-17">
            <path class="cls-12" d="M93.2,68.3c1.1,4.2.7,8.8-1.2,12.7.5-4.3.9-8.4,1.2-12.7h0Z"/>
          </g>
          <g class="cls-17">
            <path class="cls-12" d="M108.9,92.6c5.6,3.3,6.9,11.7,2.7,16.6.6-1.4,1.1-2.9,1.3-4.3.8-4.5-.8-8.9-4.1-12.3h0Z"/>
          </g>
          <g class="cls-17">
            <path class="cls-12" d="M102.3,133.2c-2.2,3.3-7.5,3.7-10.3.9,3.3,1.9,7.4,1.6,10.3-.9h0Z"/>
          </g>
          <g class="cls-17">
            <path class="cls-12" d="M80.9,95.2c-3.2,3.3-4.8,7.7-4.1,12.3.2,1.5.7,2.9,1.3,4.3-4.2-4.9-2.8-13.3,2.7-16.6h0Z"/>
          </g>
          <g class="cls-16">
            <path class="cls-12" d="M76,98.9c-2.7,3.4-2.9,7.7-.8,11.5-3.2-3-2.9-9,.8-11.5h0Z"/>
          </g>
          <g class="cls-16">
            <path class="cls-12" d="M114,94.7c3.7,2.5,4,8.5.8,11.5,2.1-3.7,1.9-8.1-.8-11.5h0Z"/>
          </g>
          <path class="cls-7" d="M136.5,78.4c0-7.3-1.1-13-2-16.9-.4-1.9-1.4-4.6-2.4-9-.8-3.5-1.3-6.4-1.6-8.3-4.9-1.4-10.7-3.5-16.9-6.7-6.5-3.3-11.8-6.9-15.9-10.1,2.6-6.3,5.1-12.6,7.7-18.8,3.1-.7,11.3-2.2,19.5,1.9,3.8,1.9,7.6,5,10.9,10,9.6,14.6,10.3,38.8.8,58.1v-.2Z"/>
          <path class="cls-7" d="M117.2,8.8c-1,2.8-7.5,20.1-26.1,27.6-14,5.6-26.4,2.4-30.3,1.2-2,3.2-4,6.5-6,9.7l-1.5,16.6c-.2,5.2-.4,10.4-.5,15.6-2.4-4.4-5.2-10.8-6.6-19-.7-4-.8-7.1-.8-8.9-.2-6.4-.3-13.3,2.9-20.8,1.9-4.3,4.3-7.3,6.7-10.4.5-.7,4-5,7.6-8,8.6-7.1,19.3-8,25-8.5,13.7-1.3,24.4,2.6,29.5,4.9h0Z"/>
          <ellipse class="cls-10" cx="121.9" cy="86.1" rx="14.8" ry="11.9"/>
          <ellipse class="cls-3" cx="62.5" cy="86.1" rx="14.8" ry="11.9"/>
          <g class="cls-16">
            <path class="cls-12" d="M125.6,99.3c.9-3.1,1.7-6.2,2.3-9.3.5-3.1,1.8-6.9,5.3-7.6-3.1,1.4-3.9,4.7-4.5,7.8-.7,3.1-1.7,6.2-3.1,9.1h0Z"/>
          </g>
          <g class="cls-16">
            <path class="cls-12" d="M63.6,99.3c-1.4-2.9-2.4-6-3.1-9.1-.6-3.1-1.4-6.4-4.5-7.8,3.5.7,4.8,4.6,5.3,7.6.6,3.1,1.5,6.2,2.3,9.3h0Z"/>
          </g>
          <path class="cls-7" d="M115.7,10.2c.2-1,.5-3.1-.3-5.6-.8-2.4-2.1-3.9-2.8-4.6,0,1.4,0,2.9-.2,4.3,0,1.4,0,2.8-.2,4.2l3.5,1.7Z"/>
          <path class="cls-7" d="M114.5,8.5c.5-.6,1.6-1.8,3.4-2.6,1.7-.8,3.2-.8,3.9-.8-.8.7-1.6,1.5-2.4,2.2-.8.7-1.6,1.5-2.4,2.2l-2.5-1Z"/>
          <path class="cls-7" d="M99.1,16.5c-3.5.6-5.1,1.5-6,2.8-1,1.3-1.5,3.4-1.9,4.6-.2.9-.4,1.7-.5,2.7-.2,1.7,0,4.1,1.9,7.2.8-2.7,1.6-5.5,2.3-8.2.2,2.2,1,5.9,3.3,9.7,1.3,2.2,2.9,3.9,4.1,5.1-.7-3.9-1.4-7.9-2.1-11.8.4,1.7,1.8,7.4,7.1,11.8,4.3,3.5,8.8,4.2,10.7,4.4-2-2.4-4-4.8-6-7.3,1,1.3,2.8,3.1,5.5,4.7,2.5,1.5,4.9,2.1,6.4,2.3-.8-2.1-1.6-4.2-2.4-6.3,1.5.4,3.4.8,5.5,1,4,.3,7.4-.4,9.6-1.1-1.7-2.9-9.9-16-22.9-20.5-.4-.1-7.1-2.4-14.6-1.2h0Z"/>
        </g>
      </g>
    </g>
  </g>
</svg>