<?xml version="1.0" encoding="UTF-8"?>
<svg xmlns="http://www.w3.org/2000/svg" width="192.665140022942069" height="211.120246112772293" xmlns:xlink="http://www.w3.org/1999/xlink" viewBox="0 0 192.665140022942069 211.120246112772293">
  <defs>
    <style>
      .cls-1 {
        fill: #151c22;
      }

      .cls-1, .cls-2, .cls-3, .cls-4, .cls-5, .cls-6, .cls-7, .cls-8, .cls-9, .cls-10, .cls-11, .cls-12 {
        stroke-width: 0px;
      }

      .cls-13 {
        clip-path: url(#clippath);
      }

      .cls-2, .cls-14, .cls-15 {
        fill: none;
      }

      .cls-14 {
        stroke-width: .515625622853655px;
      }

      .cls-14, .cls-15 {
        stroke: #f1b068;
        stroke-miterlimit: 10;
      }

      .cls-14, .cls-15, .cls-6, .cls-8, .cls-9, .cls-16, .cls-17 {
        mix-blend-mode: multiply;
      }

      .cls-14, .cls-15, .cls-8, .cls-17 {
        opacity: .6;
      }

      .cls-18 {
        clip-path: url(#clippath-1);
      }

      .cls-3 {
        fill: #ffc58f;
      }

      .cls-15 {
        stroke-width: .545810828627706px;
      }

      .cls-4 {
        fill: #4b4342;
      }

      .cls-5 {
        fill: #aea8a9;
      }

      .cls-6 {
        fill: url(#radial-gradient-2);
      }

      .cls-6, .cls-9 {
        opacity: .1;
      }

      .cls-7 {
        fill: #e08362;
      }

      .cls-8, .cls-12 {
        fill: #f1b068;
      }

      .cls-9 {
        fill: url(#radial-gradient);
      }

      .cls-10 {
        fill: #0b2645;
      }

      .cls-19 {
        isolation: isolate;
      }

      .cls-16 {
        opacity: .3;
      }

      .cls-11 {
        fill: #fff;
      }
    </style>
    <clipPath id="clippath">
      <path class="cls-2" d="M124.711720438190241,70.315745822750614c-.208226711360112.388176800257497-3.804504801009898,6.817551887339505-11.268729972849542,7.285552533739974-6.90533070308993.432962696395407-11.146074974290968-4.610773436710588-11.548502816260225-5.10669229270934.709347820829862-.86761375430433,4.340756943480301-5.126230974066857,10.700768404789414-5.834530667285435,6.682347971240233-.744187975516979,11.322332165380431,2.993857633104199,12.116464384320352,3.655670426254801Z"/>
    </clipPath>
    <clipPath id="clippath-1">
      <path class="cls-2" d="M63.650073107490243,71.470963683219452c.241427047229081.368446159500309,4.387035943400406,6.45811010658872,11.863565249179373,6.27051596772435,6.916713920949405-.173543513901677,10.699375195530592-5.569343717383163,11.05681849263965-6.098605438157392-.782616302180031-.802146919926599-4.773083197038432-4.726319036639325-11.170690716069657-4.874819123459019-6.721848623348706-.156016782337247-11.016581596879405,3.974080913860234-11.749693025749366,4.702908593892062Z"/>
    </clipPath>
    <radialGradient id="radial-gradient" cx="66.863709964278314" cy="86.114578264568991" fx="66.863709964278314" fy="86.114578264568991" r="17.129250662055853" gradientTransform="translate(64.858568219234712 30.529548344761565) scale(.853091239733539 .645477583935139)" gradientUnits="userSpaceOnUse">
      <stop offset=".537641841231661" stop-color="#e984a2"/>
      <stop offset=".592832570610897" stop-color="rgba(233, 132, 162, .886871293855677)" stop-opacity=".886871293855677"/>
      <stop offset=".711273432585101" stop-color="rgba(233, 132, 162, .596518194573597)" stop-opacity=".596518194573597"/>
      <stop offset=".8824215114979" stop-color="rgba(233, 132, 162, .136328760171738)" stop-opacity=".136328760171738"/>
      <stop offset=".931113028771807" stop-color="#e984a2" stop-opacity="0"/>
    </radialGradient>
    <radialGradient id="radial-gradient-2" cx="1.425950132463186" fx="1.425950132463186" xlink:href="#radial-gradient"/>
  </defs>
  <g class="cls-19">
    <g id="Layer_2" data-name="Layer 2">
      <g id="Layer_1-2" data-name="Layer 1">
        <g>
          <path class="cls-10" d="M69.026333737690948,130.285640890313516c21.922177262209516-4.553557561073831,40.236742857618083-1.999686473354814,53.735504121428676,0,8.248121656810326,1.221868109885691,13.579497581340547,2.534930230609461,20.736655121359945,4.297673163382569,26.876271789869861,6.619354207476135,35.935559419551282,6.332901167825185,42.565444451060102,14.23072666432563,3.883241359530075,4.625883845525095,4.522696396221363,10.139794053175137,5.801606469571198,21.167614468471584,1.828121798598659,15.764058520926483.283308418589513,29.795284574542166-2.23224217058123,41.138590926278994-55.489251975350271-9.850562046074629-134.144049755179367-19.701197222871997-189.633301730529638-29.55175926893935.441928955469848-11.718101304046286,2.197797600339982-19.55742222263143,4.545513181599745-24.817349431381444,2.251329289139903-5.04397218548911,6.128647060160802-7.639381523527845,8.096156015661109-9.340255865154177,2.80653773360973-2.426184846397518,20.888181978169087-7.814602734404616,37.736915373759985-11.764539312767738,8.198392765569224-1.921948515442637,12.354046066049705-4.05341655056327,18.64774916667011-5.360701344216068Z"/>
          <path class="cls-1" d="M68.627771300600216,131.22646763400553c3.126923428459122-.965837450756226,5.902526866499102-1.647708306431014,8.190933431889789-2.13695283929701,8.059590654460408-1.723106081233709,22.795943133469336-4.784723774580925,39.06284850162956-.034298308808502,2.852390696560178.832958928160224,5.164052831680237,1.733783166702779,6.760496501710804,2.410461741084873-.066548957389386.425182020047941-.132951653329656.850437170811347-.199500610720861,1.27561919085565-2.4061470284596,2.092562490804994-12.007333311139519,9.948484083368385-26.566928834108694,10.02724587139528-14.837638529541437.080297533197154-24.644760926510571-7.971541264683765-27.008711528151252-10.02724587139528-.079712487409779-.504967638182279-.159424974830472-1.009862145649095-.239137462249346-1.514829783835012Z"/>
          <path class="cls-3" d="M55.951205755500268,93.524245901222457c-6.604641992309553,1.609475920755358-13.138769229100944-3.613683775332902-14.474715964321149-11.57059700514219-1.3359467352293-7.956913229816564,2.999531579340328-15.828930336494523,9.6041735716517-17.438406257260795,1.623514130889816,9.669667754133116,3.247028261768719,19.339335508273507,4.870542392669449,29.009003262402985Z"/>
          <path class="cls-3" d="M133.188396798550457,90.351560310151399c5.929748516618929,1.219395438612992,11.644684787010192-4.380083336684038,12.660015122379264-12.404275839202455,1.015330335370891-8.024192502511141-3.028609270579182-15.630589392654656-8.958357787189016-16.849984831260372-1.23392243392118,9.751398256965331-2.467734901250878,19.502862413497496-3.701657335190248,29.254260670462827Z"/>
          <path class="cls-14" d="M144.121089175960151,73.283777150973037c-.160100983950542-.828065696816338-.509777158260476-2.105511806919822-1.255847045220435-2.463911050694151-1.604555036799866-.770831881291087-4.135838135620361,3.144681551770191-4.886699349910486,7.194791340047232-.291191801448804,1.570832082954439-.572921540529933,4.555147708568256.299793818561739,5.573591555941675.862167011629936,1.006143108610559,2.506783766179069-.308100669466512,3.183699851309939-2.632694166873989.498708418508613-1.712638664463157.548675265668862-4.236781763833278-.135369103019912-4.642471060455136-.419044047961506-.24850805105234-1.088739232671287.312586889089289-1.531263116341506,1.401498133531277-.513435816579658,1.263242650442407-.445649831459377,2.559054961024231-.437791796310194,2.686930753985507"/>
          <path class="cls-15" d="M43.735671330099649,76.776945723919198c.218429716949686-.818772958704358.67035503659099-2.076579620403209,1.522509985850775-2.396003338748415,1.832711164930515-.687008093009354,4.480969937219925,3.354396760481904,5.129766494299474,7.43827794516983.251602616039236,1.583928787778859.425691190619546,4.579104508688033-.599486766410337,5.551215747655078-1.012787248850145.960370502649312-2.791626961259681-.437187717943743-3.439340819730205-2.793867345328181-.477192807289612-1.73627763661716-.413621867190159-4.259880007906759.371337699931246-4.629738736512081.480863700569898-.226558345508238,1.203987445300299.368430538463144,1.647815128299044,1.478850293042342.514956137531044,1.28819797525648.377722673280005,2.578906929236837.362871698100207,2.706218745752267"/>
          <path class="cls-3" d="M73.153685448600299,115.608524296443647c.118471770289034,2.071427712027798.83500658838966,16.057897763534129-3.189084542489582,17.141110023749206-.317387335229796.085416683767107-.680115718339948.094850546956877-1.097692143261156-.008336902352312,2.363950601640681,2.055704606711515,12.171146129330737,10.107470273869694,27.008711528151252,10.02724587139528,14.559595522969175-.078761788026895,24.160781805649094-7.934683380590286,26.56707509555963-10.02724587139528-.296325687169883.124980404587404-.730429655350235.252666645897989-1.214262514760776.167761877186422-2.489077267659013-.436590412737132-3.407014095249906-5.989844949035614-3.826930703278776-8.530625637442427-.343568133850567-2.07881391499177-.639747559571333-5.141016654120904-.23913746226026-8.929334335978638-14.669584129460418.053166035188042-29.339095128199915.106258939649706-44.008679257660333.159424974837748Z"/>
          <path class="cls-8" d="M84.630601630169622,134.430032059543009c8.421002684561245,2.587950004348386,20.80671435342083-1.932918123802665,32.511725258151273-12.011136108714709-.193065107130678-1.881946010285901-.269413581321714-4.232733081891638.020037817939738-6.969796629222401-14.669584129460418.053166035188042-29.339095128199915.106258939649706-44.008679257660333.159424974837748.069839839899942,1.220551756887289.346347101300125,6.576938388479903-.260711025361161,10.993814629378903,3.107031871961226,5.166758668408875,8.966923527290419,6.976232132794394,11.737627206930483,7.827693133720459Z"/>
          <path class="cls-3" d="M139.822942872560816,50.150453974223637c-3.572289527881367-19.686790470557753-20.056978187350978-45.475389026152698-45.762719634460154-45.762719634469249-25.663983804621239-.286818693261012-43.254116463920582,25.037984820861311-46.559917639369814,43.370906227592059-.9144265529103,5.070957422067295-1.65326624133013,16.273414002458594,1.676594941778603,28.483904460434132,1.095498221580783,4.017289973697189,1.141058661640272,2.659544981583167,3.859254482591496,11.041934644727007,4.716931594908601,14.545993208597793,4.804249677459666,19.326329139832524,9.83286441124983,24.980796595940774,2.258130446329233,2.539171812510176,4.431868038989705,4.039302321139985,7.281626029538529,6.006006838684698,6.696726511780071,4.621569132905279,12.713044782331053,6.577304042093601,15.945203320319706,7.600549109942222,3.75460441883115,1.188666761918284,5.676699195721085,1.79930829397199,8.557172089680535,1.860299316453165,5.030369871130461.106478331817925,8.867100091210887-1.483456703917909,10.789706783150905-2.444979442054318,11.684388041028797-5.323039022179728,17.64892976010924-11.760443992316141,20.622424932969807-15.732539179567539.332452264039603-.444196007872961.843928536509338-1.061419304944138,1.409960327899171-1.996761244463414,1.919681463050438-3.172118214897637,2.933712059870231-7.356658150729345,7.412968806980643-21.389566210960766,1.277886243260582-4.003614528603066,2.336380319300588-7.237381942486536,2.986512441440937-9.211838316612557,1.925239397958649-6.060342965436575,3.971729533648613-15.654874352385377,1.948348706229808-26.805993165646214Z"/>
          <g class="cls-17">
            <path class="cls-12" d="M103.179232327780483,88.612043693876331c-2.837658826019833,8.347312324840459-15.637009822090477,8.86057656934463-18.111726315060878-.000151369169544,3.237000716049806,1.13140835644117,5.815180821740796,2.186116516835682,8.979652581871051,2.182485508257741,3.132759317979435-.001092597463867,5.929241036719759-1.123876205372653,9.132073733189827-2.182334139088198h0Z"/>
          </g>
          <g class="cls-17">
            <path class="cls-12" d="M89.663485257460707,58.183821037626331c.14402622489979-1.595015207183678-.333424940770783-3.128770430599616-1.511664243580526-4.242100314328127,1.70067826677041.50728259715288,2.36662751834956,2.784308847896682,1.511664243580526,4.242100314328127h0Z"/>
          </g>
          <g class="cls-17">
            <path class="cls-12" d="M99.649080960589345,58.524397209501331c-.880966935408651-1.442092779609084-.256248564559428-3.731002293619895,1.43497142797969-4.268726673481069-1.158139150909847,1.134506001237241-1.607405656699484,2.676571105839685-1.43497142797969,4.268726673481069h0Z"/>
          </g>
          <g>
            <g class="cls-17">
              <path class="cls-12" d="M101.846834866839345,71.503462150907581c4.063193549160133-9.62040251374674,17.236739822061281-10.372369257394894,23.342550368101001-2.348006312493453-.95033845404032-.646866734381547-1.888204664979639-1.262406285162797-2.872579664979639-1.783097203131547-7.157760320891612-3.951456896373202-15.45696077338107-2.474443973993402-20.469970703121362,4.131103515625h0Z"/>
            </g>
            <g class="cls-17">
              <path class="cls-12" d="M105.078036038710707,76.539717033720081c-1.064800990670847-.454398611145734-1.988696029970015-1.233523444803723-2.637596764159753-2.19003574080125-.206519446770471-.328579981855-.394385657711609-.67776211076125-.473731360840247-1.0657625990425.27001953125.283447265625.5205078125.55517578125.78369140625.8184814453125.730013135478657.758674691227498,1.6452058566083,1.635982417483319,2.32763671875,2.43731689453125h0Z"/>
            </g>
            <g class="cls-16">
              <path class="cls-12" d="M119.108553616839345,81.918440178251331c-6.161559074689649,1.581056119266577-14.661700029639178.755845282938026-17.662395986159027-5.694769994875969.500896962719708.656806127688469,1.004314931469708,1.302619115969719,1.630779775219708,1.821601049563469,4.251643071989747,3.96696655373853,10.513246205149699,4.163890225072464,16.031616210939319,3.8731689453125h0Z"/>
            </g>
            <g class="cls-17">
              <path class="cls-12" d="M101.375887601210707,68.553572014188831c.469872893369029-1.058109222256462,1.262656671329751-1.970205656547478,2.228488245518747-2.605187492352343.331692418551029-.201636238116407.683621129481253-.384375495928907,1.072659215420572-.457983894366407-.287353515619543.265869140625-.562744140619543.51226806640625-.829956054689319.77154541015625-.769129970720314.718916132222148-1.660040929820752,1.621036772419757-2.47119140625,2.2916259765625h0Z"/>
            </g>
            <g class="cls-17">
              <path class="cls-12" d="M130.493197171530483,68.425276115751331c-.896597312759695.732507612681729-2.015319279349569,1.189302869221137-3.163804731020718,1.320590270544926-.38685444867042.030483948205074-.78333882367042.034878479455074-1.163831987729282-.074862731482426.376342773430224-.10772705078125.733276367180224-.20355224609375,1.088623046869543-.314453125,1.010672691159925-.294871996491565,2.212632611659501-.698423357893262,3.239013671880457-.9312744140625h0Z"/>
            </g>
            <g class="cls-17">
              <path class="cls-12" d="M130.301912991839345,70.871992424345081c-1.111328603919901.324312239048595-2.319893371788567.307947821182097-3.428223248938593-.019617041409219-.368163469811407-.123022118747031-.734862688561407-.273778954684531-1.042357805750726-.523351708590781.388549804689319.0477294921875.754516601560681.098876953125,1.125.13555908203125,1.045607918069436.123219218952727,2.309734110449426.220904293018975,3.345581054689319.40740966796875h0Z"/>
            </g>
            <path class="cls-11" d="M124.711720438190241,70.315745822750614c-.208226711360112.388176800257497-3.804504801009898,6.817551887339505-11.268729972849542,7.285552533739974-6.90533070308993.432962696395407-11.146074974290968-4.610773436710588-11.548502816260225-5.10669229270934.709347820829862-.86761375430433,4.340756943480301-5.126230974066857,10.700768404789414-5.834530667285435,6.682347971240233-.744187975516979,11.322332165380431,2.993857633104199,12.116464384320352,3.655670426254801Z"/>
            <g class="cls-13">
              <circle class="cls-1" cx="113.024212407533014" cy="71.211218194883259" r="5.689869061651057"/>
            </g>
            <path class="cls-4" d="M101.798617093400026,72.418623283720081c5.253007023309692-7.610671131606068,16.518659997680516-8.934993825529091,23.240862460910648-2.480202829181508-.000017734340872-.000204885662242-.655535312480424.754922067462758-.655535312480424.754922067462758-4.84707956649072-3.901417341148772-11.835733142439494-4.90045715895576-17.387824871040721-1.906248183260686-1.853508136759046.945493788729436-3.553459308639503,2.241819472323186-5.005851886759046,3.783506484041936l-.191650390630457-.1519775390625h0Z"/>
          </g>
          <g>
            <g class="cls-17">
              <path class="cls-12" d="M63.587801663710707,70.222273186063831c4.724530066039733-8.159167005884228,17.214316302119187-8.407296592768034,22.150269328289141-.326461779435704-1.627198039219365-1.389480603376796-3.407715617349822-2.482681286970546-5.278443156410503-3.270156872908046-5.779652362760316-2.488067143311127-12.417421353609825-.716420247077622-16.871826171878638,3.59661865234375h0Z"/>
            </g>
            <g class="cls-17">
              <path class="cls-12" d="M86.718294827780483,72.683332756376331c-.633229484430558,1.484793891113441-1.987125260149696,2.556056024583086-3.472155332159673,3.113225135051835,1.069590944069205-1.1536810760972,2.343752352888259-2.033860472150991,3.472155332159673-3.113225135051835h0Z"/>
            </g>
            <g class="cls-16">
              <path class="cls-12" d="M87.805330960589345,75.365644768095081c-1.437644737399751,6.284345427848166-8.675768918199537,9.638311973532836-14.638019662228544,7.913710427166734,1.514240365349906.051682639239516,3.010212045039225-.029738259197984,4.465168099728544-.288710427166734,4.438071231959839-.689834006165256,8.28431501319028-3.522749428879251,10.1728515625-7.625h0Z"/>
            </g>
            <g class="cls-17">
              <path class="cls-12" d="M86.201327054339345,68.366987541532581c-.865338680820059-.595660268107167-1.834760999468926-1.418815424727654-2.662608687858665-2.066333922870399-.288807327769973-.234874573223351-.584705765269973-.456249084942101-.894276077769973-.695934143535851.39404296875.03924560546875.760620117189319.1904296875,1.108642578128638.3623046875,1.017860120990008.547916182375047,1.887251046769961,1.38704255121047,2.4482421875,2.39996337890625h0Z"/>
            </g>
            <g class="cls-17">
              <path class="cls-12" d="M58.335482327780483,70.279035881376331c1.040776959698633.141551538068597,2.277362928020011.439151885739193,3.308110220819799.643905882698164.363764779180201.079421754020586.727656380739063.143630738395586,1.112055794799744.217971558708086-.369506835939319.14263916015625-.764770507810681.1729736328125-1.152954101560681.17645263671875-1.155442891829807-.030114028475509-2.30998484966949-.387125540484703-3.267211914058862-1.038330078125h0Z"/>
            </g>
            <g class="cls-17">
              <path class="cls-12" d="M58.740267484030483,72.699568107938831c1.013566574240031-.276101138500962,2.268042560150207-.484924496269741,3.296995582419186-.698929235264586.365846214450357-.068893030360414.725953636330814-.151900842860414,1.108888206639676-.233504846766664-.284423828128638.2755126953125-.636596679689319.45782470703125-.992431640628638.612548828125-1.075633125621607.423446058628542-2.277765630880822.5456404889228-3.413452148430224.31988525390625h0Z"/>
            </g>
            <path class="cls-11" d="M63.650073107490243,71.470963683219452c.241427047229081.368446159500309,4.387035943400406,6.45811010658872,11.863565249179373,6.27051596772435,6.916713920949405-.173543513901677,10.699375195530592-5.569343717383163,11.05681849263965-6.098605438157392-.782616302180031-.802146919926599-4.773083197038432-4.726319036639325-11.170690716069657-4.874819123459019-6.721848623348706-.156016782337247-11.016581596879405,3.974080913860234-11.749693025749366,4.702908593892062Z"/>
            <g class="cls-18">
              <circle class="cls-1" cx="75.682388947832806" cy="71.02878279118795" r="5.68986906165097"/>
            </g>
            <path class="cls-4" d="M86.481722562150026,71.726972893095081c-6.376044995769917-5.934701212994696-16.198835791370584-6.01289784036635-22.472036106719315.091681528328991-.000009791720004-.000250864266491-.719248072970004-.695075083016491-.719248072970004-.695075083016491,4.413555290469958-5.056006199081821,12.26611090221013-6.637306571208683,18.237322442339064-3.532966392565868,1.968976385789574.968024986315868,3.732282049850255,2.317146080065868,5.131451971730712,3.968208091784618l-.177490234380457.16815185546875h0Z"/>
          </g>
          <g class="cls-17">
            <path class="cls-12" d="M93.237826077780483,68.281477287626331c1.114717249960449,4.178491396452955.686576105288623,8.814230021587719-1.197661847430936,12.709055318315222.542006296360341-4.30968997025775.927029021000635-8.373904509358908,1.197661847430936-12.709055318315222h0Z"/>
          </g>
          <g class="cls-17">
            <path class="cls-12" d="M107.639437405900026,95.384016350126331c4.741344920310439,3.056681205314817,5.69356166318903,10.392506797363239,2.275993561699579,14.76898996239288,2.173301164310033-4.90601196596981,1.455594413020663-10.81903997615882-2.275993561699579-14.76898996239288h0Z"/>
          </g>
          <g class="cls-17">
            <path class="cls-12" d="M102.302401273089345,133.162947014188831c-2.244838177848578,3.271666510294381-7.50954382369855,3.67425120302687-10.306157126009566.903920048511281,3.33773731141082,1.909113483336114,7.375714974639777,1.623295453640822,10.306157126009566-.903920048511281h0Z"/>
          </g>
          <g class="cls-17">
            <path class="cls-12" d="M81.890536038710707,92.389448479032581c-3.601353678021042,2.891657816691804-5.748517049751172,7.105827817766112-5.514358167391038,11.673056603001896.069045667391038,1.488991736841854.319167737710814,2.991250037623104.784499768960814,4.465798377466854-3.530889155461409-5.401506008840443-1.194603960640961-13.58412535278876,4.729858398430224-16.13885498046875h0Z"/>
          </g>
          <g class="cls-16">
            <path class="cls-12" d="M76.594637601210707,95.384016350126331c-3.05569223458042,3.041217126292395-3.810461698431027,7.330569740886858-2.194953296189851,11.299030383504942-2.851628354330387-3.361582864916272-1.765844004241444-9.286254205380828,2.194953296189851-11.299030383504942h0Z"/>
          </g>
          <g class="cls-16">
            <path class="cls-12" d="M111.902865140280483,97.225080803251331c3.10970590235047,2.315200287666812,3.367631912858997,7.491835920971425.673617740680129,10.219664842068596,1.702885988359412-3.339283908993821,1.546521667080015-7.16140451670617-.673617740680129-10.219664842068596h0Z"/>
          </g>
          <path class="cls-5" d="M136.473515966490595,78.418769836425781c-.081298828121362-7.290771484375-1.072265625-12.99945068359375-1.981201171871362-16.909912109375-.437255859378638-1.881210327148438-1.388427734378638-4.631744384765625-2.395385742189319-9.04937744140625-.797607421869543-3.498947143554688-1.305908203119543-6.404281616210938-1.614379882810681-8.342872619628906-4.866943359378638-1.407279968261719-10.678588867189319-3.500778198242188-16.939086914058862-6.677017211914062-6.517578125-3.30670166015625-11.8115234375-6.919303894042969-15.9140625-10.132087707519531,2.553100585930224-6.27618408203125,5.106323242180224-12.5523681640625,7.659423828119543-18.82855224609375,3.12158203125-.73309326171875,11.281616210939319-2.22174072265625,19.479248046880457,1.90264892578125,3.794921875,1.9093017578125,7.601928710930224,5.01318359375,10.8623046875,9.95001220703125,9.626831054680224,14.57647705078125,10.286865234369543,38.77020263671875.843139648430224,58.087158203125Z"/>
          <path class="cls-5" d="M117.157475927429914,8.769828796386719c-.999755859369543,2.799827575683594-7.502685546869543,20.098800659179688-26.148681640619543,27.605125427246094-13.956420898441138,5.618423461914062-26.432861328130457,2.416130065917969-30.342041015630457,1.242073059082031-1.984008789060681,3.231369018554688-3.968139648439319,6.462738037109375-5.9521484375,9.694107055664062-.500122070310681,5.52227783203125-1.000244140619543,11.0445556640625-1.500366210939319,16.56683349609375-.177490234371362,5.204879760742188-.354858398430224,10.409744262695312-.532348632810681,15.6146240234375-2.367431640619543-4.35821533203125-5.205444335939319-10.812576293945312-6.566162109369543-19.04193115234375-.663330078130457-4.011856079101562-.752075195319776-7.0936279296875-.797485351569776-8.904678344726562-.159301757810681-6.355453491210938-.333740234371362-13.3165283203125,2.927734375-20.760345458984375,1.897094726569776-4.329780578613281,4.305786132819776-7.337394714355469,6.74267578125-10.380172729492188.526123046878638-.656906127929688,4.012573242189319-4.979461669921875,7.6298828125-7.984748840332031,8.553344726569776-7.106300354003906,19.25927734375-7.955085754394531,25.018920898439319-8.517066955566406,13.664184570310681-1.333244323730469,24.38818359375,2.583045959472656,29.52001953125,4.866180419921875Z"/>
          <ellipse class="cls-9" cx="121.899413445847131" cy="86.114578264568991" rx="14.831661226057802" ry="11.907359779826947"/>
          <ellipse class="cls-6" cx="66.075033785537926" cy="86.114578264568991" rx="14.831661226057802" ry="11.907359779826947"/>
          <g class="cls-16">
            <path class="cls-12" d="M125.598543851210707,99.251020744657581c.859037575539332-3.096781772173927,1.671751547110034-6.164467819960919,2.320780297859528-9.307195055431293.525534511589285-3.057114652554446,1.840325227229187-6.902775281025242,5.300601239319803-7.613289744391295-3.122889461870727,1.383915861955757-3.895241072790668,4.712463243409729-4.493310481939261,7.791545524300091-.68433353870023,3.142073447153962-1.6884984399112,6.245828572968094-3.128071055240071,9.128939275522498h0Z"/>
          </g>
          <g class="cls-16">
            <path class="cls-12" d="M63.648470609030483,99.251020744657581c-1.439545570110567-2.88304114931816-2.443920009160138-5.986850056655385-3.127929980730187-9.129027069062431-.59764564498073-3.077786862808352-1.371604268300871-6.409128977758883-4.493434003630682-7.791468062599961,3.461461003760633.71274178731619,4.773938797210576,4.554651976050081,5.300272432710699,7.613408967919895.649343155619135,3.142623249244934,1.461982255010298,6.210265143163269,2.32109155165017,9.307086163742497h0Z"/>
          </g>
          <path class="cls-5" d="M115.650517919619233,10.224906921386719c.191528320310681-1.002334594726562.455688476560681-3.112823486328125-.332641601558862-5.589317321777344-.759521484380457-2.385971069335938-2.11669921875-3.9205322265625-2.838989257819776-4.635589599609375-.043212890621362,1.420455932617188-.0947265625,2.854850769042969-.1552734375,4.302886962890625-.059326171871362,1.418571472167969-.1259765625,2.823379516601562-.19970703125,4.21417236328125l3.526611328128638,1.707847595214844Z"/>
          <path class="cls-5" d="M114.540750514719548,8.520886647816951c.499635888600096-.590991319259047,1.611897276659874-1.764177507920976,3.392644281781031-2.578793187214615,1.715658791268652-.784835582078813,3.195266279630232-.845084448574198,3.923640883649568-.827160839919088-.806879460929849.720740921777178-1.618265967090338,1.452585169023223-2.433669420590377,2.195761195947853-.798806681588758.728059626060713-1.586442246280058,1.453097911806253-2.362866081009997,2.17486609579646l-2.519749663830225-.96467326461061Z"/>
          <path class="cls-5" d="M99.117207275499823,16.549993469867331c-3.540458627228873.55156137866652-5.12060234754972,1.539071593964763-6.047163741059194,2.774301438508701-1.011067336241467,1.347883906542847-1.534956075431182,3.393798321580107-1.863537448851275,4.614426070729678-.229112114719101.851180037050653-.401491738090044,1.745408209917514-.518972668209244,2.735901441163151-.197543960499388,1.665381064736721.010222372100543,4.077794644617825,1.929451780830277,7.205505102774623.781629799548682-2.727634992454114,1.563101826030106-5.455128127097851,2.344663758920433-8.182666215725476.245322673228657,2.234817977248895.955248787018718,5.899455933886202,3.263873658639568,9.732319275728514,1.344540113070252,2.232142363540333,2.853889995059944,3.894624256012321,4.107768791469425,5.066675307418336-.700843265220101-3.9427417336301-1.401701223599957-7.885518100487388-2.102454582400242-11.828304788105015.353142090820256,1.718085500499001,1.753939783440728,7.446573360968614,7.109601322879826,11.807325645597302,4.275964885409849,3.481618058649474,8.79594640437972,4.237342991484184,10.685522722091264,4.444391021836054-2.005363900550947-2.421667278689711-4.010817707510796-4.843289603395533-6.016208545521295-7.265020376336906.995101911539678,1.25230421820379,2.75551847503084,3.149522431969672,5.468357358251524,4.715778816098464,2.531831782969675,1.461722705687862,4.88404382923909,2.052336027867568,6.4174688508283,2.313559002974216-.801720483999816-2.09420349949869-1.603528425548575-4.188356272810779-2.405266051579019-6.282600177743006,1.524504083159627.429510234491318,3.380989982069877.810038767227525,5.510158896959183.955318691379944,4.02514066546064.274671763763763,7.371790296760082-.404149315698305,9.645470030831348-1.076479874809593-1.748029652080731-2.895509687285085-9.941405078059688-15.958393944409181-22.903993922631344-20.489787515190983-.365823303798607-.127883656998165-7.116529290049584-2.410318454076332-14.624740211449534-1.240642866298003Z"/>
          <g>
            <path class="cls-11" d="M107.902278032170216,102.430857211351395c-2.600250244140625,1.13671875-9.615005493169519,3.777099609375-18.061447143560144,1.72882080078125-4.253677368160425-1.03155517578125-7.448410034179688-2.9073486328125-9.496353149410425-4.3717041015625.145065307609912.82904052734375,1.538513183590112,8.14312744140625,7.601303100580481,10.955322265625,6.335983276370825,2.93890380859375,15.379196166999463-.1485595703125,19.956497192390088-8.31243896484375Z"/>
            <path class="cls-7" d="M107.386263577780483,102.946455314970081c-8.804446156269478,3.887779568052792-19.504418527350936,2.919275425396336-27.323475861991028-2.76441545706075-.000010466139429.00013323049825.758900666671252-.477466867158.758900666671252-.477466867158,3.228532917009943,15.3115243726279,18.690524356748938,14.735524582305516,26.564575195319776,3.24188232421875h0ZM108.110018460589345,102.252790764188831c-.38240265614877,1.168691402799595-1.160643709868964,2.312324095690201-1.93841857796906,3.282316869763235-1.272357040759744,1.509529184293569-2.720903486620955,2.936963503203515-4.402280703339784,3.994051377045253-10.290355308490689,6.507999389987162-20.527473548310809.927474925139904-22.130109493869895-10.852442877452631-.000138490449899.000085861112893.987166197050101.717187911894143.987166197050101.717187911894143,7.478370553490095,5.567829874584277,17.734790030908698,6.521813637047671,26.336806477818755,3.128168842536979.305589357039935-.140548396329905.840677266331113-.296132857221892,1.146836100309883-.269282123786979h0Z"/>
          </g>
          <polygon class="cls-5" points="101.211703030900026 59.923017814970081 121.668734280900026 53.192488029813831 122.452303616839345 52.934675529813831 122.932894437150026 53.280256584501331 130.696688382460707 58.862715080595081 130.116976468400026 59.840254143095081 121.494295804339345 55.706343010282581 122.758211819960707 55.794111564970081 103.610018460589345 65.649824455595081 101.211703030900026 59.923017814970081 101.211703030900026 59.923017814970081"/>
          <polygon class="cls-5" points="85.068392484030483 65.649824455595081 65.920199124650026 55.794111564970081 67.184115140280483 55.706343010282581 58.561434476210707 59.840254143095081 57.981722562150026 58.862715080595081 65.745516507460707 53.280256584501331 66.226229398089345 52.934675529813831 67.009798734030483 53.192488029813831 87.466707913710707 59.923017814970081 85.068392484030483 65.649824455595081 85.068392484030483 65.649824455595081"/>
        </g>
      </g>
    </g>
  </g>
</svg>