<?xml version="1.0" encoding="UTF-8"?>
<svg id="Layer_2" data-name="Layer 2" xmlns="http://www.w3.org/2000/svg" width="38.87957521442695" height="78.758613618386335" viewBox="0 0 38.87957521442695 78.758613618386335">
  <defs>
    <style>
      .cls-1 {
        fill: #e0b280;
      }

      .cls-1, .cls-2, .cls-3, .cls-4 {
        stroke-width: 0px;
      }

      .cls-2 {
        fill: #e0bb86;
      }

      .cls-3 {
        fill: #79c4e0;
      }

      .cls-4 {
        fill: #deaa7a;
      }
    </style>
  </defs>
  <g id="Layer_1-2" data-name="Layer 1">
    <g>
      <path class="cls-1" d="M12.583647995679712,61.425574818090354c-.769434777565039,6.649865880652214,2.793754264954259,13.401523999636993,9.082450288538894,17.333038800295981,2.028185231758471-.424632310465313,4.879060169794684-1.269341294571859,7.917933760638334-3.059659792143066,2.145982445510526-1.264187780307111,3.797323819868325-2.653270456492464,5.004387278580907-3.835344193830679-.796964647543064-3.705012872851512-2.105363679438597-6.53601040394642-3.098528587284818-8.432168090601408-1.761175115134392-3.36248882662403-4.398521840481408-6.957502930927149-8.355818203368472-9.828268966328324-1.658158387142976-1.203037963137831-3.320996669595843-2.113854099570744-4.893595595836814-2.809008264577642-1.265394436270071,1.151251311513988-4.986681388329089,4.840881582536895-5.656828941268031,10.631410507185137Z"/>
      <path class="cls-3" d="M5.961852879969229,49.414091930245377c-.098137850822241.408430405537729-.084045334730035.830646717546188.050478410073993,1.228578616261075,1.177590154813515,3.483405007011243,2.921957361157183,7.654528816810853,5.54706847935995,12.086691336846343,1.380763067320004,2.33133509750769,2.809300130673364,4.404063548528939,4.203341887028728,6.22778601137361,1.089208778550528,1.424931862426092,3.334134947559505,1.020390400373799,3.886861095517816-.685862916454425l15.453531516639487-47.704707846051861c.224953924907823-.694427759451173.096073368500583-1.454984569480075-.345096414097497-2.036537150383083C30.295891342388131,12.648012420477244,25.83376776195837,6.766144176491252,21.371627579104825.884160587454062c-1.138035802359809-1.500156346260155-3.507955423900057-1.003509616622068-3.947874950757978.827355031722618-3.820640598485625,15.900807713127506-7.641254282846603,31.801802411628159-11.461899748377618,47.702576311068697Z"/>
      <path class="cls-4" d="M28.752968293536469,28.492404741299652c1.659124242584767,10.173074912652737,5.849669931487369,18.00328742959573,9.322821953281164,23.145324926108515-.308663894381425-9.172086253644011-.617289917341623-18.343909396284289-.925953811723957-27.5159956499283-1.663459260451418-2.492648900136373-3.592682150774635-5.127249740851767-5.826681027478116-7.824064056649149-3.664341624515146-4.423507924231671-7.358075737887702-8.060463759354207-10.746654583872441-11.010316686476472-.08481534706516-.022973564966378-.208842189995266-.047822881762841-.357876593589026-.044902094220561-1.03731883855653.02147305424387-1.741705731105867,1.365228740442035-1.852306485094232,1.576392939724428-.693750786317651,1.323425408835647-.000149464466631,3.464741269887782,1.670345358101258,5.376551900581035,2.666262090750024,2.750077328687439,5.33259992434796,5.500680879385072,7.998862015097984,8.250758208073421.041135301418763,2.477204357257506.24936147569133,5.17582391331598.717443175277367,8.046250512787083Z"/>
      <path class="cls-1" d="M37.347290352743585,47.104520189367577c-.869813512716064-7.518884887878812-1.739758580933994-15.03775084004883-2.609572093650058-22.556635727927642-2.601648776137154-1.728367645901017-5.516140354970048-3.486365886461499-8.74849000107497-5.181961722521919-5.302091271980316-2.781046742621584-10.316215382814335-4.79382787418217-14.760743457103672-6.268485073657757-.090793227600443.011994261273685-.220142203143041.037863548667701-.362158459707643.100737763339566-.988985120275174.437501361458999-1.126111380013754,2.013019203453041-1.147691029367707,2.260516832966459-.135065169337395,1.551587709202067,1.392700253461953,3.331936236043475,3.767576609121534,4.498885452994728,3.66965223599982,1.57303100156696,7.339342343422686,3.146325114137653,11.008994579420687,4.719356115701885,4.284040574596474,7.475949823370684,8.568043277771721,14.951636535735815,12.852083852361829,22.42758635910468Z"/>
      <path class="cls-2" d="M18.271580521106443,46.678166863203842c1.191717171315759,1.869551912363022,1.892698073523206,3.633626075634311,2.315989100119623,4.997881210016203-.006304419708613,1.399944227412561-.056731926881184,3.584934595828599-.296429414995146,6.280861711369653-.134401217339473,1.51161833471815-.243077682183866,2.226039328723346-.453195123936894,4.178971970735802-.322261972003616,2.995412913320251-.582519225541546,5.414837302741944-.613682787318794,6.945387881005445-.04438990516519,2.180668140004855.31688413451684,5.479745310300132,2.441835989243373,9.67734398205539,1.674973100496572-.346659760132752,3.80253554965384-.958255822706633,6.109042931755539-2.082262355783314,3.115983160796532-1.518502189956052,5.359743765344319-3.387753317458191,6.813278107463702-4.81274163019043,1.526456305393367-2.386099397184807,4.192123118458767-7.324056886545804,4.288470645848065-13.938951402369639.04188529291423-2.875386206847907-.412312465887226-5.337748154750443-.937285723917739-7.233218719702563-1.446360811100021-6.960152026465948-2.892661209645667-13.920312748537981-4.339022020747507-20.880464775003929-1.102063059548527-1.10573452089011-2.470968036766862-2.319574680537698-4.134744828805196-3.505524604994207-2.273175340356829-1.620160464452056-4.446039596143237-2.72420085473459-6.24682201592077-3.481227131720516-3.000369930714442-.128786264482187-6.18260558471593-.172444361843191-9.528354444450088-.096864051477496-2.797356794304505.063243680329833-5.474236527586982.204355732627846-8.020389159548358.402868230587956-.0690883269599.081228155804638-.159657986509046.205999969717595-.225323134411155.37355856071008-.467145402675669,1.191994073327805,1.02450606673483,2.752231749900602,1.37617024870633,3.120190659083164,1.46626362000643,1.533799811737481,3.421708518008018,1.89931935119057,4.387323925919191,2.003535017731338,3.374453602249559.083574747259263,6.749062812028569.167373753523862,10.123516414278129.250948500783124,1.565655227292154,1.458322815629799,3.131466062113759,2.916869890268572,4.697121289407733,4.375192705898371.322677632835621,2.552823009629719.645269222981369,5.105905060689111.96794685581699,7.658728070320649l-6.09243843341028-2.798503808524401c-1.692525433862102-.562703619103559-3.750526616944626-1.102647195939426-6.122019897906284-1.436894133725218-3.076547607576686-.433542046801449-5.777081362817626-.393361087279118-7.908218161401237-.206733346443798-1.185948476895646.433391312735694-2.397898211642314.896917436550211-3.633015313014766,1.393130349859348-1.052876115680192.423116910198587-2.076882374494744.851451332753641-3.071813735374235,1.283000501074639-.074357174220495.143157399119445-.158224898919798.353047743677962-.168501110481884.609816553134806-.047900765116538,1.212059318648244,1.603653175367072,2.128446197180892,2.102909049543086,2.405357347615791,2.17051892125528,1.204273933284639,4.65055009716707.578943065165731,5.56902447687753.296526640031516,2.624988088033206.268654151752344,5.249890133376539.537567344934359,7.874878221409745.806221496684884.844168016006734.855006807803875,1.811470797603761,1.982851549772022,2.723748049251299,3.413864571237355Z"/>
    </g>
  </g>
</svg>