<?xml version="1.0" encoding="UTF-8"?>
<svg xmlns="http://www.w3.org/2000/svg" width="60.331387955257014" height="75.40218294674014" viewBox="0 0 60.331387955257014 75.40218294674014">
  <defs>
    <style>
      .cls-1 {
        fill: #79c4e0;
      }

      .cls-1, .cls-2, .cls-3, .cls-4 {
        stroke-width: 0px;
      }

      .cls-2 {
        fill: #e2bc86;
      }

      .cls-5 {
        isolation: isolate;
      }

      .cls-3 {
        fill: #e9e9de;
        mix-blend-mode: screen;
      }

      .cls-4 {
        fill: #151c22;
        mix-blend-mode: multiply;
      }
    </style>
  </defs>
  <g class="cls-5">
    <g id="Layer_2" data-name="Layer 2">
      <g id="Layer_1-2" data-name="Layer 1">
        <g>
          <path class="cls-2" d="M59.262492994839704,50.510938469735265c2.212363655182344-1.359207294935914.890902485640254-9.487700689489429-3.044305552779406-15.02693238424763-2.126117098579925-2.9926416157723-.76277233268047-3.605222274323751-12.128072214760323-9.403276228065806-1.680562979849128-.857231045894878-2.883260284819698-2.311896266364784-4.07919705473978-1.857004649085866-1.48900707301982.56635959621417-2.10683571105983,3.401803021635715-1.595207911030229,5.63617978133334.539369300990074,2.357183933196211,2.136488407801153,3.176241782191937,4.542544206500679,5.734334716889862,3.336332614859202,3.547070279455511,2.718800711589211,4.580590762685461,5.522937197660212,7.923922598114586,3.008705257880138,3.587295464363706,8.664809109839553,8.292929602142976,10.781301329148846,6.992776165061514Z"/>
          <g>
            <path class="cls-1" d="M41.685626025780948,64.062988367371872h-25.608131563811185c-3.043079331819172,0-5.66602632535978-2.163739112602343-5.831420794118458-4.851366192167916L7.027619857970421,6.912390655932541c-.231929205940105-3.768803268274496,2.59970687375062-6.912390655932541,6.297039082819538-6.912390655932541h31.113802606159879c3.697332209079832,0,6.528968288759643,3.143587387658044,6.297039082830452,6.912390655932541l-3.218453809889979,52.299231519271416c-.165394468760496,2.687627079565573-2.788341462290191,4.851366192167916-5.831420794109363,4.851366192167916Z"/>
            <path class="cls-4" d="M10.698482118361426,20.10494856987134l-.799651704070129-13.443566486261261c-.107710172680527-1.810799452268839.993583874698743-3.45150335710423,2.467679368019162-3.559449083331856l3.244113173410369-.237561375142832c1.528621998730159-.111938617643318,2.696306708268821,1.414285927243327,2.584228239829827,3.29848713067986l-.826226928089454,13.890070001474669c-.068673110270538,1.154494336151402-1.049220015700485,2.064318178254325-2.172746299731443,2.064317435608245l-2.395808882889469-.000001583619451c-1.093790727480155-.000000723000994-2.034673219979595-.887357024887024-2.101586966478862-2.012296039407374Z"/>
            <path class="cls-3" d="M21.211334216450268,7.59896330990523h-.000003097678928c-.851861502980682-.000000004540198-1.54625396531992-.713502966540545-1.543080127110443-1.589490658210707l.000009077319191-.002505364805984c.003189649900378-.880351760533813.709101764379739-1.603899077108508,1.568679153609992-1.60389907332501h.000003172279321c.859577375451408.000000003783498,1.553894171620414.723547314937605,1.542975623400707,1.603899061399716l-.000031073099308.002505392851162c-.010864423109524.875987691882074-.71669122548974,1.589490646620106-1.568552728720533,1.589490642090823Z"/>
          </g>
          <path class="cls-2" d="M46.303439901730599,37.17474619494169c3.234932582050533-.713810178047424,6.373976282990043-.022830685968074,8.060461493920229,1.222934475299553,4.836417392891235,3.572475493161619,6.278789884549042,12.322687134532316,5.275469046258877,18.647226201352169-1.188425015348912,7.491977413137647-5.786876412097627,11.441510466207546-7.146531572259846,12.494707572317566-.177552488628862.137423167503584-.368100906189284.256757406892575-.538101706379166.37152550907922-4.056486035829948,2.74020917902817-7.68744320920996,3.827476693437347-8.725888179769754,4.119006991277274-4.278821793101088,1.201333133951266-7.751895991939818,2.17646685609725-10.190740116080633.396551453330176-2.420930816688269-1.76700728416472-3.550171669170595-4.529520287178457-3.550171669170595-4.529608097513119-.04267582070861-.105635827796505-.074638781068643-.188440969624025-.095713260428965-.243585857289872-.011590963649724-.030470184741716-1.98451347324044-5.638037901604548.140320908409194-13.153636293700401,1.949038099650352-6.893725630245171,6.248056268810615-11.510002524133597,8.409244127369675-13.559583452402876.40621058969009-.079292728598375,1.430430286680348-.335347652842756,2.346292035621445-1.227588422829285.866161101759644-.843681657119305,1.160676950848938-1.793877245341719,1.261483210460028-2.198419438758719.852287069529666-.702394835065206,2.462904154758689-1.834006566466996,4.753875682049511-2.339530640161684Z"/>
          <path class="cls-2" d="M53.232377474580062,43.879416183252033c1.79308695238069-2.342779622387752,1.579005366189449-3.097948466191156,1.10395147725103-3.646587412247754-1.134591240910595-1.798495711231226-2.451077576210082-3.694381724730192-3.776282420230018-5.332858364396088-2.304217127460106-2.862669524369267-5.11201514791901-5.336942145178909-8.2775371081907-7.275884147158649-6.61602929691071-1.146082482624479-13.022201447620319-3.529389878101028-19.813755087070604-3.221294549966842-1.184233647129076.02723585306012-2.131785875530113,1.043399370653788-2.009638178288697,2.234641893104708.066547450248436.685081301016908.477324177149967,1.263400138843281,1.034217294281007,1.578112363986293,1.489087587578979.827700176931103,3.033495683477668,1.425776339158801,4.576850055407704,2.023940311708429,4.5291419937912,1.598242909338296,9.35674238907086,3.828691597052966,14.119710273191231,4.500278009509202.000015278588762-.000086372776423-1.862090593691391-1.257003446046838-1.862090593691391-1.257003446046838,1.561332076833423,4.169049407918465,4.235023827010082,7.700073427676216,7.196495559590403,10.94737262506078.000087901160441-.000058699893998,1.504454486270333,1.583249372491991,1.504454486270333,1.583249372491991.576818183379146,1.461224021917587,5.083867784969698-.358112530811923,6.203624241479702-2.133966656045232h0Z"/>
          <path class="cls-2" d="M49.094579072550914,51.373149803002889c.185630361620497-1.592961718789411.543632177299514-3.433298405073401-.757668974010812-4.119235632999334-3.026483639190701-1.588203611816425-6.149261470129204-2.952524372190055-9.420261825269336-3.980455333370628-4.183865535487712-1.329866036336171-8.437849127900336-2.522209628335986-12.54823941074028-4.067372661083937-4.654253864129714-1.043526831686904-9.75112534685104-2.337469019141281-14.490298935359533-2.781953627396433-2.344592903879857.050312556570134-6.798941496121188-1.900456204075454-7.294816987990998,1.604409870407835-.064366924840215.977752862396301.51112190350068,1.77371022272564,1.315303855370075,2.198733589204494,5.687025965320572,3.464485259657522,12.361142206440491,4.034044524312776,18.648620265479622,5.743184461374767-.00001592749868.000070928796049-.506330294168947-.178886525118287-.506330294168947-.178886525118287l2.802203272480256,1.442109060666553c5.730358170820182,3.180967732321733,11.213793622910089,7.02724394640245,17.454987972629169,9.147969136407482.691443719209929.304479295427882,1.260446761019921.006248013847653,1.958984241789949-.539723080404656,1.105909405921011-.8431038559429,2.688880510640956-2.854116467839049,2.837516819790835-4.468779257687856h0Z"/>
          <path class="cls-2" d="M45.162608085611282,59.701344995159161c-.289422849900802-4.769593731241912-2.7637423476408-4.02785986804065-4.512924134680361-5.115127382450737-5.72002392297145-2.374244141261443-11.497189474061088-4.601017828092154-17.346573952130711-6.643392805362964-3.700500744620513-.955973907097359-9.814518583148129-2.55656792512309-12.375912491490453-2.922853046457021-2.534462908948626-.801871132225642-5.104495667119409-1.518403430527542-7.707720730299116-2.155555189896404-1.39513053374958-.341582186323649-2.803081375779584.512548900147522-3.144663562110509,1.907679433898011-.275373196989676,1.125552818586584.230765549009448,2.260676963211154,1.167877397972916,2.836273680783052,5.591069132829034,3.791439678324423,14.016313102756612,6.850924510821642,19.118145800057391,8.661282843699155,5.560155549430419,2.471650988452893,11.192778568010908,4.759792667460715,16.881798844250625,6.91145972007871,2.019118607108794.406366740030535,3.313091639928643,2.641929948669713,6.791961320589508-.634010057801788.806801318229191-.759734980998473,1.185088222779086-1.819605672232683,1.128011507840711-2.845757196490013h0Z"/>
          <path class="cls-2" d="M38.015374030699604,68.089514643150324c.3744232500012-2.477041617985378-.050227509138494-3.231420168813202-.665251065189295-3.588193542338558-4.050271612779397-2.948741472999245-9.114710370000466-3.937816552319418-13.599962607398993-6.044923832763743-2.741731506210272-1.150885639290209-9.176239616381281-3.769822785045108-11.801229076219897-4.964986146551382-2.306684400620725-.801667796033144-5.648105887190468-3.73051151125037-7.381088524971346-.600888963661419-1.375999560799755,3.129687043110607,2.751926940200065,4.202902186421852,4.617402598991248,5.732913762389217,2.092230627951722,1.342972090129479,5.06563462656959,3.491827602327248,7.144298312439787,4.935937405462028,3.532009927199397,2.622512675785401,7.702142099318735,4.077012045698211,10.851850209639451,7.26014496172138,1.665613973280415,1.510803337780089,3.467462735339723,2.724142595216108,5.644582578399422,3.244579922116827.662248166059726.286117390052823,1.623946907609934-.051513331392925,3.891034024960391-3.202411426973413.631711712010656-.805145024492958,1.175776497080733-1.783532758261572,1.298363549349233-2.772172139400936h0Z"/>
        </g>
      </g>
    </g>
  </g>
</svg>