<?xml version="1.0" encoding="UTF-8"?>
<svg xmlns="http://www.w3.org/2000/svg" width="177.469585206337797" height="231.454669267786812" xmlns:xlink="http://www.w3.org/1999/xlink" viewBox="0 0 177.469585206337797 231.454669267786812">
  <defs>
    <style>
      .cls-1 {
        fill: #3657a6;
      }

      .cls-1, .cls-2, .cls-3, .cls-4, .cls-5, .cls-6, .cls-7, .cls-8, .cls-9, .cls-10, .cls-11, .cls-12, .cls-13 {
        stroke-width: 0px;
      }

      .cls-2 {
        fill: #271e1e;
      }

      .cls-3 {
        fill: #151c22;
      }

      .cls-14 {
        clip-path: url(#clippath);
      }

      .cls-4, .cls-15, .cls-16 {
        fill: none;
      }

      .cls-17, .cls-8, .cls-10, .cls-16, .cls-11, .cls-18 {
        mix-blend-mode: multiply;
      }

      .cls-5 {
        fill: #79c4e0;
      }

      .cls-19 {
        clip-path: url(#clippath-1);
      }

      .cls-15 {
        stroke: #27201d;
        stroke-width: 1.85461063707757px;
      }

      .cls-15, .cls-16 {
        stroke-miterlimit: 10;
      }

      .cls-6 {
        fill: #5e5a5b;
      }

      .cls-7 {
        fill: #dc5b42;
      }

      .cls-8 {
        fill: url(#radial-gradient-2);
      }

      .cls-8, .cls-11 {
        opacity: .4;
      }

      .cls-9 {
        fill: #e9e9de;
      }

      .cls-10, .cls-13 {
        fill: #f1b068;
      }

      .cls-16 {
        stroke: #f1b068;
        stroke-width: .618203545692524px;
      }

      .cls-20 {
        isolation: isolate;
      }

      .cls-11 {
        fill: url(#radial-gradient);
      }

      .cls-12 {
        fill: #fff;
      }

      .cls-18 {
        opacity: .6;
      }
    </style>
    <radialGradient id="radial-gradient" cx="-33.382726605010248" cy="33.482079330531633" fx="-33.382726605010248" fy="33.482079330531633" r="17.129250662058258" gradientTransform="translate(141.46330715941312 82.030281145767844) scale(.853091239733539 .645477583935139)" gradientUnits="userSpaceOnUse">
      <stop offset=".537641841231661" stop-color="#e984a2"/>
      <stop offset=".592832570610897" stop-color="rgba(233, 132, 162, .886871293855677)" stop-opacity=".886871293855677"/>
      <stop offset=".711273432585101" stop-color="rgba(233, 132, 162, .596518194573597)" stop-opacity=".596518194573597"/>
      <stop offset=".8824215114979" stop-color="rgba(233, 132, 162, .136328760171738)" stop-opacity=".136328760171738"/>
      <stop offset=".931113028771807" stop-color="#e984a2" stop-opacity="0"/>
    </radialGradient>
    <radialGradient id="radial-gradient-2" cx="-38.10375747643775" cy="190.666016713898898" fx="-38.10375747643775" fy="190.666016713898898" r="17.129250662059512" gradientTransform="translate(180.231055680988447 136.148194521248058) rotate(89.999999999994387) scale(.853091239733539 .645477583935139)" xlink:href="#radial-gradient"/>
    <clipPath id="clippath">
      <path class="cls-4" d="M118.446511359898068,86.725580192844063c-.187648201743286.375346363554854-3.436045037931763,6.596249908402569-10.531027598159199,7.246414460714732-6.563735540012203.601486617353657-10.740175000026284-4.085217476345861-11.136974343986367-4.546429938065558.651704546517067-.845620137362857,3.993031148698719-5.000382978487323,10.029942758037578-5.849118017151341,6.34287311602202-.891741287723562,10.863714212226114,2.540680848753254,11.638059184107988,3.149133494502166Z"/>
    </clipPath>
    <clipPath id="clippath-1">
      <path class="cls-4" d="M52.856138173383442,86.430705875354761c.165389058747678.406101700657018,3.050656282063755,7.147835911328002,10.390303094052797,8.394343175226822,6.79007987760815,1.153177481297462,11.517197420278535-3.394570821516936,11.967594278288743-3.843247806169529-.611134952088833-.933274924609577-3.75896067798385-5.529885943935369-9.980343224960961-6.898394902549626-6.536694106785944-1.437857898665243-11.522005755488863,1.775508399095997-12.377554147380579,2.347299533492333Z"/>
    </clipPath>
  </defs>
  <g class="cls-20">
    <g id="Layer_2" data-name="Layer 2">
      <g id="Layer_1-2" data-name="Layer 1">
        <g>
          <path class="cls-6" d="M116.325663178076866,18.921390689307373c0,3.559342460927837-.947859378638896,6.570993265702782-2.763650994722411,9.419104936199801-1.820436766378407,2.855397697512672-4.099054833972332,5.197335059561738-7.198780737353445,6.826134872680996-2.92732416110448,1.538208601394217-6.120697135726004,2.518499267616789-9.715116688814305,2.518499267616789-3.594498008808841,0-6.903728339092595-.759971686906283-9.831096810449708-2.298242728311379-3.099712926495158-1.628834455979813-5.111802361762784-4.287240335320348-6.932207795975046-7.142667614654783-1.815713735830286-2.848068037655139-2.864696078023371-5.763568765954915-2.864696078023371-9.32282873569693,0-3.559342460927837.297334988814328-6.954141320328745,2.113126604894205-9.802252990826673,1.820436766376588-2.855397697513581,4.631257594543058-4.945068852663098,7.730983497924171-6.573868665782356,2.92732416110357-1.538208601394217,6.18947104988456-2.545269030532836,9.78389060297377-2.545269030532836,3.594498008808841,0,6.68443939716235,1.334935749890064,9.611807868521282,2.873206791294251,3.099712926496068,1.628834455978904,6.462768138464526,3.14845612746285,8.283173572677697,6.003883406797286,1.815713735832105,2.848068037656049,1.782566958347161,6.485040521472911,1.782566958347161,10.044300491215836Z"/>
          <path class="cls-5" d="M60.496452741790563,149.502702103349293c23.453550167170761-8.445511803492991,47.271441980479722-2.158807264171628,55.450262943570124,0,3.579422734090258.944737586611154,6.02205123504973,1.779599150687318,7.99031113871024,2.575973921153491,3.325258967679474,1.345377561636269,4.485296205590203,2.155034049115784,7.906092978579181,3.569536910639727,3.219608946023072,1.331341201610485,5.707516027679958,2.060024493912351,8.123581094610927,2.759729494555359,24.678939489913319,7.147374894408131,27.672004603753521,7.933712912818009,30.44245002907337,10.21439502341309,4.426584979270046,3.6440956402148,8.721711145859445,11.462951886616793,6.417031387480165,30.290842247977707C117.884337082739876,209.760342889989261,58.942491851670638,220.607506078886217.000646620599582,231.454669267786812c-.082407016897378-48.354430166873499,7.72588422734043-61.683085971839319,15.356985292370155-64.280265361627244,3.312279107880386-1.127285731192387,17.752071283581245-6.256896140352183,27.862174642750688-9.679051270763011,2.454853717739752-.830937420418195,3.688393185009772-3.099620707122085,17.276646186070138-7.992650532047264Z"/>
          <path class="cls-1" d="M60.085172300299746,150.473550338170753c3.226702590331115-.996657025829336,6.090874677731335-1.700286170136678,8.452303590611336-2.205142345104832,8.316769705659681-1.778089864659705,23.523430110059053-4.937402834024397,40.309407409789856-.035392757257796,2.943409603660257.85953839056674,5.328836164309905,1.789107652639359,6.976221859309589,2.487378831556271-.068672514089485.438749447126611-.137194099559565.877574358553829-.20586661364905,1.31632380568044-3.698052615571214,11.772581914403418-14.294297003001702,19.997511565517925-26.32632518490027,20.540024426776654-12.94333508309137.583565441113024-24.94004597203002-7.840665429448563-28.958972796261151-20.540024426776654-.082256088298891-.5210809997252-.164512176599601-1.042086535151611-.246768264900311-1.563167534874083Z"/>
          <path class="cls-13" d="M47.004124917320951,111.568227617011871c-8.210815876080233,1.660833800822729-16.333968609369549-3.728995309698803-17.994802410190459-11.939811185773578-1.6608338008391-8.210815876078414,3.72898357566919-16.334026619933866,11.939799451740328-17.994860420767509,2.018334319480346,9.978223868845816,4.036668638960691,19.956447737695271,6.055002958450132,29.934671606541087Z"/>
          <path class="cls-13" d="M124.705281001919502,109.716675083946029c8.3086101250301,1.069039164613059,16.025250363052692-4.888203739606979,17.094289527671208-13.196813864640717,1.069039164609421-8.308610125026462-4.888209139429819-16.025325633912871-13.196819264459918-17.09436479852593-1.299208734919375,10.097038063981017-2.598261528290095,20.19414059918563-3.897470263211289,30.291178663166647Z"/>
          <path class="cls-16" d="M139.194244571979652,91.7647896253402c-.258481563778332-.848988760793873-.800217923349919-2.155445274929662-1.854395723008565-2.501367162964016-2.267196842680278-.743998099074815-5.62343227771089,3.375075642987213-6.494931121980699,7.576326431189955-.33796957442064,1.629451079938008-.602054114040584,4.716494965538004.656807063569431,5.739169920554559,1.243645944450691,1.010323358466849,3.47706618292068-.397539968384081,4.319720891910038-2.816707637164654.620812859860962-1.782315706946974.581969169461445-4.387354812235571-.387879075798992-4.784026045901555-.5941261622811-.242983093659859-1.502471036870702.357048806455168-2.071845580670924,1.494252526293167-.660620463049781,1.31926867978018-.510582705408524,2.653637425019951-.494149235450095,2.785280933442664"/>
          <path class="cls-16" d="M31.817911325169916,94.286526257990772c.271549342080107-.84489975120232.833377764220131-2.142842635417765,1.892767114070011-2.47245906606986,2.278405695102265-.708930309287098,5.570690908560209,3.461434526201629,6.377267416020914,7.675631099519705.312789513300231,1.634471466720242.529214451040389,4.725222320797002-.7452751360197,5.728353329482161-1.259085599431273.991015629089816-3.470518916888977-.451138243144669-4.275749425751201-2.883018790343158-.593240675660127-1.791681720319502-.514210005288987-4.395811464685721.461642809030309-4.777472271206534.597804288490806-.233787752421449,1.496783511051945.380187043268961,2.04854504334071,1.526039949629194.640187618710115,1.329303975209768.469580535329442,2.661199053694872.451117971750136,2.792573350994644"/>
          <path class="cls-13" d="M68.668686517030437,132.73068569933821c3.25251138134081,3.970780600069702,3.75555641308074,9.430547326941451,1.316248341380742,13.601987503876444-3.070793344068989,5.251485255583248-9.177968310860706,5.678839593230805-9.652940622549977,5.704044669830182,4.097409697458716,12.852400600146211,16.282781339379653,21.298968903858622,29.287997149440343,20.567493432412448,11.881099579519287-.668236387045908,22.312831790368364-8.876563891899423,25.997300831708344-20.567493432412448-.619712841378714-.149947566467745-7.437459668179145-1.9263017522062-10.091690069670221-8.775441728302212-2.424818925868749-6.256971604657338.583339048211201-11.694099041168556.987223988180631-12.395388792135236-12.614763515699451.621599448910274-25.229376102790411,1.243198897820548-37.844139618489862,1.864798346730822Z"/>
          <path class="cls-10" d="M106.512826135520299,130.865887352607388c-12.614763515699451.621599448910274-25.229376102790411,1.243198897820548-37.844139618489862,1.864798346730822,2.841230939842717,3.468792068546463,3.582894091949129,8.073321870023392,2.099265930530237,11.963204739215143.086180231960498.86202871250498.314686135969168,2.09179496471188.972131127949979,3.393856017464714,2.00870876909903,3.978704351695342,6.344887515539085,5.311328446427069,8.336692281169235,5.923419393388031,6.508041334722293,2.000030374463677,16.487742381430508-2.21449991845293,25.330800123600056-11.123966245671909-2.025461843968515-6.113891289591265.676160138671548-11.243199841548631,1.105250155240356-12.021312251126801Z"/>
          <path class="cls-13" d="M133.552235296021536,64.336936744090053c-3.686280184570933-20.314989880629582-20.696990173251834-46.926494659735908-47.222993899111316-47.222993899118592-26.482989074180296-.295970989267516-44.634417439659046,25.836939191682177-48.045705710699622,44.754858464362769-1.782466794129505,9.88499334871085.050862939000581,20.066787794010452,1.730094569109497,29.392817063802795,2.547674808211013,14.148952758911037,6.585316779130153,21.180414486687368,8.448983161350043,24.539707854208245,1.936112111350667,3.489846608576045,4.476542346650604,6.594674352483707,7.193559046731025,9.501559234358865,5.324459234841015,5.696875561214256,10.880895731528653,10.91153423781725,17.663476193978568,14.889785803705308,2.983405683291494,1.768883219916461,6.347000515982472,3.286847638377367,9.76055271605037,3.966856456409005,10.029054699692097,1.997841909731505,19.229209515089678-4.005569642918999,26.061747344931064-10.734268594318564,6.645990077298848-6.545094306598912,13.715485812868792-13.956594255174423,17.445686220738935-22.609934744148632,1.925547109200124-4.466807451801287,3.92655851956988-12.204313181518955,4.954080444589636-18.817023501989752,1.98667319316155-6.253726639697561,4.098466197690868-16.154416563062114,2.010519912331802-27.661364137271448Z"/>
          <path class="cls-6" d="M135.010970767420076,81.861361326773476c-4.753208080779586-2.44208280510793-14.165140378659999-8.251761168671692-22.817883210349464-21.113035637561552-9.248039713580511-13.745901832375239-12.707506853359519-28.231657011423522-14.011653504379865-35.052058139499422.938168231150485-.455098777511012,15.733074665959066-7.241820837043633,27.933752054150318,5.995786535262596,10.383408399669861,11.265977491118974,14.355957807731102,32.118408077250933,8.895784660579011,50.169307241798379Z"/>
          <path class="cls-6" d="M106.000175720830157,38.07590282784804c-3.407134820059582,4.683196693131322-6.932990301169411,9.879166651448031-7.44390626475797,15.765050616122608-.107655426822021,1.466618846443453.129604336118064,2.846709986624774.613330506748753,4.294379408522218,1.041076929299379,2.965977898635174.068683852048707,6.463779420406354-2.483102577840327,8.331165972438612-1.183255031221051.959055486440775-2.539197595020596,1.656307897294027-3.930910237590069,2.218479209015641,2.621668424520976-1.216752625772642,5.373410363139556-3.125549998600036,6.081669144410625-6.066238048842933.35453017556938-1.414689056826319.123005699520036-2.89141223468323-.356947256050262-4.269352642284503-1.867438505860264-4.337349728699337-.44808115079104-9.370211726636626,1.421781215949522-13.439208538686216,1.268219264300569-2.791653361480712,2.835763728640813-5.420452293470589,4.52872986156035-7.948129061864165l1.569355607569378,1.113853085578739h0Z"/>
          <ellipse class="cls-11" cx="112.984795534270233" cy="103.642212817179825" rx="14.831661226060303" ry="11.907359779822961" transform="translate(-20.144881011202045 27.591167311806458) rotate(-12.793105487891749)"/>
          <ellipse class="cls-8" cx="57.160415873960574" cy="103.642212817179143" rx="11.907359779824844" ry="14.831661226059417" transform="translate(-58.766584543521262 127.515880208904761) rotate(-72.759170584531446)"/>
          <path class="cls-6" d="M96.546353180980077,76.500634041814919c8.450201796191323-4.117231316220568,18.757810945890014-3.024224884629803,25.639679791271192,3.265716754180175-1.923921315839834-1.137773571939761-3.925312436766035-2.069503141439782-5.99943371092013-2.693572235046304-6.142892335124998-1.949292412704381-12.869513818784981-1.162937805714137-18.865345658587103,1.691768735359801-.000002811471859-.000040866165364-.774900421763959-2.263913254493673-.774900421763959-2.263913254493673h0Z"/>
          <path class="cls-6" d="M75.705705247289188,76.500634041814919c-8.450201796192232-4.117231316220568-18.757810945890014-3.024224884629803-25.639679791272101,3.265716754180175,1.923921315839834-1.137773571939761,3.925312436766035-2.069503141439782,5.99943371092013-2.693572235046304,6.142892335124998-1.949292412704381,12.8695138187868-1.162937805714137,18.865345658587103,1.691768735359801.000002811473678-.000040866165364.774900421764869-2.263913254493673.774900421764869-2.263913254493673h0Z"/>
          <g class="cls-17">
            <path class="cls-13" d="M92.224168982575065,107.309124409356627c-2.000578231936743,4.490991924472837-9.458534776524175,5.189700544814514-11.789951478784133.708251284801008,4.151221507798255.975788704777187,7.77936130020953.685975260978921,11.789951478784133-.708251284801008h0Z"/>
          </g>
          <path class="cls-6" d="M40.828299640630576,81.60473052290763c1.055741661739376,6.55686119641905,1.621373663021586,13.531055807685334.872506472990608,20.117020203313587.000162705980983-.000010916857718-.187743403980676-.00219938158989-.187743403980676-.00219938158989-.42659303831897-6.505602832479781-2.129882051360255-12.998510449811874-4.275218020260581-19.126574154619448.000165357791047-.000041643008444,3.590454951250649-.988246667100611,3.590454951250649-.988246667100611v-.000000000003638Z"/>
          <path class="cls-6" d="M130.799103449629911,76.215975703460572c-1.732033582309668,9.595548852983484-3.003313438110126,19.599192194747047-2.977972549939295,29.35593569077173-.000150632269651-.000020670322556-.229713036489557.015487243694224-.229713036489557.015487243694224-1.456765572780569-9.725794703364954-1.646497137080587-20.063183764788846-1.318338584011144-29.918506371192052-.000173686399648.000004985238775,4.526024170439996.547083436726098,4.526024170439996.547083436726098h0Z"/>
          <circle class="cls-9" cx="131.436113426730572" cy="109.018168985484408" r="3.483940031282373"/>
          <circle class="cls-9" cx="40.739316933395912" cy="109.855615515234604" r="3.483940031282373"/>
          <path class="cls-7" d="M75.960558142731315,122.737560688652593c7.062188820193114,4.357707842137643,15.637064057131283,3.495084501812926,21.722439853598189-2.131439624201448.000033290933061.000244555842073.996859462808061.918457446467073.996859462808061.918457446467073-5.432087513284387,7.409946802623381-16.756582368801901,8.491206148963101-23.461746129900348,2.201802560078249.000015172869098.00022380711016.742446813494098-.988820382343874.742446813494098-.988820382343874h0Z"/>
          <path class="cls-6" d="M112.984795534270233,23.860074049945979c-3.784232847528983,8.551690075270017-12.584879652429663,25.339780375434202-30.769059524620388,39.654150882557587-19.434925200148427,15.298877780460316-39.246115406018362,19.630604133126326-48.539242240498425,21.061105426502763-.510893319060415-1.827594446243893-8.043287078140565-30.588171594667074,11.024126975198669-51.500989669333649,16.227390542309877-17.797953578701708,44.638492511920049-22.143867219994718,68.284174789920144-9.214266639726702Z"/>
          <g class="cls-18">
            <path class="cls-13" d="M85.185167517731315,90.04266017595728c2.031972836252862,3.461393612215033,1.298868756058255,8.131423785645893-1.093330764621896,11.232577107022735,1.534589883791341-3.55640768739795,1.941776763196685-7.460184333534016,1.093330764621896-11.232577107022735h0Z"/>
          </g>
          <g class="cls-18">
            <path class="cls-13" d="M73.548570838043815,113.402721821465093c-3.408576335739781,4.411251089863981-5.588288744474994,9.701379922422348-5.580149246058681,15.325542274263171-.754586992993609-5.605034728278042,1.418600248179246-11.506204207288647,5.580149246058681-15.325542274263171h0Z"/>
          </g>
          <g class="cls-18">
            <path class="cls-13" d="M98.999254431793815,113.402721821465093c4.468041476138751,3.551300605146935,6.653027920761815,9.741148960164537,5.580271116472431,15.325490796991289.313531929762576-5.641543120668757-1.847010613684688-11.14269919929302-5.580271116472431-15.325490796991289h0Z"/>
          </g>
          <g>
            <circle class="cls-15" cx="62.259526592340535" cy="89.364139155008161" r="18.855411200902154"/>
            <circle class="cls-15" cx="108.133555811400583" cy="89.364139155008161" r="18.855411200902381"/>
            <path class="cls-15" d="M80.916867493660902,88.251636223016249c.655935705952288-.397244081468671,2.573181742009183-1.438840098657238,5.100783046100332-1.151811629075382,1.514719453509315.172020874564623,2.64683489996969.752907332982431,3.288885174508323,1.151811629075382"/>
          </g>
          <g>
            <g class="cls-18">
              <path class="cls-13" d="M96.705980506012565,88.483044087090093c1.018359555002462-4.322958063104124,6.036147127013464-7.474594297978001,10.3607586030721-6.239651664180201-4.371327278689023.411841507968347-7.962582242417739,2.560517769095895-10.3607586030721,6.239651664180201h0Z"/>
            </g>
            <g class="cls-18">
              <path class="cls-13" d="M102.198900427887565,94.538555561699468c-2.271737270593803-.464225677655122-4.397633795493675-1.882334777466895-5.622952547574641-3.860573008014399,1.736892701125726,1.518681344009565,3.559192615616666,2.801174926363274,5.622952547574641,3.860573008014399h0Z"/>
            </g>
            <g class="cls-18">
              <path class="cls-13" d="M100.469896521637565,95.241344868340093c-1.434610519007038-.145706389354018-2.964098204976835-.780671630914185-3.793193867351874-2.004265185089025,1.273219157390486.706173909971767,2.531188054987979,1.257369345603365,3.793193867351874,2.004265185089025h0Z"/>
            </g>
            <g class="cls-18">
              <path class="cls-13" d="M96.176622595856315,85.686901508965093c.573731209707148-1.323008488671803,1.642236537759345-2.588079588941582,3.05964002644123-3.007400184735161-1.058849726890003.999387400785054-1.965368597395354,2.031063586991877-3.05964002644123,3.007400184735161h0Z"/>
            </g>
            <g class="cls-18">
              <path class="cls-13" d="M123.900133338043815,84.766979633965093c-1.108546469611611.922291558427787-2.632705652818913,1.569643961687689-4.086894693022259,1.30491788936979,1.395661182154072-.414653287371948,2.669987099587161-.926801933135721,4.086894693022259-1.30491788936979h0Z"/>
            </g>
            <g class="cls-18">
              <path class="cls-13" d="M123.785021033356315,87.10210841814478c-1.380608743142147.416184642651388-3.036681944930024.417035799458972-4.271985205114106-.394497849206346,1.446789056753914.16323697072221,2.819936934736688.189327570846217,4.271985205114106.394497849206346h0Z"/>
            </g>
            <path class="cls-12" d="M118.446511359898068,86.725580192844063c-.187648201743286.375346363554854-3.436045037931763,6.596249908402569-10.531027598159199,7.246414460714732-6.563735540012203.601486617353657-10.740175000026284-4.085217476345861-11.136974343986367-4.546429938065558.651704546517067-.845620137362857,3.993031148698719-5.000382978487323,10.029942758037578-5.849118017151341,6.34287311602202-.891741287723562,10.863714212226114,2.540680848753254,11.638059184107988,3.149133494502166Z"/>
            <g class="cls-14">
              <circle class="cls-3" cx="106.39488866239526" cy="87.898517579243162" r="5.420417699674246"/>
            </g>
            <path class="cls-2" d="M96.685167517731315,89.355862080254155c4.74648760502896-7.376136162571129,15.534496086213039-8.958926796092783,22.063135797545328-2.998551713023517-.000025445984647-.000227583851483-.603602106137259.736802445445392-.603602106137259.736802445445392-6.612745611670107-5.082478133374934-15.898203304407616-3.918628989641547-21.27285384085917,2.40143601584623-.000034342737308-.000236675025917-.186679850548899-.139686748268105-.186679850548899-.139686748268105h0Z"/>
          </g>
          <g>
            <g class="cls-18">
              <path class="cls-13" d="M65.144701209137565,82.604580341972905c4.117604146345911-.480043572246359,8.573879066962036,2.457501602469165,9.590266198126301,6.511131257009765-2.437806949366859-3.324386068331478-5.577365205033857-5.523941016434037-9.590266198126301-6.511131257009765h0Z"/>
            </g>
            <g class="cls-18">
              <path class="cls-13" d="M75.159471716950065,94.38396876970728c-.902509269572874,1.329358338303791-2.430090940675655,2.117008716080818-3.987293318339653,2.377280719601913,1.265615016625816-.922428932433832,2.678498551378652-1.538651724753436,3.987293318339653-2.377280719601913h0Z"/>
            </g>
            <g class="cls-18">
              <path class="cls-13" d="M75.159471716950065,92.366436421074468c-1.633238405254815,1.90865747342832-4.178371400784272,3.085955030517653-6.697616096009369,3.011432942451393,2.394710667391337-.647326852755214,4.645742236399201-1.609379213852662,6.697616096009369-3.011432942451393h0Z"/>
            </g>
            <g class="cls-18">
              <path class="cls-13" d="M75.479845252106315,87.710979878106627c-.731346103790202-.747342832072718-1.521010693822973-1.736878354044165-2.205823450571188-2.527731587698327-.237291783803812-.284676859568208-.483995885366312-.557504008005708-.740526647085062-.85085422773227.37738037109375.11370849609375.70660400390625.331497192382812,1.013671875.565933227539062.889496784209769.729835798797467,1.578472449852597,1.715940046055039,1.93267822265625,2.812652587891534h0Z"/>
            </g>
            <g class="cls-18">
              <path class="cls-13" d="M47.892259802887565,84.249981342949468c.989752936300647.337327728972014,2.140770446336319.86450818177218,3.10858905304849,1.261689733695675.34014141570151.147123742866825.68334209929526.279402185249637,1.04460918913901.425581384468387-.38812255859375.06866455078125-.78021240234375.022689819335938-1.15997314453125-.048126220703125-1.123005319068398-.250388185143493-2.182602213451901-.819912786358145-2.99322509765625-1.639144897460938h0Z"/>
            </g>
            <g class="cls-18">
              <path class="cls-13" d="M47.824815955231315,86.692028462090093c1.04290372154901-.075941180753034,2.308406822221514-.040011780206441,3.354493729795649-.052292214964837.370603926454351.002640115356371.738218672548101-.009597433472663,1.127867110048101-.016097677613288-.33050537109375.214782714844659-.7093505859375.325546264648438-1.086669921875.408645629882812-1.131703253249725.207993774699389-2.329482945442578.097363362080614-3.39569091796875-.340255737304688h0Z"/>
            </g>
            <path class="cls-12" d="M52.856138173383442,86.430705875354761c.165389058747678.406101700657018,3.050656282063755,7.147835911328002,10.390303094052797,8.394343175226822,6.79007987760815,1.153177481297462,11.517197420278535-3.394570821516936,11.967594278288743-3.843247806169529-.611134952088833-.933274924609577-3.75896067798385-5.529885943935369-9.980343224960961-6.898394902549626-6.536694106785944-1.437857898665243-11.522005755488863,1.775508399095997-12.377554147380579,2.347299533492333Z"/>
            <g class="cls-19">
              <circle class="cls-3" cx="65.641721678794738" cy="88.299730379051653" r="5.663895962362425"/>
            </g>
            <path class="cls-2" d="M75.111192908356315,91.04699367205103c-5.093681207679765-7.016982478656246-14.674644790040475-8.971688026498668-21.970253258714365-4.207867695648929.000038414964365-.000246928374509-.569663733473135-.816531108062009-.569663733473135-.816531108062009,5.278337041871055-4.095203333891732,13.252055602208202-4.138252579491564,18.491450513489326.036248192241146,1.738468920104424,1.322180762836979,3.202946459166924,2.977332130025388,4.254093920104424,4.857825294086979l-.20562744140625.130325317382812h0Z"/>
          </g>
        </g>
      </g>
    </g>
  </g>
</svg>