<?xml version="1.0" encoding="UTF-8"?>
<svg id="Layer_2" data-name="Layer 2" xmlns="http://www.w3.org/2000/svg" width="329.51632759102722" height="224.85905108256884" xmlns:xlink="http://www.w3.org/1999/xlink" viewBox="0 0 329.51632759102722 224.85905108256884">
  <defs>
    <style>
      .cls-1 {
        stroke-width: .161175891201617px;
      }

      .cls-1, .cls-2 {
        stroke: #e9e9de;
      }

      .cls-1, .cls-2, .cls-3 {
        stroke-miterlimit: 10;
      }

      .cls-1, .cls-4 {
        fill: #151c22;
      }

      .cls-2 {
        stroke-width: .134196066389791px;
      }

      .cls-2, .cls-3, .cls-5, .cls-6 {
        fill: none;
      }

      .cls-7 {
        fill: #b7afa9;
      }

      .cls-7, .cls-4, .cls-5, .cls-8, .cls-9, .cls-10, .cls-11 {
        stroke-width: 0px;
      }

      .cls-3, .cls-6 {
        stroke: #bb4d34;
        stroke-width: 9px;
      }

      .cls-12 {
        clip-path: url(#clippath);
      }

      .cls-6 {
        stroke-linecap: round;
        stroke-linejoin: round;
      }

      .cls-8 {
        fill: #79c4e0;
      }

      .cls-9 {
        fill: #c8c8c8;
      }

      .cls-10 {
        fill: #e9e9de;
      }

      .cls-13 {
        opacity: .3;
      }

      .cls-11 {
        fill: #0b2645;
      }
    </style>
    <clipPath id="clippath">
      <path class="cls-5" d="M78.282616702112136,47.727160859180003l11.838387098216117,77.298429706668685,74.649916434233091-5.75841288077936-17.193857213649608-71.452516526400359-69.294446318799601-.087500299488966ZM118.63048188981702,98.052919240839401l-1.925956633800524.098721615489922-3.800684302244917-7.19673142352076-5.706011740723625.2486827278899.006619269423027-.484537831478519,8.277601787562162-10.864922126271267,7.079917049835785,12.788343115200405-3.931485430051907,5.41044392269032Z"/>
    </clipPath>
  </defs>
  <g id="Layer_1-2" data-name="Layer 1">
    <g>
      <g>
        <circle class="cls-8" cx="114.57538768282393" cy="112.429525541282146" r="112.429525541283283"/>
        <g>
          <path class="cls-9" d="M220.322710343632934,147.306165250018239c36.397799761150964,6.899300729161041,72.795801723314071,13.798803659310579,109.193601484461396,20.698104388429783-1.684031128119386,1.684132228620001-3.368062256238773,3.368264457240002-5.052093384361797,5.052194484851498-67.906480153578741,11.191017208029734-135.813263608679335,22.38183221502004-203.719743762258076,33.572849423058869-29.370910193460077-13.560206465199371-58.741820386931067-27.120412930358725-88.112730580400239-40.680619395519898-.139923100270607-2.677950202420107-.27994730106002-5.356102605850538-.419870401330627-8.034052808268825,2.515178387779088-1.249804454930199,5.030255675059379-2.49940670882097,7.545434062849381-3.749211163760265,60.188467527010289-2.28648904325928,120.376935054029673-4.572775885520969,180.565402581039962-6.859264928791163Z"/>
          <path class="cls-9" d="M187.238681867012929,20.837115906608233c10.756285032301093,40.472352353201131,21.512671165102802,80.944502505361015,32.269057297900872,121.416854858560328-62.431853955020415,5.220195475660148-124.863993658249456,10.440390951329391-187.295858391249567,15.660586427020462-3.225279085840157.269679391500176-6.136775173261412-1.930951560048925-6.757301631270821-5.107443189310288C16.993957184893588,109.496962631519636,8.533249844433158,66.186811260138711.07262343880393,22.8766598887687c-.467971149060759-2.395555639899612,1.385940075499093-4.615129400030128,3.826542282138689-4.581296145568558,61.113287249820132.847193120589509,122.226209548660336,1.694568716648064,183.339516146070309,2.541752163408091Z"/>
          <path class="cls-4" d="M193.105760848093269,20.837204408409889c10.756361448640746,40.472245088829368,21.512722897290587,80.944490177638727,32.269084345940428,121.416735266448086-64.320879785869693,5.378180724341291-128.64198381208007,10.756361448660755-192.962863597960677,16.134542172982037C23.285399062724537,111.668900410630158,14.158592289013541,64.949318973418485,5.032009755654144,18.229737536208631c62.691325110939943.869155624081031,125.382425981511915,1.738311248140235,188.073751092439124,2.607466872201258Z"/>
          <path class="cls-7" d="M225.374845194033696,142.253939674857975c34.713752718882461,8.583472388510927,69.427729678114702,17.166944776990931,104.141482396993524,25.75041716548003-69.101684198911244,9.778673491771769-138.203144157474526,19.55689850282215-207.30482835638395,29.335571994561178-29.933172546188871-12.983965155899568-59.866345092379561-25.967481831130499-89.799517638570251-38.951446987059171,64.320879785880607-5.378180724321282,128.641983812090984-10.756361448640746,192.962863597960677-16.134542172982037Z"/>
          <path class="cls-11" d="M188.70549232101439,27.030274590368208c9.398137605789088,36.723843279791254,18.796499451918862,73.447686559580688,28.194637057711589,110.171529839371942-58.453855083102098,4.400492767428659-116.907710166202378,8.800537054159577-175.361565249291743,13.201029821588236-8.311693075711446-41.558913859260429-16.623610391779948-83.117379237799469-24.93530346748048-124.676293097048983,57.367410553018999.434577812040516,114.734821106030722.869155624050109,172.102231659060635,1.303733436088805Z"/>
          <path class="cls-10" d="M214.295129150475987,145.350250525498268c19.03150334613747,4.705908133770208,38.063006692289491,9.411367786840856,57.094510038437875,14.117275920640168-54.126240431709448,7.245654418120466-108.25248086342981,14.490860355530458-162.378721295150171,21.736514773660019-17.427960552629884-7.559590918050162-34.855921105270681-15.119181836098505-52.283881657900565-22.678772754150486,52.522697638200043-4.391523153150047,105.045395276401905-8.783046306309188,157.568092914612862-13.175017940149701Z"/>
          <path class="cls-4" d="M225.4872807106658,168.160624956548418c5.883621583299828,2.128461675680228,11.7671721892184,4.256783378610635,17.650788744380407,6.385232236680167.468448229918067.169465173461504.398382879109704.852738831701572-.094712563932262.923584249230771-16.573504459869582,2.381195891928655-33.147096121090726,4.762389464758598-49.720603588020822,7.143582979650091-.826928129519729.118808641029318-1.670069119609252-.034491784270358-2.402252761768978-.436776184589689-4.409168666739788-2.422534007710055-8.818274825200206-4.845068334800089-13.227441292769072-7.267606725890801-.405090726311755-.222569921899776-.290471528311173-.833225972350192.167755611739267-.89375493065927,15.270725136211695-2.01716791609033,30.541278340690042-4.033809588610893,45.812009162298637-6.050797812380551.61182679236299-.080811288569748,1.234123193633422-.013405526429779,1.814456688072823.196536187959282Z"/>
          <g>
            <polygon class="cls-4" points="73.639761448743229 157.111137130619682 89.68924416943446 155.769161988519045 104.940294697593345 154.493947637038218 119.450618821932949 153.28066901505008 133.273105918873625 152.124903785188508 146.455532215162748 151.022657145229459 159.041535778153047 149.970280304578409 171.070341447722967 148.964493484008926 182.578320215034182 148.002255528419482 193.598745074623366 147.080784321258761 204.161643906532845 146.19756908574891 214.295079786203132 145.350263331989481 218.57687456286294 146.465978063639341 222.937283162526001 147.602177336269961 227.378490670944302 148.759430521438844 231.90276391097359 149.938328289168567 236.512455300566216 151.139483613078482 241.210006931385578 152.363532833238423 245.997954882815975 153.611136780298693 250.878933787433198 154.882981965078216 255.855681665343582 156.179781838218332 260.931045045756036 157.502278124838995 266.107984396105167 158.851242239039493 271.389579880404199 160.227476784579267 261.330143571052758 161.526984778200131 250.790199076265708 162.888566252768214 239.734303838115011 164.316799783558963 228.123982719813284 165.81665570370933 215.916268814406067 167.393684606318857 203.063637762013968 169.054025830018873 189.514019527454366 170.804405937298725 175.208915723133032 172.652381924308429 160.083328948194321 174.606350349378772 144.064335860774008 176.675731667199216 127.070903412522966 178.870993968859693 109.011047221132685 181.204020071138075 103.996362923482593 179.028841112038208 99.117447777824054 176.912553637439487 94.368861642604315 174.852797921308593 89.745451187343861 172.847338645209675 85.242331237162944 170.894056806409935 80.854867554813609 168.990942249329237 76.5786609324241 167.136086765429354 72.409532478623078 165.327677710658463 68.343509996673674 163.563992097579103 64.376815361632907 161.843391119527951 60.505852810792931 160.164315071568126 56.727198072034298 158.525278635099312 73.639761448743229 157.111137130619682"/>
            <g class="cls-13">
              <polygon class="cls-2" points="214.295110238013876 145.350251923009637 204.161626715913371 146.197561476519695 208.438982416144427 147.344510624800023 218.576900020234461 146.465965177318139 214.295110238013876 145.350251923009637"/>
              <polygon class="cls-2" points="204.161626715913371 146.197561476519695 193.59867613316419 147.080780847460119 197.867334266853504 148.260642883598848 208.438982416144427 147.344510624800023 204.161626715913371 146.197561476519695"/>
              <polygon class="cls-2" points="193.59867613316419 147.080780847460119 182.578365566323555 148.002242298009151 186.833512694563979 149.216826795278394 197.867334266853504 148.260642883598848 193.59867613316419 147.080780847460119"/>
              <polygon class="cls-2" points="182.578365566323555 148.002242298009151 171.070333198373191 148.964484526539309 175.306532301554398 150.215747534568436 186.833512694563979 149.216826795278394 182.578365566323555 148.002242298009151"/>
              <polygon class="cls-2" points="171.070333198373191 148.964484526539309 159.041468975094176 149.970276024800114 163.252574579933935 151.260335791628677 175.306532301554398 150.215747534568436 171.070333198373191 148.964484526539309"/>
              <polygon class="cls-2" points="159.041468975094176 149.970276024800114 146.455596455483828 151.022641679848675 150.634656534813985 152.353796489229353 163.252574579933935 151.260335791628677 159.041468975094176 149.970276024800114"/>
              <polygon class="cls-2" points="146.455596455483828 151.022641679848675 133.273109418103559 152.124893159460044 137.412251681353155 153.499641626538505 150.634656534813985 152.353796489229353 146.455596455483828 151.022641679848675"/>
              <polygon class="cls-2" points="133.273109418103559 152.124893159460044 119.450555534313025 153.280663722818645 123.540855234594346 154.701727959698474 137.412251681353155 153.499641626538505 133.273109418103559 152.124893159460044"/>
              <polygon class="cls-2" points="119.450555534313025 153.280663722818645 104.940157889153852 154.493948228850059 108.971483663153776 155.964300370218552 123.540855234594346 154.701727959698474 119.450555534313025 153.280663722818645"/>
              <polygon class="cls-2" points="104.940157889153852 154.493948228850059 89.689263249003488 155.769149269028276 93.650096749974182 157.292041948669066 108.971483663153776 155.964300370218552 104.940157889153852 154.493948228850059"/>
              <polygon class="cls-2" points="89.689263249003488 155.769149269028276 73.639703648994328 157.111130548059009 77.516927788754401 158.690132039588207 93.650096749974182 157.292041948669066 89.689263249003488 155.769149269028276"/>
              <polygon class="cls-2" points="73.639703648994328 157.111130548059009 56.7270549856039 158.525278876828452 60.505704417662855 160.164313763358223 77.516927788754401 158.690132039588207 73.639703648994328 157.111130548059009"/>
              <polygon class="cls-2" points="218.576907895323529 146.465967229349189 208.438990284583269 147.344512734698583 212.796538513513951 148.512965063699085 222.937311456425959 147.602165009870077 218.576907895323529 146.465967229349189"/>
              <polygon class="cls-2" points="208.438990284583269 147.344512734698583 197.867342120804096 148.260645054459019 202.217758064804002 149.463105043789255 212.796538513513951 148.512965063699085 208.438990284583269 147.344512734698583"/>
              <polygon class="cls-2" points="197.867342120804096 148.260645054459019 186.833520525293352 149.21682903045803 191.171965619554612 150.455190007169222 202.217758064804002 149.463105043789255 197.867342120804096 148.260645054459019"/>
              <polygon class="cls-2" points="186.833520525293352 149.21682903045803 175.306540099083577 150.215749837720068 179.627538014083257 151.492060208638577 191.171965619554612 150.455190007169222 186.833520525293352 149.21682903045803"/>
              <polygon class="cls-2" points="175.306540099083577 150.215749837720068 163.252582333003375 151.260338166788642 167.549931053234104 152.576818257370178 179.627538014083257 151.492060208638577 175.306540099083577 150.215749837720068"/>
              <polygon class="cls-2" points="163.252582333003375 151.260338166788642 150.634664230683484 152.353798940599518 154.901334268362916 153.712860124929648 167.549931053234104 152.576818257370178 163.252582333003375 151.260338166788642"/>
              <polygon class="cls-2" points="150.634664230683484 152.353798940599518 137.41225930559267 153.499644158808223 141.640275523974196 154.903910657889355 154.901334268362916 153.712860124929648 150.634664230683484 152.353798940599518"/>
              <polygon class="cls-2" points="137.41225930559267 153.499644158808223 123.540862770792955 154.701730577988201 127.721166762914436 156.15406437693855 141.640275523974196 154.903910657889355 137.41225930559267 153.499644158808223"/>
              <polygon class="cls-2" points="123.540862770792955 154.701730577988201 108.971491092734141 155.964303080048921 113.093780406912629 157.46783250442968 127.721166762914436 156.15406437693855 123.540862770792955 154.701730577988201"/>
              <polygon class="cls-2" points="108.971491092734141 155.964303080048921 93.650104051703238 157.292044756119139 97.702643739894484 158.850197358038713 113.093780406912629 157.46783250442968 108.971491092734141 155.964303080048921"/>
              <polygon class="cls-2" points="93.650104051703238 157.292044756119139 77.51693493849416 158.690134951328218 81.486335883793799 160.306675493498915 97.702643739894484 158.850197358038713 93.650104051703238 157.292044756119139"/>
              <polygon class="cls-2" points="77.51693493849416 158.690134951328218 60.505711387833799 160.164316786738709 64.376668585184234 161.843391282758603 81.486335883793799 160.306675493498915 77.51693493849416 158.690134951328218"/>
              <polygon class="cls-2" points="222.937319476794073 147.602167099739745 212.796546530145861 148.512967213308002 217.236563821174059 149.703533162779422 227.378521902641296 148.759418778048712 222.937319476794073 147.602167099739745"/>
              <polygon class="cls-2" points="212.796546530145861 148.512967213308002 202.217766069914433 149.463107256398871 206.65231140247306 150.688820705869148 217.236563821174059 149.703533162779422 212.796546530145861 148.512967213308002"/>
              <polygon class="cls-2" points="202.217766069914433 149.463107256398871 191.171973604314189 150.455192286328383 195.59618678001425 151.718034809478922 206.65231140247306 150.688820705869148 202.217766069914433 149.463107256398871"/>
              <polygon class="cls-2" points="191.171973604314189 150.455192286328383 179.627545968483901 151.492062558188991 184.035914648784455 152.794179980148328 195.59618678001425 151.718034809478922 191.171973604314189 150.455192286328383"/>
              <polygon class="cls-2" points="179.627545968483901 151.492062558188991 167.549938965914407 152.576820681370009 171.936207590182676 153.920541121999122 184.035914648784455 152.794179980148328 179.627545968483901 151.492062558188991"/>
              <polygon class="cls-2" points="167.549938965914407 152.576820681370009 154.901342126444433 153.712862627930008 159.25840629346385 155.100717028348299 171.936207590182676 153.920541121999122 167.549938965914407 152.576820681370009"/>
              <polygon class="cls-2" points="154.901342126444433 153.712862627930008 141.640283312814063 154.903913244799696 145.960066947292944 156.3386587915993 159.25840629346385 155.100717028348299 154.901342126444433 153.712862627930008"/>
              <polygon class="cls-2" points="141.640283312814063 154.903913244799696 127.721174465894364 156.154067053119434 131.994486523673913 157.638713994268983 145.960066947292944 156.3386587915993 141.640283312814063 154.903913244799696"/>
              <polygon class="cls-2" points="127.721174465894364 156.154067053119434 113.093788005093302 157.467835275669131 117.310154766682899 159.00567772362956 131.994486523673913 157.638713994268983 127.721174465894364 156.154067053119434"/>
              <polygon class="cls-2" points="113.093788005093302 157.467835275669131 97.702651211693592 158.85020023081961 101.85011933493297 160.444851670368735 117.310154766682899 159.00567772362956 113.093788005093302 157.467835275669131"/>
              <polygon class="cls-2" points="97.702651211693592 158.85020023081961 81.486343204524019 160.306678474888031 85.551247604724267 161.962112847339085 101.85011933493297 160.444851670368735 97.702651211693592 158.85020023081961"/>
              <polygon class="cls-2" points="81.486343204524019 160.306678474888031 64.376675726623944 161.843394380448444 68.343364962693158 163.563993805928476 85.551247604724267 161.962112847339085 81.486343204524019 160.306678474888031"/>
              <polygon class="cls-2" points="227.378530072284775 148.759420906839296 217.236571990266384 149.703535353288316 221.761421869294281 150.916848689528706 231.902798185896245 149.938317152818854 227.378530072284775 148.759420906839296"/>
              <polygon class="cls-2" points="217.236571990266384 149.703535353288316 206.652319563154379 150.688822961488768 211.173458482393471 151.938470978298938 221.761421869294281 150.916848689528706 217.236571990266384 149.703535353288316"/>
              <polygon class="cls-2" points="206.652319563154379 150.688822961488768 195.596194923424264 151.718037133929101 200.10874493591291 153.006094426198615 211.173458482393471 151.938470978298938 206.652319563154379 150.688822961488768"/>
              <polygon class="cls-2" points="195.596194923424264 151.718037133929101 184.035922764833231 152.794182377419929 188.534339236222877 154.122897574268791 200.10874493591291 153.006094426198615 195.596194923424264 151.718037133929101"/>
              <polygon class="cls-2" points="184.035922764833231 152.794182377419929 171.936215667436045 153.92054359641952 176.414192917633045 155.292358703798527 188.534339236222877 154.122897574268791 184.035922764833231 152.794182377419929"/>
              <polygon class="cls-2" points="171.936215667436045 153.92054359641952 159.258414318903306 155.100719584708713 163.708776020774167 156.518292022188689 176.414192917633045 155.292358703798527 171.936215667436045 153.92054359641952"/>
              <polygon class="cls-2" points="159.258414318903306 155.100719584708713 145.960074906093723 156.338661434980168 150.374646398502591 157.804889219869438 163.708776020774167 156.518292022188689 159.258414318903306 155.100719584708713"/>
              <polygon class="cls-2" points="145.960074906093723 156.338661434980168 131.99449439896307 157.638716730349188 136.363953462494464 159.156767353688338 150.374646398502591 157.804889219869438 145.960074906093723 156.338661434980168"/>
              <polygon class="cls-2" points="131.99449439896307 157.638716730349188 117.310162539253724 159.005680558539098 121.623864425044303 160.579024207880138 136.363953462494464 159.156767353688338 131.99449439896307 157.638716730349188"/>
              <polygon class="cls-2" points="117.310162539253724 159.005680558539098 101.850126982753864 160.444854610859693 106.095898536574168 162.0773025331182 121.623864425044303 160.579024207880138 117.310162539253724 159.005680558539098"/>
              <polygon class="cls-2" points="101.850126982753864 160.444854610859693 85.551255102673167 161.962115900909339 89.715151634112772 163.65786486891011 106.095898536574168 162.0773025331182 101.850126982753864 160.444854610859693"/>
              <polygon class="cls-2" points="85.551255102673167 161.962115900909339 68.343372281882694 163.563996980738011 72.409389320893752 165.327681041919277 89.715151634112772 163.65786486891011 85.551255102673167 161.962115900909339"/>
              <polygon class="cls-2" points="231.902806509064249 149.938319321609015 221.761430195183493 150.916850922088997 226.373567376034771 152.153569862959557 236.512492728634243 151.139473108878519 231.902806509064249 149.938319321609015"/>
              <polygon class="cls-2" points="221.761430195183493 150.916850922088997 211.173466803214978 151.938473278149104 215.783760693153454 153.212763831797929 226.373567376034771 152.153569862959557 221.761430195183493 150.916850922088997"/>
              <polygon class="cls-2" points="211.173466803214978 151.938473278149104 200.108753242713647 153.006096797329519 204.712312460904286 154.320131656759258 215.783760693153454 153.212763831797929 211.173466803214978 151.938473278149104"/>
              <polygon class="cls-2" points="200.108753242713647 153.006096797329519 188.534347518892901 154.122900020749512 193.125599300534304 155.4790363530592 204.712312460904286 154.320131656759258 200.108753242713647 153.006096797329519"/>
              <polygon class="cls-2" points="188.534347518892901 154.122900020749512 176.4142011646436 155.29236123022929 180.986793608502921 156.693161422788762 193.125599300534304 155.4790363530592 188.534347518892901 154.122900020749512"/>
              <polygon class="cls-2" points="176.4142011646436 155.29236123022929 163.70878421897396 156.518294633569894 168.255472547783938 157.966549963868601 180.986793608502921 156.693161422788762 176.4142011646436 155.29236123022929"/>
              <polygon class="cls-2" points="163.70878421897396 156.518294633569894 150.374654532914064 157.804891921619856 154.887168348996056 159.303649648918508 168.255472547783938 157.966549963868601 163.70878421897396 156.518294633569894"/>
              <polygon class="cls-2" points="150.374654532914064 157.804891921619856 136.363961515964547 159.156770151648743 140.832849381004053 160.709364628659387 154.887168348996056 159.303649648918508 150.374654532914064 157.804891921619856"/>
              <polygon class="cls-2" points="136.363961515964547 159.156770151648743 121.62387237805342 160.579027108578885 126.038319228502587 162.189115636199858 140.832849381004053 160.709364628659387 136.363961515964547 159.156770151648743"/>
              <polygon class="cls-2" points="121.62387237805342 160.579027108578885 106.095906366763302 162.077305543689363 110.443518253923685 163.748909845018716 126.038319228502587 162.189115636199858 121.62387237805342 160.579027108578885"/>
              <polygon class="cls-2" points="106.095906366763302 162.077305543689363 89.715159315754136 163.657867997219 93.981708667943167 165.395422378329386 110.443518253923685 163.748909845018716 106.095906366763302 162.077305543689363"/>
              <polygon class="cls-2" points="89.715159315754136 163.657867997219 72.409396824523355 165.32768429673888 76.578519793432861 167.136091801858129 93.981708667943167 165.395422378329386 89.715159315754136 163.657867997219"/>
              <polygon class="cls-2" points="236.512501209683251 151.139475318828772 226.373575863315637 152.153572138779055 231.075550688256044 153.414380544469168 241.210047627126187 152.363522987478063 236.512501209683251 151.139475318828772"/>
              <polygon class="cls-2" points="226.373575863315637 152.153572138779055 215.783769178855437 153.212766177259255 220.485881448332293 154.512435436939995 231.075550688256044 153.414380544469168 226.373575863315637 152.153572138779055"/>
              <polygon class="cls-2" points="215.783769178855437 153.212766177259255 204.71232093607432 154.32013407589875 209.409670619603276 155.660940382218541 220.485881448332293 154.512435436939995 215.783769178855437 153.212766177259255"/>
              <polygon class="cls-2" points="204.71232093607432 154.32013407589875 193.125607755006058 155.479038850269717 197.812598619453638 156.863454016949618 209.409670619603276 155.660940382218541 204.71232093607432 154.32013407589875"/>
              <polygon class="cls-2" points="193.125607755006058 155.479038850269717 180.986802030683975 156.69316400291973 185.657040373103882 158.12387772810871 197.812598619453638 156.863454016949618 193.125607755006058 155.479038850269717"/>
              <polygon class="cls-2" points="180.986802030683975 156.69316400291973 168.255480924362928 157.966552632058665 172.901657534182959 159.446497936049127 185.657040373103882 158.12387772810871 180.986802030683975 156.69316400291973"/>
              <polygon class="cls-2" points="168.255480924362928 157.966552632058665 154.887176664864455 159.303652410899304 159.500928811383346 160.836034795398518 172.901657534182959 159.446497936049127 168.255480924362928 157.966552632058665"/>
              <polygon class="cls-2" points="154.887176664864455 159.303652410899304 140.83285761881416 160.709367490619115 145.404607157222927 162.297698479829705 159.500928811383346 160.836034795398518 154.887176664864455 159.303652410899304"/>
              <polygon class="cls-2" points="140.83285761881416 160.709367490619115 126.038327368363753 162.189118605008844 130.557090177113423 163.837254465199294 145.404607157222927 162.297698479829705 140.83285761881416 160.709367490619115"/>
              <polygon class="cls-2" points="126.038327368363753 162.189118605008844 110.443526273013049 163.748912928318532 114.896687130343707 165.461099534848472 130.557090177113423 163.837254465199294 126.038327368363753 162.189118605008844"/>
              <polygon class="cls-2" points="110.443526273013049 163.748912928318532 93.981716540094567 165.395425584309123 98.354762149554517 167.176350620089579 114.896687130343707 165.461099534848472 110.443526273013049 163.748912928318532"/>
              <polygon class="cls-2" points="93.981716540094567 165.395425584309123 76.57852748856385 167.136095139689132 80.854728586124111 168.990949078008271 98.354762149554517 167.176350620089579 93.981716540094567 165.395425584309123"/>
              <polygon class="cls-2" points="241.210056270596397 152.363525239718001 231.075559341665212 153.414382864799336 235.870022483921275 154.699991498539021 245.997998965674924 153.61112762034827 241.210056270596397 152.363525239718001"/>
              <polygon class="cls-2" points="231.075559341665212 153.414382864799336 220.485890103875136 154.512437829369446 225.282591317405604 155.838251582419616 235.870022483921275 154.699991498539021 231.075559341665212 153.414382864799336"/>
              <polygon class="cls-2" points="220.485890103875136 154.512437829369446 209.409679268344917 155.660942850918218 214.203715171024669 157.029347164840146 225.282591317405604 155.838251582419616 220.485890103875136 154.512437829369446"/>
              <polygon class="cls-2" points="209.409679268344917 155.660942850918218 197.812607251144073 156.863456566537934 202.598363348823113 158.2770444136695 214.203715171024669 157.029347164840146 209.409679268344917 155.660942850918218"/>
              <polygon class="cls-2" points="197.812607251144073 156.863456566537934 185.657048976114311 158.123880363598801 190.428094758002771 159.585476150248724 202.598363348823113 158.2770444136695 197.812607251144073 156.863456566537934"/>
              <polygon class="cls-2" points="185.657048976114311 158.123880363598801 172.901666095083783 159.44650066291797 177.650632533894168 160.95918758164953 190.428094758002771 159.585476150248724 185.657048976114311 158.123880363598801"/>
              <polygon class="cls-2" points="172.901666095083783 159.44650066291797 159.500937314875046 160.836037619679701 164.219373368334345 162.403189053238748 177.650632533894168 160.95918758164953 172.901666095083783 159.44650066291797"/>
              <polygon class="cls-2" points="159.500937314875046 160.836037619679701 145.404615585714055 162.297701408098874 150.082819540033597 163.923017110999353 164.219373368334345 162.403189053238748 159.500937314875046 160.836037619679701"/>
              <polygon class="cls-2" points="145.404615585714055 162.297701408098874 130.557098510444121 163.837257504639638 135.1839190582632 165.524805443379591 150.082819540033597 163.923017110999353 145.404615585714055 162.297701408098874"/>
              <polygon class="cls-2" points="130.557098510444121 163.837257504639638 114.896695345323678 165.46110269339988 119.459296094893944 167.215367617709489 135.1839190582632 165.524805443379591 130.557098510444121 163.837257504639638"/>
              <polygon class="cls-2" points="114.896695345323678 165.46110269339988 98.354770219482816 167.176353906528675 102.838349817762719 169.002293965168064 119.459296094893944 167.215367617709489 114.896695345323678 165.46110269339988"/>
              <polygon class="cls-2" points="98.354770219482816 167.176353906528675 80.854736480103384 168.99095250218852 85.24219460020322 170.894065519478318 102.838349817762719 169.002293965168064 98.354770219482816 167.176353906528675"/>
              <polygon class="cls-2" points="245.998007776262966 153.611129916158461 235.870031308386388 154.699993864749558 240.759738754954014 156.011141729090014 250.878981381985795 154.882973519588631 245.998007776262966 153.611129916158461"/>
              <polygon class="cls-2" points="235.870031308386388 154.699993864749558 225.282600147933408 155.838254023168702 230.176773469353066 157.191009179368848 240.759738754954014 156.011141729090014 235.870031308386388 154.699993864749558"/>
              <polygon class="cls-2" points="225.282600147933408 155.838254023168702 214.20372399871485 157.02934968460977 219.097462321373314 158.426212947208114 230.176773469353066 157.191009179368848 225.282600147933408 155.838254023168702"/>
              <polygon class="cls-2" points="214.20372399871485 157.02934968460977 202.598372163383829 158.27704701724906 207.486048538034083 159.72073946268938 219.097462321373314 158.426212947208114 214.20372399871485 157.02934968460977"/>
              <polygon class="cls-2" points="202.598372163383829 158.27704701724906 190.428103547703358 159.585478842958764 195.303256283203154 161.078967487399495 207.486048538034083 159.72073946268938 202.598372163383829 158.27704701724906"/>
              <polygon class="cls-2" points="190.428103547703358 159.585478842958764 177.650641285254096 160.959190369268981 182.505846818903592 162.505717596368413 195.303256283203154 161.078967487399495 190.428103547703358 159.585478842958764"/>
              <polygon class="cls-2" points="177.650641285254096 160.959190369268981 164.219382065843092 162.403191941988553 169.046105753974189 164.006309343969406 182.505846818903592 162.505717596368413 177.650641285254096 160.959190369268981"/>
              <polygon class="cls-2" points="164.219382065843092 162.403191941988553 150.082828165943283 163.923020107849879 154.871248565614223 165.586627540038535 169.046105753974189 164.006309343969406 164.219382065843092 162.403191941988553"/>
              <polygon class="cls-2" points="150.082828165943283 163.923020107849879 135.183927592073815 165.52480855588874 139.92272878064432 167.253199379600119 154.871248565614223 165.586627540038535 150.082828165943283 163.923020107849879"/>
              <polygon class="cls-2" points="135.183927592073815 165.52480855588874 119.459304512993185 167.215370854370121 124.135429700923851 169.013284555148857 139.92272878064432 167.253199379600119 135.183927592073815 165.52480855588874"/>
              <polygon class="cls-2" points="119.459304512993185 167.215370854370121 102.838358092933049 169.002297335278854 107.436716141313809 170.874980975710059 124.135429700923851 169.013284555148857 119.459304512993185 167.215370854370121"/>
              <polygon class="cls-2" points="102.838358092933049 169.002297335278854 85.242202700934286 170.894069033260166 89.745317054102998 172.847349340358051 107.436716141313809 170.874980975710059 102.838358092933049 169.002297335278854"/>
              <polygon class="cls-2" points="250.878990364595666 154.882975860209626 240.759747755586432 156.011144142559715 245.747566090034525 157.348599895958614 255.855732901585725 156.179774137148343 250.878990364595666 154.882975860209626"/>
              <polygon class="cls-2" points="240.759747755586432 156.011144142559715 230.176782480266411 157.191011670020089 235.17142945179512 158.571537859128512 245.747566090034525 157.348599895958614 240.759747755586432 156.011144142559715"/>
              <polygon class="cls-2" points="230.176782480266411 157.191011670020089 219.097471333574504 158.426215519619291 224.09405505225368 159.852434858488778 235.17142945179512 158.571537859128512 230.176782480266411 157.191011670020089"/>
              <polygon class="cls-2" points="219.097471333574504 158.426215519619291 207.486057541293121 159.720742122039155 212.47894506636294 161.195511204188733 224.09405505225368 159.852434858488778 219.097471333574504 158.426215519619291"/>
              <polygon class="cls-2" points="207.486057541293121 159.720742122039155 195.303265265752998 161.078970239159389 200.285970051972981 162.605407136748909 212.47894506636294 161.195511204188733 207.486057541293121 159.720742122039155"/>
              <polygon class="cls-2" points="195.303265265752998 161.078970239159389 182.505855767123649 162.505720446679334 187.470905734124244 164.087236389748796 200.285970051972981 162.605407136748909 195.303265265752998 161.078970239159389"/>
              <polygon class="cls-2" points="182.505855767123649 162.505720446679334 169.046114652253891 164.006312299368801 173.98489703332416 165.646648165118677 187.470905734124244 164.087236389748796 182.505855767123649 162.505720446679334"/>
              <polygon class="cls-2" points="169.046114652253891 164.006312299368801 154.871257395923749 165.586630607909683 159.773835646932639 167.289899104509459 173.98489703332416 165.646648165118677 169.046114652253891 164.006312299368801"/>
              <polygon class="cls-2" points="154.871257395923749 165.586630607909683 139.922737522234456 167.25320256798841 144.777634467443931 169.023937189669596 159.773835646932639 167.289899104509459 154.871257395923749 165.586630607909683"/>
              <polygon class="cls-2" points="139.922737522234456 167.25320256798841 124.135438329803947 169.013287872829096 128.929378322332923 170.856499944169627 144.777634467443931 169.023937189669596 139.922737522234456 167.25320256798841"/>
              <polygon class="cls-2" points="124.135438329803947 169.013287872829096 107.436724629686069 170.874984432619385 112.154325721234272 172.796229862678956 128.929378322332923 170.856499944169627 124.135438329803947 169.013287872829096"/>
              <polygon class="cls-2" points="107.436724629686069 170.874984432619385 89.745325369784041 172.847352947368563 94.368730196523757 174.852810702010174 112.154325721234272 172.796229862678956 107.436724629686069 170.874984432619385"/>
              <polygon class="cls-2" points="255.855742061303317 156.179776523909823 245.747575272154791 157.348602358099015 250.836487278505956 158.713165817538538 260.931100059366145 157.502271199458846 255.855742061303317 156.179776523909823"/>
              <polygon class="cls-2" points="245.747575272154791 157.348602358099015 235.171438648612821 158.571540401118909 240.269685329294589 159.980701669408518 250.836487278505956 158.713165817538538 245.747575272154791 157.348602358099015"/>
              <polygon class="cls-2" points="235.171438648612821 158.571540401118909 224.094064254833938 159.852437485289556 229.196769852194848 161.308948135969331 240.269685329294589 159.980701669408518 235.171438648612821 158.571540401118909"/>
              <polygon class="cls-2" points="224.094064254833938 159.852437485289556 212.478954264504864 161.195513921038582 217.580487032253586 162.702373981468554 229.196769852194848 161.308948135969331 224.094064254833938 159.852437485289556"/>
              <polygon class="cls-2" points="212.478954264504864 161.195513921038582 200.285979233784019 162.605409949588648 205.379834869714614 164.165897581748141 217.580487032253586 162.702373981468554 212.478954264504864 161.195513921038582"/>
              <polygon class="cls-2" points="200.285979233784019 162.605409949588648 187.470914885932871 164.087239304899413 192.549579626183913 165.70494492907892 205.379834869714614 164.165897581748141 200.285979233784019 162.605409949588648"/>
              <polygon class="cls-2" points="187.470914885932871 164.087239304899413 173.984906139394297 165.646651189568729 179.039695428204141 167.32551685405997 192.549579626183913 165.70494492907892 187.470914885932871 164.087239304899413"/>
              <polygon class="cls-2" points="173.984906139394297 165.646651189568729 159.773844689003454 167.289902245969643 164.794712393942973 169.03426722075892 179.039695428204141 167.32551685405997 173.984906139394297 165.646651189568729"/>
              <polygon class="cls-2" points="159.773844689003454 167.289902245969643 144.777643424493363 169.023940456638229 149.752955374893645 170.838594243108673 164.794712393942973 169.03426722075892 159.773844689003454 167.289902245969643"/>
              <polygon class="cls-2" points="144.777643424493363 169.023940456638229 128.92938716995377 170.856503345999954 133.845651282656036 172.746747565259284 149.752955374893645 170.838594243108673 144.777643424493363 169.023940456638229"/>
              <polygon class="cls-2" points="128.92938716995377 170.856503345999954 112.154334431133975 172.796233409808337 116.995877749162901 174.767954374328838 133.845651282656036 172.746747565259284 128.92938716995377 170.856503345999954"/>
              <polygon class="cls-2" points="112.154334431133975 172.796233409808337 94.368738735793158 174.852814405989193 99.117319214523377 176.912568613439362 116.995877749162901 174.767954374328838 112.154334431133975 172.796233409808337"/>
              <polygon class="cls-2" points="260.931109401524736 157.502273633728691 250.83649664769473 158.713168329828477 256.02960725860612 160.105672065699764 266.108043328764325 158.851236122149203 260.931109401524736 157.502273633728691"/>
              <polygon class="cls-2" points="250.83649664769473 158.713168329828477 240.26969471787379 159.980704264409724 245.47479820816443 161.419400878288798 256.02960725860612 160.105672065699764 250.83649664769473 158.713168329828477"/>
              <polygon class="cls-2" points="240.26969471787379 159.980704264409724 229.196779251305998 161.308950818869562 234.409023881584289 162.79672817017854 245.47479820816443 161.419400878288798 240.26969471787379 159.980704264409724"/>
              <polygon class="cls-2" points="229.196779251305998 161.308950818869562 217.580496431623033 162.702376757779348 222.794259629983571 164.242386767618882 234.409023881584289 162.79672817017854 229.196779251305998 161.308950818869562"/>
              <polygon class="cls-2" points="217.580496431623033 162.702376757779348 205.379844257464356 164.165900457608586 210.588611912233318 165.761591047479669 222.794259629983571 164.242386767618882 217.580496431623033 162.702376757779348"/>
              <polygon class="cls-2" points="205.379844257464356 164.165900457608586 192.549588988613323 165.704947911279305 197.745813391633419 167.360099781239114 210.588611912233318 165.761591047479669 205.379844257464356 164.165900457608586"/>
              <polygon class="cls-2" points="192.549588988613323 165.704947911279305 179.039704749413431 167.325519949939917 184.214636844002598 169.04428908421869 197.745813391633419 167.360099781239114 192.549588988613323 165.704947911279305"/>
              <polygon class="cls-2" points="179.039704749413431 167.325519949939917 164.794721655493049 169.034270438449312 169.938212226194082 170.821237418458622 184.214636844002598 169.04428908421869 179.039704749413431 167.325519949939917"/>
              <polygon class="cls-2" points="164.794721655493049 169.034270438449312 149.75296455550415 170.838597591548023 154.853227708994382 172.69882503775807 169.938212226194082 170.821237418458622 164.794721655493049 169.034270438449312"/>
              <polygon class="cls-2" points="149.75296455550415 170.838597591548023 133.845660357485031 172.746751054399283 138.88899100294293 174.685850822039356 154.853227708994382 172.69882503775807 149.75296455550415 170.838597591548023"/>
              <polygon class="cls-2" points="133.845660357485031 172.746751054399283 116.99588668942306 174.767958015199838 121.966321620702729 176.792170154360065 138.88899100294293 174.685850822039356 133.845660357485031 172.746751054399283"/>
              <polygon class="cls-2" points="116.99588668942306 174.767958015199838 99.11732798657431 176.912572418388663 103.996237451823617 179.028858399829915 121.966321620702729 176.792170154360065 116.99588668942306 174.767958015199838"/>
              <polygon class="cls-2" points="266.108052858813608 158.851238605369872 256.029616820633237 160.105674629709029 261.33015943488499 161.526985659987986 271.389642880156316 160.227471510388568 266.108052858813608 158.851238605369872"/>
              <polygon class="cls-2" points="256.029616820633237 160.105674629709029 245.474807794544176 161.419403527948816 250.790163175424823 162.888573891619671 261.33015943488499 161.526985659987986 256.029616820633237 160.105674629709029"/>
              <polygon class="cls-2" points="245.474807794544176 161.419403527948816 234.409033483516396 162.796730910918996 239.734382603775884 164.316792682939194 250.790163175424823 162.888573891619671 245.474807794544176 161.419403527948816"/>
              <polygon class="cls-2" points="234.409033483516396 162.796730910918996 222.794269237256231 164.242389605318749 228.124007552185503 165.816655647449807 239.734382603775884 164.316792682939194 234.409033483516396 162.796730910918996"/>
              <polygon class="cls-2" points="222.794269237256231 164.242389605318749 210.588621512975806 165.761593988609093 215.916233987692976 167.393692338058827 228.124007552185503 165.816655647449807 222.794269237256231 164.242389605318749"/>
              <polygon class="cls-2" points="210.588621512975806 165.761593988609093 197.745822972025053 167.36010283287942 203.06373669657296 169.054016367448639 215.916233987692976 167.393692338058827 210.588621512975806 165.761593988609093"/>
              <polygon class="cls-2" points="197.745822972025053 167.36010283287942 184.214646388072651 169.044292254149696 189.514056156023798 170.804404613589213 203.06373669657296 169.054016367448639 197.745822972025053 167.36010283287942"/>
              <polygon class="cls-2" points="184.214646388072651 169.044292254149696 169.938221715343388 170.821240715249587 175.208882847113273 172.6523896744784 189.514056156023798 170.804404613589213 184.214646388072651 169.044292254149696"/>
              <polygon class="cls-2" points="169.938221715343388 170.821240715249587 154.853237121613347 172.698828470818626 160.083218419973491 174.606368231299712 175.208882847113273 172.6523896744784 169.938221715343388 170.821240715249587"/>
              <polygon class="cls-2" points="154.853237121613347 172.698828470818626 138.889000313853103 174.68585440193965 144.064388260432679 176.675728608050122 160.083218419973491 174.606368231299712 154.853237121613347 172.698828470818626"/>
              <polygon class="cls-2" points="138.889000313853103 174.68585440193965 121.966330800523792 176.792173892868959 127.070873812102946 178.871001615538262 144.064388260432679 176.675728608050122 138.889000313853103 174.68585440193965"/>
              <polygon class="cls-2" points="121.966330800523792 176.792173892868959 103.996246466283992 179.028862309998658 109.010925064152616 181.204039794518394 127.070873812102946 178.871001615538262 121.966330800523792 176.792173892868959"/>
            </g>
          </g>
          <ellipse class="cls-1" cx="109.690747295256187" cy="23.024227951271769" rx="1.06979325415677" ry="1.447022938563012" transform="translate(75.167262307227674 129.655855994855756) rotate(-83.914274005093048)"/>
        </g>
      </g>
      <g>
        <polygon class="cls-10" points="129.458468781967895 41.986262988539238 95.967138186224474 41.738526061308221 74.407597879497189 66.334505607028404 79.888950941436633 104.174951656088524 111.713966608664123 130.793319438629624 148.259778397048649 127.692453833667969 165.974418605748724 99.40483372971903 157.425783668095391 64.896420630349894 129.458468781967895 41.986262988539238"/>
        <polygon class="cls-6" points="129.458468781967895 41.986262988539238 95.967138186224474 41.738526061308221 74.407597879497189 66.334505607028404 79.888950941436633 104.174951656088524 111.713966608664123 130.793319438629624 148.259778397048649 127.692453833667969 165.974418605748724 99.40483372971903 157.425783668095391 64.896420630349894 129.458468781967895 41.986262988539238"/>
        <g>
          <line class="cls-3" x1="143.700660819071345" y1="53.023804037269656" x2="95.375640496833512" y2="117.964120049648045"/>
          <g>
            <path class="cls-4" d="M112.903874830131826,90.954989495359769l-12.863276204163412.560615886579399-1.241829593443981,7.55394180643998-9.154404708715447.469241689799674,6.890710145155026-35.29454251127936,10.216853955935221-.159173844931502,18.614306768426104,33.622664356371388-8.66167555462016.443985098208941-3.800684808573351-7.196732481188519ZM108.705767763283802,83.018348632609559l-5.542111670991289-10.509951250180166-1.761795373018685,10.766956032390226,7.303907044009975-.257004782210061Z"/>
            <path class="cls-4" d="M151.620027606775693,79.478301261578963c2.221745294393259,9.402579131869061-2.994773667831396,17.037211588389255-12.345226688736147,17.516502434209542l-12.24193486358854.627504068750568-6.816506772727735-33.747004829019716,11.84168906517516-.184488022139703c9.053002737051429-.141041582850448,17.389586005790989,6.593768450529751,19.561979259877262,15.787486348199309ZM144.078097494462781,79.727116242918783c-1.190502019306223-5.242993394798759-5.416677608818645-8.682503218129568-10.401109119939065-8.565190190849535l-4.126281191083763.097115696518813,3.801586504403531,17.965310605821287,4.199849049145996-.179300042240357c5.072223479592139-.216543469399767,7.720801250339719-4.055809530780607,6.525954757473301-9.317936069250209Z"/>
          </g>
          <g class="cls-12">
            <line class="cls-3" x1="143.700660819071345" y1="53.023804037269656" x2="95.375640496833512" y2="117.964120049648045"/>
          </g>
        </g>
      </g>
    </g>
  </g>
</svg>