<?xml version="1.0" encoding="UTF-8"?>
<svg xmlns="http://www.w3.org/2000/svg" width="60.331387955251557" height="75.402182946744688" viewBox="0 0 60.331387955251557 75.402182946744688">
  <defs>
    <style>
      .cls-1 {
        fill: #151c22;
      }

      .cls-1, .cls-2, .cls-3, .cls-4 {
        stroke-width: 0px;
      }

      .cls-2 {
        fill: #000;
        mix-blend-mode: multiply;
      }

      .cls-3 {
        fill: #ffc58f;
      }

      .cls-5 {
        isolation: isolate;
      }

      .cls-4 {
        fill: #e9e9de;
        mix-blend-mode: screen;
      }
    </style>
  </defs>
  <g class="cls-5">
    <g id="Layer_2" data-name="Layer 2">
      <g id="Layer_1-2" data-name="Layer 1">
        <g>
          <path class="cls-3" d="M59.262492994839704,50.510938469738903c2.212363655178706-1.359207294935914.890902485640254-9.487700689489429-3.044305552781225-15.026932384243992-2.126117098579925-2.992641615775938-.762772332678651-3.605222274327389-12.128072214758504-9.403276228065806-1.680562979850947-.857231045898516-2.883260284821517-2.311896266368421-4.079197054741599-1.857004649085866-1.48900707301982.56635959621417-2.10683571105983,3.401803021632077-1.59520791102841,5.636179781329702.539369300990074,2.357183933199849,2.136488407799334,3.176241782191937,4.54254420649886,5.734334716889862,3.336332614861021,3.547070279455511,2.71880071159103,4.580590762685461,5.522937197660212,7.923922598118224,3.008705257880138,3.587295464360068,8.664809109839553,8.292929602139338,10.781301329150665,6.992776165057876Z"/>
          <g>
            <path class="cls-1" d="M41.685626025779129,64.06298836737551h-25.608131563809366c-3.043079331820991,0-5.66602632535978-2.163739112602343-5.831420794120277-4.851366192164278L7.027619857968602,6.912390655939816c-.231929205940105-3.768803268274496,2.599706873741525-6.912390655939816,6.297039082821357-6.912390655939816h31.113802606159879c3.697332209079832,0,6.528968288759643,3.14358738766532,6.297039082828633,6.912390655939816l-3.218453809889979,52.299231519271416c-.165394468758677,2.687627079561935-2.788341462290191,4.851366192164278-5.831420794109363,4.851366192164278Z"/>
            <path class="cls-2" d="M10.698482118359607,20.104948569874978l-.799651704070129-13.443566486261261c-.107710172680527-1.810799452268839.993583874700562-3.45150335710423,2.467679368019162-3.559449083331856l3.244113173410369-.237561375142832c1.528621998730159-.111938617643318,2.69630670827064,1.414285927246965,2.584228239829827,3.29848713067986l-.826226928089454,13.890070001474669c-.068673110270538,1.154494336151402-1.049220015700485,2.064318178254325-2.172746299729624,2.064317435608245l-2.395808882889469-.000001583619451c-1.093790727481974-.000000723000994-2.034673219981414-.887357024887024-2.101586966480681-2.012296039407374Z"/>
            <path class="cls-4" d="M21.211334216450268,7.598963309908868h-.000003097680747c-.851861502980682-.000000004543836-1.54625396531992-.713502966536907-1.543080127110443-1.589490658210707l.00000907732101-.002505364805984c.003189649898559-.880351760530175.709101764379739-1.603899077108508,1.568679153609992-1.603899073321372h.000003172279321c.859577375449589.000000003780769,1.553894171620414.723547314933967,1.542975623398888,1.603899061399716l-.000031073099308.002505392851162c-.010864423109524.875987691877526-.71669122548883,1.589490646616468-1.568552728718714,1.589490642087185Z"/>
          </g>
          <path class="cls-3" d="M46.30343990172878,37.174746194945328c3.234932582050533-.713810178047424,6.373976282990043-.022830685968074,8.060461493920229,1.222934475303191,4.836417392891235,3.572475493157981,6.278789884539947,12.322687134528678,5.275469046260696,18.647226201352169-1.188425015350731,7.491977413137647-5.786876412099446,11.441510466203908-7.146531572259846,12.49470757231029-.177552488630681.13742316751086-.368100906191103.256757406896213-.538101706380985.371525509086496-4.056486035829948,2.740209179024532-7.68744320920996,3.827476693433709-8.725888179769754,4.119006991277274-4.278821793099269,1.201333133951266-7.751895991939818,2.176466856093612-10.190740116078814.396551453326538-2.420930816690088-1.767007284161082-3.550171669170595-4.529520287178457-3.550171669170595-4.529608097513119-.042675820710429-.105635827795595-.074638781070462-.188440969624935-.095713260430784-.243585857289872-.011590963649724-.030470184738078-1.98451347324044-5.638037901604548.140320908411013-13.153636293696763,1.949038099650352-6.893725630248809,6.248056268808796-11.510002524137235,8.409244127369675-13.559583452406514.40621058969009-.079292728597466,1.430430286680348-.335347652842756,2.346292035619626-1.227588422829285.866161101759644-.843681657115667,1.160676950850757-1.793877245341719,1.261483210459119-2.198419438758719.852287069530576-.702394835065206,2.462904154761418-1.834006566466996,4.75387568205042-2.339530640161684Z"/>
          <path class="cls-3" d="M53.232377474580062,43.879416183259309c1.793086952378872-2.34277962239139,1.579005366189449-3.097948466194794,1.103951477238297-3.646587412251392-1.134591240899681-1.798495711231226-2.451077576199168-3.694381724730192-3.776282420218195-5.332858364396088-2.304217127461015-2.862669524369267-5.112015147920829-5.336942145178909-8.277537108191609-7.275884147158649-6.616029296908891-1.146082482624479-13.0222014476185-3.529389878101938-19.813755087079699-3.221294549966842-1.184233647119981.02723585306012-2.131785875519199,1.043399370653788-2.009638178280511,2.234641893104708.066547450251164.685081301020546.477324177150876,1.263400138843281,1.034217294280097,1.578112363986293,1.489087587580798.827700176934741,3.033495683481306,1.42577633916153,4.576850055411342,2.023940311708429,4.529141993789381,1.598242909338296,9.356742389069041,3.828691597052966,14.119710273189412,4.500278009509202.000015278590581-.000086372776423-1.862090593689572-1.257003446047747-1.862090593689572-1.257003446047747,1.561332076829785,4.169049407923012,4.235023827010082,7.700073427677125,7.196495559590403,10.947372625065327.000087901158622-.000058699893998,1.504454486268514,1.583249372491991,1.504454486268514,1.583249372491991.576818183380965,1.461224021913949,5.083867784971517-.358112530815561,6.203624241481521-2.133966656045232h0Z"/>
          <path class="cls-3" d="M49.094579072549095,51.373149803006527c.185630361620497-1.59296171879032.543632177299514-3.433298405070673-.757668974010812-4.119235632995697-3.026483639188882-1.588203611820063-6.149261470129204-2.952524372194603-9.420261825269336-3.980455333370628-4.183865535489531-1.329866036339808-8.437849127900336-2.522209628339624-12.54823941074028-4.067372661086665-4.654253864129714-1.043526831687814-9.751125346849221-2.337469019142191-14.490298935359533-2.781953627397343-2.344592903880766.050312556573772-6.798941496119369-1.900456204071816-7.294816987989179,1.604409870407835-.064366924840215.977752862396301.511121903498861,1.77371022272564,1.315303855370075,2.198733589204494,5.687025965318753,3.464485259657522,12.361142206438672,4.034044524312776,18.648620265479622,5.743184461374767-.000015927500499.000070928796049-.506330294170766-.178886525118287-.506330294170766-.178886525118287l2.802203272480256,1.442109060666553c5.730358170820182,3.180967732321733,11.213793622899175,7.02724394640245,17.454987972630988,9.147969136407482.691443719209929.304479295427882,1.260446761019921.006248013847653,1.958984241789949-.539723080401018,1.105909405918283-.843103855946538,2.688880510639137-2.854116467842687,2.837516819789016-4.468779257691494h0Z"/>
          <path class="cls-3" d="M45.162608085609463,59.701344995162799c-.289422849900802-4.769593731238274-2.7637423476408-4.02785986804156-4.512924134680361-5.115127382450737-5.720023922980545-2.374244141265081-11.497189474059269-4.601017828092154-17.346573952130711-6.643392805362964-3.700500744629608-.955973907097359-9.814518583149038-2.55656792512309-12.375912491488634-2.922853046457021-2.534462908950445-.801871132222004-5.104495667121228-1.518403430527542-7.707720730300935-2.155555189896404-1.39513053374867-.341582186323649-2.803081375788679.512548900147522-3.14466356210869,1.907679433898011-.275373196991495,1.125552818586584.230765549009448,2.260676963214792,1.167877397969278,2.836273680783052,5.591069132829944,3.791439678327151,14.016313102749336,6.850924510821642,19.11814580005921,8.661282843699155,5.560155549430419,2.471650988456531,11.192778567999994,4.759792667460715,16.881798844251534,6.911459720082348,2.019118607109704.406366740025987,3.313091639929553,2.641929948666075,6.791961320588598-.634010057801788.80680131823101-.759734981002111,1.185088222780905-1.81960567223723,1.128011507840711-2.845757196493651h0Z"/>
          <path class="cls-3" d="M38.015374030699604,68.089514643157599c.374423249999381-2.477041617989016-.050227509151227-3.231420168813202-.665251065189295-3.588193542342196-4.050271612781216-2.948741472999245-9.11471037001138-3.937816552319418-13.599962607411726-6.044923832762834-2.741731506199358-1.150885639291118-9.176239616368548-3.769822785046017-11.801229076208983-4.964986146552292-2.306684400620725-.801667796033144-5.648105887190468-3.73051151125037-7.381088524969527-.600888963661419-1.375999560801574,3.129687043110607,2.751926940200065,4.20290218642549,4.617402598989429,5.732913762389217,2.092230627949903,1.342972090129479,5.06563462656959,3.491827602330886,7.144298312439787,4.935937405465666,3.532009927199397,2.622512675781763,7.70214209930964,4.077012045694573,10.851850209639451,7.26014496172138,1.665613973280415,1.510803337780089,3.467462735339723,2.72414259521247,5.644582578401241,3.244579922113189.662248166059726.286117390056461,1.623946907609934-.051513331389287,3.891034024958572-3.202411426973413.631711712010656-.805145024492958,1.175776497080733-1.783532758261572,1.298363549351052-2.772172139397298h0Z"/>
        </g>
      </g>
    </g>
  </g>
</svg>