<?xml version="1.0" encoding="UTF-8"?>
<svg xmlns="http://www.w3.org/2000/svg" width="292.450726121081971" height="229.645126155497564" xmlns:xlink="http://www.w3.org/1999/xlink" viewBox="0 0 292.450726121081971 229.645126155497564">
  <defs>
    <style>
      .cls-1 {
        stroke-width: .512907353725348px;
      }

      .cls-1, .cls-2, .cls-3, .cls-4, .cls-5 {
        fill: none;
      }

      .cls-1, .cls-3, .cls-6, .cls-4, .cls-7 {
        mix-blend-mode: multiply;
      }

      .cls-1, .cls-3, .cls-4, .cls-5 {
        stroke-miterlimit: 10;
      }

      .cls-1, .cls-6, .cls-4, .cls-7 {
        opacity: .6;
      }

      .cls-1, .cls-4 {
        stroke: #f1b068;
      }

      .cls-8 {
        fill: #151c22;
      }

      .cls-8, .cls-2, .cls-9, .cls-10, .cls-11, .cls-12, .cls-13, .cls-14, .cls-15, .cls-16, .cls-17, .cls-6, .cls-18, .cls-19, .cls-20, .cls-21, .cls-22, .cls-23, .cls-24, .cls-25 {
        stroke-width: 0px;
      }

      .cls-26 {
        clip-path: url(#clippath);
      }

      .cls-9 {
        fill: #fcbb2c;
      }

      .cls-10 {
        fill: #fddc5d;
      }

      .cls-11 {
        fill: #e2b186;
      }

      .cls-3 {
        stroke: #151c22;
        stroke-width: 12.1548646537236px;
      }

      .cls-12 {
        fill: #eecb2d;
      }

      .cls-13 {
        fill: #000;
      }

      .cls-14 {
        fill: #505050;
      }

      .cls-15 {
        fill: #910000;
      }

      .cls-16 {
        fill: #f38c24;
      }

      .cls-17 {
        fill: #e9e9de;
      }

      .cls-6, .cls-25 {
        fill: #f1b068;
      }

      .cls-18 {
        fill: #fde898;
      }

      .cls-19 {
        fill: #c84530;
      }

      .cls-20 {
        fill: #de5f56;
      }

      .cls-21 {
        fill: #f7a128;
      }

      .cls-27 {
        isolation: isolate;
      }

      .cls-22 {
        fill: #4d3329;
      }

      .cls-23 {
        fill: #68bf4b;
      }

      .cls-4 {
        stroke-width: .484541822660035px;
      }

      .cls-5 {
        stroke: #c84530;
        stroke-width: 6px;
      }

      .cls-24 {
        fill: #fff;
      }
    </style>
    <clipPath id="clippath">
      <path class="cls-2" d="M67.39266690634031,130.991901468962169c20.460697179491035-6.838775634769263,38.924063783850215-2.52490234375,49.155235905711379,0,13.667283086258976,3.372894287109375,11.584668084009536,5.455352783199487,23.402716793469153,7.641967773441138,4.685255637350565.86688232421875,16.251806014919566,2.619079589838293,28.729657485400821,7.452423095699487,1.993785199600097.772308349609375,3.89106360229016,1.576873779300513,5.774020921158808,3.434020996090112,5.475874380530513,5.400817871099207,4.591233394950905,14.419464111329944,5.307092172230114,21.167602539069776,1.672300596430432,15.764068603510168.259175326140394,29.795288085930224-2.041968807199737,41.138580322260168-50.759504374840617-9.850555419920056-122.709969539309895-19.701202392579944-173.469473914150512-29.5517578125.404256559450005-11.718109130861194,2.010465214400028-19.557403564451306,4.15805550442019-24.817352294920056,2.267281609571-5.553100585941138,6.247565843319535-8.337310791021082,7.406066151330378-9.340240478521082,10.342111667971039-8.953491210928405,19.810609305750404-4.973358154289599,38.921467563970509-11.612548828119543,7.783662603449557-2.704071044920056,5.793981106238789-3.21875,12.657130223658896-5.5126953125Z"/>
    </clipPath>
  </defs>
  <g class="cls-27">
    <g id="Layer_2" data-name="Layer 2">
      <g id="Layer_1-2" data-name="Layer 1">
        <g>
          <g>
            <g>
              <path class="cls-22" d="M125.890421812180648,36.304238489712588c7.994374588201026,3.835428186919671,23.584296442861159,11.314976280149494,29.887067385980117,26.71296335362058,2.247824843530907,5.491516388179662,1.314939464900817,10.145263176869776,5.280929277620089,22.272767939168261,1.518318980159165,4.642808664730182,3.026434824800162,8.365785205951397,4.066067672631107,10.791090181241088-3.775378318330695-3.146968646680762-7.55075663666139-6.293937293359704-11.32613495500118-9.440905940049561,1.00989116683013,1.40789478429906,5.196842598279545,7.576763438359194,4.063787165150643,15.958827470019969-.841030225170471,6.221670184138929-4.159743580730719,10.308867636009381-5.552466080989689,11.847694595890061.544957984498978-1.795793480339853,2.197422778828695-8.042781750551512-1.090810161020272-13.819226656580213-.81485471751148-1.431509795080274-1.779440324769894-2.564057042460263-2.705424595340446-3.446371569851181,1.547968629740353,4.206383293831095,3.541935134369851,11.814294081401385-.13067581317955,17.348681299181408-1.709815567650367,2.576512167270266-4.586192175509495,4.423080588039738-10.338945391231391,8.116217429589597-3.843033789378751,2.467166559719772-5.016767924129454,2.77459333825027-7.887256417139724,4.833232590510306-3.962099413938631,2.841534646138825-6.692422705389617,5.817411110108878-8.370180314919708,7.870933596808754-.162380166910225-3.773339993538684-.324816789860051-7.546623580848973-.487196956779371-11.319963574398571-2.068831703851174,1.684120942220034-4.683473602060985,3.514665559039713-7.87690630707948,5.164262239228265-6.037307599501219,3.118485807890465-11.664300027490754,4.309013413621869-15.628236463231588,4.791669066211398,4.837331517621351-8.434264655201332,15.76871082397156-30.150125960450168,13.683635936871724-59.176517046529625-1.555842252389994-21.658056138179745-9.659685203590925-37.659917638191473-14.621537694030849-45.900602628540582,13.33236389988997.770356219449241,23.263276883310027,4.626446326130463,29.034283711689568,7.395247654480045Z"/>
              <path class="cls-22" d="M37.907172058761716,41.347238792022836c-2.658142089840112,6.136489868160425-3.574157714840112,9.376251220699487-6.401062011711474,17.658508300779431-5.213104248048694,15.2733306884802-6.181243896489832,16.072219848630994-8.83758544921875,25.307357788089575-1.700775146489832,5.912963867191138-2.884490966800513,10.86602783203125-3.642333984380457,14.254577636720569,3.978759765630457-3.935424804689319,7.957489013670056-7.870788574220569,11.936248779300513-11.806182861329944-1.737091064451306,4.080078125-4.056182861329944,11.067596435550513-3.78857421875,19.888793945310681.155792236329944,5.137329101558862,1.145233154298694,9.4541015625,2.169219970699487,12.680877685548694,2.603515625-7.457061767579944,5.207061767579944-14.914123535159888,7.810607910159888-22.371185302739832-1.052185058599207,3.295562744140625-4.177124023439319,14.499572753909888.820159912109375,27.172027587890625,3.989776611329944,10.117523193359375,11.032409667970569,15.78338623046875,14.08184814453125,17.964813232429151-1.10919189453125-6.1015625-2.218444824220569-12.203125-3.32763671875-18.304718017579944.50146484375,3.114776611329944,1.695892333978918,8.077819824220569,4.848052978510168,13.391693115230737,2.941833496099207,4.959350585939319,6.416107177739832,8.247192382810681,8.800750732429151,10.177795410159888.644256591789599-4.375762939449487,1.288513183590112-8.75146484375,1.932739257810681-13.127227783199487,2.206756591798694,2.21127319335028,5.031555175779431,4.658935546869543,8.552490234369543,6.965545654289599,6.656433105470569,4.360656738279431,13.067352294929151,6.426147460939319,17.626556396489832,7.466369628909888,1.911010742189319-10.590087890630457,5.616271972650793-39.195709228521082-8.802459716800513-70.581604003909888-11.840270996090112-25.773239135740369-29.980865478510168-40.532394409179688-38.919006347648974-46.897033691400793-1.229095458989832,2.3384857177698-2.982727050790345,5.825714111320849-4.86001586914972,10.15959167480105Z"/>
              <path class="cls-17" d="M67.39266690634031,130.991901468962169c20.151523683471169-7.154083251949487,38.677981222461312-2.675018310550513,49.155235905711379,0,12.759331954479421,3.257659912109375,12.444714771629151,5.521514892579944,25.046151891488989,7.974639892579944,4.133963700611275.804748535150793,11.011238487470109,1.893341064449487,20.491544738230004,4.803039550779431,8.896910519861194,2.730651855470569,10.944518428290394,4.259368896480737,12.368698570309789,5.750732421871362,4.685283553690169,4.90625,4.349952444510564,12.144989013679151,5.307092172230114,21.167602539069776,1.672300596430432,15.764068603510168.259175326140394,29.795288085930224-2.041968807199737,41.138580322260168-50.759504374840617-9.850555419920056-122.709969539309895-19.701202392579944-173.469473914150512-29.5517578125.404256559450005-11.718109130861194,2.010465214400028-19.557403564451306,4.15805550442019-24.817352294920056,2.246372268849882-5.501892089840112,6.185535729720868-8.28125,7.406066151330378-9.340240478521082,10.859150252139443-9.421813964840112,20.796614531869636-4.761993408199487,41.150392118610398-12.427642822260168,6.627953929710202-2.496246337888806,4.833435584700055-2.711364746090112,10.428205669019007-4.697601318359375Z"/>
              <g class="cls-26">
                <path class="cls-3" d="M0,166.077776128682672h185.171511166061464"/>
                <path class="cls-3" d="M0,145.446455833442087h185.171511166061464"/>
                <path class="cls-3" d="M0,207.340416719152927h185.171511166061464"/>
                <path class="cls-3" d="M0,186.709096423912342h185.171511166061464"/>
              </g>
              <path class="cls-14" d="M64.666589759370254,131.932726081671717c3.126923428460941-.965837450759864,5.902526866500921-1.647708306429195,8.190933431891608-2.136952839298829,8.059590654458589-1.723106081230071,22.795943133469336-4.784723774580925,39.06284850162956-.034298308810321,2.852390696560178.832958928160224,5.164052831680237,1.733783166710055,6.760496501708985,2.41046174109033-.066548957389386.42518202004976-.132951653329656.850437170809528-.199500610709947,1.275619190850193-2.406147028468695,2.092562490808632-12.007333311148614,9.948484083368385-26.566928834119608,10.027245871398918-14.837638529539618.080297533200792-24.644760926510571-7.971541264680127-27.008711528149433-10.027245871398918-.079712487409779-.50496763818046-.159424974830472-1.00986214564-.239137462251165-1.514829783831374Z"/>
              <path class="cls-11" d="M53.534555230600745,94.97984442102279c-6.206490040740391,1.512450831489332-12.346716213080072-3.395837713551373-13.602127197769732-10.87307914063058-1.25541098470967-7.477241427079207,2.818708855949808-14.874704579518948,9.025198896679285-16.387155411019194,1.525642767041063,9.086744850548712,3.051285534060298,18.173489701099243,4.576928301090447,27.260234551649773Z"/>
              <path class="cls-11" d="M125.298537932580075,95.34522082993135c5.359103799310105,1.908764818581403,11.408342482431181-2.556202400268376,13.400582344011127-9.891046665788963,1.992239861569033-7.334844265509673-.778246524670976-14.941251439920961-6.137350323970168-16.850016258489632-2.421108584710964,8.913662414719511-4.8421234353209,17.827400509559084-7.263232020040959,26.741062924278594Z"/>
              <path class="cls-4" d="M137.700370475320597,80.888820059382851c-.040906985139372-.79150124887019-.19957815780981-2.025943646691303-.847095729690409-2.456854117961484-1.392596831488845-.926777927908915-4.259303606719186,2.3866286863813-5.486705286428332,6.057683071410793-.476019691970578,1.42381953217955-1.127730342141149,4.164272072759559-.448508595960448,5.225955337940832.671010944899535,1.048859274998904,2.373046186228748.04047987812919,3.306409173059365-2.03444838732139.687645602809425-1.528699433978545,1.063611535400923-3.871163202589742.479987941169384-4.337986191760137-.357528634458504-.285959545479272-1.053989301019101.14878677984052-1.60793649561856,1.104374530841596-.642693139539915,1.10856595831865-.748748274279933,2.323306062018673-.758126652161081,2.443333874009113"/>
              <path class="cls-1" d="M42.055417853911422,79.242132690273138c.205261975499525-.769414333090026.629943585619912-1.951395813410272,1.430727520899381-2.251563502890349,1.722228639489913-.645592734950696,4.210840696690866,3.152181467350601,4.820525426699533,6.989871372399648.23643509104113,1.488443773030667.400028970259882,4.303059357609527-.563347513700137,5.216568179159367-.951732732928576.902475859711558-2.62333748789024-.41083244488982-3.232004788329505-2.625442813419795-.44842588128995-1.631608476620386-.388687229738935-4.003078876139625.348952106571232-4.350641169179653.451875479699083-.212900580629139,1.131406682918168.346220199420713,1.54847881151909,1.389699793899126.483912699990469,1.210540694450174.354952170389879,2.423440996650243.340996466260549,2.543077991691462"/>
              <path class="cls-11" d="M69.192507669960833,116.31477744552285c.118469238279431,2.071441650388806.834991455079944,16.057891845708582-3.189086914060681,17.14111328125-.3173828125.085418701170056-.680114746099207.094848632808862-1.097686767579944-.008331298829944.97607421875,2.753082275388806,4.301116943361194,10.993896484378638,13.071807861329944,16.431488037109375,5.482086181640625,3.398773193359375,10.780914306640625,4.269714355470569,13.773712158201306,4.524688720710401,3.182037353510168-.568542480470569,9.486358642579944-2.133361816409888,15.769866943359375-6.986663818359375,6.516967773439319-5.033630371101026,9.643310546869543-11.003082275390625,10.960388183590112-13.969512939460401-.29638671875.124969482429151-.730377197260168.25262451171875-1.214263916010168.167755126960401-2.489074707029431-.436584472661707-3.407012939460401-5.989837646491651-3.826934814460401-8.530609130861194-.343566894529431-2.078826904300513-.639739990228918-5.141021728519263-.239135742180224-8.929351806638806-14.669586181638806.053161621088293-29.339080810548694.106262207029431-44.008666992189319.159423828119543Z"/>
              <path class="cls-6" d="M80.669420088941479,135.136290507212834c8.421002684559426,2.587950004350205,20.806714353419011-1.932918123809941,32.511725258160368-12.011136108720166-.193065107141592-1.881946010280444-.269413581330809-4.232733081889819.020037817939738-6.969796629220582-14.669584129471332.053166035189861-29.339095128210829.106258939649706-44.008679257660333.159424974839567.069839839889028,1.220551756880013.346347101289211,6.576938388481722-.260711025370256,10.993814629380722,3.107031871970321,5.166758668410694,8.966923527299514,6.976232132790756,11.737627206930483,7.827693133720459Z"/>
              <path class="cls-11" d="M133.75949375394157,48.459705424042113c-3.40948486328125-19.686782836919519-19.142944335930224-45.475387573240369-43.677185058590112-45.762710571289062-24.494415283201306-.28681945801145-41.282928466800513,25.037979125978381-44.438079833989832,43.37089538573855-.872741699211474,5.070968627931506-1.577911376951306,16.273422241210938,1.600189208989832,28.483917236329944,1.04559326171875,4.017272949220569,1.089080810548694,2.659545898441138,3.683380126949487,11.041931152340112,4.501983642579944,14.545989990241651,4.585327148439319,19.326324462890625,9.384765625,24.980804443361194,2.155212402349207,2.539154052739832,4.229888916019263,4.039306640630457,6.949768066409888,6.006011962888806,1.233551025390625.891967773441138,2.996429443359375,2.081604003909888,5.201843261720569,3.309692382819776,2.429840087888806,1.353057861320849,5.787994384760168,2.969177246090112,10.016693115228918,4.29083251953125,1.177154541021082.826812744140625,4.145172119140625,2.671783447260168,8.338806152351026,2.808349609369543,5.38461303710028.175354003909888,9.110809326170056-2.585601806640625,10.126403808590112-3.393035888670056,11.089294433590112-5.304748535159888,16.791351318359375-11.689117431640625,19.682586669920056-15.732513427730737.294158935548694-.411376953128638.795501708989832-1.044219970708582,1.345703125-1.99676513671875,1.83221435546875-3.172119140630457,2.800018310548694-7.356658935550513,7.075164794920056-21.389587402351026,1.219635009769263-4.00360107421875,2.229888916019263-7.237365722648974,2.850402832029431-9.211822509758349,1.837493896489832-6.060348510740369,3.790710449220569-15.654876708991651,1.859558105470569-26.805999755861194Z"/>
              <g class="cls-7">
                <path class="cls-25" d="M96.694469147510972,88.632637497941687c-2.831823949050886,4.772767780961658-10.076827936049085,5.546775978489677-13.325932065030429.800469489720854,1.124516049410886.610175041529146,2.220951596280429,1.135687736839827,3.348881283780429,1.477606682150508,3.529990602139151,1.139914503499313,7.047646936709498-.205026153511426,9.97705078125-2.278076171871362h0Z"/>
              </g>
              <g>
                <path class="cls-24" d="M76.858340189490264,105.000202250212169c4.32110595703125.822174072269263,10.681671142579944,1.455505371090112,18.108978271480737.097717285159888,3.673736572269263-.671600341800513,6.843627929689319-1.690521240239832,9.448852539069776-2.740600585939319-.222137451179151.644683837888806-2.901916503909888,8.022491455079944-10.336059570319776,10.015594482420056-6.337341308590112,1.699035644529431-13.424560546869543-1.240173339840112-17.221771240230737-7.372711181640625Z"/>
                <path class="cls-20" d="M76.626231842821653,104.851631638563049c.5668477725103-.088186380211482,1.419540162849444.071199120729943,2.005115847079651.160055232379818,8.611801872539218,1.19653800641936,17.555481959949248.22301141943899,25.602423817890667-3.106494486861266.000004280349458.000028121670766,1.020512092838544-.419161331448777,1.020512092838544-.419161331448777-2.973156797788761,9.737954502688808-13.09699296432882,14.903099876799388-22.29598619799981,9.795266855970112-2.598603563359575-1.503935798280509-5.114518606849742-3.636277635050646-6.332065559809053-6.429666270039888h0ZM77.091441803760972,105.158760544813049c7.941593176499737,10.463345960859442,21.852227947510983,9.705294342858906,26.863834446929104-2.960315607620942-.000064915679104.00011052949958.643001490570896.611072443560261.643001490570896.611072443560261-8.2223526803391,3.273284266600967-17.332878457560582,4.288580020140216-26.055662476399448,2.775256006600102-.423080750950248-.079784575540543-1.08180341255138-.134566179560352-1.451173461100552-.426012842539421h0Z"/>
              </g>
              <path class="cls-22" d="M114.894467364239972,18.84385620383182c.489817640171168.896016784361564,1.329028097561604,2.451372973200705,1.999666170941055,4.665880777019993,1.068730970360775,3.528940483311089,1.003338489670568,6.400346427981276.903351008018944,9.610117772501326-.068605767868576,2.20256230439918-.312606938659883,5.148030345499137-1.044172275469464,8.586226764178718-1.340629316218838-3.004538274930383-2.68123776693028-6.008961789619207-4.021825352139786-9.013406169799055.081625840599372,2.605673354410101-.13781663528971,6.928420964550241-2.165463443299814,11.704137739769067-1.180883039200125,2.781256546830264-2.643450344299708,4.935306560981189-3.892542706849781,6.484747380240151.163773318750827-4.640602222340021.327546637499836-9.281214877430102.491299090750545-13.921806667020064-.126257147630895,2.029900282150265-.803363526370958,8.834505362710843-6.243479590109928,14.711545021120401-4.343279263301156,4.692244337760712-9.409840259449993,6.29457920250934-11.54569555658054,6.839377438269366,1.908796913310653-3.106236727679061,3.81761469211051-6.212473455359941,5.726369874410011-9.31882494329875-.938905822020388,1.599507589338828-2.651608755249981,4.063869337020151-5.511663867280731,6.303008864979347-2.669260969249081,2.089721674019529-5.273755422849717,3.150106443910772-6.991925117388746,3.699265569430281.580144394769377-2.534657621159567,1.160247058529421-5.06931524231004,1.740391453298798-7.603993728960631-1.798021967550085.718326176320261-3.860889741559731,1.41632935448979-6.170909377018688,1.992384111021238-3.690752444950704.920377256989013-7.029524750510973,1.284375925039058-9.798856663421248,1.388567805179264-6.133434936898993-9.900502952410534-6.615073300599761-21.867389515769901-1.084839137269228-30.883309978460602,4.733046825320343-7.716260558048816,12.250845168899104-10.631901365219164,14.922192688269206-11.525268230920119-3.679985846329146,1.25363060905147-7.359992558169324,2.507250785351061-11.039978404509384,3.760881394400712,4.025873259370201-3.413376905029509,12.472561984419372-9.489066567419286,24.152652234079142-10.259525198429401,2.802570656291209-.184868340440516,5.380440730379632-.037192755849901,7.6731419998614.280161084319843,3.013812990218867,2.075752220989671,8.548574967309833,6.364916806978727,11.902286971708236,12.499833194458915Z"/>
              <path class="cls-22" d="M94.848299906290777.0459175822416c1.132263183590112.068054199220569,5.020446777340112.728179931640625,12.761505126949487,2.234283447271082,10.926788330079944,2.125915527340112,11.73712158203125,1.821075439449487,18.173828125,3.403121948240369,4.121215820310681,1.012924194328662,7.490661621090112,2.005569458009631,9.777954101560681,2.715759277340112-3.720428466789599,1.028823852539062-7.440795898439319,2.057647705079944-11.161224365230737,3.086486816409888,3.037231445310681.361846923829944,8.013580322260168,1.373870849609375,13.198669433590112,4.562927246090112,3.019714355470569,1.85722351073855,5.262329101560681,3.931381225589575,6.841033935550513,5.651947021489832-5.354919433599207-1.003112792970569-10.709808349609375-2.006195068361194-16.064727783199487-3.00927734375,2.332733154289599.502182006828662,10.108154296869543,2.479965209959119,15.973052978510168,9.82080078125,4.682464599609375,5.86083984375,5.653625488279431,12.019348144529431,5.911468505859375,14.592620849609375-3.269165039060681-2.758651733400256-6.538330078119543-5.517349243169519-9.807495117189319-8.276016235360657,1.69110107421875,1.3695220947302,4.249938964849207,3.788223266610657,6.34637451171875,7.49853515625,1.956604003909888,3.462768554691138,2.73046875,6.670089721681506,3.066558837890625,8.759536743171338-2.8388671875-1.117126464840112-5.677673339840112-2.234222412111194-8.516540527340112-3.351364135740369.565063476560681,2.079406738279431,1.059326171869543,4.609710693359375,1.230194091800513,7.508010864250537.322937011709655,5.479309082038526-.642791748050513,10.023635864259631-1.586029052739832,13.108215332038526-9.039825439451306-4.037399291999463-25.02294921875-12.6259765625-39.200378417970569-29.501663208009631-11.559509277340112-13.759521484380457-17.286346435539599-27.514312744138806-20.169982910150793-36.335815429689319C87.324068949261346.130176615442906,91.829684183630889-.135494160917006,94.848299906290777.0459175822416Z"/>
              <path class="cls-22" d="M32.59756748441032,45.655918192593163c-3.126678466798694,10.484710693359375-.389984130859375,19.589767456060144.975921630861194,23.311019897459119,3.430480957029431-.532318115230737,6.860961914058862-1.064636230470569,10.291442871090112-1.596954345699487,6.510559082038526-3.561218261720569,19.321319580079944-11.701446533199487,29.49822998046875-27.20500183105105,10.63619995118097-16.203247070319776,12.801483154300513-31.927536010749463,13.350189208989832-39.35595703125-3.411468505859375-.422790527349207-8.039886474609375-.683959960939319-13.453918457029431-.064285278320312-6.355102539069776.72738647460028-11.234924316409888,2.375717163080481-13.868591308599207,3.390487670891162-6.349853515621362,2.446655273439319-8.265655517579944,4.533035278320312-17.389007568361194,9.581695556640625-4.909790039058862,2.716964721679688-8.99758911131903,4.681884765628638-11.533538818359375,5.855484008789062,5.086578369140625-.473175048820849,10.173156738290345-.946334838859912,15.259735107429151-1.419509887689856-2.062255859378638.898864746090112-7.581573486329944,3.626113891599744-11.533508300788526,9.936569213869006-3.956085205070849,6.317092895500537-3.996459960930224,12.480361938471106-3.90365600585028,14.727432250971106.262939453119543-.970947265619543,1.163360595699487-3.781585693359375,3.90365600585028-5.678054809570312,1.179443359378638-.816253662109375,2.340179443359375-1.214324951170056,3.193908691409888-1.419509887689856-1.66943359375,2.411697387689856-3.536529541010168,5.730453491210938-4.790863037111194,9.936584472650793Z"/>
              <path class="cls-22" d="M42.810046057811633,62.244716493732994c1.81561279296875,5.684298386158844,3.874237060548694,11.553756831519422,6.210388183590112,17.586699937768572,1.660461425788526,4.288030791320125,3.381286621099207,8.452486161000706,5.145721435548694,12.490907853811223-2.766174316398974-9.650468751329754-2.769775390619543-17.341643955471227-2.217987060548694-22.682492021720464.535461425788526-5.182792942989181,1.828186035159888-10.419891950439705-.798492431640625-11.248024697300934-2.065795898430224-.651288003178706-5.62451171875,1.718095956790421-8.339630126949487,3.852908927441604Z"/>
              <path class="cls-22" d="M136.303262254730726,57.844656245182705c-1.815612792970569,8.115173339840112-3.874237060550513,16.494689941398974-6.210388183599207,25.10760498046875-1.66046142578125,6.121795654291418-3.381286621090112,12.067169189451306-5.145721435539599,17.832611083980737,2.766174316398974-13.777465820308862,2.769775390619543-24.757751464840112,2.217987060539599-32.382598876949487-.53546142578125-7.399200439460401-1.828186035150793-14.875930786140088.798492431638806-16.058212280280713,2.065795898441138-.929809570308862,5.62451171875,2.452835083009631,8.339630126960401,5.500595092780713Z"/>
              <rect class="cls-15" x="58.175098010331567" y="67.715068790501391" width="24.202468325249356" height="13.40437901902078"/>
              <rect class="cls-15" x="96.251867777791631" y="67.715068790501391" width="24.20246832526027" height="13.40437901902078"/>
              <g id="_9VrKlJ" data-name="9VrKlJ">
                <path class="cls-13" d="M110.976068733640204,90.319615768301446c-1.396959105089991-.353151143059222-2.911491962790024-.566065721628547-4.301352656448216-1.123540992879498-2.710348878701552-1.087114969470349-5.360306162601773-2.344634598868652-8.016930259831497-3.575471622260011-1.627193738229835-.753892994489433-3.20056627411941-1.637645850189074-4.833196311908978-2.377207730360169-2.666312097309856-1.207811522448537-5.37929647935016-1.219302518829863-8.037192413550656.005929199431193-2.040869045829822.940796926879557-4.039303733019551,1.986820828118653-6.036395415450897,3.028984586069782-3.22330093401979,1.682050792220252-6.516442706508315,3.169968041149332-10.093550780828082,3.759131777380389-.907721988351113.149498974689777-1.961223124790195.155135702400003-2.796785582720986-.184639089389748-4.936384991409795-2.007337356781136-9.459646799410621-4.766667850421072-13.099870357640611-8.879586473851305-1.235407112319081-1.395832165049796-2.19099172380993-3.066442720439227-3.272019005258699-4.613364326229203-.306488606260245-.438579473910067-.237692327040349-.831025763800426.037488772339202-1.293102077370349,2.89227580314946-4.856601696030339,6.7308491103704-8.765420983580043,11.0084799410306-12.235635417460799.753910064839147-.61160671082871,1.550781359408575-1.164210273380377,2.321651163729257-1.753007815668752.975501257151336-.745098297331424,2.044071595610149-.90852230991004,3.21414095289947-.670582062230096,4.472001497641031.909413019249769,8.756388675281414,2.467487224370416,13.019753811031478,4.108821602219905,1.575716480929259.606627440209195,3.172728196170283,1.152927149469178,4.765823388150238,1.708310401929339,3.458202795629404,1.205591396210366,6.90702521960884,1.096385839589857,10.335838020688243-.135148523389944,3.746891423541456-1.345778409709965,7.470412268701693-2.767444771059672,11.240297770151301-4.036942446849935,2.023556911090054-.681426478560752,4.119585572529104-1.128083973049797,6.189695390150519-1.650924308029062,1.102609195608238-.27848262929183,2.127379213339736-.056106227981218,3.074727876888574.63068867777838,5.103436416460681,3.699824071760304,9.60539495508965,8.033915369920578,13.083634922440979,13.490011580150167.578121073849616.906870207259999.564521141988735,1.572794476040144.033453444819315,2.475200259590565-1.980089471859173,3.364679276499373-4.647824924639281,5.997050454940108-7.69641356720058,8.239443224689239-2.538568240348468,1.867236151101679-5.274615572348921,3.35658917030014-8.147993749038505,4.559629294601109-.595311534651046.249243917129206-1.252768605350866.333949528599987-1.993285354441468.5230022821288ZM98.227343800670496,78.067031781412879c3.902149069979714,1.802922189150195,7.836634827599482,2.769402085168622,11.922279966251153,1.437513257418686,3.583665383250263-1.168248034849967,6.188278232399171-3.717111247409775,8.329236313238653-6.886754218789065-7.863722213858637-4.093986916779613-15.199112746478932-2.300462000519474-20.251516279489806,5.449240961370378ZM60.946115152910352,73.048957546572638c2.607734161840199,3.340846475619401,5.584453550831313,6.002554326089012,9.727186049170996,6.773580663570101,3.7992827845992.70710820595923,7.327143896409325-.359365293290466,10.74355591397034-2.181797047380314-5.359160510881338-7.521955965290545-12.683047639529832-9.005215781849984-20.470741963141336-4.591783616189787Z"/>
              </g>
              <path class="cls-22" d="M81.841563874071653,66.592354294813049c-8.774414388461082-3.751535169511044-18.114526410470717-8.311533648689874-26.475655963460667-12.90722151277987,2.451671825980156.892972481889956,7.949372412149387,2.953549668658525,10.324696515370306,3.782757423488874,5.372953290379883,1.774002665310036,11.96975938138894,3.832852172910862,17.463258024479728,5.345694300031028-.000042717010729.000083265829744-1.312298576389367,3.778769789259968-1.312298576389367,3.778769789259968h0Z"/>
              <path class="cls-22" d="M95.595714264700291,62.813667771382825c9.135910240611338-2.505219392151048,18.941739591980877-5.736270286241052,27.787928425141217-9.128539971999999-2.322662561889956,1.217277461169942-7.487034319310624,4.019715295598871-9.742315801049699,5.165076321220113-5.123246654000468,2.510613376300171-11.449825407769822,5.475543504659072-16.733409799191577,7.742075732399826.000053034471421.000074441810284-1.312202824899941-3.77861208161994-1.312202824899941-3.77861208161994h0Z"/>
            </g>
            <g>
              <path class="cls-11" d="M167.294219349299965,213.744779231661596c2.281073630390893-.585342662179755,3.312738586011619-7.98283256680952,1.386117712521809-13.836584194668831-1.040942540361357-3.162583832210657.304486267108587-3.328311013019629-7.991247029711303-11.396068890060633-1.226703421780257-1.192862737010728-1.879331430640377-2.775453002170252-3.037467552940143-2.701537929839105-1.441941716098881.09202357148024-2.736623388469525,2.383579890609326-2.891631686619803,4.456752584448623-.16385628550961,2.187018205409913,1.000762750139984,3.324456887570705,2.400650727109678,6.185455424791144,1.941162562621685,3.96710231617908,1.129280738490706,4.697311559690206,2.663837313750264,8.345349188699402,1.646490461080248,3.914222405670444,5.287556915251116,9.506478053419414,7.469740515889498,8.946633816629401Z"/>
              <g>
                <g>
                  <path class="cls-12" d="M163.658903456551343,182.792503137772655c0,14.663317790340443-11.886921833131055,26.550239623478774-26.550239623469679,26.550239623478774-7.729912820241225,0-14.688242042091588-3.30306773637858-19.539892415061331-8.575186085898167-1.274411733418674-1.383862319600667-2.402525566678378-2.904269786980876-3.362668992269391-4.53521506242032-2.31799881886036-3.942436885281495-3.647678216138956-8.536171769190332-3.647678216138956-13.439838475160286,0-14.663317790329529,11.886921833129236-26.550239623469679,26.550239623469679-26.550239623469679,4.904751447498711,0,9.498483024279267,1.329679397278596,13.439838475149372,3.648761304109939,1.630941968309344.959059510840234,3.150268001290897,2.087174170879734,4.534130320889744,3.362668992269391,5.272121656649688,4.849482543470003,8.576270827430562,11.808896506860037,8.576270827430562,19.538809327090348Z"/>
                  <path class="cls-10" d="M163.658903456551343,182.792503137772655c0,14.332795721958973-11.355917702090665,26.012730350370475-25.56192102867135,26.531818860230487-14.206003326578866-.519085202729912-25.561919995188873-12.199023138271514-25.561919995188873-26.531818860230487,0-14.332795721960792,11.355916668610007-26.012732727371258,25.561919995188873-26.531817008029975,14.206003326580685.519084280658717,25.56192102867135,12.199022112859893,25.56192102867135,26.531817008029975Z"/>
                  <path class="cls-21" d="M157.73982607454127,182.792503137772655c0,11.393847277280656-9.237314964189864,20.631162241459606-20.631162241459606,20.631162241459606-3.968447532130085,0-7.674645569770291-1.120528083580211-10.820577912061708-3.062489922609529-1.370858649739603-.845271612090073-2.634433716029889-1.847678618290956-3.767967123028939-2.981213678869608-.833352683770499-.832267942230828-1.596264964160582-1.737144117360003-2.277902654370337-2.702706289910566-.938470091299678-1.329678157100716-1.724140447509853-2.775311215660622-2.329918987370547-4.310891835970324-.897289598658972-2.270317731470641-1.402285976590065-4.738948042540869-1.432629388698842-7.320280684039972-.002167416099837-.084527161210644-.002167416099837-.16905432241947-.002167416099837-.253581483630114,0-11.393845623699235,9.236233116389485-20.631162241450511,20.631161828059703-20.631162241450511.084527161208825,0,.170139063950046,0,.254666225158871.002167416101656,2.581332641500921.030342998719789,5.048881518170674.536423291399842,7.319195942511215,1.432628975309854,1.535580620309702.606862454609654,2.981213678860513,1.391449722848847,4.310891835970324,2.329918987368728.965562172548744.682720778180737,1.869353606140066,1.444549970599837,2.702706289908747,2.277901827581445,1.133531753441275,1.132448665479387,2.135938759631244,2.397106819729743,2.981213678871427,3.767967123039853,1.941961839018404,3.145933995849191,3.062489922609529,6.852132033489397,3.062489922609529,10.820579565619482Z"/>
                  <path class="cls-9" d="M151.696122473060313,168.203958929472719l-29.1760028482895,29.176002848280405c-.833352683770499-.832267942230828-1.596265790940379-1.737144117360003-2.277901827579626-2.702706289910566-.938470091299678-1.329678157100716-1.724140447509853-2.775311215660622-2.329918987359633-4.310891835970324-.897289598669886-2.270317731470641-1.402285976600979-4.738948042540869-1.432629388709756-7.320280684039972-.002167416099837-.084527161210644-.002167416099837-.16905432241947-.002167416099837-.253581483630114,0-11.393845623699235,9.236233116389485-20.631162241450511,20.631161828059703-20.631162241450511.084527161208825,0,.170139063950046,0,.254666225158871.002167416101656,2.581334295060515.030342998719789,5.048879864600167.536423291399842,7.319197596079903,1.432628975309854,1.535580620300607.606862454609654,2.981213678860513,1.391449722848847,4.310891835961229,2.329918987368728.965558865418643.682723258531041,1.869353606149161,1.444552450950141,2.702702982778646,2.277904307940844Z"/>
                  <path class="cls-16" d="M157.739283703771434,182.792503137772655c0,11.393847277280656-9.237314964189864,20.631162241459606-20.631162241459606,20.631162241459606-.391209719371545,0-.779168521270549-.010837493930012-1.164959493680726-.032509174639927,10.85200565229934-.603612363929642,19.465118006230114-9.596013855350975,19.465118006230114-20.598651413249172,0-11.002637557900016-8.613115661069969-19.995039049310435-19.465118006230114-20.598651413240077.385790972410177-.021673747680325.773749774309181-.032510414821445,1.164959493680726-.032510414821445,11.393847277269742-.000001653568688,20.631162241459606,9.237314550789961,20.631162241459606,20.631160174491015Z"/>
                </g>
                <path class="cls-16" d="M146.484584292531508,188.001441907192202c0-2.751579187459356-1.422115994380874-5.175779741999577-3.568786419491516-6.580774678679518.882119752870494-1.215566985540136,1.404237601891509-2.70855827207015,1.404237601891509-4.321945947491258,0-2.78625784516953-1.553134913179747-5.21609211069881-3.838840761611209-6.470671759379911v-2.671604302839114c0-1.197036259929519-.970331066730068-2.16736649987979-2.167366499868876-2.16736649987979-1.197035433140627,0-2.16736649987979.970330239950272-2.16736649987979,2.16736649987979v1.765969966139892h-2.615794681611078v-1.765969966139892c0-1.197036259929519-.970329413170475-2.16736649987979-2.16736649987979-2.16736649987979-1.19703708670022,0-2.167366499870695.970330239950272-2.167366499870695,2.16736649987979v1.765969966139892h-2.546981390529254c-1.197037086709315,0-2.16736649987979.970330239950272-2.16736649987979,2.167367326659587,0,1.197037086711134.970329413170475,2.167366499870695,2.16736649987979,2.167366499870695h.747957398620201v17.470708252600161h-.747957398620201c-1.197037086709315,0-2.16736649987979.970331066730068-2.16736649987979,2.167366499868876,0,1.197035433140627.970329413170475,2.167366499881609,2.16736649987979,2.167366499881609h2.547088872539462v1.765969139360095c0,1.197035433138808.970329413170475,2.167366499868876,2.167366499870695,2.167366499868876,1.197037086720229,0,2.16736649987979-.970331066730068,2.16736649987979-2.167366499868876v-1.765969139360095h2.615794681620173v1.765969139360095c0,1.197035433138808.970329413159561,2.167366499868876,2.167368153439384,2.167366499868876s2.167366499870695-.970331066730068,2.167366499870695-2.167366499868876v-1.98964085946136c3.440585182979703-.837145972009239,6.003280443630501-3.942764292020001,6.003280443630501-7.637476636529755ZM131.731644693620183,174.057149011472575h5.212082204880062c1.677215454719772,0,3.041572269541575,1.3644659504007,3.041572269541575,3.041573923119358,0,1.677107972720478-1.364465950391605,3.041573923110263-3.041573923110263,3.041573923110263h-5.212082204880062v-6.083147846229622h.000001653568688ZM138.623545071481203,191.527857264072736h-6.89190037786102v-7.052718271041158h6.89190037786102c1.944342978978966,0,3.526306221290724,1.581959935181658,3.526306221290724,3.526412049741339,0,1.944452114568776-1.581963242311758,3.526306221299819-3.526306221290724,3.526306221299819Z"/>
                <path class="cls-18" d="M149.193898245821401,188.001441907192202c0-2.751579187459356-1.422115994389969-5.175779741999577-3.568786419500611-6.580774678679518.882119752879589-1.215566985540136,1.404237601900604-2.70855827207015,1.404237601900604-4.321945947491258,0-2.78625784516953-1.553134913190661-5.21609211069881-3.838840761611209-6.470671759379911v-2.671604302839114c0-1.197036259929519-.970331066739163-2.16736649987979-2.167366499868876-2.16736649987979-1.197035433140627,0-2.16736649987979.970330239950272-2.16736649987979,2.16736649987979v1.765969966139892h-2.615794681620173v-1.765969966139892c0-1.197036259929519-.970329413159561-2.16736649987979-2.167366499870695-2.16736649987979-1.197037086709315,0-2.16736649987979.970330239950272-2.16736649987979,2.16736649987979v1.765969966139892h-2.547088872539462c-1.19703708670022,0-2.167366499870695.970330239950272-2.167366499870695,2.167367326659587,0,1.197037086711134.970329413170475,2.167366499870695,2.167366499870695,2.167366499870695h.747957398629296v17.470708252600161h-.747957398629296c-1.19703708670022,0-2.167366499870695.970331066730068-2.167366499870695,2.167366499868876,0,1.197035433140627.970329413170475,2.167366499881609,2.167366499870695,2.167366499881609h2.547088872539462v1.765969139360095c0,1.197035433138808.970329413170475,2.167366499868876,2.16736649987979,2.167366499868876,1.197037086711134,0,2.167366499870695-.970331066730068,2.167366499870695-2.167366499868876v-1.765969139360095h2.615794681620173v1.765969139360095c0,1.197035433138808.970331066739163,2.167366499868876,2.16736649987979,2.167366499868876,1.197035433129713,0,2.167366499868876-.970331066730068,2.167366499868876-2.167366499868876v-1.98964085946136c3.440803454141133-.837145972009239,6.003389579211216-3.942764292020001,6.003389579211216-7.637476636529755ZM134.440960300480583,174.057149011472575h5.212083858439655c1.677215454730685,0,3.041572269539756,1.3644659504007,3.041572269539756,3.041573923119358,0,1.677107972720478-1.364465950389786,3.041573923110263-3.041572269539756,3.041573923110263h-5.212083858439655v-6.083147846229622ZM141.332862331910292,191.527857264072736h-6.891900377859201v-7.052718271041158h6.891900377859201c1.944342978980785,0,3.526306221290724,1.581959935181658,3.526306221290724,3.526412049741339,0,1.944452114568776-1.581854106731043,3.526306221299819-3.526306221290724,3.526306221299819Z"/>
              </g>
              <g>
                <path class="cls-11" d="M161.034312223160669,198.524695729542145c2.994330868939869.247752549839788,5.52937768665106,1.687123976011208,6.657166124359719,3.218250461330172,3.234232886561585,4.390829292789931,2.140849717270612,12.359438097319071-.422229948959284,17.571180377279234-3.03611068598002,6.173797040220961-8.078480839580152,8.364765588401497-9.538706570310751,8.913289719650493-.19065616431908.071534424390848-.387729644009596.123913965680913-.56577514501987.177839308549665-4.248890314340315,1.288183575979929-7.686399083058859,1.257991613510967-8.664316238910033,1.232523868420685-4.029451143218466-.104844027509898-7.300120362719099-.189923686479233-8.936811175470211-2.385385837649665-1.624625038719387-2.179479772379636-1.86336782519902-4.875692775600328-1.863344310189859-4.875768866189901-.008691470229678-.102965275140377-.014213790949725-.183278165550291-.01770810653943-.236706658741241-.00188424955013-.029507416189517-.209819112960759-5.416987765929662,3.644047167870667-11.360489110769777,3.534999619399969-5.451704832379619,8.496450328579158-8.300615417660083,10.91805578541971-9.497894470228857.373229125529178.040070631988783,1.329319541779114.0924695440699,2.361880415150154-.435425394180129.976489798718831-.499126337221242,1.486153560079401-1.243633274360036,1.681839208009478-1.567187393629865.926631834709042-.380411948641267,2.625323376860251-.929679079281414,4.745902794589711-.754226003840813Z"/>
                <path class="cls-11" d="M162.909495513311413,206.190039068831538c2.18115031906018-1.54992045525978,2.197870543450335-2.261629127498963,1.933142229860096-2.864259339899945-.501536356179713-1.862292552219515-1.13461043856114-3.857687331039415-1.844171881450166-5.632363029408225-1.230077819091093-3.097652642201865-3.000535387780474-5.993601908650817-5.224330624720096-8.521465316440299-5.426097722311169-2.764846511819997-10.339026780389759-6.545591502621392-16.306641155040779-8.097348496579798-1.033471667498816-.293528944110221-2.126679071589024.333262707568792-2.339840655238731,1.398224546939673-.125794523470177.611466831678626.07528740457019,1.222602676529277.473576134560062,1.644443544919341,1.068691751779625,1.115997441929721,2.246812326129657,2.047832445830863,3.423996298388374,2.97946136020073,3.496654537430004,2.597804418430314,7.082632858231591,5.823361435059269,11.030057667800065,7.680803968340115.000036369450754-.000070753399996-1.276946843039696-1.58789076327048-1.276946843039696-1.58789076327048.236503404259565,4.030734967669559,1.607762558560353,7.806481942659957,3.304372278680603,11.413437386359874.000091888729003-.000027326090276.879676744139942,1.774821258899465.879676744139942,1.774821258899465.108526399559196,1.42066751099992,4.501241693000338,1.05110874778984,5.947109806060325-.187865120060451h0Z"/>
                <path class="cls-11" d="M159.650691742661365,211.57553577255203c.587439243479821-1.330644095989555,1.390489456200157-2.829486976950648.446557782310265-3.772354147409715-2.197239235340021-2.186703336170467-4.537874916821238-4.205191618390018-7.097033278510935-5.971879865379378-3.269330432669449-2.272784186530771-6.636248084440012-4.445177711309952-9.784254679059813-6.884847777850155-3.753617356149334-2.150628479561419-7.823718162690056-4.636780236340201-11.811340738449871-6.29105950461053-2.045141584680096-.584268531039925-5.382581109230159-3.467519233920029-6.750853134579302-.56322756030022-.317611666219818.830018555319839-.032083306619825,1.673854245540497.550948901398442,2.257505679290261,4.000232734770179,4.525039335820111,9.631053737970433,6.805864472109533,14.621667856530621,9.970635324949399-.000032795960578.000057196901253-.390847550928811-.290602972929264-.390847550928811-.290602972929264l2.042015918888865,2.000046759920224c4.113705608120654,4.290965979280372,7.835279326220189,9.092319799729012,12.67556732804951,12.601348587069879.517621639090066.449005429099998,1.09054612952059.342953189430773,1.842059584920207.056914552709713,1.184084997339596-.434422686699691,3.094317951259654-1.753123519249129,3.655512009430822-3.112479075460215h0Z"/>
                <path class="cls-11" d="M154.013273208620376,217.739240540822721c1.026470199620235-4.210518077079541-1.316241747399545-4.230386804460068-2.540803459380186-5.640959490900059-4.320785731479191-3.589145545509382-8.730578181688543-7.06580514613961-13.252331470468562-10.40201683099076-2.950604434459819-1.819352336569864-7.819977325711079-4.843613049390115-9.941422210171368-5.846935247280271-1.981461298739305-1.373560116649969-4.016598222089669-2.682696641319126-6.101754957498997-3.93193594585864-1.117453914041107-.669598872391362-2.566220942389918-.306505365200792-3.235819814790375.810948548829401-.540035487128989.901586118530759-.405427854790105,2.020749698420332.252470038090905,2.770475703549891,3.829526756519044,4.78265969505992,10.310973401459705,9.690028777569751,14.24708053240829,12.625000988180545,4.156169543390206,3.630740174849052,8.424277120151601,7.121869686799982,12.77780178570174,10.509842169540207,1.640811601089808.892836621769675,2.163413909020164,3.176544149670008,6.055245393608857,1.269450146679446.902572210199651-.442279879300258,1.514196642110619-1.259390644669111,1.739534162499695-2.16387004174976h0Z"/>
                <path class="cls-11" d="M145.573660860711243,223.093889584482895c.987785188690395-2.046171466070518.821828541949799-2.813584316440028.384431530710572-3.28743951414981-2.720042987621127-3.639818391071458-6.843681091600956-5.853107331371575-10.166033265930309-8.880106380411235-2.067602762470415-1.731497990120261-6.941985832099817-5.724012223348836-8.896570430990323-7.462615615118921-1.78413804965021-1.312386382531258-3.895267162230084-4.745137454221549-6.235046268820952-2.497295741930429-2.030458593730145,2.343495241690107,1.259128158180829,4.378902746129825,2.465898551650753,6.204270688909673,1.453349066810915,1.724015407800835,3.454454248440015,4.382328013480219,4.868963113669452,6.190349499769582,2.358313745780833,3.218343262331473,5.582367799739586,5.595448702470094,7.459273935441161,9.1972103383996,1.03872738931932,1.755201760421187,2.275165641929561,3.28912368975034,4.022343274298692,4.323117950121741.497239908590927.42527585282005,1.420999268470041.390243919349814,4.229295230061325-1.733004217630878.763011707249461-.528517008449853,1.496467638929971-1.2306258742301,1.867444329909631-2.054487007959324h0Z"/>
              </g>
            </g>
          </g>
          <g>
            <g>
              <path class="cls-8" d="M196.815738205821617,119.326436338242274c-14.351705999921251,1.872176666080122-28.70334823371013,3.744400123950982-43.055054233631381,5.616576790029285,13.205089755170775-6.540924660968813,26.41023295505147-13.081907625070016,39.615322710240434-19.622832286049743,1.146557639320235,4.668753750571341,2.293173884059797,9.337501745450936,3.439731523390947,14.006255496020458Z"/>
              <circle class="cls-8" cx="232.438845189873518" cy="82.129566807244828" r="60.011880931208452"/>
            </g>
            <g>
              <g>
                <path class="cls-23" d="M197.224176918700323,61.486183813221942c-.313074124469495-.114410074640546-.537128627360289-.321916605898878-.671839423788697-.621822229699319-.135221520929917-.300092263390979-.145185242230582-.607092862030186-.030961807200583-.919656261990895l.449801435339396-1.23084606843986.31996304419954.631017623971275c-.722663550219295-.300563388511364-1.317770293739159-.622247147530288-1.786017594688019-.964727192120336-.468247300950679-.342480044600961-.842197207201025-.649921038741013-1.121289799961232-.92385515595015-.233678661619706-.231865080810167-.363303981570425-.487071425699469-.389710769250087-.766503038379597-.026780066889842-.278410163651643.018648799250514-.537379396251708.13642404373968-.775699609190269.117775244480072-.238320212949475.288576093451411-.430052982370398.512726631821351-.574500944150714s.474049874008415-.208856771409046.749884646489591-.193737153380425c.275834772490271.015119618021345.539356988449072.147894006389834.790380008280408.398833889601519.187380726778429.190630853829134.47493143336942.433499026959907.862838759368969.728093794899905.387720686399916.295105492448783.905660328169688.560221658128285,1.553259006510416.796880670579412.44279814993024.161816532960074.815384057590563.246449852600563,1.119152451179616.253251789110436.303071029489729.007126021409931.53807974736992-.041882939460265.70483951406095-.146516158099985.166573127078664-.104122494130934.281308463179812-.242240821089581.344579287479064-.415376429889875.055245321520488-.151174454880675.064170939580436-.300750253831211.026266129671058-.448914036440328-.037207445810054-.148487867531003-.13316848534123-.305710233000354-.28616430548027-.471617902150683-.153319905060926-.166605033258747-.37510730709073-.339126188859154-.664478202379541-.518398276230073l-1.681409991271721-1.073547582429455c-.936047689740008-.586378627760496-1.549121888738227-1.235934714401083-1.839595876179374-1.94764681092056-.290473987439327-.711712096510382-.279611553129143-1.493929790600305.032076578410852-2.346839721849392.236659012449309-.647598678329814.607516920268608-1.169736805870343,1.1135951724591-1.566041103400494.5055675276908-.396490937138879,1.107263952890207-.653645004200371,1.805275915219681-.77197292567871.697825322729841-.117817196980468,1.449141943710856-.073090718100502,2.25408730827985.135387525227998l-.586297753008694.09778625141189.402394977019867-1.101122042971838c.118329506220107-.323799339168545.324638086429331-.554080924759546.619623104728817-.691168841698527.294287654191066-.136763832020733.598410545369916-.148358115429801.911484669830315-.033948040791074.334524553869414.122248937821496.567683846929867.330188080130029.699340433850011.622609338321126.131980671840211.293118622310431.138644212191139.601228920990252.020314705960118.925028260149702l-.402394976999858,1.101122042979114-.367880227049682-.501480238110162c.402086278529168.171832752501359.815827982749397.405238967850892,1.239830384469315.700866815861446.424513126210513.295814487610187.780645512970295.618743581519084,1.068397160270251.968787281739424.200992293001036.219920146430013.311544304040581.462367022630133.331331948209481.726643264490122.019276919671029.264089602269451-.027850484479131.510280584569045-.14100893325849.737551497899403-.113855812891416.227594998241329-.276130572121474.403917781350174-.48733500220078.528781709719624-.210693705579615.125050567979997-.448069406420473.172615606341424-.712824466610982.143019200000708-.264941699799238-.029085681839206-.538756519419621-.174884291949638-.821955183368118-.437582469940025-.219556370890132-.202389148620568-.466859723290327-.396971340220261-.741585972291432-.583049210699755-.274726248999286-.186077870470399-.649576270519901-.365904219579534-1.124039340060335-.53929240772959-.561796960699212-.205303559700042-1.037424898579047-.259857808061497-1.426883813608583-.163662745080728-.39048036405984.095821783779684-.644374574691028.305818984850703-.762704080931144.629618324021067-.078948550679343.216036467609229-.05564217977917.429494874009833.068897663681128.640001939978902.124863928380364.21120443009022.410548238969568.459179848319764.856866292178893.74443697921015l1.681920715771412,1.073734222040002c.942156108758354.601347358959174,1.561034916949211,1.252445756699672,1.855428335979013,1.953432638511003.294206779441083.701497606318298.291880572429363,1.461940786088235-.007862624730478,2.282164348709557-.236845652048942.648109402840419-.601476477169854,1.169049579319108-1.094963118659507,1.564166063350058-.49278927739033.394792399129074-1.074733811190526.647007079069226-1.744812152410304.757017319039733-.670589065730383.10982360035996-1.388610205009172.073791069209619-2.154063417840007-.108097593451021l.514861627490973-.252414444099486-.449801435341215,1.23084606843986c-.114223435029999.312563399949795-.317231834289487.541735285511095-.60897600349017.685796843530625-.291233444679165.144248197630077-.604461126018577.155409869988944-.938985679889811.033160932169267Z"/>
                <path class="cls-23" d="M207.421497343730152,64.783952052082896c-.313074124458581-.114410074640546-.53712862735847-.321916605909792-.671839423788697-.621822229701138-.135221520929917-.300092263400074-.145185242230582-.607092862039281-.030961807189669-.919656261989076l.449801435328482-1.230846068450774.319963044201359.63101762398037c-.7226635502102-.300563388520459-1.317770293730064-.622247147530288-1.786017594680743-.96472719212943-.468247300959774-.342480044600961-.84219720721012-.649921038741013-1.121289799959413-.923855155941055-.233678661619706-.231865080819261-.363303981570425-.487071425710383-.389710769261001-.766503038379597-.026780066878928-.278410163649824.018648799259608-.537379396258984.136424043741499-.775699609199364.117775244478253-.238320212951294.288576093458687-.430052982361303.512726631828627-.574500944150714s.474049874001139-.208856771399951.749884646489591-.193737153380425c.275834772481176.01511961803044.539356988439977.147894006391653.790380008280408.3988338895997.187380726780248.190630853830953.47493143336942.433499026970821.862838759370788.728093794901724.387720686399916.295105492448783.905660328169688.560221658130104,1.553259006499502.796880670579412.442798149939335.161816532969169.815384057590563.246449852609658,1.11915245119053.253251789110436.303071029478815.007126021419026.53807974736992-.04188293945117.704839514050036-.146516158099985.166573127080483-.104122494130934.281308463179812-.2422408210914.344579287489978-.41537642988078.055245321518669-.151174454878856.064170939569522-.300750253829392.026266129660144-.448914036440328-.037207445800959-.148487867529184-.133168485330316-.305710233009449-.28616430548027-.471617902159778-.153319905050012-.166605033249652-.375107307079816-.339126188850059-.664478202379541-.518398276219159l-1.681409991271721-1.073547582431274c-.936047689738189-.586378627758677-1.549121888729132-1.235934714408359-1.83959587616846-1.947646810918741-.290473987441146-.711712096521296-.279611553140057-1.493929790600305.032076578409033-2.346839721851211.236659012451128-.647598678329814.607516920259513-1.169736805870343,1.113595172450005-1.566041103409589.5055675276908-.396490937140697,1.107263952901121-.653645004200371,1.805275915230595-.771972925680529.697825322720746-.117817196978649,1.449141943709037-.073090718098683,2.25408730827985.135387525240731l-.586297753010513.097786251399157.402394977010772-1.1011220429682c.118329506220107-.323799339170364.324638086440245-.554080924761365.619623104728817-.691168841691251.294287654200161-.136763832018914.59841054538083-.148358115429801.911484669841229-.033948040800169.334524553869414.122248937819677.567683846918953.330188080140942.699340433850011.622609338330221.131980671829297.293118622299517.138644212180225.601228920990252.020314705960118.925028260149702l-.402394977010772,1.101122042980933-.367880227038768-.501480238110162c.402086278529168.17183275249954.815827982749397.405238967839978,1.239830384458401.700866815850532.424513126219608.295814487608368.780645512981209.618743581529998,1.068397160281165.968787281748519.200992292990122.219920146430013.311544304038762.462367022630133.331331948209481.726643264490122.01927691966921.26408960227127-.027850484490045.510280584570864-.141008933260309.737551497901222-.113855812889597.22759499823951-.27613057212875.40391778133926-.487335002209875.52878170970871-.210693705579615.125050567979997-.448069406409559.172615606350519-.712824466609163.143019200011622-.264941699801057-.029085681841025-.53875651942144-.174884291951457-.821955183360842-.437582469950939-.219556370890132-.202389148609655-.466859723299422-.396971340209348-.741585972300527-.58304921069066-.274726248990191-.186077870479494-.649576270508987-.365904219588629-1.124039340058516-.53929240772959-.561796960701031-.205303559700042-1.037424898571771-.259857808059678-1.426883813610402-.163662745089823-.39048036405984.095821783779684-.644374574691028.305818984850703-.76270408092023.629618324019248-.078948550681162.216036467620143-.05564217977917.429494874009833.068897663679309.640001939991635.124863928371269.211204430088401.410548238971387.459179848319764.856866292169798.74443697921015l1.681920715780507,1.073734222038183c.942156108751078.601347358970088,1.56103491695103,1.252445756701491,1.855428335980832,1.953432638511003.294206779430169.701497606320117.291880572429363,1.46194078607914-.007862624730478,2.282164348709557-.236845652050761.648109402840419-.601476477180768,1.169049579320927-1.094963118659507,1.564166063350058-.49278927739033.394792399130893-1.07473381120144.647007079071045-1.744812152421218.757017319039733-.670589065719469.10982360035996-1.388610205009172.073791069211438-2.154063417829093-.108097593460116l.514861627489154-.252414444088572-.449801435339396,1.230846068428946c-.114223435029999.312563399960709-.317231834289487.54173528552019-.60897600349017.68579684353972-.291233444690079.144248197630077-.604461126020396.155409869979849-.938985679900725.033160932171086Z"/>
                <path class="cls-23" d="M217.618817768770896,68.081720290932935c-.3130741244604-.114410074629632-.537128627360289-.321916605900697-.671839423790516-.621822229701138-.135221520939012-.300092263389161-.145185242228763-.607092862030186-.030961807198764-.919656261979981l.449801435339396-1.230846068448955.319963044190445.63101762398037c-.722663550201105-.300563388520459-1.317770293730064-.622247147530288-1.786017594669829-.964727192140344-.468247300961593-.342480044590047-.84219720721012-.649921038730099-1.121289799970327-.923855155941055-.233678661619706-.231865080810167-.363303981570425-.487071425690374-.389710769250087-.766503038368683-.026780066889842-.278410163649824.018648799250514-.537379396260803.13642404373968-.775699609201183.117775244480072-.23832021294038.288576093449592-.430052982368579.512726631819532-.574500944148895s.474049874010234-.208856771410865.749884646500504-.193737153380425c.275834772479357.01511961803044.539356988439977.147894006389834.790380008269494.3988338895997.187380726780248.190630853829134.474931433371239.433499026969002.862838759370788.728093794899905.387720686399916.295105492450602.905660328169688.560221658130104,1.553259006510416.796880670579412.44279814993024.161816532960074.815384057588744.246449852611477,1.119152451179616.253251789110436.303071029489729.007126021409931.53807974736992-.041882939460265.704839514059131-.146516158099985.166573127080483-.104122494129115.281308463170717-.242240821089581.344579287480883-.415376429878961.055245321520488-.151174454891589.064170939580436-.300750253831211.026266129669239-.448914036451242-.03720744579914-.148487867520089-.133168485339411-.305710233000354-.28616430548027-.471617902148864-.153319905050012-.166605033251471-.375107307088911-.339126188860973-.664478202379541-.518398276220978l-1.681409991269902-1.073547582440369c-.936047689749103-.586378627758677-1.549121888740046-1.235934714399264-1.839595876179374-1.947646810909646-.290473987441146-.711712096519477-.279611553120048-1.493929790600305.032076578409033-2.346839721849392.236659012451128-.647598678329814.607516920270427-1.169736805870343,1.113595172460919-1.566041103409589.505567527688981-.396490937140697,1.107263952890207-.653645004191276,1.805275915219681-.771972925680529.697825322729841-.117817196969554,1.449141943719951-.073090718100502,2.25408730827985.135387525240731l-.586297752999599.097786251399157.402394976999858-1.101122042970019c.118329506229202-.323799339170364.324638086440245-.554080924759546.61962310473973-.691168841689432.294287654191066-.136763832029828.598410545369916-.148358115429801.91148466983941-.033948040800169.334524553871233.122248937819677.567683846920772.330188080139123.699340433850011.622609338330221.131980671831116.293118622299517.138644212180225.601228920979338.020314705951023.925028260149702l-.402394977010772,1.101122042970019-.367880227029673-.501480238101067c.402086278520073.171832752490445.815827982749397.405238967839978,1.239830384449306.700866815850532.424513126221427.295814487610187.780645512981209.618743581529998,1.068397160281165.968787281750338.200992292999217.219920146430013.311544304040581.462367022619219.331331948220395.726643264490122.01927691966921.264089602260356-.027850484490045.510280584569045-.141008933271223.737551497899403-.113855812878683.22759499823951-.276130572119655.403917781341079-.487335002198961.528781709710529-.210693705581434.125050567979997-.448069406411378.172615606339605-.712824466610982.143019199998889-.264941699799238-.029085681828292-.538756519419621-.174884291938724-.821955183369937-.437582469938206-.219556370890132-.202389148611474-.466859723290327-.396971340211167-.741585972289613-.58304921069066s-.649576270519901-.365904219590448-1.124039340060335-.53929240772959c-.561796960699212-.205303559700042-1.037424898569952-.259857808059678-1.426883813619497-.163662745091642-.390480364050745.095821783781503-.644374574691028.305818984850703-.762704080909316.629618324021067-.078948550690257.216036467620143-.055642179791903.429494874009833.068897663668395.640001939989816.124863928380364.211204430079306.410548238971387.459179848319764.856866292180712.74443697921015l1.681920715780507,1.073734222030907c.942156108749259.601347358968269,1.561034916940116,1.252445756699672,1.855428335979013,1.953432638509184.294206779430169.701497606329212.291880572420268,1.461940786090054-.007862624730478,2.282164348709557-.236845652048942.648109402849514-.601476477178949,1.169049579320927-1.094963118668602,1.564166063360972-.49278927739033.394792399119979-1.074733811190526.647007079069226-1.744812152410304.757017319028819-.670589065719469.10982360035996-1.388610205010991.073791069220533-2.154063417840007-.108097593440107l.514861627489154-.252414444108581-.449801435330301,1.23084606843986c-.114223435039094.31256339995889-.317231834298582.541735285509276-.608976003499265.68579684353972-.291233444679165.144248197630077-.604461126020396.155409869979849-.938985679889811.033160932160172Z"/>
              </g>
              <g>
                <path class="cls-23" d="M242.734139446371046,125.415629055392856c-.508511408270351.21887594375039-1.015697361410275.223820092638562-1.520371256900034.015304935190215-.50550344101066-.208158100451328-.867635417640486-.567500928840673-1.086154304379306-1.075182791590123l-.860507380810304-1.999204720919806,1.105964416499774.397075217018937c-1.215381059620995.461186604230534-2.300821864610043.751405581830113-3.256794903471018.871843535320295-.955973038868251.120437953499277-1.758123098179567.175649906690523-2.40752134892864.163147223009219-.546585462179792-.013493665948772-.994143954820174-.173833563549124-1.34469162599089-.481135124298817-.349833557160309-.305642469700615-.590304061119241-.670156295340348-.71986785234003-1.092239442870778-.129563791238979-.422083147539524-.14197089443951-.848381552828869-.036034707089129-1.278422727349607.105936187328552-.430041174529833.334240154328654-.792798210140973.684554843959631-1.089100652370689.350314689629158-.296302442218803.819934320159518-.436494799419961,1.409215948589917-.419747526049832.443657242089103.016500796280525,1.067841401940314-.018154421130021,1.872195422540244-.104795197748899.804711077609682-.085811231081607,1.732462895259232-.356335305761604,2.784326623950619-.809083587450004.719215972208985-.309568422890152,1.265631131378541-.632266706950759,1.640190454549156-.970468057241305.374086834630361-.337014747779904.601972125350585-.664195232329803.684012929139499-.980711908148805.082397860800484-.315687130290826.063432685939915-.613309116801247-.057609638579379-.894525050571247-.1056888733292-.245545476098414-.265486019170567-.43633799195959-.480220983059553-.572020490599243-.214262475379655-.136869101159391-.509431068070626-.217283101250359-.883374198510865-.243142716790317-.375129732979985-.026332104060202-.839681139150343.018271748829648-1.393538786989666.131795410590712l-3.254578283549563.621148586878917c-1.79898501874959.359404055361665-3.280024296740521.274204832341638-4.442403719951471-.253938578009183-1.162379423209131-.528143410350822-2.041296960789623-1.485064159380272-2.637582158278747-2.870405190069505-.452748281690219-1.051863728680473-.600376379770751-2.105272176160724-.441225203210706-3.160939456420238.158321631040963-1.055310223269771.591618086840754-2.051994730740262,1.299532310389623-2.990883067950563.708271280551344-.938058791700314,1.666497019050439-1.740845954000179,2.876220875030413-2.407059452880276l-.596444071110454.786686250519779-.769814901668724-1.788500156988448c-.226374140840562-.525931864351151-.239866132929819-1.039270930730709-.040003487760259-1.541203801700249.199390156649315-.500746268449802.553398654868943-.861565448571127,1.061910063139294-1.080441392310604.543352320421036-.233872337950743,1.062025716981225-.248677126539405,1.554476530140164-.045716399850789.4936374157096.203433215230689.85304989271026.567879510750572,1.079424033550822,1.093811375090809l.769814901668724,1.788500156979353-1.016101482890008-.186013596068733c.681478509661247-.25104631692011,1.447248848890013-.441033989900461,2.296366040620342-.567589813879749.84994673725123-.126912880979944,1.648244506650371-.143103907041223,2.394893308201063-.048573078191112.493494548420131.036345314239952.903471104398704.203029093750956,1.228743065388699.499578850000034.324442415459998.296906813249734.548289721531546.647927809859539.67082780418059,1.051403898780336.122065594150627.404662691469639.127194600840085.802630354859502.01455747458931,1.194260047190255-.111807580729874.391272635330097-.344197656089818.719408859380565-.697642714589165.985595274689331-.353088001509605.267015960829667-.849988727810342.403219071709827-1.491531724459492.408966389619309-.495918610329682.005993795009999-1.016438911181467.053056952550833-1.560374300041076.14166196115184s-1.201641753508738.29893901998912-1.972289548430126.630644977158227c-.912500080088648.392762704941561-1.5490373085795.869289879410644-1.909611685468917,1.429581523421803-.362233467951228.561005758019746-.429333585980203,1.104117512199082-.202959445139641,1.630049376559327.15103511289999.35089775806955.422603759769117.582071898970753.813046849569218.694236536699464.391629692330753.11263712625987,1.01938442223036.086277364131092,1.883621246690382-.078249740859974l3.255407829079559-.621505643870478c1.823431183400317-.348295193858576,3.313238405180527-.267853143419416,4.468119631290392.242869810861521,1.155238283119616.511552499800018,2.019631915040009,1.432445734149951,2.593065464239771,2.764695851079523.45310533869997,1.052693274219564.60688655002923,2.09755387847872.461585259490676,3.137427506379026-.144828802020129,1.038687025369654-.559907543560257,2.006882309629873-1.243577133571307,2.903871738781163-.684499135550141.897346486150127-1.592605847848972,1.67266178401951-2.724320136900133,2.325945893579046l.3338478545611-.891935759589614.86050738079939,1.99920472093072c.218518886749735.507681862738536.234730378469976,1.01591746199847.046733758610571,1.522575218199563-.187167074331228.506300699189524-.55266301597112.876980519020435-1.096015336390337,1.110852856960264Z"/>
                <path class="cls-23" d="M258.808220209841238,117.768774993792249c-.508511408270351.21887594375039-1.015697361421189.223820092640381-1.520371256910948.015304935190215-.505503441008841-.208158100460423-.867635417638667-.567500928840673-1.086154304379306-1.075182791590123l-.860507380810304-1.999204720919806,1.105964416510687.397075217020756c-1.21538105963009.461186604239629-2.300821864610043.751405581819199-3.256794903480113.871843535318476-.955973038880984.120437953501096-1.758123098179567.175649906701437-2.407521348919545.163147223011038-.546585462190706-.013493665950591-.994143954831088-.173833563550943-1.34469162599089-.481135124300636-.349833557160309-.305642469698796-.590304061119241-.670156295340348-.719867852349125-1.092239442870778-.129563791231703-.422083147539524-.141970894430415-.848381552828869-.036034707090948-1.278422727358702s.334240154330473-.792798210130059.684554843970545-1.089100652359775c.350314689620063-.296302442231536.819934320150423-.436494799419961,1.409215948579003-.419747526049832.443657242090921.016500796278706,1.067841401951227-.018154421130021,1.872195422551158-.104795197739804.804711077609682-.085811231090702,1.732462895250137-.356335305770699,2.784326623939705-.809083587460918.719215972219899-.309568422890152,1.265631131389455-.632266706939845,1.640190454549156-.970468057239486.374086834641275-.337014747770809.60197212535968-.664195232320708.684012929150413-.98071190813971.08239786078957-.315687130290826.06343268593082-.613309116810342-.057609638579379-.894525050580341-.105688873331019-.245545476100233-.265486019179662-.43633799195959-.480220983070467-.572020490601062-.21426247537056-.136869101159391-.509431068059712-.21728310124854-.883374198509046-.243142716788498-.375129732979985-.026332104060202-.839681139150343.018271748818734-1.393538786991485.131795410588893l-3.254578283549563.621148586869822c-1.79898501874959.35940405537076-3.280024296740521.274204832350733-4.442403719949652-.253938578000088-1.162379423200036-.528143410349003-2.041296960789623-1.485064159380272-2.637582158280566-2.870405190058591-.452748281690219-1.051863728691387-.600376379768932-2.105272176171638-.441225203208887-3.160939456420238.158321631050057-1.05531022327159.591618086849849-2.051994730751176,1.299532310398718-2.990883067970572.70827128054043-.938058791680305,1.666497019050439-1.740845953989265,2.876220875021318-2.407059452869362l-.596444071110454.786686250508865-.769814901659629-1.788500156979353c-.226374140840562-.525931864340237-.239866132940733-1.039270930739804-.040003487760259-1.541203801709344.199390156649315-.500746268440707.553398654868943-.861565448560214,1.061910063139294-1.080441392310604.543352320421036-.233872337939829,1.062025716970311-.24867712653031,1.554476530140164-.045716399830781.493637415700505.203433215219775.853049892699346.567879510739658,1.079424033550822,1.093811375090809l.769814901659629,1.788500156979353-1.016101482890008-.186013596068733c.681478509670342-.251046316931024,1.447248848890013-.441033989911375,2.296366040620342-.567589813890663.849946737249411-.126912880979944,1.648244506650371-.143103907041223,2.394893308199244-.048573078180198.493494548431045.036345314239952.903471104400523.203029093740042,1.228743065390518.49957884998912.324442415469093.296906813251553.548289721529727.647927809861358.670827804189685,1.05140389879125.122065594139713.404662691469639.127194600829171.802630354850407.014557474580215,1.194260047170246-.111807580729874.391272635339192-.344197656080723.719408859389659-.697642714590984.985595274698426-.353088001498691.267015960831486-.849988727810342.403219071711646-1.491531724459492.408966389621128-.495918610320587.005993794999085-1.016438911179648.053056952539919-1.560374300039257.141661961150021-.543935388850514.088605008599188-1.201641753499644.29893901998912-1.972289548421031.630644977160046-.912500080088648.392762704939742-1.549037308588595.869289879408825-1.909611685479831,1.42958152340907-.362233467949409.561005758041574-.429333585980203,1.10411751222091-.202959445128727,1.630049376570241.151035112889076.35089775806955.422603759769117.582071898970753.813046849558305.694236536710378.391629692341667.112637126250775,1.01938442223036.086277364120178,1.883621246701296-.078249740869069l3.255407829068645-.621505643870478c1.823431183400317-.348295193860395,3.313238405180527-.267853143421235,4.468119631301306.242869810859702,1.155238283108702.511552499800018,2.019631915040009,1.432445734149951,2.593065464239771,2.764695851079523.453105338689056,1.052693274210469.606886550020135,2.097553878489634.461585259488857,3.137427506380845-.14482880201831,1.038687025369654-.559907543558438,2.006882309618959-1.243577133578583,2.903871738779344-.684499135541046.897346486150127-1.592605847850791,1.67266178401951-2.724320136891038,2.325945893580865l.333847854550186-.891935759591433.86050738079939,1.999204720919806c.218518886751554.507681862760364.234730378469976,1.015917462011203.046733758610571,1.522575218210477-.187167074329409.506300699200438-.552663015960206.876980519020435-1.096015336379423,1.110852856960264Z"/>
                <path class="cls-23" d="M274.88230097331143,110.121920932191642c-.508511408281265.21887594375039-1.015697361421189.223820092640381-1.520371256910948.015304935190215-.505503441019755-.208158100449509-.867635417638667-.567500928838854-1.086154304379306-1.075182791579209l-.860507380810304-1.99920472093072,1.105964416499774.397075217029851c-1.215381059619176.461186604230534-2.300821864610043.751405581821018-3.256794903480113.8718435353112s-1.758123098168653.175649906699618-2.407521348919545.163147223009219c-.546585462190706-.013493665950591-.994143954829269-.173833563540029-1.34469162599089-.481135124300636-.349833557149395-.305642469698796-.590304061119241-.670156295338529-.719867852338211-1.092239442879873-.129563791240798-.42208314752861-.141970894441329-.848381552819774-.036034707100043-1.278422727338693.105936187339466-.430041174520738.334240154339568-.792798210140973.68455484397964-1.089100652370689.350314689620063-.296302442220622.819934320150423-.436494799419961,1.409215948569909-.419747526049832.443657242100016.016500796280525,1.067841401949408-.018154421120926,1.872195422549339-.104795197739804.804711077609682-.085811231090702,1.732462895250137-.356335305770699,2.784326623950619-.809083587460918.719215972208985-.309568422890152,1.26563113138036-.63226670694894,1.640190454540061-.970468057239486.374086834648551-.33701474776899.60197212535968-.664195232318889.684012929150413-.98071190813971.082397860798665-.315687130290826.063432685939915-.613309116810342-.057609638581198-.894525050569428-.1056888733292-.245545476100233-.265486019168748-.436337991981418-.480220983059553-.572020490610157-.21426247537056-.136869101170305-.509431068059712-.217283101241264-.883374198510865-.243142716790317-.375129732979985-.026332104069297-.839681139159438.018271748820553-1.393538786989666.131795410590712l-3.254578283558658.621148586869822c-1.798985018751409.359404055368941-3.280024296731426.274204832348914-4.442403719940557-.253938578000088-1.16237942321095-.528143410350822-2.041296960789623-1.485064159380272-2.637582158280566-2.870405190071324-.452748281690219-1.051863728678654-.600376379768932-2.105272176149811-.441225203210706-3.160939456409324.158321631040963-1.055310223269771.591618086840754-2.051994730740262,1.299532310391442-2.990883067970572.708271280549525-.938058791680305,1.66649701904862-1.740845953989265,2.876220875019499-2.407059452869362l-.59644407109954.786686250510684-.769814901670543-1.788500156981172c-.226374140840562-.525931864340237-.239866132929819-1.039270930739804-.040003487760259-1.541203801700249.199390156649315-.500746268438888.553398654870762-.861565448569309,1.061910063141113-1.080441392319699.543352320430131-.233872337939829,1.062025716979406-.24867712653031,1.554476530138345-.045716399828962.493637415711419.203433215219775.85304989271026.567879510739658,1.079424033550822,1.093811375079895l.769814901670543,1.788500156979353-1.016101482890008-.186013596059638c.681478509659428-.251046316931024,1.447248848890013-.441033989911375,2.296366040618523-.567589813890663.84994673725123-.12691288096903,1.648244506661285-.143103907039404,2.394893308191968-.048573078189293.493494548438321.036345314249047.903471104409618.203029093749137,1.228743065399613.499578850000034.324442415459998.296906813249734.548289721529727.647927809870453.670827804178771,1.051403898789431.122065594141532.404662691460544.127194600840085.802630354850407.014557474580215,1.194260047179341-.111807580729874.391272635330097-.344197656078904.719408859380565-.697642714589165.985595274680236-.353088001489596.267015960840581-.849988727810342.403219071720741-1.491531724461311.408966389630223-.495918610318768.005993795000904-1.016438911168734.053056952539919-1.560374300028343.141661961150021-.543935388861428.088605008601007-1.201641753501463.298939019990939-1.972289548421031.630644977160046-.912500080099562.392762704939742-1.549037308590414.869289879410644-1.909611685490745,1.429581523430898-.362233467938495.561005758019746-.429333585978384,1.104117512199082-.202959445128727,1.630049376548413.15103511289999.350897758071369.422603759769117.582071898970753.813046849569218.694236536710378.391629692330753.112637126250775,1.019384422221265.086277364120178,1.883621246681287-.078249740879983l3.255407829088654-.621505643859564c1.823431183400317-.348295193860395,3.313238405180527-.267853143419416,4.468119631290392.242869810870616,1.155238283119616.511552499800018,2.019631915040009,1.432445734129942,2.593065464250685,2.764695851070428.453105338689056,1.05269327420865.606886550020135,2.09755387847872.461585259479762,3.137427506379026-.144828802020129,1.038687025369654-.559907543560257,2.006882309629873-1.243577133569488,2.903871738779344-.684499135550141.897346486150127-1.592605847850791,1.672661784021329-2.724320136900133,2.325945893580865l.333847854550186-.891935759589614.860507380808485,1.999204720928901c.218518886749735.507681862751269.234730378460881,1.015917462000289.046733758601476,1.522575218201382-.187167074320314.506300699189524-.552663015960206.876980519018616-1.096015336370328,1.110852856958445Z"/>
              </g>
              <g>
                <path class="cls-5" d="M205.030040436571653,104.094063279191687c10.198486328128638-10.198364257808862,20.39697265625-20.39697265625,30.595458984378638-30.595336914058862,2.215209960941138,2.215209960930224,4.430541992191138,4.430541992180224,6.645751953121362,6.645751953119543,5.053466796878638-5.053466796869543,10.106811523439319-10.106811523439319,15.160278320319776-15.160278320310681"/>
                <polygon class="cls-19" points="263.417613678760972 75.922310349502368 269.609996491260972 52.805733201063049 246.493419342821653 58.998116013563049 263.417613678760972 75.922310349502368"/>
              </g>
              <g>
                <g>
                  <path class="cls-12" d="M216.773292501171454,102.63418619145159c0,6.167953819560353-5.000095201639851,11.168049021200204-11.168049021200204,11.168049021200204-3.251497784220192,0-6.178437915730683-1.389396966778804-8.219228129590192-3.607052137058417-.536066450389626-.58210556451013-1.010594393259453-1.221647254851632-1.414467540789701-1.907685386540834-.975039201430263-1.658340151430821-1.534353350829406-3.590641219199824-1.534353350829406-5.653311497600953,0-6.167953819569448,5.000095201638032-11.168049021209299,11.168049021209299-11.168049021209299,2.063126562290563,0,3.995426238949221.559314149399142,5.653311497599134,1.53480893915912.686036740569762.403417211420674,1.32512353814127.877945502070361,1.907229102651399,1.414467540800615,2.217656561379044,2.039878341629446,3.607508420949671,4.967274757040286,3.607508420949671,8.218772541249564Z"/>
                  <path class="cls-10" d="M216.773292501171454,102.63418619145159c0,6.028923561660122-4.776734499440863,10.941952006771317-10.752324316950762,11.160300541720062-5.975589817518994-.218347143849314-10.752323882230485-5.13137698005994-10.752323882230485-11.160300541720062,0-6.028923561658303,4.776734064711491-10.941953006629774,10.752323882230485-11.160299762619616,5.975589817509899.218346755989842,10.752324316950762,5.131376548730259,10.752324316950762,11.160299762619616Z"/>
                  <path class="cls-21" d="M214.283501550120491,102.63418619145159c0,4.792689133400927-3.885568936750133,8.67825807015106-8.678258070149241,8.67825807015106-1.669281227050305,0-3.228250259100605-.471337085629784-4.551550052790844-1.288200711840545-.576635722260107-.35555365728942-1.108143854849914-.777204487689232-1.58495147828944-1.254012806679384-.350540098939746-.350083815041216-.671450262729195-.730709437460973-.958173216899013-1.136861917770148-.394756511930609-.559313627729352-.725239595210951-1.167402334040162-.980053281460641-1.81332643441965-.377434417399854-.954982707429735-.589855261210687-1.993383291401187-.602618864049873-3.079190797810952-.000911698340133-.035555365730033-.000911698340133-.071110731460067-.000911698340133-.106666097179186,0-4.792688437861216,3.885113870090208-8.678258070160155,8.678257896270225-8.678258070160155.035555365730033,0,.071567015349501,0,.107122381079535.000911698329219,1.085807506409765.01276342896017,2.123753197589394.225640208880577,3.078734513919699.602618690170857.645924100379489.255269622359265,1.254012806681203.585297117298978,1.813326434410556.980053281449727.406152480320088.287178542519541.786321818839497.607633117970181,1.136861917779243.958172869119153.476806927879807.476351339550092.898457758270524,1.008315060491441,1.254012806681203,1.584951478300354.816863626199847,1.323300489240864,1.288200711838726,2.882269521300259,1.288200711838726,4.55155074833965Z"/>
                  <path class="cls-9" d="M211.741288031600561,96.497685008152985l-12.272545734929736,12.272545734929736c-.350540098939746-.350083815041216-.671450610509055-.730709437460973-.958172869130067-1.136861917770148-.394756511930609-.559313627729352-.725239595209132-1.167402334040162-.980053281449727-1.81332643441965-.377434417399854-.954982707429735-.589855261219782-1.993383291401187-.602618864060787-3.079190797810952-.000911698329219-.035555365730033-.000911698329219-.071110731460067-.000911698329219-.106666097179186,0-4.792688437861216,3.885113870079294-8.678258070160155,8.678257896270225-8.678258070160155.035555365719119,0,.071567015340406,0,.10712238107044.000911698329219,1.085808201969485.01276342896017,2.123752502038769.225640208880577,3.078735209479419.602618690170857.645924100379489.255269622359265,1.254012806679384.585297117298978,1.813326434410556.980053281449727.406151089209743.287179585850026.786321818839497.607634161300666,1.136860526668897.958173912460552Z"/>
                  <path class="cls-16" d="M214.283273408180321,102.63418619145159c0,4.792689133400927-3.885568936759228,8.67825807015106-8.678258070160155,8.67825807015106-.164557811358463,0-.327748162158969-.004558665570585-.490026640729411-.013674605619599,4.564769765629535-.253902509570253,8.18777514553949-4.036451446931096,8.18777514553949-8.664582768980836,0-4.628131322040645-3.623006771018481-8.410680259399669-8.18777514553949-8.664582768980836.162278478570443-.009116809489569.325468829370948-.013675127289389.490026640729411-.013675127289389,4.792689133400927-.000000695550625,8.678258070160155,3.885568762871117,8.678258070160155,8.678257200719599Z"/>
                </g>
                <path class="cls-16" d="M209.549115203721158,104.825265607321853c0-1.157419732830022-.598196527200344-2.177131457248834-1.501168435550426-2.768126210969058.371053398479489-.511314092660541.590676189660371-1.13932348588969.590676189660371-1.81797621764963,0-1.172006906230308-.65330810919113-2.194088385551368-1.61476364876944-2.721812700521696v-1.123779229208594c0-.503519358790072-.408158460109917-.911677471120129-.911677471120129-.911677471120129s-.911677471120129.408158112330057-.911677471120129.911677471120129v.742834694960038h-1.100303562150657v-.742834694960038c0-.503519358790072-.408157764550197-.911677471120129-.911677471120129-.911677471120129s-.911677471120129.408158112330057-.911677471120129.911677471120129v.742834694960038h-1.071358052839059c-.503519706569932,0-.911677471120129.408158112330057-.911677471120129.911677818899989s.408157764550197.911677471120129.911677471120129.911677471120129h.314619566979673v7.348849914998937h-.314619566979673c-.503519706569932,0-.911677471120129.408158460100822-.911677471120129.911677471111034,0,.503519011019307.408157764550197.911677471120129.911677471120129.911677471120129h1.071403263898901v.742834347189273c0,.503519011010212.408157764550197.911677471120129.911677471120129.911677471120129s.911677471120129-.408158460109917.911677471120129-.911677471120129v-.742834347189273h1.100303562150657v.742834347189273c0,.503519011010212.408157764550197.911677471120129.911678166668935.911677471120129.503520402131471,0,.911677471120129-.408158460109917.911677471120129-.911677471120129v-.83691925075982c1.447242078791533-.352135701439693,2.525209988050847-1.658477871260402,2.525209988050847-3.212615580290731ZM203.343463014371082,98.959761233953031h2.192401665370198c.705501143609581,0,1.279401944750134.573946707740106,1.279401944750134,1.27940264029894,0,.705455932560653-.57394670775102,1.279402640309854-1.279402640309854,1.279402640309854h-2.192401665370198v-2.558805280608794h.00000069555972ZM206.242460626470347,106.308611148951968h-2.898997612099265v-2.966643785550332h2.898997612099265c.817865224989873,0,1.483299635021467.665433018921249,1.483299635021467,1.483344150521589,0,.817911131609435-.665434410031594,1.483299635028743-1.483299635021467,1.483299635028743Z"/>
                <path class="cls-18" d="M210.688756558120076,104.825265607321853c0-1.157419732830022-.598196527198525-2.177131457248834-1.501168435548607-2.768126210969058.371053398479489-.511314092660541.590676189658552-1.13932348588969.590676189658552-1.81797621764963,0-1.172006906230308-.653308109189311-2.194088385551368-1.61476364876944-2.721812700521696v-1.123779229208594c0-.503519358790072-.408158460099003-.911677471120129-.911677471120129-.911677471120129-.503519011010212,0-.911677471120129.408158112330057-.911677471120129.911677471120129v.742834694960038h-1.100303562148838v-.742834694960038c0-.503519358790072-.408157764550197-.911677471120129-.911677471120129-.911677471120129s-.911677471120129.408158112330057-.911677471120129.911677471120129v.742834694960038h-1.07140326390072c-.503519706559018,0-.911677471109215.408158112330057-.911677471109215.911677818899989s.408157764550197.911677471120129.911677471109215.911677471120129h.314619566990586v7.348849914998937h-.314619566990586c-.503519706559018,0-.911677471109215.408158460100822-.911677471109215.911677471111034,0,.503519011019307.408157764550197.911677471120129.911677471109215.911677471120129h1.07140326390072v.742834347189273c0,.503519011010212.408157764550197.911677471120129.911677471120129.911677471120129s.911677471120129-.408158460109917.911677471120129-.911677471120129v-.742834347189273h1.100303562148838v.742834347189273c0,.503519011010212.408158460109917.911677471120129.911677471120129.911677471120129.503519011021126,0,.911677471120129-.408158460109917.911677471120129-.911677471120129v-.83691925075982c1.447333892010647-.352135701439693,2.525255894659495-1.658477871260402,2.525255894659495-3.212615580290731ZM204.483105064320625,98.959761233953031h2.192402360929918c.705501143609581,0,1.279401944741039.573946707740106,1.279401944741039,1.27940264029894,0,.705455932560653-.573946707740106,1.279402640309854-1.279401944741039,1.279402640309854h-2.192402360929918v-2.558805280608794ZM207.38210337198143,106.308611148951968h-2.898997612110179v-2.966643785550332h2.898997612110179c.817865224989873,0,1.483299635019648.665433018921249,1.483299635019648,1.483344150521589,0,.817911131609435-.665388503419308,1.483299635028743-1.483299635019648,1.483299635028743Z"/>
              </g>
            </g>
          </g>
        </g>
      </g>
    </g>
  </g>
</svg>