<?xml version="1.0" encoding="UTF-8"?>
<svg xmlns="http://www.w3.org/2000/svg" width="177.469585206337797" height="231.454669267786812" xmlns:xlink="http://www.w3.org/1999/xlink" viewBox="0 0 177.469585206337797 231.454669267786812">
  <defs>
    <style>
      .cls-1 {
        fill: #3657a6;
      }

      .cls-1, .cls-2, .cls-3, .cls-4, .cls-5, .cls-6, .cls-7, .cls-8, .cls-9, .cls-10, .cls-11, .cls-12, .cls-13 {
        stroke-width: 0px;
      }

      .cls-2 {
        fill: #271e1e;
      }

      .cls-3 {
        fill: #151c22;
      }

      .cls-14 {
        clip-path: url(#clippath);
      }

      .cls-4, .cls-15, .cls-16 {
        fill: none;
      }

      .cls-17, .cls-8, .cls-10, .cls-16, .cls-11, .cls-18 {
        mix-blend-mode: multiply;
      }

      .cls-5 {
        fill: #79c4e0;
      }

      .cls-19 {
        clip-path: url(#clippath-1);
      }

      .cls-15 {
        stroke: #27201d;
        stroke-width: 1.85461063707757px;
      }

      .cls-15, .cls-16 {
        stroke-miterlimit: 10;
      }

      .cls-6 {
        fill: #5e5a5b;
      }

      .cls-7 {
        fill: #dc5b42;
      }

      .cls-8 {
        fill: url(#radial-gradient-2);
      }

      .cls-8, .cls-11 {
        opacity: .4;
      }

      .cls-9 {
        fill: #e9e9de;
      }

      .cls-10, .cls-13 {
        fill: #f1b068;
      }

      .cls-16 {
        stroke: #f1b068;
        stroke-width: .618203545692524px;
      }

      .cls-20 {
        isolation: isolate;
      }

      .cls-11 {
        fill: url(#radial-gradient);
      }

      .cls-12 {
        fill: #fff;
      }

      .cls-18 {
        opacity: .6;
      }
    </style>
    <radialGradient id="radial-gradient" cx="-169.874872206678447" cy="20.418699662735889" fx="-169.874872206678447" fy="20.418699662735889" r="17.129250662057842" gradientTransform="translate(257.748887575703577 90.470133479656027) scale(.853091239733539 .645477583935139)" gradientUnits="userSpaceOnUse">
      <stop offset=".537641841231661" stop-color="#e984a2"/>
      <stop offset=".592832570610897" stop-color="rgba(233, 132, 162, .886871293855677)" stop-opacity=".886871293855677"/>
      <stop offset=".711273432585101" stop-color="rgba(233, 132, 162, .596518194573597)" stop-opacity=".596518194573597"/>
      <stop offset=".8824215114979" stop-color="rgba(233, 132, 162, .136328760171738)" stop-opacity=".136328760171738"/>
      <stop offset=".931113028771807" stop-color="#e984a2" stop-opacity="0"/>
    </radialGradient>
    <radialGradient id="radial-gradient-2" cx="144.18307558073684" cy="167.122252582599685" fx="144.18307558073684" fy="167.122252582599685" r="17.129250662058677" gradientTransform="translate(164.879410403786437 -19.351372290770975) rotate(89.999999999976836) scale(.853091239733539 .645477583935139)" xlink:href="#radial-gradient"/>
    <clipPath id="clippath">
      <path class="cls-4" d="M118.967811241467643,83.614990492460493c-.138118467231834.396257528962451-2.564485454468013,6.981427698585321-9.518112680943887,8.533381264333002-6.432963869658124,1.435752848425182-11.17434293900078-2.678510918743996-11.626853785055573-3.085205630308337.538239690609771-.922003399191453,3.320939005747277-5.469871278753999,9.199790812028368-7.083486593692214,6.176803730448228-1.695387143314292,11.099392408135827,1.13085535342907,11.945175653971091,1.635310959667549Z"/>
    </clipPath>
    <clipPath id="clippath-1">
      <path class="cls-4" d="M53.002926587570983,84.701299721589749c.157221418741756.409333064286329,2.906868834541456,7.207508275772852,10.220074796486188,8.600782922731014,6.765618739346792,1.288955438139965,11.582881960986015-3.163193474625587,12.042175720524028-3.602758724286105-.592318289081049-.945329074445908-3.647439617768214-5.604070678200515-9.840161908584378-7.096923046814481-6.50658148855473-1.56850327230859-11.555258552209125,1.544359574847476-12.422088608425838,2.098898848369572Z"/>
    </clipPath>
  </defs>
  <g class="cls-20">
    <g id="Layer_2" data-name="Layer 2">
      <g id="Layer_1-2" data-name="Layer 1">
        <g>
          <path class="cls-6" d="M116.325663178076866,18.921390689307373c0,3.559342460926928-.947859378638896,6.570993265700963-2.763650994722411,9.419104936199801-1.820436766378407,2.855397697512672-4.099054833972332,5.197335059559919-7.198780737353445,6.826134872679177-2.92732416110448,1.538208601396036-6.120697135726004,2.518499267618608-9.715116688814305,2.518499267618608-3.594498008808841,0-6.903728339092595-.759971686906283-9.831096810449708-2.298242728311379-3.099712926495158-1.628834455977994-5.111802361762784-4.287240335321258-6.932207795975046-7.142667614654783-1.815713735829377-2.848068037656049-2.864696078023371-5.763568765956734-2.864696078023371-9.32282873569784,0-3.559342460928747.297334988814328-6.954141320327835,2.113126604894205-9.802252990826673,1.820436766376588-2.855397697514491,4.631257594543058-4.945068852663098,7.730983497924171-6.573868665782356,2.92732416110357-1.538208601396036,6.18947104988456-2.545269030531927,9.78389060297377-2.545269030531927,3.594498008808841,0,6.68443939716235,1.334935749890064,9.611807868521282,2.873206791295161,3.099712926496068,1.628834455979813,6.462768138464526,3.148456127461031,8.283173572677697,6.003883406796376,1.815713735832105,2.848068037656049,1.782566958347161,6.485040521472911,1.782566958347161,10.044300491215836Z"/>
          <path class="cls-5" d="M60.496452741790563,149.502702103349293c23.453550167170761-8.445511803492991,47.271441980479722-2.158807264171628,55.450262943570124,0,3.579422734090258.944737586611154,6.02205123504973,1.779599150686408,7.99031113871024,2.575973921157129,3.325258967679474,1.345377561632631,4.485296205590203,2.155034049112146,7.906092978579181,3.569536910636089,3.219608946023072,1.331341201614123,5.707516027679958,2.060024493912351,8.123581094610927,2.759729494555359,24.678939489913319,7.147374894408131,27.672004603753521,7.933712912818009,30.44245002907337,10.214395023416728,4.426584979270046,3.644095640211162,8.721711145859445,11.462951886616793,6.417031387480165,30.290842247974069C117.884337082739876,209.760342889989261,58.942491851670638,220.607506078886217.000646620599582,231.454669267786812c-.082407016897378-48.354430166869861,7.72588422734043-61.683085971835681,15.356985292370155-64.280265361627244,3.312279107880386-1.127285731192387,17.752071283581245-6.256896140352183,27.862174642750688-9.679051270763011,2.454853717739752-.830937420414557,3.688393185009772-3.099620707118447,17.276646186070138-7.992650532047264Z"/>
          <path class="cls-1" d="M60.085172300299746,150.473550338174391c3.226702590331115-.996657025832974,6.090874677731335-1.700286170136678,8.452303590611336-2.20514234510847,8.316769705659681-1.778089864659705,23.523430110059053-4.937402834024397,40.309407409789856-.035392757257796,2.943409603660257.85953839056674,5.328836164309905,1.789107652639359,6.976221859309589,2.487378831559909-.068672514089485.438749447126611-.137194099559565.877574358550191-.20586661364905,1.316323805676802-3.698052615571214,11.772581914403418-14.294297003001702,19.997511565517925-26.32632518490027,20.540024426776654-12.94333508309137.583565441113024-24.94004597203002-7.840665429444925-28.958972796261151-20.540024426776654-.082256088298891-.521080999726109-.164512176599601-1.042086535147973-.246768264900311-1.563167534870445Z"/>
          <path class="cls-13" d="M47.004124917320951,111.568227617011871c-8.210815876080233,1.660833800822729-16.333968609369549-3.728995309695165-17.994802410190459-11.939811185773578-1.6608338008391-8.210815876078414,3.72898357566919-16.334026619930228,11.939799451740328-17.994860420763871,2.018334319480346,9.978223868842178,4.036668638960691,19.956447737691633,6.055002958450132,29.934671606537449Z"/>
          <path class="cls-13" d="M124.705281001919502,109.716675083946029c8.3086101250301,1.069039164613059,16.025250363052692-4.888203739606979,17.094289527671208-13.196813864637079,1.069039164609421-8.3086101250301-4.888209139429819-16.025325633916509-13.196819264459918-17.09436479852593-1.299208734919375,10.097038063977379-2.598261528290095,20.194140599181992-3.897470263211289,30.291178663163009Z"/>
          <path class="cls-16" d="M139.194244571979652,91.7647896253402c-.258481563778332-.848988760793873-.800217923349919-2.155445274929662-1.854395723008565-2.501367162964016-2.267196842680278-.743998099074815-5.62343227771089,3.375075642987213-6.494931121980699,7.576326431189955-.33796957442064,1.629451079938008-.602054114040584,4.716494965538004.656807063569431,5.739169920554559,1.243645944450691,1.010323358466849,3.47706618292068-.397539968384081,4.319720891910038-2.816707637164654.620812859860962-1.782315706946974.581969169461445-4.387354812235571-.387879075798992-4.784026045901555-.5941261622811-.242983093656221-1.502471036870702.357048806454259-2.071845580670924,1.494252526295895-.660620463049781,1.319268679777451-.510582705408524,2.653637425020861-.494149235450095,2.785280933439935"/>
          <path class="cls-16" d="M31.817911325169916,94.286526257990772c.271549342080107-.84489975120232.833377764220131-2.142842635417765,1.892767114070011-2.472459066066222,2.278405695102265-.708930309290736,5.570690908560209,3.461434526201629,6.377267416020914,7.675631099515158.312789513300231,1.634471466721152.529214451040389,4.725222320797911-.7452751360197,5.72835332948307-1.259085599431273.991015629089816-3.470518916888977-.451138243141031-4.275749425751201-2.883018790344067-.593240675660127-1.791681720318593-.514210005288987-4.395811464684812.461642809030309-4.777472271205625.597804288490806-.233787752422359,1.496783511051945.380187043268961,2.04854504334071,1.526039949629194.640187618710115,1.329303975209768.469580535329442,2.661199053694872.451117971750136,2.792573350994644"/>
          <path class="cls-13" d="M68.668686517030437,132.73068569933821c3.25251138134081,3.970780600069702,3.75555641308074,9.430547326941451,1.316248341380742,13.601987503876444-3.070793344068989,5.251485255586886-9.177968310860706,5.678839593230805-9.652940622549977,5.704044669830182,4.097409697458716,12.852400600146211,16.282781339379653,21.298968903858622,29.287997149440343,20.567493432412448,11.881099579519287-.668236387045908,22.312831790368364-8.876563891895785,25.997300831708344-20.567493432412448-.619712841378714-.149947566467745-7.437459668179145-1.926301752202562-10.091690069670221-8.775441728303122-2.424818925868749-6.25697160465279.583339048211201-11.694099041167647.987223988180631-12.395388792134327-12.614763515699451.621599448910274-25.229376102790411,1.243198897820548-37.844139618489862,1.864798346730822Z"/>
          <path class="cls-10" d="M106.512826135520299,130.865887352607388c-12.614763515699451.621599448910274-25.229376102790411,1.243198897820548-37.844139618489862,1.864798346730822,2.841230939842717,3.468792068546463,3.582894091949129,8.073321870022482,2.099265930530237,11.963204739215143.086180231960498.86202871250498.314686135969168,2.091794964715518.972131127949979,3.393856017464714,2.00870876909903,3.978704351695342,6.344887515539085,5.311328446427069,8.336692281169235,5.923419393388031,6.508041334722293,2.000030374463677,16.487742381430508-2.214499918449292,25.330800123600056-11.123966245668271-2.025461843968515-6.113891289594903.676160138671548-11.243199841552268,1.105250155240356-12.021312251130439Z"/>
          <path class="cls-13" d="M133.552235296021536,64.336936744090053c-3.686280184570933-20.314989880629582-20.696990173251834-46.926494659735908-47.222993899111316-47.222993899114954-26.482989074180296-.295970989271154-44.634417439659046,25.836939191678539-48.045705710699622,44.754858464359131-1.782466794129505,9.884993348714488.050862939000581,20.066787794010452,1.730094569109497,29.392817063802795,2.547674808211013,14.148952758911037,6.585316779130153,21.180414486687368,8.448983161350043,24.539707854208245,1.936112111350667,3.489846608579683,4.476542346650604,6.594674352483707,7.193559046731025,9.501559234362503,5.324459234841015,5.696875561214256,10.880895731528653,10.911534237813612,17.663476193978568,14.889785803705308,2.983405683291494,1.768883219912823,6.347000515982472,3.286847638373729,9.76055271605037,3.966856456405367,10.029054699692097,1.997841909731505,19.229209515089678-4.005569642918999,26.061747344931064-10.734268594318564,6.645990077298848-6.545094306598912,13.715485812868792-13.956594255174423,17.445686220738935-22.609934744148632,1.925547109200124-4.466807451801287,3.92655851956988-12.204313181518955,4.954080444589636-18.817023501986114,1.98667319316155-6.253726639701199,4.098466197690868-16.154416563065752,2.010519912331802-27.661364137275086Z"/>
          <path class="cls-6" d="M135.010970767420076,81.861361326773476c-4.753208080779586-2.442082805104292-14.165140378659999-8.251761168667144-22.817883210349464-21.113035637557914-9.248039713580511-13.745901832378877-12.707506853359519-28.23165701142716-14.011653504379865-35.05205813950306.938168231150485-.455098777511012,15.733074665959066-7.241820837043633,27.933752054150318,5.995786535262596,10.383408399669861,11.265977491122612,14.355957807731102,32.118408077250933,8.895784660579011,50.169307241798379Z"/>
          <path class="cls-6" d="M106.000175720830157,38.07590282784804c-3.407134820059582,4.683196693131322-6.932990301169411,9.879166651448031-7.44390626475797,15.765050616126246-.107655426822021,1.466618846439815.129604336118064,2.846709986621136.613330506748753,4.29437940851858,1.041076929299379,2.965977898635174.068683852048707,6.463779420406354-2.483102577840327,8.331165972438612-1.183255031221051.959055486440775-2.539197595020596,1.656307897294027-3.930910237590069,2.218479209015641,2.621668424520976-1.216752625772642,5.373410363139556-3.125549998600036,6.081669144410625-6.066238048842933.35453017556938-1.414689056826319.123005699520036-2.89141223468323-.356947256050262-4.269352642280865-1.867438505860264-4.337349728699337-.44808115079104-9.370211726640264,1.421781215949522-13.439208538689854,1.268219264300569-2.791653361480712,2.835763728640813-5.420452293470589,4.52872986156035-7.948129061864165l1.569355607569378,1.113853085578739h0Z"/>
          <path class="cls-6" d="M40.828299640630576,81.60473052290763c1.055741661739376,6.55686119641905,1.621373663021586,13.531055807685334.872506472990608,20.117020203313587.000162705980983-.000010916857718-.187743403980676-.00219938158989-.187743403980676-.00219938158989-.42659303831897-6.505602832479781-2.129882051360255-12.998510449808236-4.275218020260581-19.126574154619448.000165357791047-.000041643004806,3.590454951250649-.988246667100611,3.590454951250649-.988246667100611v-.000000000003638Z"/>
          <path class="cls-6" d="M130.799103449629911,76.215975703460572c-1.732033582309668,9.595548852983484-3.003313438110126,19.599192194746138-2.977972549939295,29.35593569077173-.000150632269651-.000020670318918-.229713036489557.015487243694224-.229713036489557.015487243694224-1.456765572780569-9.725794703361316-1.646497137080587-20.063183764785208-1.318338584011144-29.918506371192052-.000173686399648.000004985238775,4.526024170439996.547083436726098,4.526024170439996.547083436726098h0Z"/>
          <circle class="cls-9" cx="131.436113426730572" cy="109.018168985484408" r="3.483940031282373"/>
          <circle class="cls-9" cx="40.739316933395912" cy="109.855615515234604" r="3.483940031282373"/>
          <path class="cls-6" d="M112.984795534270233,23.860074049949617c-3.784232847528983,8.551690075266379-12.584879652429663,25.339780375430564-30.769059524620388,39.654150882553949-19.434925200148427,15.298877780460316-39.246115406018362,19.630604133129964-48.539242240498425,21.061105426502763-.510893319060415-1.827594446240255-8.043287078140565-30.588171594667074,11.024126975198669-51.500989669333649,16.227390542309877-17.797953578701708,44.638492511920049-22.14386721999108,68.284174789920144-9.214266639723064Z"/>
          <g class="cls-18">
            <path class="cls-13" d="M85.185167517731315,90.042663317250117c2.031983423939892,3.461430922170621,1.298847939711777,8.131409920039005-1.093330772792797,11.232607626467143,1.534570519267618-3.556464492727173,1.941786690274967-7.460176532506011,1.093330772792797-11.232607626467143h0Z"/>
          </g>
          <ellipse class="cls-11" cx="112.830122245330131" cy="103.649946405037554" rx="14.831661226059902" ry="11.907359779824734" transform="translate(-20.150433077236329 27.557109805492018) rotate(-12.793105487925102)"/>
          <ellipse class="cls-8" cx="57.005742585020926" cy="103.649946405038463" rx="11.907359779825194" ry="14.831661226060051" transform="translate(-58.88280051293971 127.373598233311725) rotate(-72.759170584513882)"/>
          <g class="cls-17">
            <path class="cls-13" d="M92.069505896637565,107.316833239125117c-2.000533723748958,4.490982769733819-9.458568668094813,5.18975275716366-11.789951490569365.708251285223014,4.151204631137261.975855152519216,7.779379816992332.685964728181716,11.789951490569365-.708251285223014h0Z"/>
          </g>
          <path class="cls-7" d="M76.663439002106315,124.239135485218867c7.626379115376039,3.640718901046057,16.558032012581862.986378271736612,21.035140279151165-6.161916250735885.000077006005085.000234121829635,1.210831400536335.609242910892135,1.210831400536335.609242910892135-3.483013001181462,8.887995082090129-15.206076647931695,12.313688178874145-22.881096389068261,6.613738981934148.000053908593145.000213654784602.635124709385309-1.061065642090398.635124709385309-1.061065642090398h-.000000000004547Z"/>
          <g class="cls-18">
            <path class="cls-13" d="M73.393907752106315,113.410461168812617c-3.408580277981855,4.411277331251767-5.588282779592191,9.701331820839187-5.580149232301665,15.325542283018876-.754622301389645-5.605018100292,1.418586849833446-11.506230822185898,5.580149232301665-15.325542283018876h0Z"/>
          </g>
          <g class="cls-18">
            <path class="cls-13" d="M98.844591345856315,113.410461168812617c4.468030308500602,3.551290690060341,6.653029117766891,9.741131443970517,5.580271120437828,15.325490798111787.313458996840382-5.641567673676036-1.846982199913327-11.142737246729666-5.580271120437828-15.325490798111787h0Z"/>
          </g>
          <g>
            <g class="cls-18">
              <path class="cls-13" d="M97.630418982575065,88.137634020375117c.457274311383117-4.417673910076701,5.03092876919618-8.185052703554902,9.477953954772602-7.513064366277831-4.282815986429341.967328715432814-7.569852194447776,3.557513545349138-9.477953954772602,7.513064366277831h0Z"/>
            </g>
            <g class="cls-18">
              <path class="cls-13" d="M103.852464881012565,93.441161852406367c-2.312454846278342-.169917126304426-4.602168078580689-1.304657015021803-6.070396150051238-3.109944249839828,1.916776915246373,1.284096634237358,3.888148840704162,2.323146130382156,6.070396150051238,3.109944249839828h0Z"/>
            </g>
            <g class="cls-18">
              <path class="cls-13" d="M102.227525916168815,94.359252672718867c-1.441503379051937.038904269158593-3.039578590432029-.395239216597474-4.018343463872043-1.502856567854906,1.353057673247349.537561672508673,2.671171694751138.92347476084251,4.018343463872043,1.502856567854906h0Z"/>
            </g>
            <g class="cls-18">
              <path class="cls-13" d="M96.747911658356315,85.432128649281367c.399769247340373-1.385394341095889,1.29789981383874-2.776839101672522,2.649964702197394-3.37389387494477-.92229182349547,1.12658913213636-1.689533565582678,2.265679001111494-2.649964702197394,3.37389387494477h0Z"/>
            </g>
            <g class="cls-18">
              <path class="cls-13" d="M124.126268591950065,80.975219469593867c-.981542174136848,1.056377863711532-2.410453381293337,1.89336502997503-3.886506503049532,1.816725068578307,1.331172091951885-.589762622257695,2.529544608927608-1.260590772579235,3.886506503049532-1.816725068578307h0Z"/>
            </g>
            <g class="cls-18">
              <path class="cls-13" d="M124.310655798981315,83.305846911000117c-1.316058612112101.589350560241655-2.958435962311341.801872693527912-4.287355839960583.154987358362632,1.455735286543131-.023120380606997,2.821035262297301-.172752498503542,4.287355839960583-.154987358362632h0Z"/>
            </g>
            <path class="cls-12" d="M118.967811241467643,83.614990492460493c-.138118467231834.396257528962451-2.564485454468013,6.981427698585321-9.518112680943887,8.533381264333002-6.432963869658124,1.435752848425182-11.17434293900078-2.678510918743996-11.626853785055573-3.085205630308337.538239690609771-.922003399191453,3.320939005747277-5.469871278753999,9.199790812028368-7.083486593692214,6.176803730448228-1.695387143314292,11.099392408135827,1.13085535342907,11.945175653971091,1.635310959667549Z"/>
            <g class="cls-14">
              <circle class="cls-3" cx="107.16506212103468" cy="86.319154865330347" r="5.420417699674877"/>
            </g>
            <path class="cls-2" d="M97.721361365387565,89.005981188343867c3.764476070562523-7.922491104802248,14.261551666269952-10.871542808157756,21.498711549867949-5.794821448818766-.000054323305449-.000222496493734-.504509889711699.807944007412516-.504509889711699.807944007412516-5.141820746528538-2.949214104117345-11.866326097146157-2.848294945622911-16.644641898903501.795772047393257-1.603099800315249,1.165653733856743-3.009593940940249,2.638615159637993-4.146617866721499,4.305546311981743l-.20294189453125-.11444091796875h0Z"/>
          </g>
          <g>
            <g class="cls-18">
              <path class="cls-13" d="M65.365648474762565,81.122070055531367c4.126421982793545-.397462423154138,8.522919593909137,2.628799418114795,9.457941828121875,6.7019118198059-2.370743893471627-3.372542224435165-5.465582732432267-5.634529402750559-9.457941828121875-6.7019118198059h0Z"/>
            </g>
            <g class="cls-18">
              <path class="cls-13" d="M75.142503943512565,93.099731188343867c-.929023312646677,1.311004818135189-2.472019816928878,2.067858962269383-4.03410743857421,2.296943400515374,1.28381673405238-.896953280695016,2.708758066493829-1.484734716077583,4.03410743857421-2.296943400515374h0Z"/>
            </g>
            <g class="cls-18">
              <path class="cls-13" d="M75.182848181793815,91.082580309437617c-1.670992724025382,1.875559148007596-4.239401776668274,3.001661870142925-6.756515706650134,2.876682922702457,2.407116595600201-.599259060865734,4.677027664238267-1.515966897168255,6.756515706650134-2.876682922702457h0Z"/>
            </g>
            <g class="cls-18">
              <path class="cls-13" d="M75.596483435700065,86.434509020375117c-.716271209219485-.761902388836461-1.485954518037033-1.766993223001919-2.154798247285726-2.571463526131993-.231493256620524-.289315282461757-.472704194120524-.567086278555507-.723375580839274-.865487157461757.3751220703125.12127685546875.69989013671875.3455810546875,1.002197265625.58612060546875.874715163486144.747586846297054,1.543797851183626,1.74719446943709,1.8759765625,2.850830078125h0Z"/>
            </g>
            <g class="cls-18">
              <path class="cls-13" d="M48.083727088043815,82.421569567250117c.982757104617122.357104070360947,2.123007248345857.907225291333816,3.082649356487309,1.323716936825804.337150448200191.153883160830446.677665584918941.293043317080446,1.035941952106441.446424664736696-.38946533203125.06085205078125-.780517578125.007080078125-1.1588134765625-.07135009765625-1.117812876773314-.272847838021335-2.165676945985069-.863490953550354-2.95977783203125-1.69879150390625h0Z"/>
            </g>
            <g class="cls-18">
              <path class="cls-13" d="M47.967394080231315,84.861755114125117c1.044226923115275-.054986926537822,2.308734739888678.00625974986724,3.354860253235529.014938061221983.370481543639471.010086352840517.738279395201971.005203540340517,1.127988867858221.006485278621767-.33477783203125.2081298828125-.71575927734375.311279296875-1.09466552734375.3868408203125-1.135626907503138.185194897743713-2.331008964966713.050707453319774-3.38818359375-.40826416015625h0Z"/>
            </g>
            <path class="cls-12" d="M53.002926587570983,84.701299721589749c.157221418741756.409333064286329,2.906868834541456,7.207508275772852,10.220074796486188,8.600782922731014,6.765618739346792,1.288955438139965,11.582881960986015-3.163193474625587,12.042175720524028-3.602758724286105-.592318289081049-.945329074445908-3.647439617768214-5.604070678200515-9.840161908584378-7.096923046814481-6.50658148855473-1.56850327230859-11.555258552209125,1.544359574847476-12.422088608425838,2.098898848369572Z"/>
            <g class="cls-19">
              <circle class="cls-3" cx="65.748507222342596" cy="86.826052048742895" r="5.663895962360327"/>
            </g>
            <path class="cls-2" d="M75.161058631012565,89.762450914906367c-4.952004051368931-7.117526112646374-14.492103103647423-9.263914548348112-21.881513090001135-4.6470928025592.000043363433178-.0002460646283-.553240327963977-.82782174822205-.553240327963977-.82782174822205,5.35935083863842-3.98858756669506,13.332265208040553-3.872012080859349,18.486992642826408.406670464442868,1.711615755607454,1.356696234775882,3.142707064201204,3.040900336338382,4.155951693107454,4.942084418369632l-.20819091796875.12615966796875h0Z"/>
          </g>
          <polygon class="cls-6" points="93.326402869293815 80.187011461781367 123.309862341950065 71.012756090687617 94.738390173981315 83.929565172718867 93.326402869293815 80.187011461781367 93.326402869293815 80.187011461781367"/>
          <polygon class="cls-6" points="74.559190955231315 83.929565172718867 45.987718787262565 71.012756090687617 75.971117224762565 80.187011461781367 74.559190955231315 83.929565172718867 74.559190955231315 83.929565172718867"/>
          <g>
            <circle class="cls-15" cx="62.104853303400887" cy="89.371872742867708" r="18.855411200901472"/>
            <circle class="cls-15" cx="107.978882522460481" cy="89.371872742867708" r="18.855411200902381"/>
            <path class="cls-15" d="M80.762194204720799,88.259369810875796c.655935705951379-.397244081468671,2.573181742009183-1.438840098657238,5.100783046100332-1.151811629075382,1.514719453509315.172020874560985,2.64683489996969.752907332982431,3.288885174508323,1.151811629075382"/>
          </g>
        </g>
      </g>
    </g>
  </g>
</svg>