<?xml version="1.0" encoding="UTF-8"?>
<svg xmlns="http://www.w3.org/2000/svg" width="55.751750673273818" height="71.018678525520954" viewBox="0 0 55.751750673273818 71.018678525520954">
  <defs>
    <style>
      .cls-1 {
        fill: #0b2645;
      }

      .cls-1, .cls-2, .cls-3, .cls-4 {
        stroke-width: 0px;
      }

      .cls-5 {
        isolation: isolate;
      }

      .cls-2 {
        fill: #e9e9de;
        mix-blend-mode: screen;
      }

      .cls-3 {
        fill: #f1b068;
      }

      .cls-4 {
        fill: #151c22;
        mix-blend-mode: multiply;
      }
    </style>
  </defs>
  <g class="cls-5">
    <g id="Layer_2" data-name="Layer 2">
      <g id="Layer_1-2" data-name="Layer 1">
        <g>
          <path class="cls-3" d="M.987757241270629,48.016879577044165c-2.044427471049858-1.256032536115526-.823275826011013-8.767507946202386,2.813218291579688-13.88626743167697,1.964727721329837-2.765476062653761.704871781561451-3.331556925371842,11.207454049719672-8.689491979988816,1.552994741530711-.792160319193499,2.664397653920787-2.136404757016862,3.769553210209779-1.716043069849547,1.375979467729849.523368350535748,1.946909946120286,3.143578829021862,1.474118808509957,5.208348433017818-.498426835669306,2.178254725917213-1.974311764819504,2.93513950068882-4.197728588829705,5.299052620011935-3.083078152368216,3.277819134335004-2.512421884199284,4.232887105576083-5.103701871670637,7.322433181412634-2.780320345209475,3.314990904385922-8.007080451749061,7.663429587810242-9.962913899518753,6.461968247072946Z"/>
          <g>
            <path class="cls-1" d="M44.0991633770509,66.107218561217451h-26.425279141289138c-3.140183054430963,0-5.846827477291299-2.232783360122994-6.017499632522231-5.006171790595545L8.335230925250471,7.132962909123307c-.239329995340086-3.889064617800614,2.682662718019856-7.132962909123307,6.497975657179268-7.132962909123307h32.10663444796046c3.815312939150317,0,6.737305652510258,3.243898291322694,6.497975657170173,7.132962909123307l-3.321153677979964,53.968083861498599c-.170672155230932,2.773388430472551-2.87731657808763,5.006171790595545-6.017499632529507,5.006171790595545Z"/>
            <path class="cls-4" d="M28.170998649630747,12.292019745058496l-14.106352067359694.000000016916601c-1.493539318231342.000000001789886-2.782747507300883-1.243091459291463-2.865537923691591-2.774091204079014l-.181341841587709-3.35345955871162c-.085041146361618-1.572621313654963,1.097252797178953-2.869359792908654,2.627983997268529-2.869359791031457l14.457626313569563.000000017720595c1.530731190310689.000000001877197,2.783147609130538,1.296738475899474,2.783147597470816,2.869359779568185l-.000000024840119,3.353459531925182c-.000000011350494,1.530999743175926-1.221986734190068,2.774091205901641-2.715526050829794,2.774091207691527Z"/>
            <path class="cls-2" d="M33.803967568429471,9.490381446084939h-.000003196530088c-.879044140719998-.000000004685717-1.595594452286605-.73627062606829-1.592319337887602-1.640210814715829l.000009366978702-.002585310223367c.003291430640274-.908443513599195.731728982909772-1.655079001814556,1.618735221429233-1.655078997911914h.000003273500624c.887006224300421.000000003903551,1.603478455230288.74663548652461,1.592211499499172,1.655078985604632l-.000032064628613.002585339163488c-.01121110350141.90394018886218-.739560621381315,1.64021080276143-1.618604762361429,1.64021079808299Z"/>
          </g>
          <path class="cls-3" d="M12.963114041359404,35.693011490559002c-2.989375197079426-.659626248019777-5.890140249878641-.021097653396282-7.448607677548353,1.130103918830173C1.045211925570584,40.124411297500046-.287672900359212,48.210411542186193.639487821729745,54.054867257976184c1.098214004270631,6.923276107899255,5.347605978229694,10.573007856389268,6.604052382999726,11.546258836678135.164074827591321.126991644498048.340159088660585.237267455922847.497255461661553.343323736666207,3.748566140189723,2.532205276878813,7.103904478928598,3.536940447622328,8.063523129329042,3.806341252569837,3.954024826369277,1.1101422929205,7.163464777381705,2.011255527548201,9.417181029379208.366450010591507,2.2371627085613-1.632877228312282,3.280685103631185-4.185693289658957,3.280685103631185-4.185774434485211.039436382900021-.097617219380481.068973097659182-.174136785364681.088447854639526-.225095732810587.010711116339735-.028157252802885,1.833872949349825-5.21006550702441-.129669423589803-12.155169571713486-1.801090441760607-6.370436444009101-5.77377857690044-10.636300816589937-7.770914905640893-12.530302078128443-.375375940868253-.073273773152323-1.321849130299597-.309892070512433-2.168189610908485-1.134404594333319-.800412512050571-.779639437932929-1.072572240899717-1.657707543461584-1.165726495150011-2.031541732736514-.787591630370116-.649077421323454-2.275949932890398-1.694790726556676-4.393018306721387-2.161941459715308Z"/>
          <path class="cls-3" d="M6.560138524230751,41.888743135456025c-1.656977240078959-2.164943818082975-1.459146167051586-2.862789276685362-1.020152686700385-3.369782116842543,1.048466646019733-1.661975430663006,2.26502108672139-3.41394845684772,3.489632231239739-4.928051549693919,2.1293085264806-2.645369897687488,4.723972108460657-4.931825338680937,7.649205507870647-6.723586057734792,6.113819494459676-1.059085610129841,12.033711686908646-3.26148081755673,18.309731815468695-2.97677240125995,1.094340794590607.025168432894134,1.969966192540596.964196971708589,1.857090487331334,2.065014611645893-.061495963870584.633078123675659-.441091435420276,1.167497913251282-.955711888730548,1.458320950881898-1.376053870579199.764871080558805-2.80322897824044,1.317548454808275-4.229430348059395,1.870306973876723-4.185343711771566,1.476923426042049-8.646490433409781,3.538063130286901-13.047910770979797,4.158670735912892-.000014118821127-.000079816389189,1.720742950379645-1.16158678085776,1.720742950379645-1.16158678085776-1.442814422400261,3.852585047556204-3.913551477950023,7.115575962281582-6.650223702081348,10.116379049206444-.000081228759882-.000054244101193-1.390254298148648,1.463068019158527-1.390254298148648,1.463068019158527-.533033046869605,1.350305373514857-4.697961356590895-.330928911261253-5.732719297589938-1.971981434293411h0Z"/>
          <path class="cls-3" d="M10.383844768440213,48.81364213976849c-.171539525109438-1.472043120305898-.502366125399931-3.172683459702967.700155808830459-3.806552538550022,2.796749204469961-1.467646191900712,5.682483097551085-2.728404040321038,8.70518823384009-3.678306779165723,3.866276511958858-1.228918514880206,7.797348556719953-2.330753644338984,11.595727178289962-3.758626383074443,4.300958585528861-.96431475742429,9.010936554688669-2.160036332304117,13.39036877494982-2.570780986079626,2.166619456918852.046493429123075,6.282847187509105-1.756196302550961,6.741081743759423,1.482622265197278.059480957870619.903533561086078-.472323642688934,1.639071359964873-1.215461720490566,2.031832036635024-5.25533498295863,3.20150298135195-11.422832155660217,3.727828119772312-17.233040092049123,5.307230597758462.000014718480088.000065544729296.467895755020436-.165307599996595.467895755020436-.165307599996595l-2.589493520339602,1.332641391469224c-5.295377925740468,2.93950671321727-10.362576551851816,6.493819646762859-16.130014084481445,8.453564748720964-.63895758318904.281366869534395-1.164768720549546.005773739376309-1.810281591770035-.49875376037744-1.021961992850265-.779105496512784-2.484772866999265-2.637466086896893-2.62212648555942-4.129562992537103h0Z"/>
          <path class="cls-3" d="M14.017347552770843,56.509660375842941c.267453329259297-4.407543229641306,2.553952088848746-3.722112928619026,4.170356918539255-4.726848099362542,5.285828130379741-2.194019927061163,10.624460380009623-4.25176359253237,16.029829559569407-6.139105892674706,3.419602993941226-.883407803547016,9.069517734811598-2.362503870230285,11.436481257341256-2.700985006700648,2.342076802459815-.741002667949942,4.717023416688789-1.403144405412604,7.1226427731699-1.991931224900327,1.289228912350154-.315653352787194,2.590304968538476.473642318818747,2.905958321329308,1.762871231174358.254470157931792,1.040114312603691-.213248588979695,2.089073410665151-1.079226116209611,2.62097771079425-5.166662045330668,3.503638931626483-12.952362276879285,6.330884273575066-17.666924864557586,8.003821857557341-5.138095051392156,2.284032811607176-10.343156708542665,4.3984861453755-15.600334618182387,6.386824373872514-1.865851275410023.375520238132594-3.061601354240338,2.441386230058015-6.2763968634099-.585883598323562-.745558613220055-.702064989283826-1.095130501091262-1.681482975945983-1.042386367589643-2.629741351436678h0Z"/>
          <path class="cls-3" d="M20.622049094340582,64.261100524494395c-.346001515750686-2.289014249032334.04641483747946-2.986129404249368.614753162139095-3.315820811028971,3.742823441792098-2.724908293577755,8.422830590019657-3.638904624313,12.567616130700117-5.586065525512822,2.533612047180213-1.063524168592267,8.479689272009637-3.483662934289896,10.905420932520428-4.588103790083551,2.131588513770112-.740814766610129,5.219369251579337-3.447335702159762,6.820804577650051-.55527666144917,1.271550134029894,2.892118640505942-2.543033565789301,3.883868128068571-4.266904627620534,5.297739527373778-1.933413506189027,1.241029713848548-4.681112241469236,3.226769820441405-6.601988645548772,4.561260081940418-3.263901983871619,2.423442884264659-7.117487605111819,3.767534060913022-10.028107552899201,6.709041602989601-1.539180484712233,1.396121220790519-3.204254442692218,2.517358275916195-5.216113390240025,2.998290226500103-.611978207201901.264398780367628-1.500676284251313-.047603055484615-3.595673266831-2.959322659091413-.583759715451379-.744028045475716-1.086525610200624-1.648148286090873-1.19980731987016-2.561741991637973h0Z"/>
        </g>
      </g>
    </g>
  </g>
</svg>