<?xml version="1.0" encoding="UTF-8"?>
<svg xmlns="http://www.w3.org/2000/svg" width="192.665140022942069" height="209.782845263885974" xmlns:xlink="http://www.w3.org/1999/xlink" viewBox="0 0 192.665140022942069 209.782845263885974">
  <defs>
    <style>
      .cls-1 {
        fill: #151c22;
      }

      .cls-1, .cls-2, .cls-3, .cls-4, .cls-5, .cls-6, .cls-7, .cls-8, .cls-9, .cls-10, .cls-11, .cls-12, .cls-13, .cls-14, .cls-15 {
        stroke-width: 0px;
      }

      .cls-16 {
        clip-path: url(#clippath);
      }

      .cls-2, .cls-17 {
        fill: none;
      }

      .cls-3 {
        fill: url(#linear-gradient);
      }

      .cls-4 {
        fill: #98623d;
      }

      .cls-5 {
        fill: #331b17;
      }

      .cls-6 {
        fill: #d6e03f;
      }

      .cls-7 {
        fill: url(#radial-gradient-2);
      }

      .cls-7, .cls-17, .cls-10, .cls-11, .cls-18 {
        mix-blend-mode: multiply;
      }

      .cls-7, .cls-11 {
        opacity: .2;
      }

      .cls-19 {
        clip-path: url(#clippath-1);
      }

      .cls-8 {
        fill: #7e4532;
      }

      .cls-17 {
        stroke: #f1b068;
        stroke-miterlimit: 10;
        stroke-width: .539575090489626px;
      }

      .cls-17, .cls-10, .cls-18 {
        opacity: .6;
      }

      .cls-9 {
        fill: #505050;
      }

      .cls-10, .cls-15 {
        fill: #f1b068;
      }

      .cls-11 {
        fill: url(#radial-gradient);
      }

      .cls-12 {
        fill: #3e3838;
      }

      .cls-20 {
        isolation: isolate;
      }

      .cls-13 {
        fill: #473f3f;
      }

      .cls-14 {
        fill: #fff;
      }
    </style>
    <clipPath id="clippath">
      <path class="cls-2" d="M126.842918152502534,69.47612952943382c-.22824178367955.376756260426191-4.155827937189315,6.609263550053583-11.634313815480709,6.686276464966795-6.918523841859496.071250721182878-10.889699229010148-5.187356717917282-11.26564195085848-5.703642249005497.753749699839318-.829330662392749,4.602897379048954-4.892213257804542,10.991247129779367-5.266942100744927,6.712121993470646-.39371118395502,11.150273079900217,3.581870940466615,11.908708636559822,4.28430788478363Z"/>
    </clipPath>
    <clipPath id="clippath-1">
      <path class="cls-2" d="M63.585486833511823,69.645818430813961c.234503588781081.372890947110136,4.265654739710953,6.538918883048609,11.744383591620135,6.490994143881835,6.918748693560701-.044332052792015,10.801525766009945-5.368543577493256,11.168791563430204-5.891037131306803-.767498360750324-.816623673330469-4.683978749550079-4.814639957014151-11.077696883528915-5.08260015320775-6.717762295931607-.281531325075775-11.0888826401806,3.767634666834056-11.835478271521424,4.482643140632717Z"/>
    </clipPath>
    <linearGradient id="linear-gradient" x1="94.216519091747614" y1="11.171873732539098" x2="94.216519091753852" y2="71.786024615890966" gradientUnits="userSpaceOnUse">
      <stop offset=".549802216772597" stop-color="#3e3838"/>
      <stop offset=".732187145549786" stop-color="rgba(83, 74, 74, .835460847706457)" stop-opacity=".835460847706457"/>
      <stop offset=".805427186426227" stop-color="#665b5b" stop-opacity=".68831440492205"/>
      <stop offset=".865472203636714" stop-color="rgba(113, 105, 105, .550907421016946)" stop-opacity=".550907421016946"/>
      <stop offset=".975901267791298" stop-color="rgba(145, 143, 143, .188765216232521)" stop-opacity=".188765216232521"/>
      <stop offset="1" stop-color="#999" stop-opacity=".100000001490116"/>
    </linearGradient>
    <radialGradient id="radial-gradient" cx="27.53311564008618" cy="84.777177415679034" fx="27.53311564008618" fy="84.777177415679034" r="17.129250662055853" gradientTransform="translate(98.933803205310141 30.055409764565866) scale(.853091239733539 .645477583935139)" gradientUnits="userSpaceOnUse">
      <stop offset=".537641841231661" stop-color="#e984a2"/>
      <stop offset=".592832570610897" stop-color="rgba(233, 132, 162, .886871293855677)" stop-opacity=".886871293855677"/>
      <stop offset=".711273432585101" stop-color="rgba(233, 132, 162, .596518194573597)" stop-opacity=".596518194573597"/>
      <stop offset=".8824215114979" stop-color="rgba(233, 132, 162, .136328760171738)" stop-opacity=".136328760171738"/>
      <stop offset=".931113028771807" stop-color="#e984a2" stop-opacity="0"/>
    </radialGradient>
    <radialGradient id="radial-gradient-2" cx="-37.904644191730767" fx="-37.904644191730767" xlink:href="#radial-gradient"/>
  </defs>
  <g class="cls-20">
    <g id="Layer_2" data-name="Layer 2">
      <g id="Layer_1-2" data-name="Layer 1">
        <g>
          <path class="cls-6" d="M123.63880628525294,128.94824004142356c-21.922177262211335-4.553557561070193-40.236742857619902-1.999686473354814-53.735504121430495,0-8.248121656810326,1.221868109885691-13.579497581340547,2.534930230609461-20.736655121359945,4.297673163386207-26.876271789869861,6.619354207472497-35.935559419549463,6.332901167821547-42.565444451060102,14.230726664321992-3.883241359530075,4.625883845525095-4.522696396210449,10.139794053175137-5.801606469569379,21.167614468471584-1.828121798600478,15.764058520926483-.283308418591332,29.795284574542166,2.232242170579411,41.138590926282632,55.489251975359366-9.850562046074629,134.144049755190281-19.701197222875635,189.633301730529638-29.551759268942988-.441928955469848-11.718101304046286-2.197797600339982-19.55742222263143-4.545513181599745-24.817349431381444-2.251329289139903-5.04397218548911-6.128647060158983-7.639381523527845-8.096156015650195-9.340255865154177-2.806537733618825-2.426184846397518-20.88818197818-7.814602734404616-37.736915373769079-11.764539312767738-8.198392765571043-1.921948515438999-12.354046066049705-4.05341655056327-18.64774916667011-5.360701344216068Z"/>
          <path class="cls-9" d="M69.933285719913329,129.889066785119212c3.126923428450027-.965837450759864,5.902526866490007-1.647708306431014,8.190933431889789-2.136952839300648,8.059590654449494-1.723106081233709,22.795943133460241-4.784723774580925,39.062848501620465-.034298308808502,2.852390696558359.832958928160224,5.164052831678418,1.733783166702779,6.760496501708985,2.410461741088511-.066548957380292.425182020044303-.132951653320561.850437170807709-.199500610709947,1.275619190852012-2.4061470284596,2.092562490804994-12.007333311150433,9.948484083372023-26.566928834119608,10.02724587139528-14.837638529530523.080297533197154-24.644760926499657-7.971541264683765-27.008711528140338-10.02724587139528-.079712487420693-.504967638182279-.159424974839567-1.009862145645457-.239137462249346-1.514829783831374Z"/>
          <path class="cls-4" d="M131.82745679087202,95.034458137346519c6.407660452061464,1.552156112877128,13.001941538790561-3.715815800562268,14.607985848790122-11.669905070968525,1.606044309990466-7.954089270406257-2.345067262889643-15.776619584848959-8.752727714940193-17.328775697715173-1.951791429250079,9.666202922369848-3.903466704588936,19.332477846310212-5.855258133849929,28.998680768683698Z"/>
          <path class="cls-17" d="M144.835202240383296,78.610981974401511c-.123856482819974-.83578242180738-.427200411430022-2.130929388364166-1.220730597591682-2.530869165646436-1.706624873668261-.860172084587248-4.716111509729672,2.906220568638673-5.787371066899141,6.907490931684151-.415455340289554,1.551891394232371-.907933498909188,4.515546913640719-.0167385293189,5.581627497114823.880422706148238,1.053204054031085,2.759726327369208-.1661140196411,3.643486638238755-2.448792900420813.651099668941242-1.681758616221487.861746619100813-4.199057118141354.138952333820271-4.642710522857669-.44278316774944-.271764804616396-1.209646560990222.25063463216793-1.760766583629447,1.312831568146066-.639423952859943,1.232247781896149-.64540757082068,2.529820371859387-.644720364191016,2.657935840536084"/>
          <path class="cls-4" d="M57.841326305882831,95.034458137346519c-6.407660452059645,1.552156112877128-13.001941538799656-3.715815800562268-14.607985848790122-11.669905070968525s2.345067262880548-15.776619584848959,8.752727714940193-17.328775697715173c1.951791429250079,9.666202922369848,3.903466704579841,19.332477846310212,5.855258133849929,28.998680768683698Z"/>
          <path class="cls-17" d="M44.83358085636246,78.610981974401511c.123856482819974-.83578242180738.427200411430022-2.130929388364166,1.220730597589863-2.530869165646436,1.706624873680994-.860172084587248,4.716111509729672,2.906220568638673,5.787371066910055,6.907490931684151.415455340280459,1.551891394232371.907933498900093,4.515546913640719.016738529309805,5.581627497114823-.880422706139143,1.053204054031085-2.759726327360113-.1661140196411-3.643486638240574-2.448792900420813-.651099668928509-1.681758616221487-.861746619098994-4.199057118141354-.138952333818452-4.642710522857669.442783167760354-.271764804616396,1.209646560990222.25063463216793,1.760766583640361,1.312831568146066.639423952859943,1.232247781896149.645407570809766,2.529820371859387.644720364180102,2.657935840536084"/>
          <path class="cls-4" d="M74.459199867913412,114.271123447553691c.118471770289034,2.071427712031436.835006588378747,16.057897763534129-3.189084542500495,17.141110023749206-.317387335220701.085416683767107-.680115718339948.094850546956877-1.097692143250242-.008336902352312,2.363950601640681,2.055704606711515,12.171146129328918,10.107470273869694,27.008711528140338,10.02724587139528,14.559595522969175-.078761788023257,24.160781805660008-7.934683380590286,26.567075095568725-10.02724587139528-.296325687169883.124980404587404-.730429655348416.252666645897989-1.214262514758957.167761877186422-2.489077267669927-.436590412733494-3.40701409526082-5.989844949035614-3.82693070328969-8.530625637438789-.343568133839653-2.078813914995408-.639747559571333-5.141016654124542-.239137462251165-8.929334335982276-14.669584129458599.053166035188042-29.339095128199915.106258939653344-44.008679257658514.159424974837748Z"/>
          <path class="cls-10" d="M85.936116049482735,133.092631210653053c8.421002684559426,2.587950004352024,20.806714353419011-1.932918123802665,32.511725258149454-12.011136108714709-.193065107139773-1.881946010285901-.26941358132899-4.232733081888.020037817939738-6.969796629222401-14.669584129458599.053166035188042-29.339095128199915.106258939653344-44.008679257658514.159424974837748.069839839889028,1.220551756887289.346347101289211,6.576938388479903-.260711025370256,10.993814629382541,3.107031871968502,5.166758668408875,8.966923527299514,6.976232132794394,11.737627206939578,7.827693133716821Z"/>
          <path class="cls-4" d="M139.669968345133384,42.89062267807094c-2.179931640630457-15.80792236328125-20.563110351569776-34.9405517578125-43.801391601569776-35.5120849609375-26.141540527340112-.6429443359375-45.491943359371362,22.5191650390625-47.062744140621362,39.042724609375-.275207519529431,2.89501953125-.068603515628638,6.31817626953125.173583984371362,10.33056640625.161499023439319,2.6756591796875.761657714849207,11.14459228515625,5.362243652349207,29.19525146484375,4.7646484375,18.69439697265625,7.463928222650793,22.31695556640625,9.832885742189319,24.98077392578125,2.25811767578125,2.5391845703125,4.431884765621362,4.039306640625,7.281616210930224,6.00604248046875,6.696716308601026,4.62158203125,12.713073730470569,6.5772705078125,15.945251464851026,7.60052490234375,3.754516601558862,1.18865966796875,5.676635742180224,1.79931640625,8.55712890625,1.86029052734375,5.030395507808862.10650634765625,8.867065429680224-1.48345947265625,10.789672851558862-2.4449462890625,11.684448242191138-5.32305908203125,17.64892578125-11.76043701171875,20.622436523441138-15.7325439453125.33251953125-.4442138671875.843994140619543-1.0614013671875,1.410034179680224-1.99676513671875,3.907104492189319-6.45648193359375,5.801025390628638-12.34881591796875,7.412963867189319-21.38958740234375,2.392944335939319-13.42059326171875,2.994140625-23.53570556640625,3.1474609375-26.34991455078125.468017578130457-8.589599609375.702026367189319-12.88446044921875.328857421880457-15.59033203125Z"/>
          <g class="cls-18">
            <path class="cls-15" d="M104.484694999482599,86.023455864695279c-1.946206037750017,10.806044027296593-16.643991595949046,11.343565041326656-18.111902606720832-.000052857476476,3.19402917403022,1.502481867564711,5.778091510501326,3.322759590628266,8.946129415711766,3.333001329458057,3.142143406319519-.023357222353297,6.001194781189042-1.891861516414792,9.165773191009066-3.332948471981581h0Z"/>
          </g>
          <g>
            <path class="cls-14" d="M109.743510110962234,102.929399334934715c-5.564331054680224.330322265625-12.155517578119543.25836181640625-19.473388671869543-.74627685546875-3.841430664060681-.52734375-7.384887695310681-1.24334716796875-10.6025390625-2.04840087890625.657104492189319,1.62548828125,2.992919921869543,6.80279541015625,8.4716796875,9.232177734375,6.818725585939319,3.0235595703125,15.734619140619543.56158447265625,21.604248046869543-6.4375Z"/>
            <path class="cls-8" d="M109.233230155732599,103.184222466257779c-.271682108890673.15864048543699-.354982252549235.40277005700591-.468020574709954.419130188809504-.196637732340605.032594753321973-.670373564360489.055226697866601-.887802654300685.077888091553177-9.546446037818896.692926668594737-19.184981148719089-.187741920170083-28.477790820859809-2.475017531472986-.000004114199328.000032942514736,1.292110143631362-1.485379655139695,1.292110143631362-1.485379655139695,4.779765654599032,11.946429837558753,18.293889355369174,12.659050234075039,26.987741394879777,4.398817935909392.147204078579307-.134370102705361.516967839559584-.502227820010376.675288064889173-.595299127406179.179601839610768-.089937214663223.560599582879149-.153554281916513.878474446470136-.340139902253213h0ZM110.302077811982599,102.677691704539029c-.303917618039122.804985669961752-.949545962499542,1.831606451987682-1.653627154919377,2.432943359206547-1.672266615310946,1.705278963243472-3.597637135770128,3.169790129020839-5.73282691707027,4.26538761953816-10.805873241801237,5.517852166854937-21.444285633469917.54608933480813-25.079954528820963-10.860605635745742-.000144133558933.000104246844785,2.100075592999929.547772703876035,2.100075592999929.547772703876035,9.089014151670199,2.320319726561138,18.507367546450041,3.376791514601791,27.888302056649991,3.301408060533504.741139443880456-.04062091392916,1.865870609870399-.003232133847632,2.47803095116069.313093892591496h0Z"/>
          </g>
          <path class="cls-14" d="M126.842918152502534,69.47612952943382c-.22824178367955.376756260426191-4.155827937189315,6.609263550053583-11.634313815480709,6.686276464966795-6.918523841859496.071250721182878-10.889699229010148-5.187356717917282-11.26564195085848-5.703642249005497.753749699839318-.829330662392749,4.602897379048954-4.892213257804542,10.991247129779367-5.266942100744927,6.712121993470646-.39371118395502,11.150273079900217,3.581870940466615,11.908708636559822,4.28430788478363Z"/>
          <path class="cls-14" d="M63.585486833511823,69.645818430813961c.234503588781081.372890947110136,4.265654739710953,6.538918883048609,11.744383591620135,6.490994143881835,6.918748693560701-.044332052792015,10.801525766009945-5.368543577493256,11.168791563430204-5.891037131306803-.767498360750324-.816623673330469-4.683978749550079-4.814639957014151-11.077696883528915-5.08260015320775-6.717762295931607-.281531325075775-11.0888826401806,3.767634666834056-11.835478271521424,4.482643140632717Z"/>
          <g class="cls-16">
            <circle class="cls-1" cx="115.124573425372546" cy="69.759169442515486" r="5.689869061653637"/>
          </g>
          <g class="cls-19">
            <circle class="cls-1" cx="75.623962413482332" cy="69.428438271227606" r="5.689869061652625"/>
          </g>
          <path class="cls-5" d="M103.851272147921918,70.377887017039029c5.643863146431613-7.325667549035643,16.963186057821076-8.05885065172879,23.338752067840687-1.261452158099928-.000006950649549-.000205556743822-.694220817840687.719643076068678-.694220817840687.719643076068678-4.636449645850007-4.149613978703201-11.563219593348549-5.512654614791245-17.26429618156908-2.812986953238578-1.900376669989782.847288711051078-3.665757529370239,2.052916152457328-5.196885459059558,3.516600234488578l-.183349609371362-.16180419921875h0Z"/>
          <path class="cls-5" d="M86.408278983863056,70.328204399851529c-6.263976433630887-6.052826453144007-16.083668638160816-6.314355997685198-22.469721475199549-.328057145825369-.000005087300451-.000250959643381-.706059774800451-.708380842455881-.706059774800451-.708380842455881,4.507065175848766-4.97272410719961,12.387940722928761-6.407048374521764,18.299942376179388-3.191718540500005,1.950667975379474,1.004584751437505,3.688460944129474,2.386420688937505,5.056502936320612,4.063361606906255l-.1806640625.164794921875h0Z"/>
          <g class="cls-18">
            <path class="cls-15" d="M94.543288749482599,66.944049126414029c1.114647156080537,4.17844208558563.686705539539616,8.814289495525372-1.197539702099675,12.709055323037319.541857427069772-4.309658134479832.927000005969603-8.373868921800749,1.197539702099675-12.709055323037319h0Z"/>
          </g>
          <path class="cls-3" d="M63.352890708412815,38.38598400619594c7.563415527340112-2.20623779296875,18.405578613279431-4.48712158203125,31.539733886720569-4.3916015625,12.3681640625.0899658203125,22.626098632808862,2.25714111328125,29.94287109375,4.3916015625.8427734375,4.34722900390625,1.685668945308862,8.69451904296875,2.528442382808862,13.041748046875,2.04052734375,1.6856689453125,4.081176757810681,3.371337890625,6.121704101560681,5.0570068359375-.044311523439319,8.38397216796875-.088745117189319,16.76800537109375-.133056640619543,25.1519775390625,1.796508789058862-5.08660888671875,3.593139648430224-10.17315673828125,5.3896484375-15.259765625.265502929680224-2.91363525390625.609252929680224-7.21630859375.843383789058862-12.455078125.092041015621362-2.05902099609375.303344726560681-6.78607177734375.243408203121362-8.948486328125-.29345703125-10.5943603515625-8.75439453125-19.49896240234375-11.533447265621362-22.423828125-2.539794921878638-2.6729736328125-13.584228515628638-13.89837646484375-31.007446289058862-14.90484619140625-25.628173828130457-1.48040771484375-41.860046386720569,21.89373779296875-44.98077392578125,27.81353759765625-2.354858398439319,4.4669189453125-3.190185546878638,8.650634765625-3.190185546878638,8.6507568359375-.784240722659888,3.9278564453125-.565002441409888,7.0738525390625-.137756347659888,12.642822265625.193176269538526,2.51788330078125.545776367189319,5.95135498046875,1.243041992189319,10.02435302734375,1.404724121099207,4.9534912109375,2.809448242189319,9.90704345703125,4.214172363279431,14.86053466796875.310485839851026-8.960693359375.621032714851026-17.92132568359375.931518554691138-26.88201904296875,1.929809570308862-1.59576416015625,3.85955810546875-3.19146728515625,5.789367675779431-4.7872314453125.731811523439319-3.8604736328125,1.463562011720569-7.72100830078125,2.195373535159888-11.58148193359375Z"/>
          <path class="cls-12" d="M48.510517464683289,46.881122258402684c.187433207749564-.174960858443228.821105876379079-.688643686782598,1.054322675188814-.900649463203081.19542491502034-.177651057096227.067609108471515-.747158438951374.294851631761048-.948198976902859.202030461599861-.178735529319965.269261475170424-.543850248295712.496216297338833-.739288080929327.207112177080489-.178350715863417.446251239911362-.348686465969877.67395158060026-.539608499502719.211308389711121-.177177721136104,1.002990453720486.329614062718974,1.231896001840141.142669981962172.214935136849817-.175534633868665-.030017474160559-.935267361959632.20032259987056-1.118540320989268.218167609889861-.173587785788186.506431923729906-.276613681333401.738326434469855-.456405641773017.22111438813954-.171433938641712.892912425459144.236998664759085,1.126426876529877.060561472913832.223845379090562-.169131503060271.340027092059245-.484857615023429.575196402909569-.658026592913302.226408066801014-.166717559237441.062728533130212-.88033676203122.299569730350413-1.050297935596973.22883587384058-.16421642066598.537552604590019-.231089269698714.776071725189468-.397884799356689.231152991640556-.161644423209509.946413857740481.373469797852522,1.186609879950993.209811098178761.23337731986976-.159012744465144.399716825289943-.413816621916339.641583986689511-.574357168190545.235522333459812-.156329134777479.384039399459652-.444046187189088.627568600770246-.601479318180282.23759831192001-.153599017943634.321710646248903-.550904213157992.566890317839352-.705234296980052.239613173649559-.150826212202446.333673686051043-.545334072197875.580490329150052-.696560266482265.241573057650385-.148013414696834.605592419060486-.103238919698924.854030945589329-.25135605671494.243482738331295-.145162534239716.746045959480398.149415770916676.9960899045509.004416488818606.245345927709423-.142274924408412.271720149290559-.667226345378367.523351802370598-.8090959058718.247169753409253-.139353947934069.594055350358758-.101742255741556.84726029534977-.240469996848333.247459292619169-.135579771882476.546569618620197-.173734483707449.799765616578952-.308496136165559.249376938420028-.132728986933216.248577312420821-.746070469489496.503492844740322-.877796448659865.251245347561053-.129829434550629.644938377419749.013529256153561.901538754140347-.115125446882303.253065773040362-.126882517846752.587581666790356-.08865010802765.845831765309413-.214197865838287.254839174451263-.12388954403832.189251365010932-.925059831153703.449115583120147-1.047465039702729.25656626070122-.120851754334581.591612235461071-.088678876018093.853054443399742-.207906116593222.258248912839917-.117770980827117.731169371540091.236818256866172.99415430316003.120803492201958.259884411711027-.11464698254531.327770682129994-.677758918398467.59225931102992-.790525724938561.26147457324987-.111481740215822.76937355768132.361660425773152,1.035327928120751.252175766785513.263019400410485-.108276428443787.467190666080569-.357560233840559.734572115099581-.463729153832901.264518773890813-.10503224005879.561368772710921-.123378552965733.830137892820858-.22619883520747.265972467130268-.101750395015188.275033883699507-.895645868180509.545150488309446-.995085398837546.267380158929882-.098432147662606.590770755210542-.060611507822614.862193846409355-.156639048058423.268741443880572-.095078792677668.590104981520199-.052245983690227.862792719710342-.144831257839542.270055840659552-.091691669784268.70751631982057.319514144368441.981425994530582.230400362446744.269818126240352-.087782637418059.307886596319804-.90931920985895.581428323710497-.994473627084517.271199106919084-.084425151961113.540635088609633-.198088638144327.815478789689223-.279807250848535.272529516290888-.08103054174353.776642697259376.629304647052777,1.052740578499652.5510553077238.273808891040972-.077600612976312.349695703031102-.875737461194149.626999298330702-.950485715120521.275036681559868-.074137198582321.766414964820797.673148906547794,1.044875067340399.601931848434106.276214700459605-.070642789383783.494770484388937-.358656151329342.77433958426991-.426314225596798.277336470189766-.067117759095709.485131471548812-.429825322329634.765755279249788-.493897022735837.278404526989107-.063564996822606.501852464729382-.392400916107363.783479163179436-.452861583331469.279417770680084-.059986446391122.656964872070603.340154091105433.939541402609393.283327242954329.280374864250916-.056384087543847.610812200780856.157530912229049.894284033771328.104358744913043.279852995729016-.052493364704787.405910503450286-.963610425656952.688769590939046-1.01287557476644.280988514699857-.048939354213871.692728889691352.670129793026717.976671839580376.624471652256034.282064695829831-.045356116759649.565445747170088-.061544798565592.850414129090495-.103569298102229.283078118300182-.041745740953047.57104111686931-.022156822746183.85697296852959-.060523179534357.284023629070361-.038110311343189.481587558029787-.757050956419334.768415628499497-.791736844119441.284892950920039-.034451875251762.661276252620155.734942198421777.94892482979958.703956885088701.28452402171024-.030648738298623.4727227145504-1.01966263308168.759932055831086-1.04683418643981.285847981540428-.027042761381381.612853130800431.365878012711619.901350454480053.342363604240745.285875972269423-.02330075127793.540743959780229-.520440612928724.829211029889848-.540194876193709s.595372259240321.15475757765671.8864201562792.138631390955197c.28845168898988-.015982343182259.611069528720691.705905372447887.897494911470858.693743050764169.288593997560383-.012254406368811.542366126710476-.978086375642306.828888382040532-.986535487007131.288689764938681-.008513027969457.590634307618529.440548946202398.877205895760198.435824548971141.288738522578569-.004760121146319.577989531049752.199686051404569.864562408969505.198695916455108.288739875870306-.000997622120849.575603816268995-.110188289936559.862129508210273-.107436592745216.288696749739756.00277254730463.571573814229851.196872105347211.858006676489822.203371324214459.288602214839557.006548441911946.585459451120187-.328195573227276.871746967990475-.317945302616863.288459550809421.010328038360967.558529016709144.407354840774133.844621849129908.421357717097635.288268669130048.014109373127212.561037802119245.204819224893072.846886466828437.222574254801657.288029558039852.017890492592414.567774013230519.054873275945283.853328953920936.07637801020428.287742281800092.021669459789337.566461931539379.065140857290316.851673588789708.090390864857909.288714797059583.025560143230905.59698452136945-.213700315522146.88308756853985-.184563522932876.288282426099613.029358740983298.628087108170803-.422295591752118.913698793199728-.389400244401259.287803063580213.033147739541164.532964093070404.417948081671057.818035784281165.454589970220695.287277081110005.036925359878296.5747684054204.057338988021002.859251743058849.097713569926782.286706962890094.040690164323678.545758949219817.247192909477235.829607907149693.291284887536676.286088941731578.044439928311476.655595080201238-.429771297685875.93875982793179-.381979612036957.285425767910056.048173293767832.531506499130046.32797064168517.813939781128283.379442968729563.284718034730759.051888714020606.459578531161242.663754412800699.741233538810775.718886688069688.283966381270147.055584712767086.544056222170184.187912383222283.824886624450301.246682347726164.283218764880075.059269782130286.730450166140145-.657316368093234,1.010456336809511-.594921547821286.282377420100602.062923214632974.601618480441175-.023087895511708.8807050252708.04289594878901.2814944233196.066553133943671.497035889899053.411584485013009.775158153730445.481130667456455.280570554788937.070158392652957.620493654838356-.085194432072967.897607521248574-.012113888131353.279606618010803.073737933063967.623145594070593-.072302561669858.899207482019847.004283147041861.278603434961042.077290790384723.550723675711197.197375661708065.825690528039559.277436189329819.277561841621718.080816095833143.519992825771624.294506235393783.793822089090099.378010157610333.276482683460927.0843130796693.320458820371641.909123969646316.593108415730967.996038853476421.275366811030835.087781074305894.824773428819753-.66849297661247,1.096201712440234-.578200504540291.274215075809479.091219517520585.379145864859311.685188424675289.649311578090419.778824237308072.273028326279018.094627955922988.447701033270278.456253039212243.716563240739561.553197133524009.271807404340507.098006048852767.573965703979411.099289855585084.841483718950258.199506420840407.270553142019708.101353572832522.520616695350327.243606441530574.786749990478711.347058969759019.269266358951427.104670426850134.618121299641643-.001217637121954.882829401720301.105433697668559.267947860231288.10795663873796.484454547540736.333637580188224.747696913729669.443449958358542.266613289881207.111218569552875.70778806242015-.191624446975766.969538246779848-.078682978908546.265231628980473.114443661723271.590548464351741.098106964191174.850748974500675.214131728498614.263820711339577.117639030899227.169076604461225,1.021862884532311.4276858502908,1.140931493164317.262381283679133.120805326505433.669647685948803-.08017376891803.926623257639221.041898688468791.260914088999925.123943391976354.40845477556104.472423903673189.663753168160838.597459643136972.259571621829309.127128609583451.424197745080164.428750245655465.677918924910045.556783386455209.258245577530033.130316248774761.720166062088538-.150032004330569.972303071008355-.019015476809727.258467313520669.134305907879025.611524971631297.084679923731528.863522024341364.219467525257642.256762342260117.137336448589849.297995900958995.664209928667333.547986734200094.801776768999844.255027486658946.140338447943577.468358256570355.341190680095679.71628109213998.481482745615722.253263114129368.143313968321308.752968845768919-.152074967158114.998756648039489-.009114238657276.251469754170103.146265595441946.623233451709893.087750648928704.866812686279445.233320261548215.249752588060801.149258977502541.03486799608072,1.056909834578619.276254402630002,1.205085821367902.247878902131561.152161430514752.460824358369791.340821029732979.699804550800764.491460315637596.245983023029112.155053465132369.691179297400595-.018057962004605.927651200139735.134968806149118.24426676316034.158071013518565.785369161279959-.143184592887337,1.019395837400225.012268358510482.243126511319133.161497545383099.296447253009319.599914215310491.528419431549992.758076787989921.241859882720746.164904177388962.267079447119613.629740360391224.496697959390076.790442918128974.240454849159505.168286558859108.797061298200788-.122082606314507,1.023959321410075.040936031360616.238901643750069.1716428373893.322652582610317.545336527919062.546370479480174.710370542139572.237215393619408.174990955989415.725117356369083.003561789757441.945077928889077.170209047908429.237559343340763.179980497241559.419014390819939.422820080022575.636218074751014.591927902838506.237041198470251.184552675484156.320659019538653.545952475147715.533159976259412.716080838183188.236764340530499.189553639193036.686468835940104.094874830378103.892362816050081.264502161153359.240525956189231.198159149233106.109229947509448.805520379750305.306993809879714.973336191269482.248531237470161.210895311223794.378123749880615.161763345462532.557904034871171.318688312638187-.034165602470239-.281887054443359-.141111097491375-.371192477132354-.175276352691071-.653079531575713s.676943025140645-.65410209869151.642778089420972-.935989153134869c-.034164935710578-.281887054443359-1.06616568185018-.442836067468306-1.100330325860341-.724723121911666-.034164644021075-.281887054443359.376599668528797-.617699391068527.342435288430352-.899586445511886-.03416438009117-.281887054443359-.429011050051486-.520060163496964-.463175194001451-.801947217940324s.769043624630285-.665261511207063.734879689031004-.947148565650423c-.034163935590186-.281887054443359-.831285455809848-.471305957691584-.865449210819861-.753193012134943-.034163755020927-.281887054443359.381942126208742-.618345180373581.347778523979287-.90023223481694-.03416360222036-.281887054443359-.290826997550539-.536808029182794-.324990474759034-.818695083626153-.034163477210313-.281887054443359-.326619204901363-.532470333810124-.360782584870321-.814357388253484-.034163379979873-.281887054443359.538234001949604-.63728633361643.504070691429661-.919173388059789s-.692500560830013-.488127370777875-.726663829680547-.770014425221234.813467788169874-.670643025914615.779304533210961-.952530080357974c-.034163254960731-.281887054443359-.948989046821225-.457042357233149-.98315231566994-.738929411676509-.034163268850534-.281887054443359.541523375899487-.637684844701653.507360065379544-.919571899145012s.165243417999591-.59208175645108.131080038030632-.873968810894439c-.034163379979873-.281887054443359-.97975937523006-.453312638303032-1.013922852431278-.735199692746392-.034163477208494-.281887054443359.924487199650684-.684099130297909.890323597430324-.965986184741269-.034163602229455-.281887054443359-1.038824254490464-.446153448989207-1.072988009509572-.728040503432567-.034163755020927-.281887054443359.250125568520161-.602369499954875.215961632919061-.884256554398235-.034163935588367-.281887054443359.495543390881721-.632114093321434.461379246929937-.914001147764793-.03416414395906-.281887054443359-.239615461568974-.543014729622882-.273779841660144-.824901784066242-.034164380089351-.281887054443359-.848192230978384-.469255168321979-.882356874999459-.751142222765338-.034164644010161-.281887054443359.33946306252983-.613198386214208.305298126821071-.895085440657567-.034164935721492-.281887054443359.563695080629259-.640376701392597.529529825429563-.922263755835957s-.454941571801101-.545162181131673-.489107174260425-.827049235575032c-.072441062009602-.103998704846163-.019148912109813-.5964728923027-.282044594809122-.943328948958879-.145511119781077-.191982662814553-.391494051940754-.37544572483057-.594525179150878-.63119422136333-.160490372709319-.202161964489278-1.048578634190562.152019979941542-1.2446805704094-.085746689223015-.16922725195036-.205182063988104.018522706668591-.728034248921176-.177022348980245-.957134461563328-.175446029650629-.205552232273476-.646790375511046-.168595356391961-.843279316341068-.391564765142903-.180787700368455-.20515213980616-.230031012379186-.536911034905643-.42852318300902-.755396000820838-.18489310105906-.203516152569136-.152240638670264-.61910045094919-.352407224630952-.833051167810481-.188664772809716-.201656850949803-.320634966119542-.470789679407972-.522795020850026-.680772668996724-.19219598672862-.199633344655012-.301100136919558-.495074219175876-.505431112738734-.701425823808677-.195545581549595-.197479331605791-.559790287379656-.238050906875287-.766394954411226-.440977964775811-.19875299576961-.19521514815824-.473445907809946-.320445021648993-.682384714809814-.52007551443603-.201845862029586-.192853541571822-.582786230319471-.199813985193032-.794094280628997-.396224834325039-.204845095209748-.190403531860284.040961471890114-.880149761052962-.172736023410835-1.073384009603615-.207763622740458-.187868591809092-.832417463949241.08380453537211-1.048512143570406-.106269632438853-.210613665549317-.185253136629399-.020299824709582-.840238394072003-.238793494718266-1.027151939491887-.213403773310347-.182559320241126-.425931260870129-.380175818638236-.646820725200087-.56391449892908-.216140504860959-.17978843509627-.67717932989035-.070904268928643-.900457670910328-.251443198567358-.218829236700913-.176941462332252-.301842405449861-.532375614800912-.527500157861141-.709681739985172-.221473040968704-.174018070762031-.470901605349354-.322084476445525-.698926084689447-.496117281927582-.224075158450432-.171018605447898-.382344015250055-.440633901504043-.612720827970406-.611347592650418-.226637633139035-.167942886473611-.404390994739515-.41658276322778-.637103772200135-.583926868539493-.229161841598398-.164790622040528-.759874139408566.087546160300917-.994904606259297-.076373965004677-.23164859408098-.161561465103659-.264483670829577-.619345410043024-.501811651560274-.779783856096401-.234098213410107-.158255058970099-.465657533379272-.331970974933938-.705260916469342-.488867257208767-.236510597920642-.154871075083065-.526972423011102-.236822000799293-.76882709640995-.390113299150471-.238841041640626-.151381211122498-.820871371050089.247206179295972-1.064904986131296.09761197057378-.239891868948689-.147055291146899-.152143038478243-.837987532435363-.397034484229152-.983081405664052-.242284023679531-.143549021535364-.742528348220731.153913486043166-.98968844979936.012510751224909-.244631042560286-.139955835174987-.082486833600342-1.010892304591835-.331877612239623-1.148526063772806-.246931708601551-.136276647835984-.769070273610851.223702068675266-1.020651755361541.089914948917794-.249184569749559-.132512479227444-.546690453109477-.173132836338482-.800420528588802-.302996045449618-.251387965759932-.12866447898341-.383043776020713-.499544075992162-.638878072890293-.625406723544074-.253540053179677-.12473394983499-.785104079439407.330390608738526-1.04299584841101.208604316801939-.255638829188683-.12072236817221-.21387850056999-.882556175391073-.473778515679442-1.00019141964367-.257684127709581-.11663229527403-.80184007301068.415887051491154-1.063698583999212.302475348795269-.259669385230154-.112463585792284-.220167088660673-.930438963148845-.483927262890575-1.039554332246553-.261594635570873-.108219503938017-.762002349400063.372975139929622-1.027607131431068.268225904905194-.263458255509249-.103902687722439-.472472975758137-.339631351333082-.739863408398378-.439947091905196-.265256019230947-.099514981695393-.485109341690986-.319733873142468-.754221917641189-.415550508771048-.266986415019346-.095059623114139-.553259461328707-.132601231227454-.824028949058629-.223856248439915-.268646935670404-.090539672486557-.6387615745316.14156748660389-.911120017170106.054933630508458-.270235085121385-.08595844229967-.347939809709715-.791216758983865-.621816558761566-.873173154390315-.271748396198745-.081319495311618-.48926827744981-.371914492736323-.764590042139389-.449140638227618-.273184446499727-.076626640231552-.568069859060415-.102422097645103-.844760769670756-.174868974194396-.273375760998533-.071578860195586-.509408538679054-.32706428596066-.786195991928253-.394418228946961-.274766252241534-.066862100396975-.747517339830665.69844133740844-1.025634659830757.635883905517403-.276075387970195-.062098136424538-.384727520140586-.913013620076526-.664094209760151-.970731920986509-.277301330579576-.057291589280794-.653460001320127.357111763276407-.933993644630391.304270595339403-.278442274879126-.052447238893365-.613572444948659.219671867740544-.895188747879729.171741053745791-.279497956838895-.047570273603924-.440003155850718-.848598587381275-.722617528539558-.891590969371464-.280462892969808-.04266509064837-.671870350139216.672779957336388-.955392576470331.634749558310432-.281337422940851-.03773733930575-.509621450799386-.494875843334739-.79396164948048-.527926299482715-.282119378978678-.032792317817439-.619738919889642.465322769121485-.904804985018927.437264891523228-.282806213579534-.027835449725899-.482757940470037-1.006453741008954-.768455159521181-1.029511868682675-.282189152459978-.022774997696615-.608926354838331.490682143210506-.893927118489955.472681485140129-.282980001409669-.0178730266598-.554787205199318-.309329699421141-.840530464640324-.322384923796562-.283674359357974-.012960699121322-.565448289429696-.31016636260938-.851837598978818-.318270230141934-.284263007559275-.008043700237977-.581224249559455.12949297396699-.868153789950156.126340406477539-.283437684049204-.003114201579592-.570871229079785.734374607602149-.856902964720575.736135786373779-.284489730700443.001751684210831-.562180001659726.121260212996276-.849228071128891.127935427444754-.284037012621411.006605193251744-.590793496679908-.699999287293394-.877327861930098-.688475620436293s-.580403475050844.003713436073667-.869427637901026.020252756059563c-.287515769088714.016453083750093-.597908378409556-.223626724124188-.882395214139251-.202526940785901-.287130334911126.021295846046996-.545617909019711.447777677427439-.829663520100439.473703190715241-.286662049689767.026164321816395-.514629379020334.606796546606347-.798150397329664.637569531045301-.286109810209382.031053968379638-.63056472874996-.465367233429788-.913476689769595-.429729697878429-.285472750800182.035960110235465-.51451744104088.473119069527456-.796735016510866.513633448626933-.284750253298625.040877963361709-.554644442960125.137386116333801-.836081682859003.182784742097283-.283941954859984.045802661195921-.690494836600919-.630851023852301-.971065418010767-.580565713418764-.283047753278879.050729281983877-.430796553499022.818557201675503-.710414034010682.873726621073729-.282067809859655.055652877186731-.571599326498472.045228066206619-.850177399519453.105273984605446-.281002549649202.060568500543013-.501795896720068.354705305058815-.779248646120323.419615086177146-.279852658908567.065471237445308-.680894205439472-.388173702225686-.957136356688352-.318417684477026-.278623659700315.070357390657591-.564764981141707.112239728603527-.839716605370995.186820726024962-.277307204729368.075219951795589-.503350695660629.32843571849844-.776923696210361.407813072677527-.27719029320906.080426913604242-.56627894156918.112756420046935-.839636685319419.19730726893431-.2756410516904.085257086877391-.389062443189687.65797855931487-.660807740050586.747280629970192-.274016436780585.090048422109248-.560181483670021.112166271215756-.830237889849741.206175695326237-.27231855825994.094796902614689-.819196322259813-.584760749914494-1.087489371879201-.486091932281852-.270549681881675.099498728199251-.469773103570333.39612895350183-.736230446331319.499405320400911-.268712209530349.104150332106656-.678406131290103-.134606068124413-.942957648660013-.026777659402796-.266808658559967.108748395667135-.200695484280004,1.01489230144216-.463273383109481,1.127213813595517-.264844517188976.113291091096471-.822420628379405-.44441705909594-1.082962294380195-.327663267451499-.262816424310586.117773155116083-.580286929600334.131249652937186-.838726337829939.252369321953665-.260796942789966.122224546197685-.54557330444004.211812177120009-.801914345020123.337262804567217-.258648920689666.126580079870109-.40841260167872.483725133710323-.662526395070017.613402915254483-.256448667689256.130869300179256-.642303553659076.025749856638868-.8941347794389.159582137177495-.254198947641271.135090574129208-.299283856780676.66488419700363-.548779576251036.802796378109633-.251902491889268.139242557570469-.474909916289107.32991899589797-.722019493108746.471834767184191-.24956198063046.143324194146771-.50546970897085.27518882035838-.7501447044815.421030379719014-.247180025378839.147334713421515-.553004733028502.199359125939736-.795198775858807.349047386051097-.244759152550614.151273628634954-.630299618651406.085516375191219-.869968248071018.238971153621605-.242301788170153.155140734546876-.352622630280166.5194961441739-.589723112369029.676636334357681-.239810243931061.158936105939574-.610511732191299.12976707260168-.845002847201613.290510792727218-.237286704448707.162660097414118-.273696239039054.617635949740361-.505538037959923.781900666246656-.23473321586971.166313345302115-.336448211899551.513596516804682-.56560173906837.681299138650502-.232151675840214.169896772635184-.793515424600628-.102538519822701-1.019942402110246.068518419249813-.229543825051223.173411598421808-.428912280451186.392553914882228-.652574748510233.566881106764413-.226911240481058.176859352846805-.127530995699999.765053356781209-.348390901041057.942566234418337-.224272978339286.180256084511711-.396394925568529.416313820249343-.614430313138655.596941461202732-.221648322140027.183620714031349-.912481909110284-.191342503225314-1.127686538740818-.007655246172362-.219126773728931.187034991220571-.274607957040644.567449740372467-.487056480469619.754218889329422-.216574650559778.190396537080233-.613256014690705.183168332589048-.822893090940852.372934083770815-.213991662349144.193707569669641.150640699581345,1.015058864602906-.056124945858755,1.207732346509147-.212501825970321.198018711640543-.811256550759936-.01820192798732-1.016128856161231.178316832272685-.209578736468757.201033289427869-.190055337689046.634027659412823-.391653199349093.8330538479604-.206631456749164.203995572830536-.275286671520007.536735304774993-.473537190959178.738151715879212-.203659428541869.206911695859162-.376039830151058.432593381703555-.570858505361684.636273669775619-.200814915830051.209949276493717-.280263899549027.52046640061053-.471689564888948.726425118311454-.197751439000058.2127647446232-.596902108160066.227905668765743-.784638000350242.435798164509833-.194783726259629.215697033252582-.914289650609135-.039834415631049-1.098296742289676.169933819057405-.192489767730876.219438492315021.371050211990223,1.084459384881484.190347858129826,1.296630122995339-.19006589105993.223164887091116-1.062984018641146-.136524488776558-1.240015899929858.077695024150671-.187494525849615.226879959194775.035515682518962.780011997918336-.137366542579912.99578656817539-.1847606627598.23060006650303-.530140290129566.321759018512239-.698221254990131.538373126959414-.182572753410568.235290380687729.088978918560315.797895120151225-.073926079970988,1.01502812266699-.181979083208716.242556490524294-.63423697098915.259680313343779-.791689698618939.477300986649425-.180292429149631.249188187550317-.711415437150208.224487833678722-.859574777339731.437601354953586-.183742149751197.264296105046014.31042756487841.942530244014051.176060843239611,1.14512680316875-.217251226469671.327568838609295-.745921715759323.332973781494729-.8342678281806.475704368198421-.021210937498836.281711425781396.547401031930349.61338564556354.526190094429694.895097071344935-.021210937498836.281711425781396-.538261236490143.526089537001099-.559472173988979.807800962782494-.02121093750975.281711425781396-.632547839799372.518990400274561-.653758777300027.800701826055956s-.061890201001006.561957019692272-.083101138499842.843668445473668c-.021210937500655.281711425781396.362541425718518.593913819941008.341330488219683.875625245722404-.021210937500655.281711425781396.521450186539369.605878563394072.500239249040533.887589989175467-.021210937500655.281711425781396-.261227842711378.546948257864642-.282438780210214.828659683644219-.021210937500655.281711425781396.306267927298904.589676810172023.285056989800069.871388235953418-.021210937500655.281711425781396-1.097941196170723.483949461784505-1.119152133671378.7656608875659-.021210937498836.281711425781396.301116603570335.589288950708578.2799056660715.871000376489974-.021210937500655.281711425781396-.347414408610348.540458998588292-.368625346111003.822170424367869-.021210937498836.281711425781396.684622066970405.618164290612185.66341112946975.899875716393581-.021210937498836.281711425781396-.6329030563993.518963654894833-.654113993899955.800675080676228-.021210937498836.281711425781396.724979854239791.621202956126581.703768916740955.902914381907976-.02121093750975.281711425779577-.488560075669739.529831694671884-.509771013170393.81154312045328s-.225275266890094.549655241065921-.246486204390749.831366666847316c-.021210937498836.281711425781396.470150321159963.602016034195913.448939383661127.883727459977308-.021210937500655.281711425781396-.364680159240379.539159005587862-.385891096741034.820870431369258-.021210937498836.281711425781396.236387840301177.584415317291132.215176902800522.866126743072527s.20956556533929.582395783336324.188354627840454.864107209117719c-.021210937500655.281711425781396-.965890254970873.493891995009108-.987101192469709.775603420790503-.021210937500655.281711425781396.72341668782974.621085260379914.702205750339999.902796686161309-.021210937511569.281711425781396-.105338787279834.558685638143288-.126549724791403.840397063924684-.021210937498836.281711425779577-.200655623659259.551508931908756-.221866561159914.833220357690152-.021210937498836.281711425781396-.490819432479839,1.011763614898882-.512030369978675,1.293475040680278Z"/>
          <polygon class="cls-13" points="104.52778581979328 57.802142388132779 123.944045585421918 54.266986138132779 124.683913749482599 54.132281548289029 125.025588554171918 54.341632134226529 130.216384452613056 57.522479302195279 129.687087577613056 58.901568657664029 123.700881522921918 57.793353325632779 124.782058280732599 57.867999321726529 105.79975847604328 63.268267876414029 104.52778581979328 57.802142388132779 104.52778581979328 57.802142388132779"/>
          <polygon class="cls-13" points="87.543777030732599 63.268267876414029 68.561355155732599 57.867999321726529 69.64253191354328 57.793353325632779 63.656325858863056 58.901568657664029 63.127151054171918 57.522479302195279 68.31782488229328 54.341632134226529 68.659499686982599 54.132281548289029 69.39936785104328 54.266986138132779 88.815749686982599 57.802142388132779 87.543777030732599 63.268267876414029 87.543777030732599 63.268267876414029"/>
          <ellipse class="cls-11" cx="122.422062960439689" cy="84.777177415680853" rx="14.831661226057802" ry="11.907359779825128"/>
          <ellipse class="cls-7" cx="66.597683300130484" cy="84.777177415680853" rx="14.831661226057802" ry="11.907359779825128"/>
          <g class="cls-18">
            <path class="cls-15" d="M103.953200858863056,69.620074517039029c4.495273270409598-9.200431894985741,17.358424834330435-9.634134268819253,23.510631949919116-1.907283188995279-.960094840549573-.615604994598471-1.900036246799573-1.211735365692221-2.886974723360254-1.711735365692221-7.066167906108603-3.804262556068352-15.351769934719414-2.592500174809174-20.623657226558862,3.6190185546875h0Z"/>
          </g>
          <g class="cls-18">
            <path class="cls-15" d="M107.35639910104328,91.336261040476529c4.303655478728615,4.477775417604789,7.480351181449805,10.132240265213113,8.893987027669937,16.190028486347728-2.535754712520429-5.641347605484043-5.449117482659858-11.049793967387814-8.893987027669937-16.190028486347728h0Z"/>
          </g>
          <g class="cls-18">
            <path class="cls-15" d="M83.826247733863056,91.050982720164029c-5.591161965110587,1.706297805887516-9.642027984389642,7.100298132838361-9.376099484090446,12.978669695805365-.006468875290011.830778546382135.088257687209989,1.659880108882135.22900475752067,2.492155499507135-2.736851960660715-6.634850743967036,2.039688330998615-14.639153683921904,9.147094726569776-15.4708251953125h0Z"/>
          </g>
          <g class="cls-18">
            <path class="cls-15" d="M63.364089530732599,68.378009087351529c5.481569569270505-8.561269453564819,18.47595371998068-8.293334424119166,23.111338151620657.931684800551011-6.475660326590514-7.131137645890703-16.060991527430815-7.418531461642488-23.111338151620657-.931684800551011h0Z"/>
          </g>
          <g class="cls-18">
            <path class="cls-15" d="M85.08247331979328,75.489215142039029c-1.053530576491539,1.218639896940658-2.652922682780627,1.842216726336119-4.232044501690325,1.96094821594852,1.356548796209609-.793045545315181,2.83586640627982-1.265413945153341,4.232044501690325-1.96094821594852h0Z"/>
          </g>
          <g class="cls-18">
            <path class="cls-15" d="M107.399123710421918,76.819232231882779c-1.151589857599902-.078908454373959-2.27774750494973-.496170921951489-3.215832751149719-1.165799296086334-.306872326978919-.235506856257416-.604235608228919-.495882832819916-.814684826978919-.829806172663666.349731445319776.173095703125.67822265625.34130859375,1.015502929689319.49810791015625.944631452130125.461170188040342,2.103985233919957.973923222829399,3.015014648439319,1.49749755859375h0Z"/>
          </g>
          <g class="cls-18">
            <path class="cls-15" d="M85.37983660104328,73.504718071726529c-1.785906100190914,2.166729639911864-4.36598067281011,3.558327702758106-7.072372490090856,4.194169065229289,2.247887877769244-1.62765396938812,4.662412556110212-2.800648797505346,7.072372490090856-4.194169065229289h0Z"/>
          </g>
          <g class="cls-18">
            <path class="cls-15" d="M110.917678397921918,77.857379204539029c-2.762462794169551-.823918526002672-5.432829969789964-2.36183853372313-7.122625641508421-4.751065096141247,2.466982224948879,1.54437037021853,4.802312131998406,2.990081336369258,7.122625641508421,4.751065096141247h0Z"/>
          </g>
        </g>
      </g>
    </g>
  </g>
</svg>