<?xml version="1.0" encoding="UTF-8"?>
<svg id="Layer_2" data-name="Layer 2" xmlns="http://www.w3.org/2000/svg" width="39.019148209114064" height="78.272130024028229" viewBox="0 0 39.019148209114064 78.272130024028229">
  <defs>
    <style>
      .cls-1 {
        fill: #3657a6;
      }

      .cls-1, .cls-2, .cls-3, .cls-4 {
        stroke-width: 0px;
      }

      .cls-2 {
        fill: #985b3d;
      }

      .cls-3 {
        fill: #98623d;
      }

      .cls-4 {
        fill: #9f6c44;
      }
    </style>
  </defs>
  <g id="Layer_1-2" data-name="Layer 1">
    <g>
      <path class="cls-3" d="M29.630229203559793,59.821934711528229c1.708984375,6.472412109375-.85595703125,13.662841796875-6.520385742191138,18.4501953125-2.067993164058862-.13134765625-5.010131835939319-.561279296875-8.273071289058862-1.900390625-2.30419921875-.945556640625-4.136596679691138-2.085205078125-5.499755859380457-3.083251953125.260986328130457-3.78076171875,1.152709960939319-6.769287109375,1.865600585939319-8.78759765625,1.26416015625-3.5791015625,3.362426757810681-7.51318359375,6.870361328121362-10.91845703125,1.469848632819776-1.427001953125,2.985961914069776-2.5654296875,4.443481445319776-3.4775390625,1.41650390625.959228515625,5.62548828125,4.0810546875,7.11376953125,9.717041015625Z"/>
      <path class="cls-1" d="M34.473215848120162,46.989578260743656c.155325362969961.390282545793525.201529249459782.810199697156349.125070619698818,1.223237845353651-.66930139203032,3.615641666732699-1.801619840820422,7.992734962263057-3.768508121489504,12.7536827122658-1.034535808550572,2.50426948346103-2.153201661800267,4.759376594400237-3.273199667490189,6.763103249211781-.875089755520094,1.565574813163039-3.154750627320027,1.484991884530245-3.944926431489876-.125110216064058L1.519325444100105,22.588051705370162c-.321593521810428-.655295191620098-.302383249891136-1.426455242812153.051433194388665-2.064928503950796C5.149382730729485,14.065379839028537,8.728006822970201,7.607797435908651,12.306630915209098,1.150098499012529c.912701567691329-1.646988281381709,3.32920299701982-1.493047290405229,4.025476113420154.256466441474913,6.047036273159392,15.194286190002458,12.094072546329699,30.388761292417257,18.14110881949091,45.583013320256214Z"/>
      <path class="cls-2" d="M8.93389834817026,29.528329786957329c-.192854285420253,10.305675798092125-3.2250925125918,18.653036612446158-5.930236048890947,24.237437478250285-1.001220766429469-9.122499472230629-2.002441532858938-18.244733121879108-3.003662299279313-27.367232594111556,1.291366117959114-2.704213157263439,2.825561167319393-5.58679326906713,4.652559794059925-8.574373301948071,2.996750912068819-4.900439354581977,6.134653616769356-9.026537519041085,9.068404576190005-12.429066607119239.080677154550358-.034822758634618.199898583920003-.077088549651307.347828852480234-.095430308016148,1.02979669430897-.12653155046246,1.918441595989862,1.103163727771971,2.057998453108667,1.296416747074545.875220861140406,1.211087697283801.493765451650688,3.429377169160944-.887315788750129,5.559679365394913-2.247264133638964,3.101883744435327-4.494528267279748,6.204299134036773-6.741792400918712,9.3061828784721.312208626099164,2.457795620965044.49057558063032,5.158553084625964.43621486200027,8.06638634200317Z"/>
      <path class="cls-3" d="M3.0788900908301,49.175011222154353c-.210265664740291-7.566108237020671-.420398418191326-15.132216474043162-.630664082929798-22.698324711063833,2.328871667239582-2.081390840596214,4.963173484649815-4.236680359825186,7.92098138800975-6.375488878780743,4.851793821530009-3.508060654326982,9.528011825659632-6.214666214851604,13.71710994276873-8.307487426603984.091575880531309-.001063290339516.223290971400274.006113919453128.372816175471598.048113887885847,1.04122706545968.29213902092124,1.401416668148158,1.832049255859602,1.458036878748317,2.073947808215962.354740239690727,1.51651784745809-.903796789019907,3.49636446058139-3.088193881299958,4.989755743144997-3.408111362359705,2.079795905086939-6.81622272471941,4.159857632756029-10.224334087079114,6.23965353784115-3.175250777900146,8.010031953981525-6.350501555800292,16.019798085380899-9.525752333689525,24.029830039360604Z"/>
      <path class="cls-4" d="M21.899272172309793,46.035313617778229c-.913208007819776,2.020263671875-1.355712890630457,3.8662109375-1.580322265630457,5.27685546875.205688476560681,1.384765625.56689453125,3.540283203125,1.188232421880457,6.174560546875.348388671869543,1.47705078125.557739257808862,2.168701171875,1.0439453125,4.07177734375.745727539058862,2.9189453125,1.348022460930224,5.276611328125,1.596923828119543,6.787109375.354614257810681,2.152099609375.467041015630457,5.468994140625-1.038208007810681,9.926513671875-1.707275390628638-.1044921875-3.900268554689319-.40673828125-6.343383789058862-1.190673828125-3.300537109380457-1.05908203125-5.787719726569776-2.589599609375-7.429443359380457-3.79296875-1.850830078119543-2.144287109375-5.192810058590112-6.652099609375-6.230590820310681-13.185791015625-.451110839840112-2.840087890625-.352355957029431-5.342041015625-.102783203128638-7.29296875.440002441409888-7.09521484375.879943847659888-14.1904296875,1.319946289069776-21.28564453125.93328857421875-1.25146484375,2.115295410148974-2.64794921875,3.593139648430224-4.058837890625,2.019165039069776-1.927490234375,4.012573242189319-3.329833984375,5.687133789069776-4.335693359375,2.951416015619543-.554931640625,6.094970703119543-1.051513671875,9.417358398430224-1.453369140625,2.77783203125-.3359375,5.447509765628638-.57763671875,7.995971679689319-.743896484375.079956054689319.070556640625.187377929689319.18115234375.276245117189319.337646484375.632202148441138,1.11328125-.621948242189319,2.8701171875-.917602539058862,3.284423828125-1.232788085941138,1.72705078125-3.1162109375,2.367431640625-4.05712890625,2.608154296875-3.328125.5634765625-6.656372070319776,1.127197265625-9.984497070319776,1.690673828125-1.341918945310681,1.66650390625-2.683959960930224,3.333251953125-4.02587890625,4.999755859375.044311523439319,2.57275390625.088745117189319,5.145751953125.133056640628638,7.718505859375l5.631591796871362-3.637939453125c1.595092773439319-.798095703125,3.55517578125-1.625732421875,5.854858398439319-2.29443359375,2.9833984375-.867431640625,5.662109375-1.21240234375,7.798095703130457-1.331298828125,1.235595703119543.260009765625,2.501220703119543.546142578125,3.79443359375.861328125,1.102416992180224.268798828125,2.177001953119543.546875,3.223266601558862.832275390625.093994140621362.131103515625.206909179691138.326904296875.253662109371362.57958984375.220092773439319,1.19287109375-1.284057617180224,2.335205078125-1.73876953125,2.680419921875-1.976806640621362,1.501220703125-4.520629882810681,1.235595703125-5.469970703121362,1.0869140625-2.559936523439319.639892578125-5.119750976558862,1.280029296875-7.6796875,1.919921875-.713745117189319.966552734375-1.510498046878638,2.220703125-2.209594726558862,3.76708984375Z"/>
    </g>
  </g>
</svg>