<?xml version="1.0" encoding="UTF-8"?>
<svg xmlns="http://www.w3.org/2000/svg" width="360.363803218124303" height="249.17377239778034" xmlns:xlink="http://www.w3.org/1999/xlink" viewBox="0 0 360.363803218124303 249.17377239778034">
  <defs>
    <style>
      .cls-1 {
        fill: #27201d;
      }

      .cls-1, .cls-2, .cls-3, .cls-4, .cls-5, .cls-6, .cls-7, .cls-8, .cls-9, .cls-10, .cls-11, .cls-12, .cls-13, .cls-14, .cls-15, .cls-16, .cls-17, .cls-18, .cls-19, .cls-20, .cls-21, .cls-22, .cls-23, .cls-24, .cls-25, .cls-26, .cls-27, .cls-28, .cls-29, .cls-30 {
        stroke-width: 0px;
      }

      .cls-2 {
        fill: #3657a6;
      }

      .cls-3, .cls-28 {
        fill: #151c22;
      }

      .cls-31 {
        clip-path: url(#clippath);
      }

      .cls-4, .cls-32, .cls-33, .cls-34, .cls-35, .cls-36, .cls-37, .cls-38, .cls-39 {
        fill: none;
      }

      .cls-32 {
        stroke-width: .307625025055425px;
      }

      .cls-32, .cls-33, .cls-34, .cls-35, .cls-36, .cls-37, .cls-38, .cls-39 {
        stroke-miterlimit: 10;
      }

      .cls-32, .cls-40, .cls-34, .cls-35, .cls-37, .cls-38, .cls-15, .cls-17, .cls-18, .cls-39, .cls-22, .cls-41, .cls-28, .cls-29, .cls-30 {
        mix-blend-mode: multiply;
      }

      .cls-32, .cls-34, .cls-35, .cls-37, .cls-17, .cls-42, .cls-41 {
        opacity: .6;
      }

      .cls-32, .cls-34, .cls-35, .cls-37, .cls-39 {
        stroke: #f1b068;
      }

      .cls-33 {
        stroke: #4d3329;
        stroke-width: 5.40016781585532px;
      }

      .cls-34 {
        stroke-width: .294747007030066px;
      }

      .cls-5 {
        fill: #79c4e0;
      }

      .cls-6 {
        fill: #e2bc86;
      }

      .cls-35 {
        stroke-width: .290612308935644px;
      }

      .cls-43 {
        clip-path: url(#clippath-1);
      }

      .cls-44 {
        clip-path: url(#clippath-2);
      }

      .cls-7 {
        fill: #d48d45;
      }

      .cls-8 {
        fill: #000;
      }

      .cls-36 {
        stroke: #27201d;
        stroke-width: 1.85461063707757px;
      }

      .cls-37 {
        stroke-width: .278446489356466px;
      }

      .cls-9 {
        fill: #ffc58f;
      }

      .cls-10 {
        fill: #505050;
      }

      .cls-11 {
        fill: #5e5a5b;
      }

      .cls-12 {
        fill: #910000;
      }

      .cls-38 {
        stroke: #151c22;
        stroke-width: 6.86282866868545px;
      }

      .cls-13 {
        fill: #e08362;
      }

      .cls-14 {
        fill: #dc5b42;
      }

      .cls-15 {
        fill: url(#radial-gradient-2);
      }

      .cls-15, .cls-22 {
        opacity: .4;
      }

      .cls-16, .cls-24 {
        fill: #e9e9de;
      }

      .cls-17, .cls-18, .cls-26 {
        fill: #f1b068;
      }

      .cls-39 {
        stroke-width: .618203545692524px;
      }

      .cls-19 {
        fill: #0b2645;
      }

      .cls-45 {
        isolation: isolate;
      }

      .cls-20 {
        fill: #4d3329;
      }

      .cls-21 {
        fill: #56362e;
      }

      .cls-22 {
        fill: url(#radial-gradient);
      }

      .cls-23 {
        fill: #fff;
      }

      .cls-24 {
        mix-blend-mode: screen;
      }

      .cls-25 {
        fill: #e69c45;
      }

      .cls-27 {
        fill: #c74530;
      }

      .cls-29 {
        fill: url(#radial-gradient-3);
      }

      .cls-29, .cls-30 {
        opacity: .3;
      }

      .cls-30 {
        fill: url(#radial-gradient-4);
      }
    </style>
    <radialGradient id="radial-gradient" cx="133.663129149366796" cy="104.81139857708331" fx="133.663129149366796" fy="104.81139857708331" r="17.129250662059285" gradientTransform="translate(181.852168993363193 37.157990254684591) scale(.853091239733539 .645477583935139)" gradientUnits="userSpaceOnUse">
      <stop offset=".537641841231661" stop-color="#e984a2"/>
      <stop offset=".592832570610897" stop-color="rgba(233, 132, 162, .886871293855677)" stop-opacity=".886871293855677"/>
      <stop offset=".711273432585101" stop-color="rgba(233, 132, 162, .596518194573597)" stop-opacity=".596518194573597"/>
      <stop offset=".8824215114979" stop-color="rgba(233, 132, 162, .136328760171738)" stop-opacity=".136328760171738"/>
      <stop offset=".931113028771807" stop-color="#e984a2" stop-opacity="0"/>
    </radialGradient>
    <radialGradient id="radial-gradient-2" cx="68.225369317551667" fx="68.225369317551667" r="17.129250662058066" xlink:href="#radial-gradient"/>
    <clipPath id="clippath">
      <path class="cls-4" d="M60.078366634669692,146.141426379339464c11.838343752510809-2.458997528399777,21.728516640120688-1.07986426647949,29.018074340650855,0,4.454124164659333.659829292138966,7.333156667388721,1.368904881099297,11.198141893818502,2.320815657840285,14.513637967091199,3.574562398169292,19.405805375021373,3.419872947770273,22.986054594970483,7.684831305068656,2.097015526240284,2.498054936229892,2.442331981270399,5.475659016230566,3.132964891299707,11.430867176241009.987216461870048,8.512856249330071.152991302242299,16.089953875389256-1.205448247130334,22.215529737479301-29.965127623788248-5.319468876739847-72.44003888665975-10.638977245300339-102.405166510448908-15.958446122040186.238649055092537-6.327971428419914,1.186847600949477-10.561336331478742,2.454653428429083-13.401785328189362,1.215755611590794-2.723829658700197,3.309572300600848-4.125394273129132,4.372060167241216-5.04389497199918,1.515577492478769-1.310180548000062,11.279968940340041-4.220016668630706,20.378567831568944-6.353048732731622,4.427269728550527-1.037884464129093,6.671392276180995-2.188912986319338,10.070097609600452-2.8948687216689Z"/>
    </clipPath>
    <clipPath id="clippath-1">
      <path class="cls-4" d="M66.270505062959273,127.185692517368807c-.109878102190123.222631785090925-2.012828355020247,3.912898986231085-6.208394224939184,4.319069078019311-3.881416830770831.375759930480854-6.366499402160116-2.384323462309112-6.602652943080102-2.65598274858894.382997037550012-.502262937929117,2.347193136789429-2.970440594510364,5.916180163529134-3.490879907709314,3.749869717512411-.546810688860205,6.434903107410719,1.470169075979356,6.894867004490152,1.827793578278943Z"/>
    </clipPath>
    <clipPath id="clippath-2">
      <path class="cls-4" d="M30.656869171800281,127.554976852679829c.12238770446038.216007775019534,2.232560074189678,3.791824360168903,6.444455036278669,3.958221297300042,3.89652339595159.153940132309799,6.220264616952591-2.743286551880374,6.440551964131373-3.027963118151092-.410999416100822-.479618879478949-2.512668964340264-2.831841736850038-6.105515908740927-3.148032043289277-3.774938589529484-.332209983360372-6.340656474809293,1.834516443730536-6.779491091669115,2.217773864140327Z"/>
    </clipPath>
    <radialGradient id="radial-gradient-3" cx="-137.852706926493738" cy="136.403949242405361" fx="-137.852706926493738" fy="136.403949242405361" r="9.65423447100728" gradientTransform="translate(181.852168993363193 48.358257646206312) scale(.853091239733539 .645477583935139)" xlink:href="#radial-gradient"/>
    <radialGradient id="radial-gradient-4" cx="-174.734149619913296" cy="136.403949242405361" fx="-174.734149619913296" fy="136.403949242405361" r="9.654234471007888" gradientTransform="translate(181.852168993363193 48.358257646206312) scale(.853091239733539 .645477583935139)" xlink:href="#radial-gradient"/>
  </defs>
  <g class="cls-45">
    <g id="Layer_2" data-name="Layer 2">
      <g id="Layer_1-2" data-name="Layer 1">
        <g>
          <g>
            <g>
              <path class="cls-11" d="M299.219881189865191,18.921390689309192c0,3.559342460930566-.947859378637986,6.570993265699144-2.763650994719683,9.419104936199801-1.820436766378407,2.855397697510853-4.099054833971422,5.197335059559919-7.198780737353445,6.826134872679177-2.92732416110448,1.538208601401493-6.120697135726004,2.518499267620427-9.715116688815215,2.518499267620427-3.594498008809751,0-6.903728339094414-.759971686909921-9.831096810451527-2.29824272830956-3.099712926495158-1.628834455979813-5.111802361762784-4.287240335319439-6.932207795975046-7.14266761466024-1.815713735829377-2.848068037659687-2.864696078023371-5.763568765960372-2.864696078023371-9.322828735699659,0-3.559342460930566.297334988813418-6.954141320329654,2.113126604895115-9.802252990830311,1.820436766377497-2.855397697509034,4.631257594543968-4.94506885265946,7.730983497925081-6.573868665780537,2.92732416110357-1.53820860138876,6.18947104988456-2.545269030528289,9.78389060297377-2.545269030528289,3.594498008808841,0,6.684439397161441,1.334935749888245,9.611807868520373,2.873206791298799,3.099712926496068,1.628834455979813,6.462768138466345,3.148456127461031,8.283173572677697,6.003883406790919,1.815713735831196,2.848068037659687,1.782566958346251,6.485040521469273,1.782566958346251,10.044300491219474Z"/>
              <path class="cls-5" d="M243.390670753582526,149.502702103349293c23.453550167168032-8.445511803489353,47.271441980477903-2.158807264169809,55.450262943568305,0,3.579422734088439.944737586609335,6.022051235048821,1.779599150690046,7.990311138708421,2.575973921149853,3.325258967681293,1.345377561639907,4.485296205590203,2.155034049119422,7.906092978581,3.569536910639727,3.219608946021253,1.331341201610485,5.707516027679958,2.060024493919627,8.123581094609108,2.759729494560816,24.6789394899115,7.14737489440995,27.672004603749883,7.933712912819828,30.442450029071551,10.214395023418547,4.426584979268227,3.644095640211162,8.721711145859445,11.462951886611336,6.417031387478346,30.290842247970431-58.941845231069237,10.847163188900595-117.883690462138475,21.69432637780119-176.825535693207712,32.541489566699966-.082407016901016-48.354430166869861,7.725884227327697-61.683085971839319,15.356985292368336-64.280265361629063,3.312279107880386-1.127285731190568,17.752071283579426-6.256896140350364,27.862174642749778-9.679051270761192,2.454853717740662-.830937420420014,3.688393185010682-3.099620707120266,17.276646186072867-7.992650532049083Z"/>
              <path class="cls-2" d="M242.97939031208989,150.473550338168934c3.226702590329296-.996657025829336,6.090874677729516-1.700286170129402,8.452303590600422-2.205142345099375,8.316769705668776-1.778089864659705,23.523430110069967-4.937402834029854,40.309407409798951-.035392757261434,2.943409603660257.859538390570378,5.328836164309905,1.789107652641178,6.976221859312318,2.487378831561728-.068672514092214.438749447119335-.137194099571389.877574358548372-.205866613651779,1.316323805678621-3.698052615569395,11.77258191439978-14.294297003010797,19.997511565510649-26.326325184909365,20.540024426771197-12.943335083080456.583565441118481-24.940045972020016-7.840665429441287-28.958972796250237-20.540024426771197-.08225608830071-.521080999729747-.164512176598691-1.042086535158887-.246768264900311-1.56316753487954Z"/>
              <path class="cls-26" d="M229.898342929109276,111.568227617008233c-8.210815876078414,1.660833800830005-16.33396860936773-3.728995309698803-17.994802410187731-11.93981118576994-1.66083380084001-8.210815876078414,3.728983575668281-16.334026619930228,11.939799451737599-17.994860420769328,2.018334319480346,9.978223868849454,4.036668638960691,19.956447737700728,6.055002958450132,29.934671606539268Z"/>
              <path class="cls-26" d="M307.599499013710556,109.716675083949667c8.3086101250301,1.069039164609421,16.025250363049963-4.888203739610617,17.094289527670298-13.196813864640717,1.069039164609421-8.3086101250301-4.888209139431638-16.025325633920147-13.196819264461737-17.094364798529568-1.299208734918466,10.097038063979198-2.598261528290095,20.194140599189268-3.897470263208561,30.291178663170285Z"/>
              <path class="cls-39" d="M322.088462583758883,91.764789625338381c-.258481563768328-.848988760788416-.800217923339005-2.155445274929662-1.85439572299947-2.501367162958559-2.267196842680278-.743998099080272-5.623432277709071,3.375075642979937-6.49493112197888,7.576326431189955-.33796957442064,1.629451079939827-.602054114040584,4.716494965539823.656807063569431,5.739169920549102,1.2436459444516,1.010323358470487,3.47706618292159-.397539968380443,4.319720891910038-2.816707637159197.620812859859143-1.782315706950612.581969169460535-4.387354812241028-.387879075800811-4.784026045901555-.594126162290195-.242983093659859-1.502471036868883.357048806450621-2.071845580669105,1.494252526290438-.660620463049781,1.319268679781089-.510582705409433,2.653637425020861-.494149235450095,2.785280933439935"/>
              <path class="cls-39" d="M214.712129336960061,94.286526257988953c.271549342080107-.844899751200501.833377764220131-2.142842635419584,1.892767114070011-2.47245906606986,2.278405695100446-.708930309290736,5.570690908560209,3.46143452619981,6.377267416019095,7.675631099520615.312789513300231,1.634471466719333.529214451039479,4.72522232079973-.7452751360197,5.728353329479432-1.259085599440368.991015629089816-3.470518916888977-.451138243141031-4.275749425749382-2.883018790340429-.593240675671041-1.791681720320412-.514210005290806-4.395811464690269.461642809030309-4.777472271209263.597804288488987-.23378775242054,1.496783511050126.380187043268961,2.048545043338891,1.526039949629194.640187618710115,1.329303975209768.469580535331261,2.661199053700329.451117971750136,2.792573351000101"/>
              <path class="cls-26" d="M251.562904528819672,132.73068569933821c3.252511381330805,3.970780600071521,3.75555641308074,9.430547326941451,1.316248341380742,13.601987503880082-3.070793344069898,5.251485255581429-9.177968310858887,5.678839593230805-9.652940622550886,5.704044669830182,4.097409697460535,12.852400600140754,16.282781339379653,21.298968903851346,29.287997149440343,20.567493432410629,11.881099579519287-.668236387049546,22.312831790359269-8.876563891899423,25.997300831710163-20.567493432410629-.619712841380533-.149947566478659-7.437459668179145-1.926301752209838-10.091690069670221-8.775441728310398-2.424818925870568-6.256971604649152.583339048209382-11.694099041158552.987223988180631-12.39538879212887-12.61476351570127.621599448910274-25.229376102790411,1.243198897820548-37.844139618490772,1.864798346729003Z"/>
              <path class="cls-18" d="M289.407044147310444,130.865887352609207c-12.61476351570127.621599448910274-25.229376102790411,1.243198897820548-37.844139618490772,1.864798346729003,2.841230939849993,3.468792068550101,3.582894091951857,8.073321870020663,2.099265930531146,11.963204739211506.086180231959588.862028712508618.314686135969168,2.091794964719156.972131127949979,3.393856017468352,2.00870876909903,3.978704351691704,6.344887515539085,5.311328446430707,8.336692281169235,5.923419393380755,6.508041334720474,2.000030374470953,16.487742381430508-2.214499918449292,25.330800123589142-11.123966245659176-2.02546184395942-6.11389128960036.676160138680643-11.243199841550449,1.105250155251269-12.021312251130439Z"/>
              <path class="cls-26" d="M316.446453307809861,64.336936744090053c-3.686280184568204-20.314989880631401-20.696990173260929-46.926494659730452-47.222993899109497-47.222993899120411-26.482989074180296-.295970989271154-44.634417439659956,25.836939191680358-48.045705710701441,44.754858464370045-1.782466794129505,9.884993348709031.050862939000581,20.066787794008633,1.730094569111316,29.392817063799157,2.547674808209194,14.148952758909218,6.585316779130153,21.180414486691006,8.448983161350043,24.539707854210064,1.936112111348848,3.489846608570588,4.476542346650604,6.59467435248007,7.193559046729206,9.501559234360684,5.324459234831011,5.696875561208799,10.880895731530472,10.911534237809974,17.663476193980387,14.889785803699851,2.983405683289675,1.768883219920099,6.347000515980653,3.286847638379186,9.76055271605037,3.966856456409005,10.029054699690278,1.997841909731505,19.229209515089678-4.005569642918999,26.061747344929245-10.734268594318564,6.645990077289753-6.545094306600731,13.715485812870611-13.956594255170785,17.445686220740754-22.609934744150451,1.925547109200124-4.466807451799468,3.92655851956988-12.204313181520774,4.954080444589636-18.817023501989752,1.986673193160641-6.253726639701199,4.098466197691778-16.154416563060295,2.010519912329983-27.661364137269629Z"/>
              <path class="cls-11" d="M317.905188779210221,81.861361326769838c-4.753208080778677-2.442082805100654-14.165140378670912-8.251761168670782-22.817883210351283-21.113035637561552-9.248039713578692-13.745901832369782-12.707506853359519-28.231657011419884-14.011653504378046-35.052058139499422.938168231147756-.455098777509193,15.733074665959066-7.241820837039995,27.933752054148499,5.995786535269872,10.383408399669861,11.265977491120793,14.355957807731102,32.118408077250933,8.89578466058083,50.169307241791103Z"/>
              <path class="cls-11" d="M288.894393732620301,38.075902827849859c-3.407134820057763,4.683196693129503-6.93299030117123,9.87916665144985-7.443906264759789,15.76505061611897-.107655426820202,1.466618846450729.129604336119883,2.846709986630231.613330506748753,4.294379408520399,1.041076929301198,2.965977898640631.068683852039612,6.463779420409992-2.483102577838508,8.331165972440431-1.183255031219232.959055486438956-2.539197595020596,1.656307897299484-3.93091023758825,2.218479209019279,2.621668424517338-1.216752625770823,5.373410363137737-3.125549998600036,6.081669144406987-6.066238048839296.354530175573018-1.414689056829957.123005699520945-2.891412234690506-.356947256059357-4.269352642289959-1.86743850584935-4.337349728701156-.448081150780126-9.370211726640264,1.421781215959527-13.439208538689854,1.26821926429966-2.791653361480712,2.835763728638995-5.420452293470589,4.528729861559441-7.948129061860527l1.569355607571197,1.113853085580558h0Z"/>
              <ellipse class="cls-22" cx="295.879013546060378" cy="104.811398577081945" rx="14.831661226060532" ry="11.907359779826493"/>
              <ellipse class="cls-15" cx="240.054633885750036" cy="104.811398577081945" rx="14.831661226058486" ry="11.907359779826493"/>
              <path class="cls-1" d="M235.951860105155902,87.478683920799085c6.77648834444517,5.425164578580734,12.276134710475162,6.825962870929288,20.626013223015434,4.279737580091023-.000036660515434.000291716789434.958825644172066,1.546922576158977.958825644172066,1.546922576158977-6.743278921025194,7.349410237029588-19.15771600602784,3.559201683370702-21.5848388671875-5.82666015625h0Z"/>
              <path class="cls-11" d="M276.379544951700154,79.4198800540089c8.615080753070288,5.544008586890413,20.348738278849851,6.287392769130747,29.296457742979328,1.310801834400991-2.377134079319148.780351683748449-4.799538147550265,1.344220942250104-7.241562934090325,1.592423028869234-7.25273681653016.834507535120792-14.609591324509893-1.126711687660645-20.7357674975392-4.994833163509611-.000011326530512.000039728429329-1.319127311349803,2.091608300239386-1.319127311349803,2.091608300239386h0Z"/>
              <path class="cls-11" d="M257.875698299660144,77.328311482198842c-8.223417549619626,5.30890316158002-18.69867804506066,6.660531536470444-27.977346865251093,3.40228526403007,8.9486855565101,4.976679117200547,20.680681619471216,4.233303247710865,29.296450847141386-1.310804840470155.000012002928997.000088148250143-1.319103981890294-2.091480423559915-1.319103981890294-2.091480423559915h0Z"/>
              <g class="cls-40">
                <path class="cls-26" d="M275.118364011405902,107.309128256738404c-2.000595112467636,4.490983726051127-9.458485281271351,5.189701800300099-11.789890450982057.708251236930664,4.151196199581136.975770605220532,7.779307386668734.685967514420554,11.789890450982057-.708251236930664h0Z"/>
              </g>
              <path class="cls-1" d="M300.429887448905902,85.971603842679542c-1.938340472810523,9.501311167809035-14.396580589082077,13.790078826808895-21.216428803577401,6.46980174501914.000059174671151.000168958100403.657651948108651-1.161452135649597.657651948108651-1.161452135649597,8.599692740069258,1.969325186550122,13.875092388978373.357217812090312,20.55877685546875-5.308349609369543h0Z"/>
              <path class="cls-11" d="M223.722517652422539,81.604730522909449c1.055741661737557,6.55686119641905,1.621373663017948,13.531055807679877.87250647298788,20.117020203309949.000162705990078-.000010916859537-.187743403978857-.00219938158989-.187743403978857-.00219938158989-.426593038321698-6.505602832479781-2.129882051361164-12.998510449810055-4.275218020261491-19.126574154621267.000165357789228-.000041643008444,3.590454951252468-.988246667098792,3.590454951252468-.988246667098792h0Z"/>
              <path class="cls-11" d="M313.693321461420055,76.215975703458753c-1.732033582309668,9.59554885299076-3.003313438110126,19.599192194749776-2.977972549939295,29.355935690769911-.00015063227147-.000020670318918-.229713036491376.015487243699681-.229713036491376.015487243699681-1.45676557277784-9.725794703368592-1.646497137077858-20.063183764788846-1.318338584009325-29.918506371190233-.000173686399648.000004985231499,4.526024170439996.547083436720641,4.526024170439996.547083436720641h0Z"/>
              <circle class="cls-16" cx="314.330331438519579" cy="109.01816898548168" r="3.483940031283169"/>
              <circle class="cls-16" cx="223.633534945180372" cy="109.855615515237332" r="3.483940031279985"/>
              <path class="cls-14" d="M280.704423581718402,125.044723959859766c-7.062230722400272-4.357554473959681-15.63708901821883-3.495156528240841-21.722439841240885,2.131470144839113-.000033303288546-.000244558899794-.996859475167184-.918457449519337-.996859475167184-.918457449519337,5.432120702628708-7.409904284961158,16.756580693169781-8.491250276951178,23.461746116770883-2.201802558500276-.000015159737814-.000223808690862-.742446800362814.9887898631805-.742446800362814.9887898631805h0Z"/>
              <path class="cls-11" d="M295.879013546060378,23.860074049949617c-3.784232847531712,8.551690075270017-12.584879652427844,25.339780375428745-30.769059524631302,39.654150882550312-19.434925200138423,15.298877780458497-39.246115406009267,19.630604133129964-48.53924224048842,21.061105426510039-.510893319061324-1.827594446251169-8.043287078141475-30.588171594670712,11.024126975199579-51.500989669340925,16.227390542309877-17.797953578699889,44.638492511920049-22.143867219989261,68.284174789920144-9.214266639719426Z"/>
              <g class="cls-41">
                <path class="cls-26" d="M257.814164792655902,95.727219077049085c-1.19960704582536,2.870337097840093-4.506377393002367,4.673374826170402-7.568824952601062,4.360267843290785,3.003223754452847-.450673860910683,5.59097640881464-2.108760953491583,7.568824952601062-4.360267843290785h0Z"/>
              </g>
              <g class="cls-41">
                <path class="cls-26" d="M257.814164792655902,97.757736655179542c-.87188955986494,2.088620728400201-3.270970436087737,3.387856251469202-5.496261482685441,3.16627693826922,2.176708274272642-.333679636360102,4.072485670747483-1.516145683379364,5.496261482685441-3.16627693826922h0Z"/>
              </g>
              <g class="cls-41">
                <path class="cls-26" d="M268.079362546562152,90.042648764549085c2.031998226761061,3.46130788425944,1.298913794631517,8.131438867610996-1.093269757246162,11.232546588320474,1.534494481139518-3.556327291160414,1.941810530841394-7.460216050179952,1.093269757246162-11.232546588320474h0Z"/>
              </g>
              <g class="cls-41">
                <path class="cls-26" d="M278.919145261405902,94.571091147359766c2.226859433181744,1.988845490448512,4.65055906732232,3.601712217439854,7.568900544261851,4.360255319408679-3.030815886940218-.02603415323938-6.061623047788089-1.711647675108907-7.568900544261851-4.360255319408679h0Z"/>
              </g>
              <g class="cls-41">
                <path class="cls-26" d="M299.789384519218402,85.288864584859766c1.556236080979943-.869493018750291,2.946214475516172-1.926865449351681,3.939663748418752-3.427528433830958-.596329289392997,1.708344760330874-2.158761263439374,3.078334155379707-3.939663748418752,3.427528433830958h0Z"/>
              </g>
              <g class="cls-41">
                <path class="cls-26" d="M300.501115476249652,86.209885092679542c1.761566974700145-.273474727109715,3.432617297216893-.781071731029442,4.886273396170509-1.842088478540973-1.153617830696021,1.39384900576988-3.095165482895027,2.134576809250575-4.886273396170509,1.842088478540973h0Z"/>
              </g>
              <g class="cls-41">
                <path class="cls-26" d="M235.662675534843402,86.867722006738404c-1.860385832204884-.120974317689615-3.51444833862206-1.634044421638464-3.939705287604738-3.427355785088366.844193123189143,1.604246335878997,2.273205904800307,2.762471019128498,3.939705287604738,3.427355785088366h0Z"/>
              </g>
              <g class="cls-41">
                <path class="cls-26" d="M234.950944577812152,87.788742514549085c-1.786250386976462.534147933230997-3.863505539263315-.308683462149929-4.886294696420919-1.842026635089496,1.349785008155777,1.210230166188921,3.092494424297911,1.798719173630161,4.886294696420919,1.842026635089496h0Z"/>
              </g>
              <g class="cls-41">
                <path class="cls-26" d="M278.919145261405902,96.454391928609766c1.32943696696384,1.187708197339816,2.78225880852915,2.156831256279474,4.524866522147022,2.60664525474931-1.809388697836766-.006703705390464-3.614010252527805-1.036916157499945-4.524866522147022-2.60664525474931h0Z"/>
              </g>
              <g class="cls-41">
                <path class="cls-26" d="M256.442826902030902,113.402756186429542c-3.408607622407544,4.411145103460512-5.588305904493609,9.701343287550117-5.580149315310337,15.32548122596927-.754640951709007-5.604948050349776,1.41852865978035-11.506206693069544,5.580149315310337-15.32548122596927h0Z"/>
              </g>
              <g class="cls-41">
                <path class="cls-26" d="M281.893449460624652,113.402756186429542c4.468068106323699,3.551157192629034,6.653013129021929,9.741092359328832,5.580332244532656,15.325429714788697.313379285168594-5.641528904319784-1.846975173990359-11.142756678438673-5.580332244532656-15.325429714788697h0Z"/>
              </g>
              <g class="cls-42">
                <path class="cls-5" d="M281.466081296562152,93.250412436429542c4.995382594177499,3.339834207548847,12.229378372651809,2.148675646219999,15.938381822110387-2.606343822330018.283053724764613-.349466724550439.795871107577113-.403421802669982,1.145419447420863-.120340747989758.328369140625.265869140628638.3958740234375.734375.1683349609375,1.079956054689319-1.943828670986477,2.914622560110729-2.951904669739633,6.33681795099983-2.969420605921187,9.486328454840987.058273675565943,3.369244676969174-.582869367149215,7.42554876156828-1.092504034051672,10.716420588969413-.757332469505855,5.36761381416909.90385866984343,10.641661690049659.730992151284227,16.036749538148797-.046692023030118,1.86670258992126-.307922491780118,3.724002394601484-.591308722248868,5.634036574290803-.107380629204272.824124259690507-.872334114337718,1.403875530810183-1.695191260252614,1.280637496949566-1.041881748745254-.133211904179916-1.612864479837299-1.379667359709856-1.047274775614824-2.256490026478787,1.821628633523687-2.94211622047078,2.265110078836187-6.530128915781461,1.725193086648687-10.001076181410099l-.64056396484375-5.34423828125c-.519073042469245-3.529554786151493-.056707221545366-7.346095281771341.149514068400094-10.820921684471614.173803501490511-1.834385846299483-.596618603247407-3.497211402889661-.515725684601421-5.329953590789955.094299995107576-1.998294646609793.692627631826326-3.913333709109793,1.560547553701326-5.605716521609793.8480224609375-1.710693359378638,1.94110107421875-3.22509765625,3.03021240234375-4.701171875l1.28955078125.995971679691138c-4.429193998210394,5.314100089490239-12.206743879565693,6.788127289059048-18.462495786427098,3.980898210969826-1.816084276400034-.810525926550326-.44302581276952-3.467118280550494,1.276338559864598-2.424745867219826h0Z"/>
              </g>
              <g class="cls-42">
                <path class="cls-5" d="M255.742997800468402,96.098190756738404c-5.791421545490266,2.424981653090072-12.359899494753336,1.619930321679931-16.934160871383938-2.711444786769789-.394208269241062-.30552298666953-.859662370803562-.687236853858849-1.132123308303562-.809551306980211-.082779683640183-.013227538249339.131192313912834.088588017750226.204650260572635.084950041909906.618802074412997.123579309380148,1.239130494174788-.539940573269632,1.102016617881418-1.165780477618682-.075279484695784-.169320557190076.393752797745037.513202523019572.378279427806774.472528483838687,1.0350381419521,1.354346643400277,1.876508115135039,2.994075262469778,1.997981772453386,4.763452278280965-.042852576968471,2.168136517349922-.922176066699649,4.122890623410058-.790178228984587,6.297381286540258.37027275451328,4.091330572149673.084929069868849,8.235367164188574.482742350228364,12.315666690479702.410763463037256,1.863487500049814.170659891748983,4.239526925470273,1.394202061915166,5.593137764830317.552510327970595.637809439549528.483235425626845,1.602653189549528-.154642992341905,2.155021353610209-.909027699532089.826629713319562-2.446035064249372.177789111459788-2.530674679381264-1.031801149671082-.414806558776036-1.754495339278947-.059857913425731-3.377966079719045.000875149980857-5.031919715449476-.153468825224991-2.584949229569247-.23417494583191-5.233053828360426-.308876742188659-7.799567699910767.007195088801382-2.055760224418918-.553689639467848-4.086985709289365-.761576659672755-6.120220991590031-.315061038693784-1.968864806049169.35668935796366-4.114089976928881-.216549045498141-6.023083258869519-.158092097437475-.762816247690353-.399001513709663-1.80711355773019-.684124357186192-2.535248384920123-.285192497152821-.844370494329269-.749175804226979-1.551427489170237-1.028727794609949-2.489385345468691-.272454382723481-1.031186994810923.813232275509108-1.96942156977093,1.769617089586063-1.48569423814115,1.149758300117355.730151511810618,1.623088526283027,1.726391267689905,2.590008711558767,2.519154379000611,3.566965833710128,3.377244897268611,9.440379789254621,3.23650612019992,13.344966046959598.577447694169678,1.6923244282616-1.07101078983942,3.132962641189806,1.62316086204919,1.276295190607925,2.42495738272919h0Z"/>
              </g>
              <g>
                <circle class="cls-36" cx="245.153744604129542" cy="91.903502838881195" r="18.855411200903632"/>
                <circle class="cls-36" cx="291.027773823188454" cy="91.903502838881195" r="18.855411200908293"/>
                <path class="cls-36" d="M263.811085505440133,90.790999906899742c.655935705961383-.39724408147049,2.573181742020097-1.438840098660876,5.100783046108518-1.151811629080839,1.514719453513862.172020874560985,2.6468348999706.752907332980612,3.28888517451287,1.151811629080839"/>
              </g>
              <g class="cls-42">
                <path class="cls-5" d="M242.458085691093402,124.689865561429542c.249005721612775.700819773399417.745445456453126,1.27674054937961,1.290379154305811,1.695283491970258,1.960155549243609,1.876822927190005-.782364836511988,4.841312774609833-2.805639517167947,3.030850036009724-.899646189232953-.834831172860504-.710310993654275-2.212779088020397-.652121190940306-3.282646536039465.078819542083693-.559453788820974.229637413177443-1.087041679440517.434715538177443-1.568242851320974.313080467260079-.798488250500668,1.531799371836314-.688848555299046,1.732666015625.124755859380457h0Z"/>
              </g>
            </g>
            <g>
              <path class="cls-26" d="M200.229356881089188,226.171973449298093c-2.044427471038944-1.25603253610825-.823275826000099-8.767507946198748,2.813218291583325-13.886267431669694,1.964727721338022-2.765476062659218.704871781566908-3.331556925379118,11.207454049726948-8.689491979988816,1.552994741530711-.792160319200775,2.664397653919877-2.1364047570205,3.769553210209779-1.716043069849547,1.375979467731668.523368350528472,1.946909946120286,3.143578829018224,1.474118808509957,5.208348433019637-.498426835669306,2.178254725909937-1.974311764827689,2.935139500679725-4.1977285888388,5.299052619999202-3.083078152360031,3.277819134340461-2.512421884201103,4.232887105579721-5.103701871658814,7.32243318141991-2.780320345212203,3.314990904380466-8.00708045175179,7.663429587810242-9.962913899532396,6.461968247069308Z"/>
              <g>
                <path class="cls-19" d="M243.340763016880373,244.262312433478655h-26.425279141290957c-3.140183054429144,0-5.84682747728948-2.23278336013027-6.017499632520412-5.006171790599183l-3.321153677989059-53.968083861500418c-.239329995340086-3.889064617800614,2.682662718019856-7.132962909119669,6.497975657170173-7.132962909119669h32.106634447970464c3.815312939149408,0,6.737305652509349,3.243898291319056,6.497975657169263,7.132962909119669l-3.321153677979964,53.968083861500418c-.170672155240027,2.773388430468913-2.877316578089449,5.006171790599183-6.017499632529507,5.006171790599183Z"/>
                <path class="cls-28" d="M227.41259828946022,190.447113617308787l-14.106352067359694.000000016920239c-1.493539318231342.000000001789886-2.782747507299973-1.243091459289644-2.865537923691591-2.774091204079014l-.181341841589528-3.35345955871162c-.085041146368894-1.572621313649506,1.097252797169858-2.869359792908654,2.627983997270348-2.869359791029638l14.457626313569563.000000017720595c1.530731190310689.000000001879016,2.783147609130538,1.296738475899474,2.783147597470816,2.869359779570004l-.000000024851033,3.35345953192882c-.00000001133958,1.530999743170469-1.221986734179154,2.774091205901641-2.71552605081888,2.774091207680613Z"/>
                <path class="cls-24" d="M233.045567208258944,187.645475318338868h-.000003196527359c-.879044140719998-.00000000468026-1.595594452291152-.736270626059195-1.59231933789215-1.640210814710372l.000009366980521-.002585310228824c.003291430639365-.908443513601014.731728982911591-1.655079001810009,1.618735221429233-1.655078997910095h.000003273500624c.887006224300421.000000003909008,1.603478455230288.746635486530067,1.592211499500991,1.655078985610089l-.000032064630432.00258533915985c-.011211103499591.903940188860361-.739560621381315,1.640210802759611-1.618604762361429,1.640210798079352Z"/>
              </g>
              <path class="cls-26" d="M212.204713681192516,213.848105362818387c-2.989375197083064-.659626248019777-5.890140249883189-.02109765339992-7.44860767755199,1.130103918831082-4.469294438240468,3.301295888109962-5.802179264170263,11.387296132788833-4.875018542081307,17.231751848579734,1.098214004270631,6.923276107900165,5.347605978232423,10.573007856390177,6.604052382999726,11.546258836679044.164074827591321.126991644501686.340159088660585.237267455930123.497255461661553.343323736669845,3.748566140189723,2.532205276880632,7.103904478928598,3.536940447620509,8.063523129329042,3.806341252571656,3.954024826372006,1.110142292918681,7.163464777369882,2.01125552755002,9.417181029380117.366450010589688,2.23716270856039-1.632877228310463,3.280685103630276-4.185693289660776,3.280685103630276-4.185774434479754.039436382890926-.097617219389576.068973097650087-.174136785370138.088447854639526-.225095732819682.010711116339735-.028157252800156,1.833872949349825-5.210065507020772-.129669423588894-12.155169571711667-1.801090441759698-6.370436444009101-5.77377857690135-10.636300816589937-7.770914905640893-12.530302078130262-.375375940869162-.073273773148685-1.321849130300507-.309892070508795-2.168189610910304-1.134404594329681-.800412512047842-.779639437929291-1.072572240899717-1.657707543459765-1.165726495150011-2.031541732740152-.787591630369207-.649077421319816-2.275949932889489-1.6947907265494-4.39301830671684-2.161941459709851Z"/>
              <path class="cls-26" d="M205.801738164049311,220.043837007709953c-1.656977240068954-2.164943818081156-1.459146167038853-2.862789276681724-1.020152686689471-3.369782116840724,1.048466646018824-1.661975430659368,2.265021086719571-3.413948456849539,3.489632231238829-4.928051549690281,2.129308526481509-2.645369897689307,4.723972108450653-4.931825338679118,7.649205507871557-6.723586057740249,6.113819494459676-1.059085610129841,12.033711686912284-3.261480817560368,18.309731815471423-2.97677240125995,1.094340794587879.025168432890496,1.969966192537868.964196971710408,1.857090487327696,2.065014611649531-.061495963868765.633078123670202-.441091435428461,1.167497913251282-.955711888727819,1.458320950880079-1.376053870581018.764871080560624-2.803228978251354,1.317548454810094-4.229430348061214,1.870306973871266-4.185343711770656,1.476923426049325-8.646490433409781,3.53806313028872-13.047910770979797,4.158670735920168-.000014118821127-.000079816391008,1.720742950379645-1.161586780861398,1.720742950379645-1.161586780861398-1.442814422411175,3.852585047559842-3.913551477950023,7.115575962281582-6.65022370207862,10.116379049210082-.00008122876261-.000054244099374-1.390254298151376,1.463068019160346-1.390254298151376,1.463068019160346-.533033046870514,1.3503053735094-4.69796135659999-.330928911260344-5.732719297600852-1.971981434298868h0Z"/>
              <path class="cls-26" d="M209.625444408271505,226.96873601201878c-.171539525112166-1.472043120300441-.50236612540175-3.172683459699329.70015580882864-3.806552538539108,2.796749204469961-1.467646191900712,5.682483097549266-2.728404040321038,8.70518823384009-3.67830677917118,3.866276511958858-1.228918514878387,7.797348556709039-2.330753644338984,11.595727178279049-3.758626383068986,4.30095858553068-.964314757429747,9.010936554690488-2.160036332310483,13.39036877494982-2.57078098609054,2.166619456933404.046493429130351,6.282847187520019-1.756196302549142,6.741081743770337,1.482622265200916.059480957870619.903533561089716-.472323642688934,1.639071359968511-1.215461720486928,2.031832036638662-5.255334982963177,3.201502981350131-11.422832155662036,3.727828119770493-17.233040092051851,5.307230597760281.000014718479179.000065544720201.467895755019526-.165307600000233.467895755019526-.165307600000233l-2.589493520340511,1.332641391471043c-5.295377925739558,2.939506713219089-10.362576551848178,6.493819646759221-16.130014084480536,8.453564748719145-.63895758318904.281366869539852-1.164768720548636.005773739379947-1.810281591770035-.498753760379259-1.021961992847537-.779105496510965-2.484772866999265-2.637466086889617-2.622126485557601-4.129562992540741h0Z"/>
              <path class="cls-26" d="M213.258947192600317,234.664754248098689c.267453329250202-4.407543229639487,2.553952088850565-3.722112928619026,4.170356918538346-4.726848099358904,5.285828130380651-2.194019927070258,10.624460380010532-4.251763592530551,16.029829559572136-6.139105892680163,3.419602993939407-.88340780353974,9.069517734799774-2.362503870230285,11.436481257338528-2.700985006700648,2.342076802460724-.741002667949942,4.717023416689699-1.403144405408966,7.12264277317081-1.991931224900327,1.289228912350154-.315653352779918,2.590304968540295.473642318820566,2.905958321329308,1.762871231179815.254470157929973,1.040114312600053-.213248588978786,2.089073410659694-1.079226116209611,2.620977710790612-5.166662045330668,3.503638931621026-12.952362276879285,6.330884273580523-17.666924864559405,8.00382185755916-5.138095051390337,2.284032811610814-10.343156708541756,4.398486145371862-15.600334618180568,6.386824373870695-1.865851275410023.375520238130775-3.061601354240338,2.441386230060743-6.276396863418995-.585883598319924-.74555861321096-.702064989289283-1.095130501080348-1.681482975949621-1.042386367580548-2.629741351440316h0Z"/>
              <path class="cls-26" d="M219.863648734170056,242.416194396748324c-.346001515759781-2.289014249028696.04641483747946-2.986129404249368.614753162139095-3.315820811028971,3.742823441791188-2.724908293570479,8.422830590012381-3.638904624309362,12.567616130691022-5.586065525511003,2.533612047189308-1.063524168588629,8.479689272018732-3.483662934289896,10.905420932531342-4.588103790079913,2.131588513768293-.740814766610129,5.219369251568423-3.447335702159762,6.820804577649142-.55527666144917,1.271550134029894,2.892118640500485-2.543033565790211,3.88386812807039-4.266904627621443,5.29773952737014-1.93341350619994,1.241029713850367-4.681112241469236,3.226769820439586-6.601988645548772,4.561260081940418-3.263901983868891,2.423442884270116-7.11748760511,3.767534060918479-10.02810755290011,6.709041602989601-1.539180484711324,1.3961212207887-3.204254442700403,2.517358275919833-5.21611339025003,2.998290226500103-.611978207190987.264398780369447-1.500676284240399-.047603055480067-3.595673266820086-2.959322659089594-.58375971544865-.744028045470259-1.086525610199715-1.648148286090873-1.19980731987016-2.561741991641611h0Z"/>
            </g>
            <path class="cls-27" d="M143.127046349060038,193.629642701349439c21.478721696079447,2.801894184349294,42.957347959940307,5.603858397140357,64.436069656012478,8.405752581498746-19.762699140062978-9.789128932048698-39.525478265310994-19.578345120378799-59.288177405382157-29.367474052429316-1.715934847310564,6.987243361620131-3.431957403308843,13.974478109310439-5.147892250630321,20.96172147093057Z"/>
            <g>
              <circle class="cls-27" cx="89.81360745448228" cy="137.960915330141688" r="89.813607454485236"/>
              <g>
                <path class="cls-16" d="M60.078366634669692,146.141426379339464c11.838343752510809-2.458997528399777,21.728516640120688-1.07986426647949,29.018074340650855,0,4.454124164659333.659829292138966,7.333156667388721,1.368904881099297,11.198141893818502,2.320815657840285,14.513637967091199,3.574562398169292,19.405805375021373,3.419872947770273,22.986054594970483,7.684831305068656,2.097015526240284,2.498054936229892,2.442331981270399,5.475659016230566,3.132964891299707,11.430867176241009.987216461870048,8.512856249330071.152991302242299,16.089953875389256-1.205448247130334,22.215529737479301-29.965127623788248-5.319468876739847-72.44003888665975-10.638977245300339-102.405166510448908-15.958446122040186.238649055092537-6.327971428419914,1.186847600949477-10.561336331478742,2.454653428429083-13.401785328189362,1.215755611590794-2.723829658700197,3.309572300600848-4.125394273129132,4.372060167241216-5.04389497199918,1.515577492478769-1.310180548000062,11.279968940340041-4.220016668630706,20.378567831568944-6.353048732731622,4.427269728550527-1.037884464129093,6.671392276180995-2.188912986319338,10.070097609600452-2.8948687216689Z"/>
                <g class="cls-31">
                  <path class="cls-38" d="M20.294094742920606,165.088388870248309h109.313292484018348"/>
                  <path class="cls-38" d="M20.294094742920606,153.947129550899263h109.313292484018348"/>
                  <path class="cls-38" d="M20.294094742920606,187.37090750895004h109.313292484018348"/>
                  <path class="cls-38" d="M20.294094742920606,176.229648189599175h109.313292484018348"/>
                </g>
                <path class="cls-10" d="M59.863136227550058,146.64948861558878c1.688591146360523-.521568437949099,3.187463599910188-.889790147299209,4.423241563130432-1.153990408520258,4.352314258328988-.930506211479951,12.310191991829925-2.583831164518415,21.094593980469654-.018521662559579,1.540338862268982.449811804979618,2.788675223559039.936272016879229,3.650781606581404,1.301689807169168-.035937554222073.229605428810828-.07179612480104.459250349431386-.107733679021294.688855778240395-1.299359789920345,1.130018875110181-6.484161567899719,5.37234842081125-14.346587577720129,5.414881108601548-8.012573901170981.043362015958337-13.308584638130924-4.304766109671618-14.585157649159555-5.414881108601548-.043046081430475-.272691002050124-.086092162850036-.545342512279603-.129138244280512-.818033514329727Z"/>
                <path class="cls-6" d="M53.017578018208951,126.289655932589085c-3.566617554999539.869144017189683-7.095155958209943-1.951449905440313-7.816589623189429-6.248316630699264s1.619797409180137-8.547888118800984,5.186414964169671-9.417032135999762c.876724886342345,5.221782922228158,1.753449772670137,10.443565844469049,2.630174659019758,15.665348766699026Z"/>
                <path class="cls-6" d="M94.428305003419155,124.683011265698951c3.220944852109824.559447305089634,6.212404588010031-2.558084398919164,6.626832048462347-6.90612860283909.414427460437764-4.348044203921745-1.89498024661134-8.386339374450472-5.115925098732077-8.945786679540106-.503655800850538,5.283960514479986-1.007251148867908,10.567954767899209-1.51090694973027,15.851915282379196Z"/>
                <path class="cls-37" d="M100.045147281629397,115.28846869562949c-.100203866790253-.444290995130359-.310215278119358-1.127983043310451-.718881529866849-1.309010151049733-.87890945529216-.389347505029946-2.179999419102387,1.766237417139564-2.517847708270892,3.964827056550348-.131018466931891.852720878359833-.233394402931481,2.468226127979506.254620122787856,3.003410213368625.48211613523199.528720274120133,1.347931634030829-.208039771909171,1.674598104849792-1.474033458260237.240666483930909-.932717670279089.22560820309991-2.295981201999894-.150366558738824-2.503566349509128-.230321025430385-.127157396500479-.58245317554065.186850023050283-.803178902009677.781969058400136-.256098438560002.690396883508583-.197934276831802,1.388695901188839-.191563620400302,1.457587302420507"/>
                <path class="cls-34" d="M46.420984353319,117.245832682099717c.11795571417133-.442151143310184.362002973721246-1.121387856770525.822180952360213-1.293882027181098.989694796729964-.37099590375874,2.419798992901633,1.81143056448127,2.770160025760561,4.01679496468023.135869636589632.855348136490647.229880389470054,2.472793308990731-.323732918079259,2.997749697889958-.54692211712063.518616194191054-1.507525425089625-.236088707219096-1.857301782531067-1.508735270099351-.257692127079281-.937619072510643-.223362752189132-2.300406719399689.200528592009505-2.500136642071084.259674471073595-.122345310048331.650173433081363.198958676010079.889847832910164.798603985280351.278084959380067.695648532990162.203976584791235,1.392653036640695.195956808881419,1.461403554880235"/>
                <path class="cls-6" d="M62.307205848809645,138.215537018279065c.063976744869251,1.118605739759005.450917575871244,8.671534373319446-1.7221591915104,9.256487178869065-.171394489329032.04612644322151-.36727390572014.051220887711679-.592772185468675-.004502067229623,1.276573011028631,1.11011499892993,6.572623239809218,5.458203632741061,14.585157649159555,5.414881108601548,7.86242600982041-.042532687790299,13.047227787799784-4.284862233491367,14.346666561361417-5.414881108601548-.160020845811232.067491516660084-.394444276391368.136444230571215-.655722143092135.090594230081479-1.344143511329094-.235766152380165-1.839844808599082-3.234616830381128-2.066606826529096-4.60668105691002-.185532560120919-1.12259441335118-.345474422290863-2.776235300940243-.129138244270507-4.821990447660937-7.921821703830574.028710551559925-15.84360391582959.057381611290111-23.765425619650159.086092162850036Z"/>
                <path class="cls-17" d="M68.504933262060149,148.379467187020055c4.547482821990343,1.397536449019753,11.23597505529051-1.043808236801851,17.556877448309024-6.486215142420406-.104258399040191-1.016282439781207-.145487856838372-2.285746923611441.010820758090631-3.76380718917062-7.921821703830574.028710551559925-15.84360391582959.057381611290111-23.765425619650159.086092162850036.0377146860219.659118439420126.187033249200795,3.551657143840202-.140788330530995,5.936844464729802,1.677849371911179,2.790136420810086,4.842289242021252,3.767282469130805,6.3385157437815,4.227085704011188Z"/>
                <path class="cls-6" d="M98.309724105489295,101.572658935638174c-1.929096316879622-10.631197357190104-10.831104938999488-24.557473517848848-24.712636870059214-24.712636870068309-13.858982103090966-.154886909491324-23.357949043378539,13.520932142550009-25.14313717613004,23.421017476439374-.493805690020963,2.738402139470054-.89279152546078,8.787916760440567.905389415349418,15.381786598240069.591587430942127,2.169404028320059.616190833450673,1.436198938668895,2.084062210000411,5.962830080859931,2.54722224940997,7.855080531699059,2.59437547988091,10.436542187149826,5.30991185683979,13.490049541009284,1.21942835064965,1.371195406531115,2.393283143529516,2.181291065480764,3.932200300348995,3.243344522121333,3.616344741431021,2.49572491895924,6.865257609860237,3.55185460292887,8.610677482061874,4.104424117869712,2.027549418708986.641900006849028,3.065512866479366.971656685640482,4.621016586778751,1.00459286170917,2.716484180580665.057500086741129,4.788382910702239-.801091524490403,5.826622801190751-1.320329945179765,6.309765700400021-2.874530435499764,9.530718361810614-6.350837190939274,11.136455674379249-8.495835275840363.17952980381051-.239873301448824.455735577650557-.573184243839933.761402247570004-1.07828459377015,1.036660217790995-1.712997089760393,1.584253763679953-3.972718905439251,4.003127605162263-11.550724843318676.690080024597592-2.162019058381702,1.261684595719998-3.908307750571112,1.612766856148482-4.974547339901619,1.039661595928919-3.272686942749715,2.144800625811513-8.453894965308791,1.052141010359264-14.475686330169992Z"/>
                <g class="cls-41">
                  <path class="cls-26" d="M78.881181394218402,123.319382162988404c-1.456585602551058,4.643272917001013-8.813521619389576,5.379881656490397-10.641137303518008.639248989889893,3.875506679611135,1.245490916391645,6.934455028771481.979735794529915,10.641137303518008-.639248989889893h0Z"/>
                </g>
                <rect class="cls-12" x="54.772850052560898" y="110.624307165890059" width="14.284470433998649" height="7.911360659998536"/>
                <rect class="cls-12" x="77.246032731949526" y="110.624307165890059" width="14.284470434000468" height="7.911360659998536"/>
                <g>
                  <path class="cls-23" d="M66.446889357419423,132.105480114048987c1.404184596840423.613858524020543,5.192271796020577,2.039716318400679,9.753485695660856.93358789695958,2.297060684650205-.557040944218897,4.022267092819675-1.570014383560192,5.128196677589585-2.360787838899341.078341649829781,2.795345391490628-.961474740590347,3.987868348100164-1.370879453830639,4.383951004128903-2.373215131068719,2.296215628790378-8.119296775337716,1.590345433540278-13.510802919419802-2.956751062189142Z"/>
                  <path class="cls-13" d="M66.320695554374652,132.030075522359766c.164229186483681-.030699300341439.45995625246087.0404573673095.633420648149695.124667060608772,4.645049555388141,1.831534877161175,10.183789319629796,1.316716140479912,14.221366272344312-1.690411253590355.000010442789062.000070364860221.405039739661333-.294119088268417.405039739661333-.294119088268417.750354481792783,9.822566666449347-11.045912822423816,6.530714512249688-15.259826660155341,1.85986328125h0ZM66.568193112968402,132.180954428609766c.646019224818701.329175257158568,1.364773946937021.842453363349705,1.93710279313018,1.249905623129962,4.189941291042487,2.978164986208867,12.920997584209545,4.947898058979263,12.560264422422733-2.745293419080554.000069307884587.000148538139911.415901827415837.206691506889911.415901827415837.206691506889911-4.187385273645305,3.040960612470371-9.908662107007331,3.588456875779229-14.638918773875048,1.540212522020738-.256290773848377-.097859940509807-.139462160792391-.05108554373146-.274350269093702-.251516232960057h0Z"/>
                </g>
                <g id="_9VrKlJ" data-name="9VrKlJ">
                  <path class="cls-8" d="M85.936361767458948,123.965672957139759c-.824495285598459-.208432338140483-1.718383443469065-.334096049860818-2.538689195729603-.663121954281451-1.599667352240431-.641623053939838-3.163691151979947-1.383820160648611-4.731649752779049-2.110269001879715-.960381417780809-.44495305377859-1.888997175839904-.966550329249003-2.852587136630973-1.403045056538758-1.573676527939824-.712859025390571-3.17489937315986-.719641093890459-4.743608621269232.003499456039208-1.204535552028574.555265095519644-2.384026041170728,1.172635906199503-3.562723879278565,1.787728432629592-1.902415335202022.992758444590436-3.84605123431993,1.870937879230041-5.957286081940765,2.218666543010841-.535744029520174.08823536735872-1.157527958071114.091562204499496-1.65068291505122-.108975315160933-2.913489835549626-1.184744908608991-5.583151404489399-2.81332156137978-7.731637463519291-5.240795638988857-.729146140491139-.823830157511111-1.293139033551597-1.809836492260729-1.931169090358708-2.722840721609828-.180891774161864-.258852751871018-.14028771662106-.490477367571657.022126142378511-.763198122771428,1.707041928200852-2.866401162238617,3.97259543204018-5.173414347618746,6.497283836009956-7.221559801799231.444963128809832-.360974668390554.9152822836204-.687125255390129,1.370255172339967-1.034637788879991.57574784021017-.439762360419991,1.206425719890831-.536216385049556,1.89700904864003-.395782343879546,2.639407366030355.536742088088431,5.168083414449939,1.456328661568477,7.684352102948651,2.425055986308507.92999917123143.358035867151557,1.872566942521189.680465874711444,2.812823153683894,1.008257054621936,2.041056099116759.711548690949712,4.076575835597396.647094787998867,6.100285749087561-.079765628061068,2.21144219836242-.794288072009294,4.409090913699401-1.633365757510546,6.634104381810175-2.382632393140739,1.194317805910032-.402182796189663,2.431408958789689-.665803253759805,3.653202624110236-.974387370319164.650767857369829-.164362445641018,1.255594473529527-.033114298259534,1.81472645103986.372236982180766,3.01208478503213,2.183662709678174,5.669173011569001,4.741674486609554,7.722055193180495,7.961901611908615.341211205219224.53524130220103.333184427869128.928274582980521.019744463119423,1.460880950291539-1.168663011450917,1.985857847188527-2.743179614000837,3.539502201318101-4.542478501411097,4.862978500948884-1.498281187128669,1.102056171919685-3.113115950868632,1.981083008469795-4.809004364358771,2.691125920440754-.351357138521053.147105547968749-.739393018240662.197099407529095-1.176451316021485.308679698930064ZM78.411972852709368,116.734109988079581c2.303076375112141,1.064097610189492,4.625238095241002,1.634520978350338,7.03661516648117.848430637239289,2.115105018398935-.689508371169723,3.652366207458726-2.193865724759235,4.915975025988701-4.064611745479851-4.641225264929744-2.416300448530819-8.970625381358332-1.357749176218931-11.95259019246987,3.216181108240562ZM56.408324249379802,113.772406575018977c1.539103410190364,1.971791557140023,3.295984548549313,3.54275062556917,5.741054989020995,3.997815901289869,2.242363955519977.417340335950939,4.32453289256955-.212099974189186,6.340923774669136-1.287712269569965-3.163014980129446-4.43951237319925-7.48562570499962-5.314942957838866-12.081978763690131-2.710103631719903Z"/>
                </g>
                <path class="cls-20" d="M76.730052126742521,76.715747342859686c-4.138742507562711-1.457090110290665-12.209803790919977-4.298565894270723-19.804514767742148-1.119395576110037-2.779434138190481,1.163468444799946-5.782312981599716,3.253572902929591-9.643980895320055,5.941386023780069-2.133900884100512,1.485247776399774-3.842395906640377,2.793611700779365-4.994174773370105,3.702555379719342,2.353593866630035-.229605428799914,4.707148241449431-.459210857610742,7.060742108079467-.688816286419751-1.657195151189626.874625289270625-4.280281182630461,2.547340724859168-6.544110147348874,5.510806734089783-1.318434337930739,1.725871422369892-2.144800625810603,3.404945040640087-2.669291458281805,4.735858792990257,2.841515275790698-1.750830251239677,5.683030551590491-3.501660502479353,8.524545827391194-5.252490753720849-1.223496007891299.79998575359059-5.234837911160866,3.640316274850193-6.974649945221245,9.127309442790647-1.389045708199774,4.380748367158958-.590442168228037,8.115805512959923-.172184325700073,9.643941403499412,1.262908842071738-2.296172763510185,2.525778192331927-4.592345527029465,3.788687034400937-6.888518290548745-.665911032090662,1.154898720329584-1.597365047189669,3.100502617058737-1.98047517186933,5.683030551588672-.357558918540235,2.410225133391577-.094938330041259,4.414355904131298.172223817518898,5.683030551599586,1.377711556469876-1.26290884206901,2.755423112950666-2.525778192328289,4.133134669420542-3.788687034388204.134035229679284,1.313260909790188.407674035359378,2.868804121899302.947171758600234,4.563674467290184,1.019915687028515,3.204168638838382,2.571193782820046,5.590382746988325,3.788687034399118,7.146834270919499,1.26065780845056-4.643329463840928,5.039313921130088-16.06531098107007,15.929735570491175-25.487584811151464,8.125915418318982-7.030412391988648,16.561999573799767-9.790298080348293,21.182226324211115-10.935560797128346-4.932764996642618-4.397769340641389-9.756058674292035-6.525548992980475-12.743772659659044-7.577374068800054Z"/>
                <path class="cls-20" d="M70.066518722300316,77.120262032789469c4.138742507559073-1.457090110290665,12.209764299109338-4.298565894270723,19.804514767741239-1.119395576110037,2.708585817007588,1.133810089619146,4.011420886909946,3.088062694449036,9.643980895317327,5.941386023780069,2.156332236620074,1.092343680898921,3.987093927131355,1.866541277449869,5.199729685120474,2.350868931200239-2.422112170550463.220956720699178-4.844224341099107.441913441400175-7.26633651164957.662870162110266.846072704980543.138892723269237,4.469999875440408.830789371479113,7.007981039472725,4.159120285548852,1.883838693647704,2.470489647379509,2.1538837439075,5.061784765470293,2.205460057977689,6.087545241531188-.438043243260836-.818862842510498-2.04693990125088-3.582263302650972-5.219159659469369-4.451517704690559-.786124125530478-.21542786621103-1.519961084271927-.273875756591224-2.152698989390046-.258315980370753,2.013924741568189.929321456949765,5.374599454417876,2.892222769889486,6.027478186628286,6.113570349471047.303929029940264,1.499701781718613-.055683463129753,3.152473849318994-.774908449269788,6.458017984508842-.480457455600117,2.208224485229948-.783359698280037,2.726633577749453-1.066673999319391,4.451517704681464-.391047980050644,2.380843220929819-.304244964489044,4.37747054628926-.172184325700073,5.683030551599586-1.377711556469876-1.262908842070829-2.755423112950666-2.525778192330108-4.133134669420542-3.788687034390023-.134035229679284,1.313260909790188-.407713527180022,2.868804121910216-.947171758598415,4.563674467290184-1.019915687030334,3.204168638840201-2.57123327464069,5.590382746999239-3.788687034400937,7.146834270919499-1.260657808459655-4.643329463840928-5.039313921118264-16.06531098107007-15.929735570490266-25.487584811149645-8.125915418319892-7.030412391981372-16.561999573798857-9.790298080350112-21.18222632422021-10.935560797130165,4.932764996650803-4.39776934063957,9.75605867430113-6.52554899297138,12.743772659670867-7.577374068800054Z"/>
                <path class="cls-20" d="M90.963323906300502,78.196867475158797c.869568264140071.566605855590751.49699670632981,1.771645414970408,1.101838153508652,4.028883471739391.821195985980012,3.06450578480144,2.201952855781201,3.433487237891313,2.824822881360888,5.78732168948045.357575405389071,1.351249031389671.467931422860602,3.366279671190568-.750501166930917,6.171534692839487-.96361736775907-2.159571764839711-1.927195699940057-4.319074866458323-2.890774032108311-6.478577968078753.058663398249337,1.872883573989384-.099075534850272,4.979953394278709-1.556481695301045,8.412593726859996-.848778083929574,1.999093019619977-1.900025858720255,3.547354252179503-2.797839190707236,4.661047138859431.117713470466697-3.335529818499708.235426940927937-6.67105963701033.353140411398272-10.006589455510039-.090755211030228,1.459033864121011-.577453125981265,6.349991487581065-4.487650294840932,10.574238239889382-3.121818085519408,3.372649669061502-6.763521929520721,4.524349547040401-8.298716048540882,4.915950079281174,1.372002886600967-2.232679205550085,2.744005773200115-4.465358411100169,4.115969624221179-6.698106279869535-.674884613930772,1.14967791782874-1.905919102129701,2.920986810739123-3.961638825099726,4.530418568168898-1.918578435330346,1.502028748500379-3.790632320949953,2.264212433090506-5.025592687718927,2.658933815529963.416992890627625-1.821852026208944.833951449657434-3.643684534619752,1.250944340287788-5.465536560830515-1.207906761339473.532523159970879-2.695413829169411,1.063460060609941-4.435475628399217,1.432066665220191-3.289561708630572.69692785845109-6.130639470069582.52770572674126-8.085450422800932.238497381949855-1.423596383609038-13.237169746998916,5.377903686940044-24.167963460318788,14.284410686221236-26.444806825009437,6.314367307490102-1.614165515189597,12.082301149919658,1.531502720350545,14.137841484281125,2.794243951790122,1.354690821918666-.872273742010293,3.171998458939015-1.795719761819782,4.221152411168987-1.112112332310062Z"/>
                <polygon class="cls-20" points="76.257096921562152 107.906906577049085 87.631120359062152 102.454636069238404 87.997819577812152 102.278854819238404 88.262712155937152 102.397507162988404 93.323259030937152 104.664230795799085 93.119157468437152 105.242966147359766 87.756120359062152 103.833908530179542 88.387406980155902 103.776779623929542 77.921891843437152 110.817184897359766 76.257096921562152 107.906906577049085 76.257096921562152 107.906906577049085"/>
                <polygon class="cls-20" points="67.144364987968402 110.817184897359766 56.678849851249652 103.776779623929542 57.310075437187152 103.833908530179542 51.947099362968402 105.242966147359766 51.742997800468402 104.664230795799085 56.803544675468402 102.397507162988404 57.068376218437152 102.278854819238404 57.435136472343402 102.454636069238404 68.809098874687152 107.906906577049085 67.144364987968402 110.817184897359766 67.144364987968402 110.817184897359766"/>
              </g>
              <path class="cls-6" d="M40.763461018270391,187.137276242259759c-1.411142584531262-.786519164950732-.804255810789982-5.874287419170287,1.495753738649-9.42149763002999,1.242653455939944-1.916428075361182.378992118001406-2.26123605839166,7.290910294659625-6.165469549290719,1.022053832901292-.577239308999197,1.731283273852569-1.513245188469227,2.486716866151255-1.262041788289935.940556237590499.312758638479863,1.399462148159728,2.059036090529844,1.140401800679683,3.461488997540073-.273063447300956,1.479525374310469-1.24425403108944,2.030832546219244-2.672395561319718,3.684523274339881-1.980320009470233,2.293021660671002-1.569164017120784,2.919184188400322-3.224034991761073,5.071508255710796-1.775596389368729,2.309378297448347-5.167364619948785,5.383828895279294-6.517352147058773,4.631488440019893Z"/>
              <line class="cls-33" x1="49.391890809880351" y1="129.345220833738495" x2="49.391890809880351" y2="197.604971246959394"/>
              <path class="cls-6" d="M56.195135314518666,177.342051332389019c-.724402508628373-.44350701599069-1.982334950996119-.946145495010569-4.07813497270854-.684157340290767-.272657069950583.344351338480919-.558897541809529.615851031030616-.83611047003069.831502003700734-2.325960298198879,1.809506941779546-5.591479561910091.913570582280954-6.325888124159974.693879310359989-1.549791455388913,1.835263849530747-3.09958291077055,3.670569785499538-4.649379626960581,5.505833635019371-.444901129659229,1.62087547038027-.5734647145091,2.961076401979881-.611758123708569,3.854108796391301-.097072398210003,2.2637460026599.343125570600023,4.119337607809939,1.223521508229169,7.830520818090008.332682870061035,1.402362619079213.503911594159945,2.110130458129788.743699146220024,2.432975620358775,1.234669156820019,1.662288537731001,3.736908553190005,1.749449576840561,7.568543184970622,2.011900682520718,1.767083799619286.121040631820506,3.254608351398929.073314596880664,4.323172809479729,0,.692269503630087-.410384979399169,1.597233406781015-1.071184339629326,2.383145262900143-2.107689443979325.000042086450776-.00004208646169.50977213240003-.672331047690022.887192899399452-1.480727590020251.960970447220461-2.058364123940919,4.949755885390914-15.47333606669963-.628003493630786-18.888146492150554Z"/>
              <g>
                <path class="cls-9" d="M27.082095608189775,140.580119591468247c-3.72244902294824.907118368510055-7.405155152469888-2.036712005648951-8.158109457191131-6.521316002728781-.752954304728519-4.484603997090744,1.690569058831898-8.921359603449673,5.413018081771952-9.828477971970642.915030458470937,5.449931324899808,1.83006091695097,10.899862649799616,2.745091375419179,16.349793974699423Z"/>
                <path class="cls-9" d="M70.866188214350586,138.903277940169573c3.361673303309544.583890490668637,6.48383490301876-2.669851371660116,6.916369390229193-7.207868876781504s-1.977775093269884-8.752752525087999-5.339448396569423-9.33664301574936c-.525661362588835,5.514825559819656-1.05125963106002,11.029686332700294-1.576920993659769,16.544511892530863Z"/>
                <path class="cls-35" d="M76.728439697209978,129.098272140759946c-.104581940800927-.463702809520328-.323769100870777-1.177266503271312-.750290662570478-1.366202987190263-.917310474877922-.406358746720798-2.275247228650187,1.843407274909623-2.627856672899725,4.138056961599432-.136742882210456.889977675360569-.243591793550877,2.576067043020885.265744900509162,3.134634213469326.503180593061188.551820944490828,1.406825014661081-.217129376429511,1.747764088282565-1.538436437838755.251181603898658-.973469660521005.235465401668989-2.396296449040165-.156936324412527-2.612951337780032-.240384135069689-.132713115170191-.607901525967463.195013812119214-.838271127458938.816134590430011-.267287806359491.720561474499846-.206582355418504,1.449370340609676-.199933354400855,1.521271722029269"/>
                <path class="cls-32" d="M20.197285766941604,131.141156623498318c.12310939598774-.461469463998583.377819487238412-1.170383162028884.858103409057549-1.35041389035905,1.03293621262128-.387205333390739,2.525524045680868,1.890574986229694,2.891192936260268,4.192295434279004.141806007551168.892719722791298.239924246980081,2.580833771789912-.337877349069458,3.128726380640728-.570818056350618.541275400461018-1.57339172455977-.246403816490783-1.93845039426742-1.57465442971079-.268951125792228-.978585213179031-.233121843270965-2.400915324669768.209290020547996-2.609371780679794.271020081699135-.127690780649573.678580594470077.207651512300799.928726768459455.833496324979933.290234954940388.726042577320186.212888661899342,1.453500369920221.204518488599206,1.525254712931201"/>
                <path class="cls-9" d="M74.353131078090883,116.134172397309158c-2.013381751530687-11.095692096170751-11.304333973550456-25.630430482939119-25.792373180731374-25.792373180729555-14.464504139619748-.16165417683078-24.378496784100207,14.111684212639375-26.241682762989512,24.444320782158684-.515380883989565,2.85804749495037-.9317990758409,9.171875496660505.944947388551554,16.053842502280531.617434872218837,2.264188907580319.643113238397746,1.498948865009879,2.175118362917601,6.223356069500369,2.65851463672243,8.198282097690026,2.70772807045978,10.892532117190058,5.541910759600796,14.079452298748947,1.272707208569045,1.431105220181053,2.497849674641657,2.276595309220284,4.104004688021632,3.3850516522416,3.774348873078452,2.604767302049368,7.165212161969976,3.707041052888599,8.986892338688449,4.283753251289454,2.116136433540305.669945688450753,3.199450235040786,1.014109986390395,4.822916506529509,1.04848519890038,2.835171903890114.060012361409463,4.997595344209913-.836092548930537,6.081197666680964-1.378017362010723,6.585449884742047-3.000123463209093,9.947131338549298-6.628315857180496,11.623025991711074-8.867032484979063.187373760280934-.250353765941327.475647424917952-.598227619180761.794669181327663-1.125396645600631,1.08195363122104-1.787840788860194,1.653472452189817-4.146293618519849,4.178030925029816-12.055395271379894.720230771520619-2.256481275990154,1.316809699450459-4.079068232909776,1.683231329222508-5.191893607739985,1.085086144587876-3.415676092159629,2.238510541387768-8.823259732360384,1.098110805439319-15.108153202680114Z"/>
                <g class="cls-41">
                  <path class="cls-26" d="M53.700334226249652,137.811569662988404c-1.535353933385522,4.686431933010681-8.877203108956564,4.974917341371111-10.208022675180473-.00014754231961,1.824609230899114.637693310160103,3.277671137618199,1.232261316919903,5.061114952448406,1.23010610486017,1.764970733195696-.001210152438944,3.342917031871366-.631848465580333,5.146907722732067-1.22995856254056h0Z"/>
                </g>
                <g class="cls-41">
                  <path class="cls-26" d="M53.225419675468402,127.028000327049085c.90328987128396-1.916140121349599,3.218353685095281-3.265644165419872,5.337188720637641-2.797798600950046-1.962297766014672.87491541846066-3.500270757316684,1.689716996630523-5.337188720637641,2.797798600950046h0Z"/>
                </g>
                <g class="cls-41">
                  <path class="cls-26" d="M38.501420652030902,124.234177084859766c2.110683359122959-.179682045671143,4.439523809667662,1.145925799619363,5.097578696171695,3.213684003199887-1.741239359274914-1.258606822349975-3.217570653571784-2.180461810230554-5.097578696171695-3.213684003199887h0Z"/>
                </g>
                <g class="cls-41">
                  <path class="cls-26" d="M42.272599851249652,131.677902670799085c-.723876953125.558715820310681-1.6783447265625.716796875-2.5618896484375.587524414060681.849844872632275-.270371538959807,1.692903448211837-.364074611499746,2.5618896484375-.587524414060681h0Z"/>
                </g>
                <g class="cls-41">
                  <path class="cls-26" d="M56.112748777030902,132.066574545799085c-.861716964085645.116276525130161-1.784272971343853-.102426054909301-2.44683302168778-.674927551350265.852337006186644.214141734330042,1.603482837943375.422466436530158,2.44683302168778.674927551350265h0Z"/>
                </g>
                <g>
                  <path class="cls-23" d="M56.630015290981646,150.234293287558103c-1.713468322982408-.112591484068616-3.493122412942284-.188770476259378-5.334971859821962-.219076952718751-3.569697006138085-.058738148200064-6.929484682678776.062109356698784-10.050673357259257.300020356929963,1.607791256359633-3.051717699299843,4.811677739578954-4.902459568620543,8.175524626370134-4.725316321690116,4.761797613739873.25075943264892,7.089995487639499,4.420204751910205,7.210120590711085,4.644372917478904Z"/>
                  <path class="cls-13" d="M56.767900144218402,150.315109702049085c-5.29672539195326-.078144304730813-10.743510203642472-.190092664690383-15.99297972524073.31489457465068,3.077290396493481-6.669669238590359,12.146032433989603-7.068157662750309,15.846751959667017-.737937103471268.066993260013078.132166872490416.166354266548296.199420088039915.146227765573713.423042528820588h0ZM56.483781491874652,150.152023764549085c-.07183837890625.030639648439319-.0289306640625.12060546875-.06939697265625.037841796880457-.045427817873133-.072023847200398-.183085206309443-.290059591950921-.235364122545434-.363405258010971-3.573206745907555-5.514434400778555-11.629974885360753-5.221793406339202-14.69085235298644.617265701021097.000007979438124-.000198333640583-.264640458061876-.403152435201264-.264640458061876-.403152435201264,5.006480901940449-.374852734308661,10.267157860658699-.369407528278316,15.26025390625.111450195310681h0Z"/>
                </g>
                <path class="cls-7" d="M53.629411374687152,118.928024741109766c3.828407735351902,2.055723219518768,8.338566348696077,2.701675185890053,12.670168991314313,2.039392599899656-.000002975689313.000036111039663.201535110248187.229650368850344.201535110248187.229650368850344l2.70849609375,3.087890625-.44122314453125.46435546875-3.22149658203125-2.548217773430224.62799072265625.173828125c-4.38763427734375,1.376953125-9.3477783203125,1.351928710930224-13.91400146484375-.226318359380457l1.3685302734375-3.220581054689319h0Z"/>
                <path class="cls-7" d="M45.596513425468402,121.839767905179542c-4.422972114598451,2.591767446068843-9.958583936411742,3.026662614629458-14.694829366595513,1.334320258200023.000005147845513.000030327730201.569035909564263-.144256781641161.569035909564263-.144256781641161l-2.53472900390625,1.94384765625-.4349365234375-.47021484375,2.13531494140625-2.375610351558862.18377685546875-.204467773441138c4.498416514375094.833870848820879,9.318934020418055-.083923588639664,12.822500613943703-2.986631921819935.000009151681297.000059656191297,1.953866573556297,2.903013757761073,1.953866573556297,2.903013757761073h0Z"/>
                <path class="cls-23" d="M66.270505062959273,127.185692517368807c-.109878102190123.222631785090925-2.012828355020247,3.912898986231085-6.208394224939184,4.319069078019311-3.881416830770831.375759930480854-6.366499402160116-2.384323462309112-6.602652943080102-2.65598274858894.382997037550012-.502262937929117,2.347193136789429-2.970440594510364,5.916180163529134-3.490879907709314,3.749869717512411-.546810688860205,6.434903107410719,1.470169075979356,6.894867004490152,1.827793578278943Z"/>
                <path class="cls-23" d="M30.656869171800281,127.554976852679829c.12238770446038.216007775019534,2.232560074189678,3.791824360168903,6.444455036278669,3.958221297300042,3.89652339595159.153940132309799,6.220264616952591-2.743286551880374,6.440551964131373-3.027963118151092-.410999416100822-.479618879478949-2.512668964340264-2.831841736850038-6.105515908740927-3.148032043289277-3.774938589529484-.332209983360372-6.340656474809293,1.834516443730536-6.779491091669115,2.217773864140327Z"/>
                <g class="cls-43">
                  <circle class="cls-3" cx="59.704181153422269" cy="127.913307986133987" r="3.20687291664586"/>
                </g>
                <g class="cls-44">
                  <circle class="cls-3" cx="37.440363317849688" cy="127.743869949459167" r="3.206872916644044"/>
                </g>
                <path class="cls-21" d="M53.404008542655902,128.807785483299085c2.710269340715968-4.356841454669848,9.252571219422862-5.3434128216104,13.043907491718528-1.840874265619277-.000023214374778-.000190187500266-.354881612813188.437676023429958-.354881612813188.437676023429958-3.835230945082913-2.974296637341467-9.473779414745877-2.262792390100003-12.578152735900403,1.485417648089424-.000033299251299-.000188155900105-.110873143006756-.082219405900105-.110873143006756-.082219405900105h.000000000001819Z"/>
                <path class="cls-21" d="M43.488908444999652,128.529343100488404c-3.312982764889966-3.565221357739574-8.983447375258038-3.953787085978547-12.642404562691809-.765678268518968.000009543161468-.00019087210967-.379262917776941-.41718305960967-.379262917776941-.41718305960967,2.651547723041404-2.678833973601286,7.142226614157153-3.290648037820574,10.385809625981892-1.323781759230769,1.072259221674358.616018087359407,2.014886174799358,1.439016134230769,2.741814885736858,2.418508321730769l-.10595703125.088134765628638h0Z"/>
                <g class="cls-41">
                  <path class="cls-26" d="M48.097245847343402,126.352951498929542c.62573138611333,2.356841843198708.384948983129107,4.965690813309266-.675001254530798,7.162969346300088.304753088259531-2.39630044677142.527880833341442-4.751700965411146.675001254530798-7.162969346300088h0Z"/>
                </g>
                <path class="cls-25" d="M50.030727533371646,93.203560594829469c-.493515239971202.19988130216916-.910529259291252.465015740410308-1.550229726451107,1.002055707360341-1.467153133409738,1.231717175278391-2.505952914169939,2.310845627758681-3.47283846496066,4.002287190009156-.570764125530332.998478599329246-1.085715974839331,2.577132871470894-.711752933450043,5.065763907439759,1.223974890950558-1.512661087190281,2.447903050220702-3.025278499830165,3.671831209479933-4.537895912459135-.443710964540514,1.476593846318792-.977036574020531,3.980302286689039-.546097363190711,7.018404064219794.250987513891232,1.769318916109114.758531014619621,3.223136368169435,1.236220400651291,4.29891425049027.613577781250569-2.676848273060386,1.227169101571235-5.35372100386121,1.840746882819076-8.030569276919778-.237178436029353,1.179245310129772-.887166701379101,5.170948044959005,1.326033669231037,9.358430105328807,1.766942904108873,3.34328388537142,4.418091612220451,5.031011023509564,5.555618577378482,5.667827899111217-.617451063350018-2.065961064421572-1.23490212670913-4.131922128830411-1.852313009560021-6.197928614790726.29282301179046,1.057130808090733.896013052220951,2.726391040090675,2.189188829541308,4.441804019199481,1.206911503710216,1.600935182659668,2.533685328569845,2.603815907321405,3.431850126598874,3.17944154936049.054726466141801-1.536845045669907.109472585820185-3.073684850409336.16419948867042-4.610557847759992.847433903470119.679478448129885,1.917511366909821,1.416952920149924,3.222790855101266,2.078940113480712,2.467596493808742,1.251495809568951,4.762259862778592,1.719301572289623,6.377734019839409,1.903822931628383,1.708330618491345-8.800788399759767-1.115626586461076-17.302052178420126-7.312566898370278-21.674758866369302-3.832319580580588-2.704183803019987-7.95910734482095-3.12695046412955-10.270229423880664-3.154377354339886-.69292428333938-.164177002439828-1.966057079557686-.351913169080944-3.300186239447612.188396135010407Z"/>
                <path class="cls-25" d="M72.465324573099679,132.066504816719316c-.04582091561042-4.109159167170219-.604306324629761-7.326633684670014-1.116592417100037-9.530612845179348-.456592351959443-1.964348155930566-.819238066890648-2.87718885897084-1.350065806139355-5.100328867820281-.86361417884109-3.616756324870948-1.200631829119629-6.63175193151983-1.350100206220304-8.625546561750525-8.645533012169835,3.464948741859189-16.648850804068388-.483252419220662-18.076179205139852-5.550385203299811-.959384020470679-3.405918192929676.981675276709211-7.567881493319874,4.316935691379513-10.611979573399367,1.759358038750179-.413179442430192,6.358408841892015-1.252197559220804,10.978684498569237,1.072353905488853,2.138859796221368,1.076103514940769,4.284530809620264,2.825485528530407,6.122114645741021,5.607936548491125,5.425788088939953,8.215463127129624,5.797790627480936,21.851313529579784.475202798909777,32.738562597469354Z"/>
                <path class="cls-25" d="M61.578645560879522,92.81159810041936c-4.041253395836975,13.091125028138777-9.924597039169385,18.114191301039682-14.545870298379668,20.283116773109214-5.335109460160311,2.503947917321057-9.100198959260524,1.398122727379814-13.41149303641032,4.540845856290616-6.184000401870435,4.507821772969692-7.404446680979163,13.420815459929145-7.434099555790453,20.411119496060564-.769082740348495-2.19345273395993-1.98392180531755-5.726513647659885-3.187718442427467-9.563120927201453-.293295139971633-.934822358498423-.69457215237253-2.233804035749927-.975036059960075-4.012770123979863-.283215914531866-1.796544532578991-.320849609481229-3.306295541589861-.303924766782075-4.335064537110156-.219678954239498.273790290750185-.474273996569536.654840052120562-.67114569325895,1.147346094679961-.411975439390517,1.030695400389959-.336708049499975,1.963006552561637-.262507062290751,2.437658950071636-.780331568730617-1.013460956901326-1.898643990170058-2.76951658732105-2.366553970679888-5.185090681679867-1.003725732339262-5.181788273341226,1.78897651348052-9.251318540531429,2.400162855470626-10.100656683360285-.345445671539892.158515599920065-.95604721205018.494432447419968-1.496231774910484,1.147346094689055-.637433608200809.770424343731065-.834924506460084,1.569091158720767-.903931080560142,1.952858526950877-.116237893260404-1.19316701029129-.154249989159325-3.014410805189982.400038609270268-5.100328867831195,1.059453872940139-3.987073259158933,3.630447559409731-6.485929963630042,5.60033412931989-8.400569994149919,1.874873530191508-1.822275797499969,3.551017759009483-2.923594576059259,4.900326763240628-3.800246387800144,2.921943371889938-1.898368789468805,5.585438891729609-3.076055760710005,7.500491723300001-3.800246387798325-.988899294940893-.189200477341728-1.989116218431263-.38899618141113-3.000203569340556-.600006313781705-.647719234160832-.135157940998397-1.2894528532197-.272758288148907-1.925132057000155-.412560240858511,2.583343317630352-.577818257810577,5.619907778700508-1.023092981211448,9.025585171029888-1.087558743851332,9.037590801299302-.171071631599261,16.256311413719231,2.423314113881133,20.656908116159684,4.47792809755083Z"/>
                <ellipse class="cls-29" cx="64.251232340817296" cy="136.403949242406725" rx="8.359287740946456" ry="6.71111921432248"/>
                <ellipse class="cls-30" cx="32.787996670327175" cy="136.403949242406725" rx="8.359287740947821" ry="6.71111921432248"/>
              </g>
            </g>
          </g>
          <g>
            <path class="cls-16" d="M112.724382077812152,123.872238608299085l7.2412109375,14.53125-3.529296875,1.7587890625-2.8544921875-5.7294921875-5.583984375,2.7822265625,2.8544921875,5.7294921875-3.529296875,1.7587890625-7.24072265625-14.53125,3.52880859375-1.7587890625,2.7109375,5.439453125,5.583984375-2.7822265625-2.71044921875-5.439453125,3.52880859375-1.7587890625Z"/>
            <path class="cls-16" d="M120.833757077812152,124.029465170799085l1.07568359375,2.1591796875,5.89599609375-2.9375,1.67578125,3.36328125-5.89599609375,2.9375,1.1376953125,2.283203125,6.47705078125-3.2275390625,1.67578125,3.36328125-10.005859375,4.9853515625-7.2412109375-14.53125,10.005859375-4.9853515625,1.67578125,3.3623046875-6.4765625,3.2275390625Z"/>
            <path class="cls-16" d="M142.802507077812152,122.826340170799085l1.67578125,3.36328125-9.4248046875,4.6962890625-7.240234375-14.53125,3.52880859375-1.7587890625,5.56494140625,11.16796875,5.8955078125-2.9375Z"/>
            <path class="cls-16" d="M153.150163327812152,109.948410483299085c1.60302734375,3.216796875.365234375,6.1416015625-2.70703125,7.671875l-2.69921875,1.3447265625,2.234375,4.4833984375-3.529296875,1.7587890625-7.240234375-14.53125,6.2275390625-3.103515625c3.072265625-1.5302734375,6.1103515625-.841796875,7.7138671875,2.3759765625ZM149.600358640312152,111.768722983299085c-.54833984375-1.099609375-1.4296875-1.361328125-2.6337890625-.76171875l-2.5537109375,1.2724609375,1.6552734375,3.3212890625,2.55322265625-1.2724609375c1.2041015625-.599609375,1.52734375-1.458984375.97900390625-2.5595703125Z"/>
            <path class="cls-16" d="M159.065690671562152,106.327316733299085l2.25439453125,5.095703125-3.072265625,1.53125-2.7109375-4.8681640625-2.2138671875-4.443359375,3.52880859375-1.7587890625,2.2138671875,4.443359375ZM163.587175046562152,114.465012045799085c.58935546875,1.18359375.10009765625,2.490234375-1.12451171875,3.1005859375s-2.5625.2138671875-3.15185546875-.9697265625c-.58935546875-1.1826171875-.10009765625-2.4892578125,1.12451171875-3.099609375s2.5625-.2138671875,3.15185546875.96875Z"/>
          </g>
        </g>
      </g>
    </g>
  </g>
</svg>