<?xml version="1.0" encoding="UTF-8"?>
<svg xmlns="http://www.w3.org/2000/svg" width="185.171511166061464" height="213.417849046015363" xmlns:xlink="http://www.w3.org/1999/xlink" viewBox="0 0 185.171511166061464 213.417849046015363">
  <defs>
    <style>
      .cls-1 {
        stroke-width: .512907353725348px;
      }

      .cls-1, .cls-2, .cls-3, .cls-4 {
        fill: none;
      }

      .cls-1, .cls-3, .cls-5, .cls-4, .cls-6 {
        mix-blend-mode: multiply;
      }

      .cls-1, .cls-3, .cls-4 {
        stroke-miterlimit: 10;
      }

      .cls-1, .cls-5, .cls-4, .cls-6 {
        opacity: .6;
      }

      .cls-1, .cls-4 {
        stroke: #f1b068;
      }

      .cls-7 {
        clip-path: url(#clippath);
      }

      .cls-2, .cls-8, .cls-9, .cls-10, .cls-11, .cls-12, .cls-5, .cls-13, .cls-14, .cls-15, .cls-16 {
        stroke-width: 0px;
      }

      .cls-8 {
        fill: #e2b186;
      }

      .cls-3 {
        stroke: #151c22;
        stroke-width: 12.1548646537236px;
      }

      .cls-9 {
        fill: #000;
      }

      .cls-10 {
        fill: #505050;
      }

      .cls-11 {
        fill: #910000;
      }

      .cls-12 {
        fill: #e9e9de;
      }

      .cls-5, .cls-16 {
        fill: #f1b068;
      }

      .cls-13 {
        fill: #de5f56;
      }

      .cls-17 {
        isolation: isolate;
      }

      .cls-14 {
        fill: #4d3329;
      }

      .cls-4 {
        stroke-width: .484541822660035px;
      }

      .cls-15 {
        fill: #fff;
      }
    </style>
    <clipPath id="clippath">
      <path class="cls-2" d="M67.392666906343948,130.991901468964898c20.460697179491035-6.838775634765625,38.924063783848396-2.52490234375,49.155235905704103,0,13.667283086268071,3.372894287109375,11.584668084016812,5.455352783203125,23.402716793470972,7.6419677734375,4.685255637350565.86688232421875,16.251806014919566,2.61907958984375,28.729657485400821,7.452423095703125,1.993785199601916.772308349609375,3.891063602298345,1.576873779296875,5.774020921160627,3.43402099609375,5.475874380530513,5.40081787109375,4.591233394949086,14.419464111328125,5.307092172230114,21.1676025390625,1.672300596430432,15.764068603515625.259175326144032,29.7952880859375-2.041968807197918,41.138580322265625-50.759504374836979-9.850555419921875-122.709969539308076-19.701202392578125-173.469473914145055-29.5517578125.404256559443638-11.718109130859375,2.010465214398209-19.557403564453125,4.158055504411095-24.817352294921875,2.267281609578276-5.5531005859375,6.247565843324992-8.337310791015625,7.406066151337654-9.340240478515625,10.342111667965582-8.9534912109375,19.810609305741309-4.973358154296875,38.921467563970509-11.612548828125,7.783662603447738-2.704071044921875,5.793981106231513-3.21875,12.657130223657077-5.5126953125Z"/>
    </clipPath>
  </defs>
  <g class="cls-17">
    <g id="Layer_2" data-name="Layer 2">
      <g id="Layer_1-2" data-name="Layer 1">
        <g>
          <path class="cls-14" d="M125.890421812184286,36.304238489708041c7.994374588201936,3.8354281869224,23.584296442855702,11.314976280154951,29.887067385978298,26.712963353623309,2.247824843527269,5.491516388184209,1.314939464902636,10.145263176870685,5.280929277620089,22.272767939171899,1.518318980159165,4.642808664727454,3.026434824798343,8.365785205948669,4.066067672631107,10.791090181240179-3.775378318328876-3.146968646678033-7.550756636665028-6.293937293361523-11.326134954999361-9.440905940047742,1.009891166826492,1.407894784297241,5.196842598281364,7.576763438353737,4.063787165148824,15.958827470016331-.841030225174109,6.221670184142567-4.1597435807289,10.308867636005743-5.552466080989689,11.847694595890061.544957984497159-1.795793480339853,2.197422778825057-8.042781750549693-1.090810161019363-13.819226656578394-.814854717508751-1.431509795082093-1.779440324768984-2.564057042458444-2.705424595344994-3.446371569849362,1.547968629743991,4.206383293827457,3.54193513437167,11.81429408139411-.130675813172275,17.348681299181408-1.709815567655824,2.57651216726299-4.58619217551859,4.423080588039738-10.338945391236848,8.116217429585959-3.843033789382389,2.467166559719772-5.016767924127635,2.774593338246632-7.887256417137905,4.833232590513944-3.96209941394045,2.841534646140644-6.692422705387798,5.817411110107059-8.370180314919708,7.870933596808754-.162380166906587-3.773339993538684-.324816789856413-7.546623580852611-.487196956775733-11.319963574398571-2.068831703852993,1.684120942220034-4.683473602064623,3.514665559039713-7.876906307083118,5.164262239220989-6.037307599504857,3.11848580789956-11.664300027490754,4.309013413629145-15.62823646322795,4.791669066209579,4.837331517621351-8.434264655195875,15.768710823967922-30.150125960448349,13.683635936866267-59.176517046528716-1.555842252391813-21.658056138177017-9.659685203589106-37.659917638184197-14.621537694027211-45.900602628538763,13.332363899888151.770356219452879,23.26327688330457,4.626446326130463,29.034283711689568,7.395247654479135Z"/>
          <path class="cls-14" d="M37.907172058767173,41.347238792023745c-2.65814208984375,6.136489868164062-3.57415771484375,9.376251220703125-6.40106201171875,17.65850830078125-5.213104248046875,15.273330688476562-6.181243896484375,16.072219848632812-8.83758544921875,25.307357788085938-1.700775146484375,5.9129638671875-2.884490966796875,10.86602783203125-3.642333984375,14.25457763671875,3.978759765625-3.9354248046875,7.957489013671875-7.87078857421875,11.936248779296875-11.806182861328125-1.737091064453125,4.080078125-4.056182861328125,11.067596435546875-3.78857421875,19.8887939453125.155792236328125,5.1373291015625,1.145233154296875,9.4541015625,2.169219970703125,12.680877685548694,2.603515625-7.457061767579944,5.207061767578125-14.914123535158069,7.81060791015625-22.371185302736194-1.05218505859375,3.295562744140625-4.1771240234375,14.49957275390625.820159912109375,27.172027587892444,3.989776611328125,10.117523193359375,11.03240966796875,15.78338623046875,14.08184814453125,17.964813232421875-1.10919189453125-6.1015625-2.21844482421875-12.203125-3.32763671875-18.304718017578125.50146484375,3.114776611328125,1.695892333984375,8.07781982421875,4.848052978515625,13.391693115234375,2.94183349609375,4.9593505859375,6.416107177734375,8.2471923828125,8.800750732421875,10.17779541015625.644256591796875-4.375762939453125,1.28851318359375-8.75146484375,1.9327392578125-13.127227783203125,2.206756591796875,2.211273193359375,5.03155517578125,4.658935546875,8.552490234375,6.965545654296875,6.65643310546875,4.36065673828125,13.067352294921875,6.4261474609375,17.626556396484375,7.46636962890625,1.9110107421875-10.590087890625,5.61627197265625-39.195709228517444-8.802459716796875-70.581604003908069-11.84027099609375-25.773239135742188-29.980865478515625-40.532394409179688-38.91900634765625-46.89703369140625-1.229095458984375,2.338485717773438-2.98272705078125,5.825714111328125-4.860015869140625,10.159591674804688Z"/>
          <path class="cls-12" d="M67.392666906343948,130.991901468964898c20.151523683472988-7.154083251953125,38.677981222457674-2.675018310546875,49.155235905704103,0,12.759331954484878,3.257659912109375,12.44471477163097,5.521514892578125,25.046151891490808,7.974639892578125,4.133963700613094.80474853515625,11.011238487473747,1.893341064453125,20.491544738233642,4.80303955078125,8.896910519855737,2.73065185546875,10.944518428290394,4.259368896484375,12.36869857030797,5.750732421875,4.685283553694717,4.90625,4.349952444514201,12.144989013671875,5.307092172230114,21.1676025390625,1.672300596430432,15.764068603515625.259175326144032,29.7952880859375-2.041968807197918,41.138580322265625-50.759504374836979-9.850555419921875-122.709969539308076-19.701202392578125-173.469473914145055-29.5517578125.404256559443638-11.718109130859375,2.010465214398209-19.557403564453125,4.158055504411095-24.817352294921875,2.246372268855339-5.50189208984375,6.185535729720868-8.28125,7.406066151337654-9.340240478515625,10.859150252141262-9.42181396484375,20.796614531867817-4.761993408203125,41.150392118603122-12.427642822265625,6.627953929710202-2.496246337890625,4.833435584698236-2.71136474609375,10.428205669024464-4.697601318359375Z"/>
          <g class="cls-7">
            <path class="cls-3" d="M0,166.077776128683581h185.171511166061464"/>
            <path class="cls-3" d="M0,145.446455833442997h185.171511166061464"/>
            <path class="cls-3" d="M0,207.340416719153836h185.171511166061464"/>
            <path class="cls-3" d="M0,186.70909642391689h185.171511166061464"/>
          </g>
          <path class="cls-10" d="M64.666589759373892,131.932726081674446c3.126923428460941-.965837450756226,5.902526866500921-1.647708306431014,8.190933431889789-2.13695283929701,8.059590654460408-1.723106081233709,22.795943133471155-4.784723774580925,39.062848501631379-.034298308808502,2.852390696560178.832958928160224,5.164052831678418,1.733783166702779,6.760496501708985,2.410461741084873-.066548957389386.425182020047941-.132951653329656.850437170811347-.199500610709947,1.27561919085565-2.406147028468695,2.092562490804994-12.007333311150433,9.948484083368385-26.566928834119608,10.02724587139528-14.837638529539618.080297533197154-24.644760926510571-7.971541264683765-27.008711528149433-10.02724587139528-.079712487409779-.504967638182279-.159424974830472-1.009862145645457-.239137462251165-1.514829783835012Z"/>
          <path class="cls-8" d="M53.534555230602564,94.979844421020971c-6.206490040738572,1.512450831493879-12.346716213076434-3.395837713553192-13.60212719777337-10.873079140626032-1.255410984702394-7.477241427079207,2.818708855951627-14.874704579518948,9.025198896686561-16.387155411022832,1.525642767031968,9.086744850548712,3.05128553405666,18.17348970110379,4.576928301086809,27.260234551648864Z"/>
          <path class="cls-8" d="M125.298537932580075,95.345220829934078c5.359103799310105,1.908764818581403,11.408342482436638-2.556202400275652,13.400582344016584-9.891046665790782,1.992239861570852-7.334844265509673-.778246524674614-14.941251439921871-6.137350323973806-16.850016258495089-2.421108584707326,8.91366241472133-4.842123435317262,17.827400509562722-7.263232020042778,26.74106292428587Z"/>
          <path class="cls-4" d="M137.700370475318778,80.88882005938467c-.040906985133915-.791501248875647-.19957815780981-2.025943646692212-.847095729690409-2.45685411796785-1.392596831488845-.926777927903458-4.259303606715548,2.386628686383119-5.486705286422875,6.057683071417159-.476019691974216,1.423819532175003-1.127730342144787,4.164272072758649-.448508595965905,5.225955337939013.671010944903173,1.048859275000723,2.373046186232386.04047987812919,3.306409173061184-2.034448387317752.687645602809425-1.52869943398855,1.063611535399104-3.871163202597018.479987941169384-4.337986191760137-.357528634460323-.285959545487458-1.053989301017282.148786779833245-1.607936495616741,1.10437453083523-.642693139539915,1.108565958320469-.748748274281752,2.323306062022311-.758126652161081,2.443333874016389"/>
          <path class="cls-1" d="M42.055417853911422,79.242132690268591c.205261975504982-.769414333092755.629943585618093-1.951395813406634,1.430727520904838-2.251563502889439,1.722228639486275-.645592734945239,4.210840696681771,3.152181467349692,4.820525426701352,6.989871372398738.236435091035673,1.488443773037943.400028970250787,4.303059357614984-.563347513707413,5.216568179163005-.951732732930395.902475859715196-2.623337487888421-.410832444893458-3.232004788331324-2.625442813422524-.448425881286312-1.631608476611291-.388687229733478-4.003078876134168.348952106571232-4.350641169176924.451875479706359-.212900580633686,1.131406682923625.346220199420713,1.548478811526365,1.389699793903674.48391269998865,1.210540694446536.354952170390789,2.423440996643876.340996466260549,2.543077991683276"/>
          <path class="cls-8" d="M69.192507669960833,116.314777445525579c.11846923828125,2.071441650392444.834991455078125,16.057891845704944-3.189086914061591,17.141113281251819-.3173828125.085418701171875-.680114746094659.0948486328125-1.097686767579034-.008331298828125.97607421875,2.753082275390625,4.301116943359375,10.993896484375,13.071807861329034,16.431488037109375,5.482086181639716,3.398773193359375,10.780914306639716,4.26971435546875,13.773712158202216,4.524688720703125,3.182037353515625-.56854248046875,9.486358642578125-2.13336181640625,15.769866943359375-6.986663818359375,6.5169677734375-5.03363037109375,9.643310546875-11.003082275390625,10.96038818359375-13.969512939453125-.29638671875.124969482421875-.730377197265625.25262451171875-1.214263916015625.167755126953125-2.48907470703125-.43658447265625-3.407012939453125-5.989837646484375-3.826934814453125-8.530609130859375-.34356689453125-2.078826904296875-.639739990234375-5.141021728515625-.2391357421875-8.929351806642444-14.669586181640625.05316162109375-29.339080810546875.10626220703125-44.0086669921875.159423828125Z"/>
          <path class="cls-5" d="M80.669420088945117,135.136290507211925c8.421002684559426,2.587950004348386,20.806714353419011-1.932918123802665,32.511725258158549-12.011136108714709-.193065107139773-1.881946010285901-.26941358132899-4.232733081891638.020037817941557-6.96979662922422-14.669584129471332.053166035188042-29.339095128210829.106258939649706-44.008679257660333.159424974837748.069839839889028,1.220551756887289.346347101289211,6.576938388481722-.260711025370256,10.993814629380722,3.107031871970321,5.166758668412513,8.966923527299514,6.976232132794394,11.737627206930483,7.827693133720459Z"/>
          <path class="cls-8" d="M133.759493753945208,48.459705424041204c-3.40948486328125-19.686782836914062-19.1429443359375-45.475387573242188-43.67718505859375-45.762710571289062-24.494415283202216-.286819458007812-41.282928466796875,25.037979125976562-44.438079833984375,43.370895385742188-.872741699217841,5.070968627929688-1.577911376953125,16.273422241210938,1.600189208984375,28.483917236328125,1.04559326171875,4.01727294921875,1.089080810547784,2.6595458984375,3.683380126953125,11.04193115234375,4.501983642578125,14.545989990234375,4.5853271484375,19.326324462890625,9.384765625,24.980804443359375,2.155212402344659,2.539154052734375,4.229888916015625,4.039306640625,6.94976806640625,6.006011962890625,1.233551025390625.8919677734375,2.996429443359375,2.081604003908069,5.20184326171875,3.309692382814319,2.429840087890625,1.353057861328125,5.787994384765625,2.96917724609375,10.016693115234375,4.29083251953125,1.177154541015625.826812744140625,4.145172119140625,2.671783447265625,8.33880615234375,2.808349609375,5.384613037109375.17535400390625,9.110809326171875-2.585601806640625,10.12640380859375-3.393035888671875,11.08929443359375-5.30474853515625,16.791351318359375-11.689117431642444,19.682586669921875-15.732513427736194.294158935546875-.411376953125.795501708984375-1.044219970703125,1.345703125-1.99676513671875,1.83221435546875-3.172119140625,2.800018310546875-7.356658935546875,7.075164794921875-21.38958740234375,1.219635009765625-4.00360107421875,2.229888916015625-7.23736572265625,2.85040283203125-9.211822509765625,1.837493896484375-6.060348510742188,3.79071044921875-15.654876708984375,1.85955810546875-26.805999755859375Z"/>
          <g class="cls-6">
            <path class="cls-16" d="M96.694473322195336,88.632572333091048c-2.831685852248484,4.772799308553658-10.076992611294372,5.546985832725113-13.325901592221271.800469582312871,1.124424541440021.610174948937129,2.220860088315021,1.135748679405879,3.348850810971271,1.477667624718379,3.530005122177499,1.139930594601537,7.047638452622778-.205006608692202,9.97705078125-2.27813720703125h0Z"/>
          </g>
          <g>
            <path class="cls-15" d="M76.252627298867083,110.206092891355183c4.422424316407159-.37860107421875,9.227508544921875-.611083984375,14.367431640625-.6038818359375,4.636749267578125.0064697265625,8.995941162109375.20721435546875,13.041778564453125.53228759765625-.722625732421875-1.12969970703125-4.006439208984375-5.99005126953125-10.18743896484375-7.3011474609375-6.313446044921875-1.33917236328125-13.115966796875,1.56207275390625-17.221771240234375,7.37274169921875Z"/>
            <path class="cls-13" d="M76.497879083914086,110.067386786216048c.381516008745166-.245616480338867,1.018068430135827-.244571251767411,1.442458333500326-.288423357882493,8.54602089414584-.78689432432293,17.207841390277281-.764671270058898,25.760728601085248-.134183868161927l-.453125899429324.75433330026317c-7.032436958019389-10.373985219270253-19.055728414337864-9.381732223539075-26.75006103515625-.33172607421875h0ZM76.009506281179711,110.335086981528548c1.289638931099034-2.547763269240022,3.652290382328829-4.439110870927834,6.044776879713027-5.91798235153874,8.014348269703987-4.86245969581978,18.045640315800483-1.781825753076191,22.553864335275648,6.291770873483983.000083150243881-.000192330538994-.985756693502481-.084664986788994-.985756693502481-.084664986788994-8.500646986676657-.750381670235583-17.117242363186051-.748910754980898-25.638457989723975-.265661777746573-.575828020111658.039230112735822-1.43029242679404.118101720572668-1.974426531762219-.023461757409677h0Z"/>
          </g>
          <path class="cls-14" d="M114.894467364247248,18.843856203835458c.489817640163892.896016784354288,1.329028097559785,2.451372973196158,1.999666170937417,4.665880777016355,1.068730970358956,3.528940483305632,1.003338489665111,6.400346427975819.903351008018944,9.610117772504964-.068605767875852,2.202562304395542-.312606938656245,5.148030345498228-1.044172275473102,8.586226764179628-1.34062931621429-3.004538274939478-2.681237766928461-6.008961789621935-4.021825352141605-9.013406169805421.081625840608467,2.60567335441192-.137816635284253,6.928420964550241-2.165463443299814,11.704137739769976-1.180883039194669,2.781256546829354-2.64345034429607,4.935306560983918-3.892542706842505,6.484747380242879.163773318749008-4.640602222339112.327546637499836-9.281214877430102.491299090746907-13.921806667019155-.126257147629076,2.029900282144808-.803363526370958,8.834505362701748-6.243479590115385,14.71154502112131-4.343279263297518,4.692244337756165-9.409840259444536,6.294579202502064-11.545695556571445,6.839377438271185,1.908796913303377-3.106236727681789,3.817614692108691-6.212473455365398,5.726369874410011-9.318824943304207-.938905822025845,1.599507589336099-2.651608755255438,4.063869337017422-5.511663867284369,6.303008864978437-2.669260969252718,2.089721674022258-5.273755422847898,3.150106443910772-6.991925117386927,3.699265569425734.580144394765739-2.534657621151382,1.160247058527602-5.069315242302764,1.740391453293341-7.603993728955174-1.798021967548266.718326176319351-3.860889741552455,1.416329354492518-6.170909377016869,1.992384111024876-3.690752444945247.920377256980828-7.029524750510973,1.284375925039058-9.798856663415791,1.388567805172897-6.133434936900812-9.900502952405077-6.61507330060158-21.867389515765353-1.084839137269228-30.883309978461511,4.733046825311249-7.716260558045178,12.250845168897285-10.631901365212798,14.922192688269206-11.5252682309183-3.679985846336422,1.25363060905147-7.359992558174781,2.50725078535288-11.039978404511203,3.76088139440526,4.02587325937202-3.413376905029509,12.472561984419372-9.489066567419286,24.152652234080961-10.259525198433039,2.802570656282114-.184868340440516,5.380440730374175-.03719275585081,7.673141999859581.280161084323481,3.01381299021341,2.075752220983304,8.548574967302557,6.364916806974179,11.902286971711874,12.499833194459825Z"/>
          <path class="cls-14" d="M94.848299906288958.045917582244329c1.13226318359375.06805419921875,5.02044677734375.728179931640625,12.761505126953125,2.234283447265625,10.926788330078125,2.12591552734375,11.73712158203125,1.821075439453125,18.173828125,3.403121948242188,4.1212158203125,1.012924194335938,7.49066162109375,2.005569458007812,9.7779541015625,2.71575927734375-3.720428466796875,1.028823852539062-7.4407958984375,2.057647705078125-11.161224365234375,3.08648681640625,3.0372314453125.361846923828125,8.013580322265625,1.373870849609375,13.19866943359375,4.56292724609375,3.01971435546875,1.857223510742188,5.2623291015625,3.931381225585938,6.841033935546875,5.651947021484375-5.35491943359375-1.00311279296875-10.709808349609375-2.006195068359375-16.064727783203125-3.00927734375,2.332733154296875.502182006835938,10.108154296875,2.479965209960938,15.973052978515625,9.82080078125,4.682464599609375,5.86083984375,5.65362548828125,12.01934814453125,5.911468505859375,14.592620849609375-3.2691650390625-2.758651733398438-6.538330078125-5.517349243164062-9.8074951171875-8.276016235351562,1.69110107421875,1.369522094726562,4.24993896484375,3.788223266601562,6.34637451171875,7.49853515625,1.95660400390625,3.4627685546875,2.73046875,6.670089721679688,3.066558837890625,8.759536743164062-2.8388671875-1.11712646484375-5.67767333984375-2.234222412109375-8.51654052734375-3.351364135742188.5650634765625,2.07940673828125,1.059326171875,4.609710693359375,1.230194091796875,7.508010864257812.32293701171875,5.47930908203125-.642791748046875,10.023635864257812-1.586029052734375,13.10821533203125-9.039825439453125-4.037399291992188-25.02294921875-12.6259765625-39.20037841796875-29.501663208007812-11.55950927734375-13.759521484375-17.286346435546875-27.514312744140625-20.169982910155341-36.3358154296875C87.324068949257708.130176615447454,91.829684183632708-.135494160919734,94.848299906288958.045917582244329Z"/>
          <path class="cls-14" d="M32.597567484413958,45.655918192595891c-3.126678466796875,10.484710693359375-.389984130859375,19.589767456054688.975921630860284,23.311019897460938l10.291442871092841-1.596954345703125c6.510559082032159-3.56121826171875,19.321319580078125-11.701446533203125,29.49822998046875-27.205001831054688,10.636199951171875-16.2032470703125,12.801483154296875-31.927536010742188,13.350189208984375-39.35595703125-3.411468505859375-.42279052734375-8.039886474609375-.6839599609375-13.45391845703125-.064285278320312-6.3551025390625.727386474609375-11.23492431640625,2.375717163085938-13.86859130859375,3.390487670898438-6.349853515625,2.4466552734375-8.265655517578125,4.533035278320312-17.389007568359375,9.581695556640625-4.909790039061591,2.716964721679688-8.997589111328125,4.681884765625-11.533538818359375,5.855484008789062,5.086578369140625-.473175048828125,10.17315673828125-.946334838867188,15.259735107422784-1.419509887695312-2.062255859375.89886474609375-7.581573486329034,3.626113891601562-11.533508300782159,9.936569213867188-3.956085205078125,6.317092895507812-3.9964599609375,12.480361938476562-3.903656005859375,14.727432250976562.262939453125-.970947265625,1.163360595703125-3.781585693359375,3.903656005859375-5.678054809570312,1.179443359375-.816253662109375,2.340179443359375-1.214324951171875,3.193908691407159-1.419509887695312-1.66943359375,2.411697387695312-3.536529541016534,5.730453491210938-4.790863037110284,9.93658447265625Z"/>
          <path class="cls-14" d="M42.810046057813452,62.244716493731175c1.81561279296875,5.684298386160663,3.874237060547784,11.553756831515784,6.21038818359375,17.5866999377713,1.66046142578125,4.288030791317397,3.38128662109375,8.452486160998887,5.145721435546875,12.490907853814861-2.76617431640625-9.650468751329754-2.769775390625-17.341643955480322-2.217987060546875-22.682492021728649.53546142578125-5.182792942987362,1.82818603515625-10.419891950438796-.798492431640625-11.248024697293658-2.0657958984375-.651288003179616-5.62451171875,1.71809595679315-8.339630126953125,3.852908927436147Z"/>
          <path class="cls-14" d="M136.303262254730726,57.844656245177248c-1.81561279296875,8.11517333984375-3.874237060546875,16.494689941405341-6.21038818359375,25.10760498046875-1.66046142578125,6.121795654296875-3.38128662109375,12.067169189453125-5.145721435546875,17.832611083985284,2.76617431640625-13.777465820313409,2.769775390625-24.757751464842841,2.217987060546875-32.382598876954034-.53546142578125-7.399200439453125-1.82818603515625-14.875930786132812.798492431640625-16.058212280273438,2.0657958984375-.9298095703125,5.62451171875,2.452835083007812,8.339630126953125,5.500595092773438Z"/>
          <rect class="cls-11" x="58.175098010329748" y="67.715068790505939" width="24.202468325252994" height="13.404379019013504"/>
          <rect class="cls-11" x="96.251867777787993" y="67.715068790505939" width="24.20246832526027" height="13.404379019013504"/>
          <g id="_9VrKlJ" data-name="9VrKlJ">
            <path class="cls-9" d="M110.976068733638385,90.319615768305994c-1.396959105089991-.353151143063769-2.911491962782748-.566065721634914-4.301352656444578-1.123540992886774-2.710348878701552-1.087114969465802-5.360306162603592-2.344634598865014-8.016930259830588-3.575471622254554-1.627193738227106-.753892994496709-3.200566274122139-1.63764585019544-4.833196311915344-2.377207730364717-2.666312097304399-1.207811522451266-5.379296479344703-1.219302518829863-8.037192413548837.005929199432103-2.040869045826184.940796926881376-4.039303733015913,1.986820828117743-6.036395415447259,3.028984586069782-3.223300934017971,1.682050792216614-6.516442706513772,3.169968041153879-10.093550780823534,3.759131777376751-.907721988359299.149498974687958-1.961223124796561.15513570240546-2.796785582720986-.184639089387929-4.936384991417981-2.007337356775679-9.459646799413349-4.766667850418344-13.09987035764334-8.879586473851305-1.235407112317262-1.395832165045249-2.190991723806292-3.066442720441046-3.272019005264156-4.613364326231022-.306488606254788-.43857947390552-.237692327036712-.831025763794059.03748877234284-1.293102077363983,2.892275803151279-4.856601696029429,6.7308491103704-8.765420983583681,11.008479941032419-12.235635417457161.753910064840966-.611606710836895,1.550781359410394-1.164210273388562,2.321651163731076-1.753007815676938.975501257143151-.745098297327786,2.044071595602873-.90852230991004,3.214140952894013-.670582062225549,4.472001497640122.909413019245221,8.756388675277776,2.467487224373144,13.019753811033297,4.108821602217176,1.575716480933806.606627440215561,3.172728196166645,1.152927149470997,4.765823388150238,1.708310401928429,3.458202795625766,1.205591396211275,6.907025219611569,1.096385839594404,10.335838020684605-.135148523390853,3.746891423543275-1.345778409704508,7.470412268705331-2.767444771054215,11.240297770158577-4.036942446844478,2.023556911082778-.681426478558933,4.119585572521828-1.128083973047978,6.189695390141424-1.650924308034519,1.102609195610967-.278482629292739,2.127379213339736-.056106227979399,3.074727876895849.630688677785656,5.103436416457043,3.699824071754847,9.605394955093288,8.033915369913302,13.083634922440979,13.490011580143801.578121073851435.90687020725909.564521141986916,1.572794476043782.033453444821134,2.475200259589656-1.980089471868268,3.36467927650574-4.647824924644738,5.99705045493738-7.696413567206037,8.239443224692877-2.53856824034483,1.867236151098041-5.274615572343464,3.356589170303778-8.147993749040324,4.559629294601109-.595311534649227.249243917129206-1.252768605347228.333949528593621-1.993285354441468.523002282132438ZM98.227343800675953,78.067031781412879c3.902149069972438,1.802922189150195,7.836634827594025,2.76940208517135,11.922279966242058,1.437513257415048,3.583665383253901-1.1682480348436,6.188278232406446-3.717111247410685,8.329236313242291-6.886754218787246-7.863722213854999-4.093986916779613-15.199112746473475-2.300462000515836-20.251516279484349,5.449240961372197ZM60.946115152912171,73.048957546569909c2.60773416183838,3.340846475618491,5.584453550825856,6.002554326096288,9.727186049165539,6.773580663569192,3.799282784606476.707108205960139,7.32714389641751-.359365293286828,10.743555913973978-2.181797047377586-5.359160510883157-7.521955965291454-12.683047639526194-9.005215781847255-20.470741963139517-4.591783616191606Z"/>
          </g>
          <path class="cls-14" d="M81.841598566335961,66.592350165122298c-8.774399478746091-3.751506517046437-18.11454396533918-8.311489345616792-26.475655905279382-12.907252147946565,2.451614252466243.892988311178669,7.949334229219858,2.953687367621569,10.324635437479628,3.782726969903706,5.372925275101807,1.774225311891314,11.96977641196645,3.832947188308026,17.463288510761231,5.345816479049972-.000042701164602.000083210711637-1.312268042961477,3.778708698992887-1.312268042961477,3.778708698992887h0Z"/>
          <path class="cls-14" d="M95.595779474539086,62.813724676841048c9.135899248060923-2.505244935437986,18.941733329196722-5.736325840107384,27.787867406966143-9.128631476500232-2.322735473593639,1.217294749185385-7.48697499705122,4.019797310062131-9.742376829396562,5.165106827928867-5.123142289318821,2.510829639322765-11.449845213155641,5.47540529982416-16.733348754089093,7.742075773672696.000053000738262.00007436317992-1.312141823480488-3.77855112510133-1.312141823480488-3.77855112510133h0Z"/>
        </g>
      </g>
    </g>
  </g>
</svg>