<?xml version="1.0" encoding="UTF-8"?>
<svg xmlns="http://www.w3.org/2000/svg" width="202.425729903645333" height="216.016521786550584" xmlns:xlink="http://www.w3.org/1999/xlink" viewBox="0 0 202.425729903645333 216.016521786550584">
  <defs>
    <style>
      .cls-1 {
        clip-path: url(#clippath);
      }

      .cls-2, .cls-3, .cls-4, .cls-5 {
        fill: none;
      }

      .cls-2, .cls-6, .cls-7, .cls-8, .cls-9, .cls-10, .cls-11, .cls-12, .cls-13, .cls-14, .cls-15 {
        stroke-width: 0px;
      }

      .cls-3 {
        stroke-width: .515625622853655px;
      }

      .cls-3, .cls-4, .cls-5 {
        stroke-miterlimit: 10;
      }

      .cls-3, .cls-4, .cls-5, .cls-12, .cls-16 {
        mix-blend-mode: multiply;
      }

      .cls-3, .cls-5 {
        stroke: #f1b068;
      }

      .cls-3, .cls-5, .cls-12, .cls-16 {
        opacity: .6;
      }

      .cls-6 {
        fill: #e2bc86;
      }

      .cls-4 {
        stroke: #151c22;
        stroke-width: 12.7085470354007px;
      }

      .cls-7 {
        fill: #000;
      }

      .cls-8 {
        fill: #505050;
      }

      .cls-5 {
        stroke-width: .545810828627706px;
      }

      .cls-9 {
        fill: #910000;
      }

      .cls-10 {
        fill: #e08362;
      }

      .cls-11 {
        fill: #e9e9de;
      }

      .cls-12, .cls-15 {
        fill: #f1b068;
      }

      .cls-17 {
        isolation: isolate;
      }

      .cls-13 {
        fill: #4d3329;
      }

      .cls-14 {
        fill: #fff;
      }
    </style>
    <clipPath id="clippath">
      <path class="cls-2" d="M73.672287179084378,133.313730887679412c21.922177262200421-4.553557561073831,40.236742857610807-1.999686473354814,53.7355041214214,0,8.248121656808507,1.221868109885691,13.579497581338728,2.534930230609461,20.736655121359945,4.297673163382569,26.876271789869861,6.619354207476135,35.935559419558558,6.332901167825185,42.565444451060102,14.23072666432563,3.883241359530984,4.625883845525095,4.522696396219544,10.139794053171499,5.801606469578473,21.167614468471584,1.828121798600478,15.764058520926483.283308418580418,29.795284574542166-2.232242170588506,41.138590926282632-55.489251975350271-9.850562046078267-134.144049755183005-19.701197222875635-189.633301730529638-29.551759268942988.441928955475305-11.718101304046286,2.197797600338163-19.55742222263143,4.545513181605202-24.817349431381444,2.251329289136265-5.043972185492748,6.128647060154435-7.639381523531483,8.096156015652014-9.340255865154177,2.806537733615187-2.426184846397518,20.888181978176362-7.814602734404616,37.736915373763622-11.764539312767738,8.198392765571043-1.921948515442637,12.354046066048795-4.053416550566908,18.647749166677386-5.360701344216068Z"/>
    </clipPath>
  </defs>
  <g class="cls-17">
    <g id="Layer_2" data-name="Layer 2">
      <g id="Layer_1-2" data-name="Layer 1">
        <g>
          <path class="cls-11" d="M73.672287179084378,133.313730887679412c21.922177262200421-4.553557561073831,40.236742857610807-1.999686473354814,53.7355041214214,0,8.248121656808507,1.221868109885691,13.579497581338728,2.534930230609461,20.736655121359945,4.297673163382569,26.876271789869861,6.619354207476135,35.935559419558558,6.332901167825185,42.565444451060102,14.23072666432563,3.883241359530984,4.625883845525095,4.522696396219544,10.139794053171499,5.801606469578473,21.167614468471584,1.828121798600478,15.764058520926483.283308418580418,29.795284574542166-2.232242170588506,41.138590926282632-55.489251975350271-9.850562046078267-134.144049755183005-19.701197222875635-189.633301730529638-29.551759268942988.441928955475305-11.718101304046286,2.197797600338163-19.55742222263143,4.545513181605202-24.817349431381444,2.251329289136265-5.043972185492748,6.128647060154435-7.639381523531483,8.096156015652014-9.340255865154177,2.806537733615187-2.426184846397518,20.888181978176362-7.814602734404616,37.736915373763622-11.764539312767738,8.198392765571043-1.921948515442637,12.354046066048795-4.053416550566908,18.647749166677386-5.360701344216068Z"/>
          <g class="cls-1">
            <path class="cls-4" d="M0,168.399607678376924h202.425729903645333"/>
            <path class="cls-4" d="M0,147.768287383136339h202.425729903645333"/>
            <path class="cls-4" d="M0,209.662248268850817h202.425729903645333"/>
            <path class="cls-4" d="M0,189.030927973613871h202.425729903645333"/>
          </g>
          <path class="cls-8" d="M73.273724741984552,134.254557631371426c3.126923428460941-.965837450759864,5.902526866500921-1.647708306431014,8.190933431889789-2.13695283929701,8.059590654460408-1.723106081233709,22.795943133471155-4.784723774580925,39.062848501631379-.034298308808502,2.852390696561088.832958928160224,5.164052831678418,1.733783166702779,6.760496501708985,2.410461741084873-.066548957389386.425182020044303-.132951653329656.850437170811347-.199500610709947,1.27561919085565-2.406147028468695,2.092562490804994-12.007333311150433,9.948484083368385-26.566928834119608,10.02724587139528-14.837638529539618.080297533197154-24.644760926510571-7.971541264683765-27.008711528149433-10.02724587139528-.07971248740796-.504967638182279-.159424974830472-1.009862145645457-.239137462251165-1.514829783835012Z"/>
          <path class="cls-6" d="M60.597159196884604,96.552335898588353c-6.604641992304096,1.609475920755358-13.138769229095487-3.613683775332902-14.47471596431933-11.57059700514219-1.335946735231119-7.956913229816564,2.999531579345785-15.828930336498161,9.604173571646243-17.438406257260795,1.623514130895273,9.669667754129478,3.247028261779633,19.339335508269869,4.870542392673087,29.009003262402985Z"/>
          <path class="cls-6" d="M137.281306616985603,93.577160492197436c5.964527257880036,1.035981320310384,11.504095289868928-4.737046061280125,12.271529691190153-12.78872945340845.767434401310311-8.051683392124687-3.509113584061197-15.529775295541185-9.473640841930319-16.565756615844293-.932666931819767,9.784807863889-1.865221917420058,19.569678205363743-2.797888849259834,29.354486069252744Z"/>
          <path class="cls-3" d="M147.682543027345673,76.180400284505595c-.185556947501027-.822735524056043-.574454878040342-2.088792549129721-1.331220706029853-2.424017512024875-1.627559503171142-.720991483281978-4.036910457760314,3.270708348674816-4.662535987619776,7.342044070108386-.242619247821494,1.579063646167924-.432198420661734,4.570647028995154.471504087309768,5.561697857829131.892779902188522.979081180084904,2.496092091630999-.385246859943436,3.101011194229613-2.729606728604267.445664818660589-1.727201248006168.41777998032012-4.251684860093519-.278447933599637-4.636089849158452-.426507157771084-.235469339677365-1.078583459650872.346007804172586-1.487322097681499,1.44804583059522-.474241624009665,1.278473000766098-.366533561929828,2.57157912843104-.354736416789819,2.699151831260679"/>
          <path class="cls-5" d="M48.381624771489442,79.805035721285094c.218429716947867-.818772958704358.670355036589172-2.076579620403209,1.522509985850775-2.396003338752053,1.832711164932334-.687008093005716,4.480969937219925,3.354396760485542,5.129766494295836,7.438277945177106.251602616044693,1.583928787775221.425691190627731,4.579104508684395-.599486766411246,5.55121574765144-1.012787248849236.960370502645674-2.791626961256952-.437187717947381-3.439340819727477-2.793867345328181-.47719280729325-1.73627763661716-.413621867193797-4.259880007910397.371337699929427-4.629738736512081.480863700573536-.226558345511876,1.203987445296661.368430538463144,1.647815128304501,1.478850293042342.514956137523768,1.28819797525648.37772267327091,2.578906929236837.36287169809475,2.706218745752267"/>
          <path class="cls-6" d="M77.799638889995549,118.636614293805906c.118471770289034,2.071427712035074.835006588378747,16.057897763537767-3.189084542500495,17.141110023752844-.317387335229796.085416683763469-.680115718339948.094850546953239-1.097692143259337-.008336902352312,2.363950601638862,2.055704606711515,12.171146129339832,10.107470273869694,27.008711528149433,10.02724587139528,14.559595522969175-.078761788026895,24.160781805650913-7.934683380590286,26.567075095570544-10.02724587139528-.296325687179888.124980404583766-.730429655361149.252666645894351-1.214262514769871.167761877186422-2.489077267660832-.436590412737132-3.407014095249906-5.989844949035614-3.826930703280595-8.530625637442427-.343568133850567-2.07881391499177-.639747559569514-5.141016654120904-.239137462248436-8.929334335978638-14.669584129472241.053166035188042-29.339095128211738.106258939653344-44.008679257661242.15942497483411Z"/>
          <path class="cls-12" d="M89.276555071555777,137.458122056905268c8.421002684559426,2.587950004352024,20.806714353419011-1.932918123799027,32.511725258158549-12.011136108714709-.193065107139773-1.881946010285901-.26941358132899-4.232733081888.020037817942466-6.969796629218763-14.669584129472241.053166035188042-29.339095128211738.106258939653344-44.008679257661242.15942497483411.069839839889028,1.220551756890927.346347101289211,6.576938388479903-.260711025370256,10.993814629382541,3.107031871970321,5.166758668408875,8.966923527299514,6.976232132794394,11.737627206930483,7.827693133716821Z"/>
          <path class="cls-6" d="M144.468896313945152,50.781542206099402c-3.572289527870453-19.686790470554115-20.056978187349159-45.47538902614906-45.762719634460154-45.762719634465611-25.66398380461942-.286818693261012-43.254116463916944,25.037984820857673-46.559917639367995,43.370906227595697-.9144265529103,5.070957422063657-1.653266241333768,16.273414002454956,1.676594941782241,28.483904460430495,1.095498221580783,4.017289973697189,1.141058661637544,2.659544981583167,3.85925448258422,11.041934644723369,4.716931594917696,14.545993208601431,4.804249677465123,19.326329139836162,9.832864411251649,24.980796595940774,2.258130446329233,2.539171812513814,4.431868038989705,4.039302321143623,7.281626029549443,6.006006838688336,6.696726511780071,4.621569132905279,12.713044782320139,6.577304042093601,15.945203320310611,7.600549109938584,3.754604418829331,1.188666761921922,5.676699195719266,1.799308293975628,8.557172089680535,1.860299316460441,5.030369871128642.106478331814287,8.867100091219982-1.483456703921547,10.78970678316-2.444979442057956,11.684388041019702-5.323039022179728,17.648929760111059-11.760443992319779,20.622424932958893-15.732539179571177.332452264039603-.444196007869323.843928536520252-1.0614193049405,1.409960327910085-1.996761244459776,1.919681463041343-3.172118214897637,2.933712059870231-7.356658150729345,7.412968806969729-21.389566210960766,1.277886243260582-4.003614528603066,2.336380319300588-7.237381942486536,2.986512441450031-9.211838316612557,1.925239397951373-6.060342965436575,3.971729533641337-15.654874352385377,1.948348706220713-26.805993165649852Z"/>
          <g class="cls-16">
            <path class="cls-15" d="M108.491227682687168,91.052098247429967c-2.86277642303321,8.649193755458327-16.151221485040878,10.001180550865683-19.705175474204225,1.183828320112298,3.590140020978652.897254718407567,6.473068607804635,1.706438853493637,9.903909392162859,1.496059011837133,3.398791555562639-.202404956357896,6.377167337130231-1.439605017440044,9.801266082041366-2.679887331949431h0Z"/>
          </g>
          <rect class="cls-9" x="63.847561912414676" y="67.543332636185369" width="26.451900662599655" height="14.650212428325176"/>
          <rect class="cls-9" x="105.463273083105378" y="67.543332636185369" width="26.45190066260875" height="14.650212428325176"/>
          <g>
            <path class="cls-14" d="M112.681596281674501,112.953532902974985c-3.314575195308862-1.005615234375-8.245178222648974-2.0867919921875-14.261657714840112-1.92962646484375-5.152221679689319.13458251953125-9.411560058599207,1.133148193359375-12.45068359375,2.097900390625,2.37939453125-4.92645263671875,7.208862304691138-8.19329833984375,12.583740234371362-8.4857177734375,5.866027832029431-.31915283203125,11.438781738279431,2.95587158203125,14.12860107421875,8.31744384765625Z"/>
            <path class="cls-10" d="M112.898332174874668,113.123936626336217c-.598626766821326.055700627792248-1.358093095776894-.218405407173123-1.921809512690743-.349919852264065-8.15341874843125-2.005087597795864-16.869936392042291-1.797447930775888-24.859255005229898.813750915569472-.00000237661061-.000024910961656-1.06958245473561.346166495288344-1.06958245473561.346166495288344,3.390498270994613-8.758024889379158,14.385207635732513-12.589232507934867,22.303905634294097-7.369877192148124,2.355770740387925,1.588602337056727,4.683674681809862,3.797458708357226,5.546741338362153,6.559879633554374h0ZM112.422624167062168,112.730870220086217c-.416217028527171-.342093938266771-.777496194745254-.956412240166173-1.057325927053171-1.388258491386296-6.374240437980916-9.142504959854705-20.117597158439821-8.046365846674234-24.955760760080011,1.991898622542067-.000035871460568-.000185541312021-.588109601929318-.678713373343271-.588109601929318-.678713373343271,8.167860913596996-2.542805897506696,17.06320730915013-2.778326571840807,25.302671399936116-.443109365751297.000001939907634-.000005868623703.819459947720134.236505361845047.819459947720134.236505361845047.286181114598548.071214653695279.293775804777397.108396840101705.47906494140625.28167724609375h0Z"/>
          </g>
          <g id="_9VrKlJ" data-name="9VrKlJ">
            <path class="cls-7" d="M121.555974694614633,92.248797514574107c-1.526795654928719-.385973811829899-3.18209263387871-.618677154576289-4.701130134910272-1.22796544281664-2.962254855039646-1.188153902097838-5.858505183388843-2.562550259986892-8.762041953828884-3.907784069906484-1.778428817420718-.823961520476587-3.498034167811056-1.789852372396126-5.282404546818725-2.598150812255881-2.914125195231463-1.32006826666202-5.879260503272235-1.332627262324422-8.78418731810234.006480272683802-2.230552047009041,1.028236728547199-4.414725789776639,2.171480465276545-6.597431705878989,3.310505288241984-3.52288183860037,1.838384410511935-7.122095681719657,3.464592065625766-11.031668299250668,4.108514016690606-.992087730170169.163393748705857-2.143503653309381.169554366690136-3.05672518251049-.201799865422799-5.395183816398458-2.193903846677131-10.338847843062467-5.209692779120815-14.317402040838715-9.704875394309056-1.350228653280283-1.525563974519173-2.39462746740719-3.351444866639213-3.576127877960971-5.04214087744549-.334974352941572-.479342045637168-.259783991388758-.908263184424868.040973063931233-1.413285919326881,3.161090480758503-5.307985280458524,7.356429503379331-9.580099104263354,12.031633052180041-13.3728431437994.823980177379781-.668450826680782,1.694914498688377-1.272414618550101,2.537430692229464-1.915936340785265,1.066166558030091-.814349424199463,2.234052249030356-.992962435426307,3.512870508041487-.732907481076836,4.887639466717701.993935929302097,9.570227312718998,2.696821087345597,14.229839280548731,4.490704807525617,1.722167146999709.663008771341993,3.46760875570908,1.260082815486385,5.208769830609526,1.867084647954471,3.779616012370752,1.317641796849784,7.548979820070599,1.198286427941639,11.296474265089273-.147709533895977,4.095136016590914-1.470858109551045,8.164729340200211-3.024657369212946,12.284996556491024-4.412145040310861,2.211630883170074-.744759802077169,4.502469205660418-1.232930657861289,6.764979728159233-1.804364960247767,1.205088196789802-.304365436917578,2.32510266583995-.061320868149778,3.360500064340158.689306314943678,5.577761380031006,4.043694118296116,10.498142163130979,8.78060569859008,14.299657647439744,14.743803874043806.631852958589661.991156782602047.616989018189997,1.718973564344196.036562683910233,2.705250989562046-2.164123481499701,3.677400205113372-5.079804322089331,6.554429935436929-8.411735712328664,9.005235778669885-2.774508534270353,2.040781316954963-5.76485031518132,3.668558186083828-8.905286781191535,4.983411590015749-.650641139829531.272409212480852-1.369203762878897.364987555727566-2.178545819349893.571611301267694ZM107.622354331204406,78.857430562828085c4.264823661060291,1.970489869418088,8.564989454912393,3.026796600544913,13.030363725740244,1.571119002212072,3.916739377649719-1.276827658719412,6.763430856570267-4.062588003296696,9.10337444067045-7.526824786418729-8.594594404330564-4.47449135275383-16.611752781840551-2.51427216009688-22.133738166410694,5.955705784206657ZM66.876123677475334,73.372965119309811c2.850102893489748,3.651352329627116,6.103485338609971,6.560445348881331,10.631252797909838,7.40313262412019,4.152396749659601.772828447512438,8.00814528022056-.392765519278328,11.742086384760114-2.384578216886439-5.857253052199667-8.221063624932867-13.861838873257511-9.842180975319934-22.373339182669952-5.018554407233751Z"/>
          </g>
          <path class="cls-13" d="M104.50778314906529,4.751655465159274c-7.664099707710193-2.698231133734225-22.610044837130772-7.960059741257282-36.673887192930124-2.072890326475317-5.146940242642813,2.154504212678148-10.707654112624368,6.024947695795163-17.858668671959094,11.002224662457593-3.951545454254301,2.750373338807549-7.115326766803264,5.173194171977229-9.248184285652314,6.856370878776943,4.358371662978243-.425182020040666,8.716670195235565-.850364040088607,13.075041858215627-1.27554606013291-3.068784504142968,1.619626109037199-7.926200216796133,4.717150987085915-12.118345747752755,10.204880396111548-2.441469167381001,3.195958830401651-3.971729533639518,6.305257754756894-4.942978657858475,8.769836230421788,5.261901738251254-3.242177446958522,10.523803476502508-6.484354893920681,15.785705214755581-9.726532340882841-2.265662910729588,1.481409043699387-9.693842907963699,6.741116860273905-12.91561688337606,16.90189943077803-2.572226899039379,8.112244774579267-1.093377430630426,15.0288022379018-.318849949671858,17.858595541229988,2.338647371690968-4.252039592603978,4.67722161265192-8.504079185207956,7.015868984333792-12.756118777811935-1.233130241134859,2.138634845912748-2.957991459701589,5.74149301576108-3.667432597721927,10.52380347649887-.662125560629647,4.463241118904989-.175806256655051,8.174479019347928.31892308039096,10.523803476506146,2.551238381709481-2.338647371685511,5.102476763418963-4.677221612648282,7.653715145126625-7.015868984333792.248205671829055,2.43188904274939.754928447349812,5.31243506742976,1.753967246084358,8.450986280746292,1.888674036745215,5.933461162068852,4.761321943409712,10.35223880175181,7.01586898433743,13.234466833051556,2.334478920505717-8.598490947835671,9.33177270134729-29.749651003763574,29.498593233758584-47.197763800162647,15.047523702829494-13.018877463404351,30.669416099411137-18.129617998452886,39.225125574628692-20.25040894810445-9.134466012308621-8.143764115939121-18.066213662128575-12.083974308225152-23.59884533470904-14.031737968674861Z"/>
          <path class="cls-13" d="M92.168290096764395,5.500733454722649c7.664099707710193-2.698231133734225,22.609971706400756-7.960059741264558,36.673887192930124-2.072890326475317,5.015743726649816,2.099583040147991,7.428326258690504,5.718456838207203,17.858668671960913,11.002224662453955,3.993083704579476,2.022795781635068,7.383277733679279,3.456450463600049,9.628829695750028,4.353325643132848-4.48525346633869.409166391837971-8.970506932690114.818332783677761-13.455760399039718,1.227499175514822,1.566752596741026.257200750686025,8.277520207218913,1.538451007167168,12.97733921309009,7.701835160463816,3.488481719999982,4.57483860128923,3.988549599789621,9.373384082402481,4.084058323240242,11.272881466069521-.811165972871095-1.51636552900527-3.790511603521736-6.6336146983449-9.664810011161535-8.243295029133151-1.455740160137793-.398928090697154-2.81465524379928-.507161559857195-3.986355678129257-.478348055225069,3.729374319609633,1.720912159556065,9.952652534549998,5.355801585817971,11.161649637289884,11.321074612122175.562814039609293,2.777139183210238-.103114318580992,5.837733046446374-1.434971034959744,11.958920772925921-.889708368740685,4.089177473815653-1.450621009559654,5.049164466778166-1.975260812070701,8.243295029122237-.724140413220084,4.408831861437648-.563399085380297,8.10617492462552-.318849949679134,10.523803476506146-2.551238381700387-2.338647371689149-5.102476763409868-4.67722161265192-7.653715145121168-7.01586898433743-.248205671829055,2.43188904274939-.755001578068914,5.312435067433398-1.753967246089815,8.450986280746292-1.888674036739758,5.933461162068852-4.761395074128814,10.35223880175181-7.015868984330154,13.234466833047918-2.334478920509355-8.598490947828395-9.331772701349109-29.749651003759936-29.498593233757674-47.197763800155371-15.047523702832223-13.018877463404351-30.669416099411137-18.129617998452886-39.225125574642334-20.25040894810445,9.134466012321354-8.143764115939121,18.066213662141308-12.083974308225152,23.598845334719954-14.031737968674861Z"/>
          <path class="cls-13" d="M130.864874436154423,7.494385256231908c1.610261538829945,1.049237483191973.92033565867132,3.280722848110599,2.040377591711149,7.46066337341108,1.520686030749857,5.674834287645353,4.077563706259753,6.358112032408826,5.230990857689903,10.716929209243972.662156090880671,2.502235229087091.866512732949559,6.233657444739947-1.389773769120438,11.428412651697727-1.784421131080308-3.999082644419104-3.568769976289332-7.998038138674019-5.353118821489261-11.996993632932572.108632545408909,3.468195092053065-.183467508870308,9.221849217203271-2.882283902481504,15.578392955198069-1.571762401988963,3.701909021725442-3.518457019688867,6.568970318319771-5.181022613638561,8.631300437104073.217981131459965-6.176715043362492.43596226289992-12.353430086728622.653943394359885-18.530145130091114-.16805998079144,2.701830565954879-1.069324396468801,11.758877923683031-8.310205152931303,19.581313902861439-5.780964878358645,6.245453370342148-12.524651231258758,8.378164618291521-15.367514921708789,9.103328244480508,2.540667099488928-4.134462585047004,5.08133419897058-8.268925170097646,7.621929012590044-12.403514905308839-1.249747468709757,2.128966993699578-3.529370094151091,5.409066672200424-7.336140121338758,8.389403196913918-3.55281257497154,2.781448246987566-7.019471254850941,4.192855635483284-9.306363799782048,4.923798434236232.772185050260305-3.373695163703815,1.544306525431239-6.747354184459255,2.316491575689724-10.121049348159431-2.236794833110253.986123342350766-4.991351914879488,1.969309258733119-8.213588403988979,2.651892861243141-6.091591560370944,1.290567022841969-11.352683112039813.977202447043055-14.972590855521048.44164808802725-2.636207642210138-24.512515239501226,9.958771293420796-44.754096529064554,26.451790021990746-48.9703420514561,11.692909270710516-2.989102470273792,22.373936175661584,2.836027979508799,26.180374012019456,5.174364970778697,2.508608717122115-1.615271527280129,5.873888606900437-3.325303585945221,7.816705895949781-2.05940325724805Z"/>
          <polygon class="cls-13" points="103.632035788155918 62.511296245476842 124.694352682687168 52.414738628289342 125.373368795968418 52.089238140008092 125.863786276437168 52.308903667351842 135.235002096749668 56.506413432976842 134.857011374093418 57.578190776726842 124.925736960030918 54.968846294304967 126.094865377999668 54.863041850945592 106.714860495187168 67.900578472039342 103.632035788155918 62.511296245476842 103.632035788155918 62.511296245476842"/>
          <polygon class="cls-13" points="86.757035788155918 67.900578472039342 67.377030905343418 54.863041850945592 68.546098288155918 54.968846294304967 58.614823874093418 57.578190776726842 58.236833151437168 56.506413432976842 67.608048971749668 52.308903667351842 68.098466452218418 52.089238140008092 68.777482565499668 52.414738628289342 89.839860495187168 62.511296245476842 86.757035788155918 67.900578472039342 86.757035788155918 67.900578472039342"/>
        </g>
      </g>
    </g>
  </g>
</svg>