<?xml version="1.0" encoding="UTF-8"?>
<svg xmlns="http://www.w3.org/2000/svg" width="849.999999999998181" height="200" xmlns:xlink="http://www.w3.org/1999/xlink" viewBox="0 0 849.999999999998181 200">
  <defs>
    <style>
      .cls-1 {
        fill: #27201d;
      }

      .cls-1, .cls-2, .cls-3, .cls-4, .cls-5, .cls-6, .cls-7, .cls-8, .cls-9, .cls-10, .cls-11, .cls-12, .cls-13, .cls-14, .cls-15, .cls-16, .cls-17, .cls-18, .cls-19, .cls-20, .cls-21, .cls-22, .cls-23, .cls-24, .cls-25, .cls-26, .cls-27, .cls-28, .cls-29, .cls-30 {
        stroke-width: 0px;
      }

      .cls-2 {
        fill: #3657a6;
      }

      .cls-3, .cls-28 {
        fill: #151c22;
      }

      .cls-31 {
        clip-path: url(#clippath);
      }

      .cls-4, .cls-32, .cls-33, .cls-34, .cls-35, .cls-36, .cls-37, .cls-38, .cls-39 {
        fill: none;
      }

      .cls-32 {
        stroke-width: .307625025055425px;
      }

      .cls-32, .cls-33, .cls-34, .cls-35, .cls-36, .cls-37, .cls-38, .cls-39 {
        stroke-miterlimit: 10;
      }

      .cls-32, .cls-40, .cls-34, .cls-35, .cls-37, .cls-38, .cls-15, .cls-17, .cls-18, .cls-39, .cls-22, .cls-41, .cls-28, .cls-29, .cls-30 {
        mix-blend-mode: multiply;
      }

      .cls-32, .cls-34, .cls-35, .cls-37, .cls-17, .cls-42, .cls-41 {
        opacity: .6;
      }

      .cls-32, .cls-34, .cls-35, .cls-37, .cls-39 {
        stroke: #f1b068;
      }

      .cls-33 {
        stroke: #4d3329;
        stroke-width: 5.40016781585532px;
      }

      .cls-34 {
        stroke-width: .294747007030066px;
      }

      .cls-5 {
        fill: #79c4e0;
      }

      .cls-6 {
        fill: #e2bc86;
      }

      .cls-35 {
        stroke-width: .290612308935644px;
      }

      .cls-43 {
        clip-path: url(#clippath-1);
      }

      .cls-44 {
        clip-path: url(#clippath-3);
      }

      .cls-45 {
        clip-path: url(#clippath-2);
      }

      .cls-7 {
        fill: #d48d45;
      }

      .cls-8 {
        fill: #000;
      }

      .cls-36 {
        stroke: #27201d;
        stroke-width: 1.85461063707757px;
      }

      .cls-37 {
        stroke-width: .278446489356466px;
      }

      .cls-9 {
        fill: #ffc58f;
      }

      .cls-10 {
        fill: #505050;
      }

      .cls-11 {
        fill: #5e5a5b;
      }

      .cls-12 {
        fill: #910000;
      }

      .cls-38 {
        stroke: #151c22;
        stroke-width: 6.86282866868545px;
      }

      .cls-13 {
        fill: #e08362;
      }

      .cls-14 {
        fill: #dc5b42;
      }

      .cls-15 {
        fill: url(#radial-gradient-2);
      }

      .cls-15, .cls-22 {
        opacity: .4;
      }

      .cls-16, .cls-24 {
        fill: #e9e9de;
      }

      .cls-17, .cls-18, .cls-26 {
        fill: #f1b068;
      }

      .cls-39 {
        stroke-width: .618203545692524px;
      }

      .cls-19 {
        fill: #0b2645;
      }

      .cls-46 {
        isolation: isolate;
      }

      .cls-20 {
        fill: #4d3329;
      }

      .cls-21 {
        fill: #56362e;
      }

      .cls-22 {
        fill: url(#radial-gradient);
      }

      .cls-23 {
        fill: #fff;
      }

      .cls-24 {
        mix-blend-mode: screen;
      }

      .cls-25 {
        fill: #e69c45;
      }

      .cls-27 {
        fill: #c74530;
      }

      .cls-29 {
        fill: url(#radial-gradient-3);
      }

      .cls-29, .cls-30 {
        opacity: .3;
      }

      .cls-30 {
        fill: url(#radial-gradient-4);
      }
    </style>
    <clipPath id="clippath">
      <rect class="cls-4" width="849.999999999998181" height="200"/>
    </clipPath>
    <radialGradient id="radial-gradient" cx="473.637105302159398" cy="108.689027736310891" fx="473.637105302159398" fy="108.689027736310891" r="24.230598804283311" gradientTransform="translate(175.819498746440786 38.532696712817597) scale(.853091239733539 .645477583935139)" gradientUnits="userSpaceOnUse">
      <stop offset=".537641841231661" stop-color="#e984a2"/>
      <stop offset=".592832570610897" stop-color="rgba(233, 132, 162, .886871293855677)" stop-opacity=".886871293855677"/>
      <stop offset=".711273432585101" stop-color="rgba(233, 132, 162, .596518194573597)" stop-opacity=".596518194573597"/>
      <stop offset=".8824215114979" stop-color="rgba(233, 132, 162, .136328760171738)" stop-opacity=".136328760171738"/>
      <stop offset=".931113028771807" stop-color="#e984a2" stop-opacity="0"/>
    </radialGradient>
    <radialGradient id="radial-gradient-2" cx="381.070528023451516" fx="381.070528023451516" r="24.230598804280266" xlink:href="#radial-gradient"/>
    <clipPath id="clippath-1">
      <path class="cls-4" d="M222.206182295216422,126.473815476021628c18.894635840735646-3.924692828981279,34.679885789542823-1.723521676611199,46.314413479478389,0,7.109022667362296,1.053123177749512,11.704113995165244,2.184846104290045,17.872839106537867,3.704147102418574,23.164549859797262,5.705194596079309,30.972713195578763,5.458301880780709,36.686984266281797,12.265405705580633,3.346950008295607,3.987030560780113,3.898093715895811,8.739447448280771,5.000381131047106,18.244281223300277,1.575650777927876,13.586978225859639.244182379148697,25.680435162670619-1.923960490634272,35.457184989209054-47.825961655529682-8.490159552149635-115.618213465182635-16.980382135388936-163.444175120714135-25.470541687549485.38089677778953-10.099784078760422,1.894272854986411-16.856463044709017,3.917759410858707-21.389973013590861,1.940411600859079-4.347379208549683,5.282256092214084-6.584352010699149,6.978044096436861-8.050328720568359,2.41894351164774-2.09111889784981,18.003439491043537-6.735374463059998,32.525294600563939-10.139808810501563,7.066161537330117-1.656519645348453,10.647902294811502-3.493623316589947,16.07241952014374-4.62036678829827Z"/>
    </clipPath>
    <clipPath id="clippath-2">
      <path class="cls-4" d="M232.089169571469029,96.219440716889949c-.175371383966194.355332350020035-3.212582737340199,6.245198059121321-9.908932405434825,6.893467456780854-6.194950839129888.599733138220472-10.161276805174566-3.805508987459689-10.538190607599972-4.239091876610473.611283951866426-.80163876864026,3.74624698307889-4.740983577870793,9.442542985318141-5.571632822870015,5.984994543478024-.872739384480155,10.270452812213989,2.346469227080888,11.004580027716656,2.917257242699634Z"/>
    </clipPath>
    <clipPath id="clippath-3">
      <path class="cls-4" d="M175.247883729840396,96.808838455570367c.195337384646336.344760072270219,3.563286425556726,6.051956418499685,10.285698206444067,6.317534914760472,6.219061732837872.24569676316969,9.927878192029311-4.378433460640736,10.279468692551745-4.832792631519624-.655977260023064-.765497628690355-4.010355338723457-4.519772317400566-9.744733057865233-5.02442911918115-6.025005816813064-.53022507112837-10.120030097732524,2.927987298970038-10.82043384113058,3.539686835940302Z"/>
    </clipPath>
    <radialGradient id="radial-gradient-3" cx="62.181862922850996" cy="110.932276190096673" fx="62.181862922850996" fy="110.932276190096673" r="15.408679496408455" gradientTransform="translate(175.819498746440786 39.327978574487133) scale(.853091239733539 .645477583935139)" xlink:href="#radial-gradient"/>
    <radialGradient id="radial-gradient-4" cx="3.317088969550241" cy="110.932276190096673" fx="3.317088969550241" fy="110.932276190096673" r="15.408679496409677" gradientTransform="translate(175.819498746440786 39.327978574487133) scale(.853091239733539 .645477583935139)" xlink:href="#radial-gradient"/>
  </defs>
  <g class="cls-46">
    <g id="Layer_2" data-name="Layer 2">
      <g id="Layer_1-2" data-name="Layer 1">
        <g>
          <rect class="cls-3" width="849.999999999998181" height="200"/>
          <g class="cls-31">
            <g>
              <path class="cls-11" d="M584.601069803829887-12.808775260718903c0,2.993127869231103-.468921055320607,5.58893875094509-1.431611602010889,8.278060077191185-.985219719992529,2.752052951153019-2.074799858701226,5.241138635208699-3.897521273973325,7.514678716046546-1.804509770030563,2.250824099643069-3.734361159537002,4.286632913737776-6.191251572787223,5.910509068335159-2.387468671837269,1.577992011822062-4.910392515559579,2.916199632905773-7.757847454347939,3.755869121672731-2.719175440297477.801841890708602-5.555579445561307.336206211875833-8.557123639533529.336206211875833-3.00146596765444,0-5.636848999100039-.215813191749476-8.35596267645451-1.017614924137888-2.847667106496374-.839709070740355-5.854955299302674-1.06802852821238-8.242569023626857-2.646163665714994-2.456846968867467-1.62389606389479-4.266602907155175-3.957405934550479-6.071071799115089-6.208234324625664-1.82265477295914-2.273512791798566-3.424570999253774-4.651532320618571-4.409754946063913-7.403533380303998-.962660095694446-2.689083203236805-.729529776050185-5.52669843843978-.729529776050185-8.519776901495788,0-2.993127869231103-1.106907591118215-6.143601585619763-.144217044429752-8.83272291186222.98521971999071-2.752052951149381,2.381440336337619-5.682778415213761,4.204161751609718-7.956318496049789,1.804509770030563-2.250824099639431,4.321906451817995-4.281597290688296,6.778796865068216-5.905473445282041,2.387468671833631-1.577992011822062,5.55247759210215-1.969325082634896,8.39993253089051-2.808994571400035,2.719175440293839-.801841890706783,5.568670019731144-1.898115663299905,8.570214213703366-1.898115663299905,3.00146596765444,0,5.80506298434193,1.251659420840951,8.524176661692763,2.053461153225726,2.847667106498193.839709070740355,5.844033153640339,1.400512265232464,8.231646877966341,2.978647402733259,2.456846968869286,1.623896063892971,4.479596154224055,3.898523796688096,6.284065046185788,6.149352186759643,1.82265477295914,2.273512791796747,3.162397996988147,4.909683634572502,4.147581943800105,7.661684694257929.962660095696265,2.689083203236805.647884917476404,5.565401189018303.647884917476404,8.558479652074311Z"/>
              <path class="cls-5" d="M505.626500143413068,171.908199850129677c33.176790733499729-11.946804460079875,66.868969818160622-3.05379340555919,78.438520253175739,0,5.06335962569392,1.336401567590656,8.51863927582599,2.517375330860887,11.302889270707965,3.643906662651716,4.703826078317434,1.903136604129031,6.344785012504872,3.048455912279678,11.183756420687132,5.04937539329876,4.554376266471081,1.883281129119496,8.073705835951841,2.914057831480022,11.491409533373371,3.903842585430539,34.910195051310438,10.11049327182991,39.144108221204078,11.222826871509824,43.063109287539191,14.44902131003073,6.261733617064237,5.154844260528989,12.337508968228576,16.215197836558218,9.077368072434183,42.848648807508653-83.377623035295983,15.344118933180653-166.755246070590147,30.688237866359486-250.13286910588613,46.032356799540139-.11657085324623-68.400937139560483,10.92883774159418-87.255311903660186,21.72359765199144-90.929215278549236,4.68546510143824-1.594629492510649,25.111624886791105-8.850844857610355,39.413117882542792-13.691737763370838,3.472573128346994-1.175422770258592,5.217506431637958-4.384643980140027,24.439100733434316-11.306198516540462Z"/>
              <path class="cls-2" d="M505.044713375827996,173.281536871219942c4.564410753831908-1.409845475140173,8.615995153257245-2.405181222089595,11.956411947981906-3.119337823038222,11.764689189354613-2.515240333541442,33.275641109055869-6.984323457390929,57.020654216279581-.050065686980815,4.163671758331475,1.215880969330101,7.538035010322346,2.530825813939373,9.868384576628159,3.518582320439236-.0971423777155.620643718661086-.194071255689778,1.241394187200058-.291213633390726,1.862037905870238-5.231170414444932,16.653192535170092-20.220346044465259,28.287967138059685-37.240544617610794,29.0553919219401-18.309309950271199.825496710789594-35.279549586308349-11.091204287189612-40.964620429331262-29.0553919219401-.116357353519561-.737107822060352-.232714707037303-1.474108894250094-.349072060556864-2.211216716290437Z"/>
              <path class="cls-26" d="M486.540599136966193,118.24706485571005c-11.614809618600702,2.349372912010949-23.105613203035318-5.274941156209024-25.454986115033535-16.889750774798813-2.34937291202732-11.614809618600702,5.274924557554186-23.105695263289817,16.889734176140337-25.455068175309862,2.855083979626215,14.11493965003865,5.710167959252431,28.229879300088214,8.565251938893198,42.344818950108674Z"/>
              <path class="cls-26" d="M596.454662329775601,115.627906114990765c11.753146855789964,1.512235392820003,22.66890828711621-6.914727679859425,24.181143679958041-18.667874535649389,1.512235392820003-11.753146855789964-6.914735318305247-22.669014763359883-18.667882174095212-24.181250156179885-1.837827365594421,14.283011164159689-3.675434140272046,28.566113527669586-5.513261505862829,42.849124691829275Z"/>
              <path class="cls-39" d="M616.950378708854259,90.233629219290378c-.365641392816542-1.200957733519317-1.131967757317398-3.049037621769457-2.623180644317472-3.538369855370547-3.207118524282123-1.052440635359744-7.954763119092604,4.774295469931531-9.187563039562519,10.717277117730191-.478083094665635,2.304979719670882-.851650313466962,6.671832850550345.929102432040963,8.118482621221119,1.759229666791725,1.429177518890356,4.918568672765105-.562349846621146,6.110566419009047-3.984442405071604.878185954339642-2.521218101688646.823238665825556-6.206239628618277-.548683795674151-6.767360585377901-.840435636187976-.343717654370266-2.125357006425475.505072087118606-2.930779637712476,2.113731312078016-.934496769172256,1.866203649280578-.72225720408278,3.753767463991608-.69901083881814,3.939986995750587"/>
              <path class="cls-39" d="M465.05857075363383,93.800813204239603c.384126736968028-1.195173525398786,1.178874818031545-3.031210251048833,2.677459830310909-3.497477202698065,3.22297427952617-1.002834639040884,7.880156530545719,4.896456531949298,9.021118977927472,10.857750955448864.442464025807567,2.312081430089165.748613193745769,6.684178343541134-1.054247099069471,8.103181748820134-1.781070206874574,1.40186529994935-4.909307078100028-.638168591869544-6.048365510374424-4.078244462189105-.839183049520216-2.534467024070182-.7273882894915-6.218202192350873.65302808144952-6.758089783730611.845638619201054-.330710160409581,2.1173115782276.537802843680765,2.897819295014415,2.158696986129144.905592991453886,1.880399320891229.66425658555454,3.764463950041318.638139916480213,3.950302662651666"/>
              <path class="cls-26" d="M517.186732511381706,148.182935468030337c4.600919207863626,5.616964428771098,5.312513812048564,13.340210455920896,1.861931156010542,19.241022777339822-4.343865531482152,7.428616398059603-12.982918655714457,8.03314088703155-13.65480230986941,8.06879534214022,5.79609070324841,18.180676362200757,23.033205003317562,30.128975320400059,41.430049843394954,29.094248873030665,16.806698841926845-.945270060001349,31.563159764904412-12.55655969244981,36.775115203534369-29.094248873030665-.876629896403756-.212111982989882-10.520839755230554-2.724897069620056-14.275446028528677-12.413514872549058-3.430086681837565-8.850951607460956.825176461183219-16.542172674920948,1.396501741932298-17.53419917606152-17.844521035405705.879298643050788-35.688828571066551,1.758597286090662-53.533349606474076,2.637895929130536Z"/>
              <path class="cls-18" d="M570.720082117855782,145.5450395388998c-17.844521035405705.879298643050788-35.688828571066551,1.758597286090662-53.533349606474076,2.637895929130536,4.019132440296744,4.906864322720139,5.068270119521912,11.420314122889977,2.969567761589133,16.922842695710642.121908346525743,1.219403714889268.445146939604456,2.958999524900719,1.375151768819705,4.800861706160504,2.841467922849915,5.628173164648615,8.975315200908881,7.51326904149937,11.79287115385705,8.379117201458939,9.206108410369779,2.829191688320861,23.323137638340995-3.132574806379125,35.832300390447926-15.735677440230575-2.865166393006803-8.648553862280096.956478795895237-15.904342227899178,1.563458531760261-17.005040092230047Z"/>
              <path class="cls-26" d="M608.969337044352869,51.434891764860367c-5.214517435386369-28.737063822700293-29.277431642431111-66.381016182449457-66.800436404431821-66.800436404450011-37.462157338621182-.418672972929926-63.13870251422486,36.548271739109623-67.964223439343186,63.309075299750475-2.52143182574946,13.983058146619442.071949409419176,28.385963514700052,2.447347419023572,41.578325406739168,3.603875463053555,20.014745803291589,9.315420272741903,29.961271281539666,11.951714953898772,34.713241549250597,2.738774552124596,4.936647535199882,6.332402028088836,9.328657256080987,10.175824189573177,13.440662079450703,7.531843518099777,8.058654104888774,15.391836123100802,15.435176568529641,24.986300544562255,21.062709233998248,4.220249187101217,2.50221684994176,8.978304197156831,4.649490396721376,13.807027618233406,5.611413435752183,14.186843640081861,2.826095942198663,27.201146756271555-5.666176116810675,36.866279588768521-15.184421134230433,9.401247164696542-9.258522594371243,19.401574575216728-19.742640395839771,24.678220432404487-31.983433985820739,2.723829570964881-6.318631295429441,5.554409007509093-17.263908516340962,7.007915177684481-26.618078990310096,2.810296962101347-8.846361363250253,5.797585201387847-22.851623481919887,2.844029919626337-39.129056490130097Z"/>
              <path class="cls-11" d="M611.032826841215865,76.224493465260821c-6.723766282066208-3.454507722759445-20.037644395160896-11.672729779689689-32.277592554451985-29.865958889109606-13.082039865417755-19.444600296550561-17.975713382982576-39.935778167990065-19.820525798086237-49.583742733349936,1.327108725792641-.643771062241285,22.255604037198282-10.244094080740979,39.5143694535127,8.481485904929286,14.688103298685746,15.93656290699073,20.307569837881601,45.433876572080408,12.583748899025522,70.968215717530256Z"/>
              <path class="cls-11" d="M569.994899985242228,14.286706501879962c-4.819645559848141,6.624729968150859-9.807230322909163,13.974815850071536-10.529958945466205,22.300836396459999-.152286606567941,2.074641417080784.183334970908618,4.026882959391514.867601609472331,6.074719006341184,1.472680731689252,4.195596289770037.097158416087041,9.143496641228921-3.51253324155914,11.785053779220107-1.673802229313878,1.356655301589853-3.59188381462809,2.342970684918328-5.560564836243429,3.138203808788603,3.708544935536338-1.721187067709252,7.601088529128901-4.42132289105939,8.602973241842847-8.581144809699254.50150929645315-2.001182868129035.174000708761014-4.090117613359325-.504928436539558-6.039316784499533-2.641630630527288-6.135503719540793-.633844107398545-13.254861262690611,2.011215254598937-19.010759826720459,1.793990455005769-3.949001269069413,4.011398663491491-7.667632837659767,6.406225148628437-11.243219586320265l2.219970205265781,1.575628016429619h0Z"/>
              <ellipse class="cls-22" cx="579.87516409246382" cy="108.689027736305434" rx="20.980487696742784" ry="16.843845847984994"/>
              <ellipse class="cls-15" cx="500.907427923879368" cy="108.689027736305434" rx="20.980487696737327" ry="16.843845847984994"/>
              <path class="cls-1" d="M495.103802836883915,84.170832131165298c9.019101423335087,8.56749999989006,17.638332922688278,10.958028844517685,29.375763936002841,6.37471397801346-.000031514127841.00028602198654.958708720247159,1.54667274073654.958708720247159,1.54667274073654-10.036511514274025,9.388795223456327-25.76136975189911,4.618173013783235-30.33447265625-7.92138671875h0Z"/>
              <path class="cls-11" d="M552.291715771911186,72.770836654721279c12.186672348518186,7.842412402429545,28.784803441538315,8.893984606769664,41.442017982089965,1.85422666688828-3.362632920512624,1.103865484141352-6.7893036066489,1.901500480002142-10.243729257847008,2.252600788000564-10.259535545452309,1.180472962980275-20.66635330772624-1.593817465249231-29.332285051128565-7.065562928999498-.000016022220734.000056198819948-1.866003673114392,2.958735474110654-1.866003673114392,2.958735474110654h0Z"/>
              <path class="cls-11" d="M526.116648723900653,69.812157379430573c-11.63263562289103,7.509838295729423-26.450670541235013,9.421817140020721-39.576037555556468,4.812785502230327,12.658581150066311,7.039882680550363,29.254361980380054,5.988322235209125,41.442008227415499-1.854230919190741.000016979036445.00012469225112-1.865970671859031-2.958554583039586-1.865970671859031-2.958554583039586h0Z"/>
              <g class="cls-40">
                <path class="cls-26" d="M550.507733500946415,112.222101662415298c-3.380130895893672,5.688856520886475-12.808131880037763,6.665557148648077-16.677766975304621,1.001817661493988,1.532259162804621.464979213506012,2.925447639367121.871229213506012,4.313509162804621,1.105604213506012,4.32398384917542.805386356161762,8.366415471646178-.336164177282626,12.3642578125-2.107421875h0Z"/>
              </g>
              <path class="cls-1" d="M586.312787211883915,82.038507912415298c-3.913439218620624,12.714663697341166-19.727487543406824,18.144000759049959-29.875911413128051,8.911433970555663.000056920936913.000187123194337.65764969437987-1.161433970555663.657649694378051-1.161433970555663,12.102473938464755,3.862720059929416,20.399618966184789,1.156141033898166,29.21826171875-7.75h0Z"/>
              <path class="cls-11" d="M477.80443504449795,75.861470109959555c1.493425086200659,9.275167735020659,2.293553612793403,19.14068461853094,1.234225286218134,28.457020992971593.000230159723287-.000015442710719-.265577005651721-.00311118881109-.265577005651721-.00311118881109-.603447574460006-9.202658967618845-3.012876541139121-18.387359609379928-6.047613797800295-27.055961406849747.00023391088871-.000058907129642,5.078965517233883-1.397948397310756,5.078965517233883-1.397948397310756h0Z"/>
              <path class="cls-11" d="M605.07482732286735,68.238675706350477c-2.450090297379575,13.573617384139652-4.24841018665029,27.724514768820882-4.212563615967156,41.526153962060562-.000213080549656-.00002923969987-.324946171735064.021907857859333-.324946171735064.021907857859333-2.060703228778948-13.75785982466914-2.329092635050984-28.380865347369763-1.864887959638509-42.321952022659389-.000245692328463.000007051979992,6.402397747340729.773890202739494,6.402397747340729.773890202739494h0Z"/>
              <circle class="cls-16" cx="605.975925303971508" cy="114.63981729731313" r="4.928292242413363"/>
              <circle class="cls-16" cx="477.678562388287901" cy="115.824447686748499" r="4.928292242410407"/>
              <path class="cls-14" d="M558.563519633758915,137.105402443665298c-8.352215630879073-5.546860160831784-19.63466462636643-5.739708617278666-27.762931206036228.33181741054068-1.179695747088772.79708883945932-2.265999458026272,1.72677633945932-3.325691840838772,2.69796774570932l-.996826171875-.91845703125c6.811070915240634-8.706352764591429,19.517702032730085-11.303785435111422,29.099019476569083-5.709703062246263,1.316141656243417.766343687246263,2.590677789055917,1.602769468496263,3.728861382805917,2.609605405996263l-.742431640625.98876953125h0Z"/>
              <path class="cls-11" d="M579.87516409246382-5.822640403208425c-5.353078760981589,12.097001520989579-17.802248088624765,35.845003624448509-43.525122705914328,56.093745133159246-27.492146889935611,21.641400255479311-55.516548609799429,27.768949291468743-68.662367560444181,29.792499744009547-.722696590186388-2.585268245398765-11.377827676360539-43.269243278029535,15.59444736804835-72.85197953612078,22.954850601963699-25.176528805079215,63.144467006961349-31.324146815788481,96.593042898310159-13.034265341048012Z"/>
              <g class="cls-41">
                <path class="cls-26" d="M526.029584086883915,95.838800881165298c-1.930994567495873,3.893788435354509-6.389868366692099,6.378698200704093-10.706646050195559,6.168000924750231,4.252733115341471-.548724492144174,8.003489591894322-2.899152533445886,10.706646050195559-6.168000924750231h0Z"/>
              </g>
              <g class="cls-41">
                <path class="cls-26" d="M526.029584086883915,98.710871193665298c-1.402929336378293,2.831896325398702-4.638639605109347,4.626826004005125-7.774890242621041,4.479016507641063,3.08426496651191-.404719674603257,5.825277881038346-2.090536327606969,7.774890242621041-4.479016507641063h0Z"/>
              </g>
              <g class="cls-41">
                <path class="cls-26" d="M540.550458110321415,87.797785256165298c2.52101524290083,4.999803146445629,1.581727297983889,11.365841765815276-1.546560792339733,15.889163412959533,2.293646838188579-4.947412134448314,2.922358066029119-10.594966817419845,1.546560792339733-15.889163412959533h0Z"/>
              </g>
              <g class="cls-41">
                <path class="cls-26" d="M555.884198344696415,94.203546974915298c2.961045944801299,3.010952080901916,6.53257972420397,5.306634940849108,10.706724238943934,6.167861208861723-4.280563675443773-.125516147738381-8.474156004052929-2.501502357943536-10.706724238943934-6.167861208861723h0Z"/>
              </g>
              <g class="cls-41">
                <path class="cls-26" d="M585.406659282196415,81.072687599915298c2.277064141544543-1.084371696495509,4.276641067343007-2.657996995474605,5.572959680328495-4.848188319512701-.895302655160776,2.394991857470814-3.075840749461349,4.288292766235827-5.572959680328495,4.848188319512701h0Z"/>
              </g>
              <g class="cls-41">
                <path class="cls-26" d="M586.413495219696415,82.375910256165298c2.511882408090969-.225027637488893,4.934731811188612-1.003438363219175,6.91196631402272-2.606012059586647-1.672808073131819,1.933904994184559-4.376002177601549,2.949689587054309-6.91196631402272,2.606012059586647h0Z"/>
              </g>
              <g class="cls-41">
                <path class="cls-26" d="M494.694745219696415,83.306574318665298c-2.581453188769956-.335282889813243-4.845708082208148-2.366110867587849-5.573124839072989-4.848624724785623,1.143273771825989,2.29171353208767,3.190842293588503,3.972022208930866,5.573124839072989,4.848624724785623h0Z"/>
              </g>
              <g class="cls-41">
                <path class="cls-26" d="M493.687909282196415,84.609308693665298c-2.536417405735847.58427202128405-5.366383232463704-.531381972547024-6.911989079360865-2.605947186717458,1.869244132712993,1.750695762753821,4.373514601436909,2.613763509245473,6.911989079360865,2.605947186717458h0Z"/>
              </g>
              <g class="cls-41">
                <path class="cls-26" d="M555.884198344696415,96.867609474915298c1.76775957657992,1.798192287989878,3.907634342744132,3.176371412555454,6.400663761462056,3.686960848048329-2.556006602453635-.06490347894578-5.056766544106722-1.509512387983705-6.400663761462056-3.686960848048329h0Z"/>
              </g>
              <g class="cls-41">
                <path class="cls-26" d="M524.089764750946415,120.842218849915298c-5.047301922062616,6.075054783050291-8.121836542881283,13.722550030943239-7.893666902849873,21.678759979015013-.975824165330778-7.93412543739214,2.094966840135385-16.200416335317641,7.893666902849873-21.678759979015013h0Z"/>
              </g>
              <g class="cls-41">
                <path class="cls-26" d="M560.091595805633915,120.842218849915298c6.107525297520624,5.214717932252825,9.186432427128238,13.762487049247284,7.893668244223591,21.678708021234343.537832794540009-7.954841025635687-2.526147308844884-15.843700425870338-7.893668244223591-21.678708021234343h0Z"/>
              </g>
              <g class="cls-42">
                <path class="cls-5" d="M559.222455180633915,92.837824318665298c7.335085963355596,4.598547728237463,17.684028216690422,2.865442691465432,23.069162182635409-3.971881520050374.285330004864591-.347942698699626.798757739239591-.398723948699626,1.146780200177091-.113567698699626.327392578125.2685546875.391845703125.73876953125.1607666015625,1.08349609375-2.788110993733426,4.116444283510646-4.46460387857951,8.929080815149064-4.525268430063079,13.571289119394351.021930645383691,2.275592816025892-.046603577644419,5.39177275331167-.272911078644029,7.60450353548913-.584973628539956,5.108681325238649-1.661258988428017,9.866280137421199-1.107908120338834,14.983396410107162.300372576051814,5.084139997903549,1.457280847878792,10.115840976242907,1.158520892411616,15.243641875527828-.114493810240674,2.60498155948153-.546134435240674,5.18945421573153-1.077018224303174,7.79785265323153-.154847605874238.803048438036058-.937420726218988,1.32692074737497-1.738891810417044,1.163084643947514-.954233802745875-.179369567029426-1.472757313282273-1.292424871980984-1.003522346423779-2.138686361065993,2.365580497320479-4.38486419939909,2.87616478754353-9.47421565449622,2.143606353798532-14.382313428797715.000052920229791.000004989666195-.886787900082709-7.554194229083805-.886787900082709-7.554194229083805-.704559046314898-5.014176203218085.021287802181178-10.302903712647094.365573231054441-15.251461476294935.130579123424468-1.807401056661547-.160350459835172-3.742536639547325-.465481446495687-5.509283327290177-.40459538570758-3.358925746128079.535955249237304-6.855283083881659,1.947901644312878-9.805663426524916,1.128324930503368-2.397458957389972,2.598295633628368-4.555662082389972,4.112944071128368-6.637693332389972l1.28955078125.99560546875c-4.544031395882485,5.358607012434732-11.790133940612577,8.274959569764178-18.783113127296019,7.262626794581593-2.338102693016481-.285087732081593-4.612882966453981-.938896325831593-6.810270661766481-1.915947107081593-.6934814453125-.30712890625-1.006591796875-1.1181640625-.699462890625-1.8115234375.328101893417625-.756233972566406,1.277423080749941-1.050099791877074,1.975830078125-.61328125h0Z"/>
              </g>
              <g class="cls-42">
                <path class="cls-5" d="M522.835248149383915,95.860773537415298c-5.703125,2.45556640625-12.2236328125,2.86376953125-17.8740234375.27685546875-2.638772148507996-1.261958053328271-4.867709649357494-3.478396518417867-7.168651757969201-5.121656127994356-.037769140468299-.017504028255644-.085132421718299-.036058715755644-.050342382655799-.012132934505644.340799364328632.192328431363421,1.028100407758757-.109493048006698,1.144153653871399-.574226203010767.053722322691101-.204094109489233.062999666441101-.227043328239233.052623689878601-.353996453239233-.0118408203125-.06689453125-.0126953125-.07421875-.006591796875-.06982421875l.005615234375-.009765625c1.535097959113045,2.07736531635237,3.02496669123866,4.61024739732602,3.217359739339372,7.337917222948818.02549231107696,3.023570043194923-1.129842724760238,5.819241798608346-.908908677009094,8.851552936463122.09287524553838,2.925997690703298.581846181363289,5.800712566322545.479886412176711,8.74217713422513-.040217252208095,3.628066722110816.009591544454452,7.248013234140672.610998108433705,10.825682343514927.280815260468444,2.065687148740835.090491651319098,4.283328613082631,1.397079565615059,5.981406966198847.469331921756748.674349334149156.303316296756748,1.601595427899156-.371000109493252,2.071321990399156-.85663809171092.622676087115906-2.138382639264819.091141950137171-2.314565270993626-.947792296938132-.697953643035362-2.356907987896193-.239951076695434-4.632686556777116-.238797380667165-6.923312089993487-.150490787455055-2.148322750072111-.290161584387533-4.478391403865317-.363756749511595-6.606469966225632.000005143359886.000035290655433-.103144270702614-4.390589709342748-.103144270702614-4.390589709342748.025991656682891-2.914583766618307-.710018507004861-5.786560936672686-.974742494148813-8.67234913500215-.252126879688149-2.17309780636424.091170593233983-4.526179209355178.154307177588635-6.681652321012734-.200728389161668-2.650684526484838-.937457602627546-5.154786728762701-2.161230942136172-7.528810151490688-.211174788910284-.45512316690656-.608511418555281-1.079988347562903-.683023681325722-1.714843345267582-.128362085843037-1.349954054130649,1.370393506524124-1.946452683478128,2.326558160026252-1.111756356131082,2.165802432689816,2.061006820753391,3.928567857165035,4.248968428557419,6.657680521166185,5.481268410487246,5.019273878880995,2.341976294042979,11.28038733097128,1.607226128035109,15.896140711573025-1.27378708530523,1.658055388988942-.990121251361415,3.054347890460122,1.598645426187431,1.276375976944109,2.424781546222221h0Z"/>
              </g>
              <g>
                <circle class="cls-36" cx="508.120499208389901" cy="90.429849374660989" r="26.672381244956568"/>
                <circle class="cls-36" cx="573.012724762954804" cy="90.429849374660989" r="26.67238124496339"/>
                <path class="cls-36" d="M534.512695285931841,88.85613125089003c.927869831908538-.561931292579175,3.63995691764103-2.035346312690308,7.215436916440012-1.629323198829297,2.142683302568912.243336318650108,3.744144786460311,1.065043409200371,4.652372643098715,1.629323198829297"/>
              </g>
              <g class="cls-42">
                <path class="cls-5" d="M503.948163188446415,136.782648537415298c.224906173276395,1.128192841613782.882494872139432,2.048462490562088,1.56928661335769,2.878375045425855.64104053507981.886273392074145.44255420695481,2.124066360824145-.44331005085769,2.765179642074145-1.187863003868188.91080585752934-3.024464349175105.064554369024336-3.131330230911772-1.411676461038951-.169107497491495-1.147010501930708-.481068466706347-5.384705083679364,1.403609586566745-4.925304090995269.324732840286742.107546590104903.541138280324958.379395806550747.601744081845027.69342586453422h0Z"/>
              </g>
            </g>
            <g>
              <path class="cls-26" d="M457.297128129383054,209.62123939599951c-2.891994682810036-1.7767514217594-1.164584875230503-12.402291947788399,3.979506466283055-19.643157874439567,2.779253460328619-3.911971533329051.997093549773126-4.712735007809897,15.853777147291112-12.291932562269722,2.196826543648058-1.120569677088497,3.768988607902429-3.022103393319412,5.332313322398477-2.427470528440608,1.946425275880756.740343449851935,2.754048892342325,4.446826012321253,2.085250671121685,7.367596154861531-.70506182241661,3.081303286309776-2.792810802522581,4.151973082698532-5.937999234884046,7.49590397216889-4.361243306313554,4.636718906400347-3.554007580612961,5.987733571220815-7.219565812223664,10.358126236260432-3.932969874827904,4.689301139240342-11.326610710986643,10.840491009830657-14.093282559986619,9.140934601859044Z"/>
              <g>
                <path class="cls-19" d="M518.281417902124304,235.211369099110016h-37.380522347197257c-4.442022436649495,0-8.270772240719452-3.158438094198573-8.512200695591673-7.081602260159343l-4.698018840776058-76.341867725739576c-.338550075150124-5.501371095389914,3.794825899276475-10.090106446950813,9.191869760985355-10.090106446950813h45.417221897963827c5.397043861707061,0,9.53041983613366,4.588735351560899,9.191869760981717,10.090106446950813l-4.698018840761506,76.341867725739576c-.241428454886773,3.92316416596077-4.07017825893854,7.081602260159343-8.512200695604406,7.081602260159343Z"/>
                <path class="cls-28" d="M495.749844465957722,159.085768638631635l-19.954483957273624.000000023928806c-2.112722426243636.000000002541128-3.936403276085912-1.758445306290014-4.053516476422374-3.924158291489221l-.25652151963186-4.743717911340354c-.12029702525615-2.224589789360834,1.552145674066196-4.058922794629325,3.717478782828039-4.058922791969962l20.451387499531847.000000025060217c2.165333094912057.000000002659363,3.936969249874892,1.834333000530023,3.936969233382115,4.058922775759129l-.000000035153789,4.7437178734599c-.000000016041668,2.165712982910918-1.728591103266808,3.924158294070367-3.841313527260354,3.924158296591486Z"/>
                <path class="cls-24" d="M503.718097873022998,155.122642932990857h-.000004521725714c-1.243473303373321-.000000006619302-2.25708700226096-1.041509550139381-2.252454109404425-2.320200164600465l.000013250291886-.003657113569716c.004655973392801-1.285060902469922,1.035085058196273-2.34123232085949,2.289821340968047-2.341232315349771h.000004630612239c1.254736262661027.000000005529728,2.268239510678541,1.056171416030338,2.252301563981746,2.341232297949318l-.000045357804993.003657154489701c-.015858939566897,1.278690614761217-1.046163493178028,2.320200147700234-2.289636796918785,2.320200141080932Z"/>
              </g>
              <path class="cls-26" d="M474.237160818856864,192.188211576411049c-4.228693508257493-.933090378081033-8.332041378320355-.029844199571016-10.536609443461202,1.598616028490142-6.32214932268289,4.669928520348549-8.207614023189308,16.108177146959861-6.896076237489979,24.375594354680288,1.553505372987274,9.79348887416927,7.564586307851641,14.956305828958648,9.341923177607896,16.333041712188788.232096044344871.179639124329697.481180325374226.335632459780754.703404826777842.485656955299419,5.302625551241363,3.581992660670949,10.04900113664371,5.003265272471253,11.406453075533136,5.384352743911222,5.593262140897423,1.570378824269937,10.133253607733423,2.84507050206048,13.321302834086964.518370789450273,3.164633008205783-2.309826261311173,4.640773033072037-5.920974409240443,4.640773033072037-5.921089194620436.0557856961168-.138086815710267.097567575514404-.246329431840422.125116067431009-.318414652350839.015151670548221-.039830527879531,2.594149654902139-7.370025083719156-.183427041974937-17.194391225908475-2.547776360182979-9.011456060070486-8.167439139151611-15.045838427680792-10.992536984576873-17.725044051359873-.530997181573184-.103651200801323-1.86985388841822-.438365377520313-3.067065432696836-1.604699653780699-1.132243017515066-1.102857959471294-1.517233191960258-2.344950588489155-1.64900681160907-2.873766847789739-1.114106927012472-.918168278300072-3.219500421266275-2.397407508511606-6.214251062699987-3.058226958210071Z"/>
              <path class="cls-26" d="M465.179675820216289,200.95253470696116c-2.343917520038303-3.062474017380737-2.064070756383444-4.04962831084049-1.443081834573604-4.766807383581181,1.483134035492185-2.350987832300234,3.204040755683309-4.82928395575982,4.936344282530627-6.971095370319745,3.012065247545252-3.742072431799897,6.682409825200011-6.976433675470616,10.820369991037296-9.511012449140253,8.648452302715668-1.498155349849185,17.022580016175198-4.613607142378896,25.900477177174253-4.210865916409603,1.548026429874881.035602619860583,2.78666366737707,1.363928314831355,2.626992588842768,2.921116724081003-.086990613774105.895536082049148-.623956635274226,1.651512614240346-1.351925533996109,2.062903426758567-1.946530524244736,1.081967019790682-3.965375839761691,1.8637702631313-5.982843730665991,2.645688291850092-5.920479905320462,2.089218011180492-12.231103677004285,5.004853390590142-18.457240037127121,5.882748997561066-.000019972121663-.000112906220238,2.434118858936927-1.643150877920561,2.434118858936927-1.643150877920561-2.040968289167722,5.449768030639461-5.53600957992785,10.065511317750861-9.40723594177507,14.310370425979272-.00011490412362-.000076732309026-1.966618084996298,2.069618507841369-1.966618084996298,2.069618507841369-.754014881502371,1.910107360459733-6.645615682533389-.468123553080659-8.109357735387675-2.789514376700026h0Z"/>
              <path class="cls-26" d="M470.588592636082467,210.748319288781204c-.242655414067485-2.08231445579986-.710634240669606-4.487996676660259.990422455652151-5.384651623609898,3.956209717907768-2.076094673620901,8.038294894815408-3.859530401030497,12.314136080522076-5.203238460551802,5.469135625133276-1.738396622518849,11.029929349640952-3.297024346358739,16.4030183598843-5.316856512879895,6.084025741456571-1.36409493148858,12.746639816017705-3.055532013839183,18.941672349152213-3.636560869857931,3.064844333137444.065768412789112,8.887554543563965-2.484270261920756,9.535761398014074,2.097279442928993.084140237953761,1.278115409539168-.668136914891875,2.318588321140851-1.719360986193351,2.874177504250838-7.434062123707918,4.528764033068001-16.158445493800173,5.273290079258004-24.377416670860839,7.507472329829397.000020820381906.000092717878942.661873338522128-.233839892591277.661873338522128-.233839892591277l-3.663031141033571,1.885120344360985c-7.490705843883916,4.158150829580336-14.658635100870015,9.185990775220489-22.817104361382007,11.958195949920992-.903853014742708.398014359598164-1.647651968212813.008167383699401-2.560777925336879-.7055242817205-1.445641232674461-1.102102659640877-3.514895989779689-3.730891903689553-3.709192896940294-5.841573930079903h0Z"/>
              <path class="cls-26" d="M475.72845251426952,221.634909364900523c.378332622236485-6.234797646260631,3.61275514330373-5.265205516399874,5.899279971865326-6.686478128209274,7.477196948222627-3.103604335659838,15.029089249670506-6.014435765680901,22.67538590111144-8.684221793309916,4.837282718946881-1.249646028911229,12.829507251421091-3.341937401841278,16.177753163077796-3.820744139069575,3.313041795514437-1.048203375281446,6.672580383998138-1.984852100231365,10.07550784724117-2.817734838990873,1.823710164464501-.446515139710755,3.664178994849863.670002280339759,4.110694134569712,2.493712444818811.359966960966631,1.471319038781076-.301655986422702,2.955149684301432-1.526645593370631,3.707567869611012-7.308627659645936,4.956157801760128-18.322079587169355,8.955506573860475-24.991178945541833,11.322001187179922-7.268217522456325,3.230934254270323-14.63116428844296,6.221985727070205-22.067833368975698,9.034638005479792-2.639385375045094.531201300769681-4.330862778344454,3.45352236556937-8.878430080470935-.828775916528684-1.054648098637699-.993123133390327-1.549143528432978-2.378582705710869-1.474533029506347-3.719964690981215h0Z"/>
            </g>
            <g>
              <g>
                <path class="cls-27" d="M357.978370152051866,156.802832643721558c34.281199571165416,4.471974406589652,68.562246827355921,8.944060582340171,102.843446398510423,13.416034988938918-31.542334915073297-15.623978339859605-63.084797490819255-31.248095945458772-94.627132405907105-46.872074285320195-2.738724668262876,11.1520176815593-5.477589324324072,22.304021614820158-8.216313992603318,33.456039296381277Z"/>
                <circle class="cls-27" cx="269.665232198860394" cy="113.41727813455509" r="143.347366985789449"/>
              </g>
              <g>
                <path class="cls-16" d="M222.206182295216422,126.473815476021628c18.894635840735646-3.924692828981279,34.679885789542823-1.723521676611199,46.314413479478389,0,7.109022667362296,1.053123177749512,11.704113995165244,2.184846104290045,17.872839106537867,3.704147102418574,23.164549859797262,5.705194596079309,30.972713195578763,5.458301880780709,36.686984266281797,12.265405705580633,3.346950008295607,3.987030560780113,3.898093715895811,8.739447448280771,5.000381131047106,18.244281223300277,1.575650777927876,13.586978225859639.244182379148697,25.680435162670619-1.923960490634272,35.457184989209054-47.825961655529682-8.490159552149635-115.618213465182635-16.980382135388936-163.444175120714135-25.470541687549485.38089677778953-10.099784078760422,1.894272854986411-16.856463044709017,3.917759410858707-21.389973013590861,1.940411600859079-4.347379208549683,5.282256092214084-6.584352010699149,6.978044096436861-8.050328720568359,2.41894351164774-2.09111889784981,18.003439491043537-6.735374463059998,32.525294600563939-10.139808810501563,7.066161537330117-1.656519645348453,10.647902294811502-3.493623316589947,16.07241952014374-4.62036678829827Z"/>
                <g class="cls-43">
                  <path class="cls-38" d="M158.708336203031649,156.714190653310652h174.469917179001641"/>
                  <path class="cls-38" d="M158.708336203031649,138.932139206999636h174.469917179001641"/>
                  <path class="cls-38" d="M158.708336203031649,192.27829354593996h174.469917179001641"/>
                  <path class="cls-38" d="M158.708336203031649,174.496242099630763h174.469917179001641"/>
                </g>
                <path class="cls-10" d="M221.86266294408415,127.284710237900072c2.695082645119328-.83245138906932,5.087364012648322-1.420153119328461,7.059732367815741-1.841831001740502,6.946528559632497-1.485138156229368,19.647731108147127-4.123934052608092,33.668110996066389-.029561573519459,2.458463994822523.717923928339587,4.450876231401708,1.494340692970582,5.826844568164233,2.07756721702026-.057358276986633.3664626619302-.114590491815761.732988354930058-.171948768800576,1.099451016860257-2.073848383683071,1.803571140080749-10.349071974864273,8.574558159729349-22.897928418467927,8.642442625990952-12.78850058543685.069208118809911-21.241219679883216-6.870639147011389-23.278699134081762-8.642442625990952-.068703870238096-.435229563230678-.13740774046164-.870396095378965-.206111610696098-1.305625658620556Z"/>
                <path class="cls-6" d="M210.936782415854395,94.789317946060692c-5.692514197402488,1.387200780889543-11.324252012462239-3.114619417679933-12.475699095601158-9.972650720639649-1.151447083138919-6.858031302981544,2.585284126062106-13.6428909810802,8.277798323446405-15.030091761989752,1.399300257389768,8.334247494200099,2.798600514754071,16.668494988418388,4.197900772154753,25.002742482629401Z"/>
                <path class="cls-6" d="M277.030538657694706,92.225026306879954c5.140801898982318.892908106290633,9.915333161436138-4.082840824519735,10.576781765339547-11.022554146758921.661448603885219-6.939713322230091-3.024490793104633-13.385050462271465-8.165292692103321-14.27795856856028-.803861853068156,8.433486288709901-1.607627220148061,16.867026426600205-2.411489073236226,25.300512715319201Z"/>
                <path class="cls-37" d="M285.99532221528716,77.230829106440069c-.15993078190877-.709112417740471-.495120333962404-1.800321842600169-1.147373737698217-2.089250881119369-1.402786947388449-.62141964086004-3.479396782022377,2.819010285800687-4.018620893661137,6.328078063210341-.20911254757084,1.360988564549189-.372510069217242,3.939422172199556.406387464188811,4.793604869759292.769483383706756.843866105760753,2.151371669522632-.33204270908027,2.672748995315487-2.352636989859093.384116703147811-1.488667763891499.360082873869032-3.664509969970823-.239993146793495-3.995827073960754-.367604792778366-.202950070679435-.929626717739666.298222725759842-1.281916895277391,1.248064839650397-.4087469359838,1.101910704079273-.315913793288928,2.216433640969626-.305745881643816,2.326388037128709"/>
                <path class="cls-34" d="M200.408262743418163,80.354887716770463c.18826368883856-.705697098690507.577776292419003-1.789795568780391,1.312245193650597-2.065105578580187,1.579606334180426-.592129494329129,3.862129849791017,2.891140989160704,4.421324975988682,6.411021650601469.216855276281422,1.365181810378999.366901513993071,3.946711639688147-.516695217223969,4.784570381409139-.872917230000894.827739448630382-2.40609197732374-.376810324340113-2.964353929985009-2.408022955280103-.411290548912802-1.496490666499085-.356499012972563-3.671573334690038.320054460395113-3.990353075700114.414454476964238-.195269720879878,1.037711905331889.317548789689681,1.42024518868493,1.274615081149022.443838610375678,1.110292620222026.325557643049251,2.222749442820714.31275764766724,2.332478982119937"/>
                <path class="cls-6" d="M225.763530027226807,113.823668097131304c.102110339237697,1.785355159800019.719688798399147,13.840237079568396-2.748659057688201,14.773853341779613-.273554859420983.07362029397882-.586188984494584.081751302459452-.946096414758358-.007185542390289,2.037479454198547,1.771803478979564,10.490261579721846,8.711587713720292,23.278699134081762,8.642442625990952,12.548856443603654-.067884466261603,20.824080034784856-6.838871485910204,22.898054480623614-8.642442625990952-.255401910244473.107720104790133-.629554363149509.217772359299488-1.046567946112191.14459328285011-2.145325621149823-.376295509400734-2.936491656997532-5.162623114531016-3.298416081637697-7.352511704710196-.29611998378823-1.791721298230186-.551395831877016-4.431021443209829-.206111610677908-7.69615711798906-12.643655178315385.045823590518921-25.287247325530188.091584149939081-37.930902503831021.137407740459821Z"/>
                <path class="cls-17" d="M235.655437625251579,130.045849448149966c7.258028125368583,2.230543632660556,17.933222875055435-1.665974306388307,28.021724391624957-10.352349590679296-.166402034301427-1.622041648090089-.232206475135172-3.64817550906082.017270514181291-6.007239500799187-12.643655178315385.045823590518921-25.287247325530188.091584149939081-37.930902503831021.137407740459821.060194675295861,1.051988618428368.298515164589844,5.668636573400363-.224705777400231,9.475524325798688,2.677938193100999,4.453208381110016,7.728555089821384,6.012786235260137,10.116613375425004,6.746657025219974Z"/>
                <path class="cls-6" d="M283.225493121939508,55.339656143931279c-3.078941883351945-16.967965013889625-17.287028308477602-39.195053716000984-39.442702804182773-39.442702804190048-22.119683752687706-.24720787068145-37.280547886392014,21.580137762639424-40.129804537549717,37.381208510929355-.78814054432587,4.370637674699537-1.424943480940783,14.025989653500801,1.445050393425845,24.550161950819529.944205482566758,3.46248596623991.983473841430168,2.292251053720975,3.326275816161797,9.5169987722511,4.065504247400895,12.537132663888769,4.140763349272675,16.657284852090015,8.474906032366562,21.530847463080136,1.946273490708336,2.188501906548481,3.819809122469451,3.481458319380181,6.276003998631495,5.176552981778514,5.771881471964662,3.983311727410182,10.957321835127004,5.668951728781394,13.74310619516109,6.55088251062989,3.236078349849777,1.024507070340405,4.892724057357555,1.550816534911064,7.375391984425733,1.603384450310841,4.335655428852988.091773243158968,7.642517674359624-1.278585328049303,9.299604599373197-2.107317883759606,10.07072675382733-4.587905785419935,15.211541116877925-10.136279070389719,17.774384569567701-13.55981183313088.286539260598147-.382850741079892.727378589386717-.914833002259911,1.215239099059545-1.721000433659356,1.654565682094471-2.734035848590793,2.528554548662214-6.340673880160466,6.389207806836566-18.435580531669984,1.101404980146981-3.450699155460825,2.013716739465963-6.237870199111057,2.574062983805561-7.939646155320588,1.659356043661319-5.223385069459255,3.423217607369224-13.492872832939611,1.679273862917398-23.103976998068902Z"/>
                <g class="cls-41">
                  <path class="cls-26" d="M252.216473735321415,90.048761818665298c-3.272116384147921,6.534839728743464-13.155686424661326,7.583249883517055-16.983777854553409,1.020333694559667,6.195449507293233,3.045250307695824,11.15680812842038,2.522097105222201,16.983777854553409-1.020333694559667h0Z"/>
                </g>
                <rect class="cls-12" x="213.738291358646165" y="69.786575463431291" width="22.798786103072416" height="12.62695878751947"/>
                <rect class="cls-12" x="249.606704355122929" y="69.786575463431291" width="22.798786103074235" height="12.62695878751947"/>
                <g>
                  <path class="cls-23" d="M232.37068842930239,104.071687365270918c2.241154435547287.979751349650542,8.28714614332057,3.255497378710061,15.567089810028847,1.490056692660801,3.666232882562326-.889067424421228,6.419755462571629-2.505827729140947,8.18487879456552-3.767944861701835.125037503186832,4.461522179581152-1.534565600839414,6.364853208640852-2.18799762899107,6.997022514160562-3.787779491007313,3.664884127780169-12.958836055111533,2.538277182680758-21.563970975603297-4.719134345119528Z"/>
                  <path class="cls-13" d="M232.244977153290165,103.995539162415298c.230630864305567-.003152513756504.664884133391752.126086401356588.902014743338441.23733641416402,7.439590833137117,2.988235267310301,16.333749599476505,2.156244123543729,22.822579226421112-2.652975696033536.000015405233171.000111938121336.405655053683404-.293345093132302.405655053677947-.293345093130483.820086816197545,15.321300287971098-17.375128236350974,9.664182754066132-24.1302490234375,2.708984375h0ZM232.483807719696415,104.141046974915298c2.10211814298691,1.380577009818808,4.202767747578946,2.99854031142786,6.473196425209608,4.091706863504442,7.047497696144092,3.592048004715252,17.392357474462187,4.164363129046251,16.902591469031904-6.431674788998862.000127633103148.00012417549442.415960152632579.20666714424442.415960152633488.20666714424442-6.638726702427448,4.843069708633266-15.715436344838963,5.707875951244205-23.240118174524468,2.502817486798449-.298975479827277-.103336843330908-.334069378811364-.147070368493587-.551629872350532-.369516705548449h0Z"/>
                </g>
                <g id="_9VrKlJ" data-name="9VrKlJ">
                  <path class="cls-8" d="M263.476938730373149,91.080115633711102c-1.315938994461249-.332669265981167-2.742632759942353-.533235335100471-4.051885032984501-1.058378444320624-2.553155468260229-1.024065038540357-5.04942190215661-2.208651695809749-7.551968491005027-3.368103271039217-1.532820598602484-.710169099080304-3.014941489100238-1.542666514391385-4.552883095590005-2.239335667691194-2.511672709304548-1.137761495368977-5.067310828351765-1.148586042900206-7.571055490836443.005585320790487-1.92250377997334.886233073999392-3.805034287266608,1.871590222799568-5.686299680710363,2.853311106919136-3.03635759595636,1.58449608159026-6.138505437626009,2.986117876600474-9.508150250618201,3.541111599621217-.855076398631354.140828410569156-1.847477121837073.14613822228057-2.634579061095792-.173930487129837-4.650087091509704-1.890916844469757-8.911011103993587-4.490213117340318-12.340110861774519-8.364592816740696-1.163756610490964-1.31487741411911-2.063919720627382-2.888596763819805-3.082250141746044-4.345800811559457-.288713038818969-.413142968740431-.223906770565009-.782828361980137.035314517939696-1.218105412839577,2.724531089188531-4.574931026350896,6.340476809946267-8.257048637471598,10.370015823305948-11.525999372010119.71018517937955-.576135061590321,1.460839945353655-1.096689008960311,2.187001242025872-1.651337776360378.918924640496698-.701884472209713,1.92552058993715-.855830303549737,3.027728870689316-.631689991110761,4.212636671063592.856669353999678,8.248540180280543,2.324379178380696,12.264640873130702,3.870520295120514,1.48432889261494.571444576129579,2.988717949569036,1.086060277821161,4.489417631748438,1.609232700049688,3.257635741074409,1.135670130850485,6.506435148447054,1.032798221549456,9.736385440653976-.12731024932873,3.529581155475171-1.26772665054159,7.037147167262447-2.606939942621466,10.588388802034387-3.802809949760558,1.90619570546005-.641905458589463,3.88065998222919-1.062657943070008,5.830708642863101-1.555174855109726,1.038660638594592-.262331338000877,2.003996575616839-.052852208031254,2.896401402071206.59411032251046,4.807449954520052,3.485243591578183,9.048306233631592,7.567968507479236,12.324817040916969,12.707624875718466.544591507241421.854274018680371.531780337183591,1.481576356651203.031513229241682,2.331644876980135-1.865249268270418,3.169536350569615-4.378262782011006,5.649236628829385-7.250040959514081,7.761576264179894-2.39133767439489,1.758941155940192-4.968701150373818,3.16191545016045-7.675430627850801,4.29518227644985-.560784964618506.234788397530792-1.180111180659878.314581296810502-1.877679822895516.492669466661027ZM251.467607742826658,79.538150666630827c3.675834249359468,1.698357241850317,7.382129739875381,2.608783737459817,11.230817747949914,1.354141108069598,3.375821814526716-1.100492590410795,5.829373676730029-3.501528154560219,7.846161579698673-6.487339814610095-7.407646125924657-3.856545984070181-14.317602477833134-2.167040996959258-19.076979327648587,5.133198706540497ZM216.348596484247537,74.811112102121115c2.456492146598976,3.147085792139478,5.260569306268735,5.654421289340462,9.16303375091411,6.380730040649723,3.578933949518614.666097710480244,6.902187999823582-.338523011150755,10.120456722741437-2.05525831228988-5.04834269537605-7.085701459231132-11.947462811764126-8.482935941219694-19.283490473655547-4.325471728359844Z"/>
                </g>
                <path class="cls-20" d="M248.78317144882385,15.666683092171297c-6.605656513595022-2.325594491650918-19.487506119028694-6.860743268451188-31.609074914684243-1.786615781269575-4.436126960181355,1.856958459407906-9.228883734798728,5.192878029838539-15.392314235969025,9.482772899269548-3.405821031066807,2.370535647129145-6.132671337280044,4.458755115589156-7.970972598915978,5.909478305618904,3.756462893514254-.366462661919286,7.512862755964306-.732925323849486,11.26932564947856-1.099387985779686-2.644972941601736,1.395949187100996-6.831559881389694,4.065693340609869-10.44475314459487,8.795545103779659-2.104292392237767,2.754583978579831-3.423217607367405,5.434476134971192-4.260333295889723,7.558686346450486,4.535211807862652-2.794419617110179,9.070423615743493-5.588839234220359,13.605635423624335-8.383258851330538-1.952765691297827,1.276820457980648-8.355083961441778,5.810141333649881-11.131917909006006,14.567678700041142-2.216991951851014,6.991910932618339-.942377581433902,12.953263811848956-.274815480916004,15.392251204888453,2.015670702747229-3.664815712480049,4.031278374432077-7.329631424969193,6.046949077175668-10.994447137469251-1.062829963102558,1.843280716440859-2.549480865089208,4.948569588559621-3.160945310119132,9.070423615739855-.57068334039468,3.846849453069808-.151526700945396,7.045550376280517.2748785119893,9.070423615759864,2.198902033702325-2.015670702739953,4.39780406742284-4.031278374428439,6.596706101125164-6.046949077150202.213927463804794,2.09603532157962.650669772805486,4.57876627971018,1.511737269293008,7.283870865530844,1.627840506875145,5.114026156770706,4.103764109066105,8.92255271708018,6.04694907717203,11.406733389920191,2.012077931543899-7.411004540999784,8.04301711602966-25.64110377273937,25.42471809705421-40.679561561501032,12.969399766683637-11.220917784949052,26.43384558544858-15.625844363679789,33.807976948384749-17.45374549816006-7.872959279433417-7.019077325348917-15.571196422848516-10.415128540000296-20.339749265202045-12.093898154338603Z"/>
                <path class="cls-20" d="M238.147812337649157,16.312310379080373c6.605656513589565-2.325594491649099,19.487443087966312-6.860743268449369,31.609074914684243-1.786615781269575,4.323049214115599,1.809622123140798,6.402444332299638,4.928714800380476,15.392314235963568,9.482772899269548,3.441622680869841,1.743439495850907,6.363617190958394,2.979100662760175,8.299049337012548,3.752113749429554-3.865821806217355.352658856811104-7.73164361243289.705317713611294-11.597465418650245,1.057976570431492,1.350377720869801.221680285849288,7.134361158980028,1.325984695378793,11.185116135144199,6.638180547559386,3.006708272989272,3.943034871379496,3.437714754294575,8.078881796909627,3.520033336415509,9.716050902670759-.699140668402833-1.306949311170683-3.267026606978106-5.717485655452037-8.330060625195983-7.104862616521132-1.254696551142843-.343834506509666-2.425939960843607-.437120495449562-3.43582382211207-.412286252449121,3.214332629468117,1.483247224028673,8.578150930907213,4.61614370640018,9.620180639722093,9.757588380169182.485087142442353,2.393605020070027-.088873813783721,5.031518481429885-1.236795726239507,10.307345404149601-.766836041451825,3.52444551158078-1.250284375983028,4.351854414750051-1.702469298004871,7.104862616510218-.624133690809686,3.799954334301219-.485591391043272,6.986679353531144-.274815480916004,9.070423615750769-2.198902033704144-2.015670702739953-4.397804067424659-4.031278374421163-6.596706101126983-6.046949077150202-.213927463804794,2.096035321590534-.650732803884239,4.578766279730189-1.511737269291189,7.283870865530844-1.627840506880602,5.114026156768887-4.103827140143039,8.92255271709837-6.046949077173849,11.406733389918372-2.012077931558451-7.411004540999784-8.043017116009651-25.64110377273937-25.424718097050572-40.679561561499213-12.969399766687275-11.220917784930862-26.43384558544858-15.625844363679789-33.807976948402938-17.453745498149146,7.872959279449788-7.019077325350736,15.571196422866706-10.415128540000296,20.339749265222054-12.093898154351336Z"/>
                <path class="cls-20" d="M271.500241734935116,18.030630796440164c1.387877901934189.904333539430809.793233578655418,2.827641742351261,1.75859318678522,6.430315560590316,1.310673134126773,4.891116700620842,3.514435652336033,5.48003102292023,4.508569845047532,9.236877903009372.57070965429557,2.156666414830397.746843816858018,5.372764117601037-1.197840385753807,9.850102601980325-1.537985349492374-3.446793142829847-3.075908396094746-6.893476695449863-4.613831442675291-10.340160248069878.0936299511377,2.98922331049107-.158129903207737,7.948274509999464-2.48422882797604,13.426953826319732-1.354695651751172,3.190660400401612-3.032543862471357,5.661768925980141-4.465502417780954,7.439282907000234.187877054806449-5.323685692359504.375754109605623-10.647371384729922.563631164419348-15.971057077089426-.144850217136991,2.328696827709791-.921646368664369,10.134929282159646-7.162532181378992,16.87705518716939-4.982590227149558,5.382930978139484-10.794946196083401,7.221106169470659-13.245198902894117,7.846121763410338,2.189790688353241-3.563476565639576,4.379581376702845-7.126953131279151,6.569309762162447-10.690539287119464-1.077152284249678,1.834948033740147-3.041949797159759,4.662052668709293-6.322989473668713,7.230792654880133-3.062154776485841,2.397318984700178-6.05005385954064,3.613805299430169-8.021117286625667,4.243801938799152.665543168985096-2.907774204790257,1.331031542886194-5.815517258110049,1.996574711876747-8.723291462900306-1.927884412059939.849935716920299-4.302026010305781,1.697339678290518-7.079258596564614,2.285655722180309-5.25031810695873,1.112334492730952-9.784831618293538.84224683336106-12.904815448928275.380654699260049-2.272136695370136-21.127237657588921,8.583424664426275-38.573374632580453,22.798690742392864-42.207339580849293,10.078071167206872-2.576295319160636,19.284005019484539,2.444361035210022,22.564758382084619,4.4597642223398,2.162159698356845-1.392195990689288,5.062680812621693-2.866065699810861,6.737187169477693-1.77499133091078Z"/>
                <polygon class="cls-20" points="248.524518168915165 66.316828224915298 266.407269633758915 57.141535256165298 266.750287211883915 56.965265724915298 267.038861430633915 57.084406349915298 275.206036723602665 60.446222756165298 275.001874125946415 61.025324318665298 266.532330668915165 58.520441506165298 267.163556254852665 58.463312599915298 250.189252055633915 69.226984474915298 248.524518168915165 66.316828224915298 248.524518168915165 66.316828224915298"/>
                <polygon class="cls-20" points="233.980023540008915 69.226984474915298 217.005719340790165 58.463312599915298 217.636944926727665 58.520441506165298 209.167401469696415 61.025324318665298 208.963299907196415 60.446222756165298 217.130414165008915 57.084406349915298 217.418988383758915 56.965265724915298 217.762005961883915 57.141535256165298 235.644757426727665 66.316828224915298 233.980023540008915 69.226984474915298 233.980023540008915 69.226984474915298"/>
              </g>
              <path class="cls-6" d="M191.378550022538548,191.905405429381062c-2.252259759599838-1.255327055390808-1.28363569983776-9.375679903319906,2.387303730150961-15.037218931580355,1.983342012790672-3.05872268586063.604891884020617-3.609054844699131,11.63668650319778-9.840422305380343,1.63125310313626-.921305105210195,2.763221585759311-2.415221028510132,3.968934388727575-2.014286838089902,1.501178540556793.499179674419793,2.233617152463921,3.286332778199721,1.820142849914191,5.524723343271035-.435824005960967,2.361402384420217-1.985896617152321,3.241318398628209-4.265287611944586,5.880698091788872-3.160697662551684,3.659786382209859-2.504470498382943,4.659175586130004-5.145733928717164,8.094401012360322-2.833947710812936,3.685892457679074-8.247392945444517,8.592881616868908-10.402045931328757,7.392105627630372Z"/>
              <line class="cls-33" x1="205.149989862271468" y1="99.666164513610056" x2="205.149989862271468" y2="208.612411860380234"/>
              <path class="cls-6" d="M216.008335433067259,176.271697579761167c-1.156185517906124-.707861144690469-3.163913618025617-1.510099297191118-6.508923615465392-1.091952056200171-.435175405766131.549603329480306-.892030654415066.98293149841993-1.334477455977321,1.327122094879087-3.712358226219294,2.888070783470539-8.924303292915283,1.458107977590771-10.09645901267686,1.107468845370022-2.473550843838893,2.929180198980248-4.947101687663235,5.858427570179629-7.420660928022698,8.787607769139868-.710086225384657,2.587004769949999-.915280648601765,4.726037820981219-.976398997338038,6.15136574177086-.154932788969745,3.613060851270347.547646937753598,6.574685245819637,1.952806391214835,12.497934034869104.530979823839516,2.23824646067078.804270113001621,3.367882147740602,1.186983993424292,3.883160458690327,1.970598640284152,2.653102261539971,5.964307825381184,2.792215986220981,12.079803586930211,3.211102121940712,2.820361157933803.19318738398033,5.194530661508907.117014055238542,6.900017233774633,0,1.104899506906804-.654996585870322,2.549270759887804-1.709668044681166,3.803628517589459-3.363986157350155.000067172248237-.000067172259151.813623848471252-1.073076654651231,1.416007771447767-2.363321185599489,1.533760721391445-3.285260283240859,7.900077655302084-24.696279845700701-1.002327484900889-30.146501667510165Z"/>
              <g>
                <path class="cls-9" d="M169.542352102313089,117.597669559640053c-5.941229634370757,1.447809896029867-11.819027464916871-3.250702333340087-13.0207831910393-10.40837245900002-1.201755726138799-7.157670125689037,2.698239500221462-14.238971636190399,8.639469134577666-15.686781532229361,1.460438018819332,8.698384663739489,2.920876037649577,17.396769327489892,4.381314056461633,26.095153991229381Z"/>
                <path class="cls-9" d="M239.424128025137179,114.921339743061253c5.365412105735231.931920750290374,10.348550600079761-4.26122694787955,11.03889899637943-11.50414791644107.690348396301488-7.242920968550607-3.156635838882721-13.969865635179303-8.522047944599763-14.901786385460582-.838983917790756,8.801959366650408-1.677867133967084,17.60397493524215-2.516851051779668,26.405934301901652Z"/>
                <path class="cls-35" d="M248.78059792422755,99.27202106562072c-.166918424421965-.740094721641071-.516752966912463-1.878980905770732-1.197504409428802-2.180533735729114-1.464077048110994-.648570501121867-3.631417428967325,2.942177545588493-4.194201141148369,6.604562345219165-.218249023444514,1.42045242425047-.388785655253741,4.111542095479308.424143210117109,5.003045459368877.803103395775906.880736022991186,2.245368684958521-.346550208689223,2.789525855472675-2.455427622709976.400899402380674-1.553710140718977.375815495024654-3.824618520768126-.250478847543491-4.170411421488097-.383666059120515-.211817297660673-.970243659105108.311252573919774-1.337925981899389,1.302594873539419-.426605771164759,1.150055020039872-.329716593669218,2.313273322410168-.319104429030631,2.428031809469758"/>
                <path class="cls-32" d="M158.553823850168556,102.532575005679973c.19648924329158-.736530181598937.603020302005461-1.867994721478681,1.369579374173554-2.155333484648509,1.648621968764928-.618000619260783,4.030872742654537,3.017459759668782,4.614500036319441,6.691129876218838.226330044870338,1.424828880000859.382932052898468,4.119150051979886-.539270492810829,4.993616239180483-.911056439274034.863904765319603-2.511218147730688-.393273795700225-3.093871495939311-2.513233493329608-.429260518787487-1.561874838971562-.372075049283012-3.831990495669743.334038173416047-4.164698255081021.432562684127333-.203801380579534,1.083051268755298.331423025791082,1.482298069091485,1.330305139330449.463230659330293,1.158803156089562.339781799320917,2.319865072189714.326422550786447,2.434388878009486"/>
                <path class="cls-9" d="M244.989477113253088,78.580617878120393c-3.213465988050302-17.70932369771981-18.042327399638452-40.907550966639974-41.166020256410775-41.166020256410775-23.086129618166524-.258008794749912-38.909397185088892,22.523009964181256-41.883142610178766,39.014455840160736-.822575718853841,4.561598122299984-1.487201637561157,14.638808528359732,1.508187054592781,25.622799461340037.985459394472855,3.613767751450723,1.026443453400134,2.392403324351108,3.471606352795789,9.932812317219941,4.243132906784012,13.084900894409657,4.321680204311633,17.385069401640067,8.845188807961677,22.471566089259795,2.031309424739447,2.284121203971154,3.986702952195628,3.633569038340283,6.550213077935041,5.402725212939913,6.024064597517281,4.157349258561226,11.436065496349329,5.916637682201326,14.343565420069353,6.837101490440546,3.377468008780852,1.069269492511012,5.10649532953903,1.618574295180224,7.697635157943296,1.673438990439536,4.525087443798839.095782969179709,7.976432014669626-1.334448852940113,9.705919830474159-2.199390115860297,10.510733597611761-4.788359039039278,15.87615871197886-10.579150004168696,18.550977068409338-14.15226262170836.299058638658607-.399578128301073.759158972765363-.954803581531451,1.268334921582209-1.796193812209822,1.726856415549264-2.853490433531988,2.639031312990483-6.617708494401086,6.668362949252696-19.241061784550766,1.149527200232114-3.601465955251115,2.101699381504659-6.510413149129818,2.686528087568149-8.286542534400724,1.73185607601954-5.451603472618444,3.572783692497978-14.082398945020032,1.752644138005053-24.113428276659761Z"/>
                <g class="cls-41">
                  <path class="cls-26" d="M212.026532329071415,113.179132912415298c-3.390769199374517,6.54684477918272-13.146697705871702,6.996175709722593-16.29254791466883-.000165188401297,1.43482086388758.780926907151297,2.74774810998133,1.494305813401297,4.08826324670008,1.972333157151297,4.22899859977224,1.660715414102015,8.371277295955224.153481084722443,12.20428466796875-1.97216796875h0Z"/>
                </g>
                <g class="cls-41">
                  <path class="cls-26" d="M211.268475688446415,95.967707131165298c1.724987543710995-2.826568456424866,5.176439882949126-4.807077126080912,8.518512458976147-4.465419812891923-3.185667588417346.998599663053028-5.86182394415664,2.455036282026413-8.518512458976147,4.465419812891923h0Z"/>
                </g>
                <g class="cls-41">
                  <path class="cls-26" d="M187.768170512665165,91.508722756165298c3.310404794892747.074149356545604,6.755686301038622,2.066578841513547,8.136041026064959,5.129314005353081-2.461493327823518-2.255346942783945-5.06422603745159-3.839504012872567-8.136041026064959-5.129314005353081h0Z"/>
                </g>
                <g class="cls-41">
                  <path class="cls-26" d="M193.787274516571415,103.389093849915298c-1.193400749627472.795290732339708-2.682559897756619,1.019753000950004-4.088925728293361.937978415775433,1.375435827479123-.317028491404926,2.742603688980125-.478452921088319,4.088925728293361-.937978415775433h0Z"/>
                </g>
                <g class="cls-41">
                  <path class="cls-26" d="M215.876813090790165,104.009699318665298c-1.352571216362776.043034585492933-2.823944053964624-.217006121903978-3.905231920633014-1.077089610829717,1.272968737039264.495058360829717,2.569965807351764.754823985829717,3.905231920633014,1.077089610829717h0Z"/>
                </g>
                <g>
                  <path class="cls-23" d="M216.702427356860426,133.006252056000449c-2.734787962255723-.179702087949408-5.575211982308247-.301287872769535-8.51490315024239-.349658645600357-5.6974291676961-.093749256098818-11.059831711290826.099129886890296-16.041417364596782.478848689261213,2.566121657888289-4.870706225659887,7.679697479052265-7.824590179960069,13.048578741385427-7.541859993010803,7.600086104932416.400225594270523,11.316015622791383,7.054885453140741,11.507741773453745,7.412669949349947Z"/>
                  <path class="cls-13" d="M216.839459575165165,133.087336037415298c-8.148893028570455-.234124929418613-16.582684749357213-.397240298749239-24.672302389159086.322862685421569.000000143065336-.000108779171569-.495178079590914.039442002078431-.495178079590914.039442002078431l.23046875-.44287109375c5.170341810689024-9.776023731743408,18.522467803193649-10.19014255017828,24.443652864811156-.895779965365364.140843470187974.260317688036594.507372496095741.66343935052646.493358853938844.976346371615364h0ZM216.538312114227665,132.923273537415298c-.064453125.0126953125-.04388427734375.06103515625-.09490966796875-.0380859375-.276866057104598-.454882400739734-.596982775337892-.922968379676604-.925114048992327-1.340333623113111-6.085086256347495-8.312234897915914-18.322064842898726-7.330750799688758-23.128428927871937,1.71893970950623.000015144831195-.00018811764312-.264572257509826-.40302014889312-.264572257510736-.40302014889312,8.007277355311089-.625784243282396,16.406471767096264-.58133893860213,24.41302490234375.0625h0Z"/>
                </g>
                <path class="cls-7" d="M211.505475200165165,83.999445412415298c6.26711622332823,3.09279655739374,13.527907848932955,3.966063390398631,20.440615621289908,2.72456569042879-.000002828320248.00004368457121.224484476366342.23881321582121.224484476366342.23881321582121l4.47808837890625,4.76513671875-.4412841796875.46435546875-4.98663330078125-4.22998046875.6251220703125.1728515625c-7.059756281660157,1.997173136986021-14.786692486748507,1.671958299528342-21.708982010632099-.915047343822152-.000002364367901.000008281322152,1.368588944225849-3.220694843677848,1.368588944225849-3.220694843677848h0Z"/>
                <path class="cls-7" d="M198.510052836883915,86.821711037415298c-6.758935618793657,4.189657770624763-15.322657271164644,5.052516049832775-22.779487728665117,2.634717096048917.000007748196367.000048528951083.563850521633867-.143017877298917.563850521633867-.143017877298917l-3.9227294921875,3.2353515625-.4349365234375-.47021484375,3.53094482421875-3.65869140625.20416259765625-.2119140625.3599853515625.06884765625c7.118423106032424,1.435078667071139,14.780581485075345.056632185791386,20.524341948481378-4.357983762360163.000011078869647.000073606106525,1.953868500731915,2.902905637361982,1.953868500737372,2.902905637360163h0Z"/>
                <path class="cls-23" d="M232.089169571469029,96.219440716889949c-.175371383966194.355332350020035-3.212582737340199,6.245198059121321-9.908932405434825,6.893467456780854-6.194950839129888.599733138220472-10.161276805174566-3.805508987459689-10.538190607599972-4.239091876610473.611283951866426-.80163876864026,3.74624698307889-4.740983577870793,9.442542985318141-5.571632822870015,5.984994543478024-.872739384480155,10.270452812213989,2.346469227080888,11.004580027716656,2.917257242699634Z"/>
                <path class="cls-23" d="M175.247883729840396,96.808838455570367c.195337384646336.344760072270219,3.563286425556726,6.051956418499685,10.285698206444067,6.317534914760472,6.219061732837872.24569676316969,9.927878192029311-4.378433460640736,10.279468692551745-4.832792631519624-.655977260023064-.765497628690355-4.010355338723457-4.519772317400566-9.744733057865233-5.02442911918115-6.025005816813064-.53022507112837-10.120030097732524,2.927987298970038-10.82043384113058,3.539686835940302Z"/>
                <g class="cls-45">
                  <circle class="cls-3" cx="221.60896206299185" cy="97.38075429266064" r="5.118342330167274"/>
                </g>
                <g class="cls-44">
                  <circle class="cls-3" cx="186.074706661905566" cy="97.1103220373152" r="5.118342330164332"/>
                </g>
                <path class="cls-21" d="M211.586590922821415,98.832941506165298c4.562962329821858-6.801242227640614,14.474288377058656-8.272872214576637,20.680017359881276-2.832293418856352-.000024684100936-.000226112393648-.354883082537526.437762168856352-.354883082537526.437762168856352-4.477986737297215-3.487426671134017-10.956453026989038-4.144844352624204-15.873292258760557-1.18006944325316-1.636900612333193.94178819325316-3.123778053739443,2.18348741200316-4.341002174833193,3.65663194325316.000000000025466-.000000000010914-.11083984376819-.082031249992724-.11083984375-.08203125h0Z"/>
                <path class="cls-21" d="M195.760052836883915,98.337824318665298c-5.237433374407374-5.879561205321806-14.406953984547727-6.585701768755825-20.322517535510997-1.320069552657515.000007769885087-.000242947342485-.379264691050594-.417235134842485-.379264691051503-.417235134842485,4.263017408285123-4.155894577423169,11.233746280729974-5.136816480546258,16.393504992811359-2.106336456065037,1.709888561876141.948133331065037,3.214954479844891,2.236707549815037,4.414234265001141,3.755262237315037.000000000032742.000000000010914-.105957031273647.088378906242724-.10595703125.08837890625h0Z"/>
                <g class="cls-41">
                  <path class="cls-26" d="M203.083661235321415,94.890558693665298c.767434580216104,3.794208215223989.391345363827895,7.84938918235639-1.077344163043563,11.432134237940772.712990027316664-3.782140684499609,1.071215960284462-7.583242293509102,1.077344163043563-11.432134237940772h0Z"/>
                </g>
                <path class="cls-25" d="M206.169607766973058,41.982123302281252c-.787676970365283.319021350858748-1.45325386188415.74219023023943-2.474250348117494,1.599335014978351-2.341655619899029,1.96588711835102-3.999636160018781,3.688234396080588-5.54283770609436,6.387866458870121-.910970362770968,1.593625757410337-1.732861319107542,4.1132432152408-1.135996112907378,8.085232722351066,1.953530014518037-2.41428877134058,3.906985442750738-4.828507835729397,5.860440870967068-7.242726900109119-.708186657593615,2.356723507447896-1.559403127255791,6.352777366098962-.87160087819575,11.201751845428589.400589624248823,2.823928524539951,1.210656456236393,5.144299676949231,1.973074509196522,6.861299263789988.979303269026786-4.272394380310288,1.95862814713837-8.544827796489699,2.937931416163337-12.817222176799987-.378549590361217,1.882139188359361-1.415965957994558,8.253112285259704,2.116421335318591,14.936559756819406,2.820136281094165,5.33606160177078,7.051512768093744,8.029765243121801,8.867067225290157,9.046159361521859-.985485236396926-3.297385410440256-1.970970472806584-6.594770820871418-2.956391578954936-9.892228726541362.467361337805414,1.687237849520898,1.430085211595724,4.351467311549641,3.49406357726366,7.089359049979976,1.926295927143656,2.555178994070957,4.043898590813114,4.155830781201075,5.477418104903336,5.07456038681994.087346394917404-2.452887674879094.174724157943274-4.905766984958973.26207124987377-7.358699272230297,1.352550267156403,1.084484291670378,3.060451677671153,2.261533368971868,5.143748219430563,3.318100673550362,3.938417242065043,1.99745488661938,7.600823879358359,2.744098143110023,10.179207861603572,3.038604195849985,2.726587908477086-14.046533484850443-1.780600270283685-27.615009501580062-11.671251612067863-34.594085479979185-6.116588976818093-4.316023362109263-12.703165074573917-4.990781780530597-16.39184070185911-5.034556578229967-1.105944570677821-.262035360630762-3.137933256288306-.561672419411479-5.267275431813687.300690403930275Z"/>
                <path class="cls-25" d="M241.976435999116802,104.009480686259849c-.073132655414156-6.558439904980332-.96450552364513-11.693702962538737-1.782141788131412-15.211372706629845-.728746047443565-3.135205721910097-1.307548189541194-4.592148772819201-2.154777923440633-8.140400265448989-1.378374860303666-5.772538381361301-1.916273227428974-10.584634164350064-2.154832827829523-13.766838049201397-13.798737503237135,5.530245282010583-26.572464838493033-.771296954309946-28.850558035241193-8.858714477688409-1.531228698640916-5.43602933855982,1.566806747214287-12.078747491321337,6.890062456512169-16.937292393300595,2.808030426436744-.659456699750081,10.148363834137854-1.998574916959114,17.522573254116651,1.711534734949964,3.413735722568163,1.717519314081073,6.838342515522527,4.509627465709855,9.771225538366707,8.950569532089503,8.659850755539082,13.112322745080746,9.253586893339161,34.875876255540788.758449325647234,52.252513625229767Z"/>
                <path class="cls-25" d="M224.600708469055462,41.356529997179678c-6.450058627355247,20.894142400600686-15.84019275342871,28.911227392760338-23.215994400916315,32.372949557380707-8.5151227678125,3.996436076789905-14.52440890449725,2.231479364580082-21.405467040080111,7.247435169751043-9.869998546673742,7.194726949628603-11.817896706164902,21.420346131379119-11.865224295470398,32.577248814719496-1.227497580244744-3.500868998949954-3.166446323200944-9.139824984940788-5.087770755066231-15.263257360809803-.468114879875429-1.492026959931536-1.108574658632278-3.56527185538107-1.556210198797999-6.404597787521197-.452027891846228-2.867382078469745-.512093301016648-5.277026207899326-.485080338210537-6.918997073169521-.35061947253962.436984087349629-.756966906965317,1.045160081301219-1.071184764974532,1.831226318099652-.657535045893383,1.645045511450007-.537404227563457,3.133064450490565-.418975445492833,3.890635305780961-1.245451317719926-1.61753840907113-3.0303383256487-4.420298013490537-3.777147919356139-8.275684697091492-1.602000465012679-8.270413875059603,2.85530311135517-14.765603915908287,3.830789514195203-16.121193451897852-.551349944125832.252999456528414-1.525902972229233.789140882978245-2.388066701836578,1.831226318108747-1.017378456934239,1.229638851680647-1.332584594083528,2.504354212440376-1.442722812358625,3.116867653670852-.185521953913849-1.90435897351017-.246191311431176-4.811162408290329.638483220489434-8.140400265470817,1.6909455864552-6.363584203760183,5.794390330944225-10.351894429939421,8.938435660606046-13.407763299690487,2.992399388036574-2.908450566648753,5.667616080689186-4.666214802969989,7.821186107423273-6.065398429349443,4.663579391955864-3.02989909047028,8.91466205713914-4.909551085809653,11.971189779658744-6.065398429340348-1.578336670370845-.301974177718876-3.174736887003746-.620858909389426-4.788486892746732-.957642474159002-1.033794871340433-.215719371690284-2.058036377784447-.43533695547012-3.072614710536072-.658468420610006,4.123155422637865-.922229138779585,8.969676261895074-1.63291163995018,14.405321269705382-1.735802477951438,14.424482903861644-.27303956104879,25.945950776318568,3.867740172670892,32.969540723765022,7.147015029549948Z"/>
                <ellipse class="cls-29" cx="228.866301276239028" cy="110.932276190098491" rx="13.341874594543697" ry="10.711308633142835"/>
                <ellipse class="cls-30" cx="178.64927828778309" cy="110.932276190098491" rx="13.341874594545516" ry="10.711308633142835"/>
              </g>
            </g>
            <g>
              <path class="cls-16" d="M306.247723735321415,90.953058693665298l11.556640625,23.1923828125-5.6328125,2.806640625-4.556640625-9.14453125-8.912109375,4.4404296875,4.556640625,9.14453125-5.6328125,2.806640625-11.556640625-23.1923828125,5.6328125-2.806640625,4.3251953125,8.6796875,8.912109375-4.4404296875-4.3251953125-8.6796875,5.6328125-2.806640625Z"/>
              <path class="cls-16" d="M319.190106547821415,91.202082131165298l1.71728515625,3.4462890625,9.40966796875-4.6884765625,2.67431640625,5.3671875-9.40966796875,4.6884765625,1.81591796875,3.64453125,10.33740234375-5.150390625,2.6748046875,5.3681640625-15.9697265625,7.95703125-11.556640625-23.1923828125,15.9697265625-7.95703125,2.67431640625,5.3662109375-10.33740234375,5.150390625Z"/>
              <path class="cls-16" d="M354.253583110321415,89.281183693665298l2.6748046875,5.3681640625-15.0419921875,7.49609375-11.556640625-23.1923828125,5.6328125-2.806640625,8.8818359375,17.82421875,9.4091796875-4.689453125Z"/>
              <path class="cls-16" d="M370.768719829071415,68.727472756165298c2.5595703125,5.1357421875.58251953125,9.8017578125-4.3212890625,12.2451171875l-4.30712890625,2.1455078125,3.56640625,7.1572265625-5.63232421875,2.806640625-11.556640625-23.1923828125,9.939453125-4.9521484375c4.90380859375-2.443359375,9.7529296875-1.345703125,12.3115234375,3.7900390625ZM365.103192485321415,71.633722756165298c-.875-1.755859375-2.28173828125-2.1728515625-4.203125-1.21484375l-4.07568359375,2.0302734375,2.6416015625,5.3017578125,4.07568359375-2.0302734375c1.92138671875-.9580078125,2.4365234375-2.3310546875,1.5615234375-4.0869140625Z"/>
              <path class="cls-16" d="M380.210614360321415,62.948175881165298l3.59765625,8.1328125-4.90380859375,2.443359375-4.326171875-7.76953125-3.533203125-7.08984375,5.63232421875-2.806640625,3.533203125,7.08984375ZM387.427411235321415,75.936457131165298c.94091796875,1.888671875.16015625,3.9736328125-1.794921875,4.9482421875-1.95458984375.9736328125-4.08984375.341796875-5.0302734375-1.546875-.94140625-1.888671875-.16064453125-3.9736328125,1.7939453125-4.947265625,1.955078125-.974609375,4.08984375-.3427734375,5.03125,1.5458984375Z"/>
            </g>
          </g>
        </g>
      </g>
    </g>
  </g>
</svg>