<?xml version="1.0" encoding="UTF-8"?>
<svg xmlns="http://www.w3.org/2000/svg" width="192.665140022942069" height="209.782845263882336" xmlns:xlink="http://www.w3.org/1999/xlink" viewBox="0 0 192.665140022942069 209.782845263882336">
  <defs>
    <style>
      .cls-1 {
        fill: #151c22;
      }

      .cls-1, .cls-2, .cls-3, .cls-4, .cls-5, .cls-6, .cls-7, .cls-8, .cls-9, .cls-10, .cls-11, .cls-12, .cls-13, .cls-14, .cls-15 {
        stroke-width: 0px;
      }

      .cls-16 {
        clip-path: url(#clippath);
      }

      .cls-2, .cls-17 {
        fill: none;
      }

      .cls-3 {
        fill: url(#linear-gradient);
      }

      .cls-4 {
        fill: #98623d;
      }

      .cls-5 {
        fill: #331b17;
      }

      .cls-6 {
        fill: #d6e03f;
      }

      .cls-7 {
        fill: url(#radial-gradient-2);
      }

      .cls-7, .cls-17, .cls-10, .cls-11, .cls-18 {
        mix-blend-mode: multiply;
      }

      .cls-7, .cls-11 {
        opacity: .2;
      }

      .cls-19 {
        clip-path: url(#clippath-1);
      }

      .cls-8 {
        fill: #7e4532;
      }

      .cls-17 {
        stroke: #f1b068;
        stroke-miterlimit: 10;
        stroke-width: .539575090489626px;
      }

      .cls-17, .cls-10, .cls-18 {
        opacity: .6;
      }

      .cls-9 {
        fill: #505050;
      }

      .cls-10, .cls-15 {
        fill: #f1b068;
      }

      .cls-11 {
        fill: url(#radial-gradient);
      }

      .cls-12 {
        fill: #3e3838;
      }

      .cls-20 {
        isolation: isolate;
      }

      .cls-13 {
        fill: #473f3f;
      }

      .cls-14 {
        fill: #fff;
      }
    </style>
    <linearGradient id="linear-gradient" x1="94.216519091747614" y1="11.171873732533641" x2="94.216519091753852" y2="71.786024615885509" gradientUnits="userSpaceOnUse">
      <stop offset=".549802216772597" stop-color="#3e3838"/>
      <stop offset=".732187145549786" stop-color="rgba(83, 74, 74, .835460847706457)" stop-opacity=".835460847706457"/>
      <stop offset=".805427186426227" stop-color="#665b5b" stop-opacity=".68831440492205"/>
      <stop offset=".865472203636714" stop-color="rgba(113, 105, 105, .550907421016946)" stop-opacity=".550907421016946"/>
      <stop offset=".975901267791298" stop-color="rgba(145, 143, 143, .188765216232521)" stop-opacity=".188765216232521"/>
      <stop offset="1" stop-color="#999" stop-opacity=".100000001490116"/>
    </linearGradient>
    <radialGradient id="radial-gradient" cx="27.53311564008618" cy="84.777177415675396" fx="27.53311564008618" fy="84.777177415675396" r="17.129250662055853" gradientTransform="translate(98.933803205310141 30.055409764564615) scale(.853091239733539 .645477583935139)" gradientUnits="userSpaceOnUse">
      <stop offset=".537641841231661" stop-color="#e984a2"/>
      <stop offset=".592832570610897" stop-color="rgba(233, 132, 162, .886871293855677)" stop-opacity=".886871293855677"/>
      <stop offset=".711273432585101" stop-color="rgba(233, 132, 162, .596518194573597)" stop-opacity=".596518194573597"/>
      <stop offset=".8824215114979" stop-color="rgba(233, 132, 162, .136328760171738)" stop-opacity=".136328760171738"/>
      <stop offset=".931113028771807" stop-color="#e984a2" stop-opacity="0"/>
    </radialGradient>
    <radialGradient id="radial-gradient-2" cx="-37.904644191730767" fx="-37.904644191730767" xlink:href="#radial-gradient"/>
    <clipPath id="clippath">
      <path class="cls-2" d="M126.883199260451875,70.603819377283799c-.256604838339626.35804126651783-4.652936160799072,6.269246812902566-12.115106632440074,5.769553033614102-6.90343040200969-.462274269467343-10.457431045289923-6.011352173199157-10.792457400868443-6.555080985003769.815435731679827-.76876038210321,4.966316897129218-4.522843278195069,11.364544268099053-4.404012504386628,6.722499492379939.124862830700295,10.840988110119724,4.430729735235218,11.543019765209465,5.189540455776296Z"/>
    </clipPath>
    <clipPath id="clippath-1">
      <path class="cls-2" d="M63.570125532993188,70.806539102239185c.263799846099573.352773628248542,4.778886878359117,6.173776050472952,12.229413415308954,5.523133027596486,6.892658408929492-.601920985904144,10.333604648491018-6.221803113723581,10.657556026650127-6.772202227384696-.830830143859203-.752096556068864-5.056852147959944-4.421386795518629-11.451363132830011-4.173065415343444-6.718594561179998.260916220585386-10.749078586090036,4.649268624263641-11.435606309129071,5.422134615131654Z"/>
    </clipPath>
  </defs>
  <g class="cls-20">
    <g id="Layer_2" data-name="Layer 2">
      <g id="Layer_1-2" data-name="Layer 1">
        <g>
          <path class="cls-6" d="M123.63880628525294,128.948240041419922c-21.922177262211335-4.553557561070193-40.236742857619902-1.999686473354814-53.735504121430495,0-8.248121656810326,1.221868109885691-13.579497581340547,2.534930230609461-20.736655121359945,4.297673163386207-26.876271789869861,6.619354207472497-35.935559419549463,6.332901167821547-42.565444451060102,14.230726664321992-3.883241359530075,4.625883845525095-4.522696396210449,10.139794053175137-5.801606469569379,21.167614468471584-1.828121798600478,15.764058520926483-.283308418591332,29.795284574542166,2.232242170579411,41.138590926282632,55.489251975359366-9.850562046074629,134.144049755190281-19.701197222875635,189.633301730529638-29.551759268942988-.441928955469848-11.718101304046286-2.197797600339982-19.55742222263143-4.545513181599745-24.817349431381444-2.251329289139903-5.04397218548911-6.128647060158983-7.639381523527845-8.096156015650195-9.340255865154177-2.806537733618825-2.426184846397518-20.88818197818-7.814602734404616-37.736915373769079-11.764539312767738-8.198392765571043-1.921948515438999-12.354046066049705-4.05341655056327-18.64774916667011-5.360701344216068Z"/>
          <path class="cls-9" d="M69.933285719913329,129.889066785115574c3.126923428450027-.965837450759864,5.902526866490007-1.647708306431014,8.190933431889789-2.136952839300648,8.059590654449494-1.723106081233709,22.795943133460241-4.784723774580925,39.062848501620465-.034298308808502,2.852390696558359.832958928160224,5.164052831678418,1.733783166702779,6.760496501708985,2.410461741088511-.066548957380292.425182020044303-.132951653320561.850437170807709-.199500610709947,1.275619190852012-2.4061470284596,2.092562490804994-12.007333311150433,9.948484083372023-26.566928834119608,10.02724587139528-14.837638529530523.080297533197154-24.644760926499657-7.971541264683765-27.008711528140338-10.02724587139528-.079712487420693-.504967638182279-.159424974839567-1.009862145645457-.239137462249346-1.514829783831374Z"/>
          <path class="cls-4" d="M131.82745679087202,95.034458137342881c6.407660452061464,1.552156112877128,13.001941538790561-3.715815800562268,14.607985848790122-11.669905070968525,1.606044309990466-7.954089270406257-2.345067262889643-15.776619584848959-8.752727714940193-17.328775697715173-1.951791429250079,9.666202922369848-3.903466704588936,19.332477846310212-5.855258133849929,28.998680768683698Z"/>
          <path class="cls-17" d="M144.835202240383296,78.610981974397873c-.123856482819974-.83578242180738-.427200411430022-2.130929388364166-1.220730597591682-2.530869165646436-1.706624873668261-.860172084587248-4.716111509729672,2.906220568638673-5.787371066899141,6.907490931684151-.415455340289554,1.551891394232371-.907933498909188,4.515546913640719-.0167385293189,5.581627497114823.880422706148238,1.053204054031085,2.759726327369208-.1661140196411,3.643486638238755-2.448792900420813.651099668941242-1.681758616221487.861746619100813-4.199057118141354.138952333820271-4.642710522857669-.44278316774944-.271764804616396-1.209646560990222.25063463216793-1.760766583629447,1.312831568146976-.639423952859943,1.232247781895239-.64540757082068,2.529820371858477-.644720364191016,2.657935840535174"/>
          <path class="cls-4" d="M57.841326305882831,95.034458137342881c-6.407660452059645,1.552156112877128-13.001941538799656-3.715815800562268-14.607985848790122-11.669905070968525s2.345067262880548-15.776619584848959,8.752727714940193-17.328775697715173c1.951791429250079,9.666202922369848,3.903466704579841,19.332477846310212,5.855258133849929,28.998680768683698Z"/>
          <path class="cls-17" d="M44.83358085636246,78.610981974397873c.123856482819974-.83578242180738.427200411430022-2.130929388364166,1.220730597589863-2.530869165646436,1.706624873680994-.860172084587248,4.716111509729672,2.906220568638673,5.787371066910055,6.907490931684151.415455340280459,1.551891394232371.907933498900093,4.515546913640719.016738529309805,5.581627497114823-.880422706139143,1.053204054031085-2.759726327360113-.1661140196411-3.643486638240574-2.448792900420813-.651099668928509-1.681758616221487-.861746619098994-4.199057118141354-.138952333818452-4.642710522857669.442783167760354-.271764804616396,1.209646560990222.25063463216793,1.760766583640361,1.312831568146976.639423952859943,1.232247781895239.645407570809766,2.529820371858477.644720364180102,2.657935840535174"/>
          <path class="cls-4" d="M74.459199867913412,114.271123447550053c.118471770289034,2.071427712031436.835006588378747,16.057897763534129-3.189084542500495,17.141110023749206-.317387335220701.085416683767107-.680115718339948.094850546956877-1.097692143250242-.008336902352312,2.363950601640681,2.055704606711515,12.171146129328918,10.107470273869694,27.008711528140338,10.02724587139528,14.559595522969175-.078761788023257,24.160781805660008-7.934683380590286,26.567075095568725-10.02724587139528-.296325687169883.124980404587404-.730429655348416.252666645897989-1.214262514758957.167761877186422-2.489077267669927-.436590412733494-3.40701409526082-5.989844949035614-3.82693070328969-8.530625637438789-.343568133839653-2.078813914995408-.639747559571333-5.141016654124542-.239137462251165-8.929334335982276-14.669584129458599.053166035188042-29.339095128199915.106258939653344-44.008679257658514.159424974837748Z"/>
          <path class="cls-10" d="M85.936116049482735,133.092631210649415c8.421002684559426,2.587950004352024,20.806714353419011-1.932918123802665,32.511725258149454-12.011136108714709-.193065107139773-1.881946010285901-.26941358132899-4.232733081888.020037817939738-6.969796629222401-14.669584129458599.053166035188042-29.339095128199915.106258939653344-44.008679257658514.159424974837748.069839839889028,1.220551756887289.346347101289211,6.576938388479903-.260711025370256,10.993814629382541,3.107031871968502,5.166758668408875,8.966923527299514,6.976232132794394,11.737627206939578,7.827693133716821Z"/>
          <path class="cls-4" d="M139.669968345133384,42.890622678067302c-2.179931640630457-15.80792236328125-20.563110351569776-34.9405517578125-43.801391601569776-35.5120849609375-26.141540527340112-.6429443359375-45.491943359371362,22.5191650390625-47.062744140621362,39.042724609375-.275207519529431,2.89501953125-.068603515628638,6.31817626953125.173583984371362,10.33056640625.161499023439319,2.6756591796875.761657714849207,11.14459228515625,5.362243652349207,29.19525146484375,4.7646484375,18.69439697265625,7.463928222650793,22.31695556640625,9.832885742189319,24.98077392578125,2.25811767578125,2.5391845703125,4.431884765621362,4.039306640625,7.281616210930224,6.00604248046875,6.696716308601026,4.62158203125,12.713073730470569,6.5772705078125,15.945251464851026,7.60052490234375,3.754516601558862,1.18865966796875,5.676635742180224,1.79931640625,8.55712890625,1.86029052734375,5.030395507808862.10650634765625,8.867065429680224-1.48345947265625,10.789672851558862-2.4449462890625,11.684448242191138-5.32305908203125,17.64892578125-11.76043701171875,20.622436523441138-15.7325439453125.33251953125-.4442138671875.843994140619543-1.0614013671875,1.410034179680224-1.99676513671875,3.907104492189319-6.45648193359375,5.801025390628638-12.34881591796875,7.412963867189319-21.38958740234375,2.392944335939319-13.42059326171875,2.994140625-23.53570556640625,3.1474609375-26.34991455078125.468017578130457-8.589599609375.702026367189319-12.88446044921875.328857421880457-15.59033203125Z"/>
          <g class="cls-18">
            <path class="cls-15" d="M108.75044206979328,94.312637918385008c4.67666068176004,4.086770584457554,8.332721415019478,9.443699926209774,10.267518770258903,15.355794431749018-3.016467438639665-5.399668041441146-6.388811228589475-10.534440726831235-10.267518770258903-15.355794431749018h0Z"/>
          </g>
          <g class="cls-18">
            <path class="cls-15" d="M84.465896171363056,96.357010476978758c-3.878723882849954,4.821406891540391-7.250957112490141,9.956141263126483-10.267384620739904,15.355882384399592,1.934736053839515-5.912155470763537,5.590701384759086-11.26903938799569,10.267384620739904-15.355882384399592h0Z"/>
          </g>
          <path class="cls-3" d="M63.352890708412815,38.385984006192302c7.563415527340112-2.20623779296875,18.405578613279431-4.48712158203125,31.539733886720569-4.3916015625,12.3681640625.0899658203125,22.626098632808862,2.25714111328125,29.94287109375,4.3916015625.8427734375,4.34722900390625,1.685668945308862,8.69451904296875,2.528442382808862,13.041748046875,2.04052734375,1.6856689453125,4.081176757810681,3.371337890625,6.121704101560681,5.0570068359375-.044311523439319,8.38397216796875-.088745117189319,16.76800537109375-.133056640619543,25.1519775390625,1.796508789058862-5.08660888671875,3.593139648430224-10.17315673828125,5.3896484375-15.259765625.265502929680224-2.91363525390625.609252929680224-7.21630859375.843383789058862-12.455078125.092041015621362-2.05902099609375.303344726560681-6.78607177734375.243408203121362-8.948486328125-.29345703125-10.5943603515625-8.75439453125-19.49896240234375-11.533447265621362-22.423828125-2.539794921878638-2.6729736328125-13.584228515628638-13.89837646484375-31.007446289058862-14.90484619140625-25.628173828130457-1.48040771484375-41.860046386720569,21.89373779296875-44.98077392578125,27.81353759765625-2.354858398439319,4.4669189453125-3.190185546878638,8.650634765625-3.190185546878638,8.6507568359375-.784240722659888,3.9278564453125-.565002441409888,7.0738525390625-.137756347659888,12.642822265625.193176269538526,2.51788330078125.545776367189319,5.95135498046875,1.243041992189319,10.02435302734375,1.404724121099207,4.9534912109375,2.809448242189319,9.90704345703125,4.214172363279431,14.86053466796875.310485839851026-8.960693359375.621032714851026-17.92132568359375.931518554691138-26.88201904296875,1.929809570308862-1.59576416015625,3.85955810546875-3.19146728515625,5.789367675779431-4.7872314453125.731811523439319-3.8604736328125,1.463562011720569-7.72100830078125,2.195373535159888-11.58148193359375Z"/>
          <path class="cls-12" d="M48.510517464683289,46.881122258399046c.187433207758659-.174960858444138.821105876379079-.688643686783507,1.054322675188814-.900649463203081.195424915031253-.177651057097137.06760910848061-.747158438951374.294851631761048-.948198976902859.202030461608956-.178735529320875.269261475179519-.543850248293893.496216297338833-.739288080927508.207112177080489-.178350715864326.446251239911362-.348686465971696.67395158060026-.539608499506357.211308389711121-.177177721134285,1.002990453720486.329614062719884,1.231896001840141.142669981963081.214935136849817-.175534633868665-.030017474160559-.935267361957813.20032259987056-1.118540320987449.218167609889861-.173587785789096.506431923729906-.27661368133522.738326434469855-.456405641773927.221114388150454-.171433938640803.892912425470058.236998664759085,1.126426876529877.060561472915651.223845379090562-.169131503060271.340027092059245-.484857615024339.575196402909569-.658026592913302.226408066801014-.166717559237441.062728533141126-.880336762033039.299569730350413-1.050297935598792.22883587384058-.16421642066598.537552604590019-.231089269697804.776071725189468-.397884799355779.231152991640556-.161644423209509.946413857740481.373469797851612,1.186609879960088.209811098178761.233377319860665-.159012744466054.399716825280848-.413816621917249.641583986680416-.574357168191455.235522333459812-.15632913477657.384039399459652-.444046187189088.627568600779341-.601479318179372.237598311910915-.153599017942724.321710646239808-.550904213158901.566890317830257-.705234296981871.239613173649559-.150826212202446.333673686051043-.545334072196056.580490329150052-.696560266481356.241573057650385-.148013414695924.605592419060486-.103238919698924.854030945589329-.25135605671403.243482738331295-.145162534240626.746045959480398.149415770917585.9960899045509.004416488816787.245345927709423-.142274924406593.271720149290559-.667226345377458.523351802370598-.80909590587089.247169753409253-.139353947934069.594055350358758-.101742255742465.84726029534977-.240469996848333.247459292619169-.135579771882476.546569618620197-.173734483708358.799765616578952-.308496136166468.249376938420028-.132728986932307.248577312420821-.746070469487677.503492844740322-.877796448658046.251245347561053-.129829434551539.644938377430663.013529256151742.901538754151261-.115125446885031.253065773029448-.126882517845843.587581666779442-.088650108026741.845831765298499-.214197865836468.254839174451263-.12388954403832.189251365010932-.925059831154613.449115583120147-1.047465039703638.25656626070122-.120851754332762.591612235470166-.088678876017184.853054443399742-.207906116591403.258248912839917-.117770980828027.731169371540091.236818256865263.99415430316003.120803492201958.259884411720122-.11464698254531.327770682129994-.677758918399377.59225931102992-.790525724939471.26147457324987-.111481740216732.76937355768132.361660425772243,1.035327928120751.252175766785513.263019400410485-.108276428445606.467190666080569-.357560233841468.734572115099581-.463729153831991.264518773890813-.1050322400597.561368772710921-.123378552968461.830137892820858-.226198835211108.265972467130268-.101750395013369.275033883699507-.89564586817869.545150488309446-.995085398835727.267380158929882-.098432147662606.590770755210542-.060611507820795.862193846409355-.156639048057514.268741443880572-.095078792677668.590104981520199-.052245983689318.862792719710342-.144831257839542.270055840659552-.091691669783359.70751631982057.319514144366622.981425994530582.230400362445835.269818126240352-.087782637418059.307886596319804-.90931920985895.581428323710497-.994473627085426.271199106919084-.084425151961113.540635088609633-.198088638144327.815478789689223-.279807250848535.272529516290888-.081030541742621.776642697259376.629304647052777,1.052740578499652.551055307725619.273808891040972-.077600612977221.349695703031102-.875737461195968.626999298330702-.950485715121431.275036681559868-.074137198582321.766414964820797.673148906547794,1.044875067340399.601931848435015.276214700459605-.070642789384692.494770484388937-.358656151330251.77433958426991-.426314225596798.277336470189766-.067117759096618.485131471548812-.429825322330544.765755279249788-.493897022735837.278404526989107-.063564996824425.501852464729382-.392400916109182.783479163179436-.452861583330559.279417770680084-.05998644639385.656964872070603.340154091101795.939541402609393.28332724295251.280374864250916-.056384087543847.610812200780856.157530912229959.894284033771328.104358744914862.279852995729016-.052493364705697.405910503450286-.963610425657862.688769590939046-1.012875574767349.280988514710771-.048939354213871.692728889691352.670129793025808.97667183959129.624471652256034.282064695818917-.045356116761468.565445747159174-.061544798565592.850414129079581-.103569298102229.283078118300182-.041745740953957.57104111686931-.022156822746183.85697296852959-.060523179536176.284023629070361-.038110311343189.481587558029787-.757050956417515.768415628499497-.791736844117622.284892950920039-.034451875250852.661276252620155.734942198421777.94892482979958.703956885088701.28452402171024-.030648738297714.4727227145504-1.01966263308077.759932055831086-1.0468341864389.285847981540428-.027042761381381.612853130809526.365878012710709.901350454480053.342363604241655.285875972269423-.023300751279749.540743959780229-.520440612929633.829211029889848-.540194876194619s.595372259240321.15475757765671.886420156290114.138631390954288c.288451688978967-.015982343182259.611069528709777.705905372447887.897494911459944.69374305076326.288593997569478-.012254406368811.542366126710476-.978086375641396.828888382040532-.986535487006222.288689764938681-.008513027969457.590634307618529.440548946201488.877205895760198.435824548970231.288738522578569-.004760121147228.577989531049752.199686051405479.864562408969505.198695916456018.288739875870306-.000997622121758.575603816268995-.110188289936559.862129508210273-.107436592747035.288696749739756.00277254730463.571573814229851.196872105347211.858006676489822.203371324216278.288602214839557.006548441911946.585459451120187-.328195573227276.871746967990475-.317945302615044.288459550809421.010328038360967.558529016709144.407354840770495.844621849129908.421357717094907.288268669130048.014109373127212.561037802119245.204819224893072.846886466828437.222574254803476.288029558050766.017890492590595.567774013230519.054873275946193.853328953920936.07637801020428.287742281800092.021669459788427.566461931539379.065140857289407.851673588789708.090390864857.288714797059583.025560143230905.59698452136945-.213700315522146.88308756853985-.184563522932876.288282426099613.029358740981479.628087108170803-.422295591753027.913698793199728-.389400244401259.287803063580213.033147739540254.532964093081318.417948081671057.818035784281165.454589970220695.287277081110005.036925359878296.5747684054204.057338988019183.859251743058849.097713569924963.286706962890094.040690164324587.545758949219817.247192909478144.829607907149693.291284887537586.286088941731578.044439928312386.655595080201238-.429771297684965.93875982793179-.381979612036048.285425767910056.048173293766013.531506499130046.32797064168517.813939781128283.379442968730473.284718034730759.051888714019697.459578531161242.663754412797971.741233538810775.718886688068778.283966381270147.055584712767086.544056222170184.187912383222283.824886624450301.246682347726164.283218764880075.059269782130286.730450166140145-.657316368092324,1.010456336809511-.594921547822196.282377420100602.062923214633884.601618480441175-.023087895511708.8807050252708.042895948789919.2814944233196.066553133943671.497035889899053.411584485013009.775158153730445.481130667454636.280570554788937.070158392654776.620493654838356-.085194432071148.897607521248574-.012113888130443.279606618010803.073737933065786.623145594070593-.072302561670767.899207482019847.004283147040951.278603434961042.077290790386542.550723675720292.197375661708975.825690528039559.277436189331638.277561841621718.080816095831324.519992825771624.294506235394692.793822089090099.378010157610333.276482683460927.084313079668391.320458820371641.909123969647226.593108415730967.996038853476421.275366811030835.087781074306804.824773428819753-.668492976613379,1.096201712449329-.578200504539382.274215075800385.091219517520585.379145864850216.685188424675289.649311578081324.778824237307163.273028326279018.094627955923897.447701033270278.456253039212243.716563240739561.553197133523099.271807404340507.098006048852767.573965703979411.099289855585084.841483718950258.199506420841317.270553142028803.101353572830703.520616695350327.243606441530574.786749990478711.347058969761747.269266358951427.104670426847406.618121299641643-.001217637123773.882829401720301.105433697665831.267947860240383.10795663873887.484454547540736.333637580188224.747696913729669.443449958359452.266613289881207.111218569553785.707788062431064-.191624446976675.969538246779848-.078682978909455.265231628980473.114443661724181.590548464351741.098106964191174.850748974500675.214131728499524.263820711339577.117639030899227.169076604461225,1.021862884531402.4276858502908,1.140931493164317.262381283679133.120805326504524.669647685948803-.08017376891712.926623257639221.041898688468791.260914088999925.123943391977264.408454775570135.47242390367137.663753168160838.597459643135153.259571621829309.127128609582542.424197745080164.428750245656374.677918924910045.556783386456118.258245577530033.130316248775671.720166062088538-.150032004330569.972303071008355-.019015476809727.258467313520669.134305907879025.611524971631297.084679923731528.863522024341364.219467525256732.256762342260117.137336448589849.297995900958995.664209928669152.547986734200094.801776769002572.255027486658946.140338447944487.46835825657945.34119068009386.71628109213998.481482745615722.253263114129368.14331396831949.752968845768919-.152074967159024.998756648048584-.009114238658185.251469754161008.146265595441946.623233451700798.087750648928704.86681268627035.233320261547306.249752588060801.14925897750345.03486799608072,1.056909834579528.276254402630002,1.205085821369721.247878902131561.152161430513843.460824358369791.340821029732069.699804550800764.491460315636687.245983023029112.155053465132369.691179297400595-.018057962002786.927651200139735.134968806149118.244266763169435.158071013519475.785369161290873-.143184592886428,1.019395837411139.012268358512301.243126511308219.16149754538128.296447252998405.599914215307763.528419431539078.758076787986283.241859882720746.164904177388962.267079447119613.629740360393953.496697959390076.790442918129884.240454849159505.168286558861837.797061298209883-.122082606312688,1.02395932141917.040936031361525.238901643740974.1716428373893.322652582601222.545336527919062.546370479471079.710370542140481.237215393619408.174990955989415.725117356369083.003561789755622.945077928899991.170209047908429.237559343329849.17998049723974.419014390809025.422820080020756.6362180747401.591927902838506.237041198479346.184552675482337.320659019538653.545952475148624.533159976259412.716080838182279.236764340530499.189553639193036.686468835940104.094874830377194.892362816050081.264502161154269.240525956189231.198159149232197.109229947509448.805520379749396.306993809890628.973336191268572.248531237459247.210895311223794.378123749869701.161763345460713.557904034860258.318688312636368-.034165602470239-.281887054443359-.141111097491375-.371192477130535-.175276352691071-.653079531574804s.676943025140645-.65410209869151.642778089430067-.935989153134869c-.034164935719673-.281887054443359-1.066165681859275-.442836067468306-1.100330325869436-.724723121911666-.034164644021075-.281887054443359.376599668528797-.617699391068527.342435288430352-.899586445511886-.03416438009117-.281887054443359-.429011050040572-.520060163496055-.463175194001451-.801947217939414-.034164143949965-.281887054443359.769043624630285-.665261511207973.734879689031004-.947148565651332-.034163935590186-.281887054443359-.831285455800753-.471305957691584-.865449210819861-.753193012134943-.034163755020927-.281887054443359.381942126208742-.618345180373581.3477785239902-.90023223481785-.034163602231274-.281887054443359-.290826997561453-.536808029180975-.324990474769947-.818695083624334-.034163477210313-.28188705444245-.326619204901363-.532470333811034-.360782584870321-.814357388254393-.034163379970778-.281887054443359.538234001949604-.637286333615521.504070691429661-.91917338805888s-.692500560830013-.488127370778784-.726663829680547-.770014425222143.813467788169874-.670643025915524.779304533210961-.952530080357974c-.034163254960731-.281887054444269-.948989046821225-.457042357234059-.98315231566994-.738929411677418-.034163268850534-.281887054443359.541523375899487-.637684844700743.507360065379544-.919571899144103s.165243417999591-.59208175645108.131080038030632-.87396881089353c-.034163379970778-.281887054444269-.97975937523006-.453312638303032-1.013922852431278-.735199692747301-.034163477208494-.281887054443359.924487199650684-.684099130297.890323597430324-.965986184740359s-1.038824254490464-.446153448990117-1.072988009509572-.728040503433476c-.034163755020927-.281887054443359.250125568520161-.602369499954875.215961632919061-.884256554399144-.034163935588367-.281887054443359.495543390881721-.632114093320524.461379246929937-.914001147763884-.034164143949965-.281887054443359-.239615461568974-.543014729624701-.273779841660144-.824901784067151-.034164380089351-.281887054443359-.848192230978384-.46925516832107-.882356874988545-.751142222764429-.034164644021075-.281887054443359.339463062518917-.613198386213298.305298126810158-.895085440656658-.034164935721492-.281887054443359.563695080629259-.640376701392597.529529825429563-.922263755835957s-.454941571790187-.545162181132582-.489107174260425-.827049235576851c-.072441062000507-.103998704844344-.019148912100718-.596472892300881-.282044594809122-.943328948957969-.145511119781077-.191982662813643-.391494051940754-.375445724831479-.594525179150878-.63119422136333-.160490372709319-.202161964489278-1.048578634179648.152019979941542-1.2446805704094-.085746689223924-.169227251939446-.205182063987195.018522706668591-.728034248920267-.177022348980245-.957134461562418-.175446029639716-.205552232273476-.646790375511046-.168595356392871-.843279316341068-.391564765142903-.180787700368455-.205152139807069-.230031012379186-.536911034905643-.42852318300902-.755396000820838-.18489310105906-.203516152568227-.152240638670264-.6191004509501-.352407224630952-.8330511678123-.188664772809716-.201656850947984-.320634966119542-.470789679407972-.522795020850026-.680772668993086-.19219598672862-.199633344655012-.301100136919558-.495074219178605-.505431112738734-.701425823809586-.195545581549595-.197479331606701-.559790287379656-.238050906877106-.766394954400312-.44097796477854-.198752995780524-.195215148157331-.47344590782086-.320445021647174-.682384714820728-.520075514434211-.201845862029586-.192853541571822-.582786230308557-.199813985193032-.794094280628997-.396224834325949-.204845095209748-.190403531859374.040961471890114-.880149761052053-.172736023410835-1.073384009602705-.207763622740458-.187868591809092-.832417463949241.08380453537211-1.048512143570406-.106269632439762-.210613665549317-.185253136629399-.020299824709582-.840238394069274-.238793494718266-1.027151939490977-.213403773310347-.182559320242035-.425931260870129-.380175818638236-.646820725200087-.56391449892908-.216140504860959-.179788435098089-.67717932989035-.070904268931372-.900457670910328-.251443198569177-.218829236700913-.176941462332252-.301842405449861-.532375614800912-.527500157861141-.709681739983353-.221473040968704-.17401807076385-.470901605349354-.322084476445525-.698926084689447-.496117281926672-.224075158450432-.171018605446989-.382344015250055-.440633901506772-.612720827970406-.611347592652237-.226637633139035-.16794288647452-.404390994739515-.41658276322778-.637103772189221-.583926868538583-.229161841600217-.164790622040528-.75987413941948.087546160299098-.994904606270211-.076373965006496-.23164859408098-.161561465103659-.264483670829577-.619345410043024-.50181165154936-.779783856096401-.234098213421021-.158255058970099-.465657533390186-.331970974933938-.705260916480256-.488867257208767-.236510597920642-.154871075083065-.526972423011102-.236822000797474-.76882709640995-.390113299149561-.238841041640626-.151381211121588-.820871371050089.247206179295063-1.064904986131296.09761197057469-.239891868948689-.147055291147808-.152143038478243-.837987532435363-.397034484220057-.983081405665871-.242284023688626-.143549021535364-.742528348229825.153913486041347-.989688449808455.012510751223999-.244631042560286-.139955835174987-.082486833600342-1.010892304590925-.331877612239623-1.148526063771897-.246931708590637-.136276647835984-.769070273610851.223702068677085-1.020651755361541.089914948918704-.249184569749559-.132512479225625-.546690453109477-.173132836339391-.800420528588802-.302996045448708-.251387965759932-.128664478985229-.383043776020713-.499544075992162-.638878072890293-.625406723544074-.253540053170582-.12473394983499-.785104079439407.330390608738526-1.04299584841101.208604316801029-.255638829188683-.1207223681713-.21387850056999-.882556175390164-.473778515679442-1.000191419641851-.257684127709581-.11663229527494-.80184007301068.415887051489335-1.063698583999212.30247534879436-.259669385230154-.112463585791374-.220167088660673-.930438963147935-.483927262890575-1.039554332245643-.261594635570873-.108219503938926-.762002349400063.372975139927803-1.027607131431068.268225904904284-.263458255509249-.103902687722439-.472472975758137-.339631351333992-.739863408398378-.439947091905196-.265256019230947-.099514981695393-.485109341690986-.319733873142468-.754221917641189-.415550508771048-.266986415019346-.095059623115048-.553259461328707-.132601231228364-.824028949058629-.223856248441734-.268646935670404-.090539672486557-.6387615745316.141567486604799-.911120017170106.054933630510277-.270235085121385-.08595844230058-.347939809709715-.791216758983865-.621816558761566-.873173154390315-.271748396198745-.081319495312528-.48926827744981-.371914492736323-.764590042139389-.449140638226709-.273184446499727-.076626640233371-.568069859060415-.102422097646922-.844760769670756-.174868974195306-.273375760998533-.071578860194677-.509408538679054-.32706428596066-.786195991928253-.394418228946961-.274766252241534-.066862100396975-.747517339841579.698441337409349-1.025634659830757.635883905518313-.276075387970195-.062098136423629-.384727520140586-.913013620076526-.664094209760151-.970731920986509-.277301330579576-.057291589280794-.653460001320127.357111763276407-.933993644630391.304270595337584-.278442274879126-.052447238894274-.613572444948659.219671867743273-.895188747879729.17174105374761-.279497956838895-.047570273603014-.440003155850718-.848598587381275-.722617528539558-.891590969373283-.280462892960713-.042665090645642-.671870350139216.672779957339117-.955392576470331.634749558311341-.281337422940851-.03773733930484-.509621450799386-.49487584333383-.79396164948048-.527926299481805-.282119378978678-.032792317817439-.619738919889642.465322769120576-.904804985018927.437264891523228-.282806213579534-.027835449725899-.482757940470037-1.006453741009864-.768455159510268-1.029511868683585-.282189152470892-.022774997696615-.608926354849245.490682143210506-.893927118500869.472681485140129-.282980001409669-.0178730266598-.554787205190223-.309329699421141-.84053046462941-.322384923797472-.283674359368888-.012960699121322-.56544828944061-.310166362607561-.851837598989732-.318270230140115-.284263007559275-.008043700238886-.581224249559455.12949297396608-.868153789950156.126340406477539-.283437684049204-.003114201579592-.570871229079785.734374607601239-.856902964720575.736135786373779-.284489730700443.001751684209921-.562180001648812.121260212995367-.849228071119796.127935427444754-.284037012619592.006605193250834-.590793496679908-.699999287292485-.877327861930098-.688475620437202s-.580403475059939.003713436074577-.869427637910121.020252756058653c-.287515769088714.016453083751003-.597908378398643-.223626724123278-.882395214130156-.202526940784992-.287130334920221.021295846046996-.545617909028806.447777677428348-.829663520109534.47370319071706-.286662049680672.026164321814576-.514629379020334.606796546604528-.798150397329664.637569531043482-.286109810209382.031053968378728-.63056472874996-.465367233428879-.913476689769595-.429729697879338-.285472750800182.035960110236374-.51451744104088.473119069529275-.796735016499952.513633448627843-.284750253309539.040877963363528-.554644442971039.137386116333801-.836081682860822.182784742097283-.283941954859984.04580266119774-.690494836610014-.630851023852301-.971065418019862-.580565713418764-.283047753278879.050729281983877-.430796553499022.818557201675503-.710414033999768.873726621073729-.282067809870568.055652877186731-.571599326509386.045228066205709-.850177399519453.105273984605446-.281002549660116.060568500543923-.501795896730982.354705305058815-.779248646131236.419615086178055-.279852658908567.065471237446218-.680894205439472-.388173702226595-.957136356688352-.318417684477026-.278623659700315.070357390656682-.564764981141707.112239728604436-.839716605370995.186820726025871-.277307204729368.075219951794679-.503350695660629.328435718495712-.776923696199447.407813072675708-.277190293210879.080426913603333-.566278941580094.112756420046935-.839636685330333.19730726893431-.275641051679486.0852570868783-.389062443189687.657978559315779-.660807740050586.747280629970192-.274016436780585.090048422110158-.560181483670021.112166271214846-.830237889849741.206175695326237-.27231855825994.094796902615599-.819196322259813-.584760749913585-1.087489371879201-.486091932280033-.270549681881675.099498728197432-.469773103561238.39612895350092-.736230446331319.499405320399092-.268712209530349.104150332106656-.678406131290103-.134606068122594-.942957648660013-.026777659401887-.266808658549053.108748395667135-.200695484280004,1.01489230144125-.463273383100386,1.127213813595517-.264844517188976.113291091096471-.8224206283885-.44441705909685-1.08296229438929-.327663267453318-.262816424310586.117773155116993-.58028692958942.131249652938095-.838726337829939.252369321955484-.260796942789966.122224546197685-.54557330444004.211812177120009-.801914345009209.337262804568127-.25864892070058.1265800798692-.408412601689633.483725133708504-.662526395070017.613402915252664-.25644866770017.130869300179256-.64230355366999.025749856637958-.894134779440719.159582137177495-.254198947650366.135090574128299-.299283856789771.66488419700454-.548779576260131.802796378109633-.251902491880173.139242557571379-.474909916289107.329918995898879-.722019493108746.471834767184191-.24956198063046.143324194146771-.50546970897085.27518882035838-.7501447044815.421030379719014-.247180025378839.147334713422424-.553004733028502.199359125940646-.795198775858807.349047386052916-.2447591525397.151273628634954-.630299618651406.08551637518849-.869968248071018.238971153617968-.242301788170153.155140734547786-.352622630280166.519496144175719-.589723112369029.6766363343595-.239810243931061.158936105939574-.610511732191299.12976707260259-.845002847201613.290510792728128-.237286704448707.162660097414118-.273696239039054.617635949739451-.505538037959923.781900666245747-.234733215858796.166313345302115-.336448211899551.513596516806501-.56560173906837.681299138652321-.232151675840214.169896772633365-.793515424600628-.102538519823611-1.019942402110246.068518419248903-.229543825051223.173411598422717-.428912280440272.392553914881319-.652574748510233.566881106764413-.226911240470145.176859352845895-.127530995699999.7650533567803-.348390901041057.942566234417427-.224272978339286.180256084512621-.396394925568529.416313820250252-.614430313138655.596941461203642-.221648322140027.183620714031349-.912481909110284-.191342503227133-1.127686538740818-.007655246174181-.219126773728931.187034991220571-.274607957040644.567449740375196-.487056480469619.754218889330332-.216574650559778.190396537080233-.613256014690705.183168332590867-.822893090940852.372934083770815-.213991662349144.193707569670551.150640699581345,1.015058864602906-.056124945858755,1.207732346509147-.212501825970321.198018711642362-.811256550759936-.018201927986411-1.016128856161231.178316832273595-.209578736468757.201033289428779-.190055337679951.634027659412823-.391653199349093.833053847962219-.206631456749164.203995572829626-.275286671520007.536735304774083-.473537190959178.738151715876484-.203659428541869.206911695860072-.376039830151058.432593381703555-.57085850535077.636273669775619-.200814915840965.209949276494626-.280263899550846.52046640061053-.471689564890767.726425118310544-.197751439000058.212764744622291-.596902108160066.227905668768472-.784638000359337.435798164510743-.194783726259629.215697033252582-.914289650609135-.039834415631049-1.098296742289676.169933819056496-.192489767730876.219438492315021.371050211990223,1.084459384884212.190347858129826,1.296630122996248-.19006589105993.223164887092935-1.062984018641146-.136524488775649-1.240015899929858.077695024151581-.187494525849615.226879959193866.035515682518962.780011997918336-.137366542579912.995786568173571-.1847606627598.230600066503939-.530140290129566.321759018512239-.698221254990131.538373126960323-.182572753410568.23529038068682.088978918560315.797895120150315-.073926079970988,1.015028122666081-.181979083208716.242556490524294-.63423697098915.259680313344688-.791689698618939.477300986650334-.180292429149631.249188187551226-.711415437150208.224487833678722-.859574777339731.437601354953586-.183742149751197.264296105046014.31042756487841.942530244014961.176060843239611,1.14512680316966-.217251226469671.327568838609295-.745921715750228.33297378149382-.8342678281806.475704368197512-.021210937498836.281711425782305.547401031941263.61338564556354.526190094429694.895097071344935-.021210937498836.281711425781396-.538261236490143.52608953699928-.559472173988979.807800962780675-.021210937500655.281711425781396-.632547839799372.518990400277289-.653758777300027.800701826058685s-.061890201001006.561957019691363-.083101138499842.843668445472758c-.021210937500655.281711425781396.362541425718518.593913819941008.341330488219683.875625245722404-.021210937500655.281711425781396.521450186539369.605878563394072.500239249040533.887589989175467-.021210937500655.281711425781396-.261227842711378.546948257862823-.282438780210214.828659683644219-.021210937500655.281711425781396.306267927298904.589676810172023.285056989800069.871388235953418-.021210937500655.281711425781396-1.097941196170723.483949461784505-1.119152133671378.7656608875659-.021210937498836.281711425780486.301116603570335.589288950707669.2799056660715.871000376489064-.021210937500655.281711425781396-.347414408610348.540458998587383-.368625346111003.822170424368778-.021210937498836.281711425780486.684622066970405.618164290614004.66341112946975.89987571639449-.021210937498836.281711425781396-.6329030563993.518963654894833-.654113993899955.800675080676228-.021210937498836.281711425782305.724979854239791.621202956124762.703768916740955.902914381905248-.021210937500655.281711425781396-.488560075660644.529831694674613-.509771013159479.811543120456008-.021210937500655.281711425781396-.225275266901008.549655241065011-.246486204401663.831366666845497-.021210937498836.281711425781396.470150321159963.602016034196822.448939383661127.883727459978218-.021210937500655.281711425782305-.364680159240379.539159005586043-.385891096741034.820870431367439-.021210937498836.281711425781396.236387840301177.58441531729477.215176902811436.866126743076165-.021210937511569.281711425781396.209565565328376.582395783333595.18835462782954.864107209114991-.021210937500655.281711425781396-.965890254959959.493891995010017-.987101192469709.775603420791413-.021210937500655.281711425782305.723416687838835.621085260379914.702205750339999.902796686161309-.021210937500655.281711425780486-.105338787279834.558685638141469-.126549724780489.840397063922865s-.200655623670173.551508931910575-.221866561170827.833220357691062c-.021210937498836.281711425781396-.490819432479839,1.011763614899792-.512030369978675,1.293475040681187Z"/>
          <ellipse class="cls-11" cx="122.422062960439689" cy="84.777177415677215" rx="14.831661226057802" ry="11.907359779825128"/>
          <ellipse class="cls-7" cx="66.597683300130484" cy="84.777177415677215" rx="14.831661226057802" ry="11.907359779825128"/>
          <g class="cls-18">
            <path class="cls-15" d="M104.484694999482599,86.023453348072508c-1.946202541079401,10.806049616968266-16.64398994109979,11.343559257217748-18.111902593260311-.000052858273193,3.194030071359521,1.50248793706487,5.778084149489587,3.322739306269796,8.946129419469798,3.333001277450421,3.142142419610536-.023312797785366,6.001193086380226-1.891923879297792,9.165773173790512-3.332948419177228h0Z"/>
          </g>
          <g>
            <path class="cls-14" d="M81.914437225883376,110.604721836101817c4.453857421869543-1.2998046875,10.605346679689319-2.542724609375,17.943481445308862-2.389251708984375,4.120239257810681.086181640625,7.772827148441138.594970703125,10.845947265630457,1.23590087890625-.512939453130457-.96142578125-3.866577148439319-7.014404296875-10.712890625-8.42218017578125-6.841552734380457-1.40679931640625-14.347778320319776,2.40570068359375-18.076538085939319,9.575531005859375Z"/>
            <path class="cls-8" d="M82.416213554171918,110.154984109791258c.153686523441138-.2322998046875.085815429691138-.42218017578125.194946289060681-.4449462890625l.874633789060681-.2900390625c8.885200421120317-2.525193221773407,18.38282335977965-2.878521908271978,27.444330311438534-1.054239250113824.000005626061466.000040031363824-1.204706287999215,1.607522941520074-1.204706287999215,1.607522941520074-5.404484605649486-11.081330579867426-19.41835976018956-10.635455777330208-25.933311624219641-.809154985885471-.19278700859104.264416216354221-.446449117969678.694042681197971-.492957907030359.698498247604221-.170951406120366.048568031223112-.565550206280022.052487023138383-.882934570310681.2923583984375h0ZM81.280837577613056,110.928177469166258c.103477563388878-1.839317699643289,1.447214260009787-3.260280946329658,2.48558500991021-4.611404790176493,5.024772812339506-6.121479033036849,14.485173552258857-8.69604061388327,21.397765208359488-4.204938004225369,2.746983582290341,1.686967330743755,4.766720461519071,4.139644638003119,6.517991756429183,6.817462559892192.325342595609982.48545250013467.195459783109982,1.14267906263467-.289891779390018,1.46793541029092-.282570413050053.193645639498754-.605794660548781.208960028905494-.916384095809917.139453382939791-8.745194028269907-1.919370783225531-17.91057728639862-1.771928713627858-26.625967737889368.286229596270459-.825945875219986.192914428531367-1.785509801909939.400743740203325-2.569098361609576.105261845008499h0Z"/>
          </g>
          <g class="cls-18">
            <path class="cls-15" d="M94.543288749482599,66.944046609791258c1.114644678120385,4.17848755218165.686707871140243,8.814290336697013-1.197539700970083,12.709055323851317.541860948189424-4.309702333114728.927002235799591-8.373868013714855,1.197539700970083-12.709055323851317h0Z"/>
          </g>
          <g class="cls-18">
            <path class="cls-15" d="M104.050490897921918,68.982864969166258c5.191119315541073-8.826525505091922,18.049460864420325-8.267369242101267,23.587643818520519-.089289675401233-.909787373209838-.687748898817517-1.800900654459838-1.354588498426892-2.746335224770519-1.929173459364392-6.752008571549595-4.337621887571004-15.106210768699384-3.768239366490889-20.84130859375,2.018463134765625h0Z"/>
          </g>
          <g class="cls-18">
            <path class="cls-15" d="M63.247268241671918,69.560684793385917c4.773612394081283-8.975296905115101,17.747194781861253-9.755722963702283,23.111229451931649-.934374883714554-7.029566256551334-6.585929060524904-16.606584631481383-6.099711716558886-23.111229451931649.934374883714554h0Z"/>
          </g>
          <g class="cls-18">
            <path class="cls-15" d="M85.46821550729328,74.897995584400633c-.951973585240921,1.299712488662408-2.495736327051418,2.050057199438015-4.060290746310784,2.295755605066006,1.288212109999222-.899790874489554,2.724712212921077-1.489932411810514,4.060290746310784-2.295755605066006h0Z"/>
          </g>
          <g class="cls-18">
            <path class="cls-15" d="M106.931228202613056,76.426254861744383c-1.142117749041063-.167457610335987-2.232708497949716-.67025372547505-3.116470027580363-1.410246171786639-.287826847419637-.258424482510236-.564194034919637-.540986738369611-.748153995860775-.890107832119611.335205078121362.19952392578125.649780273441138.392578125.973999023441138.574920654297784.906276716948923.532573307541497,2.022693158600305,1.133198142890251,2.890625,1.725433349608466h0Z"/>
          </g>
          <g class="cls-18">
            <path class="cls-15" d="M85.604568046363056,72.895981424244383c-1.605391436880382,2.303705571202045-4.064880125761192,3.898778136725014-6.711287235730197,4.750625336824669,2.109600608080655-1.803501955364482,4.421385642859605-3.167269814726751,6.711287235730197-4.750625336824669h0Z"/>
          </g>
          <g class="cls-18">
            <path class="cls-15" d="M110.359206718232599,77.732559793385917c-2.690731725389924-1.034464614042008-5.234470802100986-2.773623650437003-6.735181464040579-5.286013259933497,2.340735929001312,1.730010413250966,4.557550493311282,3.351298644476628,6.735181464040579,5.286013259933497h0Z"/>
          </g>
          <path class="cls-14" d="M126.883199260451875,70.603819377283799c-.256604838339626.35804126651783-4.652936160799072,6.269246812902566-12.115106632440074,5.769553033614102-6.90343040200969-.462274269467343-10.457431045289923-6.011352173199157-10.792457400868443-6.555080985003769.815435731679827-.76876038210321,4.966316897129218-4.522843278195069,11.364544268099053-4.404012504386628,6.722499492379939.124862830700295,10.840988110119724,4.430729735235218,11.543019765209465,5.189540455776296Z"/>
          <path class="cls-14" d="M63.570125532993188,70.806539102239185c.263799846099573.352773628248542,4.778886878359117,6.173776050472952,12.229413415308954,5.523133027596486,6.892658408929492-.601920985904144,10.333604648491018-6.221803113723581,10.657556026650127-6.772202227384696-.830830143859203-.752096556068864-5.056852147959944-4.421386795518629-11.451363132830011-4.173065415343444-6.718594561179998.260916220585386-10.749078586090036,4.649268624263641-11.435606309129071,5.422134615131654Z"/>
          <g class="cls-16">
            <circle class="cls-1" cx="115.17790391921244" cy="69.982710924077765" r="5.68986906165194"/>
          </g>
          <g class="cls-19">
            <circle class="cls-1" cx="75.551899296714964" cy="69.619422470098471" r="5.689869061649805"/>
          </g>
          <path class="cls-5" d="M103.890456718232599,69.730606668385917c6.191589351870789-6.868787220418199,17.534025997989374-6.727357503259555,23.366446182779328.541343114166011.000008895351129-.000205418854421-.747549698398871.663979151458989-.747549698398871.663979151458989-4.302863916869683-4.494734932594838-11.103796746670923-6.387561150604597-16.996117182870876-4.135406642965791-1.959937504629124.698242336324256-3.8130869186989,1.764221340230506-5.452369145259581,3.105499416402381l-.17041015625-.175415039061591h0Z"/>
          <path class="cls-5" d="M86.373733085421918,69.646927469166258c-6.731504031138684-5.528122585773417-16.540436502138618-4.997361013288355-22.423070423008539,1.484319543467791-.000025280120099-.000249719248131-.761011608241461-.649114465342791-.761011608241461-.649114465342791,4.091578670449962-5.319868562983174,11.831273218829665-7.384871451324216,17.983179175991609-4.656563931756864,2.025365745879753.844094449334989,3.868749534949529,2.081338101678739,5.367650902129753,3.642495328241239l-.166748046871362.178863525390625h0Z"/>
          <path class="cls-13" d="M106.655593436982599,54.411606424244383c5.644720231259271,3.203341997088501,12.129119046690903,4.96970941222844,18.730482925400793,5.321336293029162-.000014175400793.000074839784247.254868637099207.257490611266803.254868637099207.257490611266803l4.316284179689319,4.359069824220569-.844360351558862,1.212127685545966-5.5849609375-2.53778076171875,1.040649414058862.331573486328125c-6.906978404809706.270477050364207-13.949477703019511-1.071482777317215-20.401489283858609-3.913573979201828l2.48852541666929-5.030243159470047h0Z"/>
          <path class="cls-13" d="M87.61225847604328,59.658829324635917c-6.285525240780771,3.295389705552225-13.691198699119923,4.491485868259588-20.682614470901171,3.558679223565377-.000002716598829.000006079168088,1.25329318184049-.391259789972537,1.25329318184049-.391259789972537-1.785139603460266,1.164648628081522-3.597817866089827,2.239951501007454-5.632438767959684,2.977461420635336-.000007521100997-.000013910869711-.909553419540316-1.163984858135336-.909553419540316-1.163984858135336.6083984375-.919097900390625,1.295654296880457-1.737213134765625,2.012573242189319-2.517272949217841.83375628479007-.922366253450491,1.735427690829965-1.76765615583372,2.643555702879894-2.602384818707833l.848753867430787-.017122017230577c6.284278077919225-.134282815310144,12.351531116270053-1.852348138350862,17.844472248569218-4.806147483171117.000010173300325.000025657001061,2.621958415500558,4.962031272231798,2.621958415500558,4.962031272231798l-.000000000009095.000000000002728Z"/>
        </g>
      </g>
    </g>
  </g>
</svg>