<?xml version="1.0" encoding="UTF-8"?>
<svg id="Layer_2" data-name="Layer 2" xmlns="http://www.w3.org/2000/svg" width="33.822473937075301" height="67.84763889639089" viewBox="0 0 33.822473937075301 67.84763889639089">
  <defs>
    <style>
      .cls-1 {
        fill: #f19b61;
      }

      .cls-1, .cls-2, .cls-3, .cls-4 {
        stroke-width: 0px;
      }

      .cls-2 {
        fill: #f1a267;
      }

      .cls-3 {
        fill: #0b2645;
      }

      .cls-4 {
        fill: #f1b068;
      }
    </style>
  </defs>
  <g id="Layer_1-2" data-name="Layer 1">
    <g>
      <path class="cls-2" d="M25.683996216829655,51.854689825679998c1.481377275908017,5.610398994514981-.741958389905449,11.843188070239194-5.651983370904418,15.992949070710893-1.792572316513542-.113854424920646-4.342869109653293-.48652662247332-7.171241580012975-1.647291530811344-1.997319818575306-.819624884226869-3.585673696336016-1.807491901932735-4.767283699199652-2.672616231064239.22622747256446-3.277229784960582.999188972599768-5.867735389874724,1.617134921978504-7.617241952722907,1.095795933522822-3.102427266403538,2.914609790351278-6.512557755546368,5.955348274478638-9.464307790456587,1.2740902699461-1.236950025384431,2.588283539001168-2.223758916465158,3.851686730025904-3.014391131147931,1.227850136404413.831475902434249,4.876270741642657,3.537528934868533,6.166338723633999,8.422899565492116Z"/>
      <path class="cls-3" d="M29.881980977685089,40.731380847178116c.134638716674999.338303674967392.174689046279127.702295139659327.108413380841739,1.060323765183057-.580162046760051,3.134100862056584-1.561675303209086,6.928241193227223-3.266608154481219,11.055113218399129-.896753569141765,2.170744191593258-1.866432519159389,4.125510120265972-2.83726620199468,5.862375112708833-.758542966905225,1.357067382172318-2.734592521055674,1.287216702992737-3.419530603220664-.108447703660204L1.316977627486267,19.579714708265783c-.278762838473995-.568021229495571-.262111041828575-1.236476127408423.044583184326257-1.789915816010762C4.463574198719471,12.192115021858626,7.565587585628236,6.594570673747512,10.667600972530636.996925312140775c.791145537574266-1.427637987460912,2.885810858668265-1.294199268419106,3.489352463586329.22230955647774,5.241675847189072,13.170670612787035,10.483351694376324,26.341504978127887,15.725027541568124,39.512145978559602Z"/>
      <path class="cls-1" d="M7.744057928125585,25.595668036424286c-.167169437104349,8.933138396996583-2.795566086349027,16.16877542509792-5.140431388444085,21.009430882913875-.867875513225954-7.907540651243835-1.735751026454636-15.814850882865358-2.6036265396815-23.722391534111011,1.119378532658629-2.344058833413328,2.44924539170097-4.842729234431317,4.032919466413659-7.432415386868342,2.597635629461365-4.247785765652225,5.317624079183588-7.824359167031616,7.860650257793168-10.773730352299026.069932355837409-.030184970723894.17327555713382-.066821690916186.301504077803656-.082720644961228.892645622791861-.109679740950924,1.662938425320135.95624143897021,1.783908727840753,1.123756505511665.758656611522383,1.04979180625196.428004451297056,2.972643567274645-.769140704410347,4.819226432795404-1.947967500016603,2.688766590694286-3.895935000035024,5.377994020631377-5.843902500051627,8.066760611325662.270627848211006,2.130459842107484.42523941581203,4.471523220413474.378118602736322,6.992083485693001Z"/>
      <path class="cls-2" d="M2.668835293230586,42.625752015467697c-.182261922464022-6.55843375360746-.364408635118707-13.116867507218558-.546670557582729-19.675301260826927,2.01870632454029-1.804185654737921,4.302164796884426-3.672427964904273,6.866043951446954-5.526384258390863,4.20561897448988-3.040847775937436,8.259045787429386-5.386980385961579,11.890228639663292-7.201074084524407.079379560412235-.000921678495615.193552484030988.005299651346832.323163522446521.041705951916811.90255366661404.253231166610021,1.21477225693161,1.588052047564815,1.263851636809704,1.797733905267705.307494988026519,1.314543954058536-.78342672108738,3.03070931248385-2.676899980062444,4.325206759266621-2.954209997366888,1.802803136994953-5.908419994732867,3.605836693611309-8.862629992098846,5.408639830603533-2.752362406874454,6.9432345254354-5.504724813749817,13.886238631250308-8.257087220622452,20.829473156687527Z"/>
      <path class="cls-4" d="M18.982668671267675,39.904207715598204c-.791584528647945,1.751199565447678-1.175155430446466,3.351298648754891-1.369850729565769,4.574069777354453.178294336423278,1.20033884413715.491394004951871,3.068778839708102,1.029980457408783,5.352216097859127.301989338960084,1.28033321703515.483458055259689,1.879867763129369.904909890254203,3.529487172514564.646409555610262,2.5301923872521,1.168489232704815,4.573858152032699,1.384241251673302,5.883184038610125.307385784753023,1.865477241019107.404839246974916,4.740618908233955-.899936695112956,8.604474094454417-1.479895898633004-.090575639154849-3.380820381612466-.352567791665933-5.498555010187374-1.032096710658152-2.860962770429978-.918030660412114-5.016895770190786-2.244709823651647-6.439970269025252-3.287811051217432-1.604331589810499-1.858705230615669-4.50121775918069-5.766155233812242-5.400784109975575-11.429672184936862-.391030694509936-2.461837407236089-.305428250493605-4.630573739166721-.089094261879836-6.321671712279567.38140174221553-6.150255198921514.762750578100167-12.300510397846665,1.144152320313879-18.450765596768179.808990711640945-1.084791416616099,1.833574723256788-2.295288276358406,3.114595722598096-3.518271030285177,1.750247251487053-1.670781941899804,3.478168031172572-2.886357809446054,4.929706136237655-3.758254148980086,2.558338555494629-.481024364019504,5.283226241866032-.911470275334068,8.163129478895826-1.259805560497625,2.407872949327611-.291196447377843,4.721995879620408-.500705519257281,6.931046835989946-.644822365670734.069307293979364.061159718962699.162422437036184.157025991245973.239454055383248.292677824654675.548003779425017.965011482591763-.539115515767662,2.487867322225611-.795393784498629,2.846995498972319-1.068602079244556,1.49703754996699-2.701185649958461,2.052130777783532-3.516789653008345,2.260793348360494-2.884876432170131.488431250400026-5.769858677003867.977074126126354-8.654735109172179,1.465505376524561-1.163198599577299,1.444554469337163-2.326503011815475,2.889320563997899-3.489701611390956,4.333875033335062.038409996510381,2.230107676217813.076925805684368,4.460426977761017.11533580219475,6.69053465397883l4.881561374769262-3.153428969759261c1.382654061736503-.691803187850383,3.081687984542441-1.409213040040413,5.07509273460164-1.988854805569645,2.586061473086374-.751904780188852,4.908014540411386-1.050931364596181,6.759524509973744-1.153992897934586,1.071035770481103.225380971263803,2.168101455953547.473405852317228,3.289080803167053.746614147059518.955594155623658.232999482966989,1.88706302418268.474040728291584,2.793983355026285.721430733367015.081475750175741.113642799593435.179352463047508.283366310348356.219878712810896.502398521857685.190780230603195,1.034001338584858-1.113043397521324,2.024196234868214-1.507195565574875,2.323434444600935-1.713530257577077,1.301284124223457-3.918560332767811,1.071035770482922-4.741465409534612.942155947479478-2.218997346649303.55466997716394-4.437888880635001,1.109551579653271-6.656886227284303,1.66422155681903-.618686638016698.837824662188723-1.309325886578335,1.924943957381402-1.915315005087905,3.26537876675502Z"/>
    </g>
  </g>
</svg>