<?xml version="1.0" encoding="UTF-8"?>
<svg xmlns="http://www.w3.org/2000/svg" width="192.665140022942069" height="211.120246112775931" xmlns:xlink="http://www.w3.org/1999/xlink" viewBox="0 0 192.665140022942069 211.120246112775931">
  <defs>
    <style>
      .cls-1 {
        fill: #151c22;
      }

      .cls-1, .cls-2, .cls-3, .cls-4, .cls-5, .cls-6, .cls-7, .cls-8, .cls-9, .cls-10, .cls-11, .cls-12 {
        stroke-width: 0px;
      }

      .cls-13 {
        clip-path: url(#clippath);
      }

      .cls-2, .cls-14, .cls-15 {
        fill: none;
      }

      .cls-14 {
        stroke-width: .515625622853655px;
      }

      .cls-14, .cls-15 {
        stroke: #f1b068;
        stroke-miterlimit: 10;
      }

      .cls-14, .cls-15, .cls-6, .cls-8, .cls-9, .cls-16, .cls-17 {
        mix-blend-mode: multiply;
      }

      .cls-14, .cls-15, .cls-8, .cls-17 {
        opacity: .6;
      }

      .cls-18 {
        clip-path: url(#clippath-1);
      }

      .cls-3 {
        fill: #ffc58f;
      }

      .cls-15 {
        stroke-width: .545810828627706px;
      }

      .cls-4 {
        fill: #4b4342;
      }

      .cls-5 {
        fill: #aea8a9;
      }

      .cls-6 {
        fill: url(#radial-gradient-2);
      }

      .cls-6, .cls-9 {
        opacity: .1;
      }

      .cls-7 {
        fill: #e08362;
      }

      .cls-8, .cls-12 {
        fill: #f1b068;
      }

      .cls-9 {
        fill: url(#radial-gradient);
      }

      .cls-10 {
        fill: #0b2645;
      }

      .cls-19 {
        isolation: isolate;
      }

      .cls-16 {
        opacity: .3;
      }

      .cls-11 {
        fill: #fff;
      }
    </style>
    <clipPath id="clippath">
      <path class="cls-2" d="M124.992982563220721,71.379701535010099c-.253570800910893.360196391582576-4.599804934310669,6.308332987708127-12.065930710761677,5.871700520801824-6.907089512009406-.403934757977368-10.507844206309528-5.922788967458473-10.847452249508933-6.463667934262048.808911826779877-.775622081997426,4.927928820490706-4.564639348529454,11.32693177974943-4.499867666669161,6.723314469199977.068063939492276,10.87803383542996,4.338982491954084,11.586451180521181,5.091835080129385Z"/>
    </clipPath>
    <clipPath id="clippath-1">
      <path class="cls-2" d="M63.450658152649339,72.470700696278072c.279099855601089.340797391698288,5.046489549220496,5.957030614921678,12.461076175590279,4.978466778953589,6.859409735530789-.905288294183265,10.049182758421011-6.671442490573099,10.348547466881428-7.235591806853336-.863187916280367-.7147269260131-5.24690745271073-4.194088342486793-11.624247414310958-3.664023009132507-6.700552863811026.556939378039715-10.533598243720917,5.118759344863065-11.185376228160749,5.921148037032253Z"/>
    </clipPath>
    <radialGradient id="radial-gradient" cx="66.863709964278314" cy="86.114578264568991" fx="66.863709964278314" fy="86.114578264568991" r="17.129250662055853" gradientTransform="translate(64.858568219234712 30.529548344761565) scale(.853091239733539 .645477583935139)" gradientUnits="userSpaceOnUse">
      <stop offset=".537641841231661" stop-color="#e984a2"/>
      <stop offset=".592832570610897" stop-color="rgba(233, 132, 162, .886871293855677)" stop-opacity=".886871293855677"/>
      <stop offset=".711273432585101" stop-color="rgba(233, 132, 162, .596518194573597)" stop-opacity=".596518194573597"/>
      <stop offset=".8824215114979" stop-color="rgba(233, 132, 162, .136328760171738)" stop-opacity=".136328760171738"/>
      <stop offset=".931113028771807" stop-color="#e984a2" stop-opacity="0"/>
    </radialGradient>
    <radialGradient id="radial-gradient-2" cx="1.425950132463186" fx="1.425950132463186" xlink:href="#radial-gradient"/>
  </defs>
  <g class="cls-19">
    <g id="Layer_2" data-name="Layer 2">
      <g id="Layer_1-2" data-name="Layer 1">
        <g>
          <path class="cls-10" d="M69.026333737690948,130.285640890313516c21.922177262209516-4.553557561070193,40.236742857618083-1.999686473354814,53.735504121428676,0,8.248121656810326,1.221868109885691,13.579497581340547,2.534930230609461,20.736655121359945,4.297673163386207,26.876271789869861,6.619354207472497,35.935559419551282,6.332901167821547,42.565444451060102,14.230726664321992,3.883241359530075,4.625883845525095,4.522696396221363,10.139794053175137,5.801606469571198,21.167614468471584,1.828121798598659,15.764058520926483.283308418589513,29.795284574542166-2.23224217058123,41.138590926282632-55.489251975350271-9.850562046074629-134.144049755179367-19.701197222875635-189.633301730529638-29.551759268942988.441928955469848-11.718101304046286,2.197797600339982-19.55742222263143,4.545513181599745-24.817349431381444,2.251329289139903-5.04397218548911,6.128647060160802-7.639381523527845,8.096156015661109-9.340255865154177,2.80653773360973-2.426184846397518,20.888181978169087-7.814602734404616,37.736915373759985-11.764539312767738,8.198392765569224-1.921948515438999,12.354046066049705-4.05341655056327,18.64774916667011-5.360701344216068Z"/>
          <path class="cls-1" d="M68.627771300600216,131.226467634009168c3.126923428459122-.965837450759864,5.902526866499102-1.647708306431014,8.190933431889789-2.136952839300648,8.059590654460408-1.723106081233709,22.795943133469336-4.784723774580925,39.06284850162956-.034298308808502,2.852390696560178.832958928160224,5.164052831680237,1.733783166702779,6.760496501710804,2.410461741088511-.066548957389386.425182020044303-.132951653329656.850437170807709-.199500610720861,1.275619190852012-2.4061470284596,2.092562490804994-12.007333311139519,9.948484083372023-26.566928834108694,10.02724587139528-14.837638529541437.080297533197154-24.644760926510571-7.971541264683765-27.008711528151252-10.02724587139528-.079712487409779-.504967638182279-.159424974830472-1.009862145645457-.239137462249346-1.514829783831374Z"/>
          <path class="cls-3" d="M55.951205755500268,93.524245901222457c-6.604641992309553,1.609475920755358-13.138769229100944-3.613683775332902-14.474715964321149-11.57059700514219-1.3359467352293-7.956913229816564,2.999531579340328-15.828930336494523,9.6041735716517-17.438406257260795,1.623514130889816,9.669667754133116,3.247028261768719,19.339335508273507,4.870542392669449,29.009003262402985Z"/>
          <path class="cls-3" d="M133.188396798550457,90.351560310155037c5.929748516618929,1.219395438609354,11.644684787010192-4.380083336687676,12.660015122379264-12.404275839202455,1.015330335370891-8.024192502514779-3.028609270579182-15.630589392658294-8.958357787189016-16.849984831260372-1.23392243392118,9.751398256965331-2.467734901250878,19.502862413493858-3.701657335190248,29.254260670462827Z"/>
          <path class="cls-14" d="M144.121089175960151,73.283777150976675c-.160100983950542-.828065696816338-.509777158260476-2.10551180692346-1.255847045220435-2.463911050694151-1.604555036799866-.770831881291087-4.135838135620361,3.144681551766553-4.886699349910486,7.194791340043594-.291191801448804,1.570832082954439-.572921540529933,4.555147708571894.299793818561739,5.573591555945313.862167011629936,1.006143108610559,2.506783766179069-.308100669466512,3.183699851309939-2.632694166873989.498708418508613-1.712638664465885.548675265668862-4.236781763833278-.135369103019912-4.642471060455136-.419044047961506-.24850805105234-1.088739232671287.312586889085651-1.531263116341506,1.401498133531277-.513435816579658,1.263242650438769-.445649831459377,2.559054961020593-.437791796310194,2.686930753985507"/>
          <path class="cls-15" d="M43.735671330099649,76.776945723919198c.218429716949686-.818772958704358.67035503659099-2.076579620403209,1.522509985850775-2.396003338748415,1.832711164930515-.687008093005716,4.480969937219925,3.354396760485542,5.129766494299474,7.438277945173468.251602616039236,1.583928787778859.425691190619546,4.579104508685305-.599486766410337,5.551215747655078-1.012787248850145.960370502645674-2.791626961259681-.437187717947381-3.439340819730205-2.793867345331819-.477192807289612-1.736277636613522-.413621867190159-4.259880007906759.371337699931246-4.629738736512081.480863700569898-.226558345508238,1.203987445300299.368430538463144,1.647815128299044,1.478850293042342.514956137531044,1.28819797525648.377722673280005,2.578906929237746.362871698100207,2.706218745752267"/>
          <path class="cls-3" d="M73.153685448600299,115.608524296443647c.118471770289034,2.071427712031436.83500658838966,16.057897763534129-3.189084542489582,17.141110023749206-.317387335229796.085416683767107-.680115718339948.094850546956877-1.097692143261156-.008336902352312,2.363950601640681,2.055704606711515,12.171146129330737,10.107470273869694,27.008711528151252,10.02724587139528,14.559595522969175-.078761788023257,24.160781805649094-7.934683380590286,26.56707509555963-10.02724587139528-.296325687169883.124980404587404-.730429655350235.252666645897989-1.214262514760776.167761877186422-2.489077267659013-.436590412733494-3.407014095249906-5.989844949035614-3.826930703278776-8.530625637438789-.343568133850567-2.078813914995408-.639747559571333-5.141016654124542-.23913746226026-8.929334335982276-14.669584129460418.053166035188042-29.339095128199915.106258939653344-44.008679257660333.159424974837748Z"/>
          <path class="cls-8" d="M84.630601630169622,134.430032059543009c8.421002684561245,2.587950004352024,20.80671435342083-1.932918123802665,32.511725258151273-12.011136108714709-.193065107130678-1.881946010285901-.269413581321714-4.232733081888.020037817939738-6.969796629222401-14.669584129460418.053166035188042-29.339095128199915.106258939653344-44.008679257660333.159424974837748.069839839899942,1.220551756887289.346347101300125,6.576938388479903-.260711025361161,10.993814629382541,3.107031871961226,5.166758668408875,8.966923527290419,6.976232132794394,11.737627206930483,7.827693133716821Z"/>
          <path class="cls-3" d="M139.822942872560816,50.150453974224547c-3.572289527881367-19.686790470555025-20.056978187350978-45.475389026153607-45.762719634460154-45.762719634466521-25.663983804621239-.286818693264649-43.254116463920582,25.037984820857673-46.559917639369814,43.370906227592059-.9144265529103,5.070957422063657-1.65326624133013,16.273414002454956,1.676594941778603,28.483904460430495,1.095498221580783,4.017289973700827,1.141058661640272,2.659544981583167,3.859254482591496,11.041934644727007,4.716931594908601,14.545993208597793,4.804249677459666,19.326329139836162,9.83286441124983,24.980796595940774,2.258130446329233,2.539171812510176,4.431868038989705,4.039302321143623,7.281626029538529,6.006006838688336,6.696726511780071,4.621569132905279,12.713044782331053,6.577304042089963,15.945203320319706,7.600549109938584,3.75460441883115,1.188666761921922,5.676699195721085,1.79930829397199,8.557172089680535,1.860299316456803,5.030369871130461.106478331814287,8.867100091210887-1.483456703921547,10.789706783150905-2.444979442057956,11.684388041028797-5.323039022179728,17.64892976010924-11.760443992316141,20.622424932969807-15.732539179567539.332452264039603-.444196007872961.843928536509338-1.061419304944138,1.409960327899171-1.996761244459776,1.919681463050438-3.172118214897637,2.933712059870231-7.356658150732983,7.412968806980643-21.389566210960766,1.277886243260582-4.003614528606704,2.336380319300588-7.237381942490174,2.986512441440937-9.211838316612557,1.925239397958649-6.060342965440213,3.971729533648613-15.654874352385377,1.948348706229808-26.805993165648943Z"/>
          <g class="cls-17">
            <path class="cls-12" d="M103.179232327780483,88.612049511793884c-2.837638795359453,8.347274226583068-15.637000262850052,8.860549958498268-18.11172631673071-.000120841840726,3.23700369513972,1.131347070425363,5.815185467959964,2.186074829192876,8.979652584930591,2.182454973950371,3.132749350939775-.001111196511374,5.92923673219957-1.123885900691675,9.132073731800119-2.182334132109645h0Z"/>
          </g>
          <g class="cls-17">
            <path class="cls-12" d="M89.663485257460707,58.183826855543884c.144025625990253-1.595031443852349-.333422199990309-3.128757600547942-1.511664232921248-4.242130838216326,1.700661492721338.507317611158214,2.366636208300406,2.78432279378103,1.511664232921248,4.242130838216326h0Z"/>
          </g>
          <g class="cls-17">
            <path class="cls-12" d="M99.649080960589345,58.524372509840759c-.880992260848871-1.442122008214938-.25619147245925-3.730956659713229,1.434971439590299-4.26872667931093-1.158118384279078,1.13453243182812-1.607412112429301,2.676572884533016-1.434971439590299,4.26872667931093h0Z"/>
          </g>
          <g>
            <g class="cls-17">
              <path class="cls-12" d="M102.152010648089345,69.798084668043884c5.194833370620472-9.0593572438911,18.363092554631294-8.215416695038584,23.455197025201414.487505008789412-.865231204890733-.756883670898787-1.721920658010276-1.481157352539412-2.636349368951414-2.116899540039412-6.578445044318869-4.783567469413356-15.093864113488962-4.311013491855192-20.81884765625,1.62939453125h0Z"/>
            </g>
            <g class="cls-17">
              <path class="cls-12" d="M104.751497952780483,75.187641552809509c-1.002165086019886-.579543448317963-1.825201791320069-1.464662193299773-2.353908485280044-2.492468037080471-.165378624100413-.351129375028904-.309665733469956-.720453105497654-.341648155350413-1.115167460965495.23388671875.31396484375.44970703125.613922119139716.67919921875.907104492186591.63315418817001.841182745501101,1.435616045240749,1.822752145430968,2.016357421880457,2.700531005859375h0Z"/>
            </g>
            <g class="cls-16">
              <path class="cls-12" d="M118.029940335589345,82.220997265700134c-6.307448726080111.825523531834733-14.645702047579107-1.01982236848562-16.845622406579423-7.785625835466817.418010101890104.712505718280227.839640961270561,1.414379497576192,1.398967133140104,2.005169292498067,3.741435105370329,4.451382842850762,9.933580411370713,5.402776546426139,15.446655273439319,5.78045654296875h0Z"/>
            </g>
            <g class="cls-17">
              <path class="cls-12" d="M102.040560452780483,66.812885693434509c.594337197278946-.993581199517394,1.491304117798791-1.803340781552834,2.526831191300516-2.317043647384708.353539902449484-.160129204177792.724877793069027-.299014702224667,1.120019394629708-.325137749099667-.317260742180224.229248046875-.620361328121362.44061279296875-.9169921875.665740966796875-.850370588541409.620720968900059-1.843622230540859,1.408741195258699-2.729858398430224,1.9764404296875h0Z"/>
            </g>
            <g class="cls-17">
              <path class="cls-12" d="M130.960482327780483,70.201130322340759c-.97856400585988.618912953075778-2.144282975181341.937226018138972-3.300161440010925.928898538213616-.387704770930213-.016453469854241-.781869809989075-.059941018682366-1.146371763119532-.214787210088616.38671875-.061553955077216.752563476560681-.113555908202216,1.11865234375-.1807861328125,1.038969523260675-.170539432901933,2.280797684699792-.426247150679046,3.327880859380457-.5333251953125h0Z"/>
            </g>
            <g class="cls-17">
              <path class="cls-12" d="M130.475130765280483,72.606831005934509c-1.142337606150249.187736658305766-2.340037615651454.025611071362619-3.400761798660824-.433405222634974-.350580974780314-.166570363302526-.696528240408952-.360509572285991-.971552654469633-.645360646505651.380004882810681.09429931640625.737060546880457.18927001953125,1.100463867189319.2703857421875,1.023051067169945.248606237124477,2.266125315531099.498136377606897,3.271850585941138.808380126953125h0Z"/>
            </g>
            <path class="cls-11" d="M124.992982563220721,71.379701535010099c-.253570800910893.360196391582576-4.599804934310669,6.308332987708127-12.065930710761677,5.871700520801824-6.907089512009406-.403934757977368-10.507844206309528-5.922788967458473-10.847452249508933-6.463667934262048.808911826779877-.775622081997426,4.927928820490706-4.564639348529454,11.32693177974943-4.499867666669161,6.723314469199977.068063939492276,10.87803383542996,4.338982491954084,11.586451180521181,5.091835080129385Z"/>
            <g class="cls-13">
              <circle class="cls-1" cx="113.282857586765203" cy="70.85750638783702" r="5.689869061653106"/>
            </g>
            <path class="cls-4" d="M101.993685452780483,70.700764111403259c6.133397294170209-6.920867415260545,17.476497975460006-6.875243953031713,23.370232080409551.343924996992428.000007177399311-.000205514570553-.741936181979327.670265676835697-.741936181979327.670265676835697-4.340735448160558-4.458263765573065-11.157357875699745-6.293476774340888-17.030539962841431-3.991668659774405-1.95395710746925.71478267344628-3.797951248088793,1.79638667735253-5.425880935588793,3.151458698836905l-.171875-.173980712890625h0Z"/>
          </g>
          <g>
            <g class="cls-17">
              <path class="cls-12" d="M63.256502835589345,71.235645703200134c3.833566633011287-8.61372700044376,16.22678666999127-10.183646798905102,21.99098856710043-2.671128506925015-1.765158488979068-1.209303621981235-3.651511028039749-2.10771060440311-5.595114543659292-2.69254947159061-6.010619977210808-1.861849143338077-12.423518928861085.603007044517653-16.395874023441138,5.363677978515625h0Z"/>
            </g>
            <g class="cls-17">
              <path class="cls-12" d="M86.517489163710707,71.232532910231384c-.47228966198054,1.543513315795281-1.705253505200744,2.752165404714106-3.122789744769761,3.463534948947199.941417815429304-1.260477053520844,2.11504437217809-2.270706870766844,3.122789744769761-3.463534948947199h0Z"/>
            </g>
            <g class="cls-16">
              <path class="cls-12" d="M87.882479398089345,73.784595898513544c-.763561510890213,6.401218534118925-7.606046040669753,10.503221809165552-13.717260695430014,9.419823368811194,1.511206007930014-.109001835608979,2.990209914180014-.348442753577729,4.409521437621152-.760094364905854,4.339912522378654-1.156143030338171,7.864655142559059-4.380500808817487,9.307739257808862-8.659729003905341h0Z"/>
            </g>
            <g class="cls-17">
              <path class="cls-12" d="M85.546175687150026,66.995197705153259c-.923487431620742-.500659170332256-1.974750776360452-1.216432005383467-2.866464818129316-1.772631701254795-.312124049060003-.202954236245205-.629751002181365-.39170545694833-.963002955310003-.59727186319833.39599609375-.002685546875.776611328128638.108795166015625,1.140747070319776.242828369140625,1.070191125269048.436968438428266,2.023613425990334,1.179264942294139,2.688720703119543,2.1270751953125h0Z"/>
            </g>
            <g class="cls-17">
              <path class="cls-12" d="M58.039705960589345,71.848499707106384c1.049989617280517.030457301175375,2.311108618559956.195441205215502,3.357791217529666.289840516174081.369991985591696.040420714294669.738644329341696.065689268983078,1.128781048091696.098922911560294-.352294921871362.18096923828125-.7421875.253021240234375-1.127685546871362.297576904297784-1.152142399649165.092467168543408-2.338017271658828-.140243717371959-3.35888671875-.686340332032159h0Z"/>
            </g>
            <g class="cls-17">
              <path class="cls-12" d="M58.698641507460707,74.212513378981384c.978597776069364-.381938516615264,2.203961305549456-.722475618240424,3.204464632019153-1.044235391747861.356448453920166-.107314901219979.705691617980847-.228011922705264,1.077761930480847-.349716024267764-.253540039060681.30413818359375-.58447265625.522705078125-.921875.71429443359375-1.024727333260671.53498978366224-2.207230707101189.783818379351032-3.3603515625.679656982421875h0Z"/>
            </g>
            <path class="cls-11" d="M63.450658152649339,72.470700696278072c.279099855601089.340797391698288,5.046489549220496,5.957030614921678,12.461076175590279,4.978466778953589,6.859409735530789-.905288294183265,10.049182758421011-6.671442490573099,10.348547466881428-7.235591806853336-.863187916280367-.7147269260131-5.24690745271073-4.194088342486793-11.624247414310958-3.664023009132507-6.700552863811026.556939378039715-10.533598243720917,5.118759344863065-11.185376228160749,5.921148037032253Z"/>
            <g class="cls-18">
              <circle class="cls-1" cx="75.368426597789949" cy="70.756365924083184" r="5.689869061654804"/>
            </g>
            <path class="cls-4" d="M86.180941312150026,70.306629589918884c-6.968804050220569-5.225985424790451-16.744658800349498-4.26301118929041-22.335901187769196,2.471683955322078-.000036312230804-.000248408447078-.788732601291485-.614933467040828-.788732601291485-.614933467040828,3.852893074890744-5.495101228848398,11.4940697245911-7.899418613524176,17.760283749190421-5.44504778805458,2.060517032059579.75394671383583,3.956757266430941,1.908701352507705,5.52304144612026,3.40226214352333l-.15869140625.18603515625h0Z"/>
          </g>
          <g class="cls-17">
            <path class="cls-12" d="M93.237826077780483,68.281452587965759c1.114712366819731,4.178452659818504.686580619829328,8.814315847225771-1.197661842159505,12.709055321444794.54201080329949-4.309705847163059.927030262979315-8.373874631015497,1.197661842159505-12.709055321444794h0Z"/>
          </g>
          <g class="cls-17">
            <path class="cls-12" d="M108.904452054339345,94.978321484450134c5.572234018700328,3.253714589532137,6.899977548160678,11.657896772820095,2.741754404120002,16.592669835237757.640569814629998-1.407428136019007,1.070623525571136-2.868426671175257,1.319402822440679-4.338092198519007.785084011609797-4.505432635444777-.836191835869613-8.948229425295722-4.061157226560681-12.25457763671875h0Z"/>
          </g>
          <g class="cls-17">
            <path class="cls-12" d="M102.302401273089345,133.162952832106384c-2.244832654798302,3.27167959077633-7.509537616409943,3.674206594645511-10.30615713736006.903920050575834,3.337753947671445,1.909083834083503,7.375699097650795,1.623271621932872,10.30615713736006-.903920050575834h0Z"/>
          </g>
          <g class="cls-17">
            <path class="cls-12" d="M80.906649319960707,97.616810253981384c-3.225264825630802,3.305832174472926-4.847397787991213,7.748681347592537-4.062451583469738,12.254105537160285.248486739719738,1.469710380808465.678296310039514,2.930708915964715,1.318555099098376,4.338179619089715-4.158020476888851-4.934972160632242-2.828086198120218-13.339983843568007,2.743896484371362-16.59228515625h0Z"/>
          </g>
          <g class="cls-16">
            <path class="cls-12" d="M76.011629788710707,101.229664257887634c-2.665446233790135,3.388353243070014-2.896176364060011,7.737527873448926-.812749701250141,11.481511448821038-3.237097120960243-2.991968722677484-2.875495467620567-9.004668231567848.812749701250141-11.481511448821038h0Z"/>
          </g>
          <g class="cls-16">
            <path class="cls-12" d="M114.040560452780483,97.046741894606384c3.688349162010127,2.477498207796998,4.048562790119831,8.490126172124292.811373760139759,11.481569822322854,2.083979894579898-3.743722510734187,1.853598894529568-8.093112492992077-.811373760139759-11.481569822322854h0Z"/>
          </g>
          <path class="cls-5" d="M136.473515966490595,78.418769836425781c-.081298828121362-7.290771484375-1.072265625-12.99945068359375-1.981201171871362-16.909912109375-.437255859378638-1.881210327148438-1.388427734378638-4.631744384765625-2.395385742189319-9.04937744140625-.797607421869543-3.498947143554688-1.305908203119543-6.404281616210938-1.614379882810681-8.342872619627997-4.866943359378638-1.407279968262628-10.678588867189319-3.500778198243097-16.939086914058862-6.677017211914972-6.517578125-3.30670166015625-11.8115234375-6.919303894042969-15.9140625-10.132087707519531,2.553100585930224-6.27618408203125,5.106323242180224-12.5523681640625,7.659423828119543-18.82855224609375,3.12158203125-.73309326171875,11.281616210939319-2.22174072265625,19.479248046880457,1.90264892578125,3.794921875,1.9093017578125,7.601928710930224,5.01318359375,10.8623046875,9.95001220703125,9.626831054680224,14.57647705078125,10.286865234369543,38.77020263671875.843139648430224,58.087158203125Z"/>
          <path class="cls-5" d="M117.157475927429914,8.769828796386719c-.999755859369543,2.799827575683594-7.502685546869543,20.098800659179688-26.148681640619543,27.605125427246094-13.956420898441138,5.618423461914062-26.432861328130457,2.416130065917969-30.342041015630457,1.242073059082031-1.984008789060681,3.231369018554688-3.968139648439319,6.462738037109375-5.9521484375,9.694107055664062-.500122070310681,5.52227783203125-1.000244140619543,11.0445556640625-1.500366210939319,16.56683349609375-.177490234371362,5.204879760742188-.354858398430224,10.409744262695312-.532348632810681,15.6146240234375-2.367431640619543-4.35821533203125-5.205444335939319-10.812576293945312-6.566162109369543-19.04193115234375-.663330078130457-4.011856079101562-.752075195319776-7.0936279296875-.797485351569776-8.904678344726562-.159301757810681-6.355453491210938-.333740234371362-13.3165283203125,2.927734375-20.760345458984375,1.897094726569776-4.329780578613281,4.305786132819776-7.337394714355469,6.74267578125-10.380172729492188.526123046878638-.656906127929688,4.012573242189319-4.979461669921875,7.6298828125-7.984748840332031,8.553344726569776-7.106300354003906,19.25927734375-7.955085754394531,25.018920898439319-8.517066955566406,13.664184570310681-1.333244323730469,24.38818359375,2.583045959472656,29.52001953125,4.866180419921875Z"/>
          <ellipse class="cls-9" cx="121.899413445847131" cy="86.114578264571264" rx="14.831661226057802" ry="11.907359779824674"/>
          <ellipse class="cls-6" cx="66.075033785537926" cy="86.114578264571264" rx="14.831661226057802" ry="11.907359779824674"/>
          <g class="cls-16">
            <path class="cls-12" d="M125.598543851210707,99.251026562575134c.859021688060238-3.096756072385688,1.671738317958443-6.164441131420062,2.320780315469165-9.307195051829694.525534400969264-3.057050064827308,1.840328491649416-6.902830244463985,5.300601222310434-7.613289748634998-3.122900774749723,1.383908576221074-3.895240489329808,4.712469500488623-4.493310494999605,7.79157603072963-.684334815261536,3.141930550318648-1.688506951541058,6.24586524433289-3.128071042779993,9.128908769735062h0Z"/>
          </g>
          <g class="cls-16">
            <path class="cls-12" d="M63.648470609030483,99.251026562575134c-1.439536807731201-2.88297327404689-2.443918884780942-5.986962922212115-3.127929960850452-9.128996557627943-.597646180700394-3.077810991623664-1.371593067829963-6.409166936217844-4.493434010079-7.791498587772367,3.461457709729075.712686843341544,4.773938876198372,4.554716579981687,5.300272418407985,7.613408981636894.649356334650292,3.142649685735705,1.46199824192081,6.210291208234594,2.321091552521466,9.307086163763415h0Z"/>
          </g>
          <path class="cls-5" d="M115.650517919619233,10.224906921386719c.191528320310681-1.002334594726562.455688476560681-3.112823486328125-.332641601558862-5.589317321777344-.759521484380457-2.385971069335938-2.11669921875-3.9205322265625-2.838989257819776-4.635589599609375-.043212890621362,1.420455932617188-.0947265625,2.854850769042969-.1552734375,4.302886962891534-.059326171871362,1.418571472167059-.1259765625,2.823379516600653-.19970703125,4.214172363280341l3.526611328128638,1.707847595214844Z"/>
          <path class="cls-5" d="M114.540750514719548,8.520886647816951c.499635888600096-.590991319255409,1.611897276659874-1.764177507920976,3.392644281781031-2.578793187210977,1.715658791268652-.784835582082451,3.195266279630232-.845084448574198,3.923640883649568-.827160839922726-.806879460929849.720740921780816-1.618265967090338,1.452585169023223-2.433669420590377,2.195761195947853-.798806681588758.728059626064351-1.586442246280058,1.453097911809891-2.362866081009997,2.17486609579646l-2.519749663830225-.96467326461061Z"/>
          <path class="cls-5" d="M99.117207275499823,16.549993469870969c-3.540458627228873.551561378662882-5.12060234754972,1.539071593961125-6.047163741059194,2.774301438508701-1.011067336241467,1.347883906542847-1.534956075431182,3.393798321580107-1.863537448851275,4.61442607072604-.229112114719101.851180037050653-.401491738090044,1.745408209917514-.518972668209244,2.735901441163151-.197543960499388,1.665381064740359.010222372100543,4.077794644617825,1.929451780830277,7.205505102778261.781629799548682-2.727634992457752,1.563101826030106-5.455128127097851,2.344663758920433-8.182666215724566.245322673228657,2.234817977247985.955248787018718,5.899455933881654,3.263873658639568,9.732319275723967,1.344540113070252,2.232142363543971,2.853889995059944,3.894624256015959,4.107768791469425,5.066675307418336-.700843265220101-3.9427417336301-1.401701223599957-7.885518100487388-2.102454582400242-11.828304788101377.353142090820256,1.718085500499001,1.753939783440728,7.446573360968614,7.109601322879826,11.807325645593664,4.275964885409849,3.481618058653112,8.79594640437972,4.237342991487822,10.685522722091264,4.444391021839692-2.005363900550947-2.421667278689711-4.010817707510796-4.843289603395533-6.016208545521295-7.265020376336906.995101911539678,1.25230421820379,2.75551847503084,3.149522431966034,5.468357358251524,4.715778816098464,2.531831782969675,1.461722705685133,4.88404382923909,2.05233602786393,6.4174688508283,2.313559002975126-.801720483999816-2.094203499503237-1.603528425548575-4.188356272811689-2.405266051579019-6.282600177747554,1.524504083159627.429510234491318,3.380989982069877.810038767231163,5.510158896959183.955318691383582,4.02514066546064.274671763760125,7.371790296760082-.404149315701034,9.645470030831348-1.076479874813231-1.748029652080731-2.895509687285085-9.941405078059688-15.958393944405543-22.903993922631344-20.489787515190983-.365823303798607-.127883656998165-7.116529290049584-2.410318454071785-14.624740211449534-1.240642866294365Z"/>
          <g>
            <path class="cls-11" d="M108.377291356460773,110.248136973692453c-3.040161132821595-.19976806640625-6.19775390625-.334930419921875-9.465698242191138-.388702392578125-6.333618164058862-.104217529296875-12.294799804689319.110198974609375-17.832641601558862.532318115234375,2.852661132808862-5.414581298828125,8.537231445308862-8.69830322265625,14.505615234369543-8.384002685546875,8.44873046875.444915771484375,12.57958984375,7.8426513671875,12.792724609380457,8.240386962890625Z"/>
            <path class="cls-7" d="M108.621737210589345,110.391590527418884c-9.050146933988799-.120597935948354-18.510810942929311-.343690731684546-27.505491107429407.48766693118705-.000002056629455-.00011810306205-.876222759759912.07129302975045-.876222759759912.07129302975045,5.610415240349539-11.859790413568589,21.405622498750745-12.578609431997393,28.122483396500684-1.309798848091305.120212491960046.200289666776371.324994085629442.48610673537496.259230470688635.750838887153805h0ZM108.116976468400026,110.102100781325134c-.145368697829326.062105068015626-.03419520584066.208664517983379-.122189355670344.067261008456626-.080419652409546-.128946102139707-.325134746859476-.513763062383987-.41774701346003-.644839242396301-6.555449708450396-9.825898247949226-20.425894021969725-9.319882966906334-26.065564206099225,1.095152286682605.000031825229598-.00017903321168-.469572666959721-.71532795899293-.469572666959721-.71532795899293,8.882593461388751-.665094334543937,18.216252326228641-.655338479082275,27.075073242189319.19775390625h0Z"/>
          </g>
          <path class="cls-5" d="M103.053377835589345,54.702228955153259c6.583419714090269,3.478982545251711,14.260063623940368,4.739395249018344,21.723149314480906,3.71736159707325-.000004783230906.00004562948925.755732521460232-.0987702884795.755732521460232-.0987702884795l.359008789058862.407379150391534c1.605590820310681,1.822418212889716,3.223510742191138,3.6318359375,4.8056640625,5.478790283202216l-.782836914058862.82379150390625c-1.925048828130457-1.48638916015625-3.814208984380457-3.01031494140625-5.7158203125-4.521240234375l1.114379882808862.3084716796875c-7.932761554538956,2.490893350623082-16.74629115164862,2.376525950933683-24.687374577568335-.40158515343137-.000003352120984.000004342885404,2.428097233818335-5.71419853797488,2.428097233818335-5.71419853797488h0Z"/>
          <path class="cls-5" d="M88.800814359030483,59.868549755934509c-7.830724333251055,4.635316547689399-17.674757132810555,5.364149512896802-26.072640473221327,2.367288180626019.000008637280189.000051907264606,1.009652191971327-.255868502891644,1.009652191971327-.255868502891644-1.49169921875,1.157684326171875-2.985107421880457,2.3134765625-4.497314453130457,3.448974609375l-.771606445310681-.834320068359375c1.357180959939797-1.541363388895661,2.738144280299821-3.05989832737032,4.118286119941331-4.577575579583936,4.206028293509007.726507332591609,8.556465024879799.724397406387652,12.549927086249227-.276686917830375,3.785400075059442-.925980422506655,7.264892262559442-2.664780471335689,10.197021168809442-5.022568557273189l3.466674804691138,5.1507568359375h0Z"/>
        </g>
      </g>
    </g>
  </g>
</svg>