<?xml version="1.0" encoding="UTF-8"?>
<svg xmlns="http://www.w3.org/2000/svg" width="177.469585206337797" height="231.454669267786812" xmlns:xlink="http://www.w3.org/1999/xlink" viewBox="0 0 177.469585206337797 231.454669267786812">
  <defs>
    <style>
      .cls-1 {
        fill: #27201d;
      }

      .cls-1, .cls-2, .cls-3, .cls-4, .cls-5, .cls-6, .cls-7, .cls-8, .cls-9, .cls-10 {
        stroke-width: 0px;
      }

      .cls-2 {
        fill: #3657a6;
      }

      .cls-11, .cls-6, .cls-8, .cls-12, .cls-9, .cls-13 {
        mix-blend-mode: multiply;
      }

      .cls-3 {
        fill: #79c4e0;
      }

      .cls-14 {
        stroke: #27201d;
        stroke-width: 1.85461063707757px;
      }

      .cls-14, .cls-12 {
        fill: none;
        stroke-miterlimit: 10;
      }

      .cls-4 {
        fill: #5e5a5b;
      }

      .cls-5 {
        fill: #dc5b42;
      }

      .cls-6 {
        fill: url(#radial-gradient-2);
      }

      .cls-6, .cls-9 {
        opacity: .4;
      }

      .cls-7 {
        fill: #e9e9de;
      }

      .cls-15, .cls-13 {
        opacity: .6;
      }

      .cls-8, .cls-10 {
        fill: #f1b068;
      }

      .cls-12 {
        stroke: #f1b068;
        stroke-width: .618203545692524px;
      }

      .cls-16 {
        isolation: isolate;
      }

      .cls-9 {
        fill: url(#radial-gradient);
      }
    </style>
    <radialGradient id="radial-gradient" cx="-19.445596595308416" cy="104.811398577081491" fx="-19.445596595308416" fy="104.811398577081491" r="17.129250662059285" gradientTransform="translate(129.573663641121357 37.157990254684023) scale(.853091239733539 .645477583935139)" gradientUnits="userSpaceOnUse">
      <stop offset=".537641841231661" stop-color="#e984a2"/>
      <stop offset=".592832570610897" stop-color="rgba(233, 132, 162, .886871293855677)" stop-opacity=".886871293855677"/>
      <stop offset=".711273432585101" stop-color="rgba(233, 132, 162, .596518194573597)" stop-opacity=".596518194573597"/>
      <stop offset=".8824215114979" stop-color="rgba(233, 132, 162, .136328760171738)" stop-opacity=".136328760171738"/>
      <stop offset=".931113028771807" stop-color="#e984a2" stop-opacity="0"/>
    </radialGradient>
    <radialGradient id="radial-gradient-2" cx="-84.883356427125364" fx="-84.883356427125364" r="17.129250662058066" xlink:href="#radial-gradient"/>
  </defs>
  <g class="cls-16">
    <g id="Layer_2" data-name="Layer 2">
      <g id="Layer_1-2" data-name="Layer 1">
        <g>
          <path class="cls-4" d="M116.325663178076866,18.921390689307373c0,3.559342460927837-.947859378638896,6.570993265702782-2.763650994722411,9.419104936199801-1.820436766378407,2.855397697512672-4.099054833972332,5.197335059562647-7.198780737353445,6.826134872680996-2.92732416110448,1.538208601394217-6.120697135726004,2.518499267616789-9.715116688814305,2.518499267616789-3.594498008808841,0-6.903728339092595-.759971686908102-9.831096810449708-2.298242728311379-3.099712926495158-1.628834455978904-5.111802361762784-4.287240335321258-6.932207795975046-7.142667614656602-1.815713735829377-2.84806803765423-2.864696078023371-5.763568765953096-2.864696078023371-9.322828735696021,0-3.559342460927837.297334988814328-6.954141320328745,2.113126604894205-9.802252990826673,1.820436766376588-2.855397697513581,4.631257594543058-4.945068852663098,7.730983497924171-6.573868665781447,2.92732416110357-1.538208601395127,6.18947104988456-2.545269030532836,9.78389060297377-2.545269030532836,3.594498008808841,0,6.68443939716235,1.334935749890064,9.611807868521282,2.873206791294251,3.099712926496068,1.628834455977994,6.462768138466345,3.148456127461941,8.283173572677697,6.003883406797286,1.815713735832105,2.848068037655139,1.782566958347161,6.485040521472001,1.782566958347161,10.044300491215836Z"/>
          <path class="cls-3" d="M60.496452741790563,149.502702103349293c23.453550167170761-8.445511803496629,47.271441980479722-2.158807264171628,55.450262943570124,0,3.579422734090258.944737586607516,6.02205123504973,1.779599150686408,7.99031113871024,2.575973921153491,3.325258967679474,1.345377561636269,4.485296205590203,2.155034049112146,7.906092978579181,3.569536910639727,3.219608946023072,1.331341201610485,5.707516027679958,2.060024493912351,8.123581094610927,2.759729494555359,24.678939489913319,7.147374894408131,27.672004603753521,7.933712912818009,30.44245002907337,10.21439502341309,4.426584979270046,3.6440956402148,8.721711145859445,11.462951886616793,6.417031387480165,30.290842247974069C117.884337082739876,209.760342889989261,58.942491851670638,220.607506078886217.000646620599582,231.454669267786812c-.082407016897378-48.354430166873499,7.72588422734043-61.683085971839319,15.356985292370155-64.280265361630882,3.312279107880386-1.127285731188749,17.752071283581245-6.256896140352183,27.862174642750688-9.679051270763011,2.454853717739752-.830937420414557,3.688393185009772-3.099620707118447,17.276646186070138-7.992650532043626Z"/>
          <path class="cls-2" d="M60.085172300299746,150.473550338170753c3.226702590331115-.996657025829336,6.090874677731335-1.700286170136678,8.452303590611336-2.205142345104832,8.316769705659681-1.778089864663343,23.523430110059053-4.937402834024397,40.309407409789856-.035392757257796,2.943409603660257.85953839056674,5.328836164309905,1.789107652635721,6.976221859309589,2.487378831556271-.068672514089485.438749447126611-.137194099559565.877574358550191-.20586661364905,1.316323805676802-3.698052615571214,11.772581914407056-14.294297003001702,19.997511565517925-26.32632518490027,20.540024426780292-12.94333508309137.583565441109386-24.94004597203002-7.840665429448563-28.958972796261151-20.540024426780292-.082256088298891-.521080999722471-.164512176599601-1.042086535144335-.246768264900311-1.563167534870445Z"/>
          <path class="cls-10" d="M47.004124917320951,111.568227617011871c-8.210815876080233,1.660833800822729-16.333968609369549-3.728995309698803-17.994802410190459-11.939811185777216-1.6608338008391-8.210815876074776,3.72898357566919-16.334026619930228,11.939799451740328-17.994860420763871,2.018334319480346,9.978223868845816,4.036668638960691,19.956447737695271,6.055002958450132,29.934671606541087Z"/>
          <path class="cls-10" d="M124.705281001919502,109.716675083942391c8.3086101250301,1.069039164616697,16.025250363052692-4.888203739603341,17.094289527671208-13.196813864637079,1.069039164609421-8.308610125026462-4.888209139429819-16.025325633912871-13.196819264459918-17.09436479852593-1.299208734919375,10.097038063981017-2.598261528290095,20.19414059918563-3.897470263211289,30.291178663163009Z"/>
          <path class="cls-12" d="M139.194244571979652,91.7647896253402c-.258481563778332-.848988760793873-.800217923349919-2.155445274929662-1.854395723008565-2.501367162964016-2.267196842680278-.743998099074815-5.62343227771089,3.375075642987213-6.494931121980699,7.576326431186317-.33796957442064,1.629451079941646-.602054114040584,4.716494965538004.656807063569431,5.739169920558197,1.243645944450691,1.010323358466849,3.47706618292068-.397539968384081,4.319720891910038-2.816707637168292.620812859860962-1.782315706946974.581969169461445-4.387354812231933-.387879075798992-4.784026045901555-.5941261622811-.242983093656221-1.502471036870702.357048806457897-2.071845580670924,1.494252526295895-.660620463049781,1.319268679781089-.510582705408524,2.653637425020861-.494149235450095,2.785280933443573"/>
          <path class="cls-12" d="M31.817911325169916,94.286526257987134c.271549342080107-.84489975120232.833377764220131-2.142842635414127,1.892767114070011-2.472459066065312,2.278405695102265-.708930309291645,5.570690908560209,3.461434526200719,6.377267416020914,7.675631099517886.312789513300231,1.634471466721152.529214451040389,4.725222320794273-.7452751360197,5.72835332948307-1.259085599431273.991015629089816-3.470518916888977-.451138243144669-4.275749425751201-2.883018790344067-.593240675660127-1.791681720318593-.514210005288987-4.39581146468845.461642809030309-4.777472271209263.597804288490806-.233787752418721,1.496783511051945.380187043272599,2.04854504334071,1.526039949632832.640187618710115,1.329303975209768.469580535329442,2.661199053694872.451117971750136,2.792573350994644"/>
          <path class="cls-10" d="M68.668686517030437,132.73068569933821c3.25251138134081,3.970780600069702,3.75555641308074,9.430547326941451,1.316248341380742,13.601987503876444-3.070793344068989,5.251485255583248-9.177968310860706,5.678839593227167-9.652940622549977,5.704044669826544,4.097409697458716,12.852400600146211,16.282781339379653,21.298968903858622,29.287997149440343,20.567493432416086,11.881099579519287-.668236387049546,22.312831790368364-8.876563891899423,25.997300831708344-20.567493432416086-.619712841378714-.149947566467745-7.437459668179145-1.926301752202562-10.091690069670221-8.775441728299484-2.424818925868749-6.256971604656428.583339048211201-11.694099041167647.987223988180631-12.395388792137965-12.614763515699451.621599448910274-25.229376102790411,1.243198897820548-37.844139618489862,1.86479834673446Z"/>
          <path class="cls-8" d="M106.512826135520299,130.86588735260375c-12.614763515699451.621599448910274-25.229376102790411,1.243198897820548-37.844139618489862,1.86479834673446,2.841230939842717,3.468792068546463,3.582894091949129,8.073321870018844,2.099265930530237,11.963204739211506.086180231960498.86202871250498.314686135969168,2.091794964715518.972131127949979,3.393856017464714,2.00870876909903,3.97870435169898,6.344887515539085,5.311328446430707,8.336692281169235,5.923419393388031,6.508041334722293,2.000030374467315,16.487742381430508-2.214499918449292,25.330800123600056-11.123966245668271-2.025461843968515-6.113891289594903.676160138671548-11.243199841548631,1.105250155240356-12.021312251130439Z"/>
          <path class="cls-10" d="M133.552235296021536,64.336936744086415c-3.686280184570933-20.314989880629582-20.696990173251834-46.926494659732271-47.222993899111316-47.222993899114954-26.482989074180296-.295970989271154-44.634417439659046,25.836939191682177-48.045705710699622,44.754858464362769-1.782466794129505,9.88499334871085.050862939000581,20.066787794010452,1.730094569109497,29.392817063802795,2.547674808211013,14.148952758911037,6.585316779130153,21.180414486687368,8.448983161350043,24.539707854204607,1.936112111350667,3.489846608579683,4.476542346650604,6.594674352483707,7.193559046731025,9.501559234362503,5.324459234841015,5.696875561214256,10.880895731528653,10.91153423781725,17.663476193978568,14.889785803705308,2.983405683291494,1.768883219916461,6.347000515982472,3.286847638373729,9.76055271605037,3.966856456409005,10.029054699692097,1.997841909731505,19.229209515089678-4.005569642922637,26.061747344931064-10.734268594318564,6.645990077298848-6.54509430660255,13.715485812868792-13.956594255178061,17.445686220738935-22.60993474415227,1.925547109200124-4.466807451797649,3.92655851956988-12.204313181518955,4.954080444589636-18.817023501986114,1.98667319316155-6.253726639701199,4.098466197690868-16.154416563062114,2.010519912331802-27.661364137275086Z"/>
          <path class="cls-4" d="M135.010970767420076,81.861361326769838c-4.753208080779586-2.442082805104292-14.165140378659999-8.251761168667144-22.817883210349464-21.113035637557005-9.248039713580511-13.745901832379786-12.707506853359519-28.231657011424431-14.011653504379865-35.05205813950397.938168231150485-.455098777507374,15.733074665959066-7.241820837039995,27.933752054150318,5.995786535266234,10.383408399669861,11.265977491118974,14.355957807731102,32.118408077250933,8.895784660579011,50.169307241794741Z"/>
          <path class="cls-4" d="M106.000175720830157,38.07590282784804c-3.407134820059582,4.683196693131322-6.932990301169411,9.879166651448031-7.44390626475797,15.765050616122608-.107655426822021,1.466618846443453.129604336118064,2.846709986624774.613330506748753,4.294379408522218,1.041076929299379,2.965977898635174.068683852048707,6.463779420406354-2.483102577840327,8.331165972438612-1.183255031221051.959055486437137-2.539197595020596,1.656307897294027-3.930910237590069,2.218479209015641,2.621668424520976-1.216752625772642,5.373410363139556-3.125549998600036,6.081669144410625-6.066238048846571.35453017556938-1.414689056822681.123005699520036-2.89141223468323-.356947256050262-4.269352642280865-1.867438505860264-4.337349728699337-.44808115079104-9.370211726636626,1.421781215949522-13.439208538686216,1.268219264300569-2.791653361480712,2.835763728640813-5.420452293470589,4.52872986156035-7.948129061864165l1.569355607569378,1.113853085578739h0Z"/>
          <ellipse class="cls-9" cx="112.984795534270233" cy="104.8113985770824" rx="14.831661226060532" ry="11.907359779824219"/>
          <ellipse class="cls-6" cx="57.160415873960574" cy="104.8113985770824" rx="14.831661226060078" ry="11.907359779824219"/>
          <path class="cls-1" d="M53.057665076325065,87.478703017030057c6.776374532066257,5.425124702434005,12.276271660290149,6.825955460212754,20.626013221588437,4.279707083638641-.000036659089346.000291695658234.958764610442813,1.546983590189484.958764610442813,1.546983590189484-6.74328652568056,7.349250904665496-19.157717945853619,3.559160711336517-21.58477783203125-5.826690673828125h0Z"/>
          <path class="cls-4" d="M93.48532693991001,79.419880054010719c8.615080753071197,5.544008586883137,20.348738278849851,6.287392769128928,29.296457742981147,1.310801834399172-2.377134079320967.780351683752087-4.799538147550265,1.344220942250104-7.241562934090325,1.592423028869234-7.25273681653016.83450753512443-14.609591324500798-1.126711687658826-20.735767497541019-4.994833163509611-.000011326528693.00003972842751-1.319127311349803,2.091608300241205-1.319127311349803,2.091608300241205h0Z"/>
          <path class="cls-4" d="M74.981480287869999,77.328311482197023c-8.223417549627811,5.308903161578201-18.698678045058841,6.660531536472263-27.977346865249274,3.402285264033708,8.9486855565101,4.976679117196909,20.68068161948031,4.233303247707227,29.296450847140477-1.310804840471974.000012002929907.000088148251962-1.319103981891203-2.091480423561734-1.319103981891203-2.091480423561734h0Z"/>
          <g class="cls-11">
            <path class="cls-10" d="M92.224168982575065,107.309116835389432c-2.000539470187505,4.490972866336051-9.458555159728348,5.189680194572247-11.789951476849637.708251311802087,4.151223794245197.975795888190078,7.779356873552388.685983846671661,11.789951476849637-.708251311802087h0Z"/>
          </g>
          <path class="cls-1" d="M117.535692420075065,85.971561903748807c-1.938358245253767,9.501294004099691-14.396600630549074,13.790183882847487-21.216428774883752,6.469832275604858.000059145977502.000168945098267.657651919415002-1.161452148651733.657651919415002-1.161452148651733,8.599547476383123,1.969369342718892,13.875257939569565.357197265902869,20.55877685546875-5.308380126953125h0Z"/>
          <path class="cls-4" d="M40.828299640630576,81.60473052290763c1.055741661739376,6.55686119641905,1.621373663021586,13.531055807681696.872506472990608,20.117020203313587.000162705980983-.000010916861356-.187743403980676-.00219938158989-.187743403980676-.00219938158989-.42659303831897-6.505602832482509-2.129882051360255-12.998510449811874-4.275218020260581-19.126574154619448.000165357791047-.000041643008444,3.590454951250649-.988246667104249,3.590454951250649-.988246667104249h0Z"/>
          <path class="cls-4" d="M130.799103449629911,76.215975703457843c-1.732033582309668,9.595548852986212-3.003313438110126,19.599192194748866-2.977972549939295,29.355935690770821-.000150632269651-.000020670318918-.229713036489557.015487243697862-.229713036489557.015487243697862-1.456765572780569-9.725794703364954-1.646497137080587-20.063183764788846-1.318338584011144-29.918506371192052-.000173686399648.000004985238775,4.526024170439996.547083436723369,4.526024170439996.547083436723369h0Z"/>
          <circle class="cls-7" cx="131.436113426730572" cy="109.018168985484408" r="3.483940031282373"/>
          <circle class="cls-7" cx="40.739316933395912" cy="109.855615515232785" r="3.483940031283282"/>
          <path class="cls-5" d="M97.810228552887565,125.044773573670682c-7.06220812275933-4.357768194353412-15.637055240802511-3.49504435986637-21.722439842271342,2.13140911010305-.000033302259908-.0002445593218-.996859474134908-.9184574499468-.996859474134908-.9184574499468,5.432123435002723-7.409976278285285,16.756518197098558-8.491146657387617,23.461746073423456-2.201802518062323-.000015116392206-.000223849125177-.742446757017206.988850857906073-.742446757017206.988850857906073h0Z"/>
          <path class="cls-4" d="M112.984795534270233,23.860074049945979c-3.784232847528983,8.551690075270017-12.584879652429663,25.339780375434202-30.769059524620388,39.654150882557587-19.434925200148427,15.298877780460316-39.246115406018362,19.630604133126326-48.539242240498425,21.061105426502763-.510893319060415-1.827594446243893-8.043287078140565-30.588171594667074,11.024126975198669-51.500989669333649,16.227390542309877-17.797953578701708,44.638492511920049-22.143867219994718,68.284174789920144-9.214266639726702Z"/>
          <g class="cls-13">
            <path class="cls-10" d="M74.919908728668815,95.727207655701932c-1.199526727031298,2.870519691521622-4.506349208507345,4.673218966094282-7.568824928604954,4.360328830448452,3.00328630567401-.450758694419164,5.590976206478445-2.108719591892623,7.568824928604954-4.360328830448452h0Z"/>
          </g>
          <g class="cls-13">
            <path class="cls-10" d="M74.919908728668815,97.757725233826932c-.87173087219162,2.088769444255377-3.270987059371691,3.387674542514105-5.496261513480931,3.166337886044857,2.176648130048306-.333848550028961,4.07259920600336-1.516160611425221,5.496261513480931-3.166337886044857h0Z"/>
          </g>
          <g class="cls-13">
            <path class="cls-10" d="M85.185167517731315,90.042667860780057c2.031987274394851,3.461409024939712,1.298863152371268,8.13140054501855-1.093330758241791,11.232577095155648,1.534586872448926-3.556401211169032,1.941781460374841-7.460168038102893,1.093330758241791-11.232577095155648h0Z"/>
          </g>
          <g class="cls-13">
            <path class="cls-10" d="M96.024889197418815,94.571079726014432c2.226937769500182,1.988785687424752,4.650555423670085,3.601756605058654,7.568900536762158,4.36019429836324-3.030835843149362-.025951992506634-6.061587193402374-1.711662092936422-7.568900536762158-4.36019429836324h0Z"/>
          </g>
          <g class="cls-13">
            <path class="cls-10" d="M116.895189490387565,85.288853163514432c1.556271178524185-.869468133118971,2.946182754283655-1.926872575127163,3.939663662200473-3.427528527039613-.596307584883107,1.708319817931624-2.158758195815608,3.078313928525859-3.939663662200473,3.427528527039613h0Z"/>
          </g>
          <g class="cls-13">
            <path class="cls-10" d="M117.606920447418815,86.209873671327841c1.761592371727602-.273452658543647,3.432601611242717-.781035199556754,4.886273333921054-1.842088596438771-1.15365466795447,1.39391665151561-3.095152376696205,2.134609797155463-4.886273333921054,1.842088596438771h0Z"/>
          </g>
          <g class="cls-13">
            <path class="cls-10" d="M52.768480506012565,86.867771620545682c-1.86042696815457-.121112449774955-3.514522558669341-1.634037872975568-3.939705300514106-3.427477863549939.844105312570719,1.604354146879814,2.273214908358568,2.762459773797673,3.939705300514106,3.427477863549939h0Z"/>
          </g>
          <g class="cls-13">
            <path class="cls-10" d="M52.056749548981315,87.788792128358182c-1.786242922842575.533959370596676-3.863550531145847-.308695202468698-4.886294723643005-1.842026659352996,1.349719610494503,1.210245328396923,3.092559727970183,1.798622180289385,4.886294723643005,1.842026659352996h0Z"/>
          </g>
          <g class="cls-13">
            <path class="cls-10" d="M96.024889197418815,96.454380507264432c1.329385168077351,1.187696059923837,2.782277262973366,2.15681774969471,4.5248665158324,2.606645265240331-1.809371462468334-.006650282596638-3.614031085207898-1.036939328156222-4.5248665158324-2.606645265240331h0Z"/>
          </g>
          <g class="cls-13">
            <path class="cls-10" d="M73.548570838043815,113.402744765076932c-3.408602922744649,4.411226136941877-5.58827850560192,9.701368191454094-5.580149291601629,15.325542250851868-.754563290296574-5.605091326728143,1.418552108181757-11.506201835148204,5.580149291601629-15.325542250851868h0Z"/>
          </g>
          <g class="cls-13">
            <path class="cls-10" d="M98.999254431793815,113.402744765076932c4.468047564864719,3.551240050650449,6.653029554170644,9.741154198181903,5.58027111598858,15.325490789078685.31353537142877-5.641520887244042-1.847002455779148-11.142742148446814-5.58027111598858-15.325490789078685h0Z"/>
          </g>
          <g class="cls-15">
            <path class="cls-3" d="M98.571886267731315,93.250462050233182c4.995394247695003,3.33971167263735,12.22940395173282,2.148668151034144,15.938320755853056-2.606374392854377.283053755865694-.349436154020623.795932173834444-.403391232145623,1.145480513678194-.120340695036248.32830810546875.265838623046875.3958740234375.734405517578125.1683349609375,1.079986572265625-1.94402591641483,2.914470210236686-2.951835745774588,6.336884395874222-2.96942075879997,9.486328386638888.058217278885422,3.369289466280861-.582964923853069,7.425438554083485-1.09250395232084,10.716420655371621-.757444984961694,5.367597867531913.903916491735799,10.641608592422017.730931136627987,16.036688506260361-.046691972382177,1.866702588447879-.307861405975927,3.723941357979129-.591308671600927,5.634036572822879-.107250925564585.824110284505878-.872366378169318,1.403923389259944-1.695130152947968,1.28063753033166-1.041911205404176-.133114966109133-1.612990134161009-1.379733760077215-1.047274842499974-2.256490089914223,1.821628628260441-2.942177225573687,2.265110073572941-6.530128885729937,1.725132046229191-10.001076151354937l-.6405029296875-5.34417724609375c-.519134992284307-3.529563304436124-.056759514940495-7.346231391748006.149513953463611-10.821043755795472.17378111670223-1.834387605755182-.596618666726499-3.497168195501217-.51578650807096-5.329831523715256.094299898357349-1.998355677520522.692688570232349-3.913394740020522,1.560547456951099-5.605777552520522.8480224609375-1.710693359375,1.94110107421875-3.22509765625,3.0302734375-4.70111083984375l1.28948974609375.99591064453125c-4.429147813523741,5.314220037317682-12.206707888452911,6.787941511801364-18.462495807180858,3.980959260227792-1.816007589410219-.810712091458299-.442964901404594-3.467155010615897,1.276399615774608-2.424745881321542h0Z"/>
          </g>
          <g class="cls-15">
            <path class="cls-3" d="M72.848802771637565,96.098240370545682c-5.791449322201515,2.424892836786057-12.360044193680551,1.620039614028428-16.934160896266803-2.711566747841061-.394269279514447-.305523095908939-.859662345920697-.687175927940189-1.132123283420697-.809551416221439-.081588085131443-.011616983567365.130329407545105.087551719814655.204651649100924.085074496182642.618751977069223.123407208027857,1.239072248692537-.539975223402507,1.102015255605693-1.165843891181794-.075381533711152-.169205179487108.393819873012944.513208593781201.378279359058979.472528584964493,1.035067665673523,1.354323586860119,1.87650825531091,2.994116885059157,1.997981799217087,4.763391146321737-.042892984592982,2.168321630465471-.922240681720723,4.122908523238038-.790178337318139,6.297503334785688.370163484823934,4.09122079226654.084928355528973,8.235420489537319.482742532738484,12.315605660809524.410507064208105,1.864475686366859.171547375281079,4.241756280946902,1.394202538989703,5.593076550247133.552448757294769.637870660839326.483173854951019,1.602775445995576-.154643527861481,2.155143610058076-.909051187812111.826442132050943-2.446085665351347.177825973147264-2.530674721719151-1.031862172949332-.414906593082378-1.754495791976296-.059758787133433-3.377965353732179.000814186137177-5.031919733321047-.153377131220623-2.584936654862759-.234163394951793-5.233108820337293-.308815673924983-7.799506661464875.007146769108658-2.055957638321161-.553690867463956-4.086978081749294-.761637679624982-6.120343066581881-.315044249900893-1.968708095037982.356753733006371-4.114061267446232-.21654921229856-6.022961173252042-.158113936857262-.762769393849339-.398928690871799-1.80727059219771-.684063195485578-2.535309433389557-.28524222760916-.844340749050389-.749159218003115-1.551384171073551-1.028727929628076-2.489324271551595-.272527370535499-1.031154214522758.813247867922655-1.969568626009277,1.769556199575163-1.485724859703623,1.149874781371182.730122373106497,1.623130540090642,1.726465456065853,2.590069748848691,2.519184906698683,3.566952126251635,3.377188329825913,9.440298459659061,3.236407375034105,13.344904951938588.577447659069549,1.692333676126509-1.070992838009261,3.132986225426066,1.622971716265965,1.276356236337961,2.424957478320721h0Z"/>
          </g>
          <g>
            <circle class="cls-14" cx="62.259526592340535" cy="91.903502838882559" r="18.855411200902154"/>
            <circle class="cls-14" cx="108.133555811400583" cy="91.903502838882559" r="18.855411200902381"/>
            <path class="cls-14" d="M80.916867493660902,90.790999906890647c.655935705952288-.397244081468671,2.573181742009183-1.438840098657238,5.100783046100332-1.151811629075382,1.514719453509315.172020874564623,2.64683489996969.752907332982431,3.288885174508323,1.151811629075382"/>
          </g>
          <g class="cls-15">
            <path class="cls-3" d="M59.563890662262565,124.689854140076932c.249014312987129.700696364090618.745437435007261,1.276792351784025,1.290318106258383,1.695344540963561,1.960292826871409,1.876676717478404-.782492603542778,4.841420695753186-2.80563947700648,3.030727961482626-.899533580231946-.834709439242943-.710357053523694-2.212807449348475-.652060216513746-3.282585503768132.078819575543093-.559514830709304.229637446636843-1.086980651021804.434715571636843-1.568181822896804.313150035457511-.798514948017328,1.531592865041603-.688885351519275,1.732666015625.12469482421875h0Z"/>
          </g>
        </g>
      </g>
    </g>
  </g>
</svg>