<?xml version="1.0" encoding="UTF-8"?>
<svg id="Layer_2" data-name="Layer 2" xmlns="http://www.w3.org/2000/svg" width="33.248442804038859" height="68.293239893945611" viewBox="0 0 33.248442804038859 68.293239893945611">
  <defs>
    <style>
      .cls-1 {
        fill: #3657a6;
      }

      .cls-1, .cls-2, .cls-3, .cls-4 {
        stroke-width: 0px;
      }

      .cls-2 {
        fill: #e29e72;
      }

      .cls-3 {
        fill: #e2b186;
      }

      .cls-4 {
        fill: #e2a678;
      }
    </style>
  </defs>
  <g id="Layer_1-2" data-name="Layer 1">
    <g>
      <path class="cls-4" d="M22.891199247980694,53.045514857133639c.834732671759411,5.742323299669806-2.081959049209217,11.682339339226019-7.431434397551129,15.247725036811971-1.768050149032206-.316665455182374-4.259535109648823-.976514673529891-6.937808926739308-2.45093502207601-1.891332829778548-1.041120327110548-3.357240844307853-2.20295636485389-4.432973198635409-3.196657630616755.596895241082166-3.230345183405007,1.659010512033092-5.716325859282733,2.471617007556233-7.384348968605991,1.440990626765597-2.957933346920981,3.635262706466165-6.139480743868262,6.991506974077311-8.726862280012938,1.406305994164541-1.084276178859,2.824051969143511-1.915475364599843,4.169060412410545-2.557533936325854,1.125494211724799.965521057858496,4.443044100997213,4.06835180723283,5.170032128881758,9.068612800825576Z"/>
      <path class="cls-1" d="M28.325089282083354,42.470831988087411c.095353365916708.351403893166207.093813260282332.717588878309471-.012688065201473,1.065776224710135-.932288292655358,3.047952551045455-2.338279734366552,6.706101972684337-4.500793697081463,10.612686427239169-1.137442579105482,2.054877536093045-2.322814443011339,3.886892996253664-3.484590819236473,5.502285732818564-.907732513700466,1.262157278615632-2.863069857503433.968377038005201-3.38509957990027-.496035568239677L2.346619254773941,18.212400631357923c-.21246079167031-.596001048046674-.120013332618328-1.258241714414908.247540598162232-1.773276611527763C6.311729720443509,11.229879732446534,10.029283745133398,6.020774064949364,13.746849239947551.811568037289362c.948137543274242-1.328569412526122,3.01410302325985-.958143529730478,3.44154078257543.617089293304161,3.712238163745496,13.680680461627162,7.42445773331292,27.361523616695195,11.136699259560373,41.042174657493888Z"/>
      <path class="cls-2" d="M8.049016401116205,24.919242095330446c-1.180450214549637,8.856378748199859-4.613456925956598,15.746761688764309-7.492814842215012,20.289848363738201.035642598886625-7.954944164648623.07125903351789-15.90965939997659.106901632404515-23.864603564627032,1.378307613252218-2.201792051293523,2.9832983777751-4.533294631495664,4.850789671955681-6.92640436763304,3.063172755985761-3.925349340035609,6.17169050839675-7.169934343549357,9.03317143959157-9.81146787806847.072907566831418-.022048889979487.179742484598137-.046713984064809.308946986299816-.04794969959039.899326381706487-.007610034896061,1.54360126548454,1.138884115794099,1.644767746770412,1.31905196718435.63454545080458,1.129147803231717.087691167048433,3.002017296353188-1.311391466721943,4.700720503788034-2.240679183026259,2.450183658242167-4.481410694561418,4.900825175122009-6.722089877587678,7.351008833364176.026962790557263,2.147410435614802-.085254461713703,4.490888570006064-.418281290497362,6.98979584184417Z"/>
      <path class="cls-4" d="M1.072845236097237,41.262885538680166c.563630087499405-6.53671123985805,1.127374639659138-13.073409397593423,1.691004727160362-19.610120637455111,2.210515911287985-1.563291561878941,4.6913452772651-3.160162746824426,7.449159445274745-4.710998415777794,4.523707668856332-2.543630295804178,8.817322292065001-4.414320173642409,12.631010667144437-5.804358241936825.078970808713166.008097868456389.191698853278467.027243348378761.316337645100248.078131574655345.867961641413785.354078711438888,1.026591346250825,1.715718843455761,1.051543820214647,1.929617513443191.156239108132468,1.340957984390116-1.122498139669915,2.922148916552942-3.150715632603351,3.993269088867237-3.139811976261626,1.45569111181976-6.279650116775883,2.911611152958358-9.419462093037509,4.367302264772661-3.522968247836616,6.585795260916711-7.045910331418781,13.171361592512767-10.568878579253578,19.757156853431297Z"/>
      <path class="cls-3" d="M17.590197108870598,40.41138687545299c-.985314261676649,1.649988421098897-1.548096305147737,3.196183778953127-1.880378586312872,4.388938564339696.040842139569577,1.212820733157059.139754527082005,3.104728701076965.415572171094027,5.43455395330966.154653713324478,1.3063433455427.266871307143447,1.922606096803065.498282242889218,3.609412198245991.354924213285813,2.587227789141252.641568007770729,4.676957982841486.707250033213313,6.002314192501217.093571881971002,1.888315561640411-.136078626594099,4.755927360292844-1.871158119324718,8.446634110096056-1.460039367094396-.258032679579628-3.318919778345844-.734181180188898-5.345796564420198-1.649784807796095-2.738215916567242-1.236956693461252-4.729559806430188-2.799862389254486-6.024985560954519-3.99780784489667C2.706084419921353,60.616791095036206.271627395762152,56.405670816145175.020974198539989,50.676638013840602c-.108958823401736-2.490316525769231.222350975869631-4.635305773474101.629310721966249-6.290901290001784,1.077299241990659-6.067168420608141,2.154545919836892-12.134342848759843,3.23184516182755-18.201511269369803.92693691239765-.985913966589578,2.082346628077175-2.072239623665155,3.493952535151038-3.141851880638569,1.92864511649077-1.461234325273836,3.783419303674236-2.472741925435912,5.324573426591087-3.174176217986314,2.596412349561433-.187412684626906,5.352553421907942-.305662315597147,8.253383740506251-.32473030566689,2.425364872675345-.015897970311926,4.748310440634668.038717741785149,6.959438298596979.146371766322773.06191431602565.068634027225926.143541552285569.174453526036814.204671619528199.317974970465002.434881917623898,1.020996092807763-.818127124251987,2.410559553487474-1.113527014495958,2.738264456107572-1.231679912302752,1.36601479618912-2.916735400833204,1.73213719035266-3.750757996273023,1.84683796823083-2.921679309813953.157693138258765-5.843487778075541.315584518020842-8.765167087890404.473277656277787-1.319705126078588,1.303129685464228-2.639539410600264,2.606457612433587-3.959244536677943,3.909587297897815-.215068187141696,2.220045326168474-.43005527614423,4.440312923994497-.645123463285927,6.660358250162972,1.736020625301535-.859576589549761,3.472041250603979-1.719153179099521,5.208061875906424-2.578729768645644,1.452265945164982-.530327756834595,3.221773127877896-1.050171480652352,5.268103585252902-1.399712226673728,2.654714558070737-.453393158546533,4.995604374429604-.486826864645991,6.846841888591371-.378982007532613,1.038516444376.345539865453247,2.100323221833605.716532893971817,3.183029404718582,1.115261862993066.922956393776985.340000653692186,1.821030391461136.685251619985138,2.693993721115476,1.03402278591966.068044591404941.122159393198672.146016077202148.301899117323046.161409003735571.524116453305396.072134978440772,1.048976839338138-1.335692906512122,1.884717607896164-1.761274426032287,2.137264253069588-1.850208951787863,1.098295566007437-4.014832593323263.619154222136785-4.817780946127641.3976667126135-2.267628414895626.29911432589688-4.535175731654817.598450923453129-6.802804146551352.897565249351828-.70982049266604.76215365171447-1.519435743681242,1.76381930399657-2.273712455822533,3.026774145409945Z"/>
    </g>
  </g>
</svg>