<?xml version="1.0" encoding="UTF-8"?>
<svg xmlns="http://www.w3.org/2000/svg" width="192.665140022942069" height="209.782845263885065" xmlns:xlink="http://www.w3.org/1999/xlink" viewBox="0 0 192.665140022942069 209.782845263885065">
  <defs>
    <style>
      .cls-1 {
        fill: #151c22;
      }

      .cls-1, .cls-2, .cls-3, .cls-4, .cls-5, .cls-6, .cls-7, .cls-8, .cls-9, .cls-10, .cls-11, .cls-12, .cls-13, .cls-14, .cls-15 {
        stroke-width: 0px;
      }

      .cls-16 {
        clip-path: url(#clippath);
      }

      .cls-2, .cls-17 {
        fill: none;
      }

      .cls-3 {
        fill: url(#linear-gradient);
      }

      .cls-4 {
        fill: #98623d;
      }

      .cls-5 {
        fill: #331b17;
      }

      .cls-6 {
        fill: #d6e03f;
      }

      .cls-7 {
        fill: url(#radial-gradient-2);
      }

      .cls-7, .cls-17, .cls-10, .cls-11, .cls-18 {
        mix-blend-mode: multiply;
      }

      .cls-7, .cls-11 {
        opacity: .2;
      }

      .cls-19 {
        clip-path: url(#clippath-1);
      }

      .cls-8 {
        fill: #7e4532;
      }

      .cls-17 {
        stroke: #f1b068;
        stroke-miterlimit: 10;
        stroke-width: .539575090489626px;
      }

      .cls-17, .cls-10, .cls-18 {
        opacity: .6;
      }

      .cls-9 {
        fill: #505050;
      }

      .cls-10, .cls-15 {
        fill: #f1b068;
      }

      .cls-11 {
        fill: url(#radial-gradient);
      }

      .cls-12 {
        fill: #3e3838;
      }

      .cls-20 {
        isolation: isolate;
      }

      .cls-13 {
        fill: #473f3f;
      }

      .cls-14 {
        fill: #fff;
      }
    </style>
    <clipPath id="clippath">
      <path class="cls-2" d="M126.842918152502534,69.47612952943291c-.22824178367955.376756260425282-4.155827937189315,6.609263550053583-11.634313815480709,6.686276464966795-6.918523841859496.071250721182878-10.889699229010148-5.187356717917282-11.26564195085848-5.703642249005497.753749699839318-.829330662389111,4.602897379048954-4.892213257804542,10.991247129779367-5.266942100744927,6.712121993470646-.39371118395502,11.150273079900217,3.581870940466615,11.908708636559822,4.28430788478363Z"/>
    </clipPath>
    <clipPath id="clippath-1">
      <path class="cls-2" d="M63.585486833511823,69.645818430813051c.234503588781081.372890947110136,4.265654739710953,6.538918883048609,11.744383591620135,6.490994143881835,6.918748693560701-.044332052792015,10.801525766009945-5.368543577493256,11.168791563430204-5.891037131306803-.767498360750324-.816623673330469-4.683978749550079-4.814639957014151-11.077696883528915-5.08260015320775-6.717762295931607-.281531325075775-11.0888826401806,3.767634666834056-11.835478271521424,4.482643140632717Z"/>
    </clipPath>
    <linearGradient id="linear-gradient" x1="94.216519091747614" y1="11.171873732539098" x2="94.216519091753852" y2="71.786024615888735" gradientUnits="userSpaceOnUse">
      <stop offset=".549802216772597" stop-color="#3e3838"/>
      <stop offset=".732187145549786" stop-color="rgba(83, 74, 74, .835460847706457)" stop-opacity=".835460847706457"/>
      <stop offset=".805427186426227" stop-color="#665b5b" stop-opacity=".68831440492205"/>
      <stop offset=".865472203636714" stop-color="rgba(113, 105, 105, .550907421016946)" stop-opacity=".550907421016946"/>
      <stop offset=".975901267791298" stop-color="rgba(145, 143, 143, .188765216232521)" stop-opacity=".188765216232521"/>
      <stop offset="1" stop-color="#999" stop-opacity=".100000001490116"/>
    </linearGradient>
    <radialGradient id="radial-gradient" cx="27.53311564008618" cy="84.777177415678125" fx="27.53311564008618" fy="84.777177415678125" r="17.129250662055853" gradientTransform="translate(98.933803205310141 30.055409764565582) scale(.853091239733539 .645477583935139)" gradientUnits="userSpaceOnUse">
      <stop offset=".537641841231661" stop-color="#e984a2"/>
      <stop offset=".592832570610897" stop-color="rgba(233, 132, 162, .886871293855677)" stop-opacity=".886871293855677"/>
      <stop offset=".711273432585101" stop-color="rgba(233, 132, 162, .596518194573597)" stop-opacity=".596518194573597"/>
      <stop offset=".8824215114979" stop-color="rgba(233, 132, 162, .136328760171738)" stop-opacity=".136328760171738"/>
      <stop offset=".931113028771807" stop-color="#e984a2" stop-opacity="0"/>
    </radialGradient>
    <radialGradient id="radial-gradient-2" cx="-37.904644191730767" fx="-37.904644191730767" xlink:href="#radial-gradient"/>
  </defs>
  <g class="cls-20">
    <g id="Layer_2" data-name="Layer 2">
      <g id="Layer_1-2" data-name="Layer 1">
        <g>
          <path class="cls-6" d="M123.63880628525294,128.94824004142265c-21.922177262211335-4.553557561066555-40.236742857619902-1.999686473354814-53.735504121430495,0-8.248121656810326,1.221868109885691-13.579497581340547,2.534930230610371-20.736655121359945,4.297673163386207-26.876271789869861,6.619354207472497-35.935559419549463,6.332901167821547-42.565444451060102,14.230726664321992-3.883241359530075,4.625883845525095-4.522696396210449,10.139794053175137-5.801606469569379,21.167614468475222-1.828121798600478,15.764058520922845-.283308418591332,29.795284574538528,2.232242170579411,41.138590926278994,55.489251975359366-9.850562046070991,134.144049755190281-19.701197222871997,189.633301730529638-29.551759268942988-.441928955469848-11.718101304046286-2.197797600339982-19.55742222263143-4.545513181599745-24.817349431381444-2.251329289139903-5.04397218548911-6.128647060158983-7.639381523527845-8.096156015650195-9.340255865150539-2.806537733618825-2.426184846401156-20.88818197818-7.814602734408254-37.736915373769079-11.764539312771376-8.198392765571043-1.921948515438999-12.354046066049705-4.053416550559632-18.64774916667011-5.360701344216068Z"/>
          <path class="cls-9" d="M69.933285719913329,129.889066785118303c3.126923428450027-.965837450756226,5.902526866490007-1.647708306431014,8.190933431889789-2.136952839300648,8.059590654449494-1.723106081233709,22.795943133460241-4.784723774580925,39.062848501620465-.034298308808502,2.852390696558359.832958928160224,5.164052831678418,1.733783166702779,6.760496501708985,2.410461741088511-.066548957380292.425182020044303-.132951653320561.850437170807709-.199500610709947,1.275619190852012-2.4061470284596,2.092562490804994-12.007333311150433,9.948484083372023-26.566928834119608,10.02724587139528-14.837638529530523.080297533198063-24.644760926499657-7.971541264683765-27.008711528140338-10.02724587139528-.079712487420693-.504967638182279-.159424974839567-1.009862145645457-.239137462249346-1.514829783831374Z"/>
          <path class="cls-4" d="M131.82745679087202,95.034458137345609c6.407660452061464,1.552156112877128,13.001941538790561-3.715815800562268,14.607985848790122-11.669905070968525,1.606044309990466-7.954089270406257-2.345067262889643-15.776619584848049-8.752727714940193-17.328775697715173-1.951791429250079,9.666202922369848-3.903466704588936,19.332477846311122-5.855258133849929,28.998680768683698Z"/>
          <path class="cls-17" d="M144.835202240383296,78.610981974400602c-.123856482819974-.83578242180738-.427200411430022-2.130929388360528-1.220730597591682-2.530869165646436-1.706624873668261-.860172084587248-4.716111509729672,2.906220568638673-5.787371066899141,6.907490931684151-.415455340289554,1.551891394232371-.907933498909188,4.515546913640719-.0167385293189,5.581627497115733.880422706148238,1.053204054030175,2.759726327369208-.166114019642009,3.643486638238755-2.448792900421722.651099668941242-1.681758616221487.861746619100813-4.199057118141354.138952333820271-4.642710522857669-.44278316774944-.271764804616396-1.209646560990222.25063463216793-1.760766583629447,1.312831568146066-.639423952859943,1.232247781896149-.64540757082068,2.529820371858477-.644720364191016,2.657935840536084"/>
          <path class="cls-4" d="M57.841326305882831,95.034458137345609c-6.407660452059645,1.552156112877128-13.001941538799656-3.715815800562268-14.607985848790122-11.669905070968525s2.345067262880548-15.776619584848049,8.752727714940193-17.328775697715173c1.951791429250079,9.666202922369848,3.903466704579841,19.332477846311122,5.855258133849929,28.998680768683698Z"/>
          <path class="cls-17" d="M44.83358085636246,78.610981974400602c.123856482819974-.83578242180738.427200411430022-2.130929388360528,1.220730597589863-2.530869165646436,1.706624873680994-.860172084587248,4.716111509729672,2.906220568638673,5.787371066910055,6.907490931684151.415455340280459,1.551891394232371.907933498900093,4.515546913640719.016738529309805,5.581627497115733-.880422706139143,1.053204054030175-2.759726327360113-.166114019642009-3.643486638240574-2.448792900421722-.651099668928509-1.681758616221487-.861746619098994-4.199057118141354-.138952333818452-4.642710522857669.442783167760354-.271764804616396,1.209646560990222.25063463216793,1.760766583640361,1.312831568146066.639423952859943,1.232247781896149.645407570809766,2.529820371858477.644720364180102,2.657935840536084"/>
          <path class="cls-4" d="M74.459199867913412,114.271123447552782c.118471770289034,2.071427712031436.835006588378747,16.057897763534129-3.189084542500495,17.141110023749206-.317387335220701.085416683767107-.680115718339948.094850546956877-1.097692143250242-.008336902352312,2.363950601640681,2.055704606711515,12.171146129328918,10.107470273869694,27.008711528140338,10.02724587139528,14.559595522969175-.078761788023257,24.160781805660008-7.934683380590286,26.567075095568725-10.02724587139528-.296325687169883.124980404587404-.730429655348416.252666645897989-1.214262514758957.167761877187331-2.489077267669927-.436590412734404-3.40701409526082-5.989844949036524-3.82693070328969-8.530625637439698-.343568133839653-2.078813914995408-.639747559571333-5.141016654124542-.239137462251165-8.929334335982276-14.669584129458599.053166035188042-29.339095128199915.106258939653344-44.008679257658514.159424974837748Z"/>
          <path class="cls-10" d="M85.936116049482735,133.092631210653053c8.421002684559426,2.587950004351114,20.806714353419011-1.932918123803574,32.511725258149454-12.01113610871198-.193065107139773-1.881946010289539-.26941358132899-4.232733081888.020037817939738-6.969796629226039-14.669584129458599.053166035188042-29.339095128199915.106258939653344-44.008679257658514.159424974837748.069839839889028,1.220551756887289.346347101289211,6.576938388479903-.260711025370256,10.993814629382541,3.107031871968502,5.166758668408875,8.966923527299514,6.976232132794394,11.737627206939578,7.82769313371773Z"/>
          <path class="cls-4" d="M139.669968345133384,42.890622678073669c-2.179931640630457-15.80792236328125-20.563110351569776-34.9405517578125-43.801391601569776-35.5120849609375-26.141540527340112-.6429443359375-45.491943359371362,22.5191650390625-47.062744140621362,39.042724609375-.275207519529431,2.895019531246362-.068603515628638,6.318176269527612.173583984371362,10.330566406246362.161499023439319,2.6756591796875.761657714849207,11.14459228515625,5.362243652349207,29.19525146484375,4.7646484375,18.69439697265625,7.463928222650793,22.31695556640625,9.832885742189319,24.98077392578125,2.25811767578125,2.5391845703125,4.431884765621362,4.039306640625,7.281616210930224,6.00604248046875,6.696716308601026,4.62158203125,12.713073730470569,6.5772705078125,15.945251464851026,7.60052490234375,3.754516601558862,1.18865966796875,5.676635742180224,1.79931640625,8.55712890625,1.86029052734375,5.030395507808862.10650634765625,8.867065429680224-1.48345947265625,10.789672851558862-2.4449462890625,11.684448242191138-5.32305908203125,17.64892578125-11.76043701171875,20.622436523441138-15.7325439453125.33251953125-.4442138671875.843994140619543-1.0614013671875,1.410034179680224-1.99676513671875,3.907104492189319-6.45648193359375,5.801025390628638-12.34881591796875,7.412963867189319-21.38958740234375,2.392944335939319-13.42059326171875,2.994140625-23.53570556640625,3.1474609375-26.34991455078125.468017578130457-8.589599609375.702026367189319-12.884460449215112.328857421880457-15.590332031246362Z"/>
          <g class="cls-18">
            <path class="cls-15" d="M104.484694999482599,86.023455884230316c-1.946180375689437,10.806051094084978-16.644007915649127,11.343539625030644-18.111902599359382-.000052855563808,3.194032806270116,1.502477931669091,5.778094324599806,3.322720232155007,8.946129419298813,3.333016555161521,3.142132535031124-.023358965956504,6.001190311570099-1.891912421289817,9.165773180060569-3.332963699597713h0Z"/>
          </g>
          <g class="cls-18">
            <path class="cls-15" d="M103.953200858863056,69.620059277785003c4.495282935169598-9.200455370393684,17.358413368900074-9.634096041076191,23.510631938368533-1.907283184777043-.96009482899899-.615574481238582-1.90003623524899-1.211735369910457-2.886974711809671-1.711720111121394-7.066196614860019-3.804279952795696-15.351741511518412-2.592499125838913-20.623657226558862,3.619003295898438h0Z"/>
          </g>
          <g class="cls-18">
            <path class="cls-15" d="M108.75044206979328,89.006625439894378c4.676622959699671,4.086763717288704,8.332702692128805,9.443721494409147,10.267518773578558,15.355794426272951-3.016474509850013-5.399646170626511-6.388859782889995-10.534424598477926-10.267518773578558-15.355794426272951h0Z"/>
          </g>
          <g class="cls-18">
            <path class="cls-15" d="M84.465896171363056,91.050997998489038c-3.878674827281429,4.821411777425055-7.250950677051151,9.956181274915252-10.267384569040587,15.355882417573412,1.934755050500826-5.912123685864572,5.590738964971024-11.269048948601267,10.267384569040587-15.355882417573412h0Z"/>
          </g>
          <g class="cls-18">
            <path class="cls-15" d="M63.364089530732599,68.377993848097503c5.481593557300585-8.561279190673304,18.475969883029393-8.293342062007468,23.111338144279216.931715321650699-6.47564164025971-7.13119202100188-16.060966789129452-7.418522438174477-23.111338144279216-.931715321650699h0Z"/>
          </g>
          <g class="cls-18">
            <path class="cls-15" d="M85.08247331979328,75.489215161574066c-1.053541542980383,1.218638280026425-2.652913010080738,1.842204319496886-4.232044519259944,1.960963405389521,1.356541279428711-.793081719060865,2.835870764060019-1.265398653229568,4.232044519259944-1.960963405389521h0Z"/>
          </g>
          <g class="cls-18">
            <path class="cls-15" d="M107.399123710421918,76.819247510206878c-1.151580394609482-.078950005005026-2.277768490639573-.496146588977354-3.215832756708551-1.165829790630596-.306872321420087-.235476361712244-.604235602670087-.495898114642841-.814684821420087-.829775678119404.349731445319776.173080444335938.67822265625.341323852539062,1.015502929689319.498107910157159.944662830759626.461121450033716,2.103977538790787.973908937980013,3.015014648439319,1.497497558592841h0Z"/>
          </g>
          <g class="cls-18">
            <path class="cls-15" d="M85.37983660104328,73.504702832472503c-1.785898436810385,2.166723673480192-4.365973469950404,3.558370076681967-7.072372487671601,4.194153818604718,2.247902480061384-1.627616418314574,4.662431146171002-2.800598283984982,7.072372487671601-4.194153818604718h0Z"/>
          </g>
          <g class="cls-18">
            <path class="cls-15" d="M110.917678397921918,77.857394482864038c-2.762473691078412-.823937147099969-5.432836574409521-2.361854086120729-7.122625638799946-4.751095617456485,2.466990815710233,1.544447343670072,4.802320019090985,2.99005275660511,7.122625638799946,4.751095617456485h0Z"/>
          </g>
          <g>
            <path class="cls-14" d="M81.29522011687186,102.929399334933805c5.564331054691138.330322265625,12.155517578130457.25836181640625,19.473388671880457-.74627685546875,3.841430664060681-.52734375,7.384887695310681-1.24334716796875,10.6025390625-2.04840087890625-.657104492189319,1.62548828125-2.992919921880457,6.80279541015625-8.4716796875,9.232177734375-6.818725585939319,3.0235595703125-15.734619140630457.56158447265625-21.604248046880457-6.4375Z"/>
            <path class="cls-8" d="M80.736648124482599,102.677676465285003c.616239020060675-.315633119886115,1.728773930241005-.354227701335731,2.478043590130255-.31303603138258,9.381076027439121.075377447440587,18.799144492579217-.981163763858603,27.888294105119712-3.301412518354482-.000004687439286-.000022885808903,2.100215039130489-.547721860419188,2.100215039130489-.547721860419188-3.640612245129887,11.412217645249257-14.273915061839944,16.376293352743232-25.080191152939733,10.860427528069522-2.135178172000451-1.095442856308182-4.06039962225077-2.560050203800529-5.732818330139708-4.265245898106514-.702426460320567-.601211290912943-1.351850389100946-1.628255733535298-1.653543251301016-2.433011219806758h0ZM81.805495780732599,103.184207227003753c.317813272420608.186718355609628.700734626170743.250294571636914.878426039160331.340143964229355.151807060139618.091326176149778.524253762689114.462142577141094.67538253002931.59545194986822,8.693382584760911,8.263460897776895,22.215173322290866,7.541315764845422,26.987600475489671-4.39916157287189.000094861570687.000186752524314,1.292209119381369,1.485629867759599,1.292209119381369,1.485629867759599-9.292623083170838,2.287168649511841-18.931417856860207,3.167935688655234-28.477664059821109,2.474914397525936-.213166013760201-.022285389432-.691010193799229-.045233789517624-.887914131970319-.077806184362998-.115489922109191-.0165197183278-.195505958969079-.260511211762605-.468039972269253-.419172422148222h0Z"/>
          </g>
          <path class="cls-14" d="M126.842918152502534,69.47612952943291c-.22824178367955.376756260425282-4.155827937189315,6.609263550053583-11.634313815480709,6.686276464966795-6.918523841859496.071250721182878-10.889699229010148-5.187356717917282-11.26564195085848-5.703642249005497.753749699839318-.829330662389111,4.602897379048954-4.892213257804542,10.991247129779367-5.266942100744927,6.712121993470646-.39371118395502,11.150273079900217,3.581870940466615,11.908708636559822,4.28430788478363Z"/>
          <path class="cls-14" d="M63.585486833511823,69.645818430813051c.234503588781081.372890947110136,4.265654739710953,6.538918883048609,11.744383591620135,6.490994143881835,6.918748693560701-.044332052792015,10.801525766009945-5.368543577493256,11.168791563430204-5.891037131306803-.767498360750324-.816623673330469-4.683978749550079-4.814639957014151-11.077696883528915-5.08260015320775-6.717762295931607-.281531325075775-11.0888826401806,3.767634666834056-11.835478271521424,4.482643140632717Z"/>
          <g class="cls-16">
            <circle class="cls-1" cx="115.124573425372546" cy="69.759169442515713" r="5.689869061653106"/>
          </g>
          <g class="cls-19">
            <circle class="cls-1" cx="75.623962413482332" cy="69.428438271226696" r="5.689869061652625"/>
          </g>
          <path class="cls-5" d="M103.851272147921918,70.377902295364038c5.643824750610293-7.325689041264013,16.963229252980454-8.058866629975455,23.338752064080836-1.26145217557405-.000006946889698-.00020553927061-.694220814080836.719612575963765-.694220814080836.719612575963765-4.636438121438914-4.14958972284694-11.563240652689274-5.512646843968469-17.264296180279416-2.812971748699965-1.900376671279446.847273506512465-3.665757530659903,2.05293146549684-5.196885460349222,3.516585029949965l-.183349609371362-.161773681639716h0Z"/>
          <path class="cls-5" d="M86.408278983863056,70.328219678175628c-6.26395578986012-6.05284233691691-16.08368089231044-6.314378334125649-22.469721477560597-.328072404748127-.000005084939403-.000250959509685-.706059772439403-.708365583533123-.706059772439403-.708365583533123,4.507046575128697-4.972761609427835,12.387940533410074-6.407065391498691,18.299942389759963-3.19171856011144,1.950667961798899,1.00458477104894,3.688460930548899,2.38642070854894,5.056502922740037,4.063331108939565l-.1806640625.164825439453125h0Z"/>
          <g class="cls-18">
            <path class="cls-15" d="M94.543288749482599,66.944064404739038c1.114648410899463,4.17844628794137.686704353829555,8.814285433619261-1.197539705610325,12.709055321563028.541858907930873-4.30969495757472.927001410509547-8.373883355850012,1.197539705610325-12.709055321563028h0Z"/>
          </g>
          <path class="cls-3" d="M63.352890708412815,38.385984006198669c7.563415527340112-2.20623779296875,18.405578613279431-4.48712158203125,31.539733886720569-4.3916015625,12.3681640625.0899658203125,22.626098632808862,2.25714111328125,29.94287109375,4.3916015625.8427734375,4.34722900390625,1.685668945308862,8.694519042965112,2.528442382808862,13.041748046871362,2.04052734375,1.6856689453125,4.081176757810681,3.371337890625,6.121704101560681,5.0570068359375-.044311523439319,8.38397216796875-.088745117189319,16.76800537109375-.133056640619543,25.1519775390625,1.796508789058862-5.08660888671875,3.593139648430224-10.17315673828125,5.3896484375-15.259765625.265502929680224-2.91363525390625.609252929680224-7.21630859375.843383789058862-12.455078125.092041015621362-2.05902099609375.303344726560681-6.78607177734375.243408203121362-8.948486328121362-.29345703125-10.5943603515625-8.75439453125-19.49896240234375-11.533447265621362-22.423828125-2.539794921878638-2.6729736328125-13.584228515628638-13.89837646484375-31.007446289058862-14.90484619140625-25.628173828130457-1.48040771484375-41.860046386720569,21.89373779296875-44.98077392578125,27.81353759765625-2.354858398439319,4.4669189453125-3.190185546878638,8.650634765625-3.190185546878638,8.6507568359375-.784240722659888,3.927856445308862-.565002441409888,7.073852539058862-.137756347659888,12.642822265621362.193176269538526,2.51788330078125.545776367189319,5.95135498046875,1.243041992189319,10.02435302734375,1.404724121099207,4.9534912109375,2.809448242189319,9.90704345703125,4.214172363279431,14.86053466796875.310485839851026-8.960693359375.621032714851026-17.92132568359375.931518554691138-26.88201904296875,1.929809570308862-1.59576416015625,3.85955810546875-3.19146728515625,5.789367675779431-4.7872314453125.731811523439319-3.860473632808862,1.463562011720569-7.721008300777612,2.195373535159888-11.581481933590112Z"/>
          <path class="cls-12" d="M48.510517464683289,46.881122258401774c.187433207749564-.174960858444138.821105876379079-.688643686783507,1.054322675188814-.90064946320399.19542491502034-.177651057096227.067609108471515-.747158438950464.294851631761048-.948198976901949.202030461599861-.178735529320875.269261475170424-.543850248293893.496216297338833-.739288080927508.207112177080489-.178350715864326.446251239911362-.348686465972605.67395158060026-.539608499506357.211308389711121-.177177721134285,1.002990453720486.329614062719884,1.231896001840141.142669981963081.214935136849817-.175534633868665-.030017474160559-.935267361957813.20032259987056-1.118540320987449.218167609889861-.173587785789096.506431923729906-.27661368133522.738326434469855-.456405641773927.22111438813954-.171433938640803.892912425459144.236998664759994,1.126426876529877.060561472915651.223845379090562-.169131503060271.340027092059245-.484857615024339.575196402909569-.658026592913302.226408066801014-.166717559237441.062728533130212-.880336762033039.299569730350413-1.050297935598792.22883587384058-.164216420664161.537552604590019-.231089269697804.776071725189468-.397884799355779.231152991640556-.161644423209509.946413857740481.373469797851612,1.186609879950993.209811098178761.23337731986976-.159012744466054.399716825289943-.413816621917249.641583986689511-.574357168190545.235522333459812-.156329134777479.384039399459652-.444046187189997.627568600770246-.601479318180282.23759831192001-.153599017943634.321710646248903-.550904213158901.566890317839352-.705234296980962.239613173649559-.150826212204265.333673686051043-.545334072196965.580490329150052-.696560266482265.241573057650385-.148013414695924.605592419060486-.103238919698924.854030945589329-.251356056713121.243482738331295-.145162534241535.746045959480398.149415770915766.9960899045509.004416488815878.245345927709423-.142274924406593.271720149290559-.667226345377458.523351802370598-.809095905869981.247169753400158-.139353947934978.594055350358758-.101742255743375.84726029534977-.240469996849242.247459292619169-.135579771882476.546569618620197-.173734483708358.799765616578952-.308496136166468.249376938420028-.132728986932307.248577312411726-.746070469487677.503492844740322-.877796448657136.251245347561053-.129829434551539.644938377419749.013529256150832.901538754140347-.115125446885031.253065773040362-.126882517846752.587581666779442-.088650108026741.845831765309413-.214197865836468.254839174451263-.12388954403923.189251365010932-.925059831155522.449115583120147-1.047465039703638.25656626070122-.120851754333671.591612235461071-.088678876018093.853054443399742-.207906116592312.258248912839917-.117770980828027.731169371540091.236818256865263.99415430316003.120803492201958.259884411711027-.11464698254531.327770682129994-.677758918399377.59225931102992-.790525724938561.26147457324987-.111481740216732.76937355768132.361660425771333,1.035327928120751.252175766783694.263019400410485-.108276428444697.467190666080569-.357560233839649.734572115099581-.463729153831082.264518773890813-.1050322400597.561368772710921-.123378552968461.830137892820858-.226198835210198.265972467130268-.101750395013369.275033883699507-.895645868179599.545150488309446-.995085398835727.267380158929882-.098432147663516.590770755210542-.060611507821704.862193846409355-.156639048058423.268741443871477-.095078792676759.590104981520199-.052245983689318.862792719710342-.144831257838632.270055840659552-.091691669784268.70751631982057.319514144366622.981425994530582.230400362444925.269818126240352-.087782637418059.307886596319804-.909319209859859.581428323699583-.994473627085426.271199106929998-.084425151961113.540635088620547-.198088638144327.815478789700137-.279807250848535.272529516290888-.081030541741711.776642697259376.629304647053686,1.052740578499652.551055307727438.273808891040972-.077600612978131.349695703031102-.875737461197787.626999298330702-.95048571512325.275036681559868-.074137198581411.766414964820797.673148906547794,1.044875067340399.601931848435015.276214700459605-.070642789383783.494770484388937-.358656151329342.77433958426991-.426314225596798.277336470189766-.067117759096618.485131471548812-.429825322330544.765755279249788-.493897022735837.278404526989107-.063564996823516.501852464729382-.392400916108272.783479163179436-.452861583331469.279417770680084-.059986446392031.656964872070603.340154091103614.939541402609393.283327242954329.280374864240002-.056384087543847.610812200780856.15753091222814.894284033771328.104358744913952.279852995729016-.052493364705697.405910503450286-.963610425656952.688769590939046-1.012875574767349.280988514699857-.048939354212962.692728889691352.670129793025808.976671839580376.624471652255124.282064695829831-.045356116760559.565445747170088-.061544798565592.850414129090495-.10356929810132.283078118300182-.041745740953957.57104111686931-.022156822746183.85697296852959-.060523179536176.284023629070361-.038110311344099.481587558029787-.757050956417515.768415628499497-.791736844117622.284892950920039-.034451875250852.661276252620155.734942198421777.94892482979958.703956885088701.284524021701145-.030648738297714.4727227145504-1.01966263308077.759932055831086-1.0468341864389.285847981540428-.02704276138229.612853130800431.365878012710709.901350454480053.342363604242564.285875972269423-.023300751280658.540743959780229-.520440612930543.829211029889848-.540194876195528s.595372259240321.15475757765671.8864201562792.138631390955197c.28845168898988-.015982343183168.611069528720691.705905372446978.897494911470858.69374305076235.288593997560383-.012254406368811.542366126710476-.978086375641396.828888382040532-.986535487006222.288689764938681-.008513027969457.590634307618529.440548946201488.877205895760198.435824548970231.288738522578569-.004760121147228.577989531049752.199686051405479.864562408969505.198695916456018.288739875870306-.000997622121758.575603816268995-.110188289937469.862129508210273-.107436592747035.288696749739756.00277254730463.571573814229851.196872105347211.858006676489822.203371324215368.288602214839557.006548441911946.585459451120187-.328195573226367.871746967990475-.317945302615044.288459550809421.010328038360967.558529016709144.407354840771404.844621849129908.421357717094907.288268669130048.014109373128122.561037802119245.204819224893981.846886466828437.222574254803476.288029558039852.017890492591505.567774013230519.054873275946193.853328953920936.07637801020428.287742281800092.021669459789337.566461931539379.065140857290316.851673588789708.090390864857909.288714797059583.025560143230905.59698452136945-.213700315521237.88308756853985-.184563522932876.288282426099613.029358740981479.628087108170803-.422295591753027.913698793199728-.389400244402168.287803063580213.033147739541164.532964093070404.417948081671057.818035784281165.454589970220695.287277081110005.036925359879206.5747684054204.057338988020092.859251743058849.097713569925872.286706962890094.040690164324587.545758949219817.247192909478144.829607907149693.291284887537586.286088941731578.044439928312386.655595080201238-.429771297684965.93875982793179-.381979612036048.285425767910056.048173293766013.531506499130046.32797064168517.813939781128283.379442968730473.284718034730759.051888714019697.459578531161242.663754412797971.741233538810775.718886688068778.283966381259233.055584712767086.544056222170184.187912383221374.824886624450301.246682347726164.283218764880075.059269782130286.730450166140145-.657316368093234,1.010456336809511-.594921547822196.282377420100602.062923214632974.601618480441175-.023087895511708.8807050252708.042895948790829.2814944233196.066553133942762.497035889899053.411584485013009.775158153730445.481130667453726.280570554788937.070158392654776.620493654838356-.085194432071148.897607521248574-.012113888130443.279606618010803.073737933064876.623145594070593-.072302561670767.899207482019847.004283147040951.278603434961042.077290790386542.550723675711197.197375661708975.825690528039559.277436189331638.277561841621718.080816095831324.519992825771624.294506235394692.793822089090099.378010157610333.276482683460927.084313079668391.320458820371641.909123969647226.593108415730967.996038853476421.275366811030835.087781074306804.824773428819753-.668492976613379,1.096201712440234-.578200504540291.274215075809479.091219517520585.379145864859311.685188424676198.649311578090419.778824237308072.273028326279018.094627955923897.447701033259364.456253039211333.716563240739561.553197133523099.271807404340507.098006048852767.573965703979411.099289855584175.841483718950258.199506420841317.270553142019708.101353572830703.520616695350327.243606441530574.786749990478711.347058969760837.269266358951427.104670426848315.618121299641643-.001217637122863.882829401720301.10543369766674.267947860231288.10795663873887.484454547540736.333637580188224.747696913729669.443449958359452.266613289881207.111218569553785.70778806242015-.191624446976675.969538246779848-.078682978909455.265231628980473.114443661724181.590548464351741.098106964191174.850748974500675.214131728499524.263820711339577.117639030899227.169076604461225,1.021862884531402.4276858502908,1.140931493164317.262381283679133.120805326504524.669647685948803-.08017376891712.926623257639221.041898688467882.260914088999925.123943391978173.40845477556104.472423903672279.663753168160838.597459643135153.259571621829309.127128609584361.424197745080164.428750245657284.677918924910045.556783386457028.258245577530033.130316248775671.720166062088538-.15003200432966.972303071008355-.019015476810637.258467313520669.134305907879934.611524971631297.084679923733347.863522024341364.219467525257642.256762342260117.137336448589849.297995900958995.664209928669152.547986734200094.801776769002572.255027486658946.140338447943577.46835825657945.34119068009386.71628109213998.481482745614812.253263114129368.143313968321308.752968845768919-.152074967159024.998756648039489-.009114238657276.251469754170103.146265595441946.623233451709893.087750648929614.866812686279445.233320261547306.249752588060801.14925897750345.03486799608072,1.056909834579528.276254402630002,1.205085821369721.247878902131561.152161430513843.460824358369791.34082102973116.699804550800764.491460315637596.245983023029112.15505346513055.691179297400595-.018057962004605.927651200139735.134968806148208.24426676316034.158071013519475.785369161279959-.143184592886428,1.019395837411139.012268358512301.243126511308219.16149754538128.296447252998405.599914215307763.528419431539078.758076787986283.241859882720746.164904177388962.267079447119613.629740360393043.496697959390076.790442918130793.240454849159505.168286558860018.797061298200788-.122082606313597,1.02395932141917.040936031360616.238901643740974.1716428373893.322652582601222.545336527919062.546370479471079.710370542140481.237215393619408.174990955988505.725117356369083.003561789755622.945077928889077.17020904790752.237559343340763.179980497240649.419014390819939.422820080021665.636218074751014.591927902838506.237041198470251.184552675483246.320659019538653.545952475148624.533159976259412.716080838183188.236764340530499.189553639191217.686468835940104.094874830376284.892362816050081.264502161153359.240525956189231.198159149233106.109229947509448.805520379748486.306993809879714.973336191268572.248531237470161.210895311224704.378123749880615.161763345461623.557904034871171.318688312637278-.034165602470239-.281887054443359-.141111097491375-.371192477131444-.175276352691071-.653079531574804s.676943025140645-.65410209869151.642778089420972-.935989153134869c-.034164935710578-.281887054443359-1.06616568185018-.442836067468306-1.100330325860341-.724723121911666-.034164644021075-.281887054443359.376599668528797-.617699391068527.342435288430352-.899586445511886-.03416438009117-.281887054443359-.429011050051486-.520060163496055-.463175194001451-.801947217939414s.769043624630285-.665261511207973.734879689031004-.947148565651332c-.034163935590186-.281887054443359-.831285455809848-.471305957691584-.865449210819861-.753193012134943-.034163755020927-.281887054443359.381942126208742-.61834518037449.347778523979287-.90023223481785-.03416360222036-.281887054443359-.290826997550539-.536808029180975-.324990474759034-.818695083625244-.034163477210313-.28188705444245-.326619204901363-.532470333810124-.360782584870321-.814357388253484-.034163379979873-.281887054443359.538234001949604-.637286333614611.504070691429661-.91917338805888s-.692500560830013-.488127370778784-.726663829680547-.770014425222143.813467788169874-.670643025914615.779304533210961-.952530080358883c-.034163254960731-.281887054443359-.948989046821225-.457042357233149-.98315231566994-.738929411676509-.034163268850534-.281887054443359.541523375899487-.637684844700743.507360065379544-.919571899144103s.165243417999591-.592081756451989.131080038030632-.873968810894439c-.034163379979873-.281887054443359-.97975937523006-.453312638303032-1.013922852431278-.735199692746392-.034163477208494-.281887054443359.924487199650684-.684099130297.890323597430324-.965986184740359-.034163602229455-.281887054443359-1.038824254490464-.446153448990117-1.072988009509572-.728040503433476-.034163755020927-.28188705444245.250125568520161-.602369499955785.215961632919061-.884256554399144-.034163935588367-.281887054443359.495543390881721-.632114093320524.461379246929937-.914001147763884-.03416414395906-.28188705444245-.239615461568974-.543014729623792-.273779841660144-.824901784067151-.034164380089351-.281887054443359-.848192230978384-.46925516832107-.882356874999459-.751142222764429-.034164644010161-.281887054443359.33946306252983-.613198386213298.305298126821071-.895085440656658-.034164935721492-.281887054443359.563695080629259-.640376701392597.529529825429563-.922263755835957s-.454941571801101-.545162181133492-.489107174260425-.827049235576851c-.072441062009602-.103998704845253-.019148912109813-.596472892300881-.282044594809122-.943328948957969-.145511119781077-.191982662813643-.391494051940754-.375445724831479-.594525179150878-.631194221362421-.160490372709319-.202161964490188-1.048578634190562.152019979941542-1.2446805704094-.085746689223015-.16922725195036-.205182063989014.018522706668591-.728034248922086-.177022348980245-.957134461564237-.175446029650629-.205552232273476-.646790375511046-.168595356392871-.843279316350163-.391564765142903-.180787700370274-.205152139807069-.230031012370091-.536911034905643-.428523182999925-.755396000820838-.18489310105906-.203516152568227-.152240638670264-.6191004509501-.352407224630952-.8330511678123-.188664772809716-.201656850948893-.320634966128637-.470789679407972-.522795020850026-.680772668993995-.19219598672862-.199633344655012-.301100136919558-.495074219178605-.505431112738734-.701425823809586-.195545581549595-.197479331606701-.55979028739057-.238050906876197-.766394954411226-.44097796477763-.198752995778705-.19521514815824-.473445907809946-.320445021648084-.682384714809814-.520075514434211-.201845862029586-.192853541572731-.582786230319471-.199813985193941-.794094280628997-.396224834326858-.204845095209748-.190403531860284.040961471890114-.880149761051143-.17273602341993-1.073384009602705-.207763622731363-.187868591808183-.832417463940146.083804535373019-1.048512143561311-.106269632438853-.210613665549317-.185253136629399-.020299824709582-.840238394071093-.23879349472918-1.027151939490977-.213403773299433-.182559320242035-.425931260859215-.380175818639145-.646820725189173-.56391449892908-.216140504860959-.17978843509718-.67717932989035-.070904268931372-.900457670910328-.251443198569177-.218829236700913-.176941462332252-.301842405449861-.532375614800912-.527500157861141-.709681739983353-.221473040968704-.17401807076385-.470901605349354-.322084476445525-.698926084689447-.496117281927582-.224075158459527-.171018605446989-.382344015250055-.440633901505862-.612720827979501-.611347592651327-.22663763312994-.16794288647452-.40439099473042-.41658276322778-.63710377219104-.583926868538583-.229161841598398-.164790622040528-.759874139408566.087546160299098-.994904606259297-.076373965005587-.23164859408098-.161561465104569-.264483670829577-.619345410043934-.501811651560274-.77978385609731-.234098213410107-.158255058970099-.465657533379272-.331970974933029-.705260916469342-.488867257208767-.236510597920642-.154871075083975-.526972423020197-.236822000797474-.76882709640995-.390113299149561-.238841041649721-.151381211121588-.820871371050089.247206179295063-1.064904986131296.09761197057469-.239891868948689-.147055291147808-.152143038478243-.837987532434454-.397034484229152-.983081405664961-.242284023679531-.143549021535364-.742528348220731.153913486041347-.98968844979936.01251075122309-.244631042560286-.139955835174987-.082486833600342-1.010892304590925-.331877612250537-1.148526063771897-.246931708590637-.136276647835984-.769070273599937.223702068676175-1.020651755350627.089914948918704-.249184569749559-.132512479226534-.546690453109477-.173132836339391-.800420528588802-.302996045448708-.251387965759932-.128664478985229-.383043776020713-.499544075992162-.638878072901207-.625406723544074-.253540053168763-.12473394983499-.785104079428493.330390608738526-1.042995848400096.208604316801029-.255638829188683-.1207223681713-.21387850056999-.882556175390164-.473778515679442-1.000191419642761-.257684127709581-.11663229527403-.80184007301068.415887051490245-1.063698583999212.302475348795269-.259669385230154-.112463585792284-.220167088660673-.930438963147935-.483927262890575-1.039554332245643-.261594635570873-.108219503938926-.762002349400063.372975139928712-1.027607131431068.268225904904284-.263458255509249-.103902687722439-.472472975758137-.339631351333992-.739863408398378-.439947091905196-.265256019230947-.099514981695393-.485109341690986-.319733873142468-.754221917641189-.415550508771048-.266986415019346-.095059623115048-.553259461328707-.132601231228364-.824028949058629-.223856248440825-.268646935681318-.090539672488376-.6387615745316.14156748660389-.911120017170106.054933630509368-.27023508513048-.08595844230058-.347939809709715-.791216758983865-.621816558761566-.873173154390315-.271748396198745-.081319495313437-.48926827744981-.371914492736323-.764590042139389-.449140638226709-.273184446499727-.076626640232462-.56806985906951-.102422097646922-.844760769679851-.174868974195306-.273375760989438-.071578860194677-.509408538669959-.32706428596066-.786195991919158-.394418228946961-.274766252241534-.066862100396975-.747517339841579.698441337409349-1.025634659839852.635883905519222-.2760753879611-.062098136424538-.384727520131491-.913013620077436-.664094209760151-.970731920987419-.277301330570481-.057291589280794-.653460001311032.357111763276407-.933993644621296.304270595337584-.278442274879126-.052447238893365-.613572444948659.219671867743273-.895188747888824.17174105374761-.2794979568298-.047570273603014-.440003155850718-.848598587381275-.722617528530463-.891590969373283-.280462892969808-.042665090646551-.671870350139216.672779957339117-.955392576470331.634749558311341-.281337422940851-.03773733930484-.509621450799386-.49487584333383-.79396164948048-.527926299481805-.282119378978678-.032792317817439-.619738919889642.465322769120576-.904804985018927.437264891524137-.282806213579534-.027835449727718-.482757940470037-1.006453741010773-.768455159521181-1.029511868684494-.282189152459978-.022774997696615-.608926354838331.490682143210506-.893927118489955.472681485140129-.282980001409669-.0178730266598-.554787205199318-.309329699421141-.840530464640324-.322384923797472-.283674359357974-.012960699121322-.565448289429696-.310166362607561-.851837598978818-.318270230141025-.284263007559275-.008043700237977-.581224249559455.12949297396699-.868153789950156.126340406478448-.283437684049204-.003114201579592-.570871229079785.734374607601239-.856902964720575.736135786373779-.284489730700443.001751684209921-.562180001659726.121260212995367-.849228071128891.127935427445664-.284037012621411.006605193249925-.590793496679908-.699999287294304-.877327861930098-.688475620438112s-.580403475050844.003713436074577-.869427637901026.020252756058653c-.287515769088714.016453083751003-.597908378409556-.223626724123278-.882395214139251-.202526940784992-.287130334911126.021295846046996-.545617909019711.447777677428348-.829663520100439.473703190716151-.286662049689767.026164321815486-.514629379020334.606796546605437-.798150397329664.637569531045301-.286109810209382.031053968377819-.63056472874996-.465367233429788-.913476689769595-.429729697880248-.285472750800182.035960110236374-.51451744104088.473119069528366-.796735016510866.513633448626933-.284750253298625.040877963364437-.554644442960125.13738611633471-.836081682859003.182784742098193-.283941954859984.045802661196831-.690494836600919-.630851023852301-.971065418010767-.580565713419674-.283047753278879.050729281984786-.430796553499022.818557201676413-.710414034010682.873726621074638-.282067809859655.055652877186731-.571599326498472.0452280662048-.850177399519453.105273984605446-.281002549649202.060568500543923-.501795896720068.354705305058815-.779248646120323.419615086178055-.279852658908567.065471237444399-.680894205439472-.388173702226595-.957136356688352-.318417684477936-.278623659700315.070357390657591-.564764981141707.112239728605346-.839716605370995.186820726025871-.277307204729368.075219951794679-.503350695660629.328435718496621-.776923696210361.407813072676618-.27719029320906.080426913603333-.56627894156918.112756420046935-.839636685319419.1973072689334-.2756410516904.08525708687921-.389062443189687.657978559316689-.660807740050586.747280629971101-.274016436780585.090048422109248-.560181483670021.112166271214846-.830237889849741.206175695326237-.27231855825994.094796902614689-.819196322259813-.584760749912675-1.087489371879201-.486091932280942-.270549681881675.099498728197432-.469773103570333.39612895350183-.736230446331319.499405320400911-.268712209530349.104150332105746-.678406131290103-.134606068123503-.942957648660013-.026777659402796-.266808658559967.108748395667135-.200695484280004,1.01489230144216-.463273383109481,1.127213813595517-.264844517188976.113291091096471-.822420628379405-.44441705909685-1.082962294380195-.327663267454227-.262816424310586.117773155117902-.580286929600334.131249652939005-.838726337829939.252369321956394-.260796942789966.122224546197685-.54557330444004.211812177120009-.801914345020123.337262804567217-.258648920689666.126580079870109-.40841260167872.483725133709413-.662526395070017.613402915254483-.256448667689256.130869300179256-.642303553659076.025749856636139-.8941347794389.159582137175676-.254198947641271.135090574130118-.299283856780676.66488419700454-.548779576251036.802796378110543-.251902491889268.139242557571379-.474909916289107.32991899589797-.722019493108746.471834767183282-.24956198063046.143324194147681-.50546970897085.27518882035929-.7501447044815.421030379719923-.247180025378839.147334713421515-.553004733028502.199359125940646-.795198775858807.349047386052007-.244759152550614.151273628634954-.630299618651406.08551637518849-.869968248071018.238971153618877-.242301788170153.155140734547786-.352622630280166.519496144175719-.589723112369029.6766363343595-.239810243931061.158936105938665-.610511732191299.12976707260168-.845002847201613.290510792727218-.237286704448707.162660097414118-.273696239039054.617635949739451-.505538037959923.781900666246656-.23473321586971.166313345302115-.336448211908646.513596516805592-.56560173906837.681299138651411-.232151675840214.169896772633365-.793515424600628-.102538519823611-1.019942402110246.068518419248903-.229543825051223.173411598422717-.428912280451186.392553914881319-.652574748521147.566881106764413-.226911240470145.176859352845895-.127530995689085.765053356781209-.348390901030143.942566234416518-.224272978339286.180256084512621-.396394925579443.416313820251162-.614430313138655.596941461204551-.221648322140027.183620714032259-.912481909110284-.191342503226224-1.127686538740818-.007655246173272-.219126773728931.187034991220571-.274607957040644.567449740373377-.487056480478714.754218889329422-.216574650550683.190396537081142-.61325601468161.183168332589958-.822893090931757.372934083770815-.213991662349144.193707569670551.150640699581345,1.015058864602906-.056124945858755,1.207732346509147-.212501825970321.198018711642362-.811256550759936-.018201927986411-1.016128856161231.178316832274504-.209578736468757.201033289429688-.190055337689046.634027659413732-.391653199349093.83305384796131-.206631456749164.203995572829626-.275286671520007.536735304774083-.473537190959178.738151715877393-.203659428541869.206911695860981-.376039830151058.432593381703555-.570858505361684.636273669775619-.200814915830051.209949276494626-.280263899549027.520466400609621-.471689564888948.726425118310544-.197751439000058.212764744622291-.596902108160066.227905668768472-.784638000350242.435798164510743-.194783726259629.215697033252582-.914289650609135-.039834415630139-1.098296742289676.169933819057405-.192489767730876.219438492314111.371050211990223,1.084459384882393.190347858129826,1.296630122996248-.19006589105993.223164887091116-1.062984018641146-.136524488775649-1.240015899929858.077695024150671-.187494525849615.226879959194775.035515682518962.780011997918336-.137366542579912.995786568174481-.1847606627598.230600066503939-.530140290129566.321759018512239-.698221254990131.538373126959414-.182572753410568.235290380687729.088978918560315.797895120150315-.073926079970988,1.01502812266699-.181979083208716.242556490524294-.63423697098915.259680313343779-.791689698618939.477300986649425-.180292429149631.249188187551226-.711415437150208.224487833679632-.859574777339731.437601354953586-.183742149751197.264296105046014.31042756487841.94253024401587.176060843239611,1.14512680316966-.217251226469671.327568838610205-.745921715759323.33297378149291-.8342678281806.475704368197512-.021210937498836.281711425781396.547401031930349.61338564556354.526190094429694.895097071344935-.021210937498836.281711425780486-.538261236490143.52608953699928-.559472173988979.807800962780675-.02121093750975.281711425781396-.632547839799372.518990400277289-.653758777300027.800701826058685s-.061890201001006.561957019691363-.083101138499842.843668445472758c-.021210937500655.281711425781396.362541425718518.593913819941008.341330488219683.875625245722404-.021210937500655.281711425780486.521450186539369.605878563394072.500239249040533.887589989175467-.021210937500655.281711425781396-.261227842711378.546948257861914-.282438780210214.828659683644219-.02121093750975.281711425780486.306267927298904.589676810172023.285056989800069.871388235953418-.021210937500655.281711425781396-1.097941196170723.483949461784505-1.119152133671378.7656608875659-.021210937498836.281711425780486.301116603570335.589288950707669.2799056660715.871000376489064-.021210937500655.281711425781396-.347414408610348.540458998587383-.368625346111003.822170424368778-.021210937498836.281711425781396.684622066970405.618164290613095.66341112946975.8998757163954-.021210937498836.281711425780486-.6329030563993.518963654893923-.654113993899955.800675080675319-.021210937498836.281711425781396.724979854239791.621202956123852.703768916740955.902914381905248-.02121093750975.281711425781396-.488560075669739.529831694674613-.509771013170393.811543120456008s-.225275266890094.549655241064102-.246486204390749.831366666846407c-.021210937498836.281711425780486.470150321159963.602016034195913.448939383661127.883727459977308-.021210937500655.281711425781396-.364680159240379.539159005586953-.385891096741034.820870431367439-.021210937498836.281711425781396.236387840301177.58441531729477.215176902800522.866126743076165s.20956556533929.582395783334505.188354627840454.864107209114991c-.021210937500655.281711425781396-.965890254970873.493891995010017-.987101192469709.775603420791413-.021210937500655.281711425781396.72341668782974.621085260379914.702205750339999.902796686161309-.021210937511569.281711425781396-.105338787279834.558685638142379-.126549724791403.840397063922865-.021210937498836.281711425781396-.200655623659259.551508931909666-.221866561159914.833220357691971-.021210937498836.281711425780486-.490819432479839,1.011763614898882-.512030369978675,1.293475040680278Z"/>
          <polygon class="cls-13" points="86.50678972604328 56.043139722120941 66.785476249482599 55.292208935989038 67.818191093232599 54.963656689894378 62.264846366671918 57.458102490675628 61.424026054171918 56.243579175245941 65.713698905732599 51.923861768019378 65.99604753854328 51.639544751417816 66.746779960421918 51.595202710402191 86.447951835421918 50.431308057081878 86.50678972604328 56.043139722120941 86.50678972604328 56.043139722120941"/>
          <polygon class="cls-13" points="104.97309831979328 50.431308057081878 124.674392265113056 51.595202710402191 125.425124686982599 51.639544751417816 125.70747331979328 51.923861768019378 129.997146171363056 56.243579175245941 129.156325858863056 57.458102490675628 123.60298113229328 54.963656689894378 124.63569597604328 55.292208935989038 104.914382499482599 56.043139722120941 104.97309831979328 50.431308057081878 104.97309831979328 50.431308057081878"/>
          <ellipse class="cls-11" cx="122.422062960439689" cy="84.777177415679944" rx="14.831661226057802" ry="11.907359779825128"/>
          <ellipse class="cls-7" cx="66.597683300130484" cy="84.777177415679944" rx="14.831661226057802" ry="11.907359779825128"/>
        </g>
      </g>
    </g>
  </g>
</svg>