<?xml version="1.0" encoding="UTF-8"?>
<svg xmlns="http://www.w3.org/2000/svg" width="55.751750673274728" height="71.018678525520954" viewBox="0 0 55.751750673274728 71.018678525520954">
  <defs>
    <style>
      .cls-1, .cls-2, .cls-3, .cls-4 {
        stroke-width: 0px;
      }

      .cls-1, .cls-3 {
        fill: #3657a6;
      }

      .cls-2 {
        fill: #98623d;
      }

      .cls-3 {
        mix-blend-mode: multiply;
      }

      .cls-5 {
        isolation: isolate;
      }

      .cls-4 {
        fill: #e9e9de;
        mix-blend-mode: screen;
      }
    </style>
  </defs>
  <g class="cls-5">
    <g id="Layer_2" data-name="Layer 2">
      <g id="Layer_1-2" data-name="Layer 1">
        <g>
          <path class="cls-2" d="M.987757241273357,48.016879577045074c-2.044427471049858-1.256032536116436-.823275826011013-8.767507946203295,2.813218291579688-13.88626743167697,1.964727721329837-2.76547606265467.704871781559632-3.331556925372752,11.207454049719672-8.689491979989725,1.552994741530711-.792160319197137,2.664397653919877-2.136404757016862,3.769553210209779-1.716043069849547,1.375979467729849.52336835053211,1.946909946120286,3.143578829021862,1.474118808509957,5.208348433017818-.498426835669306,2.178254725917213-1.974311764819504,2.93513950068882-4.197728588829705,5.299052620008297-3.083078152370945,3.277819134335004-2.512421884199284,4.232887105579721-5.103701871670637,7.322433181416272-2.780320345209475,3.314990904385922-8.007080451749061,7.663429587806604-9.962913899518753,6.461968247073855Z"/>
          <g>
            <path class="cls-1" d="M44.099163377051809,66.107218561217451h-26.425279141289138c-3.140183054429144,0-5.84682747728948-2.232783360126632-6.017499632520412-5.006171790595545L8.3352309252532,7.132962909123307c-.239329995340086-3.889064617800614,2.682662718019856-7.132962909123307,6.497975657179268-7.132962909123307h32.10663444796046c3.815312939150317,0,6.737305652510258,3.243898291322694,6.497975657170173,7.132962909123307l-3.321153677979964,53.968083861498599c-.170672155230932,2.773388430468913-2.877316578089449,5.006171790595545-6.017499632531326,5.006171790595545Z"/>
            <path class="cls-3" d="M28.170998649633475,12.292019745054859l-14.106352067359694.000000016920239c-1.493539318231342.000000001789886-2.782747507300883-1.243091459295101-2.865537923691591-2.774091204079014l-.181341841589528-3.35345955871162c-.085041146370713-1.572621313651325,1.097252797169858-2.869359792908654,2.627983997270348-2.869359791035095l14.457626313569563.000000017724233c1.530731190310689.000000001877197,2.783147609130538,1.296738475899474,2.783147597470816,2.869359779564547l-.000000024851033,3.35345953192882c-.00000001133958,1.530999743175926-1.221986734179154,2.774091205901641-2.71552605081888,2.774091207687889Z"/>
            <path class="cls-4" d="M33.803967568432199,9.490381446084939h-.000003196530088c-.879044140719998-.000000004685717-1.595594452288424-.73627062606829-1.592319337889421-1.640210814715829l.000009366980521-.002585310223367c.003291430639365-.908443513602833.731728982909772-1.655079001815466,1.618735221429233-1.655078997914643h.000003273500624c.887006224300421.00000000390628,1.603478455230288.746635486527339,1.592211499499172,1.655078985607361l-.000032064630432.002585339163488c-.011211103499591.90394018886218-.739560621379496,1.640210802757792-1.61860476235961,1.64021079808299Z"/>
          </g>
          <path class="cls-2" d="M12.963114041362132,35.693011490559002c-2.989375197079426-.659626248019777-5.890140249879551-.02109765339992-7.448607677548353,1.130103918829263C1.045211925573312,40.124411297500046-.287672900356483,48.210411542182555.639487821732473,54.054867257975275c1.098214004270631,6.923276107900165,5.347605978229694,10.573007856390177,6.604052382999726,11.546258836675406.164074827591321.126991644501686.340159088660585.237267455927395.497255461661553.343323736666207,3.748566140189723,2.532205276882451,7.103904478928598,3.536940447625966,8.063523129329042,3.806341252573475,3.954024826369277,1.1101422929205,7.163464777380796,2.011255527548201,9.417181029370113.366450010587869,2.237162708570395-1.632877228308644,3.28068510364028-4.185693289658957,3.28068510364028-4.185774434481573.039436382900021-.097617219379572.068973097659182-.174136785364681.088447854639526-.225095732810587.010711116339735-.028157252803794,1.833872949349825-5.21006550702441-.129669423589803-12.155169571717124-1.801090441760607-6.370436444001825-5.77377857690044-10.636300816586299-7.770914905640893-12.530302078124805-.375375940868253-.073273773152323-1.321849130299597-.309892070512433-2.168189610909394-1.134404594333319-.800412512049661-.779639437932929-1.072572240898808-1.657707543461584-1.165726495150011-2.031541732740152-.787591630369207-.649077421319816-2.275949932889489-1.694790726553038-4.393018306720478-2.16194145971167Z"/>
          <path class="cls-2" d="M6.560138524222566,41.888743135452387c-1.656977240070773-2.164943818079337-1.459146167040672-2.862789276685362-1.020152686689471-3.369782116842543,1.048466646019733-1.661975430663006,2.265021086719571-3.413948456844082,3.489632231239739-4.928051549690281,2.1293085264806-2.645369897687488,4.723972108460657-4.931825338680937,7.649205507870647-6.723586057734792,6.113819494459676-1.059085610129841,12.033711686908646-3.261480817560368,18.309731815468695-2.97677240125995,1.094340794590607.025168432890496,1.969966192540596.964196971704951,1.857090487330424,2.065014611642255-.061495963869675.633078123679297-.44109143543028,1.16749791325492-.955711888729638,1.458320950885536-1.376053870579199.764871080558805-2.80322897824044,1.317548454808275-4.229430348059395,1.870306973873085-4.185343711780661,1.476923426045687-8.646490433409781,3.538063130286901-13.047910770979797,4.15867073591653-.000014118821127-.000079816389189,1.720742950379645-1.161586780861398,1.720742950379645-1.161586780861398-1.442814422411175,3.852585047559842-3.913551477950023,7.11557596228522-6.650223702081348,10.116379049210082-.000081228759882-.000054244101193-1.390254298148648,1.463068019158527-1.390254298148648,1.463068019158527-.533033046869605,1.350305373514857-4.69796135659999-.330928911262163-5.732719297600852-1.971981434297049h0Z"/>
          <path class="cls-2" d="M10.383844768442941,48.81364213976849c-.171539525110347-1.472043120305898-.502366125399931-3.172683459702967.700155808830459-3.80655253855366,2.796749204469961-1.467646191897074,5.682483097549266-2.728404040321038,8.70518823384009-3.678306779162085,3.866276511958858-1.228918514883844,7.797348556709039-2.330753644338984,11.595727178279049-3.758626383074443,4.30095858553068-.96431475742429,9.010936554699583-2.160036332305026,13.39036877494982-2.570780986083264,2.166619456929766.046493429123075,6.282847187520019-1.756196302550961,6.741081743770337,1.482622265200916.059480957870619.903533561086078-.472323642688934,1.639071359962145-1.215461720490566,2.031832036635024-5.255334982959539,3.20150298135195-11.422832155660217,3.727828119772312-17.233040092049123,5.307230597754824.000014718480088.000065544729296.467895755020436-.165307599992957.467895755020436-.165307599992957l-2.589493520341421,1.332641391465586c-5.295377925738649,2.939506713220908-10.362576551849997,6.493819646766497-16.130014084479626,8.453564748724602-.63895758318904.281366869534395-1.164768720549546.005773739376309-1.810281591770035-.49875376037744-1.021961992850265-.779105496515513-2.484772866999265-2.637466086896893-2.62212648555942-4.129562992537103h0Z"/>
          <path class="cls-2" d="M14.017347552773572,56.509660375839303c.267453329259297-4.407543229637668,2.553952088848746-3.722112928615388,4.170356918539255-4.726848099358904,5.285828130379741-2.194019927064801,10.624460380009623-4.25176359253237,16.029829559569407-6.139105892678344,3.419602993941226-.883407803543378,9.069517734811598-2.362503870230285,11.436481257340347-2.700985006700648,2.342076802460724-.741002667946304,4.717023416689699-1.403144405408966,7.12264277317081-1.991931224900327,1.289228912350154-.315653352783556,2.590304968538476.473642318826023,2.905958321329308,1.762871231177996.254470157929973,1.040114312600053-.213248588979695,2.089073410665151-1.079226116209611,2.62097771079425-5.166662045330668,3.503638931623755-12.952362276879285,6.330884273575066-17.666924864559405,8.003821857553703-5.138095051390337,2.284032811610814-10.343156708540846,4.398486145380048-15.600334618180568,6.386824373877062-1.865851275410023.375520238131685-3.061601354240338,2.441386230056196-6.2763968634099-.585883598324472-.745558613220055-.702064989283826-1.095130501091262-1.681482975945983-1.042386367589643-2.629741351440316h0Z"/>
          <path class="cls-2" d="M20.622049094343311,64.261100524490757c-.346001515759781-2.289014249032334.04641483747946-2.986129404249368.614753162139095-3.315820811025333,3.742823441791188-2.724908293577755,8.422830590019657-3.638904624316638,12.567616130700117-5.586065525512822,2.533612047180213-1.063524168592267,8.479689272009637-3.483662934289896,10.905420932520428-4.588103790083551,2.131588513770112-.740814766610129,5.219369251579337-3.447335702159762,6.820804577650051-.55527666144917,1.271550134029894,2.892118640505942-2.543033565789301,3.883868128064933-4.266904627620534,5.297739527373778-1.933413506189027,1.241029713848548-4.681112241469236,3.226769820437767-6.601988645548772,4.561260081940418-3.263901983871619,2.423442884264659-7.117487605111819,3.767534060913022-10.02810755290011,6.709041602989601-1.539180484711324,1.396121220786881-3.204254442691308,2.517358275916195-5.216113390240935,2.998290226496465-.611978207200082.264398780371266-1.500676284249494-.047603055481886-3.595673266829181-2.959322659087775-.583759715451379-.744028045475716-1.086525610200624-1.648148286087235-1.19980731987016-2.561741991641611h0Z"/>
        </g>
      </g>
    </g>
  </g>
</svg>