<?xml version="1.0" encoding="UTF-8"?>
<svg xmlns="http://www.w3.org/2000/svg" width="323.892881910698634" height="211.528502693239716" xmlns:xlink="http://www.w3.org/1999/xlink" viewBox="0 0 323.892881910698634 211.528502693239716">
  <defs>
    <style>
      .cls-1 {
        fill: #f8b787;
      }

      .cls-1, .cls-2, .cls-3, .cls-4, .cls-5, .cls-6, .cls-7, .cls-8, .cls-9, .cls-10, .cls-11, .cls-12, .cls-13, .cls-14, .cls-15, .cls-16, .cls-17, .cls-18, .cls-19, .cls-20, .cls-21 {
        stroke-width: 0px;
      }

      .cls-2 {
        fill: #3657a6;
      }

      .cls-3 {
        fill: #f8bf87;
      }

      .cls-4 {
        fill: #151c22;
      }

      .cls-22 {
        clip-path: url(#clippath);
      }

      .cls-5, .cls-23, .cls-24, .cls-25 {
        fill: none;
      }

      .cls-23 {
        stroke-width: .515625622853655px;
      }

      .cls-23, .cls-24, .cls-25, .cls-26 {
        stroke-miterlimit: 10;
      }

      .cls-23, .cls-25 {
        stroke: #f1b068;
      }

      .cls-23, .cls-25, .cls-13, .cls-17, .cls-18, .cls-27, .cls-28 {
        mix-blend-mode: multiply;
      }

      .cls-23, .cls-25, .cls-17, .cls-28 {
        opacity: .6;
      }

      .cls-6 {
        fill: #79c4e0;
      }

      .cls-7, .cls-26 {
        fill: #d6e03f;
      }

      .cls-29 {
        clip-path: url(#clippath-1);
      }

      .cls-30 {
        clip-path: url(#clippath-2);
      }

      .cls-8 {
        fill: #6e6464;
      }

      .cls-9 {
        fill: #968c8c;
      }

      .cls-24 {
        stroke: #151c22;
        stroke-width: .757436408388534px;
      }

      .cls-10 {
        fill: #ffc58f;
      }

      .cls-25 {
        stroke-width: .545810828627706px;
      }

      .cls-11 {
        fill: #4b4342;
      }

      .cls-12 {
        fill: #aea8a9;
      }

      .cls-13 {
        fill: url(#radial-gradient-2);
      }

      .cls-13, .cls-18 {
        opacity: .1;
      }

      .cls-14 {
        fill: #e08362;
      }

      .cls-15 {
        fill: #bb4d34;
      }

      .cls-16 {
        fill: #e9e9de;
      }

      .cls-17, .cls-21 {
        fill: #f1b068;
      }

      .cls-18 {
        fill: url(#radial-gradient);
      }

      .cls-26 {
        stroke: #e9e9de;
        stroke-width: 1.642334111631px;
      }

      .cls-19 {
        fill: #0b2645;
      }

      .cls-31 {
        isolation: isolate;
      }

      .cls-27 {
        opacity: .3;
      }

      .cls-20 {
        fill: #fff;
      }
    </style>
    <clipPath id="clippath">
      <path class="cls-5" d="M125.724959388149728,70.588267654240553c-.224417284780429.379046796428156-4.088728716060359,6.650982484119595-11.566052246380423,6.803674474678701-6.917448483220141.141263220510154-10.941638137679547-5.076886238730367-11.322786468519553-5.589340753429497.745318192070044-.836916214550001,4.553151983120188-4.93854450830986,10.937382296469877-5.377904895180109,6.707793872679758-.461618363049638,11.185950969280384,3.468845644179964,11.951456418430098,4.163571173930904Z"/>
    </clipPath>
    <clipPath id="clippath-1">
      <path class="cls-5" d="M62.95916207063965,71.303301121559343c.249903889900452.3627501032297,4.535575973310188,6.354669236710834,12.005746836690378,5.993796277491128,6.910831674349538-.333847846090066,10.567384846899586-5.815891721360458,10.912462140579009-6.35329784444184-.801002227010031-.783787847518397-4.881371159519404-4.614393832869609-11.280701923200468-4.614537537039723-6.723658983868518-.000141460639497-10.921489155509335,4.228411500389484-11.637507054068919,4.974039103990435Z"/>
    </clipPath>
    <radialGradient id="radial-gradient" cx="-55.366637203084792" cy="86.522834845034595" fx="-55.366637203084792" fy="86.522834845034595" r="17.129250662054407" gradientTransform="translate(169.132206617302018 30.674284454042208) scale(.853091239733539 .645477583935139)" gradientUnits="userSpaceOnUse">
      <stop offset=".537641841231661" stop-color="#e984a2"/>
      <stop offset=".592832570610897" stop-color="rgba(233, 132, 162, .886871293855677)" stop-opacity=".886871293855677"/>
      <stop offset=".711273432585101" stop-color="rgba(233, 132, 162, .596518194573597)" stop-opacity=".596518194573597"/>
      <stop offset=".8824215114979" stop-color="rgba(233, 132, 162, .136328760171738)" stop-opacity=".136328760171738"/>
      <stop offset=".931113028771807" stop-color="#e984a2" stop-opacity="0"/>
    </radialGradient>
    <radialGradient id="radial-gradient-2" cx="-120.80439703490083" fx="-120.80439703490083" r="17.129250662055018" xlink:href="#radial-gradient"/>
    <clipPath id="clippath-2">
      <circle class="cls-5" cx="253.518370929748926" cy="70.374510980942887" r="70.374510980948571"/>
    </clipPath>
  </defs>
  <g class="cls-31">
    <g id="Layer_2" data-name="Layer 2">
      <g id="Layer_1-2" data-name="Layer 1">
        <g>
          <g>
            <path class="cls-19" d="M69.026333737700043,130.69389747077912c21.922177262198602-4.553557561079288,40.236742857608988-1.999686473360271,53.735504121419581,0,8.248121656810326,1.221868109880234,13.579497581340547,2.534930230609461,20.736655121359945,4.29767316338075,26.876271789869861,6.619354207479773,35.935559419560377,6.332901167830641,42.565444451060102,14.230726664329268,3.883241359530075,4.625883845519638,4.522696396228639,10.13979405316968,5.801606469580292,21.167614468469765,1.828121798589564,15.764058520921026.283308418578599,29.795284574540347-2.232242170590325,41.138590926280813-55.489251975350271-9.850562046080086-134.144049755179367-19.701197222881092-189.633301730529638-29.551759268941169.441928955469848-11.718101304049924,2.197797600339982-19.557422222629611,4.545513181599745-24.817349431379625,2.251329289139903-5.04397218548911,6.128647060169897-7.639381523529664,8.096156015670203-9.340255865159634,2.80653773360973-2.426184846399337,20.888181978159992-7.814602734399159,37.736915373759985-11.764539312769557,8.198392765560129-1.921948515440818,12.354046066049705-4.053416550559632,18.64774916667011-5.360701344210611Z"/>
            <path class="cls-4" d="M68.627771300600216,131.634724214469315c3.126923428459122-.965837450759864,5.902526866499102-1.647708306429195,8.190933431889789-2.136952839298829,8.059590654458589-1.723106081230071,22.795943133469336-4.784723774580925,39.06284850162956-.034298308810321,2.852390696560178.832958928158405,5.164052831680237,1.733783166708236,6.760496501708985,2.41046174109033-.066548957378473.425182020047941-.132951653318742.850437170809528-.199500610719042,1.275619190859288-2.4061470284596,2.092562490799537-12.007333311139519,9.94848408335929-26.566928834099599,10.027245871389823-14.837638529550532.080297533198973-24.644760926519666-7.971541264680127-27.008711528160347-10.027245871389823-.079712487409779-.504967638189555-.159424974830472-1.009862145650914-.239137462249346-1.514829783840469Z"/>
            <path class="cls-10" d="M55.951205755498449,93.93250248168988c-6.604641992298639,1.609475920749901-13.138769229099125-3.613683775340178-14.47471596431933-11.570597005151285-1.3359467352293-7.956913229809288,2.999531579340328-15.828930336489066,9.604173571660795-17.438406257258976,1.623514130889816,9.669667754140391,3.247028261759624,19.339335508278964,4.870542392658535,29.009003262410261Z"/>
            <path class="cls-10" d="M133.188396798548638,90.759816890618822c5.929748516620748,1.219395438611173,11.644684787021106-4.380083336689495,12.660015122381083-12.404275839209731,1.015330335379986-8.024192502509322-3.028609270570087-15.630589392649199-8.958357787179921-16.849984831258553-1.233922433930275,9.751398256968969-2.467734901259973,19.502862413499315-3.701657335201162,29.254260670468284Z"/>
            <path class="cls-23" d="M144.121089175960151,73.692033731438642c-.160100983950542-.828065696819976-.509777158260476-2.105511806919822-1.255847045220435-2.463911050699608-1.604555036799866-.770831881289268-4.135838135620361,3.144681551770191-4.886699349910486,7.19479134005087-.291191801450623,1.570832082948982-.572921540529933,4.555147708570075.299793818570834,5.573591555939856.862167011629936,1.006143108610559,2.506783766169974-.308100669459236,3.183699851309939-2.632694166870351.498708418499518-1.712638664459519.548675265659767-4.236781763840554-.135369103019912-4.642471060458774-.419044047970601-.248508051050521-1.088739232680382.312586889089289-1.531263116350601,1.401498133529458-.513435816579658,1.263242650449683-.445649831459377,2.559054961029688-.437791796310194,2.686930753989145"/>
            <path class="cls-25" d="M43.735671330099649,77.185202304379345c.218429716949686-.818772958698901.670355036600085-2.076579620399571,1.522509985848956-2.39600333873932,1.832711164941429-.687008093011173,4.480969937219925,3.354396760480086,5.129766494301293,7.43827794516983.251602616039236,1.583928787769764.425691190619546,4.579104508680757-.599486766410337,5.551215747649621-1.012787248850145.960370502651131-2.791626961259681-.437187717940105-3.439340819730205-2.79386734533-.477192807289612-1.736277636620798-.413621867190159-4.259880007899483.371337699940341-4.629738736510262.480863700558984-.226558345510057,1.203987445300299.368430538461325,1.647815128289949,1.478850293040523.514956137540139,1.288197975260118.377722673280005,2.578906929240475.362871698100207,2.706218745748629"/>
            <path class="cls-10" d="M73.15368544859848,116.016780876909252c.118471770290853,2.071427712029617.835006588391479,16.057897763530491-3.189084542478668,17.141110023749206-.317387335229796.08541668376165-.680115718339948.09485054695142-1.097692143270251-.008336902348674,2.363950601640681,2.055704606709696,12.171146129330737,10.10747027385878,27.008711528160347,10.027245871389823,14.55959552296008-.078761788030533,24.160781805639999-7.934683380590286,26.567075095548716-10.027245871389823-.296325687158969.124980404580128-.730429655350235.252666645890713-1.214262514758957.167761877179146-2.489077267649918-.436590412738951-3.407014095249906-5.989844949028338-3.826930703269682-8.530625637438789-.343568133861481-2.07881391499177-.639747559580428-5.141016654120904-.23913746226026-8.929334335980457-14.669584129469513.053166035189861-29.339095128199915.106258939649706-44.008679257671247.159424974839567Z"/>
            <path class="cls-17" d="M84.630601630169622,134.838288640008614c8.42100268457034,2.587950004352024,20.806714353419011-1.932918123809941,32.511725258160368-12.011136108718347-.193065107139773-1.881946010280444-.269413581330809-4.232733081891638.020037817939738-6.969796629220582-14.669584129469513.053166035189861-29.339095128199915.106258939649706-44.008679257671247.159424974839567.069839839899942,1.220551756890927.346347101300125,6.576938388479903-.260711025359342,10.993814629380722,3.107031871959407,5.166758668408875,8.966923527290419,6.976232132788937,11.737627206930483,7.82769313371864Z"/>
            <path class="cls-10" d="M139.822942872569911,50.558710554689242c-3.572289527890462-19.686790470559572-20.056978187360073-45.47538902614906-45.762719634460154-45.762719634469249-25.663983804630334-.286818693261012-43.254116463929677,25.037984820859492-46.559917639369814,43.370906227588421-.9144265529103,5.070957422070933-1.65326624133013,16.273414002460413,1.676594941769508,28.483904460441408,1.095498221580783,4.017289973689913,1.141058661640272,2.659544981579529,3.859254482600591,11.041934644719731,4.716931594899506,14.545993208599612,4.804249677459666,19.326329139828886,9.83286441124983,24.980796595940774,2.258130446320138,2.539171812510176,4.431868038978791,4.039302321139985,7.281626029529434,6.006006838688336,6.696726511780071,4.621569132901641,12.713044782329234,6.577304042089963,15.945203320319706,7.600549109940403,3.75460441883115,1.188666761920103,5.676699195721085,1.799308293970171,8.557172089680535,1.860299316451346,5.030369871130461.106478331819744,8.867100091209068-1.483456703910633,10.789706783149086-2.444979442050681,11.684388041030616-5.323039022179728,17.648929760111059-11.760443992319779,20.622424932969807-15.732539179571177.332452264041422-.444196007869323.843928536511157-1.061419304938681,1.40996032790099-1.996761244459776,1.919681463050438-3.172118214899456,2.933712059870231-7.356658150729345,7.412968806980643-21.389566210958947,1.277886243269677-4.003614528610342,2.336380319309683-7.237381942490174,2.986512441450031-9.211838316619833,1.925239397949554-6.060342965431119,3.971729533639518-15.65487435237992,1.948348706229808-26.805993165640757Z"/>
            <g class="cls-28">
              <path class="cls-21" d="M103.179286358867103,89.020417134639501c-2.838020714079903,8.347015237337473-15.636800264551312,8.860300782193008-18.111848395444213-.000151366544742,3.237154829040264,1.131260548589125,5.815131307374031,2.186026273888274,8.979774680041373,2.182485408386128,3.132694649845689-.001361812985124,5.92923729089307-1.124129523881493,9.132073715402839-2.182334041841386h0Z"/>
            </g>
            <g class="cls-28">
              <path class="cls-21" d="M102.830348370585853,70.810212056514501c4.465336226508953-9.440239292749538,17.659039020032651-9.635719305730163,23.420788965117026-1.361128168198775-.922192773710776-.686235113051225-1.833325586210776-1.340776128676225-2.794812402617026-1.902543706801225-6.934747018623057-4.250742466734664-15.386459992733762-3.108872961980524-20.6259765625,3.263671875h0Z"/>
            </g>
            <g class="cls-28">
              <path class="cls-21" d="M62.867946026835853,70.056305806514501c4.533968491877204-8.266368806132959,17.014896464355843-8.803921797139992,22.136724194107046-.839889656373998-1.658879955825796-1.351272453001002-3.464360912857046-2.403030265501002-5.352788647232046-3.146682609251002-5.835696723208457-2.353816483355331-12.430653326458014-.428325198679886-16.783935546875,3.986572265625h0Z"/>
            </g>
            <g class="cls-28">
              <path class="cls-21" d="M86.049281476054603,71.980622212764501c-.598560388752958,1.499021953884949-1.927493798567411,2.601417100917388-3.399035174539677,3.192875685414037,1.042553902079817-1.178152583112023,2.295834762211598-2.087761816017519,3.399035174539677-3.192875685414037h0Z"/>
            </g>
            <g class="cls-28">
              <path class="cls-21" d="M105.846217511210853,75.978424947139501c-1.044757314462004-.49889797785363-1.934803776916851-1.316507707722849-2.542932226826451-2.299289851907815-.192480370829799-.337184757467185-.365454003642299-.693874210592185-.428320214579799-1.084987491842185.25787353515625.294677734375.49664306640625.57666015625.7484130859375.850830078125.697306413383558.788811597911263,1.57491553343425,1.704071748190472,2.22283935546875,2.533447265625h0Z"/>
            </g>
            <g class="cls-27">
              <path class="cls-21" d="M119.637355206523353,81.944245259639501c-6.22289084210297,1.319623118099116-14.680497577971437.136772573565395-17.406414248716828-6.434823083933225.472759463560578.677254724558225.948406436216828,1.343758630808225,1.552471377623078,1.888680505808225,4.080318355010604,4.142951243655261,10.32824482954311,4.603911441223318,15.85394287109375,4.546142578125h0Z"/>
            </g>
            <g class="cls-27">
              <path class="cls-21" d="M87.198146222148353,74.636872212764501c-1.291373610843948,6.316253564404178-8.450027125772976,9.836594663502183-14.450584541123135,8.251053540123394,1.515037666123135.016524584876606,3.008812080185635-.099686352623394,4.457298408310635-.392166821373394,4.420855632653002-.792784553575984,8.20053389943223-3.713737571422826,9.9932861328125-7.85888671875h0Z"/>
            </g>
            <g class="cls-28">
              <path class="cls-21" d="M102.484217999492103,67.843171040889501c.514097466837484-1.03725111980566,1.34466080729635-1.915213166124886,2.336460520699802-2.508814087777864.339809010550198-.187474974722136.699122975393948-.355199584097136,1.091029713675198-.412328490347136-.29833984375.25341796875-.5838623046875.488037109375-.86175537109375.73583984375-.798944337650028.685583498778215-1.726962145562538,1.549694884073688-2.56573486328125,2.185302734375h0Z"/>
            </g>
            <g class="cls-28">
              <path class="cls-21" d="M85.432338116679603,67.677399556514501c-.878824397848803-.575603943885653-1.867189726642209-1.375769500802562-2.70966642327403-2.004138994612731-.29423982672597-.228038739762269-.59520418219472-.442638349137269-.91020662360097-.675060224137269.39483642578125.0302734375.76483154296875.1728515625,1.11669921875.336669921875,1.030231871002798.524083342010272,1.919006241740135,1.342889578270842,2.503173828125,2.342529296875h0Z"/>
            </g>
            <g class="cls-28">
              <path class="cls-21" d="M88.660365460429603,57.271393697139501c.245540996820637-1.021294720168953.666222426463719-2.221610604223315.973618358980275-3.226568739886716.115554004300975-.353753525738284.216078906644725-.709466416363284.328749805082225-1.084466416363284.10467529296875.382080078125.0950927734375.7783203125.05950927734375,1.164794921875-.146210451350271,1.146594585656203-.617573459919186,2.259466375777265-1.36187744140625,3.146240234375h0Z"/>
            </g>
            <g class="cls-28">
              <path class="cls-21" d="M100.625941632304603,56.862214009639501c-.744180200185838-.886601339621848-1.21563943003548-1.999687882211219-1.361910895608162-3.145982015770642-.035550041891838-.386488687354358-.045132561423088-.782973062354358.059542731545662-1.164808999854358.11273193359375.374755859375.21319580078125.73046875.32879638671875,1.084228515625.307927423878937,1.006641400470471.727407210201818,2.203523617710744.97357177734375,3.2265625h0Z"/>
            </g>
            <g class="cls-28">
              <path class="cls-21" d="M131.581080792460853,68.943512837764501c-.926731868300521.693891258046278-2.063795106577345,1.103182666302018-3.21672368353029,1.1858250994228-.38782953912596.0141260724522-.78419184381346.0016749005772-1.15968012506346-.1238133806728.38055419921875-.091796875.7412109375-.172607421875,1.1009521484375-.268310546875,1.022219372265681-.251914080319693,2.240124314515924-.60464892600794,3.27545166015625-.793701171875h0Z"/>
            </g>
            <g class="cls-28">
              <path class="cls-21" d="M131.286708233867103,71.379792134639501c-1.124046007882498.277221164824368-2.330779769516084.209987866699521-3.424379569539269-.164270153572943-.362546699991981-.138220080802057-.722654121866981-.304479846427057-1.019284981241981-.566686877677057.38623046875.06396484375.74969482421875.130615234375,1.1182861328125.182861328125,1.039491120404819.167076017649379,2.298316636156414.318083789703451,3.32537841796875.548095703125h0Z"/>
            </g>
            <g class="cls-28">
              <path class="cls-21" d="M57.618312237773353,70.235016744014501c1.043870404312656.117266515993833,2.286908798810146.386295707870886,3.322209010092593.566879272810183.365474095376157.071060180314817.730769505532407.126724242814817,1.116755833657407.192153930314817-.36602783203125.151123046875-.76055908203125.190673828125-1.1484375.203125-1.155874877535098-.003302229462861-2.318375978433323-.333432775360052-3.29052734375-.962158203125h0Z"/>
            </g>
            <g class="cls-28">
              <path class="cls-21" d="M58.079188702617103,72.645417134639501c1.006811438001023-.299697366895998,2.256232592157176-.537248510972859,3.279905386573773-.77516207730514.364137582176227-.07737698519486.722230843894977-.16868557894486,1.103151254051227-.25926175081986-.2779541015625.2822265625-.62579345703125.47265625-.97802734375.635498046875-1.065418095566201.448480452912918-2.264502668916975.598115517279439-3.405029296875.39892578125h0Z"/>
            </g>
            <g>
              <path class="cls-20" d="M80.819535310140054,102.839113791820637c2.600250244129711,1.13671875,9.615005493149511,3.777099609369543,18.061447143538317,1.728820800779431,4.253677368171338-1.031555175779431,7.448410034181506-2.907348632810681,9.496353149421338-4.371704101560681-.145065307609912.829040527340112-1.538513183601026,8.143127441400793-7.601303100589575,10.955322265619543-6.335983276370825,2.938903808601026-15.379196166990369-.148559570308862-19.95649719237008-8.312438964838293Z"/>
              <path class="cls-14" d="M80.611781476054603,102.661042134639501c.306959164829095-.026946551146466.835878943471471.127751229592832,1.146893374417232.269570935217416,8.601599612412429,3.393412160938169,18.859147703689814,2.439270237551682,26.33672976791604-3.128587136638089.000019435792638.000129482670673.987324123290819-.716911532954327.987324123291728-.716911532954327-1.606743898719287,11.785428904326182-11.839676398921256,17.358326344661691-22.130366459923607,10.852232814106173-1.680640201511778-1.056624056565852-3.130880896383132-2.484572964043764-4.402226966148191-3.993833398706556-.777053856350904-.969593506280944-1.557403785440329-2.114326111197443-1.938353839553201-3.282471681024617h0ZM81.335536358867103,103.354645650264501c7.88100949514137,11.502730695157879,23.341720488961073,12.05921445156855,26.564536196021436-3.241991360771863-.000022035864276.000048001396863.759011167259814.477831204521863.759011167259814.477831204521863-7.819603996621481,5.683599903346476-18.518908324267613,6.651953502298056-27.32354736328125,2.76416015625h0Z"/>
            </g>
            <polygon class="cls-12" points="101.556361554179603 52.981354634639501 124.905726788554603 52.372956197139501 125.658473370585853 52.353424947139501 126.016322491679603 52.754303853389501 132.854152081523353 60.414704244014501 132.071193097148353 61.238434712764501 124.073207257304603 54.798737447139501 125.183436749492103 55.179840962764501 102.167811749492103 59.159821431514501 101.556361554179603 52.981354634639501 101.556361554179603 52.981354634639501"/>
            <polygon class="cls-12" points="86.120692608867103 59.540192525264501 62.931178448710853 56.746003072139501 64.020411847148353 56.308503072139501 56.363307354960853 63.150055806514501 55.539088604960853 62.367585103389501 61.975001690898353 54.366364400264501 62.311793683085853 53.947663228389501 63.064601300273353 53.928620259639501 86.414393780742103 53.338288228389501 86.120692608867103 59.540192525264501 86.120692608867103 59.540192525264501"/>
            <path class="cls-20" d="M125.724959388149728,70.588267654240553c-.224417284780429.379046796428156-4.088728716060359,6.650982484119595-11.566052246380423,6.803674474678701-6.917448483220141.141263220510154-10.941638137679547-5.076886238730367-11.322786468519553-5.589340753429497.745318192070044-.836916214550001,4.553151983120188-4.93854450830986,10.937382296469877-5.377904895180109,6.707793872679758-.461618363049638,11.185950969280384,3.468845644179964,11.951456418430098,4.163571173930904Z"/>
            <path class="cls-20" d="M62.95916207063965,71.303301121559343c.249903889900452.3627501032297,4.535575973310188,6.354669236710834,12.005746836690378,5.993796277491128,6.910831674349538-.333847846090066,10.567384846899586-5.815891721360458,10.912462140579009-6.35329784444184-.801002227010031-.783787847518397-4.881371159519404-4.614393832869609-11.280701923200468-4.614537537039723-6.723658983868518-.000141460639497-10.921489155509335,4.228411500389484-11.637507054068919,4.974039103990435Z"/>
            <g class="cls-22">
              <circle class="cls-4" cx="114.010079143802159" cy="70.989883884844858" r="5.689869061656303"/>
            </g>
            <g class="cls-29">
              <circle class="cls-4" cx="74.977992920793895" cy="70.582292509734543" r="5.689869061652638"/>
            </g>
            <path class="cls-11" d="M102.743617413554603,71.722565572139501c5.569454337107345-7.382195916434284,16.880924657235482-8.230273444392878,23.324777106856345-1.497353141810891-.000009040450095-.000205451939109-.686898688887595.726357048060891-.686898688887595.726357048060891-4.678325560128542-4.102357323066826-11.618366279230941-5.395166780917862-17.291943896016164-2.638059954520941-1.891649853983836.866575579520941-3.644762646952586,2.089964251395941-5.160936963358836,3.568968157645941.000000000002728,0-.184997558595569-.159912109375-.18499755859375-.159912109375h0Z"/>
            <path class="cls-11" d="M85.790553448710853,71.029938619014501c-6.511646220993498-5.785300254941831-16.334009551294002-5.635719707508542-22.463790556471395.612555202300427-.000015595873265-.000250514800427-.735123017746446-.678229030425427-.735123017747355-.678229030425427,4.294980725562709-5.15702856857024,12.109036050860595-6.9198231930568,18.15041104733973-3.954719654710061,1.99094637453527.922004810960061,3.78501375734777,2.229866139085061,5.22214754641027,3.848274342210061l-.17364501953125.172119140625h0Z"/>
            <g class="cls-28">
              <path class="cls-21" d="M93.237819073710853,68.689606587764501c1.114658463473461,4.178783981100423.686584783090439,8.814178349923168-1.197600698876158,12.709238436547821.541951968827561-4.309813115245561.926969164414004-8.373962621757528,1.197600698876158-12.709238436547821h0Z"/>
            </g>
            <g class="cls-28">
              <path class="cls-21" d="M108.904384015117103,93.009919087764501c5.572209478154946,3.253435462116613,6.900202914500369,11.658045876391043,2.741754520644463,16.592547749052756.640630733261787-1.407245014677756,1.070684444199287-2.868426655302756,1.319402705918037-4.337909077177756.785256202673736-4.505343816887034-.836143317852475-8.948406688250543-4.0611572265625-12.254638671875h0Z"/>
            </g>
            <g class="cls-28">
              <path class="cls-21" d="M102.302333233867103,133.571198384639501c-2.244716820962822,3.271759738980109-7.509586370665602,3.67428093271883-10.306096069622072.903920063270562,3.337550118364561,1.909169189448221,7.375737586397918,1.623102401585129,10.306096069622072-.903920063270562h0Z"/>
            </g>
            <g class="cls-28">
              <path class="cls-21" d="M80.906703351054603,95.648346822139501c-3.225384834741817,3.305787002542274-4.847235199486022,7.748759840214916-4.062573591292676,12.25416659354596.248547712386426,1.46971035957904.678418317855176,2.93064785957904,1.318677106917676,4.33811856270404-4.158117569900242-4.934836620604983-2.828079235560836-13.340186776680639,2.743896484375-16.59228515625h0Z"/>
            </g>
            <g class="cls-27">
              <path class="cls-21" d="M76.011683819804603,99.261139790889501c-2.665561601101217,3.388596409196907-2.89610970101694,7.737633033228121-.812749716638791,11.481694580232215-3.237108271609941-2.992138995561618-2.875625703603873-9.004749843597892.812749716638791-11.481694580232215h0Z"/>
            </g>
            <g class="cls-27">
              <path class="cls-21" d="M114.040553448710853,95.078278462764501c3.688443397460105,2.477645970649974,4.048519323207984,8.49015117007184.811312764060858,11.481691954197231,2.084012031730708-3.743878489323833,1.853669742597958-8.093026760501743-.811312764060858-11.481691954197231h0Z"/>
            </g>
            <path class="cls-12" d="M136.47351596649969,78.827026416889566c-.081298828130457-7.290771484369543-1.072265625-12.999450683590112-1.981201171880457-16.909912109369543-.437255859369543-1.881210327150256-1.388427734369543-4.631744384771082-2.395385742189319-9.049377441409888-.797607421871362-3.498947143560144-1.305908203121362-6.404281616210938-1.614379882810681-8.342872619630725-4.866943359369543-1.4072799682599-10.678588867189319-3.500778198240369-16.939086914060681-6.677017211910425-6.517578125-3.306701660159888-11.8115234375-6.919303894048426-15.9140625-10.132087707519531,2.553100585941138-6.276184082029431,5.106323242191138-12.552368164069776,7.659423828121362-18.828552246099207,3.12158203125-.733093261720569,11.281616210939319-2.221740722650793,19.479248046878638,1.902648925779431,3.794921875,1.909301757819776,7.601928710941138,5.01318359375,10.8623046875,9.950012207040345,9.626831054691138,14.576477050779431,10.286865234371362,38.770202636709655.843139648441138,58.087158203119543Z"/>
            <path class="cls-12" d="M117.157475927429914,9.178085376848685c-.999755859371362,2.799827575679956-7.502685546871362,20.098800659179688-26.148681640621362,27.605125427249732-13.956420898439319,5.618423461910425-26.432861328128638,2.416130065921607-30.342041015628638,1.242073059082031-1.984008789060681,3.231369018549231-3.968139648430224,6.462738037109375-5.9521484375,9.694107055658606-.500122070310681,5.522277832029431-1.000244140621362,11.044555664069776-1.500366210930224,16.566833496101026-.177490234380457,5.204879760740369-.354858398441138,10.409744262689856-.532348632819776,15.614624023428405-2.367431640621362-4.358215332029431-5.205444335930224-10.812576293938037-6.566162109371362-19.041931152340112-.663330078128638-4.011856079097925-.752075195308862-7.093627929689319-.797485351558862-8.904678344728381-.159301757819776-6.355453491210938-.333740234380457-13.316528320310681,2.927734375-20.760345458980737,1.897094726558862-4.329780578609643,4.305786132808862-7.337394714359107,6.74267578125-10.380172729490369.526123046869543-.656906127929688,4.012573242180224-4.979461669920056,7.6298828125-7.984748840328393,8.553344726558862-7.106300354011182,19.25927734375-7.955085754401807,25.018920898430224-8.517066955570044,13.664184570319776-1.333244323730469,24.38818359375,2.583045959469018,29.52001953125,4.866180419918237Z"/>
            <ellipse class="cls-18" cx="121.899413445847131" cy="86.522834845031866" rx="14.831661226057802" ry="11.907359779827857"/>
            <ellipse class="cls-13" cx="66.075033785542473" cy="86.522834845031866" rx="14.831661226062351" ry="11.907359779827857"/>
            <g class="cls-27">
              <path class="cls-21" d="M125.598536847148353,99.659333150264501c.859040787552658-3.096546046983349,1.671646033763864-6.164660368587647,2.320780302123239-9.307134018416036.525600397590097-3.057267181153293,1.840252957250414-6.902808671728053,5.300601313991137-7.613411755701236-3.122809435792078,1.38399155789557-3.895246422359378,4.712621946253421-4.493371319350445,7.791484614484943-.684244862157357,3.142080754498238-1.688499384960778,6.246017187329926-3.128010296763932,9.129061159632329h0Z"/>
            </g>
            <g class="cls-27">
              <path class="cls-21" d="M63.648402569804603,99.659333150264501c-1.439483795124943-2.883010331312107-2.443820376458461-5.987005741766552-3.127868943436624-9.129149139942456-.597536283717091-3.077534721805932-1.371708734706772-6.409098660944437-4.4934952165504-7.791406867478145,3.461687928164793.712806495863333,4.773965065551238,4.55455748633176,5.300394624121509,7.61353092813988.649326927556103,3.142384500644766,1.461921307927696,6.210450056390982,2.320969535865515,9.30702507928072h0Z"/>
            </g>
            <path class="cls-12" d="M115.650517919619233,10.633163501848685c.191528320310681-1.0023345947302.455688476560681-3.112823486328125-.332641601560681-5.589317321779163-.759521484378638-2.385971069330481-2.11669921875-3.920532226560681-2.838989257808862-4.635589599609375-.043212890630457,1.420455932619006-.0947265625,2.854850769048426-.1552734375,4.30288696289972-.059326171880457,1.418571472160693-.1259765625,2.823379516599744-.19970703125,4.214172363279431,1.175537109369543.569282531729186,2.35107421875,1.138565063471106,3.526611328119543,1.707847595209387Z"/>
            <path class="cls-12" d="M114.540750514719548,8.929143228278917c.499635888600096-.590991319259047,1.611897276659874-1.764177507919158,3.392644281790126-2.578793187209158,1.715658791259557-.784835582080632,3.195266279630232-.845084448579655,3.923640883638654-.827160839920907-.80687946092803.720740921769902-1.618265967088519,1.452585169019585-2.433669420588558,2.195761195951491-.798806681579663.728059626058894-1.586442246280058,1.453097911798977-2.362866081009997,2.174866095789184l-2.519749663830225-.96467326461061Z"/>
            <path class="cls-12" d="M99.117207275499823,16.958250050329298c-3.540458627219778.551561378670158-5.12060234754972,1.53907159397022-6.047163741050099,2.77430143851052-1.011067336250562,1.347883906539209-1.534956075440277,3.393798321580107-1.86353744886037,4.614426070729678-.229112114719101.851180037050653-.401491738090044,1.745408209919333-.518972668209244,2.735901441159513-.197543960490293,1.665381064740359.010222372109638,4.077794644619644,1.929451780828458,7.20550510278008.781629799550501-2.727634992459571,1.563101826030106-5.45512812709967,2.344663758931347-8.182666215729114.245322673219562,2.234817977248895.955248787009623,5.89945593388984,3.263873658628654,9.732319275728514,1.344540113081166,2.232142363540333,2.853889995059944,3.894624256010502,4.107768791471244,5.066675307421974-.700843265220101-3.9427417336301-1.401701223599957-7.885518100491026-2.102454582400242-11.828304788110472.353142090820256,1.718085500499001,1.753939783440728,7.446573360970433,7.109601322879826,11.807325645599121,4.275964885409849,3.481618058649474,8.79594640437972,4.23734299149146,10.685522722100359,4.444391021839692-2.005363900560042-2.421667278689711-4.010817707519891-4.843289603399171-6.01620854553039-7.265020376338725.995101911539678,1.252304218198333,2.75551847503084,3.149522431969672,5.468357358260619,4.715778816100283,2.531831782969675,1.461722705689681,4.884043829229995,2.052336027869387,6.417468850819205,2.313559002968759-.801720483999816-2.094203499500509-1.60352842553948-4.18835627280896-2.405266051580838-6.282600177739369,1.524504083161446.429510234489499,3.380989982071696.810038767229344,5.510158896961002.955318691379944,4.02514066546064.274671763760125,7.371790296760082-.404149315700124,9.645470030840443-1.076479874809593-1.748029652089826-2.895509687279628-9.941405078059688-15.958393944411-22.903993922640439-20.489787515190983-.365823303789512-.127883656999984-7.116529290049584-2.41031845407997-14.624740211449534-1.240642866299822Z"/>
          </g>
          <g>
            <path class="cls-2" d="M203.674434887880125,100.830259648910214c-14.253630810280811,3.946795006730099-28.507211738660772,7.89326721785983-42.760842548941582,11.840062224589929,11.982258346650269-7.900813343261689,23.964397551430011-15.801711198400881,35.946655898071185-23.70252454166075,2.27149160549925,3.954102848410912,4.542695045380242,7.90835946865991,6.814186650870397,11.862462317070822Z"/>
            <g class="cls-30">
              <circle class="cls-2" cx="253.518370929748926" cy="70.374510980942887" r="70.374510980948571"/>
              <g>
                <rect class="cls-16" x="252.358122717600054" y="14.543671394469129" width="2.320496404689038" height="17.032957111390715"/>
                <path class="cls-6" d="M245.676314329384809,27.544133267788993h15.68411316243089c5.37710835633294,0,9.74263811945093,4.365529763117983,9.74263811945093,9.742638119450916v.000009752244765h-35.169389378271035v-.000009775306474c0-5.377108343604824,4.365529752784397-9.742638096389207,9.742638096389214-9.742638096389207Z"/>
                <path class="cls-8" d="M242.762040131082642,91.340508142658905h21.512677839133516v13.120481878674866c0,1.999352198174179-1.623220316511777,3.622572514685942-3.622572514685942,3.622572514685942h-14.267532969021573c-1.999352110276249,0-3.622572355426001-1.623220245149781-3.622572355426001-3.622572355426016v-13.120482037934792h0Z"/>
                <path class="cls-9" d="M212.751195189747477,90.203626426138612h81.523018061754101v2.044299605646273c0,2.407542370590733-1.954618947264237,4.362161317855026-4.362161317854998,4.362161317855026h-72.79869561782391c-2.407542264744563,0-4.362161126075193-1.95461886133063-4.362161126075193-4.362161126075193v-2.044299797426106h0Z"/>
                <path class="cls-9" d="M228.199122357336307,99.091388186350741h50.638500164724178c5.377108364343485,0,9.742638133965045,4.36552976962156,9.742638133965045,9.742638133965059v.000009729658402h-70.123776486183942v-.000009676128727c0-5.377108393887326,4.365529793607379-9.742638187494734,9.74263818749472-9.742638187494734Z"/>
                <path class="cls-4" d="M287.51943697383382,63.095328787276486h14.130865222604541c3.152087832993629,0,5.711183231301732,2.559095398308102,5.711183231301732,5.711183231301717v.094149210049991h-25.553230478364071v-.094150416893896c0-3.152087166918321,2.559094857539492-5.711182024457813,5.711182024457798-5.711182024457813Z" transform="translate(336.828125657476505 -232.919198302280336) rotate(85.415954509711128)"/>
                <path class="cls-4" d="M198.880979889976459,62.503866186198138h25.553230476527602v.672339939202217c0,3.437532859656855-2.790840544035888,6.228373403692743-6.228373403692757,6.228373403692743h-13.096484956942788c-3.437532148900317,0-6.228372115892057-2.790839966991754-6.228372115892057-6.228372115892064v-.672341227002896h0Z" transform="translate(294.31680654900822 -139.755164034452321) rotate(94.584046059702359)"/>
                <circle class="cls-15" cx="253.518370919949575" cy="13.266613292689726" r="3.66568635273029"/>
                <path class="cls-12" d="M289.804122476180055,95.154912128309661h-72.571503092860439c-2.705748507620228,0-4.706928290599535-2.500964071290582-4.450027194639915-5.522867847119414l4.077958374340596-47.968646311770499c.205576999549521-2.418183187781324,2.321556203818545-4.376615208549993,4.704262572828156-4.376615208549993h63.907115587800945c2.382706369009611,0,4.498685573280454,1.958432020779583,4.70426257282088,4.376615208559087l4.077958374349691,47.968646311761404c.25690109595962,3.021903775828832-1.744278687019687,5.522867847119414-4.450027194639915,5.522867847119414Z"/>
                <path class="cls-12" d="M310.887241564440046,132.359340511799019h-114.737741269380422c-4.27787022422126,0-7.441795985530916-1.312694757149075-7.035627583010864-2.898818000059691l6.447375525131065-22.651185710090431c.325023453829999-1.269245099869295,3.670450572239133-4.823559388520152,7.437581405109086-4.823559388520152h101.03908257492003c3.767130832869952,0,7.112557951269991,3.964331825460249,7.437581405110905,5.233576925331363l6.447375525129246,22.24116817327922c.406168402520052,1.586123242910617-2.757757358789604,2.898818000059691-7.035627583009045,2.898818000059691Z"/>
                <rect class="cls-7" x="219.960918051978297" y="70.456418000720078" width="67.11492603464103" height="15.562426264639726" rx="4.611541975749787" ry="4.611541975749787"/>
                <circle class="cls-26" cx="235.104579367429324" cy="54.893614500316744" r="8.817010532606446"/>
                <circle class="cls-26" cx="271.602228113966248" cy="54.893614500316744" r="8.817010532605309"/>
                <path class="cls-24" d="M228.917328860748967,70.456418000720078v15.562426264639726"/>
                <path class="cls-24" d="M238.757749744168905,70.456418000720078v15.562426264639726"/>
                <path class="cls-24" d="M248.598170627588843,70.456418000720078v15.562426264639726"/>
                <path class="cls-24" d="M258.438591511008781,70.456418000720078v15.562426264639726"/>
                <path class="cls-24" d="M268.279012394428719,70.456418000720078v15.562426264639726"/>
                <path class="cls-24" d="M278.119433277839562,70.456418000720078v15.562426264639726"/>
                <circle class="cls-4" cx="235.104579367429324" cy="54.893614500316744" r="5.995567162171255"/>
                <circle class="cls-4" cx="271.602228113966248" cy="54.893614500316744" r="5.995567162174666"/>
                <path class="cls-6" d="M297.083734821530015,142.951460212700113h-87.13072778356036c-3.248573153659891,0-5.651227687259961-1.41762194751027-5.342787342149677-3.130528248340852l4.89607443533896-25.836288268550561c.246819658170352-1.370699243329,2.787304561819838-3.834586427828981,5.648027175780953-3.834586427828981h76.728099245619887c2.860722613959297,0,5.401207517608782,2.337427896240115,5.648027175779134,3.70812713956002l4.896074435340779,25.962747556819522c.308440345119379,1.712906300830582-2.094214188489786,3.130528248340852-5.342787342149677,3.130528248340852Z"/>
                <rect class="cls-4" x="216.686106023395013" y="73.185589240522745" width="3.314899998868924" height="17.42531200134205" transform="translate(430.646569692508706 -14.583159273112614) rotate(135.000000000133383)"/>
                <path class="cls-4" d="M223.592939906418906,89.38847813961911c-1.90055652061892-1.064117167848963-2.576099591809907-2.920374732679193-1.508867680709955-4.146067313989988s3.47309979126112-1.356675333759995,5.373656311870946-.292558165920127c1.90055652061892,1.064117167850782,2.576099591809907,2.920374732670098,1.508867680709955,4.146067313989988s-3.47309979126112,1.356675333759995-5.373656311870946.292558165920127Z"/>
              </g>
            </g>
          </g>
          <g>
            <path class="cls-3" d="M130.017210489810168,130.573587165799836c-.769434777570495,6.649865880650395,2.793754264948802,13.401523999629717,9.082450288538894,17.333038800288705,2.028185231751195-.424632310459856,4.879060169791046-1.26934129457004,7.917933760631058-3.059659792139428,2.145982445519621-1.26418778030893,3.797323819868325-2.653270456488826,5.004387278590002-3.835344193830679-.79696464755034-3.705012872847874-2.105363679440416-6.536010403950058-3.098528587290275-8.432168090599589-1.761175115130754-3.362488826629487-4.398521840479589-6.957502930928968-8.355818203370291-9.828268966328324-1.658158387139338-1.203037963141469-3.320996669590386-2.113854099570744-4.893595595829538-2.80900826458128-1.265394436270071,1.151251311521264-4.986681388330908,4.840881582540533-5.65682894126985,10.631410507190594Z"/>
            <path class="cls-4" d="M123.395415374099684,118.562104277949402c-.098137850831336.408430405539548-.084045334730035.830646717549826.050478410070355,1.228578616259256,1.177590154809877,3.483405007011243,2.921957361159002,7.654528816810853,5.54706847935995,12.0866913368518,1.380763067320004,2.331335097509509,2.809300130669726,4.404063548528939,4.203341887028728,6.227786011368153,1.089208778550528,1.424931862431549,3.334134947561324,1.020390400381075,3.886861095519635-.685862916448968l15.453531516641306-47.704707846049132c.224953924900547-.694427759452083.096073368500583-1.454984569481894-.345096414101135-2.036537150390359-4.462146512099935-5.88202756136161-8.924270092529696-11.763895805341235-13.386410275388698-17.645879394380245-1.138035802359809-1.500156346261065-3.507955423900057-1.00350961661934-3.947874950759797.82735503171898-3.820640598480168,15.900807713131144-7.641254282840237,31.801802411629978-11.461899748370342,47.702576311070516Z"/>
            <path class="cls-1" d="M146.186530787659649,97.640417089009134c1.659124242589314,10.173074912650918,5.849669931489188,18.003287429590273,9.322821953290259,23.145324926101239-.308663894389611-9.172086253640373-.617289917350718-18.343909396280651-.925953811731233-27.515995649921024-1.663459260449599-2.492648900139102-3.592682150769178-5.127249740859043-5.826681027479935-7.824064056649149-3.664341624509689-4.423507924231671-7.358075737878607-8.060463759360573-10.746654583868803-11.010316686481019-.084815347059703-.022973564970016-.208842189991628-.047822881759203-.357876593590845-.044902094219651-1.037318838549254.021473054239323-1.741705731110414,1.365228740440216-1.852306485088775,1.576392939719881-.693750786320379,1.323425408840194-.000149464471178,3.46474126989051,1.670345358099439,5.37655190059013,2.666262090750024,2.750077328679254,5.332599924349779,5.500680879380525,7.998862015099803,8.250758208070692.041135301418763,2.477204357259325.249361475689511,5.175823913319618.717443175270091,8.046250512788902Z"/>
            <path class="cls-3" d="M154.780852846868584,116.252532537069783c-.869813512708788-7.518884887869717-1.739758580928537-15.037750840039735-2.609572093650058-22.556635727920366-2.601648776138973-1.728367645899198-5.516140354968229-3.48636588645968-8.748490001069513-5.181961722530104-5.302091271980316-2.781046742618855-10.316215382819792-4.793827874180352-14.760743457109129-6.268485073649572-.090793227600443.011994261269137-.220142203141222.03786354867043-.362158459711281.100737763339566-.988985120269717.437501361460818-1.126111380008297,2.013019203450312-1.147691029358612,2.260516832961002-.135065169341033,1.551587709209343,1.392700253458315,3.331936236048932,3.767576609119715,4.498885452998366,3.66965223599982,1.573031001571508,7.339342343419048,3.146325114141291,11.008994579418868,4.719356115700066,4.284040574590108,7.475949823370684,8.568043277771721,14.951636535741272,12.85208385236001,22.427586359101042Z"/>
            <path class="cls-10" d="M135.705143015229623,115.826179210909686c1.191717171319397,1.869551912359384,1.892698073530482,3.633626075628854,2.315989100119623,4.997881210019841-.006304419699518,1.399944227410742-.056731926879365,3.584934595830418-.296429414989689,6.280861711369653-.134401217339473,1.511618334710874-.243077682189323,2.226039328719708-.453195123940532,4.178971970730345-.322261971999978,2.995412913320251-.582519225539727,5.414837302740125-.613682787319703,6.945387881009083-.044389905160642,2.180668140001217.316884134519569,5.479745310301951,2.441835989249739,9.677343982049933,1.674973100491115-.346659760129114,3.802535549650202-.958255822699357,6.109042931750082-2.082262355779676,3.11598316080017-1.51850218995969,5.359743765349776-3.38775331746001,6.813278107470978-4.81274163019043,1.526456305389729-2.386099397188445,4.192123118449672-7.324056886549442,4.28847064583897-13.93895140236782.041885292919687-2.875386206851545-.41231246587995-5.337748154750443-.937285723910463-7.233218719700744-1.446360811100021-6.960152026471405-2.892661209649305-13.9203127485398-4.339022020749326-20.880464775009386-1.102063059550346-1.10573452089011-2.4709680367705-2.319574680530422-4.134744828810653-3.505524604990569-2.273175340349553-1.620160464450237-4.446039596139599-2.724200854740047-6.246822015918951-3.481227131720516-3.000369930710804-.128786264480368-6.182605584710473-.172444361840462-9.528354444450088-.096864051480225-2.797356794300867.063243680329833-5.474236527579706.204355732630574-8.020389159550177.402868230590684-.0690883269599.081228155799181-.159657986510865.205999969719414-.225323134409336.37355856071008-.467145402670212,1.191994073329624,1.024506066738468,2.752231749900602,1.376170248709968,3.120190659079526,1.466263620008249,1.533799811741119,3.421708518009837,1.89931935119057,4.387323925919191,2.003535017740433,3.374453602249559.083574747250168,6.749062812030388.167373753520224,10.123516414279948.250948500779486,1.565655227290335,1.458322815629799,3.131466062110121,2.916869890259477,4.697121289400457,4.375192705891095.322677632839259,2.5528230096279.645269222990464,5.105905060689111.967946855820628,7.658728070327925-2.030812811141004-.932834602848743-4.061625622271094-1.865669205688391-6.09243843341028-2.798503808528039-1.692525433860283-.562703619099921-3.750526616940988-1.102647195941245-6.122019897909922-1.436894133719761-3.076547607570319-.433542046810544-5.77708136281035-.393361087280937-7.908218161401237-.206733346451074-1.185948476890189.433391312739332-2.397898211640495.896917436550211-3.633015313009309,1.393130349859348-1.052876115680192.423116910200406-2.076882374500201.851451332750003-3.071813735379692,1.283000501080096-.074357174220495.143157399119445-.158224898919798.353047743670686-.168501110480065.609816553131168-.047900765121085,1.212059318648244,1.603653175368891,2.128446197179073,2.102909049548543,2.405357347619429,2.170518921251642,1.204273933279183,4.650550097161613.578943065160274,5.569024476870254.296526640029697,2.624988088040482.268654151750525,5.249890133380177.537567344930721,7.874878221409745.806221496679427.844168016010372.855006807811151,1.811470797611037,1.982851549781117,2.723748049251299,3.413864571240993Z"/>
          </g>
        </g>
      </g>
    </g>
  </g>
</svg>