<?xml version="1.0" encoding="UTF-8"?>
<svg xmlns="http://www.w3.org/2000/svg" width="306.527002843014998" height="248.436774149891789" xmlns:xlink="http://www.w3.org/1999/xlink" viewBox="0 0 306.527002843014998 248.436774149891789">
  <defs>
    <style>
      .cls-1 {
        fill: #27201d;
      }

      .cls-1, .cls-2, .cls-3, .cls-4, .cls-5, .cls-6, .cls-7, .cls-8, .cls-9, .cls-10, .cls-11, .cls-12, .cls-13, .cls-14, .cls-15, .cls-16, .cls-17, .cls-18, .cls-19, .cls-20, .cls-21, .cls-22, .cls-23, .cls-24, .cls-25 {
        stroke-width: 0px;
      }

      .cls-2 {
        fill: #3657a6;
      }

      .cls-26 {
        clip-path: url(#clippath);
      }

      .cls-3, .cls-27, .cls-28, .cls-29, .cls-30, .cls-31 {
        fill: none;
      }

      .cls-27 {
        stroke: #151c22;
        stroke-width: 6.81410537707063px;
      }

      .cls-27, .cls-32, .cls-29, .cls-30, .cls-12, .cls-14, .cls-15, .cls-31, .cls-19, .cls-33, .cls-25 {
        mix-blend-mode: multiply;
      }

      .cls-27, .cls-28, .cls-29, .cls-30, .cls-31 {
        stroke-miterlimit: 10;
      }

      .cls-4 {
        fill: #79c4e0;
      }

      .cls-5 {
        fill: #e2bc86;
      }

      .cls-6 {
        fill: #000;
      }

      .cls-28 {
        stroke: #27201d;
        stroke-width: 1.85461063707757px;
      }

      .cls-29 {
        stroke-width: .276469632559509px;
      }

      .cls-29, .cls-30, .cls-14, .cls-34, .cls-33 {
        opacity: .6;
      }

      .cls-29, .cls-30, .cls-31 {
        stroke: #f1b068;
      }

      .cls-7 {
        fill: #505050;
      }

      .cls-30 {
        stroke-width: .292654423188996px;
      }

      .cls-8 {
        fill: #5e5a5b;
      }

      .cls-9 {
        fill: #910000;
      }

      .cls-10 {
        fill: #e08362;
      }

      .cls-11 {
        fill: #dc5b42;
      }

      .cls-12 {
        fill: url(#radial-gradient-2);
      }

      .cls-12, .cls-19 {
        opacity: .4;
      }

      .cls-13, .cls-21 {
        fill: #e9e9de;
      }

      .cls-14, .cls-15, .cls-22 {
        fill: #f1b068;
      }

      .cls-31 {
        stroke-width: .618203545692524px;
      }

      .cls-16 {
        fill: #0b2645;
      }

      .cls-35 {
        isolation: isolate;
      }

      .cls-17 {
        fill: #4d3329;
      }

      .cls-18 {
        fill: #68bf4b;
      }

      .cls-19 {
        fill: url(#radial-gradient);
      }

      .cls-20 {
        fill: #fff;
      }

      .cls-21 {
        mix-blend-mode: screen;
      }

      .cls-23 {
        fill: #c74530;
      }

      .cls-24 {
        fill: #0e9347;
      }

      .cls-25 {
        fill: #151c22;
      }
    </style>
    <radialGradient id="radial-gradient" cx="226.961469452375241" cy="104.811398577085129" fx="226.961469452375241" fy="104.811398577085129" r="17.129250662063559" gradientTransform="translate(48.423371824083688 37.157990254685501) scale(.853091239733539 .645477583935139)" gradientUnits="userSpaceOnUse">
      <stop offset=".537641841231661" stop-color="#e984a2"/>
      <stop offset=".592832570610897" stop-color="rgba(233, 132, 162, .886871293855677)" stop-opacity=".886871293855677"/>
      <stop offset=".711273432585101" stop-color="rgba(233, 132, 162, .596518194573597)" stop-opacity=".596518194573597"/>
      <stop offset=".8824215114979" stop-color="rgba(233, 132, 162, .136328760171738)" stop-opacity=".136328760171738"/>
      <stop offset=".931113028771807" stop-color="#e984a2" stop-opacity="0"/>
    </radialGradient>
    <radialGradient id="radial-gradient-2" cx="161.523709620551017" fx="161.523709620551017" r="17.129250662059896" xlink:href="#radial-gradient"/>
    <clipPath id="clippath">
      <path class="cls-3" d="M45.740775249150829,124.271282661809892c11.754296111190342-2.44153960129006,21.5742526137401-1.072197649729787,28.812057286659183,0,4.422501613580607.655144760508847,7.28109410406978,1.359186188270542,11.11863943697972,2.304338768330126,14.410596776229795,3.54918439389985,19.268031696219623,3.395593178500349,22.822862537670517,7.630271988449749,2.082127530729849,2.480319716700251,2.424992373080386,5.436783964560163,3.110722057770545,11.349712460309092.980207608539786,8.452418277280231.15190512342997,15.975721453991355-1.196890032910233,22.057808107310848-29.752386859439866-5.281702714390121-71.925742754310704-10.563444640220041-101.678129613739657-15.845147354610162.236954739510111-6.283045289759684,1.178421444079504-10.48635494670998,2.43722634273945-13.306637859099283,1.207124219090474-2.704491526350466,3.286075623080251-4.096105576551054,4.341020238649435-5.008085277300779,1.504817481099963-1.300878775129604,11.199885543261189-4.190056189800089,20.23388791726029-6.307944554959249,4.395837833519181-1.030515887659931,6.624027982930784-2.173372554530943,9.99860382892075-2.874316278430342Z"/>
    </clipPath>
  </defs>
  <g class="cls-35">
    <g id="Layer_2" data-name="Layer 2">
      <g id="Layer_1-2" data-name="Layer 1">
        <g>
          <g>
            <path class="cls-8" d="M245.383080814759523,18.921390689309192c0,3.559342460919652-.947859378638896,6.570993265700963-2.763650994718773,9.419104936199801-1.820436766380226,2.855397697510853-4.099054833970513,5.197335059559919-7.198780737349807,6.826134872680996-2.927324161109937,1.538208601399674-6.120697135731461,2.518499267620427-9.715116688810667,2.518499267620427-3.594498008820665,0-6.90372833910078-.759971686909921-9.831096810459712-2.298242728311379-3.099712926499706-1.628834455979813-5.11180236177097-4.287240335319439-6.932207795980503-7.142667614658421-1.815713735830286-2.848068037650592-2.864696078018824-5.763568765960372-2.864696078018824-9.322828735701478,0-3.559342460928747.297334988808871-6.954141320329654,2.113126604888748-9.802252990830311,1.820436766380226-2.855397697509034,4.631257594550334-4.94506885265946,7.730983497929628-6.573868665778718,2.927324161109937-1.538208601390579,6.189471049890926-2.545269030530108,9.783890602981046-2.545269030530108,3.594498008809751,0,6.684439397160531,1.334935749890064,9.611807868519463,2.873206791298799,3.099712926490611,1.628834455981632,6.462768138460888,3.148456127461031,8.283173572670421,6.003883406790919,1.815713735830286,2.848068037659687,1.78256695834898,6.485040521469273,1.78256695834898,10.044300491219474Z"/>
            <path class="cls-4" d="M189.553870378469583,149.502702103349293c23.453550167170761-8.445511803489353,47.271441980481541-2.158807264169809,55.450262943581038,0,3.579422734079344.944737586609335,6.022051235038816,1.779599150690046,7.990311138699326,2.575973921149853,3.325258967679474,1.345377561639907,4.485296205590203,2.155034049121241,7.906092978581,3.569536910639727,3.219608946019434,1.331341201610485,5.707516027679958,2.060024493921446,8.123581094609108,2.759729494560816,24.678939489920594,7.14737489440995,27.672004603749883,7.933712912819828,30.442450029080646,10.214395023420366,4.426584979259133,3.644095640209343,8.72171114585035,11.462951886609517,6.417031387469251,30.290842247970431-58.941845231069237,10.847163188898776-117.88369046212938,21.694326377799371-176.825535693209531,32.541489566698147-.082407016900106-48.354430166869861,7.725884227329516-61.683085971839319,15.356985292370155-64.280265361629063,3.312279107880386-1.127285731190568,17.752071283579426-6.256896140350364,27.862174642748869-9.679051270759373,2.454853717741571-.830937420420014,3.688393185011591-3.099620707120266,17.276646186070138-7.992650532050902Z"/>
            <path class="cls-2" d="M189.142589936980585,150.473550338168934c3.226702590329296-.996657025829336,6.090874677729516-1.700286170129402,8.452303590600422-2.205142345099375,8.316769705668776-1.778089864659705,23.523430110069967-4.937402834029854,40.309407409798951-.035392757259615,2.943409603660257.859538390570378,5.328836164309905,1.789107652639359,6.976221859309589,2.487378831559909-.068672514089485.438749447119335-.13719409956866.877574358550191-.20586661364905,1.31632380568044-3.698052615569395,11.77258191439978-14.294297003010797,19.99751156550883-26.326325184911184,20.540024426769378-12.943335083078637.5835654411203-24.940045972020016-7.840665429439468-28.958972796248418-20.540024426769378-.08225608830071-.521080999729747-.16451217660142-1.042086535160706-.246768264900311-1.563167534881359Z"/>
            <path class="cls-22" d="M176.061542553999971,111.568227617010052c-8.210815876069319,1.660833800830005-16.333968609369549-3.728995309700622-17.994802410190459-11.93981118576994-1.6608338008391-8.210815876080233,3.728983575671009-16.334026619930228,11.939799451740328-17.994860420771147,2.018334319480346,9.978223868851273,4.036668638960691,19.956447737700728,6.055002958450132,29.934671606541087Z"/>
            <path class="cls-22" d="M253.762698638600341,109.716675083949667c8.3086101250301,1.069039164609421,16.025250363050873-4.888203739610617,17.094289527680303-13.196813864640717,1.069039164600326-8.308610125028281-4.888209139440733-16.025325633918328-13.196819264470832-17.094364798529568-1.299208734919375,10.097038063981017-2.598261528290095,20.194140599191087-3.89747026320947,30.291178663170285Z"/>
            <path class="cls-31" d="M268.251662208649577,91.7647896253402c-.258481563769237-.848988760790235-.800217923339005-2.155445274931481-1.85439572299947-2.501367162960378-2.267196842680278-.743998099080272-5.623432277709071,3.375075642979937-6.49493112197888,7.576326431189955-.33796957442064,1.629451079939827-.602054114040584,4.716494965539823.656807063569431,5.739169920549102,1.243645944448872,1.010323358470487,3.477066182918861-.397539968378624,4.319720891910038-2.816707637159197.620812859859143-1.782315706950612.581969169459626-4.387354812241028-.387879075800811-4.784026045899736-.594126162290195-.242983093659859-1.502471036868883.357048806450621-2.071845580669105,1.494252526290438-.660620463049781,1.31926867977927-.510582705410343,2.653637425019042-.494149235450095,2.785280933439935"/>
            <path class="cls-31" d="M160.875328961850755,94.286526257988953c.271549342080107-.844899751198682.833377764220131-2.142842635419584,1.892767114070011-2.47245906606986,2.278405695100446-.708930309288917,5.570690908560209,3.46143452619981,6.377267416019095,7.675631099520615.312789513300231,1.634471466719333.529214451040389,4.72522232079973-.7452751360197,5.728353329479432-1.259085599440368.991015629089816-3.470518916890796-.451138243139212-4.275749425749382-2.88301879033861-.593240675671041-1.791681720320412-.514210005290806-4.395811464690269.46164280902849-4.777472271211082.597804288490806-.23378775242054,1.496783511051035.38018704327078,2.04854504334071,1.526039949631013.640187618710115,1.329303975209768.469580535329442,2.66119905369851.451117971750136,2.792573350998282"/>
            <path class="cls-22" d="M197.726104153709457,132.730685699340029c3.252511381329896,3.970780600069702,3.75555641307983,9.430547326939632,1.316248341381652,13.601987503880082-3.070793344071717,5.25148525557961-9.177968310861615,5.678839593228986-9.652940622550886,5.704044669830182,4.097409697460535,12.852400600138935,16.282781339379653,21.298968903849527,29.287997149440343,20.56749343240881,11.881099579519287-.668236387049546,22.312831790359269-8.876563891899423,25.997300831710163-20.56749343240881-.619712841380533-.149947566480478-7.43745966817005-1.926301752209838-10.091690069670221-8.775441728310398-2.424818925870568-6.256971604650971.583339048209382-11.694099041160371.987223988180631-12.395388792130689-12.61476351570127.621599448910274-25.229376102790411,1.243198897820548-37.844139618491681,1.864798346730822Z"/>
            <path class="cls-15" d="M235.570243772201138,130.865887352609207c-12.61476351570127.621599448910274-25.229376102790411,1.243198897820548-37.844139618491681,1.864798346730822,2.841230939849993,3.468792068550101,3.582894091950948,8.073321870018844,2.099265930541151,11.963204739209687.086180231950493.862028712510437.314686135960073,2.091794964719156.972131127949979,3.393856017470171,2.008708769089935,3.978704351689885,6.34488751552999,5.311328446430707,8.33669228116014,5.923419393380755,6.508041334720474,2.000030374469134,16.487742381428689-2.214499918451111,25.330800123589142-11.123966245660995-2.02546184395942-6.11389128960036.676160138680643-11.243199841550449,1.105250155251269-12.021312251130439Z"/>
            <path class="cls-22" d="M262.609652932700556,64.336936744090053c-3.686280184560019-20.314989880631401-20.696990173260929-46.926494659730452-47.222993899109497-47.222993899120411-26.482989074180296-.295970989269335-44.634417439661775,25.836939191680358-48.045705710701441,44.754858464370045-1.782466794129505,9.88499334871085.050862939000581,20.066787794010452,1.730094569111316,29.392817063799157,2.547674808209194,14.148952758911037,6.585316779130153,21.180414486691006,8.448983161350043,24.539707854210064,1.936112111348848,3.489846608570588,4.476542346659699,6.59467435248007,7.193559046729206,9.501559234360684,5.324459234829192,5.696875561210618,10.880895731530472,10.911534237809974,17.663476193980387,14.889785803699851,2.983405683289675,1.768883219920099,6.347000515979744,3.286847638379186,9.76055271605037,3.966856456410824,10.029054699689368,1.997841909729686,19.229209515089678-4.005569642920818,26.061747344929245-10.734268594320383,6.645990077289753-6.545094306600731,13.715485812870611-13.956594255170785,17.445686220740754-22.609934744150451,1.925547109200124-4.466807451799468,3.92655851956988-12.204313181518955,4.954080444589636-18.817023501989752,1.986673193159731-6.25372663969938,4.098466197699963-16.154416563060295,2.010519912329983-27.661364137269629Z"/>
            <path class="cls-8" d="M264.068388404100915,81.861361326769838c-4.753208080781405-2.442082805100654-14.165140378670912-8.251761168670782-22.817883210351283-21.113035637559733-9.248039713578692-13.745901832369782-12.707506853359519-28.231657011419884-14.011653504368951-35.052058139501241.938168231139571-.455098777509193,15.733074665949971-7.241820837039995,27.933752054139404,5.995786535271691,10.383408399669861,11.265977491118974,14.355957807729283,32.118408077249114,8.89578466058083,50.169307241789284Z"/>
            <path class="cls-8" d="M235.057593357510996,38.075902827849859c-3.407134820061401,4.683196693129503-6.93299030117123,9.87916665144985-7.443906264761608,15.76505061611897-.107655426818383,1.466618846450729.129604336121702,2.846709986630231.613330506750572,4.294379408520399,1.041076929299379,2.965977898640631.068683852039612,6.463779420409992-2.483102577829413,8.331165972440431-1.183255031230146.959055486440775-2.539197595029691,1.656307897299484-3.930910237600983,2.218479209019279,2.621668424520976-1.216752625769004,5.373410363141375-3.125549998600036,6.081669144410625-6.066238048839296.35453017556938-1.414689056829957.123005699520945-2.891412234690506-.356947256059357-4.269352642289959-1.867438505840255-4.337349728699337-.448081150780126-9.370211726640264,1.421781215958617-13.439208538689854,1.268219264300569-2.791653361480712,2.835763728640813-5.420452293470589,4.52872986156035-7.948129061860527l1.569355607571197,1.113853085580558h0Z"/>
            <ellipse class="cls-19" cx="242.042213170953346" cy="104.8113985770824" rx="14.831661226062806" ry="11.907359779827855"/>
            <ellipse class="cls-12" cx="186.217833510640048" cy="104.8113985770824" rx="14.831661226060532" ry="11.907359779827857"/>
            <path class="cls-1" d="M182.115063921510227,87.478697135858965c6.776599727549183,5.425133835860834,12.27601322926057,6.825992143390977,20.626013252320263,4.279737549040874-.000036689820263.000291747830488.958825614869056,1.546922607209126.958825614869056,1.546922607209126-6.743575922178934,7.349260791321285-19.15758338508931,3.559277441780068-21.584838867189319-5.82666015625h0Z"/>
            <path class="cls-8" d="M222.542744576590849,79.4198800540089c8.615080753068469,5.544008586890413,20.348738278849851,6.287392769130747,29.296457742979328,1.310801834400991-2.377134079319148.780351683750268-4.799538147550265,1.344220942250104-7.241562934090325,1.592423028869234-7.25273681653016.834507535120792-14.609591324509893-1.126711687658826-20.7357674975392-4.994833163509611-.000011326530512.000039728429329-1.319127311349803,2.091608300239386-1.319127311349803,2.091608300239386h0Z"/>
            <path class="cls-8" d="M204.038897924550838,77.328311482198842c-8.223417549621445,5.30890316158002-18.69867804506066,6.660531536470444-27.977346865251093,3.40228526403007,8.9486855565101,4.976679117200547,20.680681619471216,4.233303247710865,29.296450847141386-1.310804840468336.000012002928997.000088148248324-1.319103981890294-2.091480423561734-1.319103981890294-2.091480423561734h0Z"/>
            <g class="cls-32">
              <path class="cls-22" d="M221.281567827760227,107.309141471800103c-2.000592723779846,4.490942890808583-9.458475825720598,5.189733264000097-11.789951462489626.70825120490008,4.151126344189834.975721469309065,7.779435216280035.685944680968532,11.789951462489626-.70825120490008h0Z"/>
            </g>
            <path class="cls-1" d="M246.593091265260227,85.971617057730327c-1.938350860249557,9.501309799139563-14.39656839555937,13.790093399269608-21.216367733710285,6.469801759840266.000059139960285.000168943288372.657651913399604-1.161452150461628.657651913399604-1.161452150461628,8.599559630980366,1.969350871049755,13.875135673581099.357155873751253,20.558715820310681-5.308349609378638h0Z"/>
            <path class="cls-8" d="M169.885717277309595,81.604730522909449c1.055741661741195,6.556861196420869,1.621373663021586,13.531055807679877.872506472989699,20.117020203309949.000162705990078-.000010916859537-.187743403979766-.00219938158989-.187743403979766-.00219938158989-.42659303831897-6.505602832479781-2.129882051360255-12.998510449810055-4.275218020258762-19.126574154619448.000165357789228-.000041643010263,3.59045495124883-.988246667100611,3.59045495124883-.988246667100611h0Z"/>
            <path class="cls-8" d="M259.85652108631075,76.215975703458753c-1.732033582309668,9.59554885299076-3.003313438110126,19.599192194751595-2.9779725499302,29.35593569077173-.000150632280565-.000020670320737-.22971303650047.015487243699681-.22971303650047.015487243699681-1.456765572780569-9.725794703370411-1.646497137080587-20.063183764790665-1.318338584009325-29.918506371190233-.000173686401467.00000498522968,4.526024170439996.547083436718822,4.526024170439996.547083436718822h0Z"/>
            <circle class="cls-13" cx="260.493531063410046" cy="109.018168985482589" r="3.48394003128351"/>
            <circle class="cls-13" cx="169.796734570070385" cy="109.855615515237332" r="3.483940031281463"/>
            <path class="cls-11" d="M226.867627398070908,125.044737174919646c-7.062048191161011-4.357611141120287-15.63714283389163-3.495157986340928-21.722378822651081,2.131470134969277-.000033286720281-.000244549029958-.9969815289096-.918457439658596-.9969815289096-.918457439658596,5.432148226189383-7.409940640611239,16.756628036779148-8.491252793020976,23.461807134519404-2.201802543489976-.000015142330085-.000223823690249-.742446782958723.988789848179294-.742446782958723.988789848179294h0Z"/>
            <path class="cls-8" d="M242.042213170951072,23.860074049949617c-3.784232847530802,8.551690075270017-12.584879652431482,25.339780375430564-30.769059524631302,39.654150882550312-19.434925200139332,15.298877780460316-39.246115406009267,19.630604133129964-48.53924224048933,21.061105426510039-.510893319060415-1.82759444624935-8.043287078140565-30.588171594670712,11.024126975200488-51.500989669340925,16.227390542309877-17.797953578699889,44.638492511920049-22.143867219989261,68.284174789920144-9.214266639719426Z"/>
            <g class="cls-33">
              <path class="cls-22" d="M203.977368609010227,95.727232292108965c-1.199563930140357,2.870426451499952-4.506408964300135,4.673278166270393-7.568824984400635,4.360267787800694,3.003258379871113-.450694357659813,5.590889495229931-2.108774921669465,7.568824984400635-4.360267787800694h0Z"/>
            </g>
            <g class="cls-33">
              <path class="cls-22" d="M203.977368609010227,97.757749870230327c-.87196194651915,2.088718887809591-3.270877331340671,3.38770774043951-5.496322526309086,3.166276951829786,2.176632810049341-.333757227590468,4.072660865038415-1.516141973070262,5.496322526309086-3.166276951829786h0Z"/>
            </g>
            <g class="cls-33">
              <path class="cls-22" d="M214.242505327760227,90.042661979608965c2.032113378591021,3.461290696310243,1.298960858599457,8.131476807191575-1.093208536740349,11.232546571640341,1.534478618719731-3.556320172488995,1.941837283440691-7.460244245368813,1.093208536740349-11.232546571640341h0Z"/>
            </g>
            <g class="cls-33">
              <path class="cls-22" d="M225.082349077760227,94.571104362419646c2.226990482789915,1.988819590260391,4.65054540104029,3.601771033769182,7.568900575930456,4.360255261070051-3.030830235749818-.026029575410575-6.061615914810318-1.711771211559608-7.568900575930456-4.360255261070051h0Z"/>
            </g>
            <g class="cls-33">
              <path class="cls-22" d="M245.952588335570908,85.288877799919646c1.556279913669641-.869492591860762,2.946170676459587-1.92686332995072,3.939663704819395-3.427528473639541-.596331406441095,1.708303872550459-2.158742936040653,3.078260323680297-3.939663704819395,3.427528473639541h0Z"/>
            </g>
            <g class="cls-33">
              <path class="cls-22" d="M246.664380327760227,86.209898307730327c1.761577656050576-.273564000570332,3.432522375480403-.781052517530043,4.886212286890441-1.842088640811198-1.153668637511146,1.393868577790272-3.095079054481175,2.134509274410448-4.886212286890441,1.842088640811198h0Z"/>
            </g>
            <g class="cls-33">
              <path class="cls-22" d="M181.825879351199546,86.867735221800103c-1.860427131288816-.12099282779127-3.514510044758936-1.634089508579564-3.939705331909863-3.427477807759715.844151348421292,1.604415734298527,2.273207291849758,2.76253407430886,3.939705331909863,3.427477807759715h0Z"/>
            </g>
            <g class="cls-33">
              <path class="cls-22" d="M181.114087359010227,87.788755729608965c-1.786104618300669.534147293081332-3.863600830400173-.308812755209146-4.886233721470489-1.842026531319789,1.349733476170513,1.210206234740326,3.092519187030121,1.798716693030656,4.886233721470489,1.842026531319789h0Z"/>
            </g>
            <g class="cls-33">
              <path class="cls-22" d="M225.082349077760227,96.454405143669646c1.32933379978931,1.187646525710079,2.782296778250384,2.156848690770858,4.524805520510199,2.606645200459752-1.809420429639431-.00673002296935-3.613955462909871-1.036891655479849-4.524805520510199-2.606645200459752h0Z"/>
            </g>
            <g class="cls-33">
              <path class="cls-22" d="M202.606030718390684,113.402769401480327c-3.408763265260859,4.411096294348681-5.58826100358965,9.701388874329496-5.58021034254125,15.325481212799787-.75448177313956-5.604997295520661,1.418536260031033-11.506229129860003,5.58021034254125-15.325481212799787h0Z"/>
            </g>
            <g class="cls-33">
              <path class="cls-22" d="M228.056714312140684,113.402769401480327c4.467936898248809,3.551290052890181,6.653029170480295,9.7411076515491,5.58021008482865,15.325429741849803.313511110131003-5.641484286710693-1.846945130968379-11.142712287910399-5.58021008482865-15.325429741849803h0Z"/>
            </g>
            <g class="cls-34">
              <path class="cls-4" d="M227.629224077760227,93.250425651480327c4.995395628389815,3.339791412439808,12.229453093359552,2.148743746669425,15.938442866099649-2.606343815290529.282992680780808-.349466731580833.79581006358967-.403421809709471,1.14541943858967-.120340755020152.328369140621362.265869140630457.395874023441138.734375.168334960941138,1.079956054689319-1.943828145680527,2.914622556090762-2.951966219250608,6.336817945730218-2.96935957075948,9.486328454820978.05800679578897,3.369241963990135-.582891650781676,7.425548179418911-1.092626192730677,10.716420579428814-.757353418810453,5.367630481101514.904040314029771,10.641641909531245.73099230176922,16.03674955022143-.046692085159521,1.866702587400141-.307800483598839,3.723880321778779-.591247749220202,5.634036571778779-.107365238918646.824084678090003-.872440571689367,1.403856345241365-1.695191194919971,1.280637532030596-1.04196518496974-.133249050859376-1.612768235179828-1.379572916290272-1.047335771960206-2.25649008181972,1.821628529380177-2.942238270519738,2.265109974690859-6.530128895519738,1.72519298250154-10.001076161150195l-.640502929680224-5.34423828125c-.519052171910516-3.529488762669644-.056846426310585-7.346214198059897.149575024370279-10.820921683269262.173703337828556-1.834493187650878-.596691980821561-3.497163419930075-.515847541160838-5.329953602080423.094299860540559-1.998294636519859.692688532410102-3.913333699019859,1.560608454290559-5.605716511519859.848022460930224-1.710693359380457,1.941040039058862-3.22509765625,3.0302734375-4.701171875l1.289428710930224.995971679680224c-4.429191770210309,5.314205625500108-12.20662165181966,6.787882819859078-18.462434774730355,3.980898299209002-1.8160404465998-.810439814069468-.442966367039844-3.467157470609891,1.276277548169674-2.424745955459002h0Z"/>
            </g>
            <g class="cls-34">
              <path class="cls-4" d="M201.906201616820908,96.098203971800103c-5.791351803150974,2.424881444880157-12.3600890832804,1.620123792579761-16.93409987205996-2.711566727710306-.394269268561402-.305523116039694-.859723370120264-.687114912920151-1.132184307620264-.80955143635947-.083187213040219-.013546559061069.131445218179579.088793919689124.204710996009453.085071596278794.618577741859553.123594382550436,1.239273040981061-.539995801918849,1.101894938339683-1.165779963310342-.075130365699806-.169341830889607.393788656951074.513238428771729.378340397610373.47252838093118,1.035189004889617,1.35426850472868,1.876498733190601,2.994143865229489,1.998042713950781,4.763330350779142-.043014639300964,2.168242668891253-.922226506070729,4.12293849425987-.790239350610136,6.297503305160717.370221793769815,4.091286965369363.08491560002949,8.235393394859784.482803636499739,12.315666698190398.410376093828745,1.864478645020426.171598347349573,4.241568749548605,1.394141495959047,5.593137572319392.552448726921284.637809637779355.48323485974106,1.602653387779355-.154582523078716,2.155021551840036-.909245410470248.826464837240565-2.445921898261076.177910846579834-2.530735657890546-1.031801181039555-.414874722879176-1.754494443741351-.059832770779394-3.377964765781144.00087506734053-5.031919684690365-.15337443531098-2.584955938600615-.234149808560687-5.233053464700788-.308876650400634-7.799567701900742.007163729509557-2.055824488488724-.553643636050765-4.086969165738992-.761576590839468-6.120221005860003-.315156299941009-1.968871591529023.356741880868867-4.114098418878712-.216610251411112-6.02308323303987-.158059341960325-.762730871199892-.39888540299944-1.807334296849149-.684063291089842-2.535248385958766-.285323617439644-.844436324710841-.749160482830121-1.551420115270957-1.028727699669616-2.489385400911488-.272518969499288-1.031179789379166.813230415529688-1.96946831799869,1.769616970799689-1.485694157849139,1.149827768329487.730156726280256,1.623044159330675,1.726432238150664,2.590008798209965,2.519154279849317,3.566894061699713,3.377222830120445,9.440424399450421,3.236525350881493,13.344904943780421.577447772120649,1.692356952760747-1.070982370039928,3.13294243530072,1.623072321670406,1.276356236170614,2.424957371160417h0Z"/>
            </g>
            <g>
              <circle class="cls-28" cx="191.31694422902001" cy="91.903502838882105" r="18.855411200904427"/>
              <circle class="cls-28" cx="237.19097344807733" cy="91.903502838882105" r="18.855411200907838"/>
              <path class="cls-28" d="M209.974285130330827,90.790999906899742c.655935705959564-.39724408147049,2.573181742020097-1.438840098660876,5.100783046109427-1.151811629080839,1.514719453509315.172020874560985,2.64683489996969.752907332980612,3.288885174510142,1.151811629080839"/>
            </g>
            <g class="cls-34">
              <path class="cls-4" d="M188.621289507449546,124.689878776480327c.24906382682093.700557121019301.745438349920732,1.276782928360262,1.290318138670045,1.695283479688442,1.960190511919791,1.876895071491163-.782364813529057,4.841299710100429-2.805639549658736,3.030850039411234-.899445338811347-.83477439455055-.710302932280683-2.212847133680043-.652121198159875-3.282646513031068.078819562269928-.55945380293997.229698468519928-1.087041693568608.434776593519928-1.56824286543997.313048667119801-.798510345370232,1.531692061638751-.688841938928817,1.732666015628638.124755859371362h0Z"/>
            </g>
          </g>
          <g>
            <path class="cls-23" d="M237.642650656609476,173.104495479330581c-8.78231578265877-.39092958854053-16.218760711359209,6.411658100629211-16.6096668975988,15.194043094848894-.015277523340046.341891398229563-.015780623551109.680946648459212-.00949800465969,1.018401583070954.004471089700019.61949483331955.027828972499265,1.230752539429886.073045763989285,1.8318426709302,1.272796955949161,16.911775024478629,18.214518179720471,28.515588394559018,26.755284313929224,33.514013541878739,1.629541193051409-4.34752381771068,3.258989772230052-8.69509344467042,4.888530965281461-13.042617262379281-1.306074944081047-1.983869528750802-2.612173290470309-3.967808269069792-3.918271636870486-5.951747009390601-1.229236461749679-1.867247474330725-2.458588939691253-3.734609969460507-3.68789461301094-5.601834041479378,1.387062463199982-1.221276129421312,2.774148328709998-2.442483047270798,4.161234194220015-3.663689965131198,1.506934032049685-1.326823938969028,3.013868064101189-2.653647877919866,4.520825498460908-3.980402605318886-1.229390712789609-4.107122735560552-2.458712214031038-8.214268873440233-3.688102926809734-12.321391609000784-2.724354570491414-4.029290230890183-7.253038505310542-6.763698991899219-12.485486656931243-6.996618398028659Z"/>
            <path class="cls-23" d="M276.3019019982803,180.300291151099373c-4.972495767950022-1.645010766920677-10.177960948660257-.701993261560347-14.158222140280486,2.09351175169104.067870664959628,4.286636474258557.135668364109733,8.573276676468595.203539029091189,12.859913150739885-1.810619975320151.867671666368551-3.621236222701555,1.735416298568452-5.431852470070226,2.603160930759259-1.666590578101022.798642209940226-3.33318115621114,1.597284419880452-4.999768006360682,2.395999595639296.67605125324917,2.130885467720873,1.352109962399481,4.261916867080799,2.028088249830034,6.392806062751333.718263413300519,2.264067906418859,1.436526826601039,4.528135812850451,2.154786511960992,6.792130753448873-2.748911344649969,3.741637912011356-5.497745995531659,7.483345061909858-8.246657340181628,11.22498297393031,10.667434083361513-1.765410530899317,30.619849241251359-6.735618622889888,37.640330556439949-21.975612423349958.111944701729954-.243111594620132.219587096620671-.490246441670024.325162487741181-.739177745430425.222718254299252-.496258920749824.422605185160137-1.008396765058933.597191138589551-1.53606788523939,2.761143767140311-8.346207457900164-1.766390558859712-17.350503397799912-10.112598016759875-20.111647164940223Z"/>
          </g>
          <g>
            <path class="cls-22" d="M141.809703706050641,225.434975201409543c-2.044427471049858-1.256032536110069-.823275826011013-8.767507946200567,2.813218291579688-13.886267431680608,1.964727721329837-2.765476062648304.704871781559632-3.331556925370023,11.207454049719672-8.689491979979721,1.552994741530711-.792160319198956,2.664397653919877-2.1364047570205,3.769553210209779-1.716043069849547,1.375979467729849.523368350530291,1.946909946120286,3.143578829020043,1.474118808509957,5.208348433010542-.498426835669306,2.178254725919032-1.974311764819504,2.93513950068882-4.197728588829705,5.299052620019211-3.083078152369126,3.277819134329548-2.512421884199284,4.232887105570626-5.103701871668818,7.322433181410815-2.780320345211294,3.314990904378647-8.00708045175088,7.663429587808423-9.962913899520572,6.461968247069308Z"/>
            <g>
              <path class="cls-16" d="M184.921109841830912,243.525314185590105h-26.425279141290957c-3.140183054429144,0-5.84682747728948-2.23278336013027-6.017499632520412-5.006171790601002l-3.321153677989059-53.968083861498599c-.239329995340086-3.889064617800614,2.682662718019856-7.132962909121488,6.497975657179268-7.132962909121488h32.10663444796046c3.815312939150317,0,6.737305652510258,3.243898291320875,6.497975657170173,7.132962909121488l-3.321153677979964,53.968083861498599c-.170672155230932,2.773388430470732-2.877316578089449,5.006171790601002-6.017499632529507,5.006171790601002Z"/>
              <path class="cls-25" d="M168.992945114410759,189.710115369429332l-14.106352067359694.000000016909325c-1.493539318231342.000000001791705-2.782747507300883-1.243091459289644-2.865537923691591-2.774091204079014l-.181341841589528-3.353459558709801c-.085041146359799-1.572621313649506,1.097252797180772-2.869359792910473,2.627983997270348-2.869359791029638l14.457626313569563.000000017718776c1.530731190310689.000000001880835,2.783147609130538,1.296738475901293,2.783147597470816,2.869359779570004l-.000000024840119,3.353459531921544c-.000000011350494,1.530999743179564-1.221986734190068,2.774091205908917-2.715526050829794,2.774091207698802Z"/>
              <path class="cls-21" d="M174.625914033209483,186.908477070450317h-.000003196528269c-.879044140721817-.00000000468026-1.595594452290243-.736270626070109-1.59231933789124-1.640210814710372l.000009366980521-.002585310230643c.003291430639365-.908443513599195.731728982909772-1.655079001810009,1.618735221429233-1.655078997910095h.000003273500624c.887006224300421.000000003910827,1.603478455230288.746635486530067,1.592211499499172,1.655078985610089l-.000032064628613.00258533915985c-.01121110350141.903940188860361-.739560621381315,1.64021080276143-1.618604762361429,1.640210798081171Z"/>
            </g>
            <path class="cls-22" d="M153.785060506141235,213.111107114929837c-2.989375197081245-.659626248019777-5.89014024988137-.02109765339992-7.448607677550172,1.130103918829263-4.469294438240468,3.301295888109962-5.802179264170263,11.387296132790652-4.875018542081307,17.231751848579734,1.098214004270631,6.923276107900165,5.347605978229694,10.573007856390177,6.604052382999726,11.546258836680863.164074827591321.126991644499867.340159088660585.237267455919209.497255461661553.343323736669845,3.748566140189723,2.532205276880632,7.103904478928598,3.536940447620509,8.063523129329042,3.806341252569837,3.954024826371096,1.1101422929205,7.163464777380796,2.01125552755002,9.417181029379208.366450010589688,2.2371627085613-1.632877228308644,3.280685103631185-4.185693289658957,3.280685103631185-4.185774434488849.039436382900021-.097617219380481.068973097659182-.174136785361043.088447854639526-.225095732810587.010711116339735-.028157252800156,1.833872949349825-5.210065507020772-.129669423589803-12.155169571709848-1.801090441760607-6.37043644401092-5.77377857690044-10.636300816589937-7.770914905640893-12.530302078130262-.375375940868253-.073273773150504-1.321849130299597-.309892070510614-2.168189610909394-1.134404594329681-.800412512049661-.77963943793111-1.072572240898808-1.657707543459765-1.165726495150011-2.031541732740152-.787591630369207-.649077421319816-2.275949932889489-1.6947907265494-4.393018306718659-2.161941459709851Z"/>
            <path class="cls-22" d="M147.382084989010764,219.306838759819584c-1.656977240079868-2.164943818079337-1.459146167049767-2.862789276679905-1.020152686700385-3.369782116840724,1.048466646019733-1.661975430659368,2.265021086719571-3.413948456849539,3.489632231239739-4.928051549688462,2.1293085264806-2.645369897691126,4.723972108460657-4.931825338680937,7.649205507870647-6.723586057740249,6.113819494459676-1.059085610129841,12.033711686910465-3.261480817551274,18.309731815468695-2.97677240125995,1.094340794590607.025168432899591,1.969966192540596.964196971710408,1.857090487330424,2.065014611649531-.061495963869675.633078123670202-.441091435419366,1.167497913249463-.955711888729638,1.458320950880079-1.376053870579199.764871080560624-2.80322897824044,1.317548454810094-4.229430348059395,1.870306973880361-4.185343711771566,1.47692342604023-8.646490433409781,3.538063130279625-13.047910770979797,4.158670735909254-.000014118821127-.000079816389189,1.720742950379645-1.161586780859579,1.720742950379645-1.161586780859579-1.442814422400261,3.852585047559842-3.913551477950023,7.115575962279763-6.650223702079529,10.116379049210082-.000081228761701-.000054244099374-1.390254298150467,1.463068019160346-1.390254298150467,1.463068019160346-.533033046869605,1.3503053735094-4.697961356590895-.330928911271258-5.732719297589938-1.971981434300687h0Z"/>
            <path class="cls-22" d="M151.205791233220225,226.231737764139325c-.171539525110347-1.472043120309536-.502366125399931-3.172683459710242.700155808830459-3.806552538550022,2.796749204469961-1.467646191898893,5.682483097549266-2.728404040319219,8.70518823384009-3.678306779169361,3.866276511958858-1.228918514880206,7.797348556719953-2.330753644340803,11.595727178289962-3.758626383070805,4.300958585528861-.964314757429747,9.010936554688669-2.160036332308664,13.39036877494982-2.570780986079626,2.166619456920671.046493429119437,6.282847187509105-1.756196302549142,6.741081743759423,1.482622265190003.059480957870619.903533561089716-.472323642688934,1.63907135997033-1.215461720488747,2.031832036640481-5.255334982961358,3.201502981350131-11.422832155660217,3.727828119770493-17.233040092050942,5.307230597760281.000014718480088.000065544729296.467895755020436-.165307600000233.467895755020436-.165307600000233l-2.589493520339602,1.332641391469224c-5.295377925740468,2.939506713220908-10.362576551851816,6.49381964676104-16.130014084481445,8.453564748720964-.63895758318904.281366869539852-1.164768720549546.005773739379947-1.810281591770035-.498753760381078-1.021961992848446-.779105496509146-2.484772866999265-2.637466086889617-2.62212648555942-4.129562992529827h0Z"/>
            <path class="cls-22" d="M154.839294017550856,233.927756000210138c.267453329259297-4.407543229641306,2.553952088848746-3.722112928620845,4.170356918539255-4.726848099360723,5.285828130379741-2.194019927059344,10.624460380009623-4.251763592530551,16.029829559569407-6.139105892680163,3.419602993941226-.88340780353974,9.069517734811598-2.362503870230285,11.436481257340347-2.700985006698829,2.342076802460724-.741002667951761,4.717023416689699-1.403144405410785,7.12264277317081-1.991931224900327,1.289228912350154-.315653352779918,2.590304968540295.473642318820566,2.905958321329308,1.762871231179815.254470157929973,1.040114312600053-.213248588979695,2.089073410659694-1.079226116209611,2.620977710790612-5.166662045330668,3.503638931630121-12.952362276879285,6.330884273578704-17.666924864559405,8.00382185755916-5.138095051390337,2.284032811608995-10.343156708540846,4.398486145370043-15.600334618180568,6.386824373870695-1.865851275410023.375520238128956-3.061601354240338,2.441386230058924-6.2763968634099-.585883598319924-.745558613220055-.702064989291102-1.095130501091262-1.68148297595144-1.042386367589643-2.629741351440316h0Z"/>
            <path class="cls-22" d="M161.443995559120594,241.679196148859774c-.346001515750686-2.289014249030515.04641483747946-2.986129404249368.614753162139095-3.31582081103079,3.742823441791188-2.72490829356866,8.422830590021476-3.638904624309362,12.567616130700117-5.586065525509184,2.533612047180213-1.063524168590448,8.479689272009637-3.483662934289896,10.905420932520428-4.588103790079913,2.131588513770112-.740814766610129,5.219369251579337-3.447335702159762,6.820804577650051-.555276661450989,1.271550134029894,2.892118640500485-2.543033565789301,3.88386812807039-4.266904627620534,5.29773952737014-1.933413506189027,1.241029713850367-4.681112241469236,3.226769820439586-6.601988645548772,4.561260081940418-3.263901983871619,2.423442884270116-7.11748760511,3.767534060911203-10.02810755290011,6.709041602989601-1.539180484711324,1.396121220790519-3.204254442691308,2.517358275919833-5.216113390240935,2.998290226500103-.611978207200082.264398780371266-1.500676284249494-.047603055480067-3.595673266829181-2.959322659089594-.58375971544956-.744028045479354-1.086525610200624-1.648148286090873-1.19980731987016-2.561741991639792h0Z"/>
          </g>
          <rect class="cls-2" y="43.663865589040142" width="120.763823240189595" height="137.676486855449184" rx="12.65185262039995" ry="12.65185262039995"/>
          <g>
            <path class="cls-13" d="M45.740775249150829,124.271282661809892c11.754296111190342-2.44153960129006,21.5742526137401-1.072197649729787,28.812057286659183,0,4.422501613580607.655144760508847,7.28109410406978,1.359186188270542,11.11863943697972,2.304338768330126,14.410596776229795,3.54918439389985,19.268031696219623,3.395593178500349,22.822862537670517,7.630271988449749,2.082127530729849,2.480319716700251,2.424992373080386,5.436783964560163,3.110722057770545,11.349712460309092.980207608539786,8.452418277280231.15190512342997,15.975721453991355-1.196890032910233,22.057808107310848-29.752386859439866-5.281702714390121-71.925742754310704-10.563444640220041-101.678129613739657-15.845147354610162.236954739510111-6.283045289759684,1.178421444079504-10.48635494670998,2.43722634273945-13.306637859099283,1.207124219090474-2.704491526350466,3.286075623080251-4.096105576551054,4.341020238649435-5.008085277300779,1.504817481099963-1.300878775129604,11.199885543261189-4.190056189800089,20.23388791726029-6.307944554959249,4.395837833519181-1.030515887659931,6.624027982930784-2.173372554530943,9.99860382892075-2.874316278430342Z"/>
            <g class="cls-26">
              <path class="cls-27" d="M6.238956231200063,143.083729080139165h108.537210576800135"/>
              <path class="cls-27" d="M6.238956231200063,132.021568373458649h108.537210576800135"/>
              <path class="cls-27" d="M6.238956231200063,165.208050493500195h108.537210576800135"/>
              <path class="cls-27" d="M6.238956231200063,154.14588978681968h108.537210576800135"/>
            </g>
            <path class="cls-7" d="M45.527072894299636,124.775737853569808c1.676602805249786-.517865504669317,3.16483384671119-.883472982950479,4.391838266510604-1.145797524959562,4.321414518019083-.923899978890404,12.222794411329232-2.565486967099787,20.944830558690228-.018390165951132,1.529403054779323.446618315920205,2.768876712900237.929624849321044,3.624862475529881,1.292448315271031-.03568241154062.227975319459802-.071286400199824.455989850370315-.106968811749539.683965169830117-1.290134840221071,1.121996180119822-6.438126539929726,5.334206834239012-14.244732379720517,5.376437556469682-7.955687739440691.043054162499175-13.214098857730278-4.274203942741224-14.481608696349213-5.376437556469682-.042740470969875-.270755001871294-.085480941941569-.541470792310065-.128221412911444-.812225794190454Z"/>
            <path class="cls-5" d="M38.730115488669981,104.560452072599219c-3.541295956028989.862973432340368-7.044783107450712-1.93759536926882-7.761094873689217-6.203956010160255-.716311766251238-4.266360640898711,1.608297476868756-8.487201434099916,5.149593432888651-9.350174866449379.870500480270493,5.18471029220018,1.741000960530073,10.369420584409454,2.611501440800566,15.554130876609634Z"/>
            <path class="cls-5" d="M79.846842400800597,102.965213958648746c3.198077395039945.555475446570199,6.168298929029334-2.539922993539221,6.579784115519942-6.857097772868656.411485186479695-4.317174779340348-1.88152662307948-8.32679962308066-5.079604018121245-8.882275069650859-.500080040348621,5.246446447710696-1.000100057048257,10.492926394819733-1.500180097398697,15.739372842519515Z"/>
            <path class="cls-29" d="M85.423807281040354,93.637368990939649c-.099492458270106-.441136701669166-.308012870169478-1.119974801940771-.713777750299414-1.29971668753933-.872669539621711-.386583289011469-2.164522270180896,1.753697817679495-2.499971967750753,3.9366783248297-.130088286719911.846666891409768-.231737393349249,2.45070268139898.252812418839312,2.982087167709324.478693297980499.524966565590148,1.338361843121675-.206562770359596,1.662709108910349-1.463568393379319.238957845391269-.92609573720074.22400647250106-2.279680627480047-.149299014588905-2.485792001099981-.228685835640135-.126254628379684-.578317984291061.185523460490003-.797476643851041.776417381899591-.254280239149011.685495333849758-.19652902036978,1.378836699810563-.190203593128899,1.447238998860485"/>
            <path class="cls-30" d="M32.180355075959596,95.580836453560551c.117118274420136-.439012041970273.359432893250414-1.113426438651004.816343787009828-1.284695967471635.98266834819151-.368361976979941,2.402619360180324,1.798570111241133,2.750492965831654,3.988277281001501.134905014949254.849275497039343.228248328008704,2.455237437199685-.321434540141126,2.976466839700151-.543039182570283.514934220698706-1.496822580269509-.234412569130654-1.844115661459-1.4980238358512-.255862613090358-.930962341370105-.221776963429875-2.284074725430401.199104916908254-2.482386643230711.257830883221686-.121476705888199.645557454301525.197546146700915.883530259010513.792934207251164.276110664210137.690709698659703.202528430299935,1.382765741140247.194565591669743,1.451028157409382"/>
            <path class="cls-5" d="M47.953790570789351,116.401664035920476c.063522534841468,1.11066407358885.447716236281849,8.609969848248511-1.709932530318838,9.190769716149589-.170177655050793.045798963388734-.364666403689625.050857239310062-.588563733259434-.004470104309803,1.267509838618935,1.102233613728458,6.525960168350139,5.419452507529058,14.481608696349213,5.376437556469682,7.806605839790791-.04223072223067,12.954597539499446-4.25444137634986,14.244810802609209-5.376437556469682-.158884759968714.067012353109021-.391643875269438.13547552953969-.651066770629768.089951046249553-1.334600614609371-.234092304310252-1.826782625259511-3.211652307569238-2.051934720959252-4.573975411150968-.184215351029707-1.114624429159448-.343021688109729-2.75652510889995-.128221412909625-4.787756188879939-7.86557984744104.028506717790151-15.731120483440463.056974224140504-23.596700330881504.085480941941569Z"/>
            <path class="cls-14" d="M54.1075165272905,126.493434249259735c4.515197460710624,1.387614483190191,11.156203997699777-1.036397603849764,17.432230439479099-6.44016553487927-.103518204919965-1.009067229300854-.144454949589999-2.269519008490533.010743934901257-3.737085620401558-7.86557984744104.028506717790151-15.731120483440463.056974224140504-23.596700330881504.085480941941569.037446926400662.654438954568832.185705385800247,3.526441757969224-.139788788079386,5.894695175549714,1.665937293229945,2.770327536229161,4.807910869689294,3.740536227240227,6.293514744580534,4.197075037789546Z"/>
            <path class="cls-5" d="M83.700704935230533,80.018936151509479c-1.915400482510449-10.555719986299664-10.754208301939798-24.383124996718834-24.537186749419561-24.537186749419561-13.760588714530968-.153787272609407-23.192116679991159,13.42493877736888-24.964630670559927,23.254737351679069-.490299861470703,2.718960548179894-.886453052491561,8.725525965641282.898961502249222,15.272581889381399.587387390029107,2.154002102548475.611816117929266,1.426002484178753,2.069266177999452,5.920496303899199,2.529137961049855,7.799312511720927,2.575956421909723,10.362446792340052,5.272213545600607,13.39427543030979,1.210770883129953,1.361460451869789,2.376291763039262,2.165804746369759,3.90428320592946,3.220318036081153,3.590670098759801,2.478006241659386,6.816516948059871,3.526637815179129,8.549545017280252,4.075284301248757,2.013154605559976.637342766191068,3.043748916110417.964758300680842,4.588209164330692.997460642691294,2.697198198278784.057091858459899,4.75438725236927-.795404085900373,5.785256043000118-1.310956115530644,6.264968815348766-2.854122386199379,9.463053964238497-6.305748714259607,11.057391165739318-8.435518146110553.178255211949363-.238170294189331.452500032090029-.569114858399189.755996587420668-1.070629192070555,1.029300332989806-1.700835475949134,1.57300617745932-3.944514144659479,3.974706954430076-11.468719184518704.685180724518432-2.146669563040632,1.252727125258389-3.880560283960222,1.601316838039565-4.9392299864503,1.032280402519973-3.249452136940818,2.129573374650136-8.39387559548959,1.044671217960058-14.372914581190344Z"/>
            <g class="cls-33">
              <path class="cls-22" d="M64.410107866820908,101.611265495230327c-1.446299947660009,4.610247359360073-8.751031837480696,5.341724153870018-10.565575581640587.634733572838741,3.848180812090504,1.23659890531053,6.885074120729769.972790414940391,10.565575581640587-.634733572838741h0Z"/>
            </g>
            <rect class="cls-9" x="40.472925773519819" y="89.006321195989585" width="14.183056243589817" height="7.855193072960901"/>
            <rect class="cls-9" x="62.786557586960043" y="89.006321195989585" width="14.183056243589817" height="7.855193072960901"/>
            <g>
              <path class="cls-20" d="M50.299102594839496,108.838175500070065c2.6533203125.7216796875,6.44580078125,1.41357421875,10.97900390625,1.131103515630457,2.629028320321595-.163818359380457,4.917236328130457-.618530273441138,6.787109375-1.131103515630457-1.074829101558862,3.919555664058862-4.550170898428405,6.697021484380457-8.51708984375,6.853515625-4.222778320308862.166625976558862-8.095336914058862-2.672729492191138-9.2490234375-6.853515625Z"/>
              <path class="cls-10" d="M50.190991655890684,108.737730338980327c.363393736659418.002190324468756.872190773769034.144542629968782,1.232899801589156.226566361339792,5.445686061790184,1.218191243449837,11.196620677630563,1.141082330939753,16.573007439870707-.375143580600707.00000096165968.000017648950234.432862289790137-.120587819799766.432862289790137-.120587819799766-2.21972236612055,9.700362651959949-15.907010355460443,9.96122785119951-18.23876953125.269165039060681h0ZM50.405957476199546,108.941831901480327c3.090845050081043,8.670448894019501,14.674121084060971,8.704229112659959,17.410245255090558-.171938288920501-.000089005099653.000063288920501.31717173710058.31732403110982.31717173710058.31732403110982-5.718106960590376,1.501973423719392-12.079116639109998,1.684804535749208-17.727416992191138-.145385742189319h0Z"/>
            </g>
            <g>
              <path class="cls-5" d="M103.943110620930383,163.230329852080104c1.186231513300299-.728783680100605.477686659360188-5.087142667649459-1.632304514840143-8.057183863369573-1.139987586309871-1.604603196381504-.408985465110163-1.933058457299921-6.502864672840587-5.041875716909999-.901089096329088-.459632609870823-1.545954799468745-1.239599195279879-2.187195619479098-.995694098450258-.798380098771304.303672318659665-1.129649236439946,1.823988536818433-.855323169809708,3.022023099858416.289200584469654,1.263881666871384,1.145548504739054,1.703046462131169,2.435634429130005,3.074652095770944,1.78888442563948,1.901878353290158,1.457774392069041,2.456034341150371,2.961304365358956,4.248671629020464,1.613216246239972,1.923446408729433,4.64592229164009,4.446526866689965,5.780749182480577,3.749406854080007Z"/>
              <g>
                <rect class="cls-24" x="71.179932808591204" y="139.4300418471976" width="32.565236814062857" height="16.581631432864441" rx=".364646637743521" ry=".364646637743521" transform="translate(224.275308091322245 44.022163355118579) rotate(83.468225108917125)"/>
                <path class="cls-18" d="M81.615440757519536,160.542308662170399l-2.746730183629552-23.989450561561171c1.721658196540375-.197125420700104,2.957536198500748-1.752606877460494,2.76041077778973-3.474265074009963l8.206275248019665-.939597339300235c.197125420700104,1.721658196551289,1.752606877471408,2.957536198489834,3.474265074020877,2.76041077778973l2.746730183629552,23.989450561550257c-1.721658196540375.197125420711018-2.957536198489834,1.752606877471408-2.76041077778973,3.474265074020877l-8.206275248019665.939597339300235c-.197125420700104-1.721658196540375-1.752606877469589-2.957536198489834-3.474265074020877-2.76041077778973Z"/>
                <circle class="cls-24" cx="87.462551215622625" cy="147.720857563634581" r="6.17532643182069"/>
                <circle class="cls-24" cx="88.442772561125366" cy="156.281935621959747" r="1.603797138587764"/>
                <circle class="cls-24" cx="86.482329870123067" cy="139.159779505299412" r="1.603797138586623"/>
                <path class="cls-18" d="M82.965011142890944,148.259497054490566c-.020864440610239-.182226295550208.026012110618467-.343597918241358.140366420650025-.483783561810924.114320273409248-.14048291320978.262907845848531-.221041991899256.44483687174943-.241872395889004l.716419856920766-.082028224871465-.231606635310527.312927945060437c-.030216654100514-.429618063230009-.018607181309562-.801683592009795.034497112119425-1.116459819349984.053104293430806-.31477622734019.112208089651176-.574523532799503.178203197619951-.779344026179388.05648908719013-.172109569381064.150104797590757-.298777526910271.281076327630217-.380632448501274.130376990749937-.081786848370029.268984232559887-.123256193959605.415261222760819-.124042693900265.146276990199112-.000786499949754.282700736388506.035996348340632.409008005519354.110679851131863.126307269139943.074683502789412.219581118690257.181760088509691.280118818320261.321195720529431.060537699639099.139435632028835.060155443290569.301808279758916-.001444038669433.487151979808914-.047611642310585.139169448930261-.096238023961632.340495434211334-.145581875302014.60394391922091-.049641120998785.263482521630067-.052436567659242.583641685729162-.009278148929297.960579602160578.029509738989873.257732786700217.079690253511217.461900474758295.151204156079984.613029530299173.071182596320796.150865822490232.153210152750034.254411411680849.245785399629312.310670804179608.092277977240883.056293429101061.188506901920846.078704975239816.289281313320316.067166565180742.087991816450085-.010074835910928.163782112080298-.04254480273994.227336850281063-.097707170139984.063886044448736-.054899134349398.117590239558922-.140857315889662.161511964799502-.257016772300631.044184958289406-.116490762658941.07440755197058-.268125214579413.091296356940802-.454674159329443l.113815703338332-1.091810916919712c.057817052620521-.605038243400486.226310468591691-1.066744266259775.50488570862035-1.385049995360532.278575240041391-.318305729109852.666100036260104-.505730526370826,1.162540352041106-.562571661439506.376937916420502-.043158418729945.725221624050391.010626855979353,1.044919196108822.161950363419237.319663535450672.15102623779967.594463832259862.383685556151249.824698160080516.697943918450619.229937058169526.314292398899852.393085651270667.694959421720341.488885276610745,1.142366411319017l-.192597155490148-.26435770568969.640913365768938-.073382926479098c.18846895821116-.021579209371339.352609057750669.023173357878477.492751604890145.134520934800094.139811240869676.111084343869152.220463369560093.257854261790271.241327810161238.440080557349575.022293978128801.194711620870294-.022551639120138.360669374909776-.133976349070508.497507919290001-.111687942990102.137169850630016-.261634777070867.216378727500341-.450103735280209.237957936869861l-.640913365770757.073382926480917.156066107560036-.304579916330113c.014548801131241.240171103219836.001676066751315.501250739978786-.039280815648453.782712444190111-.040922845781097.281758973858814-.112037657479959.536557007768351-.213344435080216.764394101699509-.058667430090281.153084311759812-.150705944910442.267223847558853-.275852311409835.342087301120046-.125180403110789.074566183910065-.257919384961497.112050794579773-.397622406249866.112385758809978-.140034327541798.00007173117956-.266775261890871-.03631394031072-.380256839640424-.109454284131061-.113447541139976-.072843074169214-.195348010949601-.177909048208676-.246032715700494-.315461155189041-.050981974400202-.137518070359874-.0467283554608-.308164314730675.012726820210446-.512236002750797.04546733602001-.157897436889471.080255738748747-.327522333889647.104101975139201-.508543384748918.023846236379541-.181021050861091.019942331940911-.409761963621349-.01167767672996-.685925468640562-.037440268619321-.326996615189273-.12781315284883-.574447894519835-.271118652710356-.742353838000781-.143373573078861-.168500482779564-.309260802119752-.24166384982891-.497729760329094-.220084640468485-.125745062019632.01439748510893-.22502211182109.078468633058947-.297899222579872.191618904558709-.073140343831255.113481577740458-.124739421980848.315147929100931-.155094504119916.605033090660072l-.113781666730574,1.092108186579935c-.063676252759251.611732441770073-.231497996399412,1.076674394171278-.503830573779851,1.394265354510935-.272629847040662.317624996949235-.647338011680404.50388348972956-1.124753069860162.558546281899908-.377235186069811.043192455328608-.723394909729905-.007824342521417-1.039405016519595-.153245553390661-.315678800530804-.145157977829513-.583181299840362-.36931670578997-.802439424709519-.671881644579116-.219292161491467-.302862208431179-.378512830391628-.665005462940826-.477662006731407-1.086429763519845l.251068927500455.19110498606824-.716419856909852.082028224871465c-.181929025909994.020830403989748-.34470986380984-.022571961440917-.487484741370281-.130606475770037-.142740840949045-.107737244679811-.22542390361923-.259093293971091-.247717881738936-.453804914839566Z"/>
              </g>
              <g>
                <rect class="cls-24" x="67.2770719201134" y="140.854991488970313" width="32.565236814063795" height="16.581631432874246" rx=".364646637749732" ry=".364646637749732" transform="translate(178.684140785405447 7.096405307564169) rotate(63.06848934860345)"/>
                <path class="cls-18" d="M82.548433641581141,163.201256998900135l-10.936413345960318-21.527497022960233c1.544970427959925-.784876903690019,2.161147974929918-2.673591341779684,1.376271071239898-4.218561769739608l7.364093876100014-3.741111865519997c.784876903690019,1.54497042796902,2.673591341779684,2.161147974929918,4.218561769748703,1.376271071239898l10.936413345951223,21.527497022960233c-1.544970427959925.784876903679105-2.161147974929918,2.673591341779684-1.376271071239898,4.218561769739608l-7.364093876100014,3.741111865519997c-.784876903680924-1.544970427970839-2.673591341779684-2.161147974929918-4.218561769739608-1.376271071239898Z"/>
                <circle class="cls-24" cx="83.559690327142562" cy="149.145807205407436" r="6.175326431818142"/>
                <circle class="cls-24" cx="87.46255121562308" cy="156.828291718386936" r="1.603797138589628"/>
                <circle class="cls-24" cx="79.656829438660679" cy="141.46332269243203" r="1.603797138588586"/>
                <path class="cls-18" d="M79.531972131680959,151.218362474870446c-.08307410316047-.163525047191797-.09538641996005-.331115674971443-.037068191730214-.502369600881138.058182707649394-.171520687808879.169371107260304-.298820222898939.332629392549279-.381758805498976l.642896188770465-.326604549130934-.10800451842988.374032827870906c-.178072565040566-.392141413311037-.296881231430234-.74491901797046-.356828281621347-1.05846405532975-.059947050198389-.313545037361109-.095089558739346-.577603601910596-.10462723990895-.792582255331581-.007045546159134-.181005748860116.036546561870637-.332360962898747.130772044880359-.454734686458323.09369195922045-.122102682451441.209151377959643-.209285230770547.345980252999652-.261009841909981s.277517928328962-.06480156561156.42193591852083-.038828580891277c.144417990188231.025972984720283.269165481258824.093821858619776.374509235129153.203411101139864.105343753859415.109589242531001.161583335639079.261911704079466.168451983430714.457102905229476.003884366789862.147037123520931.028483397500167.352686254391301.074063854019187.616811872050675.045313694619836.264261138219808.154290719699929.565315473670125.326130789539093.903569568010425.117496325341563.231282570819531.235695964991464.405154288118865.35540348385075.521877634610064.119305236410582.116592105139716.232280969979911.185051528718759.338660438819716.20551379131939.106112706929707.020597783161065.204118441230094.008061460410318.294550726699526-.037880009369474.078961523611724-.040114085701134.138680542051588-.096965703900423.179021534780986-.170821616529793.040743275199929-.073724671270611.061117088609535-.173011413970016.061794763809303-.297195462921081.00080891655125-.124586331428873-.02371881802901-.277245436669546-.072914159369247-.457981594960074l-.273892455310488-1.063008944258399c-.156705828809208-.587245579601586-.159715531679467-1.078726428109803-.009562632409143-1.474171504431069.150152899268505-.395445076319447.448043299069468-.706193900959988.89353567884973-.932513235829902.3382540943403-.171840069830068.683442511450266-.242828473608824,1.035836292439853-.212431687510616.352258260429153.030130024180835.690921600320507.152411272760219,1.016256781589618.366708225170441.325068419349918.214432472979752.610673157550991.514357095520609.856416211379837.900311670649899l-.272664718659144-.180644989030043.575138665150007-.292182326938928c.169127047169241-.085920034909577.33857217062905-.101188128741342.508737652849959-.045673040111069.169763199750378.055383847269695.296516373380655.164836154901423.379590476539306.328361202080487.088765966669598.174729047159417.104580421950232.345910262600228.047841369070738.51300584332057-.056870294210967.167497863169046-.169803344229877.294005670979459-.338930391410031.379925705889036l-.575138665150007.292182326940747.040111474239893-.339877367579902c.097352247648814.220037193030294.176290779829287.469229873830045.236011031600356.747315559689014.059855772338778.278352447759971.082015396759743.541958793601225.066478873279266.790819037511028-.001627769659535.163932986999498-.048108601600688.30299575736899-.139311254479253.416786028639763-.091338173440818.113523509358856-.202686318360065.194925744968714-.333510910961195.243935665710524-.131226875049833.048878679399422-.262701944609944.058952785449947-.394560729238947.029955556259665-.131723264050379-.028730467291098-.245109838520875-.09865922095014-.340562005860193-.209917502339522-.09571892924032-.111122760841681-.15121385510065-.272549360850462-.166620298159614-.484546561961906-.012422162069925-.163843123469633-.038941327231441-.334955871468992-.079688736839671-.512935961518451-.040747409600954-.177980090060373-.12413817470042-.391014420471038-.250036774761611-.638836229340086-.149072615789919-.29343809446982-.320031167218986-.49386904901985-.512875654289019-.601292863661001-.193115528190901-.107957338459528-.374101295310538-.118709228319858-.543228342479779-.032789193410281-.112840285421044.057325196801685-.183557901489621.151982808180037-.212423889341153.283439310340327-.028997229188462.131858784619908-.007065817519106.338863121090981.065527473099792.621148529960919l.274027975860008,1.063275706170316c.153547478121254.595562269998481.158314669050014,1.08984197889913.013763769769866,1.482441123458557-.144817661188426.39273466511986-.431101778558514.697922867590023-.859521396479977.915568886641267-.338520856248579.171975590388683-.680753496329999.244818489840327-1.02763372652953.218668498138868-.346477947728999-.026018750359071-.675338150280368-.14287631166917-.986309566540513-.350039160130109-.311106936809665-.207429610349209-.586573308328298-.491361356289417-.826399114548622-.851795237818806l.301935817638878.091605043959134-.642896188779559.326604549130934c-.163258285279881.082938582589122-.330958758329871.09899840368962-.502436653989207.047506139710094-.171342375089807-.051225502080342-.301597687210233-.164268397360502-.390363653879831-.338997444519919Z"/>
              </g>
              <g>
                <rect class="cls-24" x="62.608233565383912" y="143.734234905092165" width="32.565236814062672" height="16.581631432869273" rx=".364646637736743" ry=".364646637736743" transform="translate(125.692888687668614 -12.732200814382395) rotate(43.284377997108201)"/>
                <path class="cls-18" d="M82.696731420079232,165.59315994491044l-17.577450360648072-16.555105066579927c1.188115261718849-1.261486227460409,1.128636342029495-3.247280591480376-.132849885441829-4.435395853201044l5.663145497550431-6.012867841549451c1.261486227460409,1.188115261718849,3.247280591480376,1.128636342029495,4.435395853201044-.132849885430915l17.577450360658986,16.555105066579927c-1.188115261718849,1.261486227460409-1.128636342029495,3.247280591480376.132849885430915,4.435395853201044l-5.663145497550431,6.012867841549451c-1.261486227460409-1.188115261720668-3.247280591480376-1.128636342029495-4.435395853201044.132849885430915Z"/>
                <circle class="cls-24" cx="78.890851972412747" cy="152.025050621528862" r="6.175326431820445"/>
                <circle class="cls-24" cx="85.163689452282597" cy="157.933045320082329" r="1.603797138588062"/>
                <circle class="cls-24" cx="72.618014492545171" cy="146.117055922974941" r="1.603797138586311"/>
                <path class="cls-18" d="M75.802383454920346,155.338562568609632c-.133520092769686-.125754254398998-.201831242620756-.279285353759406-.204920780939574-.46017033831049-.003307352510092-.181090130148732.058230151118551-.338510482990387.183779259919902-.471812761579713l.494400902289271-.524932175499998.024971990740596.388512460549464c-.300292618891035-.308721669938677-.531495666869887-.600462459278788-.694032103720019-.875209699439438s-.28498239586952-.511324729659464-.366722440259764-.710385911039339c-.067895961930844-.167937069159962-.078107150169672-.325113417031389-.030864047470459-.472157149020859.046832811500281-.146608103628751.125967912979831-.26772502986023.23721282742008-.362710004750625.111244914449344-.09498497487948.239203501439988-.154910065359218.383888429549188-.179352311639377.144684928111019-.024442246289254.285034439870287-.002822330268827.421253680869995.064641933849998.136219241010622.067464264120645.240696911450868.191760037310814.31322786571036.373105133750869.053423774081239.137043439688568.14617833812008.322227856389873.278468837710534.55533543592901.132085354000083.233325393721316.336529939959291.47972368137016.612718321099237.739848305471241.188844894670183.177861237469187.358919337249972.301462260398694.511069247320847.370777731648559.151726950280135.069328139841673.281206193449179.095507036710842.388232583909485.078754504811513.106821244860839-.016534717720788.194798901329705-.061503766040914.26434326062008-.135342773290176.060723098369635-.064472997490157.097674217180611-.138182443810365.110635542250748-.221333484540082.013384284859058-.083163709321525-.001050750881404-.183486086139965-.042446519060832-.300569507840919-.041408436760321-.117506381478961-.116160008459701-.252852658510164-.22362660969884-.406269313860321l-.617529932420439-.907558193839577c-.346225332759786-.499541896650044-.515412346299854-.960994209699493-.507971331820954-1.383921310800361.007441014480719-.422927101089954.182567006990212-.816162919740236.525160163340843-1.179912601508477.260124624110176-.276188381139946.560910238878932-.459825008010739.902792472650617-.550499589400715.341664419598601-.090879727009451.701727432639018-.090445918429396,1.080394184698889.001083611579816.378461606449491.091747344169562.748726014300701.27729818348962,1.110600746520504.557293291920359l-.317714765649725-.077691624690488.442293919219082-.469607373590406c.130062312060545-.138094190569973.284337982360739-.209814355828712.463249970700417-.215173164369844.178489028559852-.005346139949324.334807641918815.054742675891248.46832773469032.180496930290246.14266828837026.134370369709359.215490193109872.290094727810356.218658191259237.466532300340987.003180666730259.176860532319552-.060266490228969.334126413868944-.190328802280419.472220604429822l-.442293919229996.469607373599501-.077296787969317-.333392804250252c.16608352619005.174097928669653.324708674390422.381863051779874.47502952503055.623320706490631.150538664809574.241662800310223.260614993139825.482209171019349.33022898497984.72163911214011.053955854358719.154807750579494.057288117210192.301394986940068.009984119978981.439338749300077-.047521811418846.137738616758725-.124744811229903.252024843568506-.231258708239693.342423052079539-.106936856789616.090410877090108-.227241713590047.144391641799302-.361132384588927.161737148519023-.133672856811245.017550652321006-.264036025280802-.0098717867495-.391512465201231-.082254648628805-.127681585519895-.072165047700764-.234540095008924-.205279633450118-.320793342660181-.399548902851166-.067146067460271-.149967612658656-.150017658379511-.302004246608703-.248602104169549-.455686942108514-.098584445799133-.153682695479802-.24916026271967-.325916748441159-.451509636590345-.516497013270055-.239595598779488-.225660162870554-.468304531599642-.356395077471461-.686126798469559-.392204743820912-.218257895219722-.036219957550202-.3922001846895.014922304560969-.522262496739131.153016495130942-.086776589900182.092135398428582-.12128065160141.205142098859142-.103947813471677.338609810069102.017345506730635.1338906710007.108048614740255.321253229500144.271904178440309.562305489709615l.617747746589885.907763339449957c.346068413131434.508436720670943.517856528251286.971927821170539.514723571430295,1.390280824480215-.003338102429552.418570817480941-.169425019839764.802645771949756-.498888857629936,1.152455346160423-.260329769709642.276406195320305-.557706369048901.460787393130886-.892963049009268.553591890380631-.334833720180541.092791828668851-.68383643595007.094143435970182-1.046572518949688.004465113099286-.362953897190891-.089883468470362-.718265138040806-.263817019909766-1.065933722560658-.521800654320032l.315120155499244-.016000301609893-.494400902278358.524932175499998c-.125549108801351.133302278589326-.277915125800064.205176915140328-.456700428350814.21476532151064-.178567488379485.009793551969778-.339396856650637-.052488522611384-.482065145009983-.186858892320743Z"/>
              </g>
              <path class="cls-5" d="M96.994688228620362,156.079691887680383c1.734515464138894-.382732796091659,3.417616951990567-.012241422929947,4.321881447220221.655716527389814,2.593204200169566,1.915500193899788,3.366579634870504,6.607213860759657,2.828616179569508,9.998323423869806-.63721314581926,4.017070016308935-3.102824053159566,6.134742018110046-3.831847870929778,6.699448274279348-.095200604469937.073683949540282-.197369403520497.13766892554122-.288520921949385.199205616951076-2.17501835998155,1.469253245779328-4.121875429531428,2.052227471538572-4.678671843190386,2.208541025849627-2.294230986341063.644134258009217-4.156433908110557,1.166984264238636-5.464100371220411.212624099789537-1.298061654359117-.947439052250047-1.903541265350214-2.428651226580769-1.903541265350214-2.428698308969615-.022882044399012-.056640122240424-.040020036500209-.101038821559996-.051319811509529-.130606566170172-.006214876260856-.016337591370757-1.064062146841025-3.023019392139759.075237668610498-7.052754572951017,1.045040858909488-3.696297653188594,3.350100796309562-6.171466286888972,4.508892723659301-7.270416489089257.217803163330245-.042515403469224.766972228850136-.179807669850561,1.258041617860727-.658211894369742.464420752939986-.452367659599986.622335108710104-.961846265390705.676385699180173-1.178754863200083.456981734398141-.376612084630324,1.32056703958915-.983362920309446,2.548946748049275-1.25441627337932Z"/>
              <path class="cls-5" d="M100.709865922561221,159.674621142548858c.961422523829242-1.256158322028568.846635642679757-1.661066926579224.591919880978821-1.955237736028721-.608348397659938-.964322607720533-1.31422583065978-1.980864228069549-2.024777978749626-2.859387349360986-1.235481772480853-1.534914386260425-2.740974997819649-2.86157700269905-4.438273674970333-3.901204506899376-3.547401633790287-.614509804730915-6.98228145882058-1.892398424790372-10.623796239869989-1.72720298485001-.634965805938918.014603398100007-1.143027087449809.5594528781603-1.077533583520562,1.198176723040888.035681603440025.367328864109368.255933051361353.677413523359064.554529606020878.846156830190012.798423269299747.443798663549387,1.626508448000095.764476861879302,2.454028637948795,1.085202142588969,2.428448392140126.856950483950641,5.016925069161516,2.052878882050209,7.570746900280938,2.412972017960783.000008192120731-.000046311610276-.998421094869627-.673983726201186-.998421094869627-.673983726201186.837159527509357,2.235372912860839,2.270747266798935,4.128647536430435,3.85863770547985,5.869793767989904.000047131099564-.000031473879062.806662737279112.848911206199773.806662737279112.848911206199773.309280034040057.783483302451714,2.725882863731385-.192013807658441,3.326277103991742-1.14419638463005h0Z"/>
              <path class="cls-5" d="M98.491249263999634,163.692632806780239c.099531821661003-.854118799990829.291486265759886-1.840875822170347-.406249131568984-2.208663619619983-1.622748709909501-.851567584510121-3.297128716751104-1.583093017230567-5.050983103301405-2.134251999070329-2.243317066788222-.713051399610777-4.524230235188952-1.352365619130069-6.72815112950957-2.180855582049844-2.49553123493024-.559521220580791-5.22838645874981-1.253310867490654-7.769450195959507-1.491635904270879-1.257130572510505.026976731420291-3.645476023300944-1.018992078288647-3.91135597200082.86025710289141-.034512443049607.524254344389192.274054813571638.951033053148421.705243407501257,1.178923305289572,3.049285953158687,1.85759767962918,6.627832811909684,2.162985605729773,9.999070897189085,3.079397177240025-.000008540058843.00003803079926-.27148563469018-.095915892001358-.27148563469018-.095915892001358l1.502493417261576.773234187510752c3.072519939849371,1.705580435669617,6.01264414554862,3.767887888299811,9.359065698328777,4.904984425549628.370740283809937.163256585121417.675829972740758.003350078050062,1.050373810039673-.28939027494016.592969688810626-.452057852498911,1.44173169259011-1.530328383780216,1.521427936710097-2.396082926528834h0Z"/>
              <path class="cls-5" d="M96.382993741370228,168.158068479040594c-.155183576809577-2.557374496900593-1.481871327860063-2.15966949893118-2.419752653750038-2.742643724690424-3.066978893100895-1.273029058331304-6.164596148830242-2.466986983879906-9.300935956740432-3.562073478520688-1.984145141768749-.512576841440023-5.262376826678519-1.370787949610531-6.635752385860542-1.567183760380431-1.358935618409305-.429949571998804-2.73694318096932-.81414192235934-4.132747889158054-1.155771786849073-.748045105719939-.183150519969786-1.50296424122098.274819944739647-1.686114761190765,1.022865050448672-.14765039347003.603502150361237.123732536369062,1.212136281881612.626195865179398,1.520761386860613,2.997835542490066,2.032905041030972,7.515307107791159,3.67334842577111,10.250822449919724,4.644031568121136,2.981260208360254,1.325256942049236,6.001376232919938,2.552119334310191,9.051731501460381,3.705806368519916,1.082616827139645.217886888469366,1.776423012799569,1.416557605129128,3.641733372689487-.33994533789155.432593053330493-.407356889139919.635424014770251-.975641407389048.604820457450842-1.525846285618172h0Z"/>
              <path class="cls-5" d="M92.550769211269653,172.655661427679661c.200759336030387-1.328147305319362-.026931130440062-1.732632168310374-.356696231168826-1.923927942760201-2.17168629274056-1.581064691439678-4.887151644441474-2.111389814690483-7.29206710066137-3.241184661990701-1.470069491530012-.617085175099419-4.920142572869736-2.021314432968211-6.32761697792921-2.662140564618312-1.236804682119327-.429840546621563-3.028417673629519-2.000236401021539-3.957613293050599-.322186374300145-.737787405560084,1.678084608120116,1.475536108689994,2.253524193089106,2.475772217510894,3.073890204288546,1.121818240939319.720078641261352,2.716106556368686,1.872258175641036,3.830650435249481,2.64656512700094,1.893803250259225,1.406146395849646,4.129756722741149,2.186024055039525,5.818576284309529,3.892765425140169.893073694951454.810066882759202,1.859194151120391,1.460638618618759,3.026528535780017,1.739688202718753.355086128080075.153411245841198.87073252773007-.027620566308542,2.086305824510418-1.717078177598523.338713004239253-.431704976979745.630431226880319-.956299728530212.696160305449666-1.486391237880525h0Z"/>
            </g>
            <g>
              <path class="cls-5" d="M17.70341320406078,163.230329852080104c-1.186231513300299-.728783680100605-.477686659360188-5.087142667649459,1.632304514840143-8.057183863369573,1.139987586309871-1.604603196381504.408985465110163-1.933058457299921,6.502864672838768-5.041875716909999.901089096330907-.459632609870823,1.545954799479659-1.239599195279879,2.187195619480917-.995694098450258.798380098780399.303672318659665,1.12964923644904,1.823988536818433.855323169820622,3.022023099858416-.289200584480568,1.263881666871384-1.145548504751787,1.703046462131169-2.435634429140919,3.074652095770944-1.788884425630386,1.901878353290158-1.45777439207086,2.456034341150371-2.961304365360775,4.248671629020464-1.613216246239972,1.923446408729433-4.64592229164009,4.446526866689965-5.780749182478758,3.749406854080007Z"/>
              <g>
                <path class="cls-23" d="M22.227084787429703,136.895334719129096c-5.420674922708713.587049139019655-9.339137408358511,5.457292828130448-8.752067407800496,10.878007977091329.022817486800705.211029846879683.05442525250146.418930276699029.09004226621073.625210897429497.061055656700773.37935175390885.132914214360426.751875987660242.217215968599703,1.116109494249031,2.372221293440816,10.247714970570087,13.85040438588112,15.766500344590895,19.556716651330134,18.02674953495989.589723271021285-2.818581679050112,1.179385454261137-5.637182722819489,1.769108725289698-8.455764401869601-.987417932828976-1.09323907092039-1.97485672717994-2.186518368100224-2.96229552154-3.279797665280057-.929335229389835-1.028978567488593-1.858752408099463-2.058016725939524-2.788127863748741-3.086974431889757.735357200408544-.879254150289853,1.470735262339076-1.758468074320263,2.206113324269609-2.637681998348853.79890728682949-.955242590151101,1.597814573649885-1.910485180300384,2.396742722010458-2.865687544201137-1.140275284140444-2.402088199980426-2.280510342030539-4.804197261490117-3.420785626170982-7.206285461459629-2.049415352170399-2.213649097420785-5.083058864360282-3.463642863989662-8.312663238450114-3.113886400680713Z"/>
                <path class="cls-23" d="M41.816560822840984,135.973394627018934c-3.248210517031112-.037701526609453-6.14769277006053,1.498055420341188-7.974830415261749,3.898457254190362.845799445780358,2.520888482580631,1.691556465309986,5.041792882690061,2.537355911081249,7.562681365270691-.907097897450512.853153647749423-1.814179877370407,1.706349721749575-2.721261857290301,2.559545795749727-.834942625000622.785282644110339-1.66988524999033,1.570565288229773-2.504811957449419,2.355890358599936.800089830268917,1.132408478279103,1.600211495619078,2.264901809070579,2.400258899629989,3.39732620490031.850071579900032,1.203192961780587,1.700143159800064,2.406385923570269,2.550198822160382,3.609536459109222-.92151210125121,2.728184683101063-1.842965858701064,5.456395874920418-2.76447795994136,8.184580558019661,5.973244406101003-3.048428509988298,16.832088800720157-9.736209290998886,18.117195962120604-20.063425802089114.020472227270147-.164733008299663.037645367159712-.331035357319706.053259142228853-.498011015481097.038365998230802-.335177581908283.060252907811446-.675449302689231.064265988701663-1.020146687338638.063301801639682-5.45204519364961-4.305107342330302-9.923132689289559-9.757152535979912-9.98643449093106Z"/>
              </g>
              <path class="cls-5" d="M24.651835596370802,156.079691887680383c-1.734515464140713-.382732796091659-3.417616951990567-.012241422929947-4.321881447220221.655716527389814-2.593204200169566,1.915500193899788-3.366579634870504,6.607213860759657-2.828616179560413,9.998323423869806.637213145810165,4.017070016308935,3.102824053150471,6.134742018110046,3.831847870929778,6.699448274279348.095200604460842.073683949540282.197369403509583.13766892554122.28852092194029.199205616951076,2.175018359979731,1.469253245779328,4.121875429540523,2.052227471538572,4.678671843190386,2.208541025849627,2.294230986350158.644134258009217,4.156433908110557,1.166984264238636,5.464100371229506.212624099789537,1.298061654350022-.947439052250047,1.903541265350214-2.428651226580769,1.903541265350214-2.428698308969615.022882044389917-.056640122240424.040020036489295-.101038821559996.051319811500434-.130606566170172.006214876259037-.016337591370757,1.064062146850119-3.023019392139759-.075237668610498-7.052754572951017-1.045040858909488-3.696297653188594-3.350100796309562-6.171466286888972-4.508892723659301-7.270416489089257-.217803163330245-.042515403469224-.766972228850136-.179807669850561-1.258041617860727-.658211894369742-.464420752939986-.452367659599986-.622335108710104-.961846265390705-.676385699180173-1.178754863200083-.456981734390865-.376612084630324-1.32056703958915-.983362920309446-2.548946748049275-1.25441627337932Z"/>
              <path class="cls-5" d="M20.936657902429943,159.674621142548858c-.961422523829242-1.256158322028568-.846635642679757-1.661066926579224-.591919880978821-1.955237736028721.608348397669033-.964322607720533,1.31422583065978-1.980864228069549,2.024777978749626-2.859387349360986,1.235481772489948-1.534914386260425,2.740974997819649-2.86157700269905,4.438273674979428-3.901204506899376,3.547401633790287-.614509804730915,6.982281458809666-1.892398424790372,10.623796239869989-1.72720298485001.634965805929824.014603398100007,1.143027087440714.5594528781603,1.077533583520562,1.198176723040888-.035681603450939.367328864109368-.255933051361353.677413523359064-.554529606029973.846156830190012-.798423269290652.443798663549387-1.626508448000095.764476861879302-2.454028637950614,1.085202142588969-2.428448392140126.856950483950641-5.016925069150602,2.052878882050209-7.570746900279119,2.412972017960783-.000008192120731-.000046311610276.998421094878722-.673983726201186.998421094878722-.673983726201186-.837159527520271,2.235372912860839-2.270747266809849,4.128647536430435-3.858637705488945,5.869793767989904-.000047131099564-.000031473879062-.806662737280931.848911206199773-.806662737280931.848911206199773-.309280034029143.783483302451714-2.725882863729566-.192013807658441-3.326277103989923-1.14419638463005h0Z"/>
              <path class="cls-5" d="M23.155274561000624,163.692632806780239c-.099531821670098-.854118799990829-.2914862657708-1.840875822170347.406249131559889-2.208663619619983,1.622748709909501-.851567584510121,3.297128716749285-1.583093017230567,5.0509831033105-2.134251999070329,2.243317066788222-.713051399610777,4.524230235179857-1.352365619130069,6.728151129498656-2.180855582049844,2.49553123493024-.559521220580791,5.22838645874981-1.253310867490654,7.769450195961326-1.491635904270879,1.257130572508686.026976731420291,3.64547602330822-1.018992078288647,3.911355971999001.86025710289141.034512443049607.524254344389192-.274054813569819.951033053148421-.705243407499438,1.178923305289572-3.049285953160506,1.85759767962918-6.627832811909684,2.162985605729773-9.99907089717999,3.079397177240025.000008540049748.00003803079926.271485634679266-.095915892001358.271485634679266-.095915892001358l-1.502493417259757.773234187510752c-3.072519939840276,1.705580435669617-6.012644145550439,3.767887888299811-9.359065698330596,4.904984425549628-.370740283799023.163256585121417-.675829972738939.003350078050062-1.050373810028759-.28939027494016-.592969688819721-.452057852498911-1.441731692601024-1.530328383780216-1.521427936710097-2.396082926528834h0Z"/>
              <path class="cls-5" d="M25.263530083620935,168.158068479040594c.155183576818672-2.557374496900593,1.481871327869158-2.15966949893118,2.419752653750038-2.742643724690424,3.066978893099076-1.273029058331304,6.164596148839337-2.466986983879906,9.300935956738613-3.562073478520688,1.984145141779663-.512576841440023,5.262376826680338-1.370787949610531,6.635752385869637-1.567183760380431,1.35893561840021-.429949571998804,2.736943180960225-.81414192235934,4.132747889161692-1.155771786849073.748045105709025-.183150519969786,1.502964241219161.274819944739647,1.686114761179851,1.022865050448672.14765039347003.603502150361237-.123732536370881,1.212136281881612-.626195865181217,1.520761386860613-2.997835542490066,2.032905041030972-7.515307107778426,3.67334842577111-10.250822449919724,4.644031568121136-2.981260208360254,1.325256942049236-6.001376232919938,2.552119334310191-9.051731501460381,3.705806368519916-1.082616827128732.217886888469366-1.776423012788655,1.416557605129128-3.641733372689487-.33994533789155-.432593053330493-.407356889139919-.635424014770251-.975641407389048-.604820457449023-1.525846285618172h0Z"/>
              <path class="cls-5" d="M29.095754613719691,172.655661427679661c-.200759336028568-1.328147305319362.026931130440062-1.732632168310374.356696231170645-1.923927942760201,2.17168629274056-1.581064691439678,4.887151644439655-2.111389814690483,7.292067100659551-3.241184661990701,1.470069491540926-.617085175099419,4.92014257288065-2.021314432968211,6.327616977940124-2.662140564618312,1.236804682110233-.429840546621563,3.028417673629519-2.000236401021539,3.957613293039685-.322186374300145.737787405560084,1.678084608120116-1.475536108689994,2.253524193089106-2.475772217509075,3.073890204288546-1.121818240941138.720078641261352-2.716106556370505,1.872258175641036-3.830650435249481,2.64656512700094-1.893803250261044,1.406146395849646-4.129756722741149,2.186024055039525-5.818576284311348,3.892765425140169-.893073694949635.810066882759202-1.859194151120391,1.460638618618759-3.026528535780017,1.739688202718753-.355086128069161.153411245841198-.87073252773007-.027620566308542-2.086305824508599-1.717078177598523-.338713004230158-.431704976979745-.630431226880319-.956299728530212-.696160305451485-1.486391237880525h0Z"/>
            </g>
            <g id="_9VrKlJ" data-name="9VrKlJ">
              <path class="cls-6" d="M71.41518866260958,102.252968473389046c-.818641689398646-.206952549518974-1.706183588628846-.331724097710321-2.520665488738814-.658414046039979-1.588310335540882-.637067779529389-3.14123017394013-1.373995575138906-4.698056877850831-2.09528691181913-.953563082830442-.441794059970562-1.875586029780607-.959688197430296-2.832334876209643-1.393083981749442-1.562504035990059-.70779800325181-3.152358821109374-.714531921701564-4.709930843009715.003474611268757-1.195983817580782.551322929070011-2.367100382500212,1.164310646850936-3.537429923890159,1.775036255310624-1.88890892542986.985710245329756-3.818745764790947,1.857654947159972-5.914991665229536,2.202914872519614-.531940455060976.087608930540227-1.149309959280799.090912148420102-1.638963707660878-.108201632749115-2.892805189640058-1.176333680041353-5.54351319863963-2.793348071299988-7.676745841350566-5.203588026070065-.723969486178248-.817981283451445-1.283958248819545-1.796987356299724-1.917458540099688-2.703509610330002-.179607512838629-.257014997900114-.139291728339231-.486995168819703.021969055360387-.7577797126105,1.694922593720548-2.846050827620275,3.9443915478696-5.136685115679938,6.451155645030667-7.170289532859897.44180406347914-.358411888500996.908784135010137-.682246933040005,1.360526892989583-1.027292262549963.571660254228846-.436640218509638,1.197860565989686-.532409457040558,1.883541021399651-.392972442999962,2.62066859917104.532931427780568,5.131392030070856,1.445989293870298,7.629796188470209,2.407839030958712.923396538430097.355493951601602,1.859272444740782.675634831370189,2.792853202110564,1.001098821261621,2.026565393778583.706496971690285,4.04763373095011.642500666408523,6.056976090289027-.079199323090506,2.195741817920862-.788648935300444,4.377788081190374-1.621769495221088,6.587004818120477-2.365716628830342,1.185838613500891-.399327454599188,2.414146899809566-.661076309339478,3.627266304789373-.967469598559546.646147658409973-.163195536129933,1.246680240581554-.032879199599847,1.801842598270014.369594244230029,2.990700153290163,2.168159552818906,5.628924085731342,4.708010439950158,7.667231601421008,7.905375203748918.338788738230505.531441296910998.330818947879379.921684194090631.019604285109381,1.45050926310978-1.16036595811056,1.971759028001543-2.72370410449912,3.514373110831002-4.510228668848868,4.828453242920659-1.487643972810474,1.094232001260025-3.091014037110654,1.967018088780605-4.77486230174145,2.672019971931149-.348862639330036.146061155728603-.73414361506002.195700078309528-1.168098968730192.306488192998586ZM63.944219985849486,95.072746791860482c2.2867254276116,1.056542930578871,4.59240070172018,1.622916514428653,6.986657932591697.842407109339547,2.100088594508634-.684613129609716,3.626435826368834-2.178290130461392,4.881073513219235-4.035754581229412-4.608274368720231-2.399145654111635-8.906937426339937-1.348109684560768-11.867731445810932,3.193347471889865ZM42.096788738939722,92.132070322390064c1.528176373940369,1.957792603139751,3.27258433877978,3.517598472519239,5.700295729060599,3.969432961579514,2.226444042620642.414377381710437,4.293830389169671-.210594146770745,6.295905679389762-1.278570012749697-3.140558802639134-4.407993560151226-7.432480670739096-5.277208927749598-11.996201408450361-2.690862948829817Z"/>
            </g>
            <path class="cls-17" d="M62.274240243579698,55.33849897384971c-4.109359043688528-1.446745336599633-12.123118927638643-4.26804774646007-19.66391040714916-1.111448302410281-2.759701235650937,1.155208270860385-5.741260805931233,3.230473799370884-9.575512377759878,5.899204491299315-2.118751016871101,1.474703094221695-3.815116388510432,2.773778143051459-4.958718072770353,3.67626867501167,2.336884264579567-.227975319459802,4.67372931771024-.455950638930517,7.010613582289807-.683925958390319-1.645429709460586.868415789509527-4.249892849169555,2.529255595380164-6.497649507758979,5.471682147279353-1.309073966360302,1.713618405790839-2.129573374650136,3.380771253700004-2.650340525980937,4.702236035489477,2.821341621300235-1.738400036669191,5.642683242589555-3.476800073338381,8.46402486388979-5.215200110018486-1.214809661569234.794306165538728-5.1976725957702,3.614471443599541-6.925132640339143,9.062509091800166-1.379184023320704,4.349646755719732-.586250258220389,8.058186446898617-.170961883881318,9.575473166318261,1.253942679950342-2.279870828979256,2.507846148460885-4.559741657969425,3.761788828411227-6.839612486948681-.66118332248152,1.146699388098568-1.586024375950728,3.078490253059499-1.966414567581523,5.642683242589555-.355020389139099,2.393113471340257-.094264304778335,4.383015692230401.171001095310203,5.642683242600469,1.367930339691156-1.253942679941247,2.735860679371399-2.507846148449971,4.103791019049822-3.761788828391218.133083631621048,1.303937267541187.404779708091155,2.848436727201261.940447207090983,4.531274151609978,1.012674681900535,3.181420286360662,2.552939305900509,5.550693201410468,3.761788828409408,7.096094524220462,1.251707627790893-4.610363628629784,5.00353675011138-15.951253514649579,15.816640636810916-25.306632861189428,8.068224575859858-6.980499195400625,16.44441581134015-9.720790767620201,21.031840746840317-10.857922564069668-4.897744281601263-4.366546886900323-9.686794448040018-6.479220130360773-12.653296824881181-7.523577656800626Z"/>
            <path class="cls-17" d="M55.658015337459801,55.740141766649685c4.109359043699442-1.446745336610547,12.123079716209759-4.268047746470984,19.663910407160074-1.111448302419376,2.689355910029917,1.125760478478696,3.982941357089658,3.066138649059212,9.575512377759878,5.899204491299315,2.141023115500502,1.084588465160778,3.95878710928082,1.853289559550831,5.162813624499904,2.334178675120711-2.404916115159722.219388013829303-4.809832230310349.438776027669519-7.214748345459157.658164041498821.840065917480388.137906638899949,4.438264612959756.82489108972004,6.958227096760311,4.129592147390213,1.870464170819105,2.452950130689715,2.138592006138424,5.025848060189674,2.189802148419403,6.044326035389531-.434933306420135-.813049234458958-2.032407423219411-3.556830624949725-5.182105653600956-4.419913658459336-.780542949658411-.213898412050185-1.509169951079457-.271931345110715-2.137415662899002-.256482037259048,1.999626658329362.922723635660077,5.336441886380271,2.871689111878368,5.984685433239065,6.070166375178815.301771251910395,1.489054481720814-.055288132169153,3.130092509760289-.769406900339163,6.412168565821048-.477046394329591,2.192546949308962-.777798148759757,2.707275538688918-1.059101028340592,4.419913658450241-.38827169131946,2.36394015904807-.302084943439695,4.346392206098244-.1709618838795,5.642683242609564-1.367930339680242-1.253942679950342-2.735860679360485-2.507846148460885-4.103791019038908-3.761788828400313-.133083631621048,1.303937267539368-.404818919541867,2.848436727210355-.940447207100078,4.531274151619073-1.012674681900535,3.181420286360662-2.552978517340307,5.550693201410468-3.761788828400313,7.096094524211367-1.251707627799988-4.610363628631603-5.003536750120475-15.951253514651398-15.816640636820011-25.306632861191247-8.068224575850763-6.980499195398806-16.44441581134015-9.720790767620201-21.031840746840317-10.857922564058754,4.897744281610358-4.366546886900323,9.686794448049113-6.479220130371687,12.653296824879362-7.523577656800626Z"/>
            <path class="cls-17" d="M76.406461323280382,56.809103728650371c.863394667308967.562583174139945.493468222819502,1.75906742081861,1.09401553070893,4.000279964349829.815365813521566,3.042748984329592,2.186319845981416,3.409110812448489,2.804767736370195,5.746233953919727.355036758941424,1.341655688249375.464609291560919,3.34238039336924-.745172900218677,6.12771919422994-.956776058830656-2.144239644319896-1.913513359200806-4.288411112909671-2.870250659580051-6.432582581499446.058246910910384,1.859586828248212-.098372137050319,4.944597659949068-1.545431279970217,8.352867579778831-.84275208930012,1.984900235849636-1.886536413299837,3.522169415180542-2.77797561943953,4.627955515041322.116877750549975-3.311848852681578.233755501109044-6.623697705361337.350633251669933-9.935546558041096-.09011088428997,1.448675290530446-.573353433130251,6.30490901505982-4.455789721250767,10.499165256600463-3.099654389970965,3.348705166708896-6.715503551529764,4.492228423010602-8.239798388740383,4.881048743609426,1.362262199150791-2.216828050610275,2.724524398299764-4.43365610121873,4.086747839000964-6.65055232757004-.670093195380105,1.141515651279406-1.892387816980772,2.900248939220546-3.933512728590358,4.498254356451071-1.904957273829496,1.491364927949689-3.763720304179515,2.248137404489171-4.9899129321293,2.640056418469612.414032403108649-1.808917584630763.828030718359514-3.617815790041277,1.242063121469982-5.426733374670221-1.199331092611828.528742452430379-2.676277438180477,1.05590990733981-4.403985474671572,1.421899548269721-3.266207098529776.691979941420868-6.087114311649202.523959221100085-8.028046866069417.236804143200061-1.413489402379128-13.143190984579633,5.339722660130064-23.996380309270535,14.182996919989819-26.257058970650178,6.26953775281072-1.602705567149314,11.996521505860073,1.520629646040106,14.037468302440175,2.774405905320236,1.345073043410594-.86608093733048,3.149478502240527-1.782970849160847,4.191183869010274-1.104216766809259Z"/>
            <polygon class="cls-17" points="61.804639116820908 86.308164909300103 73.097852007449546 80.894712760858965 73.461987749640684 80.720152213980327 73.725049273070908 80.837950065550103 78.749707476199546 83.088560417108965 78.546948687140684 83.663145378050103 73.221997515260227 82.264097526480327 73.848828569949546 82.207334831169646 63.457593218390684 89.197813346800103 61.804639116820908 86.308164909300103 61.804639116820908 86.308164909300103"/>
            <polygon class="cls-17" points="52.756543413699546 89.197813346800103 42.365430132449546 82.207334831169646 42.992139116820908 82.264097526480327 37.667187944949546 83.663145378050103 37.464551226199546 83.088560417108965 42.489209429320908 80.837950065550103 42.752148882449546 80.720152213980327 43.116284624640684 80.894712760858965 54.409497515260227 86.308164909300103 52.756543413699546 89.197813346800103 52.756543413699546 89.197813346800103"/>
          </g>
          <path class="cls-2" d="M115.091485605220441,166.760580604410279c18.538182909089301.658124170689916,37.076290353870718,1.316323805678621,55.614473262960018,1.974447976368538-17.660608550540928-7.459117922629957-35.321292565369731-14.918311309558703-52.981901115910659-22.377429232179566-.877498894249584,6.800993751930946-1.755073252799775,13.601987503880082-2.632572147049359,20.402981255811028Z"/>
        </g>
      </g>
    </g>
  </g>
</svg>