<?xml version="1.0" encoding="UTF-8"?>
<svg id="Layer_1" xmlns="http://www.w3.org/2000/svg" xmlns:xlink="http://www.w3.org/1999/xlink" viewBox="0 0 392.3 293.48">
  <defs>
    <style>
      .cls-1 {
        fill: #fa4f71;
      }

      .cls-1, .cls-2, .cls-3, .cls-4, .cls-5, .cls-6 {
        fill-rule: evenodd;
      }

      .cls-7 {
        fill: #0396dc;
      }

      .cls-8, .cls-3 {
        fill: #fff;
      }

      .cls-2 {
        fill: #ffbe4e;
      }

      .cls-9 {
        fill: red;
      }

      .cls-10 {
        fill: #f3be06;
      }

      .cls-11 {
        filter: url(#j-2);
      }

      .cls-4 {
        fill: url(#linear-gradient-2);
      }

      .cls-12 {
        fill: #79bd05;
      }

      .cls-5 {
        fill: #3dc2a7;
      }

      .cls-13 {
        filter: url(#j);
      }

      .cls-14 {
        fill: #d24d25;
      }

      .cls-15 {
        fill: #be1931;
      }

      .cls-6 {
        fill: url(#linear-gradient);
      }
    </style>
    <filter id="j">
      <feGaussianBlur stdDeviation="3.896"/>
    </filter>
    <linearGradient id="linear-gradient" x1="269.67" y1="179.95" x2="269.67" y2="9.96" gradientUnits="userSpaceOnUse">
      <stop offset="0" stop-color="#0c2746"/>
      <stop offset="1" stop-color="#16466d"/>
    </linearGradient>
    <filter id="j-2" data-name="j">
      <feGaussianBlur stdDeviation="3.896"/>
    </filter>
    <linearGradient id="linear-gradient-2" x1="127.77" y1="-815.94" x2="127.77" y2="-511.01" gradientTransform="translate(0 -418.27) scale(1 -1)" gradientUnits="userSpaceOnUse">
      <stop offset=".02" stop-color="#263e66"/>
      <stop offset="1" stop-color="#3757a7"/>
    </linearGradient>
  </defs>
  <g>
    <g class="cls-13">
      <rect x="163.45" y="12.56" width="219.59" height="170" rx="7.08" ry="7.08"/>
    </g>
    <path class="cls-6" d="M166.96,9.96h205.42c3.92,0,7.08,3.16,7.08,7.08v155.83c0,3.92-3.16,7.08-7.08,7.08h-205.42c-3.92,0-7.08-3.16-7.08-7.08V17.04c0-3.92,3.16-7.08,7.08-7.08Z"/>
    <g>
      <path class="cls-1" d="M177.77,17.07c3.91,0,7.08,3.17,7.08,7.08s-3.17,7.08-7.08,7.08-7.08-3.17-7.08-7.08,3.17-7.08,7.08-7.08Z"/>
      <path class="cls-2" d="M199.02,17.07c3.91,0,7.08,3.17,7.08,7.08s-3.17,7.08-7.08,7.08-7.08-3.17-7.08-7.08,3.17-7.08,7.08-7.08Z"/>
      <path class="cls-5" d="M220.27,17.07c3.91,0,7.08,3.17,7.08,7.08s-3.17,7.08-7.08,7.08-7.08-3.17-7.08-7.08,3.17-7.08,7.08-7.08Z"/>
    </g>
    <path class="cls-3" d="M168.19,38.14h204.77v134.74h-204.77V38.14Z"/>
    <g>
      <path class="cls-8" d="M245.79,19.91v5c0,2.36-1.49,3.54-3.47,3.54s-3.47-1.18-3.47-3.54v-5h1.74v4.91c0,1.46.72,2,1.73,2s1.73-.54,1.73-2v-4.91h1.74Z"/>
      <path class="cls-8" d="M251.49,21.59v1.76c-.13-.01-.23-.02-.42-.02-1.09,0-2.03.48-2.03,2.04v2.94h-1.72v-6.6h1.72v1.15c.41-.86,1.13-1.3,2.06-1.3.16,0,.28.01.38.02Z"/>
      <path class="cls-8" d="M258.95,21.71v6.51c0,1.96-1.27,3.23-3.26,3.23-1.59,0-3.09-.8-3.35-2.53h1.77c.19.74.82,1.01,1.52,1.01,1.04,0,1.59-.54,1.59-1.66v-.95c-.47.62-1.15,1.03-2.07,1.03-1.73,0-3.01-1.42-3.01-3.39s1.31-3.39,3.01-3.39c.91,0,1.62.42,2.07,1.06v-.91h1.72ZM257.24,24.96c0-1.03-.73-1.76-1.69-1.76s-1.67.73-1.67,1.76.72,1.76,1.67,1.76,1.69-.72,1.69-1.76Z"/>
      <path class="cls-8" d="M266.98,25.46h-5.06c.11,1.06.83,1.58,1.71,1.58.66,0,1.24-.3,1.46-.83h1.78c-.49,1.56-1.81,2.24-3.23,2.24-2.06,0-3.48-1.46-3.48-3.43s1.43-3.45,3.44-3.45c2.18,0,3.54,1.71,3.37,3.89ZM262,24.2h3.15c-.19-.72-.73-1.21-1.56-1.21s-1.38.5-1.59,1.21Z"/>
      <path class="cls-8" d="M274.3,24.17v4.14h-1.71v-3.77c0-.86-.32-1.34-1.24-1.34-.97,0-1.49.56-1.49,1.64v3.47h-1.71v-6.6h1.71v.9c.48-.67,1.14-1.04,2.05-1.04,1.49,0,2.39.98,2.39,2.6Z"/>
      <path class="cls-8" d="M280.76,27.93c-.36.24-1.18.53-1.97.53-1.32,0-2.47-.79-2.47-2.69v-2.43h-1.18v-1.62h1.18v-1.43l1.71-.37v1.8h2.45v1.62h-2.45v2.34c0,.78.37,1.19,1.06,1.19.38,0,.84-.13,1.38-.32l.29,1.39Z"/>
      <path class="cls-8" d="M292.12,21.71v6.6h-1.73v-.89c-.46.62-1.14,1.03-2.06,1.03-1.73,0-3.01-1.42-3.01-3.44s1.31-3.44,3-3.44c.94,0,1.63.43,2.09,1.07v-.92h1.71ZM290.4,25.01c0-1.08-.73-1.81-1.69-1.81s-1.67.73-1.67,1.81.72,1.81,1.67,1.81,1.69-.72,1.69-1.81Z"/>
      <path class="cls-8" d="M293.5,19.08h1.72v9.23h-1.72v-9.23Z"/>
      <path class="cls-8" d="M303.24,25.46h-5.06c.11,1.06.83,1.58,1.72,1.58.66,0,1.24-.3,1.46-.83h1.78c-.49,1.56-1.81,2.24-3.23,2.24-2.06,0-3.48-1.46-3.48-3.43s1.43-3.45,3.44-3.45c2.18,0,3.54,1.71,3.37,3.89ZM298.26,24.2h3.15c-.19-.72-.73-1.21-1.56-1.21s-1.38.5-1.6,1.21Z"/>
      <path class="cls-8" d="M308.57,21.59v1.76c-.13-.01-.23-.02-.42-.02-1.09,0-2.03.48-2.03,2.04v2.94h-1.71v-6.6h1.71v1.15c.41-.86,1.13-1.3,2.06-1.3.16,0,.28.01.38.02Z"/>
      <path class="cls-8" d="M314.9,27.93c-.36.24-1.18.53-1.97.53-1.32,0-2.47-.79-2.47-2.69v-2.43h-1.18v-1.62h1.18v-1.43l1.71-.37v1.8h2.45v1.62h-2.45v2.34c0,.78.37,1.19,1.06,1.19.38,0,.84-.13,1.38-.32l.29,1.39Z"/>
    </g>
    <g>
      <path d="M194.86,54.52c0-3.71,2.75-6.54,6.54-6.54,3.1,0,5.46,1.94,6.14,4.68h-3.28c-.5-1.1-1.53-1.76-2.86-1.76-2.09,0-3.44,1.51-3.44,3.62s1.35,3.62,3.44,3.62c1.33,0,2.36-.67,2.86-1.76h3.28c-.68,2.74-3.04,4.68-6.14,4.68-3.78,0-6.54-2.83-6.54-6.54Z"/>
      <path d="M213.43,56.44h-.95v4.38h-3.06v-12.6h5.62c2.67,0,4.32,1.58,4.32,4.21,0,2.02-.97,3.22-2.52,3.73l3.31,4.66h-3.75l-2.97-4.38ZM214.69,51.13h-2.21v2.63h2.21c1.06,0,1.57-.43,1.57-1.3s-.54-1.33-1.57-1.33Z"/>
      <path d="M221.5,48.21h3.06v12.6h-3.06v-12.6Z"/>
      <path d="M236.19,51.13h-3.44v9.69h-3.06v-9.69h-3.42v-2.92h9.92v2.92Z"/>
      <path d="M237.89,48.21h3.06v12.6h-3.06v-12.6Z"/>
      <path d="M243.02,54.52c0-3.71,2.75-6.54,6.54-6.54,3.1,0,5.46,1.94,6.14,4.68h-3.28c-.5-1.1-1.53-1.76-2.86-1.76-2.09,0-3.44,1.51-3.44,3.62s1.35,3.62,3.44,3.62c1.33,0,2.36-.67,2.86-1.76h3.28c-.68,2.74-3.04,4.68-6.14,4.68-3.78,0-6.54-2.83-6.54-6.54Z"/>
      <path d="M265.09,58.21h-4.72l-.9,2.61h-3.24l4.57-12.6h3.85l4.57,12.6h-3.24l-.9-2.61ZM264.09,55.29l-1.35-3.92-1.35,3.92h2.7Z"/>
      <path d="M279.12,57.9v2.92h-8.17v-12.6h3.06v9.69h5.11Z"/>
      <path d="M289.28,51.13v1.87h5.11v2.92h-5.11v1.98h5.62v2.92h-8.68v-12.6h8.68v2.92h-5.62Z"/>
      <path d="M300.98,56.44h-.95v4.38h-3.06v-12.6h5.62c2.67,0,4.32,1.58,4.32,4.21,0,2.02-.97,3.22-2.52,3.73l3.31,4.66h-3.75l-2.97-4.38ZM302.24,51.13h-2.21v2.63h2.21c1.06,0,1.57-.43,1.57-1.3s-.54-1.33-1.57-1.33Z"/>
      <path d="M313.42,56.44h-.95v4.38h-3.06v-12.6h5.62c2.67,0,4.32,1.58,4.32,4.21,0,2.02-.97,3.22-2.52,3.73l3.31,4.66h-3.75l-2.97-4.38ZM314.68,51.13h-2.21v2.63h2.21c1.06,0,1.57-.43,1.57-1.3s-.54-1.33-1.57-1.33Z"/>
      <path d="M333.94,54.52c0,3.71-2.86,6.54-6.59,6.54s-6.59-2.83-6.59-6.54,2.86-6.54,6.59-6.54,6.59,2.83,6.59,6.54ZM323.86,54.52c0,2.11,1.48,3.62,3.49,3.62s3.49-1.51,3.49-3.62-1.48-3.62-3.49-3.62-3.49,1.51-3.49,3.62Z"/>
      <path d="M339.94,56.44h-.95v4.38h-3.06v-12.6h5.62c2.67,0,4.32,1.58,4.32,4.21,0,2.02-.97,3.22-2.52,3.73l3.31,4.66h-3.75l-2.97-4.38ZM341.2,51.13h-2.21v2.63h2.21c1.06,0,1.57-.43,1.57-1.3s-.54-1.33-1.57-1.33Z"/>
    </g>
    <g>
      <path class="cls-9" d="M192.8,85.9c0-3.31,2.45-5.79,5.78-5.79,2.59,0,4.66,1.57,5.36,3.89h-1.94c-.59-1.31-1.86-2.16-3.44-2.16-2.29,0-3.94,1.73-3.94,4.07s1.65,4.07,3.94,4.07c1.58,0,2.85-.85,3.44-2.16h1.94c-.71,2.32-2.77,3.89-5.36,3.89-3.33,0-5.78-2.48-5.78-5.79Z"/>
      <path class="cls-9" d="M205.66,79.18h1.83v12.33h-1.83v-12.33Z"/>
      <path class="cls-9" d="M211.63,79.83c0,.66-.5,1.14-1.18,1.14s-1.17-.48-1.17-1.14.51-1.1,1.17-1.1c.69,0,1.18.46,1.18,1.1ZM209.55,82.7h1.81v8.8h-1.81v-8.8Z"/>
      <path class="cls-9" d="M213.17,87.1c0-2.62,1.95-4.59,4.58-4.59,2.08,0,3.92,1.26,4.32,3.39h-1.87c-.34-1.1-1.31-1.71-2.45-1.71-1.63,0-2.75,1.22-2.75,2.91s1.15,2.91,2.74,2.91c1.15,0,2.13-.64,2.46-1.73h1.87c-.42,2.18-2.27,3.41-4.34,3.41-2.61,0-4.56-1.97-4.56-4.59Z"/>
      <path class="cls-9" d="M229.76,91.5l-4.15-4.07v4.07h-1.81v-12.33h1.81v7.33l3.81-3.81h2.32l-4.31,4.18,4.66,4.63h-2.34Z"/>
      <path class="cls-9" d="M246.34,85.95v5.55h-1.81v-5.19c0-1.36-.61-2.08-1.94-2.08-1.54,0-2.37,1.01-2.37,2.71v4.56h-1.81v-12.33h1.81v4.96c.62-1.02,1.58-1.63,2.95-1.63,1.97,0,3.17,1.3,3.17,3.44Z"/>
      <path class="cls-9" d="M257.06,87.6h-7.16c.14,1.62,1.28,2.51,2.75,2.51,1.06,0,1.94-.45,2.35-1.31h1.87c-.69,1.97-2.37,2.9-4.24,2.9-2.67,0-4.58-1.92-4.58-4.58s1.89-4.61,4.55-4.61c2.83,0,4.63,2.19,4.45,5.09ZM250,86.12h5.12c-.27-1.2-1.18-2.05-2.51-2.05s-2.3.86-2.61,2.05Z"/>
      <path class="cls-9" d="M264.08,82.56v1.84c-.16-.02-.3-.03-.54-.03-1.65,0-2.91.93-2.91,3.1v4.03h-1.81v-8.8h1.81v1.74c.53-1.23,1.54-1.94,2.93-1.94.22,0,.4.02.53.05Z"/>
      <path class="cls-9" d="M274.06,87.6h-7.16c.14,1.62,1.28,2.51,2.75,2.51,1.06,0,1.94-.45,2.35-1.31h1.87c-.69,1.97-2.37,2.9-4.24,2.9-2.67,0-4.58-1.92-4.58-4.58s1.89-4.61,4.55-4.61c2.83,0,4.63,2.19,4.45,5.09ZM267,86.12h5.12c-.27-1.2-1.18-2.05-2.51-2.05s-2.3.86-2.61,2.05Z"/>
      <path class="cls-9" d="M283.39,82.65v.05h3.25v1.7h-3.25v7.11h-1.81v-7.11h-1.63v-1.7h1.63v-.13c0-2.4,1.54-3.59,3.43-3.59.67,0,1.44.14,1.98.38l-.32,1.49-.26-.08c-.42-.13-.83-.19-1.2-.19-1.26,0-1.82.72-1.82,2.06Z"/>
      <path class="cls-9" d="M296.78,87.1c0,2.64-2,4.59-4.56,4.59s-4.56-1.97-4.56-4.59,2.05-4.59,4.56-4.59,4.56,1.94,4.56,4.59ZM289.49,87.1c0,1.7,1.2,2.87,2.74,2.87s2.74-1.17,2.74-2.87-1.22-2.87-2.74-2.87-2.74,1.17-2.74,2.87Z"/>
      <path class="cls-9" d="M303.85,82.56v1.84c-.16-.02-.3-.03-.54-.03-1.65,0-2.91.93-2.91,3.1v4.03h-1.81v-8.8h1.81v1.74c.53-1.23,1.54-1.94,2.93-1.94.22,0,.4.02.53.05Z"/>
      <path class="cls-9" d="M318.09,85.95v5.55h-1.81v-5.19c0-1.36-.61-2.08-1.94-2.08-1.54,0-2.37,1.01-2.37,2.71v4.56h-1.81v-12.33h1.81v4.96c.62-1.02,1.58-1.63,2.95-1.63,1.97,0,3.17,1.3,3.17,3.44Z"/>
      <path class="cls-9" d="M328.82,87.6h-7.16c.14,1.62,1.28,2.51,2.75,2.51,1.06,0,1.94-.45,2.35-1.31h1.87c-.69,1.97-2.37,2.9-4.24,2.9-2.67,0-4.58-1.92-4.58-4.58s1.89-4.61,4.55-4.61c2.83,0,4.63,2.19,4.45,5.09ZM321.76,86.12h5.12c-.27-1.2-1.18-2.05-2.51-2.05s-2.3.86-2.61,2.05Z"/>
      <path class="cls-9" d="M330.59,79.18h1.83v12.33h-1.83v-12.33Z"/>
      <path class="cls-9" d="M343.5,87.1c0,2.69-1.71,4.59-4.07,4.59-1.38,0-2.43-.67-3.07-1.66v5.47h-1.81v-12.81h1.81v1.5c.64-1.01,1.7-1.7,3.09-1.7,2.3,0,4.05,1.9,4.05,4.59ZM341.68,87.1c0-1.68-1.09-2.87-2.62-2.87s-2.71,1.18-2.71,2.87,1.17,2.87,2.71,2.87,2.62-1.17,2.62-2.87Z"/>
      <path class="cls-9" d="M347.93,90.56c0,.66-.51,1.14-1.18,1.14s-1.17-.48-1.17-1.14.5-1.14,1.17-1.14,1.18.48,1.18,1.14ZM347.66,84.33l-.11,3.65h-1.58l-.13-3.65v-4.03h1.83v4.03Z"/>
    </g>
    <rect class="cls-15" x="225.49" y="118.74" width="90.16" height="30.91" rx="4.3" ry="4.3"/>
    <g>
      <path class="cls-8" d="M270.85,134.25c0,5.56-4.29,9.8-9.88,9.8s-9.88-4.24-9.88-9.8,4.29-9.8,9.88-9.8,9.88,4.24,9.88,9.8ZM255.73,134.25c0,3.16,2.21,5.43,5.24,5.43s5.24-2.27,5.24-5.43-2.21-5.43-5.24-5.43-5.24,2.27-5.24,5.43Z"/>
      <path class="cls-8" d="M284.73,143.7l-6.32-8.56v8.56h-4.59v-18.9h4.59v8.04l5.91-8.04h5.64l-6.8,9.12,7.29,9.77h-5.72Z"/>
    </g>
  </g>
  <g>
    <g class="cls-11">
      <rect x="21.55" y="109.83" width="219.59" height="170" rx="7.08" ry="7.08"/>
    </g>
    <path class="cls-4" d="M25.06,107.22h205.42c3.92,0,7.08,3.16,7.08,7.08v155.83c0,3.92-3.16,7.08-7.08,7.08H25.06c-3.92,0-7.08-3.16-7.08-7.08V114.31c0-3.92,3.16-7.08,7.08-7.08Z"/>
    <path class="cls-3" d="M26.94,135.4h204.77v134.74H26.94v-134.74Z"/>
    <g>
      <path class="cls-8" d="M63.85,121.38c0,2.4-1.85,4.2-4.29,4.2h-3.03v-8.4h3.03c2.45,0,4.29,1.79,4.29,4.2ZM62.14,121.38c0-1.51-1.07-2.57-2.58-2.57h-1.32v5.13h1.32c1.51,0,2.58-1.06,2.58-2.57Z"/>
      <path class="cls-8" d="M71.73,122.72h-5.06c.11,1.06.83,1.58,1.71,1.58.66,0,1.24-.3,1.46-.83h1.77c-.49,1.56-1.81,2.24-3.23,2.24-2.06,0-3.48-1.46-3.48-3.43s1.43-3.45,3.44-3.45c2.18,0,3.54,1.71,3.37,3.89ZM66.75,121.46h3.15c-.19-.72-.73-1.21-1.56-1.21s-1.38.5-1.6,1.21Z"/>
      <path class="cls-8" d="M75.36,118.96v.02h2.19v1.62h-2.19v4.98h-1.71v-4.98h-1.18v-1.62h1.18v-.11c0-1.88,1.32-2.67,2.69-2.67.52,0,1.14.11,1.56.3l-.31,1.39-.23-.06c-.29-.08-.58-.13-.83-.13-.78,0-1.16.41-1.16,1.26Z"/>
      <path class="cls-8" d="M85.13,122.72h-5.06c.11,1.06.83,1.58,1.71,1.58.66,0,1.24-.3,1.46-.83h1.78c-.49,1.56-1.81,2.24-3.23,2.24-2.06,0-3.48-1.46-3.48-3.43s1.43-3.45,3.44-3.45c2.18,0,3.54,1.71,3.37,3.89ZM80.15,121.46h3.15c-.19-.72-.73-1.21-1.56-1.21s-1.38.5-1.6,1.21Z"/>
      <path class="cls-8" d="M92.45,121.44v4.14h-1.71v-3.77c0-.86-.32-1.34-1.24-1.34-.97,0-1.49.56-1.49,1.64v3.47h-1.71v-6.6h1.71v.9c.48-.67,1.14-1.04,2.05-1.04,1.49,0,2.39.98,2.39,2.6Z"/>
      <path class="cls-8" d="M100.5,116.34v9.23h-1.71v-.89c-.46.62-1.15,1.03-2.08,1.03-1.71,0-3.01-1.42-3.01-3.44s1.31-3.44,3-3.44c.94,0,1.63.43,2.09,1.07v-3.56h1.71ZM98.79,122.28c0-1.08-.73-1.81-1.69-1.81s-1.67.73-1.67,1.81.72,1.81,1.67,1.81,1.69-.72,1.69-1.81Z"/>
      <path class="cls-8" d="M108.53,122.72h-5.06c.11,1.06.83,1.58,1.72,1.58.66,0,1.24-.3,1.46-.83h1.78c-.49,1.56-1.81,2.24-3.23,2.24-2.06,0-3.48-1.46-3.48-3.43s1.43-3.45,3.44-3.45c2.18,0,3.54,1.71,3.37,3.89ZM103.55,121.46h3.15c-.19-.72-.73-1.21-1.56-1.21s-1.38.5-1.6,1.21Z"/>
      <path class="cls-8" d="M113.86,118.86v1.76c-.13-.01-.23-.02-.42-.02-1.09,0-2.03.48-2.03,2.04v2.94h-1.71v-6.6h1.71v1.15c.41-.86,1.13-1.3,2.06-1.3.16,0,.28.01.38.02Z"/>
      <path class="cls-8" d="M123.98,123.6h-3.39l-.72,1.98h-1.81l3.14-8.4h2.17l3.14,8.4h-1.82l-.71-1.98ZM123.38,121.97l-1.1-3.05-1.1,3.05h2.21Z"/>
      <path class="cls-8" d="M133.63,121.44v4.14h-1.71v-3.77c0-.86-.32-1.34-1.24-1.34-.97,0-1.49.56-1.49,1.64v3.47h-1.72v-6.6h1.72v.9c.48-.67,1.14-1.04,2.05-1.04,1.49,0,2.39.98,2.39,2.6Z"/>
      <path class="cls-8" d="M140.09,125.19c-.36.24-1.18.53-1.97.53-1.32,0-2.47-.79-2.47-2.69v-2.43h-1.18v-1.62h1.18v-1.43l1.71-.37v1.8h2.45v1.62h-2.45v2.34c0,.78.37,1.19,1.06,1.19.38,0,.84-.13,1.38-.32l.29,1.39Z"/>
      <path class="cls-8" d="M143.14,116.94c0,.59-.44,1.02-1.07,1.02s-1.07-.43-1.07-1.02.47-1.01,1.07-1.01,1.07.42,1.07,1.01ZM141.21,118.98h1.71v6.6h-1.71v-6.6Z"/>
      <path class="cls-8" d="M150.47,118.98l-2.27,6.6h-2.05l-2.27-6.6h1.82l1.46,4.74,1.48-4.74h1.82Z"/>
      <path class="cls-8" d="M153.35,116.94c0,.59-.44,1.02-1.07,1.02s-1.07-.43-1.07-1.02.47-1.01,1.07-1.01,1.07.42,1.07,1.01ZM151.42,118.98h1.71v6.6h-1.71v-6.6Z"/>
      <path class="cls-8" d="M158.68,118.86v1.76c-.13-.01-.23-.02-.42-.02-1.09,0-2.03.48-2.03,2.04v2.94h-1.71v-6.6h1.71v1.15c.41-.86,1.13-1.3,2.06-1.3.16,0,.28.01.38.02Z"/>
      <path class="cls-8" d="M165.66,118.98v6.6h-1.71v-.91c-.48.67-1.13,1.06-2.04,1.06-1.45,0-2.35-1-2.35-2.6v-4.14h1.71v3.77c0,.86.32,1.34,1.21,1.34.95,0,1.46-.56,1.46-1.64v-3.47h1.71Z"/>
      <path class="cls-8" d="M166.78,123.41h1.74c.13.53.53.89,1.6.89.75,0,1.12-.18,1.12-.54,0-.44-.52-.48-1.51-.72-1.87-.44-2.64-.86-2.64-2,0-1.39,1.15-2.19,2.89-2.19,1.83,0,2.73.89,2.96,2.11h-1.74c-.13-.42-.49-.67-1.28-.67-.68,0-1.1.19-1.1.55,0,.31.3.37,1.26.59,1.88.43,2.94.79,2.94,2.11,0,1.48-1.31,2.19-2.94,2.19-1.76,0-3.05-.86-3.29-2.31Z"/>
      <path class="cls-8" d="M181.99,122.84h-4.04v-1.64h4.04v1.64Z"/>
      <path class="cls-8" d="M192.76,123.6h-3.39l-.72,1.98h-1.81l3.14-8.4h2.17l3.14,8.4h-1.82l-.71-1.98ZM192.16,121.97l-1.1-3.05-1.1,3.05h2.21Z"/>
      <path class="cls-8" d="M196.28,116.34h1.72v9.23h-1.72v-9.23Z"/>
      <path class="cls-8" d="M206.02,122.72h-5.06c.11,1.06.83,1.58,1.72,1.58.66,0,1.24-.3,1.46-.83h1.78c-.49,1.56-1.81,2.24-3.23,2.24-2.06,0-3.48-1.46-3.48-3.43s1.43-3.45,3.44-3.45c2.18,0,3.54,1.71,3.37,3.89ZM201.04,121.46h3.15c-.19-.72-.73-1.21-1.56-1.21s-1.38.5-1.6,1.21Z"/>
      <path class="cls-8" d="M211.35,118.86v1.76c-.13-.01-.23-.02-.42-.02-1.09,0-2.03.48-2.03,2.04v2.94h-1.71v-6.6h1.71v1.15c.41-.86,1.13-1.3,2.06-1.3.16,0,.28.01.38.02Z"/>
      <path class="cls-8" d="M217.67,125.19c-.36.24-1.18.53-1.97.53-1.32,0-2.47-.79-2.47-2.69v-2.43h-1.18v-1.62h1.18v-1.43l1.71-.37v1.8h2.45v1.62h-2.45v2.34c0,.78.37,1.19,1.06,1.19.38,0,.84-.13,1.38-.32l.29,1.39Z"/>
    </g>
    <g>
      <path d="M42.45,157.24v3.36h-2.55v-3.33l-3.65-7.17h2.86l2.06,4.27,2.05-4.27h2.85l-3.63,7.14Z"/>
      <path d="M53.89,156.47c0,2.49-1.91,4.32-4.32,4.32s-4.32-1.84-4.32-4.32,1.93-4.32,4.32-4.32,4.32,1.83,4.32,4.32ZM47.83,156.47c0,1.16.77,1.89,1.74,1.89s1.74-.73,1.74-1.89-.75-1.89-1.74-1.89-1.74.75-1.74,1.89Z"/>
      <path d="M63.03,152.35v8.25h-2.55v-.94c-.6.75-1.37,1.14-2.37,1.14-1.81,0-2.94-1.27-2.94-3.28v-5.16h2.55v4.59c0,.9.27,1.42,1.27,1.42s1.48-.5,1.48-1.63v-4.38h2.55Z"/>
      <path d="M69.94,152.2v2.62c-.17-.01-.27-.03-.51-.03-1.2,0-2.35.36-2.35,2.23v3.57h-2.55v-8.25h2.55v1.27c.51-1,1.35-1.47,2.4-1.47.19,0,.35.02.46.04Z"/>
      <path d="M75.12,157.99h2.58c.1.45.43.88,1.62.88.85,0,1.12-.22,1.12-.57s-.25-.4-1.67-.71c-2.35-.51-3.31-1.14-3.31-2.59,0-1.79,1.42-2.83,3.81-2.83s3.46,1,3.72,2.58h-2.58c-.1-.39-.44-.66-1.25-.66-.75,0-1.12.23-1.12.58,0,.29.24.31,1.23.52,2.46.54,3.79,1.04,3.79,2.75,0,1.9-1.67,2.85-3.78,2.85-2.23,0-3.87-1.06-4.17-2.8Z"/>
      <path d="M92.53,152.35l-5.27,12h-2.71l2.15-4.89-3.1-7.11h2.71l1.74,4.3,1.77-4.3h2.71Z"/>
      <path d="M92.76,157.99h2.58c.1.45.43.88,1.62.88.85,0,1.12-.22,1.12-.57s-.25-.4-1.67-.71c-2.35-.51-3.31-1.14-3.31-2.59,0-1.79,1.43-2.83,3.81-2.83s3.46,1,3.72,2.58h-2.58c-.1-.39-.44-.66-1.25-.66-.75,0-1.12.23-1.12.58,0,.29.24.31,1.23.52,2.46.54,3.79,1.04,3.79,2.75,0,1.9-1.67,2.85-3.78,2.85-2.23,0-3.87-1.06-4.17-2.8Z"/>
      <path d="M108.67,160.07c-.46.33-1.54.72-2.58.72-1.59,0-3.15-.93-3.15-3.39v-2.65h-1.41v-2.4h1.41v-1.7l2.55-.55v2.25h2.77v2.4h-2.77v2.5c0,.79.41,1.17,1.05,1.17.45,0,.99-.18,1.7-.41l.43,2.06Z"/>
      <path d="M117.96,157.01h-6.01c.12,1.27.93,1.81,1.82,1.81.69,0,1.26-.33,1.45-.93h2.62c-.57,2.04-2.29,2.89-4.08,2.89-2.64,0-4.41-1.88-4.41-4.32s1.79-4.32,4.35-4.32c2.73,0,4.51,2.15,4.26,4.86ZM112.02,155.47h3.29c-.17-.79-.71-1.35-1.62-1.35s-1.46.56-1.67,1.35Z"/>
      <path d="M132.18,155.44v5.16h-2.55v-4.59c0-.9-.27-1.42-1.23-1.42s-1.44.49-1.44,1.63v4.38h-2.55v-4.59c0-.9-.27-1.42-1.23-1.42s-1.44.49-1.44,1.63v4.38h-2.55v-8.25h2.55v.93c.6-.73,1.37-1.12,2.34-1.12,1.12,0,2,.53,2.47,1.44.63-.91,1.59-1.44,2.73-1.44,1.77,0,2.89,1.27,2.89,3.29Z"/>
      <path d="M140.92,149.9c0,.85-.65,1.47-1.54,1.47s-1.55-.61-1.55-1.47.68-1.46,1.55-1.46,1.54.61,1.54,1.46ZM138.1,152.35h2.55v8.25h-2.55v-8.25Z"/>
      <path d="M141.78,157.99h2.58c.1.45.43.88,1.62.88.85,0,1.12-.22,1.12-.57s-.26-.4-1.67-.71c-2.36-.51-3.32-1.14-3.32-2.59,0-1.79,1.42-2.83,3.81-2.83s3.46,1,3.72,2.58h-2.58c-.11-.39-.44-.66-1.25-.66-.75,0-1.12.23-1.12.58,0,.29.24.31,1.23.52,2.46.54,3.79,1.04,3.79,2.75,0,1.9-1.66,2.85-3.78,2.85-2.24,0-3.87-1.06-4.17-2.8Z"/>
      <path d="M158.32,149.9c0,.85-.65,1.47-1.54,1.47s-1.54-.61-1.54-1.47.67-1.46,1.54-1.46,1.54.61,1.54,1.46ZM155.5,152.35h2.55v8.25h-2.55v-8.25Z"/>
      <path d="M167.47,155.44v5.16h-2.55v-4.59c0-.9-.27-1.42-1.31-1.42s-1.51.49-1.51,1.63v4.38h-2.55v-8.25h2.55v.93c.6-.73,1.37-1.12,2.38-1.12,1.86,0,2.99,1.27,2.99,3.29Z"/>
      <path d="M172.41,152.33v.02h2.49v2.4h-2.49v5.85h-2.55v-5.85h-1.41v-2.4h1.41v-.15c0-2.43,1.84-3.34,3.5-3.34.67,0,1.5.15,2.02.41l-.45,2.05-.33-.09c-.35-.09-.66-.14-.95-.14-.79,0-1.25.35-1.25,1.25Z"/>
      <path d="M184.44,157.01h-6.01c.12,1.27.93,1.81,1.81,1.81.69,0,1.26-.33,1.46-.93h2.62c-.57,2.04-2.29,2.89-4.08,2.89-2.64,0-4.41-1.88-4.41-4.32s1.79-4.32,4.35-4.32c2.73,0,4.51,2.15,4.26,4.86ZM178.5,155.47h3.29c-.17-.79-.71-1.35-1.62-1.35s-1.46.56-1.67,1.35Z"/>
      <path d="M185.52,156.47c0-2.44,1.8-4.32,4.33-4.32,2.05,0,3.9,1.25,4.16,3.45h-2.62c-.2-.79-.86-1.1-1.53-1.1-1.12,0-1.75.81-1.75,1.96s.67,1.97,1.74,1.97c.69,0,1.35-.33,1.54-1.11h2.62c-.27,2.28-2.16,3.46-4.17,3.46-2.52,0-4.32-1.88-4.32-4.32Z"/>
      <path d="M201.9,160.07c-.46.33-1.54.72-2.58.72-1.59,0-3.15-.93-3.15-3.39v-2.65h-1.41v-2.4h1.41v-1.7l2.55-.55v2.25h2.78v2.4h-2.78v2.5c0,.79.41,1.17,1.05,1.17.45,0,.99-.18,1.7-.41l.43,2.06Z"/>
      <path d="M211.18,157.01h-6.01c.12,1.27.93,1.81,1.81,1.81.69,0,1.26-.33,1.46-.93h2.62c-.57,2.04-2.29,2.89-4.08,2.89-2.64,0-4.41-1.88-4.41-4.32s1.79-4.32,4.35-4.32c2.73,0,4.51,2.15,4.26,4.86ZM205.24,155.47h3.29c-.17-.79-.71-1.35-1.62-1.35s-1.46.56-1.67,1.35Z"/>
      <path d="M221.02,149.05v11.55h-2.55v-.88c-.54.65-1.29,1.08-2.34,1.08-2.1,0-3.72-1.77-3.72-4.32s1.65-4.32,3.71-4.32c1.05,0,1.83.45,2.35,1.12v-4.23h2.55ZM218.47,156.47c0-1.14-.75-1.89-1.74-1.89s-1.74.75-1.74,1.89.76,1.89,1.74,1.89,1.74-.73,1.74-1.89Z"/>
      <path d="M48.97,170.35l-2.19,8.25h-2.93l-.73-2.77-.42-2.97h-.25l-.42,2.97-.74,2.77h-2.92l-2.19-8.25h2.52l.66,2.59.52,2.73.51-2.73.68-2.59h3.01l.66,2.59.52,2.7.51-2.7.68-2.59h2.52Z"/>
      <path d="M52.84,167.9c0,.85-.65,1.47-1.54,1.47s-1.54-.61-1.54-1.47.67-1.46,1.54-1.46,1.54.61,1.54,1.46ZM50.02,170.35h2.55v8.25h-2.55v-8.25Z"/>
      <path d="M60.76,178.07c-.46.33-1.54.72-2.58.72-1.59,0-3.15-.93-3.15-3.39v-2.65h-1.41v-2.4h1.41v-1.7l2.55-.55v2.25h2.77v2.4h-2.77v2.5c0,.79.41,1.17,1.05,1.17.45,0,.99-.18,1.7-.41l.43,2.06Z"/>
      <path d="M70,173.44v5.16h-2.55v-4.59c0-.9-.27-1.42-1.29-1.42s-1.5.49-1.5,1.63v4.38h-2.55v-11.55h2.55v4.23c.6-.73,1.36-1.12,2.38-1.12,1.83,0,2.96,1.27,2.96,3.29Z"/>
      <path d="M83.94,170.35l-2.71,8.25h-3.03l-2.71-8.25h2.71l1.52,5.38,1.52-5.38h2.71Z"/>
      <path d="M87.81,167.9c0,.85-.65,1.47-1.54,1.47s-1.54-.61-1.54-1.47.67-1.46,1.54-1.46,1.54.61,1.54,1.46ZM84.99,170.35h2.55v8.25h-2.55v-8.25Z"/>
      <path d="M94.45,170.2v2.62c-.16-.01-.27-.03-.51-.03-1.2,0-2.35.36-2.35,2.23v3.57h-2.55v-8.25h2.55v1.27c.51-1,1.35-1.47,2.4-1.47.19,0,.35.02.46.04Z"/>
      <path d="M103.29,170.35v8.25h-2.55v-.94c-.6.75-1.37,1.14-2.37,1.14-1.81,0-2.94-1.27-2.94-3.28v-5.16h2.55v4.59c0,.9.27,1.42,1.27,1.42s1.48-.5,1.48-1.63v-4.38h2.55Z"/>
      <path d="M104.41,175.99h2.58c.1.45.43.88,1.62.88.85,0,1.13-.22,1.13-.57s-.26-.4-1.67-.71c-2.35-.51-3.31-1.14-3.31-2.59,0-1.79,1.43-2.83,3.81-2.83s3.47,1,3.72,2.58h-2.58c-.11-.39-.44-.66-1.25-.66-.75,0-1.12.23-1.12.58,0,.29.24.31,1.23.52,2.46.54,3.79,1.04,3.79,2.75,0,1.9-1.66,2.85-3.78,2.85-2.23,0-3.87-1.06-4.17-2.8Z"/>
      <path d="M122.1,175.01h-6.01c.12,1.27.93,1.81,1.81,1.81.69,0,1.26-.33,1.46-.93h2.62c-.57,2.04-2.29,2.89-4.08,2.89-2.64,0-4.41-1.88-4.41-4.32s1.79-4.32,4.35-4.32c2.73,0,4.51,2.15,4.26,4.86ZM116.16,173.47h3.29c-.17-.79-.71-1.35-1.62-1.35s-1.46.56-1.67,1.35Z"/>
      <path d="M122.95,175.99h2.58c.1.45.43.88,1.62.88.85,0,1.12-.22,1.12-.57s-.26-.4-1.67-.71c-2.36-.51-3.32-1.14-3.32-2.59,0-1.79,1.42-2.83,3.81-2.83s3.46,1,3.72,2.58h-2.58c-.11-.39-.44-.66-1.25-.66-.75,0-1.12.23-1.12.58,0,.29.24.31,1.23.52,2.46.54,3.79,1.04,3.79,2.75,0,1.9-1.66,2.85-3.78,2.85-2.24,0-3.87-1.06-4.17-2.8Z"/>
      <path d="M135.57,177.32c0,.85-.66,1.47-1.54,1.47s-1.54-.61-1.54-1.47.66-1.47,1.54-1.47,1.54.62,1.54,1.47ZM135.3,171.31l-.17,3.6h-2.22l-.17-3.6v-3.21h2.55v3.21Z"/>
    </g>
    <g>
      <path class="cls-9" d="M74.54,237.14c0-3.09,2.29-5.44,5.44-5.44,2.58,0,4.54,1.62,5.11,3.9h-2.73c-.42-.91-1.28-1.47-2.39-1.47-1.74,0-2.86,1.26-2.86,3.01s1.12,3.02,2.86,3.02c1.11,0,1.96-.56,2.39-1.47h2.73c-.57,2.28-2.53,3.9-5.11,3.9-3.15,0-5.44-2.35-5.44-5.45Z"/>
      <path class="cls-9" d="M94.83,234.14v8.25h-2.56v-.88c-.52.65-1.27,1.08-2.32,1.08-2.1,0-3.72-1.77-3.72-4.32s1.65-4.32,3.7-4.32c1.05,0,1.83.45,2.35,1.12v-.93h2.55ZM92.29,238.26c0-1.14-.75-1.89-1.74-1.89s-1.74.75-1.74,1.89.77,1.89,1.74,1.89,1.74-.74,1.74-1.89Z"/>
      <path class="cls-9" d="M96.34,230.84h2.55v11.55h-2.55v-11.55Z"/>
      <path class="cls-9" d="M100.39,230.84h2.55v11.55h-2.55v-11.55Z"/>
      <path class="cls-9" d="M117.39,239.21c0,2.57-2.37,3.38-4.05,3.38-3.21,0-4.42-1.88-4.63-3.66h2.58c.24.87.71,1.28,2.04,1.28,1.03,0,1.5-.33,1.5-.88,0-.62-.63-.66-2.38-1.04-1.71-.36-3.46-.99-3.46-3.17,0-2.31,2.06-3.42,4.05-3.42,2.97,0,4.09,1.67,4.27,3.48h-2.58c-.15-.61-.49-1.09-1.69-1.09s-1.48.46-1.48.92c0,.5.48.55,1.52.78,2.94.63,4.33,1.29,4.33,3.43Z"/>
      <path class="cls-9" d="M126.6,234.14v8.25h-2.55v-.94c-.6.75-1.37,1.14-2.37,1.14-1.81,0-2.94-1.28-2.94-3.29v-5.16h2.55v4.59c0,.9.27,1.42,1.27,1.42s1.48-.5,1.48-1.63v-4.38h2.55Z"/>
      <path class="cls-9" d="M136.79,238.26c0,2.55-1.62,4.32-3.72,4.32-1.05,0-1.8-.43-2.34-1.08v4.63h-2.55v-12h2.55v.93c.53-.67,1.3-1.12,2.36-1.12,2.05,0,3.7,1.75,3.7,4.32ZM134.21,238.26c0-1.14-.75-1.89-1.74-1.89s-1.74.75-1.74,1.89.75,1.89,1.74,1.89,1.74-.74,1.74-1.89Z"/>
      <path class="cls-9" d="M146.82,238.26c0,2.55-1.62,4.32-3.72,4.32-1.05,0-1.8-.43-2.34-1.08v4.63h-2.55v-12h2.55v.93c.52-.67,1.3-1.12,2.35-1.12,2.05,0,3.71,1.75,3.71,4.32ZM144.24,238.26c0-1.14-.75-1.89-1.74-1.89s-1.74.75-1.74,1.89.75,1.89,1.74,1.89,1.74-.74,1.74-1.89Z"/>
      <path class="cls-9" d="M156.66,238.26c0,2.49-1.91,4.32-4.32,4.32s-4.32-1.84-4.32-4.32,1.93-4.32,4.32-4.32,4.32,1.83,4.32,4.32ZM150.6,238.26c0,1.16.76,1.89,1.74,1.89s1.74-.74,1.74-1.89-.75-1.89-1.74-1.89-1.74.75-1.74,1.89Z"/>
      <path class="cls-9" d="M163.43,233.99v2.62c-.16-.01-.27-.03-.51-.03-1.2,0-2.35.36-2.35,2.24v3.57h-2.55v-8.25h2.55v1.27c.51-1,1.35-1.47,2.4-1.47.2,0,.35.01.46.04Z"/>
      <path class="cls-9" d="M171.47,241.86c-.46.33-1.54.72-2.58.72-1.59,0-3.15-.93-3.15-3.39v-2.66h-1.41v-2.4h1.41v-1.7l2.55-.55v2.25h2.77v2.4h-2.77v2.5c0,.79.41,1.17,1.05,1.17.45,0,.99-.18,1.7-.41l.43,2.06Z"/>
      <path class="cls-9" d="M176.13,235.89c0,.85-.66,1.47-1.54,1.47s-1.54-.62-1.54-1.47.66-1.47,1.54-1.47,1.54.62,1.54,1.47ZM176.13,241.11c0,.85-.66,1.47-1.54,1.47s-1.54-.62-1.54-1.47.66-1.47,1.54-1.47,1.54.62,1.54,1.47Z"/>
      <path class="cls-9" d="M34.41,256.49c0,2.29.57,3.93,1.96,6.7l-1.93,1.14c-1.75-2.42-2.6-5.01-2.6-7.84s.84-5.43,2.6-7.84l1.93,1.14c-1.39,2.78-1.96,4.41-1.96,6.71Z"/>
      <path class="cls-9" d="M46.08,257.96v2.43h-8.13v-1.81l3.08-2.69c1.96-1.72,2.28-2.04,2.28-2.67,0-.51-.31-1.09-1.27-1.09-.87,0-1.29.48-1.4,1.42h-2.56c.09-2.37,1.77-3.85,4.08-3.85s3.73,1.59,3.73,3.41c0,1.63-1.09,2.55-2.74,3.99l-.98.86h-.03s3.94.01,3.94.01Z"/>
      <path class="cls-9" d="M55.3,257.31c0,2.1-1.59,3.27-3.99,3.27-2.25,0-4.06-1.18-4.19-3.58h2.58c.12.86.66,1.17,1.57,1.17,1.1,0,1.44-.43,1.44-1.11,0-.58-.3-.87-1.3-.87h-1.38v-2.22h1.14c.69,0,1.25-.13,1.25-.81,0-.55-.29-1.05-1.32-1.05-.72,0-1.19.27-1.32,1.06h-2.58c.15-2.25,1.84-3.48,3.97-3.48,2.28,0,3.83,1.33,3.83,3.12,0,.88-.42,1.67-1.12,2.08.9.4,1.42,1.27,1.42,2.42Z"/>
      <path class="cls-9" d="M64.53,257.31c0,2.1-1.59,3.27-3.99,3.27-2.25,0-4.06-1.18-4.19-3.58h2.58c.12.86.66,1.17,1.57,1.17,1.1,0,1.44-.43,1.44-1.11,0-.58-.3-.87-1.3-.87h-1.38v-2.22h1.14c.69,0,1.25-.13,1.25-.81,0-.55-.29-1.05-1.32-1.05-.72,0-1.19.27-1.32,1.06h-2.58c.15-2.25,1.84-3.48,3.97-3.48,2.28,0,3.82,1.33,3.82,3.12,0,.88-.42,1.67-1.12,2.08.9.4,1.42,1.27,1.42,2.42Z"/>
      <path class="cls-9" d="M68.04,248.64c1.75,2.42,2.59,5.01,2.59,7.84s-.84,5.43-2.59,7.84l-1.94-1.14c1.4-2.77,1.96-4.41,1.96-6.7s-.57-3.93-1.96-6.71l1.94-1.14Z"/>
      <path class="cls-9" d="M76.93,249.89v10.5h-2.55v-7.53l-2.32.97v-2.5l3.72-1.44h1.16Z"/>
      <path class="cls-9" d="M86.64,257.96v2.43h-8.13v-1.81l3.08-2.69c1.96-1.72,2.28-2.04,2.28-2.67,0-.51-.31-1.09-1.27-1.09-.87,0-1.29.48-1.4,1.42h-2.56c.09-2.37,1.77-3.85,4.08-3.85s3.73,1.59,3.73,3.41c0,1.63-1.09,2.55-2.74,3.99l-.98.86h-.03s3.94.01,3.94.01Z"/>
      <path class="cls-9" d="M95.86,257.31c0,2.1-1.59,3.27-3.99,3.27-2.25,0-4.06-1.18-4.19-3.58h2.58c.12.86.66,1.17,1.57,1.17,1.1,0,1.44-.43,1.44-1.11,0-.58-.3-.87-1.3-.87h-1.38v-2.22h1.14c.69,0,1.25-.13,1.25-.81,0-.55-.29-1.05-1.32-1.05-.72,0-1.19.27-1.32,1.06h-2.58c.15-2.25,1.84-3.48,3.97-3.48,2.28,0,3.83,1.33,3.83,3.12,0,.88-.42,1.67-1.12,2.08.9.4,1.42,1.27,1.42,2.42Z"/>
      <path class="cls-9" d="M110.79,255.14c0,3.27-1.74,5.45-4.65,5.45s-4.65-2.17-4.65-5.45,1.74-5.44,4.65-5.44,4.65,2.17,4.65,5.44ZM108.21,255.14c0-1.93-.58-3.01-2.07-3.01s-2.07,1.08-2.07,3.01.58,3.02,2.07,3.02,2.07-1.08,2.07-3.02Z"/>
      <path class="cls-9" d="M120.19,256.61c0,2.4-1.85,3.97-4.12,3.97s-4.15-1.54-4.15-3.93,1.71-4.18,3.66-6.76h3.01l-2.8,3.51c.31-.13.6-.2,1.02-.2,1.7,0,3.39,1.09,3.39,3.41ZM117.61,256.61c0-.95-.65-1.49-1.56-1.49s-1.56.54-1.56,1.49.65,1.54,1.56,1.54,1.56-.6,1.56-1.54Z"/>
      <path class="cls-9" d="M130.09,258.18h-1.43v2.21h-2.55v-2.21l-5.02.02v-2.4l3.81-5.91h3.76v5.91h1.43v2.38ZM126.12,255.78v-3.53h-.12l-2.22,3.53h2.34Z"/>
      <path class="cls-9" d="M139.12,257.96v2.43h-8.13v-1.81l3.08-2.69c1.96-1.72,2.28-2.04,2.28-2.67,0-.51-.31-1.09-1.27-1.09-.87,0-1.29.48-1.4,1.42h-2.56c.09-2.37,1.77-3.85,4.08-3.85s3.74,1.59,3.74,3.41c0,1.63-1.09,2.55-2.75,3.99l-.97.86h-.03s3.95.01,3.95.01Z"/>
      <path class="cls-9" d="M147.76,256.49c0,2.29.57,3.93,1.96,6.7l-1.93,1.14c-1.75-2.42-2.6-5.01-2.6-7.84s.84-5.43,2.6-7.84l1.93,1.14c-1.39,2.78-1.96,4.41-1.96,6.71Z"/>
      <path class="cls-9" d="M159.42,252.32h-2.86v8.07h-2.55v-8.07h-2.85v-2.43h8.26v2.43Z"/>
      <path class="cls-9" d="M167.83,256.26c0,2.49-1.91,4.32-4.32,4.32s-4.32-1.84-4.32-4.32,1.93-4.32,4.32-4.32,4.32,1.83,4.32,4.32ZM161.77,256.26c0,1.16.76,1.89,1.74,1.89s1.74-.74,1.74-1.89-.75-1.89-1.74-1.89-1.74.75-1.74,1.89Z"/>
      <path class="cls-9" d="M169.18,248.84h2.55v11.55h-2.55v-11.55Z"/>
      <path class="cls-9" d="M173.23,248.84h2.55v11.55h-2.55v-11.55Z"/>
      <path class="cls-9" d="M182.74,257.18h-5.16v-2.43h5.16v2.43Z"/>
      <path class="cls-9" d="M187.38,252.32v1.67h4.26v2.43h-4.26v3.97h-2.55v-10.5h7.23v2.43h-4.68Z"/>
      <path class="cls-9" d="M198.6,251.99v2.62c-.17-.01-.27-.03-.51-.03-1.2,0-2.36.36-2.36,2.24v3.57h-2.55v-8.25h2.55v1.27c.51-1,1.35-1.47,2.4-1.47.19,0,.34.01.46.04Z"/>
      <path class="cls-9" d="M207.96,256.8h-6.01c.12,1.28.93,1.82,1.81,1.82.69,0,1.26-.33,1.46-.93h2.62c-.57,2.04-2.29,2.89-4.08,2.89-2.64,0-4.41-1.88-4.41-4.32s1.79-4.32,4.35-4.32c2.73,0,4.51,2.14,4.26,4.86ZM202.02,255.26h3.29c-.17-.79-.71-1.35-1.62-1.35s-1.46.55-1.67,1.35Z"/>
      <path class="cls-9" d="M217.65,256.8h-6.01c.12,1.28.93,1.82,1.81,1.82.69,0,1.26-.33,1.46-.93h2.62c-.57,2.04-2.29,2.89-4.08,2.89-2.64,0-4.41-1.88-4.41-4.32s1.79-4.32,4.35-4.32c2.73,0,4.51,2.14,4.26,4.86ZM211.71,255.26h3.29c-.17-.79-.71-1.35-1.62-1.35s-1.46.55-1.67,1.35Z"/>
      <path class="cls-9" d="M221.11,248.64c1.75,2.42,2.59,5.01,2.59,7.84s-.84,5.43-2.59,7.84l-1.94-1.14c1.4-2.77,1.96-4.41,1.96-6.7s-.57-3.93-1.96-6.71l1.94-1.14Z"/>
    </g>
  </g>
  <g>
    <path class="cls-14" d="M29.68,111.21s-.05,1.94-.1,4.26c-.06,2.32-.1,4.24-.11,4.25,0,.06.64.51.99.7.43.23,1.3.55,1.82.66,1.42.3,3.02.22,4.6-.21.31-.09,1.3-.41,1.31-.44.02-.05.21-8.66.19-8.68-.02-.01-.14.03-.29.08-.86.34-1.95.6-2.85.68-1.83.16-3.78-.26-5.2-1.13-.36-.23-.36-.22-.36-.17Z"/>
    <path class="cls-12" d="M39.67,115.53c-.06,2.38-.1,4.34-.1,4.35s.1,0,.22-.03c2.28-.64,4.26-.74,6.3-.29.58.13,1.6.49,2.09.73.22.11.41.2.42.2.01,0,.02-.14.03-.3,0-.16.05-2.18.09-4.49l.09-4.2-.27-.15c-.79-.43-2.09-.81-3.25-.94-1.66-.19-3.72.08-5.29.7l-.23.09-.11,4.33h0Z"/>
    <path class="cls-7" d="M29.27,125.99l-.11,4.38.27.19c.36.26.94.53,1.47.72,1.6.55,3.36.61,5.32.17.64-.14,1.64-.46,1.66-.52,0-.02.03-.86.06-1.86.02-1,.06-2.58.09-3.51.05-2.04.09-3.56.08-3.58,0-.01-.14.03-.31.09-.46.16-1.43.4-1.93.48-2.3.39-4.5.1-6.12-.78-.18-.1-.34-.18-.35-.17,0,0-.07,1.99-.13,4.4Z"/>
    <path class="cls-10" d="M39.51,121.8c0,.13-.05,1.77-.09,3.66-.05,1.88-.1,3.8-.11,4.25-.01.45-.02.83-.01.83,0,0,.18-.05.4-.12.95-.3,2.19-.52,3.25-.58,1.8-.09,3.77.33,5.12,1.09.24.13.31.16.33.11.01-.05.04-1.11.15-6.64.02-1.19.03-2.19.02-2.21-.03-.06-.68-.44-1.07-.61-.74-.34-1.92-.64-2.84-.71-1.14-.1-2.31,0-3.52.26-.46.1-1.44.38-1.56.44-.02.01-.05.13-.06.25Z"/>
  </g>
  <path class="cls-15" d="M121.83,190.55l-16.14,27.96c-1.66,2.87.41,6.46,3.73,6.46h32.29c3.31,0,5.38-3.59,3.73-6.46l-16.14-27.96c-1.66-2.87-5.8-2.87-7.46,0Z"/>
  <path class="cls-8" d="M128.03,215.71c0,1.37-1.06,2.35-2.47,2.35s-2.47-.98-2.47-2.35,1.06-2.35,2.47-2.35,2.47.98,2.47,2.35ZM127.6,206.09l-.26,5.76h-3.55l-.26-5.76v-5.14h4.08v5.14Z"/>
</svg>